<?xml version="1.0" encoding="UTF-8" standalone="no"?>
<svg width="35mm" height="35mm" viewBox="0 0 35 35" version="1.1" id="svg9754" inkscape:version="1.2 (dc2aedaf03, 2022-05-15)" sodipodi:docname="乎.svg" xmlns:inkscape="http://www.inkscape.org/namespaces/inkscape" xmlns:sodipodi="http://sodipodi.sourceforge.net/DTD/sodipodi-0.dtd" xmlns="http://www.w3.org/2000/svg" xmlns:svg="http://www.w3.org/2000/svg">
  <sodipodi:namedview id="namedview9756" pagecolor="#ffffff" bordercolor="#666666" borderopacity="1.0" inkscape:showpageshadow="2" inkscape:pageopacity="0.0" inkscape:pagecheckerboard="0" inkscape:deskcolor="#d1d1d1" inkscape:document-units="mm" showgrid="false" inkscape:zoom="0.72515432" inkscape:cx="364.74995" inkscape:cy="561.94935" inkscape:window-width="1920" inkscape:window-height="1001" inkscape:window-x="-9" inkscape:window-y="-9" inkscape:window-maximized="1" inkscape:current-layer="layer1"></sodipodi:namedview>
  <defs id="defs9751"></defs>
  <g inkscape:label="Layer 1" inkscape:groupmode="layer" id="layer1" transform="translate(-20.810814 -121.14864)">
    <rect style="fill:#ffaaaa;fill-opacity:1;stroke:none;stroke-width:0.90779;stroke-linecap:square;stroke-dasharray:none;paint-order:fill markers stroke" id="rect44607-4" width="35" height="35" x="20.810814" y="121.14864" rx="0"></rect>
    <path style="fill:#000000;stroke:none;stroke-width:0.480371px;stroke-linecap:butt;stroke-linejoin:miter;stroke-opacity:1" d="m 35.71193,134.88709 2.20564,2.42576 c 0,0 -4.27408,17.102 -16.14788,17.102 10.39147,-2.34027 13.94224,-19.52776 13.94224,-19.52776 z" id="path2897-7-7" sodipodi:nodetypes="cccc"></path>
    <path style="fill:#000000;stroke:none;stroke-width:0.480371px;stroke-linecap:butt;stroke-linejoin:miter;stroke-opacity:1" d="m 32.6709,121.76367 2.67756,2.67757 c 0,0 -1.85846,8.0414 -5.45027,11.80409 -0.53676,0.5623 -0.75631,-1.22635 -1.38876,-0.8612 3.99163,-6.91371 4.16146,-13.62046 4.16147,-13.62046 z" id="path4521-1" sodipodi:nodetypes="ccscc"></path>
    <path style="fill:#000000;stroke:none;stroke-width:0.480372px;stroke-linecap:butt;stroke-linejoin:miter;stroke-opacity:1" d="m 26.48815,138.76549 12.38854,10.00429 2.23111,-2.23109 z" id="path4523-8" sodipodi:nodetypes="cccc"></path>
    <path style="fill:#000000;stroke:none;stroke-width:0.480372px;stroke-linecap:butt;stroke-linejoin:miter;stroke-opacity:1" d="m 30.28745,137.16215 -1.77802,-1.77802 19.94094,-3.43407 1.77801,1.77802 z" id="path4966" sodipodi:nodetypes="ccccc"></path>
    <path style="fill:#000000;stroke:none;stroke-width:0.480372px;stroke-linecap:butt;stroke-linejoin:miter;stroke-opacity:1" d="m 50.22838,133.72808 -2.05976,-1.44226 -5.67546,18.30797 2.05976,1.44226 z" id="path4968" sodipodi:nodetypes="ccccc"></path>
    <path style="fill:#000000;stroke:none;stroke-width:0.480372px;stroke-linecap:butt;stroke-linejoin:miter;stroke-opacity:1" d="m 38.87669,147.71145 3.9733,6.66487 1.70293,-2.34027 z" id="path4970" sodipodi:nodetypes="cccc"></path>
    <path style="fill:#000000;stroke:none;stroke-width:0.480372px;stroke-linecap:butt;stroke-linejoin:miter;stroke-opacity:1" d="m 35.04995,129.62392 -1.77802,-1.77802 14.12011,-2.90491 1.77801,1.77802 z" id="path5016" sodipodi:nodetypes="ccccc"></path>
  </g>
</svg>