<?xml version="1.0" encoding="UTF-8" standalone="no"?>
<svg width="35mm" height="35mm" viewBox="0 0 35 35" version="1.1" id="svg25943" inkscape:version="1.2 (dc2aedaf03, 2022-05-15)" sodipodi:docname="別.svg" xmlns:inkscape="http://www.inkscape.org/namespaces/inkscape" xmlns:sodipodi="http://sodipodi.sourceforge.net/DTD/sodipodi-0.dtd" xmlns="http://www.w3.org/2000/svg" xmlns:svg="http://www.w3.org/2000/svg">
  <sodipodi:namedview id="namedview25945" pagecolor="#ffffff" bordercolor="#666666" borderopacity="1.0" inkscape:showpageshadow="2" inkscape:pageopacity="0.0" inkscape:pagecheckerboard="0" inkscape:deskcolor="#d1d1d1" inkscape:document-units="mm" showgrid="false" inkscape:zoom="0.72515432" inkscape:cx="364.74995" inkscape:cy="561.94935" inkscape:window-width="1920" inkscape:window-height="1001" inkscape:window-x="-9" inkscape:window-y="-9" inkscape:window-maximized="1" inkscape:current-layer="layer1"></sodipodi:namedview>
  <defs id="defs25940"></defs>
  <g inkscape:label="Layer 1" inkscape:groupmode="layer" id="layer1" transform="translate(-93.783783 -173.68919)">
    <rect style="fill:#ffaaaa;fill-opacity:1;stroke:none;stroke-width:0.90779;stroke-linecap:square;stroke-dasharray:none;paint-order:fill markers stroke" id="rect53504-89" width="35" height="35" x="93.783783" y="173.68919" rx="0"></rect>
    <path style="fill:#000000;stroke:none;stroke-width:0.480372px;stroke-linecap:butt;stroke-linejoin:miter;stroke-opacity:1" d="m 112.86402,185.10574 10.8505,7.18712 1.70192,-1.70193 z" id="path868-6-2-2-3-3" sodipodi:nodetypes="cccc"></path>
    <path style="fill:#000000;stroke:none;stroke-width:0.480372px;stroke-linecap:butt;stroke-linejoin:miter;stroke-opacity:1" d="m 110.42445,185.10574 -12.749815,10.97038 -1.70193,-1.70193 z" id="path6573-9-6" sodipodi:nodetypes="cccc"></path>
    <path id="path24846" style="fill:#000000;stroke:none;stroke-width:0.480372px;stroke-linecap:butt;stroke-linejoin:miter;stroke-opacity:1" d="m 104.31117,177.60685 0.0734,8.96276 c 0.0702,4.60319 -0.52051,16.77039 -8.351425,21.4974 11.670025,-3.42758 10.337875,-20.10679 10.337875,-20.10679 v -8.91108 z" sodipodi:nodetypes="cccccc"></path>
    <path id="path24848" style="fill:#000000;stroke:none;stroke-width:0.480372px;stroke-linecap:butt;stroke-linejoin:miter;stroke-opacity:1" d="m 115.40094,175.37495 0.10387,24.25691 c 0,0 -0.92166,9.59686 8.19485,8.19485 0,0 1.00272,-0.16888 1.62419,-0.45165 l 0.7493,-2.0562 -3.94705,0.67334 c 0,0 -4.56148,-0.35907 -4.56148,-5.0338 l -0.10387,-24.14116 z" sodipodi:nodetypes="ccccccccc"></path>
    <path style="fill:#000000;stroke:none;stroke-width:0.264583px;stroke-linecap:butt;stroke-linejoin:miter;stroke-opacity:1" d="m 125.32377,207.37505 1.80093,-1.80092 -3.41652,-10.87851 z" id="path24850" sodipodi:nodetypes="cccc"></path>
  </g>
</svg>