<?xml version="1.0" encoding="UTF-8" standalone="no"?>
<svg width="35mm" height="35mm" viewBox="0 0 35 35" version="1.1" id="svg8814" inkscape:version="1.2 (dc2aedaf03, 2022-05-15)" sodipodi:docname="力.svg" xmlns:inkscape="http://www.inkscape.org/namespaces/inkscape" xmlns:sodipodi="http://sodipodi.sourceforge.net/DTD/sodipodi-0.dtd" xmlns="http://www.w3.org/2000/svg" xmlns:svg="http://www.w3.org/2000/svg">
  <sodipodi:namedview id="namedview8816" pagecolor="#ffffff" bordercolor="#666666" borderopacity="1.0" inkscape:showpageshadow="2" inkscape:pageopacity="0.0" inkscape:pagecheckerboard="0" inkscape:deskcolor="#d1d1d1" inkscape:document-units="mm" showgrid="false" inkscape:zoom="0.72515432" inkscape:cx="364.74995" inkscape:cy="561.94935" inkscape:window-width="1920" inkscape:window-height="1001" inkscape:window-x="-9" inkscape:window-y="-9" inkscape:window-maximized="1" inkscape:current-layer="layer1"></sodipodi:namedview>
  <defs id="defs8811"></defs>
  <g inkscape:label="Layer 1" inkscape:groupmode="layer" id="layer1" transform="translate(-79.189186 -197.77026)">
    <rect style="fill:#ffaaaa;fill-opacity:1;stroke:none;stroke-width:0.90779;stroke-linecap:square;stroke-dasharray:none;paint-order:fill markers stroke" id="rect53504-2" width="35" height="35" x="79.189186" y="197.77026" rx="0"></rect>
    <path style="fill:#000000;stroke:none;stroke-width:0.480371px;stroke-linecap:butt;stroke-linejoin:miter;stroke-opacity:1" d="m 85.726064,205.62505 -1.77801,-1.77802 20.706496,-3.65111 1.77801,1.77801 z" id="path2757-4" sodipodi:nodetypes="ccccc"></path>
    <path id="path6500" style="fill:#000000;stroke:none;stroke-width:0.480372px;stroke-linecap:butt;stroke-linejoin:miter;stroke-opacity:1" d="m 100.77935,208.61693 v 10.58333 c 0,0 -0.921666,9.59686 8.19485,8.19485 0,0 1.00301,-0.16892 1.62447,-0.45169 l 0.74916,-2.05627 -3.94718,0.67345 c 0,0 -4.56148,-0.35906 -4.56148,-5.0338 v -10.46759 z" sodipodi:nodetypes="ccccccscc"></path>
    <path style="fill:#000000;stroke:none;stroke-width:0.264583px;stroke-linecap:butt;stroke-linejoin:miter;stroke-opacity:1" d="m 110.59846,226.94344 1.80092,-1.80092 -3.41651,-10.87851 z" id="path6502" sodipodi:nodetypes="cccc"></path>
    <path style="fill:#000000;stroke:none;stroke-width:0.480371px;stroke-linecap:butt;stroke-linejoin:miter;stroke-opacity:1" d="m 91.238234,202.97439 2.20564,2.42576 c 0,0 -2.48684,20.91317 -12.39427,25.00321 9.05124,-7.70162 10.18863,-27.42897 10.18863,-27.42897 z" id="path6504" sodipodi:nodetypes="cccc"></path>
    <path style="fill:#000000;stroke:none;stroke-width:0.480372px;stroke-linecap:butt;stroke-linejoin:miter;stroke-opacity:1" d="m 92.966054,212.38178 -1.77802,-1.77802 9.873126,-2.32257 1.77801,1.77802 z" id="path6506" sodipodi:nodetypes="ccccc"></path>
  </g>
</svg>