<?xml version="1.0" encoding="UTF-8" standalone="no"?>
<svg width="35mm" height="35mm" viewBox="0 0 35 35" version="1.1" id="svg22721" inkscape:version="1.2 (dc2aedaf03, 2022-05-15)" sodipodi:docname="加.svg" xmlns:inkscape="http://www.inkscape.org/namespaces/inkscape" xmlns:sodipodi="http://sodipodi.sourceforge.net/DTD/sodipodi-0.dtd" xmlns="http://www.w3.org/2000/svg" xmlns:svg="http://www.w3.org/2000/svg">
  <sodipodi:namedview id="namedview22723" pagecolor="#ffffff" bordercolor="#666666" borderopacity="1.0" inkscape:showpageshadow="2" inkscape:pageopacity="0.0" inkscape:pagecheckerboard="0" inkscape:deskcolor="#d1d1d1" inkscape:document-units="mm" showgrid="false" inkscape:zoom="0.72515432" inkscape:cx="364.74995" inkscape:cy="561.94935" inkscape:window-width="1920" inkscape:window-height="1001" inkscape:window-x="-9" inkscape:window-y="-9" inkscape:window-maximized="1" inkscape:current-layer="layer1"></sodipodi:namedview>
  <defs id="defs22718"></defs>
  <g inkscape:label="Layer 1" inkscape:groupmode="layer" id="layer1" transform="translate(-61.31081 -117.86486)">
    <rect style="fill:#ffaaaa;fill-opacity:1;stroke:none;stroke-width:0.90779;stroke-linecap:square;stroke-dasharray:none;paint-order:fill markers stroke" id="rect53506-36" width="35" height="35" x="61.31081" y="117.86486" rx="0"></rect>
    <path id="path7784-3-5" style="fill:#000000;stroke:none;stroke-width:0.480372px;stroke-linecap:butt;stroke-linejoin:miter;stroke-opacity:1" d="m 72.171,121.78253 0.0734,8.96276 c 0.0702,4.60319 -0.52051,16.77039 -8.35143,21.4974 C 75.563,148.81511 74.23084,132.1359 74.23084,132.1359 v -8.91108 z" sodipodi:nodetypes="cccccc"></path>
    <path id="path7786-4-2" style="fill:#000000;stroke:none;stroke-width:0.480372px;stroke-linecap:butt;stroke-linejoin:miter;stroke-opacity:1" d="m 83.26076,119.55063 0.10387,24.25691 c 0,0 -0.92166,9.59686 8.19485,8.19485 0,0 1.00273,-0.16888 1.62419,-0.45165 l 0.74931,-2.0562 -3.94705,0.67334 c 0,0 -4.56148,-0.35907 -4.56148,-5.0338 l -0.10387,-24.14116 z" sodipodi:nodetypes="ccccccccc"></path>
    <path style="fill:#000000;stroke:none;stroke-width:0.480372px;stroke-linecap:butt;stroke-linejoin:miter;stroke-opacity:1" d="m 66.37531,135.57691 -1.77802,-1.77802 25.63929,-4.33188 1.77801,1.77801 z" id="path7790-5-7" sodipodi:nodetypes="ccccc"></path>
    <path style="fill:#000000;stroke:none;stroke-width:0.264583px;stroke-linecap:butt;stroke-linejoin:miter;stroke-opacity:1" d="m 93.1836,151.55073 1.80092,-1.80092 -3.41651,-10.87851 z" id="path6502-0" sodipodi:nodetypes="cccc"></path>
  </g>
</svg>