<?xml version="1.0" encoding="UTF-8" standalone="no"?>
<svg
   width="35mm"
   height="35mm"
   viewBox="0 0 35 35"
   version="1.1"
   id="svg10052"
   inkscape:version="1.2.1 (9c6d41e410, 2022-07-14)"
   sodipodi:docname="噫.svg"
   xmlns:inkscape="http://www.inkscape.org/namespaces/inkscape"
   xmlns:sodipodi="http://sodipodi.sourceforge.net/DTD/sodipodi-0.dtd"
   xmlns="http://www.w3.org/2000/svg"
   xmlns:svg="http://www.w3.org/2000/svg">
  <sodipodi:namedview
     id="namedview10054"
     pagecolor="#ffffff"
     bordercolor="#666666"
     borderopacity="1.0"
     inkscape:showpageshadow="2"
     inkscape:pageopacity="0.0"
     inkscape:pagecheckerboard="0"
     inkscape:deskcolor="#d1d1d1"
     inkscape:document-units="mm"
     showgrid="false"
     inkscape:zoom="2.0510461"
     inkscape:cx="195.26621"
     inkscape:cy="68.989184"
     inkscape:window-width="1920"
     inkscape:window-height="1001"
     inkscape:window-x="-9"
     inkscape:window-y="-9"
     inkscape:window-maximized="1"
     inkscape:current-layer="layer1" />
  <defs
     id="defs10049" />
  <g
     inkscape:label="Layer 1"
     inkscape:groupmode="layer"
     id="layer1"
     transform="translate(-32.121624 -159.45946)">
    <path
       style="fill:#000000;stroke:none;stroke-width:0.480371px;stroke-linecap:butt;stroke-linejoin:miter;stroke-opacity:1"
       d="m 34.80048,178.69998 -1.77802,-1.77802 14.09387,-3.41515 1.77801,1.77801 z"
       id="path2534-6"
       sodipodi:nodetypes="ccccc" />
    <path
       style="fill:#000000;stroke:none;stroke-width:0.480371px;stroke-linecap:butt;stroke-linejoin:miter;stroke-opacity:1"
       d="m 40.5288,161.44094 2.67759,2.67757 c 0,0 -0.0458,0.80745 -0.16761,2.14965 -0.57617,6.35053 -2.85229,24.67228 -10.01632,26.08257 7.86139,-4.44851 7.50634,-30.90979 7.50634,-30.90979 z"
       id="path2536-4"
       sodipodi:nodetypes="ccscc" />
    <path
       style="fill:#000000;stroke:none;stroke-width:0.480372px;stroke-linecap:butt;stroke-linejoin:miter;stroke-opacity:1"
       d="m 34.04497,165.8344 4.65605,9.12382 -1.70293,1.70293 z"
       id="path2572-9"
       sodipodi:nodetypes="cccc" />
    <path
       style="fill:#000000;stroke:none;stroke-width:0.480371px;stroke-linecap:butt;stroke-linejoin:miter;stroke-opacity:1"
       d="m 45.70136,162.71051 2.20564,2.42576 c 0,0 -1.93442,8.94603 -6.05959,11.85613 3.97795,-6.40028 3.85395,-14.28189 3.85395,-14.28189 z"
       id="path2574-1"
       sodipodi:nodetypes="cccc" />
    <path
       style="fill:#000000;stroke:none;stroke-width:0.480372px;stroke-linecap:butt;stroke-linejoin:miter;stroke-opacity:1"
       d="m 39.35768,176.99457 8.27673,4.12946 -2.23111,2.23109 z"
       id="path5078"
       sodipodi:nodetypes="cccc" />
    <path
       style="fill:#000000;stroke:none;stroke-width:0.480372px;stroke-linecap:butt;stroke-linejoin:miter;stroke-opacity:1"
       d="m 49.17467,166.71828 -1.77802,-1.77802 16.23678,-3.43408 1.77801,1.77802 z"
       id="path5132"
       sodipodi:nodetypes="ccccc" />
    <path
       style="fill:#000000;stroke:none;stroke-width:0.480371px;stroke-linecap:butt;stroke-linejoin:miter;stroke-opacity:1"
       d="m 52.54664,164.92176 2.20564,2.42576 c 0,0 -2.48684,20.91317 -12.39427,25.00321 9.05124,-7.70162 10.18863,-27.42897 10.18863,-27.42897 z"
       id="path5134"
       sodipodi:nodetypes="cccc" />
    <path
       style="fill:#000000;stroke:none;stroke-width:0.480372px;stroke-linecap:butt;stroke-linejoin:miter;stroke-opacity:1"
       d="m 54.27446,174.32915 -1.77802,-1.77802 9.87313,-2.32257 1.77801,1.77802 z"
       id="path5136"
       sodipodi:nodetypes="ccccc" />
    <path
       style="fill:#000000;stroke:none;stroke-width:0.480372px;stroke-linecap:butt;stroke-linejoin:miter;stroke-opacity:1"
       d="m 64.14759,172.00658 -4.61713,18.30797 -2.05976,-1.44226 4.61713,-18.30797 z"
       id="path5138"
       sodipodi:nodetypes="ccccc" />
    <path
       style="fill:#000000;stroke:none;stroke-width:0.480372px;stroke-linecap:butt;stroke-linejoin:miter;stroke-opacity:1"
       d="m 53.85423,185.98995 5.67623,4.3246 -1.70293,2.34027 z"
       id="path5140"
       sodipodi:nodetypes="cccc" />
  </g>
</svg>
