<?xml version="1.0" encoding="UTF-8" standalone="no"?>
<svg width="35mm" height="35mm" viewBox="0 0 35 35" version="1.1" id="svg3034" inkscape:version="1.2 (dc2aedaf03, 2022-05-15)" sodipodi:docname="我.svg" xmlns:inkscape="http://www.inkscape.org/namespaces/inkscape" xmlns:sodipodi="http://sodipodi.sourceforge.net/DTD/sodipodi-0.dtd" xmlns="http://www.w3.org/2000/svg" xmlns:svg="http://www.w3.org/2000/svg">
  <sodipodi:namedview id="namedview3036" pagecolor="#ffffff" bordercolor="#666666" borderopacity="1.0" inkscape:showpageshadow="2" inkscape:pageopacity="0.0" inkscape:pagecheckerboard="0" inkscape:deskcolor="#d1d1d1" inkscape:document-units="mm" showgrid="false" inkscape:zoom="0.72515432" inkscape:cx="364.74995" inkscape:cy="561.94935" inkscape:window-width="1920" inkscape:window-height="1001" inkscape:window-x="-9" inkscape:window-y="-9" inkscape:window-maximized="1" inkscape:current-layer="layer1"></sodipodi:namedview>
  <defs id="defs3031"></defs>
  <g inkscape:label="Layer 1" inkscape:groupmode="layer" id="layer1" transform="translate(-21.905405 -113.48649)">
    <rect style="fill:#ffaaaa;fill-opacity:1;stroke:none;stroke-width:0.90779;stroke-linecap:square;stroke-dasharray:none;paint-order:fill markers stroke" id="rect53496-8" width="35" height="35" x="21.905405" y="113.48649" rx="0"></rect>
    <path style="fill:#000000;stroke:none;stroke-width:0.480371px;stroke-linecap:butt;stroke-linejoin:miter;stroke-opacity:1" d="m 26.102016,128.2967 -1.77801,-1.77802 15.04825,-2.62707 1.77801,1.77802 z" id="path1401" sodipodi:nodetypes="ccccc"></path>
    <path style="fill:#000000;stroke:none;stroke-width:0.480371px;stroke-linecap:butt;stroke-linejoin:miter;stroke-opacity:1" d="m 32.677386,115.46793 2.67758,2.67757 c 0,0 -1.14067,23.82655 -11.03096,28.31086 8.57877,-7.27389 8.35338,-30.98844 8.35338,-30.98843 z" id="path1403" sodipodi:nodetypes="cccc"></path>
    <path style="fill:#000000;stroke:none;stroke-width:0.480371px;stroke-linecap:butt;stroke-linejoin:miter;stroke-opacity:1" d="m 52.201046,146.99205 2.24926,-2.24927 c -12.26498,-4.42933 -17.67029,-7.25426 -21.6238,-17.75962 l -0.70209,0.63773 c 5.77748,14.5685 10.77767,15.77092 20.07663,19.37116 z" id="path1405" sodipodi:nodetypes="ccccc"></path>
    <path style="fill:#000000;stroke:none;stroke-width:0.480371px;stroke-linecap:butt;stroke-linejoin:miter;stroke-opacity:1" d="m 38.015066,138.56191 -1.77802,-1.77801 13.8362,-2.9936 0.71437,0.81588 z" id="path1439" sodipodi:nodetypes="ccccc"></path>
    <path style="fill:#000000;stroke:none;stroke-width:0.480371px;stroke-linecap:butt;stroke-linejoin:miter;stroke-opacity:1" d="m 43.815786,116.19418 2.67757,2.67757 c 0,0 -1.47615,16.47894 -8.47829,19.69016 5.78962,-6.21406 5.80072,-22.36773 5.80072,-22.36773 z" id="path1441" sodipodi:nodetypes="cccc"></path>
    <path style="fill:#000000;stroke:none;stroke-width:0.480372px;stroke-linecap:butt;stroke-linejoin:miter;stroke-opacity:1" d="m 45.451006,127.15238 6.84387,12.36174 1.70193,-1.70193 z" id="path1443" sodipodi:nodetypes="cccc"></path>
  </g>
</svg>