<?xml version="1.0" encoding="UTF-8" standalone="no"?>
<svg width="35mm" height="35mm" viewBox="0 0 35 35" version="1.1" id="svg21944" inkscape:version="1.2 (dc2aedaf03, 2022-05-15)" sodipodi:docname="星.svg" xmlns:inkscape="http://www.inkscape.org/namespaces/inkscape" xmlns:sodipodi="http://sodipodi.sourceforge.net/DTD/sodipodi-0.dtd" xmlns="http://www.w3.org/2000/svg" xmlns:svg="http://www.w3.org/2000/svg">
  <sodipodi:namedview id="namedview21946" pagecolor="#ffffff" bordercolor="#666666" borderopacity="1.0" inkscape:showpageshadow="2" inkscape:pageopacity="0.0" inkscape:pagecheckerboard="0" inkscape:deskcolor="#d1d1d1" inkscape:document-units="mm" showgrid="false" inkscape:zoom="0.72515432" inkscape:cx="364.74995" inkscape:cy="561.94935" inkscape:window-width="1920" inkscape:window-height="1001" inkscape:window-x="-9" inkscape:window-y="-9" inkscape:window-maximized="1" inkscape:current-layer="layer1"></sodipodi:namedview>
  <defs id="defs21941"></defs>
  <g inkscape:label="Layer 1" inkscape:groupmode="layer" id="layer1" transform="translate(-53.648647 -87.945946)">
    
    <path style="fill:#000000;stroke:none;stroke-width:0.480371px;stroke-linecap:butt;stroke-linejoin:miter;stroke-opacity:1" d="m 62.57474,92.20498 2.67759,2.677555 c 0,0 0.082,-1.34521 0,0 -0.59049,9.687535 -5.46706,22.033875 -10.18393,25.057065 4.91878,-6.27308 7.5049,-16.43978 7.50602,-25.23067 z" id="path2536-4-0-9-35" sodipodi:nodetypes="ccscsc"></path>
    <path style="fill:#000000;stroke:none;stroke-width:0.480372px;stroke-linecap:butt;stroke-linejoin:miter;stroke-opacity:1" d="m 65.65866,98.095572 6.04562,6.360518 2.23111,-2.23108 z" id="path5078-9-1-3" sodipodi:nodetypes="cccc"></path>
    <path style="fill:#000000;stroke:none;stroke-width:0.480372px;stroke-linecap:butt;stroke-linejoin:miter;stroke-opacity:1" d="m 65.10369,107.97868 6.04562,6.36051 2.23111,-2.23108 z" id="path5078-9-1-4-4" sodipodi:nodetypes="cccc"></path>
    <path id="path6500-8" style="fill:#000000;stroke:none;stroke-width:0.480372px;stroke-linecap:butt;stroke-linejoin:miter;stroke-opacity:1" d="m 74.99768,91.623417 v 18.520833 c 0,0 -0.92167,9.59686 8.19485,8.19485 0,0 1.00301,-0.16892 1.62447,-0.45169 l 0.74916,-2.05627 -3.94718,0.67345 c 0,0 -4.56148,-0.35906 -4.56148,-5.0338 V 93.065697 Z" sodipodi:nodetypes="ccccccscc"></path>
    <path style="fill:#000000;stroke:none;stroke-width:0.264583px;stroke-linecap:butt;stroke-linejoin:miter;stroke-opacity:1" d="M 84.81679,117.88743 86.61771,116.08651 83.2012,105.208 Z" id="path6502-8" sodipodi:nodetypes="cccc"></path>
    <path style="fill:#000000;stroke:none;stroke-width:0.480372px;stroke-linecap:butt;stroke-linejoin:miter;stroke-opacity:1" d="m 65.69155,95.321778 -1.77802,-1.778021 11.36596,-2.256083 1.77801,1.77802 z" id="path6506-7" sodipodi:nodetypes="ccccc"></path>
  </g>
</svg>