<?xml version="1.0" encoding="UTF-8" standalone="no"?>
<svg width="35mm" height="35mm" viewBox="0 0 35 35" version="1.1" id="svg22166" inkscape:version="1.2 (dc2aedaf03, 2022-05-15)" sodipodi:docname="水.svg" xmlns:inkscape="http://www.inkscape.org/namespaces/inkscape" xmlns:sodipodi="http://sodipodi.sourceforge.net/DTD/sodipodi-0.dtd" xmlns="http://www.w3.org/2000/svg" xmlns:svg="http://www.w3.org/2000/svg">
  <sodipodi:namedview id="namedview22168" pagecolor="#ffffff" bordercolor="#666666" borderopacity="1.0" inkscape:showpageshadow="2" inkscape:pageopacity="0.0" inkscape:pagecheckerboard="0" inkscape:deskcolor="#d1d1d1" inkscape:document-units="mm" showgrid="false" inkscape:zoom="0.72515432" inkscape:cx="364.74995" inkscape:cy="561.94935" inkscape:window-width="1920" inkscape:window-height="1001" inkscape:window-x="-9" inkscape:window-y="-9" inkscape:window-maximized="1" inkscape:current-layer="layer1"></sodipodi:namedview>
  <defs id="defs22163"></defs>
  <g inkscape:label="Layer 1" inkscape:groupmode="layer" id="layer1" transform="translate(-58.027027 -94.87838)">
    <rect style="fill:#ffaaaa;fill-opacity:1;stroke:none;stroke-width:0.90779;stroke-linecap:square;stroke-dasharray:none;paint-order:fill markers stroke" id="rect53494-5" width="35" height="35" x="58.027027" y="94.87838" rx="0"></rect>
    <path style="fill:#000000;stroke:none;stroke-width:0.480371px;stroke-linecap:butt;stroke-linejoin:miter;stroke-opacity:1" d="m 67.17604,99.420122 2.67759,2.677558 c 0,0 0.082,-1.34521 0,0 -0.59049,9.68753 -5.46706,22.03387 -10.18393,25.05706 4.91878,-6.27308 7.5049,-16.43978 7.50602,-25.23067 z" id="path2536-4-0-9" sodipodi:nodetypes="ccscsc"></path>
    <path style="fill:#000000;stroke:none;stroke-width:0.480371px;stroke-linecap:butt;stroke-linejoin:miter;stroke-opacity:1" d="m 81.53198,97.374785 2.67759,2.677555 c 0,0 -0.005,-1.347702 0,0 0.0356,10.13247 -8.33857,25.76505 -14.94643,28.23206 6.7657,-5.79795 11.84007,-16.7377 12.33337,-28.920563 l -0.0645,-1.989052 z" id="path2536-4-0-7-3" sodipodi:nodetypes="ccscccc"></path>
    <path style="fill:#000000;stroke:none;stroke-width:0.480372px;stroke-linecap:butt;stroke-linejoin:miter;stroke-opacity:1" d="m 66.00492,113.38616 6.04562,6.36052 2.23111,-2.23108 z" id="path5078-9-1" sodipodi:nodetypes="cccc"></path>
    <path style="fill:#000000;stroke:none;stroke-width:0.480372px;stroke-linecap:butt;stroke-linejoin:miter;stroke-opacity:1" d="m 80.04487,112.13014 8.78796,14.94326 1.70293,-1.70293 z" id="path1817-4-9" sodipodi:nodetypes="cccc"></path>
  </g>
</svg>