<?xml version="1.0" encoding="UTF-8" standalone="no"?>
<svg width="35mm" height="35mm" viewBox="0 0 35 35" version="1.1" id="svg3275" inkscape:version="1.2 (dc2aedaf03, 2022-05-15)" sodipodi:docname="æ±.svg" xmlns:inkscape="http://www.inkscape.org/namespaces/inkscape" xmlns:sodipodi="http://sodipodi.sourceforge.net/DTD/sodipodi-0.dtd" xmlns="http://www.w3.org/2000/svg" xmlns:svg="http://www.w3.org/2000/svg">
  <sodipodi:namedview id="namedview3277" pagecolor="#ffffff" bordercolor="#666666" borderopacity="1.0" inkscape:showpageshadow="2" inkscape:pageopacity="0.0" inkscape:pagecheckerboard="0" inkscape:deskcolor="#d1d1d1" inkscape:document-units="mm" showgrid="false" inkscape:zoom="0.72515432" inkscape:cx="364.74995" inkscape:cy="561.94935" inkscape:window-width="1920" inkscape:window-height="1001" inkscape:window-x="-9" inkscape:window-y="-9" inkscape:window-maximized="1" inkscape:current-layer="layer1"></sodipodi:namedview>
  <defs id="defs3272"></defs>
  <g inkscape:label="Layer 1" inkscape:groupmode="layer" id="layer1" transform="translate(-89.405403 -182.81081)">
    
    <path style="fill:#000000;stroke:none;stroke-width:0.480371px;stroke-linecap:butt;stroke-linejoin:miter;stroke-opacity:1" d="m 93.602027,197.62102 -1.77801,-1.77801 15.048253,-2.62707 1.77801,1.77802 z" id="path1769" sodipodi:nodetypes="ccccc"></path>
    <path style="fill:#000000;stroke:none;stroke-width:0.480371px;stroke-linecap:butt;stroke-linejoin:miter;stroke-opacity:1" d="m 100.1774,184.79225 2.67758,2.67758 c 0,0 -1.14067,23.82655 -11.030963,28.31086 8.578773,-7.27389 8.353383,-30.98844 8.353383,-30.98844 z" id="path1771" sodipodi:nodetypes="cccc"></path>
    <path style="fill:#000000;stroke:none;stroke-width:0.480371px;stroke-linecap:butt;stroke-linejoin:miter;stroke-opacity:1" d="m 119.70106,216.31638 2.24926,-2.24927 c -12.26498,-4.42933 -17.67029,-7.25426 -21.6238,-17.75962 l -0.702093,0.63773 c 5.777483,14.5685 10.777673,15.77092 20.076633,19.37116 z" id="path1773" sodipodi:nodetypes="ccccc"></path>
    <path style="fill:#000000;stroke:none;stroke-width:0.480372px;stroke-linecap:butt;stroke-linejoin:miter;stroke-opacity:1" d="m 106.43255,192.81013 -1.77802,-1.77802 15.87306,-2.79885 1.77801,1.77802 z" id="path1813" sodipodi:nodetypes="ccccc"></path>
    <path style="fill:#000000;stroke:none;stroke-width:0.480372px;stroke-linecap:butt;stroke-linejoin:miter;stroke-opacity:1" d="m 120.52759,188.23326 1.77801,1.77802 c -2.47172,5.59151 -5.55381,10.21363 -9.82892,14.50518 l -0.77292,-0.61643 c 2.25456,-3.1808 5.47202,-5.70878 8.82383,-15.66677 z" id="path1815" sodipodi:nodetypes="ccccc"></path>
    <path style="fill:#000000;stroke:none;stroke-width:0.480372px;stroke-linecap:butt;stroke-linejoin:miter;stroke-opacity:1" d="m 107.23123,197.45417 7.72964,13.35583 1.70293,-1.70293 z" id="path1817" sodipodi:nodetypes="cccc"></path>
  </g>
</svg>