<?xml version="1.0" encoding="UTF-8" standalone="no"?>
<svg width="35mm" height="35mm" viewBox="0 0 35 35" version="1.1" id="svg33484" inkscape:version="1.2 (dc2aedaf03, 2022-05-15)" sodipodi:docname="白.svg" xmlns:inkscape="http://www.inkscape.org/namespaces/inkscape" xmlns:sodipodi="http://sodipodi.sourceforge.net/DTD/sodipodi-0.dtd" xmlns="http://www.w3.org/2000/svg" xmlns:svg="http://www.w3.org/2000/svg">
  <sodipodi:namedview id="namedview33486" pagecolor="#ffffff" bordercolor="#666666" borderopacity="1.0" inkscape:showpageshadow="2" inkscape:pageopacity="0.0" inkscape:pagecheckerboard="0" inkscape:deskcolor="#d1d1d1" inkscape:document-units="mm" showgrid="false" inkscape:zoom="0.72515432" inkscape:cx="364.74995" inkscape:cy="561.94935" inkscape:window-width="1920" inkscape:window-height="1001" inkscape:window-x="-9" inkscape:window-y="-9" inkscape:window-maximized="1" inkscape:current-layer="layer1"></sodipodi:namedview>
  <defs id="defs33481"></defs>
  <g inkscape:label="Layer 1" inkscape:groupmode="layer" id="layer1" transform="translate(-61.675713 -124.43243)">
    
    <path style="fill:#000000;stroke:none;stroke-width:0.480372px;stroke-linecap:butt;stroke-linejoin:miter;stroke-opacity:1" d="m 86.8123,128.56156 -2.0598,-1.44226 v 22.31975 l 2.0598,1.44226 z" id="path2682-4" sodipodi:nodetypes="ccccc"></path>
    <path style="fill:#000000;stroke:none;stroke-width:0.480372px;stroke-linecap:butt;stroke-linejoin:miter;stroke-opacity:1" d="m 81.1361,146.55671 3.9733,6.66487 1.7029,-2.34027 z" id="path2749-1" sodipodi:nodetypes="cccc"></path>
    <path style="fill:#000000;stroke:none;stroke-width:0.480372px;stroke-linecap:butt;stroke-linejoin:miter;stroke-opacity:1" d="m 77.4288,135.08235 3.1414,11.41309 1.7029,-1.70293 z" id="path7430-44" sodipodi:nodetypes="cccc"></path>
    <path style="fill:#000000;stroke:none;stroke-width:0.480371px;stroke-linecap:butt;stroke-linejoin:miter;stroke-opacity:1" d="m 93.0257,134.55318 1.778,1.77801 c 0,0 -3.0098,5.20071 -7.135,8.11081 4.6859,-6.69474 5.357,-9.88882 5.357,-9.88882 z" id="path7432-2" sodipodi:nodetypes="cccc"></path>
    <path style="fill:#000000;stroke:none;stroke-width:0.480372px;stroke-linecap:butt;stroke-linejoin:miter;stroke-opacity:1" d="m 70.2231,135.9389 -1.1396,-1.92129 7.9351,-1.51832 1.778,1.77802 z" id="path3072" sodipodi:nodetypes="ccccc"></path>
    <path style="fill:#000000;stroke:none;stroke-width:0.480371px;stroke-linecap:butt;stroke-linejoin:miter;stroke-opacity:1" d="m 77.0186,132.49929 1.778,1.77802 c 0,0 -5.2095,14.97882 -16.4883,23.55622 9.8008,-11.24524 14.7103,-25.33424 14.7103,-25.33424 z" id="path3074" sodipodi:nodetypes="cccc"></path>
    <path style="fill:#000000;stroke:none;stroke-width:0.480371px;stroke-linecap:butt;stroke-linejoin:miter;stroke-opacity:1" d="m 67.2255,130.63298 2.6776,2.67757 c 0,0 -1.8221,7.48397 -6.9049,9.89135 4.8633,-5.53348 4.2273,-12.56892 4.2273,-12.56892 z" id="path3076" sodipodi:nodetypes="cccc"></path>
    <path style="fill:#000000;stroke:none;stroke-width:0.480371px;stroke-linecap:butt;stroke-linejoin:miter;stroke-opacity:1" d="m 92.998,157.34115 2.2493,-2.24926 C 77.7911,155.30318 71.227,146.7793 67.2735,136.27394 l -0.7021,0.63774 c 5.7775,14.56849 11.1629,19.97799 26.4266,20.42947 z" id="path3078" sodipodi:nodetypes="ccccc"></path>
  </g>
</svg>