<?xml version="1.0" encoding="UTF-8" standalone="no"?>
<svg
   width="35mm"
   height="35mm"
   viewBox="0 0 35 35"
   version="1.1"
   id="svg25757"
   inkscape:version="1.2.1 (9c6d41e410, 2022-07-14)"
   sodipodi:docname="等.svg"
   xmlns:inkscape="http://www.inkscape.org/namespaces/inkscape"
   xmlns:sodipodi="http://sodipodi.sourceforge.net/DTD/sodipodi-0.dtd"
   xmlns="http://www.w3.org/2000/svg"
   xmlns:svg="http://www.w3.org/2000/svg">
  <sodipodi:namedview
     id="namedview25759"
     pagecolor="#ffffff"
     bordercolor="#666666"
     borderopacity="1.0"
     inkscape:showpageshadow="2"
     inkscape:pageopacity="0.0"
     inkscape:pagecheckerboard="0"
     inkscape:deskcolor="#d1d1d1"
     inkscape:document-units="mm"
     showgrid="false"
     inkscape:zoom="4.1020923"
     inkscape:cx="89.34465"
     inkscape:cy="89.100872"
     inkscape:window-width="1920"
     inkscape:window-height="1001"
     inkscape:window-x="-9"
     inkscape:window-y="-9"
     inkscape:window-maximized="1"
     inkscape:current-layer="layer1" />
  <defs
     id="defs25754" />
  <g
     inkscape:label="Layer 1"
     inkscape:groupmode="layer"
     id="layer1"
     transform="translate(-111.29729 -153.98648)">
    <path
       style="fill:#000000;stroke:none;stroke-width:0.480371px;stroke-linecap:butt;stroke-linejoin:miter;stroke-opacity:1"
       d="m 116.66635,169.72595 -1.77802,-1.77802 14.09387,-3.41515 1.77801,1.77801 z"
       id="path2534-6-5"
       sodipodi:nodetypes="ccccc" />
    <path
       style="fill:#000000;stroke:none;stroke-width:0.480371px;stroke-linecap:butt;stroke-linejoin:miter;stroke-opacity:1"
       d="m 131.09621,169.4665 -1.77802,-1.77802 14.09387,-3.41515 1.77801,1.77801 z"
       id="path2534-6-5-2"
       sodipodi:nodetypes="ccccc" />
    <path
       style="fill:#000000;stroke:none;stroke-width:0.480371px;stroke-linecap:butt;stroke-linejoin:miter;stroke-opacity:1"
       d="m 122.69449,158.77647 2.67759,2.67756 c 0,0 0.082,-1.34521 0,0 -0.59049,9.68753 -5.46706,22.03387 -10.18393,25.05706 4.91878,-6.27308 7.5049,-16.43978 7.50602,-25.23067 z"
       id="path2536-4-0-9-3"
       sodipodi:nodetypes="ccscsc" />
    <path
       style="fill:#000000;stroke:none;stroke-width:0.480371px;stroke-linecap:butt;stroke-linejoin:miter;stroke-opacity:1"
       d="m 137.05043,156.73114 2.67759,2.67755 c 0,0 -0.005,-1.3477 0,0 0.0356,10.13247 -8.33857,25.76505 -14.94643,28.23207 6.7657,-5.79796 11.84007,-16.7377 12.33337,-28.92057 l -0.0645,-1.98905 z"
       id="path2536-4-0-7-3-8"
       sodipodi:nodetypes="ccscccc" />
    <path
       style="fill:#000000;stroke:none;stroke-width:0.480372px;stroke-linecap:butt;stroke-linejoin:miter;stroke-opacity:1"
       d="m 121.52337,172.74252 8.27673,4.12943 -2.23111,2.23108 z"
       id="path5078-9-1-6"
       sodipodi:nodetypes="cccc" />
    <path
       style="fill:#000000;stroke:none;stroke-width:0.480372px;stroke-linecap:butt;stroke-linejoin:miter;stroke-opacity:1"
       d="m 135.56332,171.48649 10.49089,13.24034 -1.70293,1.70292 z"
       id="path1817-4-9-2"
       sodipodi:nodetypes="cccc" />
  </g>
</svg>
