<?xml version="1.0" encoding="UTF-8" standalone="no"?>
<svg width="35mm" height="35mm" viewBox="0 0 35 35" version="1.1" id="svg35093" inkscape:version="1.2 (dc2aedaf03, 2022-05-15)" sodipodi:docname="色.svg" xmlns:inkscape="http://www.inkscape.org/namespaces/inkscape" xmlns:sodipodi="http://sodipodi.sourceforge.net/DTD/sodipodi-0.dtd" xmlns="http://www.w3.org/2000/svg" xmlns:svg="http://www.w3.org/2000/svg">
  <sodipodi:namedview id="namedview35095" pagecolor="#ffffff" bordercolor="#666666" borderopacity="1.0" inkscape:showpageshadow="2" inkscape:pageopacity="0.0" inkscape:pagecheckerboard="0" inkscape:deskcolor="#d1d1d1" inkscape:document-units="mm" showgrid="false" inkscape:zoom="0.72515432" inkscape:cx="364.74995" inkscape:cy="561.94935" inkscape:window-width="1920" inkscape:window-height="1001" inkscape:window-x="-9" inkscape:window-y="-9" inkscape:window-maximized="1" inkscape:current-layer="layer1"></sodipodi:namedview>
  <defs id="defs35090"></defs>
  <g inkscape:label="Layer 1" inkscape:groupmode="layer" id="layer1" transform="translate(-60.945946 -152.16216)">
    <rect style="fill:#ffaaaa;fill-opacity:1;stroke:none;stroke-width:0.90779;stroke-linecap:square;stroke-dasharray:none;paint-order:fill markers stroke" id="rect49049-9" width="35" height="35" x="60.945946" y="152.16216" rx="0"></rect>
    <path style="fill:#000000;stroke:none;stroke-width:0.480372px;stroke-linecap:butt;stroke-linejoin:miter;stroke-opacity:1" d="m 74.112334,160.39443 -1.1396,-1.92129 11.6393,-2.04749 1.778,1.77802 z" id="path9485" sodipodi:nodetypes="ccccc"></path>
    <path style="fill:#000000;stroke:none;stroke-width:0.480371px;stroke-linecap:butt;stroke-linejoin:miter;stroke-opacity:1" d="m 84.612034,156.42565 1.778,1.77802 c 0,0 -5.2651,20.60026 -24.3859,25.78254 18.7139,-8.57561 22.6079,-27.56056 22.6079,-27.56056 z" id="path9575" sodipodi:nodetypes="cccc"></path>
    <path style="fill:#000000;stroke:none;stroke-width:0.480371px;stroke-linecap:butt;stroke-linejoin:miter;stroke-opacity:1" d="m 71.114734,152.97184 2.6776,2.67757 c 0,0 0.6807,12.77082 -9.9638,17.62536 9.702,-8.25872 7.2862,-20.30293 7.2862,-20.30293 z" id="path9575-7" sodipodi:nodetypes="cccc"></path>
    <path style="fill:#000000;stroke:none;stroke-width:0.480371px;stroke-linecap:butt;stroke-linejoin:miter;stroke-opacity:1" d="m 92.560634,183.78853 2.2493,-2.24926 c -12.265,-4.42934 -18.7286,-8.31259 -22.6821,-18.81795 l -0.7021,0.63773 c 5.7775,14.5685 11.8359,16.82925 21.1349,20.42948 z" id="path1405-6-2" sodipodi:nodetypes="ccccc"></path>
  </g>
</svg>