<?xml version="1.0" encoding="UTF-8" standalone="no"?>
<svg width="35mm" height="35mm" viewBox="0 0 35 35" version="1.1" id="svg33290" inkscape:version="1.2 (dc2aedaf03, 2022-05-15)" sodipodi:docname="赤.svg" xmlns:inkscape="http://www.inkscape.org/namespaces/inkscape" xmlns:sodipodi="http://sodipodi.sourceforge.net/DTD/sodipodi-0.dtd" xmlns="http://www.w3.org/2000/svg" xmlns:svg="http://www.w3.org/2000/svg">
  <sodipodi:namedview id="namedview33292" pagecolor="#ffffff" bordercolor="#666666" borderopacity="1.0" inkscape:showpageshadow="2" inkscape:pageopacity="0.0" inkscape:pagecheckerboard="0" inkscape:deskcolor="#d1d1d1" inkscape:document-units="mm" showgrid="false" inkscape:zoom="0.72515432" inkscape:cx="364.74995" inkscape:cy="561.94935" inkscape:window-width="1920" inkscape:window-height="1001" inkscape:window-x="-9" inkscape:window-y="-9" inkscape:window-maximized="1" inkscape:current-layer="layer1"></sodipodi:namedview>
  <defs id="defs33287"></defs>
  <g inkscape:label="Layer 1" inkscape:groupmode="layer" id="layer1" transform="translate(-71.527016 -119.68919)">
    <rect style="fill:#ffaaaa;fill-opacity:1;stroke:none;stroke-width:0.90779;stroke-linecap:square;stroke-dasharray:none;paint-order:fill markers stroke" id="rect53502-09" width="35" height="35" x="71.527016" y="119.68919" rx="0"></rect>
    <path style="fill:#000000;stroke:none;stroke-width:0.480371px;stroke-linecap:butt;stroke-linejoin:miter;stroke-opacity:1" d="m 96.0474,120.29897 1.759,1.92593 c 0,0 -8.7974,11.11958 -20.8577,15.03027 12.2191,-7.7868 19.0987,-16.9562 19.0987,-16.9562 z" id="path7629-7" sodipodi:nodetypes="cccc"></path>
    <path style="fill:#000000;stroke:none;stroke-width:0.480372px;stroke-linecap:butt;stroke-linejoin:miter;stroke-opacity:1" d="m 82.9977,139.34551 -1.1396,-1.92129 11.6393,-2.04749 1.778,1.77802 z" id="path2914" sodipodi:nodetypes="ccccc"></path>
    <path style="fill:#000000;stroke:none;stroke-width:0.480371px;stroke-linecap:butt;stroke-linejoin:miter;stroke-opacity:1" d="m 93.4974,135.37673 1.778,1.77802 c -7.8978,10.88818 -13.4173,16.47611 -22.6902,16.47611 11.1137,-1.33938 20.9122,-18.25413 20.9122,-18.25413 z" id="path2916" sodipodi:nodetypes="cccc"></path>
    <path style="fill:#000000;stroke:none;stroke-width:0.480371px;stroke-linecap:butt;stroke-linejoin:miter;stroke-opacity:1" d="m 80.2388,134.21748 2.6776,2.67757 c 0,0 -2.6053,8.40249 -9.0227,10.54846 5.6714,-3.53945 6.3451,-13.22603 6.3451,-13.22603 z" id="path2918" sodipodi:nodetypes="cccc"></path>
    <path style="fill:#000000;stroke:none;stroke-width:0.480372px;stroke-linecap:butt;stroke-linejoin:miter;stroke-opacity:1" d="m 77.7833,125.1529 19.1049,11.45742 1.7019,-1.70193 z" id="path2931" sodipodi:nodetypes="cccc"></path>
    <path style="fill:#000000;stroke:none;stroke-width:0.480372px;stroke-linecap:butt;stroke-linejoin:miter;stroke-opacity:1" d="m 80.819,120.69262 6.0456,6.36051 2.2311,-2.23108 z" id="path5078-9-1-6-5" sodipodi:nodetypes="cccc"></path>
    <path style="fill:#000000;stroke:none;stroke-width:0.480371px;stroke-linecap:butt;stroke-linejoin:miter;stroke-opacity:1" d="m 101.8633,153.62723 3.3515,-1.02682 -24.832,-12.6083 -0.7021,0.63773 z" id="path2588-9-9-8" sodipodi:nodetypes="ccccc"></path>
  </g>
</svg>