<?xml version="1.0" encoding="UTF-8" standalone="no"?>
<svg width="35mm" height="35mm" viewBox="0 0 35 35" version="1.1" id="svg35272" inkscape:version="1.2 (dc2aedaf03, 2022-05-15)" sodipodi:docname="é’.svg" xmlns:inkscape="http://www.inkscape.org/namespaces/inkscape" xmlns:sodipodi="http://sodipodi.sourceforge.net/DTD/sodipodi-0.dtd" xmlns="http://www.w3.org/2000/svg" xmlns:svg="http://www.w3.org/2000/svg">
  <sodipodi:namedview id="namedview35274" pagecolor="#ffffff" bordercolor="#666666" borderopacity="1.0" inkscape:showpageshadow="2" inkscape:pageopacity="0.0" inkscape:pagecheckerboard="0" inkscape:deskcolor="#d1d1d1" inkscape:document-units="mm" showgrid="false" inkscape:zoom="0.72515432" inkscape:cx="364.74995" inkscape:cy="561.94935" inkscape:window-width="1920" inkscape:window-height="1001" inkscape:window-x="-9" inkscape:window-y="-9" inkscape:window-maximized="1" inkscape:current-layer="layer1"></sodipodi:namedview>
  <defs id="defs35269"></defs>
  <g inkscape:label="Layer 1" inkscape:groupmode="layer" id="layer1" transform="translate(-108.74324 -142.67567)">
    
    <path style="fill:#000000;stroke:none;stroke-width:0.480372px;stroke-linecap:butt;stroke-linejoin:miter;stroke-opacity:1" d="m 116.90263,152.02039 -1.1396,-1.92129 7.9351,-1.51832 1.778,1.77802 z" id="path9485-7" sodipodi:nodetypes="ccccc"></path>
    <path style="fill:#000000;stroke:none;stroke-width:0.480371px;stroke-linecap:butt;stroke-linejoin:miter;stroke-opacity:1" d="m 123.69813,148.58078 1.778,1.77802 c 0,0 -5.2095,14.03496 -16.4883,22.61236 9.8008,-11.24524 14.7103,-24.39038 14.7103,-24.39038 z" id="path9575-8" sodipodi:nodetypes="cccc"></path>
    <path style="fill:#000000;stroke:none;stroke-width:0.480371px;stroke-linecap:butt;stroke-linejoin:miter;stroke-opacity:1" d="m 113.90503,146.71447 2.6776,2.67757 c 0,0 -1.8221,7.48397 -6.9049,9.89135 4.8633,-5.53348 4.2273,-12.56892 4.2273,-12.56892 z" id="path9575-7-6" sodipodi:nodetypes="cccc"></path>
    <path style="fill:#000000;stroke:none;stroke-width:0.480371px;stroke-linecap:butt;stroke-linejoin:miter;stroke-opacity:1" d="m 126.10873,145.64987 2.6776,2.67756 c 0,0 0.082,-1.34521 0,0 -0.5905,9.68753 -5.4671,22.03388 -10.184,25.05706 4.9188,-6.27308 7.5049,-16.43978 7.5061,-25.23067 z" id="path2536-4-0-9-34" sodipodi:nodetypes="ccscsc"></path>
    <path style="fill:#000000;stroke:none;stroke-width:0.480372px;stroke-linecap:butt;stroke-linejoin:miter;stroke-opacity:1" d="m 124.93763,159.61592 6.0456,6.36051 2.2311,-2.23108 z" id="path5078-9-1-67" sodipodi:nodetypes="cccc"></path>
    <path style="fill:#000000;stroke:none;stroke-width:0.480371px;stroke-linecap:butt;stroke-linejoin:miter;stroke-opacity:1" d="m 133.67663,144.62337 2.6776,2.67756 c 0,0 0.082,-1.34521 0,0 -0.5905,9.68753 -5.4671,22.03388 -10.184,25.05706 4.9188,-6.27308 7.5049,-16.43978 7.5061,-25.23067 z" id="path92047" sodipodi:nodetypes="ccscsc"></path>
    <path style="fill:#000000;stroke:none;stroke-width:0.480372px;stroke-linecap:butt;stroke-linejoin:miter;stroke-opacity:1" d="m 133.21433,157.01633 7.5391,14.81249 2.2311,-2.23108 z" id="path92049" sodipodi:nodetypes="cccc"></path>
    <path style="fill:#000000;stroke:none;stroke-width:0.480372px;stroke-linecap:butt;stroke-linejoin:miter;stroke-opacity:1" d="m 113.13023,156.5668 7.7478,8.97452 2.2311,-2.23108 z" id="path3070" sodipodi:nodetypes="cccc"></path>
  </g>
</svg>