<?xml version="1.0" encoding="UTF-8" standalone="no"?>
<svg
   width="35mm"
   height="35mm"
   viewBox="0 0 35 35"
   version="1.1"
   id="svg35473"
   inkscape:version="1.2.1 (9c6d41e410, 2022-07-14)"
   sodipodi:docname="黒.svg"
   xmlns:inkscape="http://www.inkscape.org/namespaces/inkscape"
   xmlns:sodipodi="http://sodipodi.sourceforge.net/DTD/sodipodi-0.dtd"
   xmlns="http://www.w3.org/2000/svg"
   xmlns:svg="http://www.w3.org/2000/svg">
  <sodipodi:namedview
     id="namedview35475"
     pagecolor="#ffffff"
     bordercolor="#666666"
     borderopacity="1.0"
     inkscape:showpageshadow="2"
     inkscape:pageopacity="0.0"
     inkscape:pagecheckerboard="0"
     inkscape:deskcolor="#d1d1d1"
     inkscape:document-units="mm"
     showgrid="false"
     inkscape:zoom="2.9006173"
     inkscape:cx="153.24324"
     inkscape:cy="27.407959"
     inkscape:window-width="1920"
     inkscape:window-height="1001"
     inkscape:window-x="-9"
     inkscape:window-y="-9"
     inkscape:window-maximized="1"
     inkscape:current-layer="layer1" />
  <defs
     id="defs35470" />
  <g
     inkscape:label="Layer 1"
     inkscape:groupmode="layer"
     id="layer1"
     transform="translate(-61.31081 -165.2973)">
    <path
       style="fill:#000000;stroke:none;stroke-width:0.480371px;stroke-linecap:butt;stroke-linejoin:miter;stroke-opacity:1"
       d="m 84.262199,166.21424 2.6776,2.67757 c 0,0 -6.9206,11.0732 -13.2148,14.20576 8.6115,-8.64135 10.5372,-16.88333 10.5372,-16.88333 z"
       id="path4521-6"
       sodipodi:nodetypes="cccc" />
    <path
       style="fill:#000000;stroke:none;stroke-width:0.480372px;stroke-linecap:butt;stroke-linejoin:miter;stroke-opacity:1"
       d="m 83.446099,168.39465 12.5246,9.61115 -2.2311,2.2311 z"
       id="path4523-1"
       sodipodi:nodetypes="cccc" />
    <path
       style="fill:#000000;stroke:none;stroke-width:0.480372px;stroke-linecap:butt;stroke-linejoin:miter;stroke-opacity:1"
       d="m 86.273199,174.76619 v 19.14475 l -2.0598,-1.44226 v -19.14475 z"
       id="path2682-4-9"
       sodipodi:nodetypes="ccccc" />
    <path
       style="fill:#000000;stroke:none;stroke-width:0.480372px;stroke-linecap:butt;stroke-linejoin:miter;stroke-opacity:1"
       d="m 80.596999,189.58634 5.6762,4.3246 -1.7029,2.34027 z"
       id="path2749-1-5"
       sodipodi:nodetypes="cccc" />
    <path
       style="fill:#000000;stroke:none;stroke-width:0.480372px;stroke-linecap:butt;stroke-linejoin:miter;stroke-opacity:1"
       d="m 76.889699,178.11198 4.8443,9.71016 -1.7029,1.70294 z"
       id="path7430-44-1"
       sodipodi:nodetypes="cccc" />
    <path
       style="fill:#000000;stroke:none;stroke-width:0.480371px;stroke-linecap:butt;stroke-linejoin:miter;stroke-opacity:1"
       d="m 90.899099,178.11198 1.778,1.77801 c 0,0 -3.0098,5.20071 -7.135,8.11081 4.6859,-6.69474 5.357,-9.88882 5.357,-9.88882 z"
       id="path7432-2-4"
       sodipodi:nodetypes="cccc" />
    <path
       style="fill:#000000;stroke:none;stroke-width:0.480372px;stroke-linecap:butt;stroke-linejoin:miter;stroke-opacity:1"
       d="m 69.683999,177.38102 -1.1396,-1.92129 7.9351,-1.51832 1.778,1.77802 z"
       id="path3072-8"
       sodipodi:nodetypes="ccccc" />
    <path
       style="fill:#000000;stroke:none;stroke-width:0.480371px;stroke-linecap:butt;stroke-linejoin:miter;stroke-opacity:1"
       d="m 76.479499,173.94141 1.778,1.77802 c 0,0 -5.2095,14.97882 -16.4883,23.55622 9.8008,-11.24524 14.7103,-25.33424 14.7103,-25.33424 z"
       id="path3074-7"
       sodipodi:nodetypes="cccc" />
    <path
       style="fill:#000000;stroke:none;stroke-width:0.480371px;stroke-linecap:butt;stroke-linejoin:miter;stroke-opacity:1"
       d="m 66.686399,172.0751 2.6776,2.67757 c 0,0 -1.8221,7.48397 -6.9049,9.89135 4.8633,-5.53348 4.2273,-12.56892 4.2273,-12.56892 z"
       id="path3076-9"
       sodipodi:nodetypes="cccc" />
    <path
       style="fill:#000000;stroke:none;stroke-width:0.480371px;stroke-linecap:butt;stroke-linejoin:miter;stroke-opacity:1"
       d="m 92.458899,198.78327 c -15.2637,-0.45148 -20.6491,-5.86098 -26.4266,-20.42947 l 0.7021,-0.63774 c 3.9535,10.50536 10.5176,19.02924 27.9738,18.81795 z"
       id="path3078-8"
       sodipodi:nodetypes="ccccc" />
  </g>
</svg>
