<?xml version="1.0" encoding="UTF-8" standalone="no"?>
<!-- Created with Inkscape (http://www.inkscape.org/) -->

<svg
   width="1000"
   height="1000"
   viewBox="0 0 264.58333 264.58333"
   version="1.1"
   id="svg5"
   xmlns="http://www.w3.org/2000/svg"
   xmlns:svg="http://www.w3.org/2000/svg">
  <defs
     id="defs2" />
  <path
     style="fill:#000000;fill-opacity:1;stroke:#000000;stroke-width:15;stroke-linecap:round;stroke-linejoin:round;stroke-dasharray:none;stroke-opacity:0.5"
     d="M 115.75461,118.0991 H 229.81005"
     id="path1309" />
  <path
     style="fill:#000000;fill-opacity:1;stroke:#000000;stroke-width:14.9999;stroke-linecap:round;stroke-linejoin:round;stroke-dasharray:none;stroke-opacity:0.5"
     d="M 121.38884,60.61853 H 224.17583"
     id="path37386" />
  <path
     style="fill:#000000;stroke:#000000;stroke-width:14.9999;stroke-linecap:round;stroke-linejoin:round;stroke-dasharray:none;stroke-opacity:0.5"
     d="m 158.11301,23.423473 21.42325,36.565492"
     id="path38116" />
  <path
     style="fill:none;fill-opacity:1;stroke:#000000;stroke-width:15;stroke-linecap:round;stroke-linejoin:round;stroke-dasharray:none;stroke-opacity:0.5"
     d="m 172.78235,60.618532 v 58.653118 c 0,58.63304 -39.67747,124.01617 -70.1507,124.01617"
     id="path1518" />
  <path
     style="fill:none;fill-opacity:1;stroke:#000000;stroke-width:15;stroke-linecap:round;stroke-linejoin:round;stroke-dasharray:none;stroke-opacity:0.5"
     d="M 134.65754,137.17482 243.89073,243.9108"
     id="path1632" />
  <path
     style="fill:none;stroke:#000000;stroke-width:22.6418;stroke-linecap:round;stroke-linejoin:round;stroke-dasharray:none;stroke-opacity:0.501961;paint-order:stroke markers fill"
     d="m 176.96158,132.29166 c -4.32675,15.38475 -10.60362,30.21993 -18.63285,44.03813 -8.53969,14.6967 -19.06164,28.23989 -31.19129,40.14748"
     id="path1"
     transform="matrix(0.57912923,0,0,0.7578474,101.2626,58.092194)" />
  <path
     style="fill:none;stroke:#000000;stroke-width:15;stroke-linecap:round;stroke-linejoin:round;stroke-opacity:0.5"
     d="M 51.156767,110.42794 H 97.52678 c -0.821416,59.7753 -6.676651,89.62447 -14.637095,120.46266 L 64.13885,188.24501"
     id="path5879" />
  <path
     style="fill:none;stroke:#000000;stroke-width:15;stroke-linecap:round;stroke-linejoin:round;stroke-opacity:0.5"
     d="M 57.263754,49.206219 C 52.591344,118.44542 41.533112,180.52376 22.278732,231.18429"
     id="path5881" />
  <path
     style="fill:none;fill-opacity:0.5;stroke:#000000;stroke-width:15;stroke-linecap:round;stroke-linejoin:round;stroke-opacity:0.5"
     d="M 22.222844,49.206219 H 106.38889"
     id="path445" />
</svg>
