<svg width="1000" height="1000" viewBox="0 0 1000 1000" version="1.1" id="svg5" xmlns="http://www.w3.org/2000/svg" xmlns:svg="http://www.w3.org/2000/svg"><path d="M592.500 61.686 C 584.881 63.314,580.585 66.122,575.484 72.809 C 571.679 77.799,570.833 80.597,570.833 88.204 C 570.833 97.247,571.637 98.868,600.417 147.852 C 616.688 175.545,630.000 198.964,630.000 199.893 C 630.000 201.009,599.192 201.739,539.288 202.042 C 450.635 202.490,448.471 202.578,443.974 205.936 C 436.465 211.544,432.916 217.589,432.091 226.173 C 431.080 236.691,434.544 244.878,442.609 251.030 L 448.905 255.833 536.952 256.293 L 625.000 256.752 625.000 337.543 L 625.000 418.333 529.113 418.333 C 423.399 418.333,426.673 418.025,417.140 428.883 C 405.761 441.842,409.041 461.923,423.930 470.454 C 426.593 471.980,452.487 472.712,525.833 473.333 L 624.167 474.167 623.670 485.833 C 622.619 510.549,612.854 572.701,609.495 576.061 C 608.932 576.623,589.643 558.802,566.630 536.458 C 543.617 514.115,522.887 494.833,520.564 493.611 C 514.951 490.658,503.192 490.789,497.269 493.869 C 491.955 496.633,486.382 502.292,483.542 507.807 C 480.918 512.901,481.206 524.274,484.099 529.870 C 485.437 532.457,510.259 557.856,539.257 586.310 C 586.009 632.184,591.848 638.487,590.797 641.940 C 587.440 652.972,572.481 689.812,564.515 706.667 C 537.029 764.821,506.369 810.513,471.690 845.000 C 443.112 873.420,417.157 888.928,394.704 890.997 C 379.331 892.414,374.241 894.424,367.704 901.660 C 358.415 911.943,357.786 922.921,365.786 935.156 C 371.071 943.238,378.900 946.667,392.069 946.667 C 414.757 946.667,447.059 934.337,473.944 915.415 C 491.290 903.207,523.341 872.144,540.207 851.193 C 572.238 811.406,604.399 755.913,626.842 701.707 C 631.197 691.187,635.383 682.372,636.144 682.119 C 636.905 681.865,650.270 694.416,665.844 710.010 L 694.160 738.363 686.757 752.098 C 677.879 768.570,664.545 789.469,652.593 805.647 C 641.542 820.605,638.524 826.478,637.300 835.405 C 633.926 860.024,657.836 880.747,673.152 866.478 C 682.662 857.618,713.591 811.681,726.643 787.031 C 729.692 781.273,732.776 776.773,733.496 777.031 C 734.216 777.289,760.537 802.650,791.986 833.388 C 911.056 949.768,907.310 946.263,914.767 948.271 C 934.443 953.569,953.624 934.649,948.368 915.129 C 947.384 911.473,943.497 905.266,939.554 901.052 C 935.674 896.907,893.500 855.488,845.833 809.012 C 781.804 746.582,759.235 723.594,759.429 721.005 C 759.574 719.077,764.621 703.250,770.645 685.833 C 783.471 648.753,793.333 610.551,793.333 597.948 C 793.333 582.091,781.902 566.656,770.170 566.673 C 764.240 566.681,755.623 572.229,751.815 578.490 C 750.080 581.343,745.913 594.654,742.554 608.072 C 735.776 635.146,720.231 683.333,718.275 683.333 C 717.584 683.333,703.028 669.646,685.927 652.917 L 654.836 622.500 658.207 610.596 C 668.250 575.139,675.324 534.327,679.689 486.667 L 680.833 474.167 780.000 473.333 C 873.019 472.552,879.449 472.308,883.721 469.411 C 893.984 462.449,898.701 448.096,894.238 437.414 C 890.649 428.823,887.170 425.143,879.167 421.468 C 872.945 418.611,866.073 418.404,776.234 418.370 L 679.968 418.333 680.401 337.917 L 680.833 257.500 768.333 256.667 L 855.833 255.833 861.965 252.020 C 868.726 247.817,875.000 236.816,875.000 229.167 C 875.000 220.856,868.670 210.338,860.943 205.810 L 853.874 201.667 775.529 201.667 C 702.987 201.667,696.996 201.451,694.657 198.750 C 693.268 197.146,676.175 168.458,656.672 135.000 C 637.170 101.542,619.628 72.410,617.690 70.264 C 611.281 63.164,601.374 59.791,592.500 61.686 M71.610 162.083 C 51.743 172.111,52.120 201.051,72.241 210.599 C 77.217 212.960,85.422 213.333,132.335 213.333 C 166.883 213.333,186.667 213.931,186.667 214.975 C 186.667 226.660,175.986 333.349,170.646 375.000 C 168.355 392.875,165.757 413.500,164.874 420.833 C 162.462 440.868,152.182 505.058,145.680 540.693 C 125.755 649.891,95.718 763.140,63.955 848.828 C 55.631 871.285,55.147 876.602,60.505 886.733 C 68.060 901.020,85.864 905.548,99.026 896.529 C 106.586 891.349,108.268 888.177,118.878 859.091 C 157.211 754.001,191.657 613.512,212.438 477.500 C 214.819 461.917,217.096 448.229,217.498 447.083 C 218.065 445.468,231.907 445.000,279.114 445.000 L 340.000 445.000 339.991 458.750 C 339.977 478.930,337.028 539.163,334.135 578.333 C 329.486 641.287,322.631 695.329,312.360 750.000 C 310.036 762.375,307.705 774.938,307.182 777.917 C 306.659 780.896,305.729 783.333,305.116 783.333 C 304.502 783.333,295.472 763.851,285.049 740.039 C 273.547 713.763,264.408 695.127,261.799 692.628 C 257.111 688.137,246.902 683.333,242.047 683.333 C 240.365 683.333,235.136 685.253,230.428 687.599 C 220.876 692.359,215.000 701.518,215.000 711.650 C 215.000 715.217,224.149 738.142,240.232 774.873 C 287.902 883.744,289.495 887.133,295.645 892.816 C 308.542 904.733,329.337 900.785,337.575 884.855 C 340.402 879.388,353.771 823.988,362.275 782.500 C 381.541 688.510,390.779 600.325,395.056 469.569 C 396.231 433.637,396.243 414.617,395.093 410.344 C 393.406 404.081,385.803 395.427,378.860 391.867 C 376.331 390.570,352.269 390.000,300.110 390.000 C 258.799 390.000,225.005 389.438,225.011 388.750 C 225.017 388.063,226.474 375.125,228.248 360.000 C 232.095 327.206,235.932 289.020,239.722 245.833 L 242.500 214.167 326.667 213.333 C 410.773 212.501,410.838 212.497,416.965 208.687 C 423.638 204.538,430.000 193.507,430.000 186.087 C 430.000 176.001,421.229 163.917,411.142 160.106 C 407.943 158.897,354.357 158.333,242.745 158.333 L 79.040 158.333 71.610 162.083 " stroke="none" fill-rule="evenodd" fill="#000000"></path></svg>