<svg width="1000" height="1000" viewBox="0 0 1000 1000" version="1.1" id="svg5" inkscape:version="1.2.1 (9c6d41e410, 2022-07-14)" sodipodi:docname="七.svg" xmlns:inkscape="http://www.inkscape.org/namespaces/inkscape" xmlns:sodipodi="http://sodipodi.sourceforge.net/DTD/sodipodi-0.dtd" xmlns="http://www.w3.org/2000/svg" xmlns:svg="http://www.w3.org/2000/svg"><path d="M652.500 53.135 C 648.833 54.818,644.450 57.752,642.758 59.654 C 635.104 68.263,635.151 67.264,635.073 223.750 L 635.000 371.667 490.833 371.667 L 346.667 371.667 346.667 278.251 C 346.667 176.497,347.042 180.660,337.002 171.116 C 327.461 162.049,312.360 162.091,301.516 171.216 C 291.503 179.641,291.667 177.847,291.667 279.068 L 291.667 371.576 180.286 372.038 L 68.905 372.500 62.588 377.319 C 46.019 389.959,47.102 413.074,64.728 422.980 L 71.287 426.667 181.477 426.667 L 291.667 426.667 291.667 576.314 L 291.667 725.960 295.417 733.299 C 300.596 743.436,306.282 747.144,317.894 747.956 C 325.913 748.517,328.438 747.984,333.180 744.731 C 336.304 742.587,340.429 738.716,342.347 736.128 C 345.810 731.456,345.839 730.391,346.667 579.462 L 347.500 427.500 491.229 427.074 L 634.958 426.648 635.395 677.907 C 635.831 927.975,635.850 929.194,639.257 934.994 C 649.992 953.268,673.595 954.239,685.777 936.908 L 690.833 929.714 691.281 678.190 L 691.730 426.667 810.221 426.667 L 928.713 426.667 935.272 422.980 C 952.898 413.074,953.981 389.959,937.412 377.319 L 931.095 372.500 811.431 372.041 L 691.768 371.582 691.301 221.085 L 690.833 70.588 686.140 63.496 C 681.228 56.075,671.030 50.073,663.333 50.073 C 661.042 50.073,656.167 51.451,652.500 53.135 " stroke="none" fill-rule="evenodd" fill="#000000"></path></svg>