<svg width="1000" height="1000" viewBox="0 0 1000 1000" version="1.1" id="svg5" sodipodi:docname="万.svg" inkscape:version="1.2.1 (9c6d41e410, 2022-07-14)" xmlns:inkscape="http://www.inkscape.org/namespaces/inkscape" xmlns:sodipodi="http://sodipodi.sourceforge.net/DTD/sodipodi-0.dtd" xmlns="http://www.w3.org/2000/svg" xmlns:svg="http://www.w3.org/2000/svg"><path d="M494.132 79.948 C 486.782 81.614,480.573 86.185,476.279 93.089 C 472.587 99.027,472.488 100.402,471.979 152.917 L 471.458 206.667 349.479 206.706 C 282.291 206.728,224.563 207.427,220.962 208.262 C 196.132 214.021,190.295 244.025,211.216 258.362 L 217.254 262.500 344.460 262.957 L 471.667 263.414 471.667 342.501 L 471.667 421.587 308.627 422.044 L 145.588 422.500 139.549 426.638 C 122.546 438.291,122.546 461.709,139.549 473.362 L 145.588 477.500 308.627 477.956 L 471.667 478.413 471.667 533.345 L 471.667 588.277 333.455 588.722 C 196.175 589.164,195.211 589.190,190.538 592.653 C 173.988 604.918,173.988 626.749,190.538 639.013 C 195.211 642.477,196.175 642.503,333.455 642.945 L 471.667 643.390 471.667 754.158 L 471.667 864.926 296.250 865.380 L 120.833 865.833 114.667 869.667 C 96.660 880.865,96.660 905.802,114.667 916.999 L 120.833 920.833 500.000 920.833 L 879.167 920.833 885.333 916.999 C 903.340 905.802,903.340 880.865,885.333 869.667 L 879.167 865.833 703.750 865.380 L 528.333 864.926 528.333 754.158 L 528.333 643.390 666.545 642.945 C 803.825 642.503,804.789 642.477,809.462 639.013 C 826.012 626.749,826.012 604.918,809.462 592.653 C 804.789 589.190,803.825 589.164,666.545 588.722 L 528.333 588.277 528.333 533.345 L 528.333 478.413 691.373 477.956 L 854.412 477.500 860.451 473.362 C 877.454 461.709,877.454 438.291,860.451 426.638 L 854.412 422.500 691.373 422.044 L 528.333 421.587 528.333 342.501 L 528.333 263.414 655.540 262.957 L 782.746 262.500 788.784 258.362 C 809.705 244.025,803.868 214.021,779.038 208.262 C 775.437 207.427,717.709 206.728,650.521 206.706 L 528.542 206.667 528.021 152.917 C 527.510 100.171,527.428 99.051,523.666 93.001 C 517.289 82.746,505.254 77.426,494.132 79.948 " stroke="none" fill-rule="evenodd" fill="#000000"></path></svg>