<svg width="1000" height="1000" viewBox="0 0 1000 1000" version="1.1" id="svg5" xmlns="http://www.w3.org/2000/svg" xmlns:svg="http://www.w3.org/2000/svg"><path d="M739.167 52.490 C 731.275 55.257,722.480 64.682,721.032 71.923 C 720.464 74.761,720.000 268.264,720.000 501.929 C 720.000 970.773,719.068 933.201,730.939 942.986 C 744.099 953.834,762.249 950.631,770.857 935.943 L 775.000 928.874 775.000 500.080 L 775.000 71.287 771.578 65.198 C 764.972 53.445,751.503 48.164,739.167 52.490 M244.132 164.948 C 236.782 166.614,230.573 171.185,226.279 178.089 L 222.500 184.167 222.055 450.833 C 221.754 631.354,222.172 720.213,223.350 725.899 C 228.585 751.161,260.892 756.617,274.274 734.499 C 277.429 729.284,277.500 723.195,277.500 456.667 L 277.500 184.167 273.666 178.001 C 267.289 167.746,255.254 162.426,244.132 164.948 M493.538 165.142 C 486.519 166.626,480.286 171.162,475.402 178.338 L 471.637 183.870 472.069 457.646 L 472.500 731.423 475.987 736.128 C 482.117 744.402,489.584 748.333,499.167 748.333 C 509.743 748.333,517.414 743.733,522.872 734.117 L 526.629 727.500 526.231 454.870 L 525.833 182.240 521.182 176.142 C 513.999 166.725,504.300 162.866,493.538 165.142 " stroke="none" fill-rule="evenodd" fill="#000000"></path></svg>