<svg width="1000" height="1000" viewBox="0 0 1000 1000" version="1.1" id="svg5" sodipodi:docname="上.svg" inkscape:version="1.2.1 (9c6d41e410, 2022-07-14)" xmlns:inkscape="http://www.inkscape.org/namespaces/inkscape" xmlns:sodipodi="http://sodipodi.sourceforge.net/DTD/sodipodi-0.dtd" xmlns="http://www.w3.org/2000/svg" xmlns:svg="http://www.w3.org/2000/svg"><path d="M489.084 79.011 C 482.430 81.909,475.559 90.218,473.407 97.968 C 472.246 102.149,471.682 228.566,471.676 486.250 L 471.667 868.333 284.946 868.333 C 80.806 868.333,91.613 867.807,82.883 878.182 C 73.744 889.043,73.752 902.633,82.903 913.508 C 91.785 924.064,60.782 923.333,500.000 923.333 C 939.313 923.333,908.212 924.068,917.117 913.484 C 926.256 902.624,926.248 889.033,917.097 878.158 C 908.390 867.810,919.144 868.333,715.054 868.333 L 528.333 868.333 528.324 486.250 C 528.318 228.566,527.754 102.149,526.593 97.968 C 521.963 81.297,504.315 72.377,489.084 79.011 " stroke="none" fill-rule="evenodd" fill="#000000"></path></svg>