<svg width="1000" height="1000" viewBox="0 0 1000 1000" version="1.1" id="svg5" sodipodi:docname="与.svg" inkscape:version="1.2.1 (9c6d41e410, 2022-07-14)" xmlns:inkscape="http://www.inkscape.org/namespaces/inkscape" xmlns:sodipodi="http://sodipodi.sourceforge.net/DTD/sodipodi-0.dtd" xmlns="http://www.w3.org/2000/svg" xmlns:svg="http://www.w3.org/2000/svg"><path d="M274.167 85.686 C 268.037 88.410,262.477 94.280,260.111 100.525 C 258.896 103.731,258.333 156.554,258.333 267.346 L 258.333 429.476 262.208 436.821 C 270.105 451.790,289.108 456.161,302.357 446.055 C 311.126 439.367,312.353 435.979,313.303 415.833 L 314.167 397.500 401.667 397.500 L 489.167 397.500 489.167 487.500 L 489.167 577.500 353.750 577.926 L 218.333 578.353 218.261 527.926 C 218.221 500.192,217.557 474.231,216.785 470.236 C 215.030 461.151,210.707 455.227,202.343 450.444 C 190.292 443.553,177.374 446.700,167.619 458.903 L 162.500 465.305 161.984 533.903 C 161.701 571.631,161.939 605.719,162.514 609.654 C 163.739 618.039,171.393 627.693,179.504 631.082 C 183.896 632.917,212.911 633.333,336.335 633.333 C 419.629 633.333,488.143 633.699,488.590 634.146 C 489.037 634.592,488.775 640.211,488.008 646.631 C 486.084 662.745,478.275 683.313,466.698 702.760 C 417.725 785.024,321.528 839.373,195.833 855.792 C 184.833 857.229,159.786 859.176,140.172 860.119 C 116.466 861.259,103.056 862.591,100.172 864.092 C 82.364 873.360,79.239 897.960,94.359 909.854 C 103.243 916.842,109.377 917.464,148.117 915.310 C 255.984 909.313,340.349 884.103,411.725 836.541 C 486.657 786.610,537.584 712.968,544.297 644.839 L 545.431 633.333 680.642 633.333 L 815.853 633.333 819.622 641.548 C 829.039 662.077,856.186 663.623,867.524 644.277 L 871.667 637.207 871.667 552.500 L 871.667 467.793 867.524 460.723 C 862.943 452.907,852.457 446.667,843.903 446.667 C 835.456 446.667,824.808 453.463,820.505 461.600 C 816.724 468.750,816.667 469.671,816.667 523.595 L 816.667 578.333 680.833 578.333 L 545.000 578.333 545.000 487.500 L 545.000 396.667 632.353 396.667 L 719.705 396.667 720.269 414.713 C 720.768 430.677,721.311 433.454,724.971 438.790 C 736.486 455.576,758.401 455.852,770.730 439.366 C 773.821 435.234,774.250 431.725,775.000 404.469 C 775.458 387.803,775.458 312.667,775.000 237.500 L 774.167 100.833 770.165 95.222 C 767.964 92.136,763.089 88.215,759.332 86.509 C 752.771 83.530,743.107 83.408,515.833 83.435 C 322.267 83.459,278.256 83.869,274.167 85.686 M720.000 240.000 L 720.000 341.667 516.667 341.667 L 313.333 341.667 313.333 241.111 C 313.333 185.806,313.833 140.056,314.444 139.444 C 315.056 138.833,406.556 138.333,517.778 138.333 L 720.000 138.333 720.000 240.000 " stroke="none" fill-rule="evenodd" fill="#000000"></path></svg>