<svg width="1000" height="1000" viewBox="0 0 1000 1000" version="1.1" id="svg5" sodipodi:docname="乎.svg" inkscape:version="1.2.1 (9c6d41e410, 2022-07-14)" xmlns:inkscape="http://www.inkscape.org/namespaces/inkscape" xmlns:sodipodi="http://sodipodi.sourceforge.net/DTD/sodipodi-0.dtd" xmlns="http://www.w3.org/2000/svg" xmlns:svg="http://www.w3.org/2000/svg"><path d="M284.002 53.176 C 280.244 54.882,275.563 58.536,273.598 61.295 C 270.568 65.550,250.496 129.573,227.239 209.167 C 224.025 220.167,211.764 261.417,199.992 300.833 C 173.055 391.032,174.170 386.552,176.700 394.465 C 179.199 402.284,185.729 409.653,192.863 412.705 C 197.231 414.574,218.035 415.000,304.946 415.000 L 411.667 415.000 411.666 419.583 C 411.665 430.551,384.138 554.751,381.017 557.872 C 380.708 558.181,342.016 540.669,295.036 518.956 C 203.735 476.759,202.165 476.209,190.362 482.313 C 179.301 488.033,173.053 501.928,176.447 513.258 C 180.406 526.473,181.182 526.921,274.812 570.078 C 323.443 592.493,363.254 611.711,363.282 612.785 C 363.387 616.771,342.555 666.667,330.697 690.833 C 298.737 755.965,255.630 818.833,194.016 890.168 C 178.131 908.560,173.979 916.563,175.673 925.525 C 179.870 947.731,205.911 956.521,221.765 941.085 C 231.151 931.947,261.777 895.574,282.119 869.408 C 319.813 820.922,353.238 768.601,377.567 720.000 C 389.578 696.005,395.430 682.758,411.065 644.167 C 413.209 638.875,415.304 636.032,416.804 636.377 C 418.104 636.676,458.717 655.205,507.056 677.552 C 555.396 699.899,597.933 719.078,601.585 720.172 C 607.170 721.846,609.411 721.708,615.701 719.306 C 635.072 711.908,640.699 689.826,626.995 674.987 C 623.793 671.522,595.412 657.621,528.376 626.687 C 476.608 602.798,433.704 582.704,433.035 582.035 C 432.365 581.365,433.684 574.446,435.966 566.659 C 444.660 536.987,453.202 498.414,467.891 422.500 L 469.181 415.833 618.757 415.408 C 701.024 415.174,768.329 415.549,768.324 416.241 C 768.319 416.933,767.181 430.625,765.797 446.667 C 753.184 592.790,720.192 712.165,654.859 848.072 C 647.657 863.053,641.040 875.053,640.155 874.739 C 639.270 874.424,611.575 848.140,578.610 816.329 C 545.646 784.519,516.161 756.959,513.088 755.086 C 506.483 751.059,495.231 750.600,488.498 754.082 C 474.811 761.159,469.468 775.788,475.241 790.379 C 477.476 796.028,627.998 941.302,636.167 945.694 C 644.668 950.265,655.046 949.848,662.950 944.618 C 668.234 941.122,671.915 935.607,683.276 914.174 C 768.617 753.172,813.466 593.281,823.387 414.670 C 824.863 388.092,824.754 382.698,822.647 378.004 C 819.309 370.567,816.815 367.723,809.971 363.551 L 804.167 360.012 521.971 360.006 C 244.616 360.000,239.793 359.945,240.789 356.805 C 241.617 354.197,258.886 296.371,276.641 236.752 L 280.141 225.000 545.341 225.000 L 810.540 225.000 817.610 220.857 C 825.189 216.415,831.667 205.844,831.667 197.916 C 831.667 187.842,823.813 176.578,813.804 172.295 C 809.327 170.379,766.101 170.000,552.375 170.000 C 348.213 170.000,296.470 169.578,297.099 167.917 C 297.533 166.771,303.711 146.077,310.829 121.931 C 322.716 81.602,323.616 77.516,321.885 71.740 C 319.265 62.993,313.946 56.786,305.964 53.161 C 297.395 49.269,292.597 49.272,284.002 53.176 " stroke="none" fill-rule="evenodd" fill="black"></path></svg>