<svg width="1000" height="1000" viewBox="0 0 1000 1000" version="1.1" id="svg5" sodipodi:docname="九.svg" inkscape:version="1.2.1 (9c6d41e410, 2022-07-14)" xmlns:inkscape="http://www.inkscape.org/namespaces/inkscape" xmlns:sodipodi="http://sodipodi.sourceforge.net/DTD/sodipodi-0.dtd" xmlns="http://www.w3.org/2000/svg" xmlns:svg="http://www.w3.org/2000/svg"><path d="M184.019 109.818 C 168.294 119.407,165.493 138.157,177.758 151.733 C 181.178 155.519,186.222 158.978,189.747 159.958 C 193.751 161.070,292.631 161.651,478.750 161.657 C 634.354 161.662,761.667 162.167,761.667 162.779 C 761.667 164.780,741.550 201.947,726.184 228.333 C 698.013 276.711,667.604 323.443,630.205 375.833 C 592.560 428.568,537.597 498.956,534.835 497.969 C 534.113 497.711,485.367 454.000,426.510 400.833 C 367.654 347.667,316.498 302.104,312.832 299.583 C 300.768 291.290,283.694 294.489,275.721 306.538 C 269.958 315.245,269.052 322.036,272.459 330.959 C 275.018 337.659,288.014 349.948,386.424 438.716 C 447.516 493.823,497.728 539.828,498.006 540.950 C 499.157 545.592,417.925 632.705,371.957 676.124 C 287.444 755.951,215.020 810.389,150.012 842.949 C 133.047 851.447,117.506 860.269,115.477 862.556 C 105.601 873.682,106.453 888.812,117.556 899.467 C 128.643 910.107,135.431 910.529,155.307 901.812 C 213.516 876.283,282.841 828.618,362.500 759.354 C 395.294 730.839,486.092 640.126,517.371 604.628 C 530.071 590.215,541.027 578.771,541.717 579.198 C 542.408 579.625,591.241 623.565,650.236 676.842 C 709.231 730.120,759.750 775.123,762.500 776.849 C 768.611 780.685,781.543 781.011,788.330 777.502 C 803.335 769.743,807.761 749.165,797.140 736.543 C 794.724 733.671,744.104 687.443,684.652 633.814 C 611.784 568.083,577.030 535.687,578.009 534.403 C 578.807 533.357,587.313 522.750,596.911 510.833 C 686.063 400.142,763.512 282.179,818.604 173.169 C 832.691 145.296,834.107 141.637,834.135 133.039 C 834.170 122.421,831.085 116.815,821.684 110.417 L 816.174 106.667 502.670 106.673 C 198.571 106.679,189.012 106.773,184.019 109.818 " stroke="none" fill-rule="evenodd" fill="black"></path></svg>