<svg width="1000" height="1000" viewBox="0 0 1000 1000" version="1.1" id="svg5" xmlns="http://www.w3.org/2000/svg" xmlns:svg="http://www.w3.org/2000/svg"><path d="M654.167 53.135 C 645.996 56.886,642.043 61.168,639.081 69.473 C 635.698 78.960,635.698 921.040,639.081 930.527 C 642.108 939.014,646.043 943.165,654.754 947.062 C 666.897 952.494,680.039 948.240,687.924 936.325 L 692.500 929.410 692.994 507.622 C 693.266 275.638,693.029 81.934,692.468 77.167 C 691.160 66.058,686.054 58.467,676.717 53.750 C 667.766 49.228,662.959 49.097,654.167 53.135 M311.442 164.514 C 304.786 165.530,293.689 175.892,291.630 183.014 C 290.393 187.293,290.001 271.731,290.342 460.295 L 290.833 731.423 294.320 736.128 C 300.321 744.226,307.951 748.333,316.996 748.333 C 327.056 748.333,333.412 745.193,339.497 737.215 L 344.167 731.093 344.589 458.463 C 344.987 201.420,344.844 185.507,342.089 180.119 C 336.393 168.980,323.891 162.614,311.442 164.514 " stroke="none" fill-rule="evenodd" fill="#000000"></path></svg>