<svg width="1000" height="1000" viewBox="0 0 1000 1000" version="1.1" id="svg5" sodipodi:docname="亦.svg" inkscape:version="1.2.1 (9c6d41e410, 2022-07-14)" xmlns:inkscape="http://www.inkscape.org/namespaces/inkscape" xmlns:sodipodi="http://sodipodi.sourceforge.net/DTD/sodipodi-0.dtd" xmlns="http://www.w3.org/2000/svg" xmlns:svg="http://www.w3.org/2000/svg"><path d="M284.002 53.176 C 280.244 54.882,275.563 58.536,273.598 61.295 C 270.852 65.152,243.909 150.430,231.355 195.000 C 230.451 198.208,217.351 242.361,202.243 293.117 C 171.858 395.200,172.225 393.159,182.227 404.550 C 191.720 415.362,187.471 415.000,304.946 415.000 L 411.667 415.000 411.666 419.583 C 411.665 425.631,397.832 493.771,391.449 519.167 C 354.352 666.760,301.985 765.164,194.016 890.168 C 178.131 908.560,173.979 916.563,175.673 925.525 C 179.870 947.731,205.911 956.521,221.765 941.085 C 241.849 921.530,293.036 857.012,319.813 817.503 C 371.690 740.957,404.191 672.893,430.064 586.614 C 443.680 541.207,452.402 503.382,467.904 422.500 L 469.181 415.833 618.757 415.408 C 701.024 415.174,768.329 415.549,768.324 416.241 C 768.319 416.933,767.181 430.625,765.797 446.667 C 753.184 592.790,720.192 712.165,654.859 848.072 C 647.657 863.053,641.040 875.053,640.155 874.739 C 639.270 874.424,611.575 848.140,578.610 816.329 C 545.646 784.519,516.161 756.959,513.088 755.086 C 506.483 751.059,495.231 750.600,488.498 754.082 C 474.811 761.159,469.468 775.788,475.241 790.379 C 477.093 795.059,626.520 940.045,635.226 945.609 C 642.507 950.262,655.160 949.773,663.079 944.533 C 668.205 941.141,672.030 935.390,683.276 914.174 C 768.663 753.084,813.463 593.307,823.400 414.426 C 825.096 383.897,825.046 382.813,821.579 375.653 C 819.177 370.690,815.707 366.934,810.943 364.143 L 803.874 360.000 521.825 360.000 C 244.613 360.000,239.793 359.945,240.789 356.805 C 241.617 354.197,258.886 296.371,276.641 236.752 L 280.141 225.000 545.341 225.000 L 810.540 225.000 817.610 220.857 C 825.189 216.415,831.667 205.844,831.667 197.916 C 831.667 187.842,823.813 176.578,813.804 172.295 C 809.327 170.379,766.101 170.000,552.375 170.000 C 348.213 170.000,296.470 169.578,297.099 167.917 C 297.533 166.771,303.711 146.077,310.829 121.931 C 322.716 81.602,323.616 77.516,321.885 71.740 C 319.265 62.993,313.946 56.786,305.964 53.161 C 297.395 49.269,292.597 49.272,284.002 53.176 " stroke="none" fill-rule="evenodd" fill="black"></path></svg>