<svg width="1000" height="1000" viewBox="0 0 1000 1000" version="1.1" id="svg5" xmlns="http://www.w3.org/2000/svg" xmlns:svg="http://www.w3.org/2000/svg"><path d="M489.947 51.568 C 482.930 53.701,478.332 57.199,474.489 63.333 L 470.833 69.167 470.000 191.667 L 469.167 314.167 326.667 315.000 C 168.373 315.926,178.193 315.171,169.715 327.058 C 166.657 331.345,165.833 334.684,165.833 342.794 C 165.833 353.918,168.424 359.097,177.308 365.730 C 181.861 369.130,183.427 369.171,325.122 369.611 L 468.333 370.055 468.333 377.160 C 468.333 386.329,464.083 420.632,460.727 438.546 C 451.479 487.912,431.308 547.766,406.868 598.366 C 348.835 718.520,255.342 823.023,165.659 867.983 C 139.602 881.045,112.186 888.919,85.833 890.908 C 75.870 891.660,68.865 893.126,64.971 895.275 C 50.475 903.277,46.159 922.172,56.011 934.502 C 66.415 947.522,77.690 949.284,112.496 943.334 C 199.629 928.438,295.954 858.967,376.206 753.144 C 427.358 685.692,469.168 605.837,494.784 526.667 C 498.491 515.208,502.541 501.708,503.783 496.667 C 505.025 491.625,506.855 487.500,507.849 487.500 C 508.843 487.500,597.526 589.125,704.922 713.333 C 812.318 837.542,902.797 941.168,905.987 943.614 C 921.455 955.475,943.142 947.614,948.354 928.258 C 950.774 919.268,948.268 910.822,940.441 901.589 C 936.990 897.519,842.549 788.311,730.572 658.904 C 618.596 529.498,525.477 421.493,523.642 418.893 C 520.522 414.474,520.413 412.975,521.963 395.833 C 522.875 385.750,523.946 375.813,524.342 373.750 L 525.064 370.000 666.969 370.000 L 808.874 370.000 815.943 365.857 C 823.523 361.415,830.000 350.844,830.000 342.916 C 830.000 332.842,822.147 321.578,812.137 317.295 C 807.724 315.407,781.817 315.000,665.928 315.000 L 525.083 315.000 524.625 191.953 L 524.167 68.905 519.360 62.605 C 514.473 56.198,503.544 49.986,497.500 50.180 C 495.667 50.239,492.268 50.863,489.947 51.568 " stroke="none" fill-rule="evenodd" fill="#000000"></path></svg>