<svg width="1000" height="1000" viewBox="0 0 1000 1000" version="1.1" id="svg5" sodipodi:docname="ไป.svg" inkscape:version="1.2.1 (9c6d41e410, 2022-07-14)" xmlns:inkscape="http://www.inkscape.org/namespaces/inkscape" xmlns:sodipodi="http://sodipodi.sourceforge.net/DTD/sodipodi-0.dtd" xmlns="http://www.w3.org/2000/svg" xmlns:svg="http://www.w3.org/2000/svg"><path d="M68.163 65.430 C 60.845 70.293,55.000 81.867,55.000 91.494 C 55.000 100.904,60.068 111.507,67.079 116.766 L 72.500 120.833 500.067 120.833 L 927.633 120.833 932.797 116.667 C 940.387 110.543,943.576 104.239,944.457 93.622 C 945.416 82.063,940.568 71.232,931.837 65.430 L 926.174 61.667 500.000 61.667 L 73.826 61.667 68.163 65.430 M256.617 188.750 C 252.534 190.813,247.487 195.068,245.401 198.207 L 241.608 203.914 242.054 334.335 C 242.494 463.110,242.543 464.815,245.936 469.359 C 252.570 478.243,257.748 480.833,268.872 480.833 C 288.527 480.833,296.568 470.092,296.630 443.750 L 296.667 428.333 384.167 428.333 L 471.667 428.333 471.667 518.333 L 471.667 608.333 335.833 608.333 L 200.000 608.333 200.000 553.063 L 200.000 497.793 195.857 490.723 C 191.381 483.086,180.831 476.667,172.754 476.667 C 162.667 476.667,150.584 485.437,146.773 495.525 C 145.620 498.576,145.013 524.812,145.037 570.525 C 145.070 635.486,145.309 641.353,148.176 647.665 C 149.882 651.422,153.803 656.297,156.889 658.498 L 162.500 662.500 317.083 662.942 L 471.667 663.384 471.667 671.035 C 471.667 682.287,467.378 697.129,458.985 714.928 C 427.264 782.190,360.282 836.201,273.164 864.764 C 225.125 880.514,187.153 887.033,125.833 890.056 C 95.317 891.561,88.049 892.410,82.500 895.120 C 67.301 902.543,62.519 921.787,72.706 934.536 C 82.956 947.365,90.857 948.523,143.617 944.924 C 299.764 934.273,423.104 873.100,489.582 773.333 C 507.248 746.820,523.542 707.449,525.795 685.833 C 526.368 680.333,527.239 673.021,527.732 669.583 L 528.626 663.333 663.539 663.333 L 798.452 663.333 801.584 670.640 C 810.906 692.387,840.257 694.021,851.162 673.400 L 855.000 666.142 855.000 583.180 C 855.000 528.615,854.393 498.611,853.227 495.525 C 849.416 485.437,837.333 476.667,827.246 476.667 C 819.169 476.667,808.619 483.086,804.143 490.723 L 800.000 497.793 800.000 553.063 L 800.000 608.333 664.167 608.333 L 528.333 608.333 528.333 518.333 L 528.333 428.333 615.833 428.333 L 703.333 428.333 703.333 444.233 C 703.333 462.510,706.251 470.432,715.379 476.943 C 719.680 480.010,723.011 480.833,731.128 480.833 C 742.252 480.833,747.431 478.242,754.064 469.358 C 757.466 464.801,757.500 463.461,757.500 334.167 C 757.500 204.873,757.466 203.532,754.064 198.975 C 749.101 192.328,743.167 188.327,735.704 186.596 C 731.949 185.725,630.206 185.063,496.603 185.040 L 264.040 185.000 256.617 188.750 M703.333 306.667 L 703.333 371.667 500.000 371.667 L 296.667 371.667 296.667 306.667 L 296.667 241.667 500.000 241.667 L 703.333 241.667 703.333 306.667 " stroke="none" fill-rule="evenodd" fill="#000000"></path></svg>