<svg width="1000" height="1000" viewBox="0 0 1000 1000" version="1.1" id="svg5" xmlns="http://www.w3.org/2000/svg" xmlns:svg="http://www.w3.org/2000/svg"><path d="M268.872 110.000 C 113.594 110.824,111.860 110.870,107.308 114.270 C 99.740 119.920,96.247 125.940,95.396 134.797 C 94.308 146.118,100.188 156.513,110.503 161.507 C 117.654 164.969,118.980 165.000,258.159 165.000 L 398.598 165.000 397.668 169.583 C 397.156 172.104,395.197 183.542,393.313 195.000 C 376.863 295.080,351.745 398.874,324.950 477.500 C 278.958 612.454,212.776 729.756,117.836 844.594 C 95.913 871.112,93.581 875.608,95.528 887.609 C 97.643 900.642,112.143 911.269,125.387 909.493 C 134.540 908.265,138.289 905.209,155.605 884.859 C 247.033 777.414,318.555 655.105,367.502 522.500 C 400.236 433.818,429.476 316.292,450.433 189.167 L 454.280 165.833 576.307 165.406 C 643.421 165.171,698.333 165.416,698.333 165.951 C 698.333 166.485,674.987 218.018,646.453 280.468 C 617.919 342.918,593.929 396.256,593.143 398.998 C 590.434 408.442,597.399 423.135,607.263 428.788 C 609.950 430.327,639.367 431.040,726.120 431.667 L 841.407 432.500 828.121 475.000 C 809.027 536.079,764.512 669.095,747.523 715.833 C 734.367 752.028,711.534 810.431,703.692 827.946 L 700.623 834.802 621.561 755.555 C 578.078 711.969,539.166 674.138,535.090 671.487 C 521.960 662.945,505.772 666.220,496.862 679.223 C 492.196 686.032,491.574 698.492,495.528 705.961 C 496.946 708.641,542.220 754.835,596.137 808.614 C 704.334 916.536,699.857 912.806,715.825 908.336 C 727.003 905.206,732.511 897.598,747.360 864.775 C 784.078 783.610,838.434 629.362,894.993 445.833 C 908.338 402.527,908.658 398.531,899.653 387.606 C 890.283 376.238,895.236 376.667,773.209 376.667 C 685.665 376.667,663.158 376.238,663.857 374.583 C 664.341 373.438,688.103 321.500,716.661 259.167 C 745.219 196.833,769.002 143.389,769.513 140.401 C 770.870 132.458,765.857 120.823,758.734 115.388 L 752.766 110.833 703.466 110.421 C 580.936 109.396,413.255 109.233,268.872 110.000 " stroke="none" fill-rule="evenodd" fill="black"></path></svg>