<svg width="1000" height="1000" viewBox="0 0 1000 1000" version="1.1" id="svg5" sodipodi:docname="体.svg" inkscape:version="1.3 (0e150ed6c4, 2023-07-21)" xmlns:inkscape="http://www.inkscape.org/namespaces/inkscape" xmlns:sodipodi="http://sodipodi.sourceforge.net/DTD/sodipodi-0.dtd" xmlns="http://www.w3.org/2000/svg" xmlns:svg="http://www.w3.org/2000/svg"><path d="M92.469 77.314 C 85.560 80.336,77.034 90.463,75.854 97.048 C 75.317 100.046,75.092 282.875,75.355 503.333 L 75.833 904.167 79.667 910.333 C 85.076 919.031,93.362 923.718,103.333 923.718 C 113.304 923.718,121.590 919.031,126.999 910.333 C 130.772 904.265,130.842 903.273,131.350 848.017 L 131.867 791.868 140.517 789.010 C 167.476 780.102,218.465 755.084,254.612 733.029 C 321.618 692.147,394.375 636.779,462.247 575.019 C 505.401 535.751,503.223 537.463,507.016 539.831 C 508.856 540.981,553.968 574.752,607.264 614.880 C 660.560 655.007,706.728 689.158,709.859 690.772 C 726.598 699.395,748.333 685.306,748.333 665.833 C 748.333 652.007,748.988 652.585,643.876 573.746 C 589.494 532.958,545.000 498.694,545.000 497.604 C 545.000 496.515,547.335 493.421,550.188 490.728 C 569.084 472.900,632.196 401.885,662.664 364.167 C 712.953 301.911,775.673 208.107,777.847 191.902 C 779.997 175.867,764.842 160.457,748.468 162.030 C 743.972 162.462,738.192 164.394,735.359 166.411 C 732.554 168.408,724.528 179.501,717.379 191.259 C 665.921 275.897,601.581 357.831,519.758 442.917 C 508.960 454.146,499.322 463.333,498.341 463.333 C 497.361 463.333,451.395 429.321,396.196 387.750 C 340.996 346.178,293.272 310.845,290.141 309.231 C 277.772 302.853,260.551 309.281,254.212 322.640 C 250.514 330.434,251.464 342.725,256.278 349.370 C 258.189 352.008,304.401 387.542,358.972 428.333 C 413.544 469.125,458.224 503.044,458.263 503.710 C 458.358 505.343,409.891 548.884,380.000 574.018 C 309.485 633.311,236.931 683.091,177.651 712.852 C 161.174 721.124,134.171 733.333,132.352 733.333 C 131.975 733.333,131.667 597.958,131.667 432.500 L 131.667 131.667 500.000 131.667 L 868.333 131.667 868.333 481.026 L 868.333 830.386 842.083 805.352 C 827.646 791.583,813.583 777.927,810.833 775.006 C 804.195 767.954,794.877 763.333,787.296 763.333 C 778.159 763.333,767.701 770.144,763.493 778.836 C 759.011 788.096,759.078 794.465,763.750 802.966 C 767.546 809.873,874.285 914.683,883.559 920.609 C 894.892 927.851,912.499 922.931,920.333 910.333 L 924.167 904.167 924.167 500.000 L 924.167 95.833 920.333 89.667 C 918.224 86.276,913.724 81.776,910.333 79.667 L 904.167 75.833 500.833 75.473 C 169.700 75.177,96.599 75.507,92.469 77.314 " stroke="none" fill-rule="evenodd" fill="black"></path></svg>