<svg width="1000" height="1000" viewBox="0 0 1000 1000" version="1.1" id="svg5" xmlns="http://www.w3.org/2000/svg" xmlns:svg="http://www.w3.org/2000/svg"><path d="M483.203 52.123 C 480.110 54.207,475.874 58.443,473.790 61.536 L 470.000 67.160 470.000 241.930 L 470.000 416.701 396.462 416.267 L 322.925 415.833 288.295 306.868 C 269.249 246.937,252.785 196.255,251.707 194.242 C 250.629 192.229,246.654 188.575,242.874 186.124 C 224.815 174.415,200.803 187.044,201.156 208.066 C 201.244 213.269,211.541 248.018,232.350 313.333 C 249.435 366.958,263.821 412.146,264.319 413.750 C 265.171 416.493,261.355 416.667,200.059 416.667 C 128.010 416.667,128.076 416.658,118.806 427.216 C 109.884 437.378,109.472 450.457,117.734 461.288 C 126.067 472.214,116.407 471.667,301.010 471.667 L 468.793 471.667 467.655 484.583 C 457.727 597.211,373.290 733.947,261.667 818.160 C 202.509 862.791,145.044 887.422,90.399 891.570 C 63.587 893.605,56.119 897.816,51.402 913.559 C 48.031 924.810,54.336 938.592,65.564 944.512 C 78.050 951.096,126.667 945.139,165.263 932.295 C 233.401 909.622,299.722 865.601,363.020 801.032 C 377.057 786.715,388.856 775.000,389.240 775.000 C 389.625 775.000,435.013 811.363,490.104 855.807 C 558.578 911.048,592.285 937.217,596.640 938.522 C 605.391 941.144,613.933 939.168,621.117 932.860 C 631.381 923.849,633.890 913.957,629.007 901.753 C 626.706 896.003,612.632 884.043,524.838 813.230 C 461.317 761.996,423.757 730.634,424.472 729.428 C 425.100 728.367,429.512 721.875,434.277 715.000 C 460.544 677.098,486.927 625.471,500.956 584.519 C 504.344 574.630,507.747 566.755,508.518 567.019 C 509.289 567.284,591.048 644.750,690.204 739.167 C 928.271 965.855,907.175 946.226,915.006 948.335 C 934.686 953.634,953.565 934.731,948.364 914.934 C 946.882 909.290,943.913 905.093,936.035 897.500 C 930.329 892.000,834.731 800.911,723.595 695.081 L 521.531 502.661 522.527 490.914 C 523.074 484.453,523.864 477.498,524.282 475.458 L 525.043 471.750 693.518 471.724 C 860.576 471.697,862.044 471.668,868.108 468.260 C 876.989 463.269,882.031 455.076,882.147 445.450 C 882.265 435.683,878.589 428.303,870.550 422.169 L 864.431 417.500 795.549 417.014 C 757.664 416.746,726.667 416.207,726.667 415.816 C 726.667 415.424,730.103 409.792,734.302 403.300 C 752.353 375.397,769.050 334.067,780.075 290.000 C 787.813 259.070,798.443 205.265,798.554 196.473 C 798.808 176.163,778.426 162.295,761.167 171.034 C 747.757 177.825,746.592 180.459,738.314 222.707 C 725.796 286.596,714.829 322.710,698.139 355.000 C 687.992 374.633,672.416 397.754,661.183 409.859 L 654.866 416.667 589.933 416.667 L 525.000 416.667 525.000 243.686 L 525.000 70.706 521.250 63.283 C 516.118 53.125,508.506 48.333,497.500 48.333 C 491.238 48.333,487.263 49.387,483.203 52.123 " stroke="none" fill-rule="evenodd" fill="#000000"></path></svg>