<svg width="1000" height="1000" viewBox="0 0 1000 1000" version="1.1" id="svg5" sodipodi:docname="佰.svg" inkscape:version="1.2.2 (732a01da63, 2022-12-09)" xmlns:inkscape="http://www.inkscape.org/namespaces/inkscape" xmlns:sodipodi="http://sodipodi.sourceforge.net/DTD/sodipodi-0.dtd" xmlns="http://www.w3.org/2000/svg" xmlns:svg="http://www.w3.org/2000/svg"><path d="M150.205 84.992 C 126.125 90.727,120.693 120.965,141.216 135.029 L 147.255 139.167 454.853 140.000 L 762.450 140.833 618.526 256.406 C 508.575 344.697,473.763 371.812,471.050 371.273 C 469.098 370.885,435.118 347.238,395.541 318.724 C 355.963 290.210,321.192 265.645,318.271 264.135 C 304.520 257.023,287.213 263.752,281.059 278.602 C 277.478 287.241,278.102 294.373,283.163 302.668 C 285.759 306.924,369.253 368.391,460.468 433.198 C 466.169 437.248,505.327 465.359,547.487 495.666 C 589.646 525.974,626.742 552.097,629.922 553.719 C 637.285 557.472,644.047 557.405,652.665 553.491 C 662.997 548.799,667.500 541.369,667.500 529.013 C 667.500 520.716,666.738 517.886,663.333 513.529 C 661.042 510.597,628.042 485.831,590.000 458.493 C 551.958 431.155,520.833 407.998,520.833 407.033 C 520.833 406.068,596.208 344.778,688.333 270.835 C 780.458 196.891,858.257 134.070,861.219 131.233 C 874.779 118.242,871.447 96.350,854.497 87.082 C 849.474 84.335,829.154 84.152,502.500 83.909 C 311.833 83.767,153.300 84.254,150.205 84.992 M488.367 522.083 C 479.723 526.500,475.349 531.968,473.262 540.962 C 472.429 544.558,471.728 573.563,471.706 605.417 L 471.667 663.333 320.417 663.406 C 237.229 663.446,165.898 664.110,161.903 664.882 C 153.393 666.526,147.294 670.660,142.083 678.316 C 134.439 689.548,139.090 707.716,151.603 715.499 L 157.500 719.167 314.583 719.616 L 471.667 720.066 471.667 799.200 L 471.667 878.333 273.750 878.406 C 63.881 878.484,68.392 878.322,59.654 886.092 C 55.363 889.908,50.086 901.137,50.037 906.557 C 49.972 913.703,56.687 924.966,63.830 929.693 L 70.590 934.167 499.878 934.167 L 929.167 934.167 935.333 930.333 C 942.521 925.863,947.591 918.329,949.180 909.754 C 950.466 902.819,946.142 891.230,940.352 886.092 C 931.598 878.322,936.119 878.484,726.250 878.406 L 528.333 878.333 528.333 799.200 L 528.333 720.066 685.417 719.616 L 842.500 719.167 848.397 715.499 C 860.910 707.716,865.561 689.548,857.917 678.316 C 852.706 670.660,846.607 666.526,838.097 664.882 C 834.102 664.110,762.771 663.446,679.583 663.406 L 528.333 663.333 528.294 605.417 C 528.253 546.179,527.549 537.624,522.096 530.129 C 518.328 524.949,505.936 518.333,500.000 518.333 C 497.638 518.333,492.404 520.021,488.367 522.083 " stroke="none" fill-rule="evenodd" fill="black"></path></svg>