<svg width="1000" height="1000" viewBox="0 0 1000 1000" version="1.1" id="svg5" sodipodi:docname="使.svg" inkscape:version="1.2.1 (9c6d41e410, 2022-07-14)" xmlns:inkscape="http://www.inkscape.org/namespaces/inkscape" xmlns:sodipodi="http://sodipodi.sourceforge.net/DTD/sodipodi-0.dtd" xmlns="http://www.w3.org/2000/svg" xmlns:svg="http://www.w3.org/2000/svg"><path d="M179.170 79.285 C 171.482 83.305,168.137 86.858,164.605 94.754 C 159.091 107.081,164.241 121.149,176.865 128.245 C 182.508 131.416,185.716 131.667,220.644 131.667 L 258.333 131.667 258.333 303.387 C 258.333 454.149,258.646 475.856,260.897 481.243 C 264.037 488.757,267.669 492.904,273.961 496.158 C 284.816 501.771,287.545 500.904,389.540 459.425 C 442.860 437.741,487.276 420.000,488.242 420.000 C 489.452 420.000,490.000 447.260,490.000 507.500 L 490.000 595.000 321.718 595.000 L 153.436 595.000 152.968 523.454 C 152.515 454.171,152.391 451.762,149.064 447.307 C 143.412 439.740,137.392 436.247,128.536 435.396 C 117.215 434.308,106.820 440.188,101.827 450.503 C 98.419 457.543,98.334 459.790,98.370 542.610 C 98.404 621.410,98.626 627.978,101.468 634.167 C 103.152 637.833,106.086 642.217,107.988 643.908 C 116.692 651.648,113.289 651.516,306.250 651.594 L 488.333 651.667 488.333 655.483 C 488.333 667.172,477.738 694.823,465.595 714.824 C 454.287 733.450,444.522 745.654,426.752 763.369 C 386.538 803.459,336.510 831.581,272.511 850.073 C 231.930 861.799,193.258 867.638,140.378 870.022 C 102.520 871.729,98.967 872.534,90.911 881.222 C 83.256 889.477,82.625 905.324,89.570 914.871 C 91.289 917.234,96.026 920.917,100.098 923.057 C 107.285 926.834,108.319 926.915,135.738 925.860 C 228.629 922.284,303.194 904.741,370.098 870.720 C 435.472 837.478,486.219 790.821,517.226 735.449 C 531.826 709.376,539.366 687.662,544.147 657.917 L 545.151 651.667 712.576 651.667 L 880.000 651.667 880.000 665.887 C 880.000 682.562,882.190 688.854,890.549 696.194 C 903.975 707.981,924.715 703.670,932.390 687.496 C 934.947 682.108,935.192 671.375,935.084 569.749 C 934.954 447.686,935.208 451.005,925.396 443.287 C 914.674 434.853,900.506 435.064,890.549 443.806 C 879.960 453.104,880.000 452.784,880.000 527.446 L 880.000 595.000 712.487 595.000 L 544.974 595.000 545.404 495.426 L 545.833 395.853 604.167 372.100 C 636.250 359.037,662.900 348.345,663.389 348.341 C 663.878 348.337,692.351 380.671,726.662 420.195 C 760.973 459.719,790.669 493.120,792.652 494.419 C 799.084 498.634,806.889 500.069,813.582 498.266 C 832.084 493.284,840.916 472.517,830.845 457.676 C 823.641 447.061,563.737 148.849,560.544 147.535 C 548.599 142.620,538.693 143.775,529.992 151.096 C 519.698 159.758,516.866 174.005,523.330 184.608 C 525.154 187.600,548.854 215.586,575.995 246.797 C 603.137 278.009,625.079 303.784,624.755 304.076 C 623.901 304.847,319.718 428.568,316.241 429.559 C 313.465 430.351,313.337 422.796,313.741 281.447 L 314.167 132.500 566.667 131.667 C 808.328 130.869,819.385 130.701,824.243 127.758 C 830.726 123.831,836.123 115.844,837.534 108.087 C 839.041 99.804,833.881 88.525,825.745 82.319 L 819.426 77.500 501.797 77.087 C 216.111 76.715,183.664 76.936,179.170 79.285 " stroke="none" fill-rule="evenodd" fill="black"></path></svg>