<svg width="1000" height="1000" viewBox="0 0 1000 1000" version="1.1" id="svg5" sodipodi:docname="倉.svg" inkscape:version="1.2.1 (9c6d41e410, 2022-07-14)" xmlns:inkscape="http://www.inkscape.org/namespaces/inkscape" xmlns:sodipodi="http://sodipodi.sourceforge.net/DTD/sodipodi-0.dtd" xmlns="http://www.w3.org/2000/svg" xmlns:svg="http://www.w3.org/2000/svg"><path d="M495.608 58.296 C 490.090 59.568,480.000 65.979,480.000 68.213 C 480.000 70.304,453.671 101.324,421.899 136.667 C 387.511 174.919,300.411 262.499,268.333 291.078 C 203.837 348.540,145.238 392.738,90.833 424.957 C 72.051 436.079,68.680 439.054,64.620 448.087 C 59.006 460.578,64.001 474.348,76.744 481.510 C 86.688 487.098,95.956 485.823,111.733 476.697 C 142.752 458.753,196.002 422.284,225.328 398.900 C 231.466 394.005,236.865 390.000,237.324 390.000 C 237.784 390.000,237.502 392.063,236.698 394.583 C 235.893 397.104,234.920 452.241,234.536 517.110 C 234.151 581.978,233.472 635.417,233.027 635.862 C 232.582 636.307,218.143 639.639,200.939 643.267 C 166.858 650.454,161.222 653.047,156.068 663.908 C 148.295 680.287,158.880 699.891,177.015 702.705 C 180.065 703.178,193.328 701.286,206.887 698.445 C 220.300 695.633,231.738 693.333,232.304 693.333 C 232.870 693.333,233.333 713.416,233.333 737.960 C 233.333 762.505,234.123 788.943,235.088 796.710 C 242.514 856.484,272.107 898.630,318.333 915.268 L 329.167 919.167 578.457 919.615 L 827.747 920.063 833.303 916.282 C 836.360 914.202,840.346 910.493,842.163 908.041 C 846.617 902.027,847.799 888.692,844.453 882.220 C 842.320 878.096,789.474 800.302,764.574 764.631 C 753.678 749.022,740.643 744.745,726.600 752.171 C 713.875 758.901,708.222 775.119,714.403 787.166 C 716.570 791.390,744.330 832.638,763.720 860.447 L 766.937 865.061 552.219 864.614 L 337.500 864.167 329.485 860.187 C 312.134 851.571,298.236 831.160,292.198 805.423 C 289.588 794.296,289.167 784.819,289.167 737.222 C 289.167 706.818,289.548 681.562,290.013 681.097 C 290.479 680.632,312.979 674.626,340.013 667.751 C 404.278 651.409,444.339 639.764,498.333 621.730 C 582.595 593.587,640.687 569.506,717.372 530.931 C 760.913 509.028,771.476 503.043,775.527 497.982 C 786.387 484.414,781.837 464.414,766.164 456.827 C 755.072 451.457,750.525 452.281,729.696 463.434 C 612.022 526.443,480.544 575.732,329.493 613.464 C 310.980 618.088,294.536 622.246,292.950 622.704 C 290.240 623.487,290.040 616.638,289.617 508.556 C 289.172 394.855,289.128 393.524,285.680 388.871 C 279.465 380.485,272.106 376.667,262.159 376.667 L 253.144 376.667 264.488 367.161 C 331.997 310.598,429.340 213.389,495.735 136.236 C 500.264 130.973,504.526 126.667,505.206 126.667 C 505.886 126.667,593.306 207.030,699.471 305.252 C 805.637 403.474,894.750 485.221,897.500 486.912 C 912.451 496.107,934.047 485.129,937.482 466.589 C 940.115 452.376,948.384 460.666,733.492 262.071 C 623.863 160.756,530.269 73.867,525.506 68.985 C 520.742 64.103,514.929 59.709,512.589 59.221 C 503.296 57.283,500.630 57.138,495.608 58.296 " stroke="none" fill-rule="evenodd" fill="black"></path></svg>