<svg width="1000" height="1000" viewBox="0 0 1000 1000" version="1.1" id="svg5" xmlns="http://www.w3.org/2000/svg" xmlns:svg="http://www.w3.org/2000/svg"><path d="M694.919 52.278 C 685.612 55.250,683.001 57.888,668.302 79.167 C 649.648 106.172,632.890 127.677,607.289 157.463 C 584.651 183.801,530.438 240.025,511.433 256.874 L 500.172 266.858 418.003 217.824 C 372.810 190.855,333.272 167.479,330.141 165.876 C 326.125 163.821,322.038 163.194,316.267 163.748 C 307.111 164.628,301.042 168.406,295.269 176.820 C 289.908 184.632,290.723 198.797,297.001 206.920 C 300.003 210.806,323.252 225.530,373.573 255.414 C 413.316 279.017,448.392 299.892,451.519 301.804 L 457.205 305.279 452.927 308.889 C 352.714 393.466,247.175 459.711,165.764 489.137 C 136.732 499.631,130.619 505.675,132.015 522.509 C 132.907 533.266,138.120 540.972,147.335 545.158 C 156.861 549.484,160.623 549.162,180.255 542.344 C 268.310 511.764,379.827 442.382,488.928 350.297 C 498.881 341.897,507.506 335.292,508.095 335.620 C 508.684 335.948,548.238 359.488,595.992 387.932 C 643.746 416.376,685.146 440.852,687.993 442.324 C 705.694 451.478,728.248 435.381,726.289 414.992 C 725.779 409.683,724.015 404.879,721.270 401.320 C 718.337 397.520,691.627 380.724,634.355 346.667 C 588.880 319.625,551.672 296.996,551.670 296.381 C 551.668 295.766,566.999 279.821,585.738 260.949 C 642.637 203.647,687.185 150.634,718.455 103.012 C 729.186 86.670,731.309 79.849,728.404 71.046 C 723.406 55.903,708.945 47.798,694.919 52.278 M740.068 453.844 C 735.843 455.302,728.944 462.067,714.247 479.167 C 691.282 505.884,653.149 544.721,624.522 570.547 C 579.448 611.211,494.690 678.333,488.416 678.333 C 487.320 678.333,428.842 650.208,358.466 615.833 C 247.837 561.797,229.492 553.333,223.001 553.333 C 201.861 553.333,188.952 578.851,201.400 596.034 C 205.736 602.020,215.725 607.248,320.508 658.367 C 383.415 689.057,434.910 714.923,434.942 715.847 C 434.974 716.772,423.188 725.123,408.750 734.406 C 292.169 809.365,181.020 863.681,91.819 889.284 C 77.657 893.348,64.414 897.759,62.390 899.085 C 47.796 908.648,47.699 934.315,62.221 943.831 C 70.817 949.463,78.151 950.115,92.403 946.516 C 114.166 941.021,167.115 922.768,195.833 910.861 C 277.429 877.031,387.493 816.321,471.215 758.963 C 482.425 751.283,492.940 745.000,494.583 745.000 C 496.226 745.000,590.321 790.334,703.683 845.742 C 817.045 901.150,912.678 947.259,916.201 948.208 C 929.640 951.827,944.393 942.458,948.036 927.990 C 950.489 918.251,948.145 909.890,940.999 902.885 C 937.158 899.119,877.040 868.978,741.086 802.655 C 634.156 750.490,546.667 707.307,546.667 706.694 C 546.667 706.081,556.229 698.173,567.917 689.122 C 639.851 633.412,711.809 566.755,756.286 514.629 C 774.403 493.395,776.667 489.400,776.667 478.663 C 776.667 468.197,771.687 460.453,761.717 455.417 C 753.466 451.249,748.612 450.896,740.068 453.844 " stroke="none" fill-rule="evenodd" fill="black"></path></svg>