<svg width="1000" height="1000" viewBox="0 0 1000 1000" version="1.1" id="svg5" xmlns="http://www.w3.org/2000/svg" xmlns:svg="http://www.w3.org/2000/svg"><path d="M551.326 68.637 C 544.240 70.540,541.836 73.040,509.525 112.107 C 463.290 168.011,402.969 233.788,341.721 295.088 C 258.283 378.598,193.841 433.533,119.311 484.688 C 105.794 493.965,100.116 502.051,100.037 512.137 C 99.905 528.852,118.578 543.193,134.414 538.539 C 147.988 534.549,219.508 481.311,270.000 437.612 C 346.269 371.603,448.669 267.457,528.345 174.863 C 570.836 125.483,584.649 107.730,585.941 100.845 C 589.771 80.430,571.324 63.265,551.326 68.637 M743.394 233.764 C 734.089 236.207,729.569 240.529,721.789 254.418 C 681.183 326.911,634.107 396.013,576.058 468.333 C 538.283 515.395,487.500 573.331,484.022 573.332 C 483.026 573.333,444.911 546.709,399.322 514.169 C 353.733 481.629,314.566 454.536,312.283 453.963 C 305.996 452.385,294.979 454.368,290.144 457.948 C 287.773 459.703,284.079 463.696,281.936 466.820 C 278.682 471.562,278.149 474.087,278.710 482.106 C 279.144 488.299,280.578 493.312,282.746 496.217 C 285.278 499.608,429.383 604.670,443.333 613.296 C 445.321 614.525,440.711 620.013,420.833 640.079 C 308.373 753.605,171.149 855.162,83.227 889.936 C 64.617 897.296,59.216 900.678,54.890 907.678 C 43.804 925.615,57.697 949.137,79.129 948.719 C 86.911 948.567,109.404 939.498,139.893 924.220 C 170.083 909.092,189.828 897.494,225.000 874.229 C 301.331 823.739,375.635 762.053,458.762 680.163 L 491.690 647.724 496.262 651.079 C 518.300 667.254,901.677 941.017,906.965 944.355 C 920.344 952.801,936.838 949.040,945.108 935.658 C 949.916 927.879,949.969 915.539,945.226 907.866 C 942.738 903.840,883.420 860.498,738.784 757.025 C 627.161 677.170,534.369 610.757,532.579 609.442 C 529.473 607.160,529.975 606.332,543.481 591.442 C 629.781 496.293,706.463 392.303,761.083 296.349 C 777.382 267.715,779.646 259.283,774.149 247.697 C 768.993 236.833,755.311 230.634,743.394 233.764 " stroke="none" fill-rule="evenodd" fill="black"></path></svg>