<svg width="1000" height="1000" viewBox="0 0 1000 1000" version="1.1" id="svg5" inkscape:version="1.2.1 (9c6d41e410, 2022-07-14)" sodipodi:docname="傾.svg" xmlns:inkscape="http://www.inkscape.org/namespaces/inkscape" xmlns:sodipodi="http://sodipodi.sourceforge.net/DTD/sodipodi-0.dtd" xmlns="http://www.w3.org/2000/svg" xmlns:svg="http://www.w3.org/2000/svg"><path d="M815.000 55.262 C 408.383 186.944,285.651 227.163,281.585 230.058 C 271.184 237.464,271.047 238.322,269.801 303.988 C 268.641 365.151,268.291 373.267,264.014 438.333 C 251.996 621.142,223.211 765.397,181.781 850.439 C 173.391 867.662,164.510 881.965,149.729 902.061 C 143.611 910.378,142.712 912.697,142.821 919.884 C 143.057 935.516,154.565 947.051,169.925 947.051 C 180.921 947.051,186.701 943.227,198.215 928.333 C 272.307 832.494,316.072 623.587,324.916 323.546 C 325.736 295.705,327.029 272.376,327.787 271.703 C 328.546 271.031,437.167 235.502,569.167 192.750 C 701.167 149.997,818.167 112.084,829.167 108.497 C 846.364 102.891,849.921 101.104,854.553 95.745 C 864.020 84.794,863.856 70.945,854.133 60.183 C 848.988 54.487,839.435 49.884,833.140 50.067 C 831.871 50.104,823.708 52.441,815.000 55.262 " stroke="none" fill-rule="evenodd" fill="black"></path></svg>