<svg width="1000" height="1000" viewBox="0 0 1000 1000" version="1.1" id="svg5" inkscape:version="1.2.1 (9c6d41e410, 2022-07-14)" sodipodi:docname="光.svg" xmlns:inkscape="http://www.inkscape.org/namespaces/inkscape" xmlns:sodipodi="http://sodipodi.sourceforge.net/DTD/sodipodi-0.dtd" xmlns="http://www.w3.org/2000/svg" xmlns:svg="http://www.w3.org/2000/svg"><path d="M494.132 53.281 C 486.782 54.948,480.573 59.519,476.279 66.422 L 472.500 72.500 472.066 463.242 L 471.632 853.984 430.399 812.981 C 390.913 773.714,388.839 771.929,381.438 770.828 C 371.601 769.364,360.511 773.927,354.962 781.721 C 349.959 788.747,348.584 802.472,352.200 809.311 C 353.612 811.981,384.632 843.926,421.133 880.299 C 492.935 951.847,491.078 950.378,506.168 947.547 C 514.259 946.029,524.102 936.191,526.522 927.202 C 527.851 922.268,528.245 802.067,527.933 496.429 L 527.500 72.500 523.666 66.334 C 517.289 56.079,505.254 50.760,494.132 53.281 M67.417 267.344 C 55.243 272.647,48.366 287.579,52.302 300.164 C 57.184 315.772,213.541 675.841,217.084 679.635 C 227.959 691.281,246.908 691.704,257.024 680.526 C 260.895 676.248,265.000 666.063,265.000 660.735 C 265.000 654.810,103.713 280.706,98.474 274.481 C 91.014 265.616,78.165 262.663,67.417 267.344 M911.330 267.269 C 905.207 269.987,898.968 276.077,896.838 281.415 C 895.868 283.845,892.082 297.570,888.423 311.914 C 871.862 376.852,846.287 440.104,813.312 497.678 C 796.107 527.717,764.052 574.943,729.480 621.185 C 711.517 645.211,695.660 667.111,694.243 669.852 C 685.438 686.880,699.051 708.333,718.663 708.333 C 723.156 708.333,729.099 707.161,731.869 705.728 C 738.142 702.485,798.594 621.996,827.551 578.333 C 884.234 492.865,919.541 414.392,942.555 322.731 C 949.011 297.015,949.794 292.091,948.304 286.557 C 943.827 269.930,926.133 260.700,911.330 267.269 " stroke="none" fill-rule="evenodd" fill="black"></path></svg>