<svg width="1000" height="1000" viewBox="0 0 1000 1000" version="1.1" id="svg5" sodipodi:docname="党.svg" inkscape:version="1.2.2 (732a01da63, 2022-12-09)" xmlns:inkscape="http://www.inkscape.org/namespaces/inkscape" xmlns:sodipodi="http://sodipodi.sourceforge.net/DTD/sodipodi-0.dtd" xmlns="http://www.w3.org/2000/svg" xmlns:svg="http://www.w3.org/2000/svg"><path d="M163.163 62.097 C 160.048 64.167,155.797 69.229,153.716 73.347 L 149.931 80.833 150.382 254.289 L 150.833 427.745 155.268 434.445 C 161.153 443.337,169.571 447.253,180.799 446.322 C 194.245 445.207,202.818 437.173,205.779 422.917 L 206.730 418.333 247.702 418.333 L 288.675 418.333 287.623 441.250 C 286.124 473.925,283.176 516.355,281.863 524.167 L 280.742 530.833 181.621 531.667 C 110.614 532.264,81.555 533.050,79.167 534.440 C 63.277 543.687,59.642 563.063,71.216 576.818 C 79.648 586.838,77.755 586.667,180.079 586.667 L 273.598 586.667 272.722 591.250 C 272.240 593.771,271.367 599.208,270.782 603.333 C 268.631 618.509,258.086 659.818,250.575 682.500 C 223.686 763.691,184.752 818.645,126.661 857.400 C 117.949 863.212,100.324 873.782,87.494 880.890 C 62.292 894.852,57.702 898.233,53.825 905.689 C 50.261 912.542,51.653 926.293,56.617 933.264 C 60.893 939.269,71.580 944.906,78.796 944.963 C 87.824 945.035,146.079 912.297,173.294 891.858 C 189.158 879.944,215.562 854.650,229.080 838.417 C 266.953 792.941,296.684 730.751,315.024 658.642 C 316.030 654.687,317.491 651.687,318.271 651.976 C 319.051 652.264,355.139 683.960,398.467 722.410 C 441.795 760.861,479.898 793.674,483.141 795.327 C 490.786 799.225,497.728 799.132,505.784 795.025 C 509.353 793.206,512.494 791.938,512.764 792.208 C 513.034 792.479,507.835 798.988,501.211 806.674 C 476.742 835.064,448.941 856.296,404.167 880.786 C 391.333 887.805,378.808 895.721,376.332 898.376 C 360.178 915.698,372.747 943.333,396.781 943.333 C 405.051 943.333,429.024 931.285,463.333 909.886 C 521.114 873.846,564.389 825.393,594.971 762.500 C 608.224 735.243,618.728 707.793,627.497 677.500 C 630.946 665.583,633.938 655.629,634.145 655.378 C 634.352 655.128,695.402 719.013,769.813 797.344 C 915.529 950.738,911.526 946.961,925.575 944.325 C 933.457 942.846,941.567 936.952,945.247 930.026 C 949.250 922.495,949.220 910.640,945.181 904.018 C 943.455 901.187,875.958 829.321,795.188 744.317 C 681.268 624.425,648.333 588.834,648.333 585.618 C 648.333 581.905,650.245 566.946,652.619 552.083 L 653.484 546.667 738.679 546.667 L 823.874 546.667 830.943 542.524 C 845.631 533.916,848.834 515.766,837.986 502.606 C 828.792 491.451,830.724 491.667,739.898 491.667 L 658.022 491.667 658.982 476.250 C 659.510 467.771,660.406 451.271,660.972 439.583 L 662.002 418.333 727.636 418.333 L 793.270 418.333 794.221 422.917 C 795.845 430.735,800.432 438.414,805.743 442.202 C 809.718 445.038,813.206 445.833,821.667 445.833 C 833.837 445.833,840.106 442.475,845.941 432.832 C 849.076 427.650,849.167 422.638,849.167 255.000 C 849.167 160.125,848.604 80.495,847.917 78.045 C 846.128 71.666,838.555 63.256,832.215 60.607 C 827.682 58.713,771.876 58.333,497.800 58.333 L 168.826 58.333 163.163 62.097 M793.333 161.667 L 793.333 210.000 500.000 210.000 L 206.667 210.000 206.667 161.667 L 206.667 113.333 500.000 113.333 L 793.333 113.333 793.333 161.667 M793.333 315.000 L 793.333 363.333 500.000 363.333 L 206.667 363.333 206.667 315.000 L 206.667 266.667 500.000 266.667 L 793.333 266.667 793.333 315.000 M605.395 433.333 C 605.155 441.125,604.502 457.438,603.944 469.583 L 602.931 491.667 522.407 491.667 C 469.681 491.667,440.264 492.277,437.192 493.436 C 430.486 495.964,422.042 504.646,419.861 511.255 C 418.799 514.473,418.470 520.100,419.098 524.292 L 420.204 531.667 379.367 531.667 C 356.907 531.667,338.223 531.104,337.847 530.417 C 337.471 529.729,337.747 523.542,338.460 516.667 C 339.172 509.792,340.715 484.850,341.889 461.240 L 344.023 418.313 474.928 418.740 L 605.833 419.167 605.395 433.333 M596.667 551.554 C 596.667 559.547,586.871 614.230,581.420 636.667 C 572.082 675.103,558.790 712.517,543.958 742.116 C 536.643 756.715,522.548 780.000,521.026 780.000 C 520.636 780.000,520.723 776.974,521.219 773.276 C 523.058 759.566,522.946 759.449,422.715 670.494 L 329.200 587.500 400.850 586.604 C 440.257 586.111,472.685 585.549,472.912 585.354 C 487.774 572.575,491.067 566.258,489.235 554.042 L 488.129 546.667 542.398 546.667 L 596.667 546.667 596.667 551.554 " stroke="none" fill-rule="evenodd" fill="black"></path></svg>