<svg width="1000" height="1000" viewBox="0 0 1000 1000" version="1.1" id="svg5" sodipodi:docname="入.svg" inkscape:version="1.2.1 (9c6d41e410, 2022-07-14)" xmlns:inkscape="http://www.inkscape.org/namespaces/inkscape" xmlns:sodipodi="http://sodipodi.sourceforge.net/DTD/sodipodi-0.dtd" xmlns="http://www.w3.org/2000/svg" xmlns:svg="http://www.w3.org/2000/svg"><path d="M204.036 76.494 C 191.507 82.184,184.897 95.572,188.327 108.309 C 190.517 116.442,200.212 126.260,207.304 127.526 C 210.162 128.036,341.500 128.239,499.167 127.977 L 785.833 127.500 791.107 123.738 C 799.047 118.075,803.966 106.695,802.552 97.264 C 801.152 87.932,790.448 76.173,781.774 74.438 C 778.736 73.830,649.031 73.350,493.542 73.370 C 221.942 73.405,210.566 73.528,204.036 76.494 M275.205 239.930 C 267.965 241.734,261.621 246.504,257.813 253.006 C 254.956 257.883,254.800 265.956,254.944 401.320 C 255.028 480.056,254.619 545.720,254.036 547.238 C 253.068 549.763,245.179 550.000,162.268 550.000 C 63.011 550.000,64.630 549.850,56.216 559.849 C 50.218 566.978,47.932 575.907,50.098 583.751 C 51.950 590.459,58.304 598.897,63.930 602.121 C 66.583 603.641,91.259 604.381,159.961 605.000 L 252.421 605.833 251.991 620.000 C 251.156 647.501,248.127 689.514,244.868 718.812 C 235.736 800.906,221.082 853.198,195.727 894.169 C 186.441 909.172,185.194 916.667,190.322 926.653 C 200.812 947.080,224.113 948.270,238.770 929.128 C 247.805 917.328,266.978 877.410,273.975 855.833 C 282.491 829.571,289.307 800.239,294.068 769.358 C 300.647 726.687,303.081 700.359,307.607 622.917 L 308.654 605.000 494.327 605.000 L 680.000 605.000 680.000 722.500 C 680.000 787.125,679.703 840.000,679.341 840.000 C 678.978 840.000,672.222 832.582,664.326 823.516 C 656.430 814.450,647.426 805.825,644.316 804.349 C 623.375 794.412,599.818 814.466,606.447 836.589 C 607.763 840.983,620.697 857.032,649.710 890.270 C 691.736 938.415,697.121 943.333,707.815 943.333 C 714.385 943.333,726.565 936.847,730.736 931.128 C 734.129 926.475,734.176 924.644,735.000 766.128 L 735.833 605.833 834.167 605.000 C 907.513 604.378,933.407 603.647,936.070 602.121 C 946.481 596.155,952.853 581.935,949.902 571.249 C 948.050 564.541,941.696 556.103,936.070 552.879 C 933.407 551.353,907.513 550.622,834.167 550.000 L 735.833 549.167 735.000 403.038 C 734.173 258.029,734.140 256.874,730.680 252.205 C 728.762 249.617,724.714 245.812,721.684 243.750 L 716.174 240.000 504.337 239.982 C 387.827 239.972,289.875 239.640,286.667 239.245 C 283.458 238.851,278.300 239.159,275.205 239.930 M680.000 422.500 L 680.000 550.000 495.000 550.000 L 310.000 550.000 310.000 422.500 L 310.000 295.000 495.000 295.000 L 680.000 295.000 680.000 422.500 " stroke="none" fill-rule="evenodd" fill="black"></path></svg>