<svg width="1000" height="1000" viewBox="0 0 1000 1000" version="1.1" id="svg5" xmlns="http://www.w3.org/2000/svg" xmlns:svg="http://www.w3.org/2000/svg"><path d="M738.984 51.563 C 732.543 53.121,727.902 56.314,722.978 62.573 L 719.167 67.418 718.724 219.542 L 718.282 371.667 622.514 371.667 L 526.747 371.667 526.290 276.788 C 525.843 183.924,525.760 181.811,522.397 177.307 C 509.668 160.263,488.665 160.263,475.936 177.307 C 472.573 181.811,472.490 183.924,472.043 276.788 L 471.587 371.667 375.793 371.667 L 280.000 371.667 280.000 277.746 L 280.000 183.826 276.250 178.316 C 268.967 167.615,258.138 162.759,246.871 165.142 C 238.843 166.840,233.066 171.588,228.750 180.034 L 225.000 187.373 225.000 279.520 L 225.000 371.667 149.583 371.703 C 79.773 371.737,73.661 371.969,67.369 374.827 C 46.406 384.348,45.190 411.826,65.227 423.221 C 71.112 426.567,73.514 426.667,148.144 426.667 L 225.000 426.667 225.000 576.314 L 225.000 725.960 228.750 733.299 C 233.930 743.436,239.615 747.144,251.228 747.956 C 259.246 748.517,261.772 747.984,266.513 744.731 C 269.637 742.587,273.762 738.716,275.680 736.128 C 279.143 731.455,279.172 730.391,280.000 579.462 L 280.833 427.500 375.833 427.500 L 470.833 427.500 471.667 579.462 C 472.494 730.391,472.524 731.456,475.987 736.128 C 481.988 744.227,489.618 748.333,498.663 748.333 C 508.722 748.333,515.079 745.193,521.164 737.215 L 525.833 731.094 526.667 579.297 L 527.500 427.500 622.500 427.500 L 717.500 427.500 718.333 680.000 C 719.133 922.338,719.291 932.683,722.256 937.054 C 729.217 947.317,743.571 952.035,754.253 947.571 C 762.843 943.982,766.523 940.504,770.199 932.500 C 773.126 926.126,773.262 914.868,773.297 676.250 L 773.333 426.667 850.998 426.667 C 937.722 426.667,936.607 426.804,944.203 415.156 C 949.727 406.686,950.845 398.582,947.571 390.747 C 943.982 382.157,940.504 378.477,932.500 374.801 C 926.343 371.974,919.998 371.737,849.583 371.703 L 773.333 371.667 773.333 223.280 C 773.333 64.646,773.521 68.495,765.357 59.474 C 759.324 52.807,747.946 49.394,738.984 51.563 " stroke="none" fill-rule="evenodd" fill="#000000"></path></svg>