<svg width="1000" height="1000" viewBox="0 0 1000 1000" version="1.1" id="svg5" xmlns="http://www.w3.org/2000/svg" xmlns:svg="http://www.w3.org/2000/svg"><path d="M488.367 53.750 C 479.723 58.167,475.349 63.634,473.262 72.629 C 472.414 76.287,471.729 144.317,471.706 227.083 L 471.667 375.000 271.477 375.000 L 71.287 375.000 64.728 378.687 C 47.102 388.593,46.019 411.708,62.588 424.347 L 68.906 429.167 270.260 429.610 L 471.614 430.052 472.057 679.610 C 472.470 912.549,472.692 929.518,475.383 934.436 C 486.066 953.960,513.934 953.960,524.617 934.436 C 527.308 929.518,527.530 912.549,527.943 679.610 L 528.386 430.052 729.740 429.610 L 931.094 429.167 937.412 424.347 C 953.981 411.708,952.898 388.593,935.272 378.687 L 928.713 375.000 728.523 375.000 L 528.333 375.000 528.294 227.083 C 528.271 144.317,527.586 76.287,526.738 72.629 C 525.904 69.033,523.815 64.158,522.096 61.796 C 518.328 56.615,505.936 50.000,500.000 50.000 C 497.638 50.000,492.404 51.688,488.367 53.750 " stroke="none" fill-rule="evenodd" fill="#000000"></path></svg>