<svg width="1000" height="1000" viewBox="0 0 1000 1000" version="1.1" id="svg5" sodipodi:docname="兵.svg" inkscape:version="1.2.1 (9c6d41e410, 2022-07-14)" xmlns:inkscape="http://www.inkscape.org/namespaces/inkscape" xmlns:sodipodi="http://sodipodi.sourceforge.net/DTD/sodipodi-0.dtd" xmlns="http://www.w3.org/2000/svg" xmlns:svg="http://www.w3.org/2000/svg"><path d="M489.856 51.593 C 482.637 53.781,477.477 57.984,473.649 64.795 L 470.000 71.287 470.000 193.144 L 470.000 315.000 379.819 315.000 L 289.639 315.000 290.545 311.250 C 294.501 294.880,299.961 221.989,299.984 185.252 C 300.001 155.632,298.668 149.794,290.396 143.287 C 279.674 134.853,265.506 135.064,255.549 143.806 C 246.596 151.668,245.002 157.055,244.984 179.530 C 244.932 243.101,236.822 312.079,223.291 364.029 C 203.484 440.079,175.453 491.412,124.926 544.167 C 110.877 558.834,108.450 564.722,111.612 576.462 C 113.803 584.602,124.269 594.399,132.401 595.925 C 144.471 598.189,149.688 595.724,165.511 580.273 C 194.431 552.037,218.726 518.566,238.125 480.236 C 255.491 445.924,262.456 427.647,276.961 378.333 L 279.167 370.833 374.001 370.403 L 468.834 369.972 467.758 385.140 C 461.037 479.821,419.554 591.888,356.212 686.477 C 301.269 768.526,231.542 834.954,165.730 867.947 C 139.587 881.053,111.949 889.013,85.833 890.958 C 75.900 891.698,68.853 893.162,64.971 895.293 C 50.482 903.247,46.157 922.170,56.011 934.502 C 66.415 947.522,77.690 949.284,112.496 943.334 C 210.425 926.592,318.566 841.787,402.904 715.593 C 447.537 648.809,483.000 571.919,504.123 496.138 C 505.609 490.805,507.470 486.680,508.259 486.971 C 509.047 487.262,597.551 589.125,704.934 713.333 C 812.317 837.542,902.788 941.168,905.981 943.614 C 921.461 955.472,943.141 947.615,948.354 928.258 C 950.774 919.268,948.268 910.823,940.441 901.587 C 936.990 897.516,842.544 788.300,730.561 658.886 C 618.577 529.472,525.407 421.468,523.516 418.877 C 520.415 414.630,520.234 413.102,521.672 403.333 C 522.549 397.375,523.281 388.624,523.300 383.886 C 523.318 379.149,523.789 374.086,524.345 372.636 C 525.256 370.261,539.387 370.000,667.115 370.000 L 808.874 370.000 815.943 365.857 C 823.523 361.415,830.000 350.844,830.000 342.916 C 830.000 332.842,822.147 321.578,812.137 317.295 C 807.724 315.407,781.817 315.000,665.928 315.000 L 525.083 315.000 524.625 191.953 L 524.167 68.905 519.360 62.605 C 514.473 56.198,503.544 49.986,497.500 50.180 C 495.667 50.239,492.227 50.874,489.856 51.593 " stroke="none" fill-rule="evenodd" fill="#000000"></path></svg>