<svg width="1000" height="1000" viewBox="0 0 1000 1000" version="1.1" id="svg5" xmlns="http://www.w3.org/2000/svg" xmlns:svg="http://www.w3.org/2000/svg"><path d="M120.205 115.142 C 107.554 117.818,97.353 131.790,99.014 144.167 C 100.032 151.755,256.831 662.409,261.163 672.248 C 269.419 690.996,295.207 693.765,307.800 677.255 C 316.729 665.548,320.685 680.441,232.617 394.167 C 188.061 249.333,150.261 129.005,148.617 126.770 C 141.709 117.379,130.778 112.906,120.205 115.142 M862.286 119.156 C 858.501 121.425,854.253 125.730,852.846 128.724 C 851.438 131.717,845.693 153.667,840.079 177.500 C 783.975 415.662,735.679 547.566,665.852 653.333 C 641.359 690.433,618.396 718.475,585.935 750.924 C 555.690 781.158,535.746 798.212,500.833 823.696 C 488.712 832.544,477.797 841.851,476.058 844.822 C 474.149 848.082,472.949 853.342,472.949 858.444 C 472.949 879.745,495.416 891.869,514.582 880.911 C 518.477 878.683,530.137 870.561,540.493 862.860 C 675.251 762.647,758.049 639.990,824.251 442.500 C 846.994 374.652,873.626 277.186,897.472 174.534 C 905.730 138.980,905.804 135.492,898.514 125.253 C 890.967 114.655,874.436 111.873,862.286 119.156 " stroke="none" fill-rule="evenodd" fill="black"></path></svg>