<svg width="1000" height="1000" viewBox="0 0 1000 1000" version="1.1" id="svg5" xmlns="http://www.w3.org/2000/svg" xmlns:svg="http://www.w3.org/2000/svg"><path d="M140.205 51.670 C 132.076 53.589,126.361 58.330,122.083 66.701 L 118.333 74.040 118.333 170.407 C 118.333 276.648,118.022 273.324,128.883 282.860 C 139.009 291.752,153.495 292.189,163.344 283.902 C 173.609 275.264,173.333 277.901,173.333 188.416 L 173.333 106.667 496.667 106.667 C 674.500 106.667,820.000 107.161,820.000 107.766 C 820.000 108.371,813.941 141.933,806.535 182.350 C 799.129 222.766,793.013 258.834,792.944 262.501 C 792.792 270.567,796.457 278.125,803.323 283.902 C 817.293 295.658,839.201 289.067,845.637 271.172 C 847.022 267.319,855.816 221.688,865.178 169.770 L 882.200 75.372 878.183 67.356 C 873.541 58.091,868.245 53.731,859.038 51.596 C 850.942 49.718,148.164 49.791,140.205 51.670 M675.205 185.142 C 668.654 186.527,662.453 190.813,657.603 197.307 C 654.258 201.786,654.154 204.065,653.704 283.454 L 653.242 365.000 574.538 365.037 C 501.388 365.071,495.351 365.292,489.002 368.176 C 478.625 372.888,474.167 380.287,474.167 392.794 C 474.167 403.918,476.757 409.095,485.640 415.730 C 490.101 419.062,492.704 419.192,571.370 420.000 L 652.500 420.833 652.928 534.583 L 653.356 648.333 544.125 648.333 C 455.640 648.333,433.860 648.765,429.452 650.607 C 423.743 652.992,415.608 661.518,413.334 667.498 C 412.202 670.475,402.230 673.893,348.622 689.675 C 313.766 699.937,284.442 708.333,283.457 708.333 C 282.197 708.333,281.667 671.807,281.667 585.000 L 281.667 461.667 350.417 461.630 C 413.858 461.596,419.694 461.354,425.998 458.491 C 435.527 454.163,440.514 446.551,441.313 435.109 C 442.061 424.412,438.211 417.025,428.464 410.456 L 422.840 406.667 352.254 406.667 L 281.667 406.667 281.657 332.917 C 281.651 284.524,281.019 256.901,279.819 252.578 C 277.435 243.990,269.074 235.777,260.316 233.418 C 245.261 229.364,230.247 239.029,226.827 254.977 C 225.663 260.408,225.000 289.456,225.000 335.082 L 225.000 406.667 155.780 406.667 C 79.037 406.667,78.978 406.674,70.847 417.334 C 61.408 429.709,64.579 447.732,77.768 456.667 L 83.918 460.833 154.459 461.302 L 225.000 461.771 225.000 593.921 L 225.000 726.072 152.083 747.432 C 111.979 759.180,75.260 770.231,70.486 771.990 C 60.634 775.619,54.194 782.282,51.744 791.378 C 47.460 807.290,61.114 825.000,77.666 825.000 C 81.057 825.000,120.657 814.182,165.666 800.960 C 210.674 787.737,251.625 775.786,256.667 774.402 C 298.390 762.942,440.986 719.738,444.341 717.539 C 446.678 716.008,450.107 712.185,451.960 709.044 L 455.329 703.333 554.331 703.333 L 653.333 703.333 653.333 815.054 C 653.333 937.210,653.054 933.595,663.158 942.097 C 676.177 953.051,693.241 950.518,704.064 936.026 C 707.445 931.497,707.507 929.608,707.950 817.413 L 708.401 703.402 819.912 702.951 C 929.582 702.507,931.500 702.443,936.026 699.064 C 953.071 686.335,953.071 665.331,936.026 652.603 C 931.500 649.223,929.582 649.159,819.867 648.716 L 708.310 648.264 708.738 534.549 L 709.167 420.833 790.296 420.000 C 868.963 419.192,871.566 419.062,876.027 415.730 C 883.593 410.079,887.086 404.059,887.937 395.203 C 889.025 383.882,883.146 373.487,872.831 368.493 C 865.817 365.098,863.408 365.000,787.020 365.000 L 708.425 365.000 707.962 283.454 C 707.512 204.065,707.409 201.786,704.064 197.307 C 696.614 187.333,686.001 182.859,675.205 185.142 " stroke="none" fill-rule="evenodd" fill="#ffffff"></path></svg>