<svg width="1000" height="1000" viewBox="0 0 1000 1000" version="1.1" id="svg5" xmlns="http://www.w3.org/2000/svg" xmlns:svg="http://www.w3.org/2000/svg"><path d="M488.763 56.250 C 483.786 58.962,475.000 68.986,475.000 71.952 C 475.000 75.859,414.202 167.168,375.312 221.667 C 277.740 358.400,184.449 464.542,102.500 532.061 C 66.206 561.964,65.669 562.491,63.443 570.441 C 57.325 592.294,79.575 611.676,100.470 602.695 C 111.454 597.974,169.489 548.496,198.292 519.297 C 205.144 512.350,211.323 506.667,212.023 506.667 C 212.723 506.667,213.492 602.163,213.731 718.880 L 214.167 931.093 218.818 937.191 C 229.206 950.809,245.727 952.852,258.508 942.097 C 265.088 936.561,268.333 929.004,268.333 919.220 L 268.333 911.667 500.000 911.667 L 731.667 911.667 731.667 920.083 C 731.667 929.891,734.529 936.239,741.659 942.237 C 754.271 952.850,770.853 950.733,781.182 937.191 L 785.833 931.093 786.667 703.782 L 787.500 476.471 839.167 540.264 C 867.583 575.350,893.382 605.769,896.496 607.862 C 904.524 613.255,915.575 613.023,924.441 607.274 C 937.248 598.969,941.185 585.877,934.646 573.333 C 932.495 569.208,841.132 455.160,731.618 319.892 C 622.103 184.624,530.180 70.999,527.345 67.392 C 519.325 57.188,512.553 53.333,502.644 53.333 C 497.671 53.333,491.883 54.549,488.763 56.250 M636.581 289.843 C 707.575 377.645,765.887 450.162,766.164 450.992 C 766.463 451.888,664.955 452.327,515.833 452.073 C 377.875 451.838,265.000 451.261,265.000 450.792 C 265.000 450.323,274.857 438.515,286.905 424.553 C 346.649 355.316,415.100 263.962,477.304 170.449 C 492.078 148.238,504.917 130.096,505.833 130.134 C 506.750 130.171,565.586 202.040,636.581 289.843 M471.667 580.000 L 471.667 653.333 370.000 653.333 L 268.333 653.333 268.333 581.111 C 268.333 541.389,268.833 508.389,269.444 507.778 C 270.056 507.167,315.806 506.667,371.111 506.667 L 471.667 506.667 471.667 580.000 M731.667 580.000 L 731.667 653.333 630.000 653.333 L 528.333 653.333 528.333 580.000 L 528.333 506.667 630.000 506.667 L 731.667 506.667 731.667 580.000 M471.667 782.500 L 471.667 855.000 370.000 855.000 L 268.333 855.000 268.333 782.500 L 268.333 710.000 370.000 710.000 L 471.667 710.000 471.667 782.500 M731.667 782.500 L 731.667 855.000 630.000 855.000 L 528.333 855.000 528.333 782.500 L 528.333 710.000 630.000 710.000 L 731.667 710.000 731.667 782.500 " stroke="none" fill-rule="evenodd" fill="black"></path></svg>