<svg width="1000" height="1000" viewBox="0 0 1000 1000" version="1.1" id="svg5" xmlns="http://www.w3.org/2000/svg" xmlns:svg="http://www.w3.org/2000/svg"><path d="M698.538 50.069 C 690.458 51.882,684.712 56.627,680.417 65.034 L 676.667 72.373 676.667 327.853 C 676.667 468.367,676.479 583.394,676.250 583.468 C 672.794 584.587,335.473 634.287,334.583 633.809 C 333.896 633.439,333.333 519.907,333.333 381.515 C 333.333 171.562,332.953 129.005,331.039 124.530 C 326.756 114.520,315.492 106.667,305.418 106.667 C 297.490 106.667,286.918 113.144,282.476 120.723 L 278.333 127.793 278.333 384.631 C 278.333 528.496,277.695 641.864,276.883 642.366 C 276.086 642.859,242.659 648.124,202.602 654.066 C 122.626 665.930,122.087 666.080,115.157 678.411 C 105.296 695.955,118.275 718.333,138.310 718.333 C 142.609 718.333,178.909 713.458,218.975 707.500 C 259.042 701.542,296.273 696.667,301.712 696.667 C 307.150 696.667,314.427 695.570,317.883 694.230 C 322.472 692.450,668.427 640.000,675.576 640.000 C 676.176 640.000,676.667 704.524,676.667 783.387 C 676.667 908.652,676.991 927.549,679.230 932.909 C 684.218 944.847,692.486 950.385,705.322 950.385 C 715.071 950.385,723.195 945.452,728.245 936.468 C 731.625 930.453,731.667 928.582,731.667 781.156 L 731.667 631.932 736.250 630.977 C 738.771 630.452,769.333 625.822,804.167 620.688 C 839.000 615.554,869.839 610.378,872.697 609.187 C 875.555 607.995,879.981 604.284,882.532 600.940 C 894.823 584.825,885.736 561.161,865.810 557.393 C 863.047 556.871,832.751 560.619,798.485 565.722 C 764.220 570.825,735.168 575.000,733.926 575.000 C 732.035 575.000,731.667 533.824,731.667 322.310 C 731.667 70.523,731.654 69.599,728.245 63.532 C 722.170 52.723,710.428 47.402,698.538 50.069 " stroke="none" fill-rule="evenodd" fill="#000000"></path></svg>