<svg width="1000" height="1000" viewBox="0 0 1000 1000" version="1.1" id="svg5" xmlns="http://www.w3.org/2000/svg" xmlns:svg="http://www.w3.org/2000/svg"><path d="M306.536 55.456 C 303.443 57.541,299.207 61.777,297.123 64.869 L 293.333 70.493 293.333 241.595 C 293.333 375.987,292.886 413.250,291.250 415.279 C 290.104 416.700,239.292 452.640,178.333 495.146 C 117.375 537.652,64.648 575.071,61.163 578.298 C 43.375 594.771,55.866 625.000,80.461 625.000 C 88.212 625.000,92.004 622.530,196.667 549.307 C 247.542 513.714,290.220 484.185,291.507 483.686 C 293.505 482.912,293.694 493.269,292.801 554.306 C 291.496 643.515,289.287 667.360,278.195 711.934 C 259.342 787.702,217.854 845.765,162.500 873.851 C 139.814 885.362,109.208 893.315,87.500 893.340 C 73.046 893.357,66.187 895.783,59.425 903.267 C 46.978 917.044,50.505 937.476,66.782 945.893 C 73.582 949.409,98.994 949.010,121.040 945.040 C 237.401 924.087,320.542 823.526,341.546 678.333 C 346.314 645.372,347.153 627.533,348.124 538.505 L 349.167 442.844 385.000 417.672 C 423.960 390.304,426.659 387.420,426.664 373.163 C 426.669 359.155,414.339 346.667,400.504 346.667 C 391.640 346.667,388.065 348.435,366.711 363.383 C 357.584 369.772,349.715 375.000,349.225 375.000 C 348.734 375.000,348.333 307.515,348.333 225.034 C 348.333 56.570,348.999 65.792,336.168 56.497 C 327.454 50.185,315.007 49.748,306.536 55.456 M613.316 55.417 C 610.286 57.479,606.238 61.284,604.320 63.873 L 600.833 68.579 600.833 362.206 C 600.833 633.624,601.061 658.035,603.847 684.948 C 610.849 752.580,622.221 800.126,640.769 839.319 C 668.976 898.924,710.055 931.635,772.447 944.176 C 791.884 948.083,837.730 950.326,885.546 949.708 C 926.124 949.184,927.726 949.037,934.387 945.220 C 942.756 940.424,948.333 931.111,948.333 921.933 C 948.333 913.520,865.881 594.327,861.990 587.674 C 853.922 573.883,834.342 570.049,822.214 579.887 C 816.170 584.790,811.679 593.720,811.682 600.833 C 811.683 604.500,828.180 671.213,848.342 749.084 C 868.504 826.956,885.000 891.268,885.000 892.001 C 885.000 893.929,809.861 893.640,793.997 891.651 C 711.110 881.258,674.030 823.592,658.974 681.667 C 655.186 645.957,653.384 390.674,656.931 392.078 C 658.160 392.564,700.417 420.939,750.833 455.132 C 861.605 530.258,858.524 528.333,868.008 528.333 C 894.022 528.333,905.365 494.908,884.585 479.484 C 863.347 463.720,664.731 330.773,660.446 329.452 L 655.059 327.792 654.613 198.184 C 654.170 69.636,654.138 68.538,650.680 63.872 C 644.549 55.598,637.083 51.667,627.500 51.667 C 621.249 51.667,617.287 52.714,613.316 55.417 " stroke="none" fill-rule="evenodd" fill="black"></path></svg>