<svg width="1000" height="1000" viewBox="0 0 1000 1000" version="1.1" id="svg5" xmlns="http://www.w3.org/2000/svg" xmlns:svg="http://www.w3.org/2000/svg"><path d="M489.856 51.593 C 482.637 53.781,477.477 57.984,473.649 64.795 C 470.037 71.222,470.000 72.090,470.000 150.644 L 470.000 230.000 328.750 230.037 C 194.605 230.071,187.156 230.229,180.668 233.176 C 170.292 237.888,165.833 245.287,165.833 257.794 C 165.833 268.918,168.424 274.096,177.308 280.730 C 181.851 284.123,183.738 284.177,324.705 285.000 C 403.242 285.458,467.422 286.208,467.327 286.667 C 467.233 287.125,466.598 291.958,465.917 297.406 C 463.319 318.198,443.477 371.887,433.707 384.561 L 430.833 388.288 355.000 352.285 C 301.709 326.984,276.901 316.036,271.544 315.457 C 246.873 312.789,232.170 343.679,249.788 361.162 C 252.662 364.015,282.799 379.137,327.184 400.000 C 367.162 418.792,399.901 434.690,399.936 435.330 C 399.971 435.970,396.100 441.220,391.333 446.997 C 339.337 510.010,272.042 561.483,201.374 592.294 C 162.869 609.081,132.424 617.113,95.833 620.135 C 67.530 622.473,67.668 622.437,59.974 629.389 C 47.655 640.517,47.267 655.357,58.974 667.556 C 67.833 676.788,73.121 677.748,101.667 675.311 C 143.705 671.721,172.750 663.816,229.571 640.503 C 231.052 639.895,230.892 641.447,229.009 645.954 C 223.642 658.798,230.978 675.430,244.504 681.082 C 248.949 682.939,293.683 683.333,499.838 683.333 C 672.039 683.333,751.242 682.783,754.475 681.564 C 761.640 678.863,769.870 670.005,771.770 662.950 C 774.124 654.206,772.146 645.661,766.197 638.887 C 756.197 627.497,777.047 628.343,503.833 628.235 C 348.030 628.174,256.763 627.554,258.333 626.568 C 259.708 625.704,270.895 618.974,283.194 611.610 C 339.469 577.916,398.011 527.053,436.594 478.333 C 444.217 468.708,451.084 460.589,451.855 460.290 C 452.626 459.992,556.587 508.635,682.879 568.386 C 809.170 628.137,915.225 677.406,918.556 677.872 C 931.436 679.676,945.056 670.506,948.501 657.710 C 950.893 648.827,947.914 638.503,941.078 631.989 C 937.593 628.667,860.359 591.344,710.833 520.723 C 587.083 462.276,484.967 413.796,483.909 412.989 C 482.530 411.938,484.735 405.987,491.679 392.011 C 497.012 381.280,504.777 362.375,508.936 350.000 C 515.675 329.949,517.937 320.777,522.912 293.333 L 524.272 285.833 667.552 285.000 L 810.833 284.167 816.965 280.354 C 823.580 276.241,830.000 265.189,830.000 257.916 C 830.000 247.842,822.147 236.578,812.137 232.295 C 807.724 230.407,781.820 230.000,665.948 230.000 L 525.121 230.000 524.644 149.452 L 524.167 68.904 519.360 62.604 C 514.473 56.198,503.544 49.986,497.500 50.180 C 495.667 50.239,492.227 50.874,489.856 51.593 M135.400 870.184 C 125.600 875.035,121.148 881.852,120.353 893.224 C 119.606 903.922,123.456 911.309,133.203 917.877 L 138.826 921.667 500.000 921.667 L 861.174 921.667 866.797 917.877 C 876.544 911.309,880.394 903.922,879.647 893.224 C 878.848 881.793,874.325 874.917,864.462 870.143 L 857.281 866.667 499.890 866.668 L 142.500 866.669 135.400 870.184 " stroke="none" fill-rule="evenodd" fill="#000000"></path></svg>