<svg width="1000" height="1000" viewBox="0 0 1000 1000" version="1.1" id="svg5" xmlns="http://www.w3.org/2000/svg" xmlns:svg="http://www.w3.org/2000/svg"><path d="M261.667 108.333 C 185.016 109.257,185.525 109.183,178.624 120.376 C 171.339 132.193,171.960 143.089,180.473 152.784 C 189.615 163.197,190.548 163.333,252.456 163.333 L 308.352 163.333 307.926 305.417 L 307.500 447.500 188.333 448.333 C 98.513 448.961,68.287 449.670,65.596 451.212 C 55.632 456.922,50.201 469.162,52.409 480.933 C 53.882 488.788,63.706 499.483,71.414 501.624 C 75.257 502.692,120.033 503.318,192.917 503.324 L 308.333 503.333 308.317 533.750 C 308.308 550.479,307.534 576.917,306.596 592.500 C 299.676 707.450,265.118 787.781,195.199 851.446 C 186.775 859.116,178.784 867.517,177.441 870.113 C 168.682 887.052,182.548 908.342,202.330 908.327 C 213.151 908.319,216.540 906.197,238.333 885.785 C 298.563 829.373,335.429 760.855,352.292 673.984 C 359.532 636.688,361.864 610.528,362.860 555.417 L 363.801 503.333 495.213 503.333 L 626.626 503.333 627.063 697.378 C 627.500 891.319,627.502 891.425,630.987 896.128 C 643.251 912.679,665.083 912.679,677.347 896.128 C 680.831 891.425,680.834 891.319,681.270 697.378 L 681.708 503.333 804.604 503.297 C 921.731 503.262,927.827 503.112,934.473 500.094 C 938.752 498.152,943.177 494.313,945.926 490.160 C 949.806 484.296,950.311 482.095,949.704 473.703 C 948.933 463.039,945.603 457.179,937.500 452.224 C 932.801 449.351,924.971 449.116,807.500 448.333 L 682.500 447.500 682.074 305.417 L 681.648 163.333 750.471 163.333 C 818.557 163.333,819.372 163.293,826.633 159.583 C 830.669 157.521,835.433 153.827,837.218 151.374 C 841.296 145.775,842.782 131.716,840.005 125.012 C 837.181 118.194,827.929 110.376,821.286 109.195 C 814.271 107.948,352.650 107.237,261.667 108.333 M626.259 305.417 L 625.833 447.500 494.583 447.927 L 363.333 448.354 363.333 305.843 L 363.333 163.333 495.009 163.333 L 626.685 163.333 626.259 305.417 " stroke="none" fill-rule="evenodd" fill="#000000"></path></svg>