<svg width="1000" height="1000" viewBox="0 0 1000 1000" version="1.1" id="svg5" xmlns="http://www.w3.org/2000/svg" xmlns:svg="http://www.w3.org/2000/svg"><path d="M493.333 70.000 L 407.500 70.833 401.368 74.646 C 387.894 83.024,384.895 101.381,394.997 113.637 C 404.493 125.156,403.295 125.000,482.335 125.000 L 553.333 125.000 553.333 129.373 C 553.333 137.483,541.550 240.447,534.856 290.833 C 502.217 536.486,456.762 707.082,384.153 856.422 C 368.189 889.257,364.992 897.113,364.996 903.504 C 365.003 917.533,375.657 928.462,390.348 929.510 C 397.275 930.005,400.596 929.320,405.833 926.320 C 411.916 922.835,414.037 919.432,430.039 887.500 C 501.400 745.093,549.692 574.806,582.471 350.000 C 584.810 333.958,587.062 319.896,587.476 318.750 C 588.059 317.137,601.418 316.667,646.614 316.667 L 705.000 316.667 705.002 544.583 C 705.004 791.419,705.184 797.110,714.130 833.686 C 726.479 884.176,752.746 912.994,797.597 925.259 C 809.597 928.541,815.905 928.945,865.109 929.591 C 925.876 930.387,927.576 930.141,935.820 919.333 C 944.886 907.447,945.039 908.135,911.637 810.833 C 893.859 759.045,879.675 720.321,877.352 717.232 C 875.093 714.228,870.077 710.699,865.678 709.019 C 851.939 703.772,838.058 709.920,831.483 724.167 C 829.791 727.833,828.390 732.476,828.370 734.484 C 828.350 736.492,838.833 768.679,851.667 806.011 C 864.500 843.343,875.000 874.138,875.000 874.444 C 875.000 874.750,864.688 874.974,852.083 874.942 C 826.414 874.877,807.288 872.085,797.182 866.929 C 781.033 858.691,771.247 840.362,764.610 805.921 C 761.113 787.771,761.047 783.768,760.114 534.167 L 759.167 280.833 755.354 274.702 C 753.116 271.102,748.596 267.144,744.411 265.118 C 737.540 261.792,734.689 261.667,665.924 261.667 L 594.566 261.667 595.519 253.750 C 596.043 249.396,599.175 221.083,602.478 190.833 C 605.782 160.583,608.860 133.396,609.318 130.417 L 610.151 125.000 745.800 125.000 C 837.590 125.000,882.967 124.427,886.142 123.227 C 896.487 119.319,905.000 107.322,905.000 96.654 C 905.000 85.425,894.788 72.629,884.414 70.859 C 877.081 69.607,597.102 68.993,493.333 70.000 M263.367 112.083 C 254.723 116.500,250.349 121.968,248.262 130.962 C 247.429 134.558,246.716 157.750,246.678 182.500 C 246.614 224.605,244.870 280.662,242.334 322.083 L 241.238 340.000 166.399 340.000 C 83.757 340.000,84.846 339.874,75.473 350.549 C 66.739 360.497,66.286 371.510,74.119 383.490 C 81.699 395.081,81.075 395.000,163.169 395.000 L 236.667 395.000 236.667 398.561 C 236.667 402.144,236.175 406.584,229.859 460.000 C 217.098 567.920,193.243 659.876,161.289 724.323 C 141.309 764.619,125.620 785.937,88.847 822.755 C 58.115 853.523,56.576 855.945,59.125 869.530 C 60.713 877.994,72.091 889.303,80.631 890.905 C 93.291 893.280,98.705 889.985,125.538 863.571 C 154.958 834.612,167.503 819.942,184.134 795.048 C 226.070 732.281,256.132 644.958,275.832 528.680 C 279.629 506.270,280.794 501.667,282.212 503.472 C 282.512 503.854,307.691 542.792,338.165 590.000 C 368.640 637.208,396.084 678.226,399.152 681.149 C 409.443 690.955,424.835 690.557,435.174 680.218 C 441.997 673.395,445.753 662.817,443.959 655.479 C 442.586 649.864,447.134 657.065,361.359 524.695 L 291.502 416.890 292.001 406.362 L 292.500 395.833 346.667 395.000 C 404.730 394.107,404.560 394.133,412.256 384.986 C 424.007 371.021,419.929 352.247,403.299 343.750 C 396.172 340.108,394.521 340.000,346.118 340.000 L 296.275 340.000 297.298 327.917 C 301.014 284.039,304.323 139.865,301.827 130.596 C 299.368 121.463,294.193 115.231,285.964 111.494 C 277.016 107.430,272.230 107.555,263.367 112.083 " stroke="none" fill-rule="evenodd" fill="black"></path></svg>