<svg width="1000" height="1000" viewBox="0 0 1000 1000" version="1.1" id="svg5" sodipodi:docname="包.svg" inkscape:version="1.2.1 (9c6d41e410, 2022-07-14)" xmlns:inkscape="http://www.inkscape.org/namespaces/inkscape" xmlns:sodipodi="http://sodipodi.sourceforge.net/DTD/sodipodi-0.dtd" xmlns="http://www.w3.org/2000/svg" xmlns:svg="http://www.w3.org/2000/svg"><path d="M150.833 137.260 C 144.660 140.118,139.124 145.999,136.778 152.192 C 134.276 158.796,134.276 841.204,136.778 847.808 C 139.204 854.211,144.773 859.978,151.161 862.700 C 155.598 864.591,214.172 864.978,501.748 865.016 L 847.007 865.061 852.586 861.613 C 855.655 859.717,859.717 855.655,861.613 852.586 L 865.061 847.007 865.016 501.748 C 864.966 124.566,865.662 150.060,855.178 141.238 C 841.685 129.886,820.449 134.653,813.176 150.668 C 810.184 157.255,810.072 169.191,810.037 483.750 L 810.000 810.000 500.000 810.000 L 190.000 810.000 190.000 483.860 L 190.000 157.719 186.524 150.538 C 184.612 146.588,180.743 141.716,177.926 139.710 C 171.615 135.216,157.923 133.978,150.833 137.260 " stroke="none" fill-rule="evenodd" fill="black"></path></svg>