<svg width="1000" height="1000" viewBox="0 0 1000 1000" version="1.1" id="svg5" sodipodi:docname="北.svg" inkscape:version="1.3 (0e150ed6c4, 2023-07-21)" xmlns:inkscape="http://www.inkscape.org/namespaces/inkscape" xmlns:sodipodi="http://sodipodi.sourceforge.net/DTD/sodipodi-0.dtd" xmlns="http://www.w3.org/2000/svg" xmlns:svg="http://www.w3.org/2000/svg"><path d="M140.177 72.714 C 134.589 75.133,127.370 82.866,125.106 88.858 C 123.907 92.031,123.327 137.359,123.313 228.858 C 123.281 437.269,119.243 550.068,108.180 651.667 C 97.541 749.375,82.243 818.336,58.273 876.651 C 49.153 898.837,48.344 905.221,53.401 915.132 C 61.916 931.824,84.934 934.462,96.970 920.126 C 106.756 908.469,123.291 864.798,134.879 820.000 C 156.441 736.644,168.654 636.580,175.055 490.833 C 176.776 451.639,179.838 249.449,179.946 167.917 L 180.000 126.667 275.000 126.667 L 370.000 126.667 370.000 263.645 L 370.000 400.624 365.417 396.388 C 351.330 383.370,224.828 287.310,218.962 285.177 C 213.281 283.111,210.912 283.032,205.287 284.717 C 186.167 290.446,178.047 311.062,188.862 326.420 C 194.259 334.086,331.213 439.646,338.750 441.950 C 346.418 444.294,355.796 441.919,363.082 435.789 C 365.777 433.522,368.435 431.667,368.991 431.667 C 370.339 431.667,369.935 704.880,368.569 716.932 L 367.500 726.363 295.833 632.089 C 256.417 580.238,222.065 535.700,219.496 533.115 C 209.951 523.510,194.132 523.140,183.724 532.279 C 173.636 541.136,170.675 553.358,176.083 563.816 C 179.960 571.313,325.780 763.024,332.519 769.483 C 341.695 778.278,353.091 779.707,364.665 773.513 C 367.875 771.795,368.191 772.177,368.997 778.746 C 369.474 782.644,370.236 800.083,370.689 817.500 C 371.642 854.152,375.003 873.497,383.260 889.855 C 392.557 908.272,406.477 919.438,428.760 926.352 C 436.629 928.794,461.560 929.115,678.968 929.575 L 920.435 930.087 927.741 926.550 C 936.314 922.400,943.334 911.879,943.331 903.187 C 943.330 898.485,897.248 737.081,891.953 723.230 C 889.584 717.032,879.330 708.671,872.536 707.397 C 855.674 704.234,840.376 716.109,839.742 732.852 C 839.600 736.625,847.319 765.805,858.918 805.339 C 869.597 841.734,878.333 872.303,878.333 873.269 C 878.333 874.486,848.474 874.895,781.250 874.597 L 684.167 874.167 684.167 749.167 L 684.167 624.167 763.465 623.333 L 842.763 622.500 848.883 617.831 C 856.860 611.745,860.000 605.388,860.000 595.329 C 860.000 586.285,855.894 578.656,847.796 572.653 C 843.218 569.260,840.977 569.144,763.630 568.333 L 684.167 567.500 684.167 439.167 L 684.167 310.833 745.297 310.000 C 804.029 309.199,806.612 309.030,811.130 305.680 C 820.210 298.949,823.699 291.846,822.980 281.558 C 822.181 270.126,817.658 263.251,807.795 258.476 C 800.933 255.154,798.012 255.000,741.974 255.000 L 683.333 255.000 683.333 182.310 C 683.333 112.080,683.218 109.415,679.911 103.532 C 671.624 88.787,652.911 84.425,640.498 94.345 C 628.043 104.297,628.339 102.143,628.336 182.917 L 628.333 255.000 569.946 255.000 C 505.315 255.000,504.653 255.094,495.473 265.549 C 486.582 275.676,486.144 290.162,494.432 300.011 C 502.878 310.049,502.514 310.000,568.251 310.000 L 628.333 310.000 628.333 439.167 L 628.333 568.333 550.417 568.361 C 472.671 568.388,472.485 568.396,465.867 572.145 C 457.995 576.604,451.732 586.770,451.694 595.155 C 451.652 604.441,458.127 615.015,466.600 619.495 L 473.858 623.333 551.095 623.333 L 628.333 623.333 628.333 749.257 L 628.333 875.181 536.250 874.674 C 436.003 874.122,436.614 874.180,432.074 864.707 C 426.071 852.181,426.051 851.042,425.100 467.500 C 424.168 91.549,424.160 90.822,420.748 85.000 C 418.868 81.792,414.360 77.522,410.729 75.511 L 404.129 71.856 274.325 71.345 C 180.608 70.975,143.313 71.356,140.177 72.714 " stroke="none" fill-rule="evenodd" fill="black"></path></svg>