<svg width="1000" height="1000" viewBox="0 0 1000 1000" version="1.1" id="svg5" sodipodi:docname="十.svg" inkscape:version="1.2.1 (9c6d41e410, 2022-07-14)" xmlns:inkscape="http://www.inkscape.org/namespaces/inkscape" xmlns:sodipodi="http://sodipodi.sourceforge.net/DTD/sodipodi-0.dtd" xmlns="http://www.w3.org/2000/svg" xmlns:svg="http://www.w3.org/2000/svg"><path d="M209.132 101.536 C 196.137 104.685,188.333 114.739,188.333 128.333 C 188.333 138.933,192.490 146.500,201.334 151.999 L 207.500 155.833 443.861 156.667 L 680.221 157.500 440.711 362.500 C 308.980 475.250,194.367 573.173,186.017 580.108 C 136.563 621.172,107.848 668.509,101.491 719.451 C 95.170 770.096,117.700 823.134,160.010 857.216 C 178.232 871.894,208.079 886.789,230.833 892.561 C 240.202 894.937,256.988 897.521,269.167 898.460 C 282.864 899.518,399.034 899.955,585.000 899.650 L 879.167 899.167 885.333 895.333 C 893.841 890.042,898.702 881.617,898.803 871.989 C 898.877 864.919,894.029 854.785,848.416 766.667 C 820.658 713.042,796.158 666.369,793.972 662.950 C 785.709 650.027,768.582 646.557,755.791 655.214 C 748.047 660.455,742.654 671.540,743.776 679.907 C 744.286 683.708,760.740 717.334,784.814 763.773 C 806.916 806.409,825.000 841.753,825.000 842.313 C 825.000 842.874,699.066 843.333,545.147 843.333 C 311.320 843.333,263.282 842.947,253.063 840.985 C 190.841 829.038,149.672 779.338,156.617 724.557 C 161.224 688.220,182.481 654.647,221.602 621.922 C 282.916 570.631,776.396 147.342,779.167 143.664 C 781.707 140.291,782.500 136.651,782.500 128.369 C 782.500 116.160,779.151 109.900,769.499 104.059 C 764.288 100.907,757.926 100.827,489.167 100.575 C 337.917 100.433,211.901 100.866,209.132 101.536 " stroke="none" fill-rule="evenodd" fill="black"></path></svg>