<svg width="1000" height="1000" viewBox="0 0 1000 1000" version="1.1" id="svg5" xmlns="http://www.w3.org/2000/svg" xmlns:svg="http://www.w3.org/2000/svg"><path d="M402.465 53.281 C 395.116 54.948,388.906 59.519,384.613 66.422 L 380.833 72.500 380.000 256.989 L 379.167 441.477 238.594 546.035 C 161.279 603.542,96.892 652.317,95.511 654.425 C 86.824 667.682,92.033 687.506,105.935 694.103 C 112.545 697.240,124.378 697.412,130.000 694.454 C 132.292 693.248,188.583 651.762,255.092 602.263 C 321.602 552.763,376.914 511.710,378.009 511.034 C 379.548 510.083,380.000 548.108,380.000 678.340 L 380.000 846.876 357.437 821.094 C 329.670 789.366,323.412 785.874,307.369 793.161 C 299.242 796.851,293.969 803.116,291.608 811.884 C 288.145 824.743,289.731 827.103,341.660 886.402 C 368.233 916.746,391.827 942.787,394.091 944.270 C 399.769 947.991,410.115 949.104,417.222 946.758 C 424.599 944.324,432.588 935.452,434.900 927.129 C 436.080 922.879,436.651 847.142,436.657 694.000 L 436.667 467.166 484.262 431.712 C 510.440 412.212,533.015 394.492,534.429 392.333 C 540.997 382.310,540.119 369.358,532.237 359.992 C 526.405 353.060,519.933 350.000,511.106 350.000 C 502.545 350.000,497.589 353.017,460.833 380.605 L 437.500 398.118 436.667 235.309 L 435.833 72.500 431.999 66.334 C 425.623 56.079,413.587 50.760,402.465 53.281 M772.465 53.281 C 765.116 54.948,758.906 59.519,754.613 66.422 L 750.833 72.500 750.000 256.989 L 749.167 441.477 608.594 546.035 C 531.279 603.542,466.892 652.317,465.511 654.425 C 456.824 667.682,462.033 687.506,475.935 694.103 C 482.545 697.240,494.378 697.412,500.000 694.454 C 502.292 693.248,558.583 651.762,625.092 602.263 C 691.602 552.763,746.914 511.710,748.009 511.034 C 749.548 510.083,750.000 548.108,750.000 678.340 L 750.000 846.876 727.437 821.094 C 699.670 789.366,693.412 785.874,677.369 793.161 C 669.242 796.851,663.969 803.116,661.608 811.884 C 658.145 824.743,659.731 827.103,711.660 886.402 C 738.233 916.746,761.827 942.787,764.091 944.270 C 769.769 947.991,780.115 949.104,787.222 946.758 C 794.599 944.324,802.588 935.452,804.900 927.129 C 806.080 922.879,806.651 847.142,806.657 694.000 L 806.667 467.166 854.262 431.712 C 880.440 412.212,903.015 394.492,904.429 392.333 C 910.997 382.310,910.119 369.358,902.237 359.992 C 896.405 353.060,889.933 350.000,881.106 350.000 C 872.545 350.000,867.589 353.017,830.833 380.605 L 807.500 398.118 806.667 235.309 L 805.833 72.500 801.999 66.334 C 795.623 56.079,783.587 50.760,772.465 53.281 " stroke="none" fill-rule="evenodd" fill="black"></path></svg>