<svg width="1000" height="1000" viewBox="0 0 1000 1000" version="1.1" id="svg5" sodipodi:docname="友.svg" inkscape:version="1.2.1 (9c6d41e410, 2022-07-14)" xmlns:inkscape="http://www.inkscape.org/namespaces/inkscape" xmlns:sodipodi="http://sodipodi.sourceforge.net/DTD/sodipodi-0.dtd" xmlns="http://www.w3.org/2000/svg" xmlns:svg="http://www.w3.org/2000/svg"><path d="M718.859 51.836 C 712.795 53.591,703.776 61.951,701.506 67.922 C 700.661 70.146,699.244 113.335,698.358 163.899 C 697.472 214.463,696.729 256.021,696.707 256.250 C 696.685 256.479,673.768 256.667,645.780 256.667 C 589.920 256.667,587.540 257.020,579.570 266.492 C 570.862 276.841,570.237 289.404,577.917 299.725 C 586.795 311.656,586.780 311.653,642.639 311.660 C 670.215 311.664,693.096 311.985,693.484 312.373 C 695.160 314.049,688.598 413.384,683.182 468.333 C 671.281 589.069,653.954 680.581,629.300 752.897 C 609.863 809.910,590.691 845.076,552.738 893.333 C 540.298 909.150,537.716 915.073,539.134 924.531 C 541.005 937.003,553.974 948.393,566.196 948.297 C 577.101 948.211,583.958 942.816,600.347 921.429 C 630.454 882.142,646.427 855.826,663.314 817.689 C 692.193 752.470,717.534 649.040,730.226 544.583 C 731.312 535.646,732.660 528.333,733.221 528.333 C 733.782 528.333,770.974 619.964,815.870 731.957 C 879.057 889.573,898.639 936.795,902.541 940.958 C 912.730 951.829,930.152 951.848,941.000 941.000 C 947.019 934.981,950.672 924.092,948.961 917.272 C 948.337 914.786,902.119 799.071,846.254 660.126 L 744.681 407.500 746.586 369.167 C 747.634 348.083,748.925 326.549,749.454 321.313 L 750.416 311.793 805.922 311.313 C 858.986 310.854,861.630 310.682,866.028 307.397 C 873.920 301.501,877.175 295.695,877.844 286.319 C 878.684 274.535,873.715 265.628,863.390 260.417 C 856.155 256.765,854.588 256.667,803.586 256.667 L 751.212 256.667 752.237 239.583 C 752.802 230.187,753.751 189.500,754.348 149.167 C 755.328 82.907,755.165 75.196,752.653 69.228 C 748.970 60.477,745.527 56.821,737.500 53.135 C 730.171 49.769,726.812 49.535,718.859 51.836 M207.504 54.292 C 200.743 57.818,196.842 61.531,193.635 67.496 C 191.289 71.859,190.775 85.319,189.624 172.500 C 188.897 227.500,187.747 283.000,187.068 295.833 L 185.833 319.167 131.667 320.000 C 78.850 320.813,77.347 320.928,71.368 324.646 C 53.984 335.456,55.167 362.399,73.435 371.718 C 79.426 374.775,83.430 375.000,131.830 375.000 L 183.793 375.000 182.753 387.083 C 182.180 393.729,181.299 405.917,180.794 414.167 C 172.112 556.005,153.094 680.008,127.249 763.303 C 112.702 810.182,96.416 844.704,69.735 885.212 C 60.454 899.304,52.184 913.259,51.359 916.224 C 47.861 928.784,57.722 944.578,71.351 948.248 C 79.065 950.326,88.029 948.720,94.633 944.079 C 101.578 939.198,133.772 889.000,147.541 861.584 C 181.397 794.174,206.006 697.879,221.634 571.667 C 223.506 556.542,225.495 540.459,226.053 535.927 C 227.024 528.051,227.161 527.867,229.168 531.760 C 230.322 534.000,245.701 570.708,263.342 613.333 C 280.983 655.958,297.171 694.318,299.316 698.577 C 307.643 715.117,327.394 719.254,341.471 707.409 C 347.498 702.337,352.452 690.175,351.147 683.653 C 350.625 681.044,326.058 620.843,296.552 549.872 C 267.046 478.901,241.577 417.083,239.953 412.500 C 237.589 405.826,237.217 401.345,238.084 390.000 L 239.167 375.833 276.967 375.000 C 311.818 374.232,315.125 373.899,319.364 370.730 C 336.403 357.994,336.402 337.005,319.363 324.270 C 315.099 321.083,312.094 320.796,277.970 320.325 L 241.175 319.816 242.212 301.991 C 244.024 270.835,247.161 84.107,246.002 76.379 C 243.269 58.153,222.714 46.361,207.504 54.292 M335.561 167.524 C 327.974 172.072,321.667 182.653,321.667 190.833 C 321.667 198.483,327.941 209.483,334.702 213.687 C 340.832 217.499,340.858 217.500,425.833 218.333 L 510.833 219.167 510.334 229.167 C 509.017 255.551,501.084 369.690,497.418 415.000 C 487.577 536.640,477.846 611.175,462.505 682.404 C 457.067 707.651,444.676 753.823,440.316 765.081 C 438.793 769.014,433.878 770.724,373.948 788.160 C 338.033 798.610,307.085 808.515,304.418 810.414 C 298.819 814.401,293.422 825.265,293.370 832.655 C 293.310 841.160,300.069 851.827,308.267 856.162 C 312.258 858.273,317.547 860.000,320.018 860.000 C 322.490 860.000,352.596 851.806,386.921 841.792 C 421.246 831.777,454.918 822.058,461.748 820.195 C 468.578 818.331,504.387 807.883,541.323 796.978 C 614.991 775.228,615.516 774.988,621.025 760.565 C 623.338 754.506,623.456 752.236,621.769 746.265 C 618.267 733.873,607.670 725.018,596.331 725.006 C 592.938 725.003,570.879 730.628,547.310 737.507 C 523.742 744.386,504.187 749.743,503.855 749.410 C 503.523 749.078,506.224 736.888,509.858 722.320 C 533.877 626.042,547.447 512.801,562.445 283.490 C 564.748 248.284,566.827 219.357,567.066 219.207 C 567.305 219.057,570.644 218.032,574.486 216.930 C 582.892 214.517,592.501 204.128,594.072 195.751 C 596.332 183.707,588.081 169.603,576.142 165.102 C 572.998 163.917,533.681 163.339,456.975 163.349 L 342.500 163.365 335.561 167.524 M373.333 247.015 C 361.467 250.231,353.333 261.585,353.333 274.933 C 353.333 279.570,360.843 379.920,370.021 497.932 C 382.233 654.960,387.413 714.407,389.336 719.612 C 393.087 729.763,401.210 735.473,413.080 736.303 C 420.908 736.850,423.479 736.296,428.294 733.025 C 436.882 727.188,441.667 719.153,441.667 710.565 C 441.667 701.093,408.719 277.627,407.393 270.058 C 405.837 261.176,402.168 255.366,395.370 251.018 C 387.776 246.161,381.014 244.933,373.333 247.015 " stroke="none" fill-rule="evenodd" fill="black"></path></svg>