<svg width="1000" height="1000" viewBox="0 0 1000 1000" version="1.1" id="svg5" sodipodi:docname="反.svg" inkscape:version="1.2.1 (9c6d41e410, 2022-07-14)" xmlns:inkscape="http://www.inkscape.org/namespaces/inkscape" xmlns:sodipodi="http://sodipodi.sourceforge.net/DTD/sodipodi-0.dtd" xmlns="http://www.w3.org/2000/svg" xmlns:svg="http://www.w3.org/2000/svg"><path d="M205.372 130.198 C 200.721 132.500,196.811 136.171,194.122 140.759 L 190.000 147.793 190.000 501.150 L 190.000 854.507 193.750 860.017 C 199.344 868.236,205.484 872.042,214.554 872.914 C 221.900 873.620,225.673 872.397,253.428 860.316 C 340.455 822.436,393.374 794.751,455.833 754.428 C 548.673 694.490,649.053 610.520,763.727 496.867 C 794.004 466.860,807.175 452.677,808.504 448.650 C 815.531 427.357,793.660 406.955,772.451 415.019 C 770.012 415.946,747.276 436.849,721.925 461.470 C 560.660 618.096,455.329 699.307,329.167 764.290 C 302.873 777.833,248.507 803.333,245.926 803.333 C 245.417 803.333,245.000 655.837,245.000 475.563 L 245.000 147.793 240.857 140.723 C 236.306 132.958,225.800 126.666,217.390 126.668 C 214.701 126.669,209.292 128.257,205.372 130.198 " stroke="none" fill-rule="evenodd" fill="#000000"></path></svg>