<svg width="1000" height="1000" viewBox="0 0 1000 1000" version="1.1" id="svg5" sodipodi:docname="受.svg" inkscape:version="1.2.1 (9c6d41e410, 2022-07-14)" xmlns:inkscape="http://www.inkscape.org/namespaces/inkscape" xmlns:sodipodi="http://sodipodi.sourceforge.net/DTD/sodipodi-0.dtd" xmlns="http://www.w3.org/2000/svg" xmlns:svg="http://www.w3.org/2000/svg"><path d="M494.132 66.615 C 486.782 68.281,480.573 72.852,476.279 79.756 C 472.591 85.687,472.487 87.103,471.978 138.750 L 471.455 191.667 300.974 191.667 L 130.493 191.667 124.869 195.456 C 121.777 197.541,117.541 201.777,115.456 204.869 L 111.667 210.493 111.667 350.138 C 111.667 444.556,112.240 491.303,113.436 494.475 C 117.921 506.373,132.039 514.665,143.991 512.423 C 151.206 511.070,161.438 502.622,164.374 495.595 C 166.249 491.107,166.667 467.927,166.667 368.387 L 166.667 246.667 319.167 246.667 L 471.667 246.667 471.667 390.000 L 471.667 533.333 354.810 533.333 C 240.031 533.333,237.846 533.394,231.865 536.755 C 228.516 538.638,224.064 542.676,221.971 545.730 L 218.166 551.283 218.206 732.057 C 218.227 831.482,218.768 914.256,219.406 915.999 C 225.787 933.407,247.836 939.570,262.492 928.042 C 270.583 921.677,273.256 912.989,273.297 892.917 L 273.333 875.000 500.000 875.000 L 726.667 875.000 726.703 892.917 C 726.744 912.989,729.417 921.677,737.508 928.042 C 750.096 937.944,766.658 935.592,777.022 922.433 C 780.639 917.840,780.876 915.852,781.667 883.380 C 782.125 864.563,782.125 781.909,781.667 699.704 C 780.844 552.124,780.790 550.182,777.402 545.537 C 775.515 542.950,770.669 539.146,766.633 537.083 L 759.294 533.333 643.814 533.333 L 528.333 533.333 528.333 390.000 L 528.333 246.667 680.833 246.667 L 833.333 246.667 833.333 368.387 C 833.333 467.927,833.751 491.107,835.626 495.595 C 838.562 502.622,848.794 511.070,856.009 512.423 C 867.961 514.665,882.079 506.373,886.564 494.475 C 887.761 491.301,888.324 444.917,888.306 351.142 L 888.278 212.500 884.549 205.833 C 882.092 201.441,878.285 197.888,873.390 195.417 L 865.960 191.667 697.253 191.667 L 528.545 191.667 528.022 138.750 C 527.510 86.876,527.424 85.712,523.666 79.667 C 517.289 69.412,505.254 64.093,494.132 66.615 M726.667 703.355 L 726.667 818.333 500.000 818.333 L 273.333 818.333 273.333 703.355 L 273.333 588.376 500.000 588.376 L 726.667 588.376 726.667 703.355 " stroke="none" fill-rule="evenodd" fill="#000000"></path></svg>