<svg width="1000" height="1000" viewBox="0 0 1000 1000" version="1.1" id="svg5" sodipodi:docname="口.svg" inkscape:version="1.2.1 (9c6d41e410, 2022-07-14)" xmlns:inkscape="http://www.inkscape.org/namespaces/inkscape" xmlns:sodipodi="http://sodipodi.sourceforge.net/DTD/sodipodi-0.dtd" xmlns="http://www.w3.org/2000/svg" xmlns:svg="http://www.w3.org/2000/svg"><path d="M127.633 133.505 C 119.240 134.870,113.230 139.600,108.750 148.367 L 105.000 155.706 105.040 514.103 C 105.063 723.275,105.711 875.222,106.596 879.038 C 109.629 892.116,120.701 901.667,132.829 901.667 C 141.355 901.667,147.284 898.945,153.884 892.002 C 159.930 885.640,161.578 878.211,161.627 857.083 L 161.667 840.000 500.000 840.000 L 838.333 840.000 838.373 857.083 C 838.422 878.211,840.070 885.640,846.116 892.002 C 852.716 898.945,858.645 901.667,867.171 901.667 C 880.809 901.667,892.298 890.092,894.136 874.499 C 894.698 869.733,894.935 705.708,894.662 510.000 C 894.199 177.646,893.978 153.822,891.310 148.949 C 887.391 141.790,879.309 135.322,872.868 134.188 C 865.588 132.906,135.430 132.237,127.633 133.505 M838.333 486.667 L 838.333 785.000 500.000 785.000 L 161.667 785.000 161.667 486.667 L 161.667 188.333 500.000 188.333 L 838.333 188.333 838.333 486.667 " stroke="none" fill-rule="evenodd" fill="black"></path></svg>