<svg width="1000" height="1000" viewBox="0 0 1000 1000" version="1.1" id="svg5" sodipodi:docname="古.svg" inkscape:version="1.2.1 (9c6d41e410, 2022-07-14)" xmlns:inkscape="http://www.inkscape.org/namespaces/inkscape" xmlns:sodipodi="http://sodipodi.sourceforge.net/DTD/sodipodi-0.dtd" xmlns="http://www.w3.org/2000/svg" xmlns:svg="http://www.w3.org/2000/svg"><path d="M430.833 57.479 C 416.383 64.266,409.881 78.849,415.081 92.808 C 416.043 95.389,428.597 109.313,442.979 123.750 L 469.128 150.000 340.814 150.009 C 252.300 150.016,210.432 150.590,205.833 151.860 C 196.255 154.506,187.188 164.551,185.756 174.103 C 184.844 180.185,185.382 183.132,188.564 189.477 C 193.291 198.903,198.834 203.237,208.570 205.118 C 218.060 206.952,781.940 206.952,791.430 205.118 C 801.166 203.237,806.709 198.903,811.436 189.477 C 814.618 183.132,815.156 180.185,814.244 174.103 C 812.812 164.551,803.745 154.506,794.167 151.860 C 789.584 150.594,749.716 150.016,666.655 150.009 L 545.810 150.000 500.822 104.832 C 476.078 79.990,453.420 58.615,450.470 57.332 C 443.745 54.408,437.269 54.456,430.833 57.479 M204.856 263.260 C 197.637 265.447,192.477 269.651,188.649 276.462 L 185.000 282.954 185.037 429.394 C 185.071 568.600,185.226 576.171,188.176 582.665 C 192.503 592.194,200.116 597.180,211.558 597.980 C 219.215 598.515,221.824 597.948,226.513 594.731 C 236.619 587.797,239.078 582.886,240.000 567.804 L 240.833 554.167 500.000 554.167 L 759.167 554.167 760.000 567.804 C 760.922 582.886,763.381 587.797,773.487 594.731 C 778.176 597.948,780.785 598.515,788.442 597.980 C 799.884 597.180,807.497 592.194,811.824 582.665 C 814.773 576.172,814.929 568.634,814.963 430.770 L 815.000 285.706 811.250 278.367 C 806.670 269.405,800.990 265.062,791.430 263.215 C 782.269 261.445,210.700 261.488,204.856 263.260 M471.667 349.167 L 471.667 380.000 355.833 380.000 L 240.000 380.000 240.000 349.167 L 240.000 318.333 355.833 318.333 L 471.667 318.333 471.667 349.167 M760.000 349.167 L 760.000 380.000 644.167 380.000 L 528.333 380.000 528.333 349.167 L 528.333 318.333 644.167 318.333 L 760.000 318.333 760.000 349.167 M471.667 467.500 L 471.667 498.333 355.833 498.333 L 240.000 498.333 240.000 467.500 L 240.000 436.667 355.833 436.667 L 471.667 436.667 471.667 467.500 M760.000 467.500 L 760.000 498.333 644.167 498.333 L 528.333 498.333 528.333 467.500 L 528.333 436.667 644.167 436.667 L 760.000 436.667 760.000 467.500 M269.764 576.929 C 266.426 578.865,262.114 583.262,260.181 586.701 C 256.877 592.580,256.667 595.354,256.667 633.077 L 256.667 673.200 164.583 673.684 L 72.500 674.167 65.613 678.113 C 47.805 688.318,46.873 713.470,63.887 724.732 L 70.586 729.167 163.719 729.637 L 256.852 730.107 256.549 818.487 L 256.245 906.866 261.158 913.016 C 271.526 925.997,252.940 924.994,483.333 924.998 L 689.167 925.002 696.297 933.281 C 707.964 946.829,722.279 948.547,734.451 937.860 C 745.308 928.327,745.000 931.596,745.000 825.940 L 745.000 730.107 838.180 729.637 L 931.360 729.167 937.763 724.048 C 950.907 713.541,953.579 698.026,944.332 685.902 C 935.017 673.689,939.696 674.223,837.164 673.672 L 745.162 673.176 744.664 631.706 C 744.111 585.567,744.103 585.536,731.684 577.083 C 720.284 569.325,703.531 573.115,694.320 585.535 C 691.037 589.962,690.804 592.659,690.335 631.785 L 689.837 673.333 500.859 673.333 L 311.881 673.333 311.357 632.790 L 310.833 592.246 306.399 585.550 C 298.467 573.573,282.167 569.737,269.764 576.929 M690.000 800.000 L 690.000 870.000 500.833 870.000 L 311.667 870.000 311.667 800.000 L 311.667 730.000 500.833 730.000 L 690.000 730.000 690.000 800.000 " stroke="none" fill-rule="evenodd" fill="#000000"></path></svg>