<svg width="1000" height="1000" viewBox="0 0 1000 1000" version="1.1" id="svg5" sodipodi:docname="叫.svg" inkscape:version="1.2.1 (9c6d41e410, 2022-07-14)" xmlns:inkscape="http://www.inkscape.org/namespaces/inkscape" xmlns:sodipodi="http://sodipodi.sourceforge.net/DTD/sodipodi-0.dtd" xmlns="http://www.w3.org/2000/svg" xmlns:svg="http://www.w3.org/2000/svg"><path d="M494.132 51.615 C 486.782 53.281,480.573 57.852,476.279 64.756 C 472.599 70.674,472.486 72.175,471.975 122.042 L 471.450 173.251 316.142 173.709 L 160.833 174.167 154.667 178.001 C 136.660 189.198,136.660 214.135,154.667 225.333 L 160.833 229.167 316.250 229.625 L 471.667 230.083 471.667 305.041 L 471.667 380.000 274.583 380.037 C 84.576 380.072,77.250 380.187,70.527 383.239 C 66.248 385.182,61.823 389.020,59.074 393.174 C 55.194 399.037,54.689 401.238,55.296 409.630 C 56.101 420.763,59.526 426.417,68.586 431.568 L 74.673 435.029 500.000 435.029 L 925.327 435.029 931.634 431.485 C 945.232 423.842,949.356 404.847,940.170 392.166 C 930.749 379.161,945.598 380.000,724.966 380.000 L 528.333 380.000 528.333 305.041 L 528.333 230.083 683.750 229.625 L 839.167 229.167 845.333 225.333 C 863.340 214.135,863.340 189.198,845.333 178.001 L 839.167 174.167 683.858 173.709 L 528.550 173.251 528.025 122.042 C 527.511 71.954,527.416 70.698,523.666 64.667 C 517.289 54.412,505.254 49.093,494.132 51.615 M170.668 521.509 C 166.911 523.215,162.036 527.136,159.835 530.222 L 155.833 535.833 155.833 733.628 C 155.833 930.799,155.844 931.437,159.270 936.025 C 164.189 942.614,170.165 946.679,177.294 948.287 C 193.204 951.875,210.000 938.231,210.000 921.720 L 210.000 916.667 500.000 916.667 L 790.000 916.667 790.000 921.720 C 790.000 938.231,806.796 951.875,822.706 948.287 C 829.835 946.679,835.811 942.614,840.730 936.025 C 844.148 931.448,844.169 930.374,844.661 737.795 C 844.999 605.081,844.599 542.249,843.390 538.071 C 841.244 530.656,832.313 522.465,823.796 520.100 C 819.502 518.908,715.763 518.361,497.500 518.379 C 189.025 518.406,177.254 518.518,170.668 521.509 M790.000 632.500 L 790.000 690.000 500.000 690.000 L 210.000 690.000 210.000 632.500 L 210.000 575.000 500.000 575.000 L 790.000 575.000 790.000 632.500 M789.605 803.750 L 790.043 861.667 500.022 861.667 L 210.000 861.667 210.000 804.444 C 210.000 772.972,210.502 746.720,211.116 746.106 C 211.729 745.493,342.042 745.180,500.699 745.412 L 789.167 745.833 789.605 803.750 " stroke="none" fill-rule="evenodd" fill="#000000"></path></svg>