<svg width="1000" height="1000" viewBox="0 0 1000 1000" version="1.1" id="svg5" sodipodi:docname="同.svg" inkscape:version="1.2.1 (9c6d41e410, 2022-07-14)" xmlns:inkscape="http://www.inkscape.org/namespaces/inkscape" xmlns:sodipodi="http://sodipodi.sourceforge.net/DTD/sodipodi-0.dtd" xmlns="http://www.w3.org/2000/svg" xmlns:svg="http://www.w3.org/2000/svg"><path d="M486.619 51.822 C 483.384 53.698,478.884 57.937,476.619 61.242 L 472.500 67.250 471.995 133.594 L 471.491 199.938 346.039 200.386 L 220.587 200.833 214.436 205.000 C 211.052 207.292,206.795 212.216,204.975 215.943 C 201.775 222.497,201.667 226.385,201.667 334.746 C 201.667 454.091,201.619 453.326,209.643 462.193 C 217.184 470.526,233.481 473.055,243.083 467.383 C 252.855 461.610,255.695 455.700,256.641 439.167 L 257.500 424.167 364.583 423.738 L 471.667 423.309 471.667 460.796 L 471.667 498.284 312.917 498.725 L 154.167 499.167 148.725 503.048 C 137.567 511.006,138.101 504.106,138.158 639.665 L 138.211 762.390 142.912 769.079 C 155.241 786.622,179.755 784.506,189.583 765.050 C 192.516 759.245,193.333 754.797,193.333 744.647 L 193.333 731.667 332.500 731.667 L 471.667 731.667 471.676 825.417 C 471.682 884.763,472.317 921.441,473.407 925.365 C 476.885 937.891,487.841 946.667,500.000 946.667 C 512.159 946.667,523.115 937.891,526.593 925.365 C 527.683 921.441,528.318 884.763,528.324 825.417 L 528.333 731.667 667.500 731.667 L 806.667 731.667 806.667 744.647 C 806.667 765.180,815.302 778.030,831.091 780.992 C 839.283 782.528,850.679 777.737,856.279 770.403 C 860.750 764.546,860.849 763.903,861.667 735.135 C 862.125 719.019,862.125 662.950,861.667 610.536 C 860.854 517.554,860.750 515.127,857.397 510.639 C 855.507 508.109,851.890 504.493,849.359 502.603 C 844.796 499.196,843.393 499.163,686.545 498.725 L 528.333 498.284 528.333 460.796 L 528.333 423.309 635.417 423.738 L 742.500 424.167 743.359 439.167 C 744.305 455.700,747.145 461.610,756.917 467.383 C 766.519 473.055,782.816 470.526,790.357 462.193 C 798.378 453.330,798.333 454.039,798.333 335.407 L 798.333 224.040 794.583 216.701 C 790.166 208.056,784.699 203.682,775.704 201.596 C 772.108 200.762,715.035 200.062,648.838 200.040 L 528.510 200.000 528.005 133.625 L 527.500 67.250 523.362 61.214 C 514.925 48.907,498.764 44.776,486.619 51.822 M471.667 312.512 L 471.667 368.358 364.583 367.929 L 257.500 367.500 257.061 312.083 L 256.622 256.667 364.144 256.667 L 471.667 256.667 471.667 312.512 M742.939 312.083 L 742.500 367.500 635.417 367.929 L 528.333 368.358 528.333 312.512 L 528.333 256.667 635.856 256.667 L 743.378 256.667 742.939 312.083 M471.667 614.167 L 471.667 675.000 332.500 675.000 L 193.333 675.000 193.333 614.167 L 193.333 553.333 332.500 553.333 L 471.667 553.333 471.667 614.167 M806.667 614.167 L 806.667 675.000 667.500 675.000 L 528.333 675.000 528.333 614.167 L 528.333 553.333 667.500 553.333 L 806.667 553.333 806.667 614.167 " stroke="none" fill-rule="evenodd" fill="#000000"></path></svg>