<svg width="1000" height="1000" viewBox="0 0 1000 1000" version="1.1" id="svg5" xmlns="http://www.w3.org/2000/svg" xmlns:svg="http://www.w3.org/2000/svg"><path d="M329.167 51.589 C 321.437 53.391,317.209 56.178,312.151 62.807 L 307.500 68.904 307.033 141.057 L 306.565 213.211 248.402 213.689 C 192.651 214.147,190.048 214.309,185.639 217.603 C 171.148 228.429,168.616 245.491,179.570 258.508 C 187.620 268.076,189.486 268.333,250.780 268.333 L 306.667 268.333 306.667 427.292 C 306.667 514.719,306.203 588.570,305.636 591.405 L 304.605 596.560 187.719 597.030 C 59.179 597.547,65.178 597.058,56.813 607.692 C 48.551 618.196,48.551 631.804,56.813 642.308 C 65.168 652.929,59.429 652.453,185.417 652.971 C 294.287 653.419,300.000 653.592,300.000 656.430 C 300.000 668.118,288.189 720.622,279.701 746.667 C 261.017 803.996,236.430 845.192,194.375 889.637 C 173.497 911.701,171.186 916.259,174.784 928.268 C 178.734 941.455,188.388 948.718,201.963 948.718 C 211.679 948.718,216.610 945.404,235.592 926.117 C 295.690 865.053,336.244 780.074,351.650 682.924 C 353.576 670.774,355.508 659.146,355.941 657.083 L 356.730 653.333 490.865 653.333 L 625.000 653.333 625.000 789.220 C 625.000 907.736,625.328 925.891,627.564 931.243 C 632.552 943.180,640.819 948.718,653.655 948.718 C 663.404 948.718,671.529 943.786,676.578 934.802 C 679.953 928.797,680.000 926.815,680.000 791.074 L 680.000 653.435 804.583 652.967 C 941.657 652.453,934.791 652.981,943.187 642.308 C 951.449 631.804,951.449 618.196,943.187 607.692 C 934.791 597.019,941.658 597.547,804.575 597.033 L 679.984 596.565 680.409 432.866 L 680.833 269.167 752.500 268.271 C 791.917 267.778,824.352 267.216,824.579 267.021 C 824.805 266.826,827.985 263.961,831.646 260.654 C 842.718 250.651,844.230 236.950,835.540 225.382 C 826.821 213.777,830.143 214.255,751.743 213.333 L 680.833 212.500 680.000 140.833 C 679.073 61.089,679.413 63.397,667.375 55.148 C 657.614 48.460,641.060 50.542,632.976 59.474 C 625.279 67.979,625.000 70.938,625.000 144.123 L 625.000 213.354 493.750 212.927 L 362.500 212.500 361.667 140.833 C 361.087 90.957,360.246 68.153,358.903 65.833 C 352.866 55.408,339.747 49.123,329.167 51.589 M625.000 432.500 L 625.000 596.667 493.333 596.667 L 361.667 596.667 361.667 433.611 C 361.667 343.931,362.167 270.056,362.778 269.444 C 363.389 268.833,422.639 268.333,494.444 268.333 L 625.000 268.333 625.000 432.500 " stroke="none" fill-rule="evenodd" fill="#000000"></path></svg>