<svg width="1000" height="1000" viewBox="0 0 1000 1000" version="1.1" id="svg5" sodipodi:docname="咍.svg" inkscape:version="1.2.1 (9c6d41e410, 2022-07-14)" xmlns:inkscape="http://www.inkscape.org/namespaces/inkscape" xmlns:sodipodi="http://sodipodi.sourceforge.net/DTD/sodipodi-0.dtd" xmlns="http://www.w3.org/2000/svg" xmlns:svg="http://www.w3.org/2000/svg"><path d="M410.658 51.577 C 404.628 53.018,398.641 57.227,394.072 63.239 C 391.634 66.446,390.833 70.178,390.833 78.333 C 390.833 90.436,393.267 95.073,403.208 101.908 C 408.915 105.833,408.923 105.833,475.776 106.667 L 542.637 107.500 538.892 143.333 C 516.740 355.298,485.632 527.837,445.680 660.313 C 420.304 744.461,393.618 812.337,356.636 886.801 C 342.840 914.579,341.489 918.134,342.434 924.167 C 345.460 943.469,365.032 954.011,382.476 945.733 C 390.637 941.860,392.797 938.385,413.267 896.202 C 487.305 743.627,535.522 573.333,569.100 345.833 C 571.400 330.250,573.702 315.063,574.216 312.083 L 575.151 306.667 638.409 306.667 L 701.667 306.667 701.684 539.583 C 701.703 797.232,702.113 809.618,711.941 849.167 C 726.106 906.167,756.894 936.460,810.488 946.126 C 822.487 948.290,837.099 948.923,877.500 949.030 C 928.633 949.165,929.230 949.127,935.333 945.333 C 943.434 940.295,948.539 931.789,948.778 922.932 C 948.919 917.693,940.773 892.250,917.690 825.833 C 900.486 776.333,884.660 733.138,882.521 729.844 C 869.123 709.214,836.079 717.996,833.793 742.793 C 833.143 749.849,836.029 759.378,857.359 820.616 C 870.728 858.996,881.667 891.058,881.667 891.866 C 881.667 892.673,869.635 893.333,854.930 893.333 C 804.197 893.333,785.868 885.668,773.444 859.253 C 767.862 847.384,764.211 833.293,760.350 808.710 C 757.811 792.547,757.527 765.994,757.386 531.667 C 757.217 251.315,757.730 267.670,748.860 259.643 C 740.274 251.873,737.910 251.667,657.522 251.667 L 581.603 251.667 582.450 247.917 C 583.578 242.920,598.333 112.314,598.333 107.322 C 598.333 106.962,662.271 106.662,740.417 106.657 C 833.011 106.651,884.659 106.048,888.698 104.927 C 901.224 101.448,910.000 90.492,910.000 78.333 C 910.000 66.175,901.224 55.219,888.698 51.740 C 881.478 49.735,419.030 49.578,410.658 51.577 M66.680 132.051 C 47.361 141.811,44.970 166.046,62.102 178.457 L 68.833 183.333 120.985 183.333 C 149.668 183.333,173.434 183.896,173.797 184.583 C 175.385 187.589,162.211 326.035,155.836 373.333 C 147.399 435.937,144.190 458.059,139.038 489.167 C 120.080 603.613,94.903 707.227,62.263 805.131 C 50.470 840.506,49.829 843.174,51.569 849.638 C 57.719 872.477,86.731 878.634,100.051 859.928 C 107.055 850.092,138.590 750.195,153.956 689.167 C 172.387 615.966,190.838 522.167,201.658 446.667 C 203.563 433.375,205.484 420.813,205.926 418.750 L 206.730 415.000 263.365 415.000 L 320.000 415.000 319.995 432.917 C 319.985 474.446,314.241 566.107,308.167 621.667 C 303.503 664.333,291.813 739.488,288.627 747.288 C 287.680 749.605,283.113 740.221,270.910 710.890 C 261.867 689.154,252.894 668.999,250.970 666.102 C 246.119 658.793,234.225 652.910,226.297 653.898 C 212.463 655.620,201.667 667.702,201.667 681.458 C 201.667 690.237,269.752 853.563,276.355 860.622 C 285.255 870.138,297.102 872.396,308.259 866.704 C 318.199 861.634,321.130 855.904,327.597 828.906 C 353.962 718.839,367.474 619.912,373.206 495.000 C 376.533 422.500,377.160 385.712,375.173 379.691 C 372.962 372.991,364.552 364.311,357.808 361.769 C 354.772 360.624,328.423 360.000,283.123 360.000 L 213.129 360.000 214.078 352.917 C 217.582 326.771,230.000 195.058,230.000 184.047 C 230.000 183.654,265.662 183.333,309.249 183.333 C 396.958 183.333,394.095 183.667,402.665 172.431 C 411.913 160.307,409.241 144.791,396.096 134.285 L 389.692 129.167 231.929 128.718 L 74.167 128.269 66.680 132.051 " stroke="none" fill-rule="evenodd" fill="black"></path></svg>