<svg width="1000" height="1000" viewBox="0 0 1000 1000" version="1.1" id="svg5" sodipodi:docname="哇.svg" inkscape:version="1.2.2 (732a01da63, 2022-12-09)" xmlns:inkscape="http://www.inkscape.org/namespaces/inkscape" xmlns:sodipodi="http://sodipodi.sourceforge.net/DTD/sodipodi-0.dtd" xmlns="http://www.w3.org/2000/svg" xmlns:svg="http://www.w3.org/2000/svg"><path d="M706.092 54.098 C 699.374 56.493,692.692 61.868,689.430 67.500 C 688.016 69.942,687.277 117.577,686.667 245.712 L 685.833 420.590 577.500 501.148 C 517.917 545.454,467.768 583.604,466.058 585.925 C 464.348 588.246,462.315 592.925,461.540 596.323 C 457.295 614.920,476.319 633.402,494.583 628.426 C 498.610 627.329,533.436 602.430,592.500 558.421 C 642.917 520.855,684.729 490.092,685.417 490.060 C 686.104 490.027,686.667 569.938,686.667 667.639 C 686.667 775.319,686.062 845.059,685.130 844.722 C 684.285 844.417,677.083 836.667,669.125 827.500 C 661.167 818.333,650.801 806.876,646.091 802.039 C 632.638 788.225,619.285 786.542,607.216 797.140 C 596.849 806.242,593.846 819.014,599.583 829.601 C 601.188 832.561,623.732 859.268,649.683 888.950 C 701.102 947.763,703.149 949.539,717.626 947.907 C 725.940 946.970,731.899 943.389,737.397 936.025 C 740.822 931.439,740.836 930.601,741.667 688.927 C 742.399 475.756,742.802 446.250,745.000 444.924 C 754.810 439.009,901.213 328.272,903.721 324.871 C 918.135 305.321,900.118 277.834,875.872 282.383 C 871.841 283.139,850.659 297.928,806.289 330.963 L 742.500 378.457 741.667 224.645 C 741.032 107.436,740.347 69.984,738.788 67.263 C 735.559 61.628,727.124 55.284,720.365 53.407 C 712.925 51.341,713.966 51.290,706.092 54.098 M72.465 168.199 C 48.282 174.078,43.433 205.462,64.667 218.666 C 70.812 222.487,71.079 222.502,141.340 223.001 L 211.846 223.501 210.941 230.501 C 210.443 234.350,209.244 245.000,208.277 254.167 C 203.875 295.875,193.553 369.107,187.488 401.667 C 186.207 408.542,183.167 425.042,180.731 438.333 C 156.503 570.558,115.741 701.596,65.059 810.181 C 54.709 832.357,51.667 840.535,51.667 846.187 C 51.667 869.457,78.583 881.589,96.096 866.212 C 102.082 860.957,106.100 853.344,125.323 810.833 C 169.030 714.179,210.835 577.886,232.679 460.833 C 234.047 453.500,235.555 446.188,236.029 444.583 C 236.835 441.856,242.265 441.667,319.503 441.667 L 402.115 441.667 400.985 466.250 C 395.898 576.861,386.388 650.299,366.920 729.294 C 356.686 770.818,354.945 776.126,352.607 772.929 C 351.522 771.444,338.304 748.710,323.234 722.409 C 292.846 669.375,290.462 666.493,276.130 665.474 C 256.015 664.044,241.264 683.921,248.921 702.137 C 254.348 715.048,340.678 862.857,344.703 866.129 C 357.176 876.269,376.514 873.028,384.798 859.411 C 388.818 852.803,404.319 803.699,415.129 763.333 C 439.833 671.080,451.731 583.272,456.650 456.896 C 457.782 427.833,457.803 410.885,456.713 406.837 C 455.067 400.724,447.405 392.061,440.526 388.533 C 437.965 387.220,408.698 386.667,341.776 386.667 C 289.466 386.667,246.667 386.230,246.667 385.697 C 246.667 385.163,249.621 363.976,253.231 338.613 C 256.841 313.251,261.482 276.964,263.544 257.975 L 267.293 223.449 373.230 222.975 L 479.167 222.500 485.333 218.666 C 503.340 207.469,503.340 182.531,485.333 171.334 L 479.167 167.500 278.333 167.237 C 167.875 167.093,75.234 167.526,72.465 168.199 " stroke="none" fill-rule="evenodd" fill="black"></path></svg>