<svg width="1000" height="1000" viewBox="0 0 1000 1000" version="1.1" id="svg5" sodipodi:docname="唯.svg" inkscape:version="1.2.1 (9c6d41e410, 2022-07-14)" xmlns:inkscape="http://www.inkscape.org/namespaces/inkscape" xmlns:sodipodi="http://sodipodi.sourceforge.net/DTD/sodipodi-0.dtd" xmlns="http://www.w3.org/2000/svg" xmlns:svg="http://www.w3.org/2000/svg"><path d="M209.132 101.536 C 196.137 104.685,188.333 114.739,188.333 128.333 C 188.333 138.933,192.490 146.500,201.334 151.999 L 207.500 155.833 443.859 156.667 L 680.218 157.500 532.274 284.167 C 450.905 353.833,383.352 411.077,382.157 411.374 C 380.961 411.671,349.424 392.092,312.075 367.865 C 274.725 343.638,241.766 322.582,238.833 321.074 C 232.999 318.076,222.446 317.486,216.321 319.815 C 210.038 322.203,202.128 331.445,200.342 338.484 C 198.391 346.168,200.106 355.448,204.584 361.446 C 206.310 363.758,236.724 384.441,272.170 407.408 C 307.616 430.375,336.629 449.670,336.642 450.285 C 336.665 451.311,217.125 554.295,185.515 580.481 C 167.948 595.033,146.080 618.296,135.281 633.917 C 109.153 671.713,96.777 714.792,101.353 752.023 C 108.187 807.633,140.923 852.234,194.167 878.476 C 218.773 890.603,239.735 896.189,269.167 898.460 C 282.864 899.518,399.034 899.955,585.000 899.650 L 879.167 899.167 885.333 895.333 C 893.841 890.042,898.702 881.617,898.803 871.989 C 898.877 864.919,894.029 854.785,848.416 766.667 C 820.658 713.042,796.158 666.369,793.972 662.950 C 785.709 650.027,768.582 646.557,755.791 655.214 C 748.047 660.455,742.654 671.540,743.776 679.907 C 744.286 683.708,760.740 717.334,784.814 763.773 C 806.916 806.409,825.000 841.753,825.000 842.313 C 825.000 842.874,699.066 843.333,545.147 843.333 C 311.320 843.333,263.282 842.947,253.063 840.985 C 190.841 829.038,149.672 779.338,156.617 724.557 C 161.226 688.206,182.518 654.587,221.602 621.951 C 232.179 613.119,272.333 578.951,310.833 546.023 C 349.333 513.095,382.054 485.111,383.545 483.837 C 385.939 481.792,397.374 488.732,481.045 543.009 C 533.179 576.828,578.234 605.736,581.167 607.249 C 593.194 613.452,609.429 607.800,616.162 595.067 C 620.914 586.081,621.007 579.800,616.527 570.546 C 612.603 562.439,617.863 566.080,501.287 490.765 C 463.037 466.052,431.912 444.923,432.120 443.811 C 432.329 442.699,510.125 375.363,605.000 294.175 C 703.763 209.660,778.790 144.269,780.518 141.197 C 782.703 137.315,783.372 133.294,782.940 126.640 C 782.267 116.271,778.094 109.260,769.499 104.059 C 764.288 100.907,757.926 100.827,489.167 100.575 C 337.917 100.433,211.901 100.866,209.132 101.536 " stroke="none" fill-rule="evenodd" fill="black"></path></svg>