<svg width="1000" height="1000" viewBox="0 0 1000 1000" version="1.1" id="svg5" xmlns="http://www.w3.org/2000/svg" xmlns:svg="http://www.w3.org/2000/svg"><path d="M400.614 45.147 C 393.591 47.183,383.799 58.324,382.379 65.895 C 380.103 78.026,383.406 83.363,413.035 115.424 C 428.324 131.968,448.488 153.828,457.843 164.002 L 474.852 182.500 329.509 183.333 L 184.167 184.167 177.500 188.029 C 167.828 193.634,164.446 199.081,163.629 210.370 C 163.026 218.708,163.536 220.976,167.290 226.649 C 176.147 240.032,164.855 239.111,326.260 239.619 L 470.020 240.072 469.593 374.619 L 469.167 509.167 395.338 509.167 L 321.509 509.167 286.671 420.833 C 254.851 340.152,251.299 332.033,245.673 327.113 C 234.531 317.369,220.171 317.770,209.826 328.115 C 202.493 335.448,199.106 345.780,201.413 353.776 C 202.268 356.741,215.894 391.792,231.693 431.667 C 247.493 471.542,260.787 505.479,261.237 507.083 C 262.006 509.825,258.204 510.000,197.957 510.000 C 134.261 510.000,133.812 510.024,126.600 513.838 C 118.127 518.319,111.652 528.893,111.694 538.179 C 111.732 546.563,117.995 556.730,125.867 561.189 L 132.500 564.945 300.417 564.973 C 400.433 564.989,468.333 565.615,468.333 566.520 C 468.333 571.174,462.992 594.412,459.130 606.559 C 428.432 703.113,330.176 804.963,217.148 857.393 C 169.892 879.314,136.614 888.586,93.552 891.833 C 67.812 893.773,61.646 895.917,55.618 905.027 C 49.754 913.888,48.969 921.355,52.955 930.366 C 60.052 946.410,71.554 950.136,103.876 946.861 C 205.562 936.558,314.091 880.619,401.742 793.333 C 429.384 765.806,447.907 743.322,467.650 713.333 C 480.611 693.646,498.567 660.000,503.450 646.250 C 504.671 642.813,506.456 640.004,507.418 640.008 C 508.380 640.013,599.167 709.029,709.167 793.379 C 829.170 885.399,911.526 947.456,915.066 948.529 C 927.949 952.434,944.158 942.925,948.325 929.018 C 950.734 920.977,948.620 911.434,942.937 904.697 C 940.863 902.239,846.917 829.602,734.167 743.281 C 621.417 656.960,527.543 584.721,525.558 582.750 C 522.560 579.773,522.142 578.039,523.086 572.500 L 524.223 565.833 694.195 565.000 C 824.178 564.363,865.007 563.685,867.737 562.121 C 878.148 556.155,884.519 541.935,881.569 531.249 C 879.717 524.541,873.363 516.103,867.737 512.879 C 865.156 511.400,846.069 510.603,798.828 510.000 L 733.490 509.167 742.663 495.833 C 762.560 466.916,776.544 431.840,790.876 374.901 C 799.362 341.192,800.192 333.429,796.151 325.614 C 785.820 305.636,757.709 305.154,747.628 324.782 C 746.390 327.194,741.929 343.120,737.717 360.173 C 720.426 430.166,702.469 466.208,668.674 498.750 L 656.991 510.000 590.995 510.000 L 525.000 510.000 525.000 375.000 L 525.000 240.000 665.417 239.991 C 755.201 239.985,808.028 239.372,811.919 238.291 C 819.627 236.150,829.451 225.455,830.925 217.599 C 833.278 205.055,827.576 193.333,816.051 187.023 C 811.288 184.415,799.473 184.094,680.343 183.333 L 549.854 182.500 489.012 116.667 C 449.579 73.999,425.760 49.514,421.323 47.083 C 414.098 43.127,409.173 42.666,400.614 45.147 " stroke="none" fill-rule="evenodd" fill="#000000"></path></svg>