<svg width="1000" height="1000" viewBox="0 0 1000 1000" version="1.1" id="svg5" inkscape:version="1.2.1 (9c6d41e410, 2022-07-14)" sodipodi:docname="噫.svg" xmlns:inkscape="http://www.inkscape.org/namespaces/inkscape" xmlns:sodipodi="http://sodipodi.sourceforge.net/DTD/sodipodi-0.dtd" xmlns="http://www.w3.org/2000/svg" xmlns:svg="http://www.w3.org/2000/svg"><path d="M261.871 50.142 C 255.320 51.527,249.119 55.814,244.270 62.308 C 240.857 66.879,240.830 68.096,240.394 242.622 L 239.955 418.333 221.644 418.333 C 208.108 418.333,203.333 417.790,203.331 416.250 C 203.326 410.769,173.060 205.177,171.599 200.692 C 169.848 195.320,163.409 188.397,157.193 185.204 C 155.191 184.175,149.864 183.333,145.356 183.333 C 134.865 183.333,127.235 188.262,121.763 198.573 L 117.694 206.243 132.311 309.371 C 140.351 366.092,147.295 413.813,147.743 415.417 C 148.491 418.094,146.646 418.333,125.221 418.333 C 112.385 418.333,99.772 419.131,97.192 420.106 C 86.847 424.015,78.333 436.011,78.333 446.680 C 78.333 453.837,83.916 464.000,90.379 468.610 L 95.833 472.500 167.083 472.968 L 238.333 473.436 238.284 487.968 C 238.181 518.415,231.056 570.156,221.680 608.551 C 195.948 713.930,140.903 816.814,71.536 889.184 C 52.953 908.571,51.314 911.182,51.156 921.636 C 50.928 936.753,62.936 948.718,78.333 948.718 C 88.729 948.718,94.300 945.287,109.250 929.679 C 154.185 882.766,192.195 827.445,224.114 762.500 C 250.718 708.370,267.302 660.608,279.942 601.716 L 284.403 580.932 344.821 651.716 C 378.051 690.647,407.528 724.137,410.326 726.138 C 425.501 736.991,446.227 728.813,451.950 709.713 C 453.638 704.077,453.555 701.704,451.463 695.888 C 449.680 690.929,426.449 662.544,372.386 599.268 C 330.282 549.989,295.227 508.607,294.485 507.307 C 293.743 506.007,293.654 497.896,294.286 489.281 L 295.436 473.618 365.055 473.486 C 403.346 473.413,436.061 472.852,437.754 472.239 C 447.960 468.544,456.667 456.778,456.667 446.680 C 456.667 436.011,448.153 424.015,437.808 420.106 C 435.228 419.131,422.203 418.333,408.864 418.333 L 384.611 418.333 385.702 414.583 C 400.748 362.851,407.339 324.510,414.995 244.167 C 420.178 189.781,419.658 184.994,407.564 175.769 C 396.110 167.033,381.199 168.746,371.065 179.963 C 364.373 187.370,364.664 185.885,359.972 236.667 C 352.652 315.903,345.236 359.591,332.814 396.667 L 325.833 417.500 310.439 417.979 L 295.045 418.458 294.606 242.684 C 294.170 68.096,294.143 66.879,290.730 62.308 C 283.282 52.333,272.668 47.858,261.871 50.142 M412.465 51.536 C 399.469 54.686,391.667 64.739,391.667 78.333 C 391.667 88.933,395.824 96.500,404.667 101.999 L 410.833 105.833 503.750 106.316 L 596.667 106.799 596.667 111.883 C 596.667 118.896,589.090 187.453,584.073 225.833 C 550.247 484.612,490.062 705.864,403.565 889.415 C 390.336 917.488,389.104 924.153,395.157 934.923 C 400.960 945.248,414.309 951.212,425.107 948.304 C 436.006 945.370,439.979 940.547,451.798 915.904 C 520.194 773.302,576.269 593.715,612.106 402.500 L 614.292 390.833 727.146 390.405 L 840.000 389.977 839.997 399.572 C 839.994 413.136,837.017 474.501,834.923 504.167 C 827.367 611.227,814.204 698.695,793.162 781.667 C 784.014 817.737,774.729 850.011,773.519 849.943 C 772.959 849.911,754.949 818.794,733.499 780.793 C 712.048 742.793,692.775 709.165,690.668 706.066 C 686.485 699.910,676.440 695.000,668.029 695.000 C 660.214 695.000,648.888 702.379,644.997 710.006 C 640.708 718.413,640.774 726.695,645.202 735.483 C 653.609 752.171,757.529 934.542,760.683 938.143 C 769.628 948.355,784.349 950.372,796.302 943.025 C 803.623 938.525,806.494 932.375,817.226 898.207 C 844.394 811.709,863.026 733.196,874.151 658.333 C 885.909 579.213,894.226 472.531,895.403 385.744 L 895.833 353.988 891.399 347.254 C 882.889 334.333,890.576 335.000,750.165 335.000 C 629.653 335.000,625.000 334.886,625.000 331.928 C 625.000 330.238,627.224 314.288,629.942 296.484 C 636.048 256.495,645.516 181.714,649.122 145.000 C 650.607 129.875,652.192 115.083,652.645 112.129 L 653.467 106.759 791.317 106.296 L 929.167 105.833 935.333 101.999 C 944.031 96.590,948.718 88.304,948.718 78.333 C 948.718 68.362,944.031 60.076,935.333 54.667 L 929.167 50.833 673.333 50.574 C 532.625 50.432,415.234 50.864,412.465 51.536 " stroke="none" fill-rule="evenodd" fill="#000000"></path></svg>