<svg width="1000" height="1000" viewBox="0 0 1000 1000" version="1.1" id="svg5" xmlns="http://www.w3.org/2000/svg" xmlns:svg="http://www.w3.org/2000/svg"><path d="M793.981 109.841 C 787.493 113.798,783.412 119.507,777.094 133.469 C 758.213 175.193,709.644 258.821,667.794 321.667 C 626.536 383.622,539.141 499.508,534.835 497.969 C 534.113 497.711,485.367 454.000,426.510 400.833 C 367.654 347.667,316.498 302.104,312.832 299.583 C 300.768 291.290,283.694 294.489,275.721 306.538 C 269.958 315.245,269.052 322.036,272.459 330.959 C 275.018 337.659,288.014 349.948,386.424 438.716 C 447.516 493.823,497.729 539.836,498.009 540.968 C 499.185 545.717,419.080 631.614,372.037 676.049 C 287.439 755.956,215.043 810.377,150.012 842.949 C 133.047 851.447,117.506 860.269,115.477 862.556 C 110.383 868.295,107.652 878.343,109.095 886.035 C 110.886 895.584,121.991 906.011,131.963 907.507 C 138.747 908.524,141.576 907.834,155.307 901.812 C 213.516 876.283,282.841 828.618,362.500 759.354 C 395.294 730.839,486.092 640.126,517.371 604.628 C 530.071 590.215,541.027 578.771,541.717 579.198 C 542.408 579.625,591.241 623.565,650.236 676.842 C 709.231 730.120,759.750 775.123,762.500 776.849 C 768.611 780.685,781.543 781.011,788.330 777.502 C 803.335 769.743,807.761 749.165,797.140 736.543 C 794.724 733.671,744.104 687.443,684.652 633.814 C 611.784 568.083,577.030 535.687,578.009 534.403 C 578.807 533.357,587.313 522.750,596.911 510.833 C 686.063 400.142,763.512 282.179,818.604 173.169 C 832.691 145.296,834.107 141.637,834.135 133.039 C 834.170 122.421,831.085 116.815,821.684 110.417 C 814.579 105.581,801.415 105.308,793.981 109.841 " stroke="none" fill-rule="evenodd" fill="black"></path></svg>