<svg width="1000" height="1000" viewBox="0 0 1000 1000" version="1.1" id="svg5" sodipodi:docname="囲.svg" inkscape:version="1.2.1 (9c6d41e410, 2022-07-14)" xmlns:inkscape="http://www.inkscape.org/namespaces/inkscape" xmlns:sodipodi="http://sodipodi.sourceforge.net/DTD/sodipodi-0.dtd" xmlns="http://www.w3.org/2000/svg" xmlns:svg="http://www.w3.org/2000/svg"><path d="M88.267 52.171 C 83.297 54.799,79.795 58.306,77.156 63.296 L 73.302 70.584 73.734 500.708 C 74.141 904.839,74.341 931.152,77.050 936.103 C 83.233 947.402,96.885 953.627,108.108 950.265 C 123.485 945.657,128.555 937.262,129.656 914.583 L 130.446 898.333 500.000 898.333 L 869.554 898.333 870.344 914.583 C 871.445 937.262,876.515 945.657,891.892 950.265 C 903.115 953.627,916.767 947.402,922.950 936.103 C 925.658 931.153,925.863 905.124,926.328 507.500 C 926.599 274.667,926.363 80.267,925.801 75.501 C 924.494 64.392,919.387 56.800,910.050 52.083 L 902.627 48.333 499.076 48.333 L 95.524 48.333 88.267 52.171 M870.000 473.333 L 870.000 843.333 500.000 843.333 L 130.000 843.333 130.000 473.333 L 130.000 103.333 500.000 103.333 L 870.000 103.333 870.000 473.333 M483.163 132.097 C 480.048 134.167,475.813 139.201,473.750 143.283 C 470.002 150.702,470.000 150.758,470.000 238.686 L 470.000 326.667 367.083 326.703 C 270.170 326.738,263.767 326.922,257.307 329.855 C 242.522 336.569,236.500 352.789,243.643 366.653 C 245.764 370.771,250.048 375.833,253.163 377.903 L 258.826 381.667 363.580 381.667 L 468.333 381.667 468.333 389.834 C 468.333 407.571,458.431 454.537,448.619 483.333 C 408.985 599.660,326.595 704.563,242.500 745.774 C 224.287 754.699,207.609 759.393,186.908 761.419 C 175.841 762.502,170.036 763.892,166.908 766.209 C 150.652 778.247,150.799 800.211,167.216 812.347 C 171.297 815.363,174.219 815.822,188.883 815.749 C 198.700 815.701,210.868 814.476,217.797 812.840 C 330.000 786.343,449.795 654.013,501.012 499.991 C 508.502 477.467,508.971 476.569,511.746 479.468 C 513.343 481.136,578.148 556.000,655.759 645.833 C 733.370 735.667,799.137 810.998,801.907 813.237 C 809.411 819.301,823.807 820.006,831.627 814.691 C 840.703 808.523,845.002 800.903,844.989 791.004 C 844.982 785.720,843.878 780.840,842.072 778.117 C 840.474 775.706,768.292 691.864,681.667 591.801 C 553.124 443.319,524.065 408.886,523.612 404.518 C 523.306 401.575,523.548 395.229,524.148 390.417 L 525.240 381.667 630.707 381.667 L 736.174 381.667 741.684 377.917 C 749.938 372.299,753.710 366.174,754.596 356.951 C 755.573 346.783,751.163 337.837,742.118 331.638 L 736.080 327.500 630.540 327.036 L 525.000 326.571 525.000 236.865 L 525.000 147.160 521.210 141.536 C 512.295 128.307,495.235 124.074,483.163 132.097 " stroke="none" fill-rule="evenodd" fill="#000000"></path></svg>