<svg width="1000" height="1000" viewBox="0 0 1000 1000" version="1.1" id="svg5" sodipodi:docname="国.svg" inkscape:version="1.2.1 (9c6d41e410, 2022-07-14)" xmlns:inkscape="http://www.inkscape.org/namespaces/inkscape" xmlns:sodipodi="http://sodipodi.sourceforge.net/DTD/sodipodi-0.dtd" xmlns="http://www.w3.org/2000/svg" xmlns:svg="http://www.w3.org/2000/svg"><path d="M88.267 52.171 C 83.297 54.799,79.795 58.306,77.156 63.296 L 73.302 70.584 73.734 500.708 C 74.141 904.839,74.341 931.152,77.050 936.103 C 83.233 947.402,96.885 953.627,108.108 950.265 C 123.485 945.657,128.555 937.262,129.656 914.583 L 130.446 898.333 500.000 898.333 L 869.554 898.333 870.344 914.583 C 871.445 937.262,876.515 945.657,891.892 950.265 C 903.115 953.627,916.767 947.402,922.950 936.103 C 925.658 931.153,925.863 905.124,926.328 507.500 C 926.599 274.667,926.363 80.267,925.801 75.501 C 924.494 64.392,919.387 56.800,910.050 52.083 L 902.627 48.333 499.076 48.333 L 95.524 48.333 88.267 52.171 M870.000 473.333 L 870.000 843.333 500.000 843.333 L 130.000 843.333 130.000 473.333 L 130.000 103.333 500.000 103.333 L 870.000 103.333 870.000 473.333 M423.189 118.208 C 410.485 122.211,402.980 132.299,403.080 145.237 C 403.165 156.206,404.356 157.860,438.824 194.847 L 466.815 224.883 360.491 225.358 C 263.772 225.790,253.695 226.091,248.949 228.690 C 237.313 235.060,231.725 246.708,234.129 259.583 C 235.724 268.123,247.174 279.098,256.011 280.558 C 259.580 281.148,309.188 281.638,366.250 281.648 L 470.000 281.667 470.000 359.167 L 470.000 436.667 343.442 436.667 C 258.252 436.667,215.350 437.245,212.192 438.436 C 205.027 441.137,196.797 449.995,194.897 457.050 C 192.526 465.854,194.530 474.349,200.613 481.276 C 210.128 492.113,204.023 491.667,342.593 491.667 L 468.626 491.667 467.526 498.750 C 466.922 502.646,464.612 512.660,462.395 521.003 C 439.528 607.045,361.338 699.328,272.397 745.245 C 238.860 762.559,213.808 770.090,179.771 773.090 C 161.355 774.714,155.383 777.783,149.962 788.407 C 143.212 801.639,148.346 817.421,161.755 824.658 C 168.552 828.327,170.493 828.583,185.150 827.749 C 204.658 826.638,229.433 821.732,250.244 814.858 C 272.198 807.608,308.881 789.245,333.061 773.401 C 406.288 725.422,469.461 651.586,500.990 577.125 C 504.570 568.669,508.014 561.919,508.641 562.125 C 509.269 562.331,577.693 621.745,660.693 694.156 C 770.568 790.012,813.392 826.408,818.178 828.004 C 830.735 832.189,847.492 823.483,851.758 810.556 C 854.078 803.526,853.001 793.118,849.381 787.592 C 847.958 785.421,773.974 720.111,684.972 642.459 C 539.815 515.812,523.202 500.820,523.658 496.886 L 524.167 492.500 653.333 491.667 L 782.500 490.833 788.397 487.166 C 795.850 482.530,801.675 472.314,801.639 463.940 C 801.603 455.524,795.647 445.223,788.332 440.926 C 782.619 437.570,779.885 437.483,654.167 436.667 L 525.833 435.833 525.400 358.796 L 524.967 281.759 633.733 281.296 L 742.500 280.833 748.666 276.999 C 757.108 271.750,761.667 263.859,761.667 254.495 C 761.667 250.309,761.000 245.130,760.185 242.987 C 757.457 235.812,748.375 228.618,739.694 226.757 C 734.497 225.642,696.837 225.000,636.664 225.000 L 541.825 225.000 494.121 173.544 C 467.884 145.243,444.665 121.290,442.524 120.314 C 436.629 117.628,428.008 116.689,423.189 118.208 " stroke="none" fill-rule="evenodd" fill="#000000"></path></svg>