<svg width="1000" height="1000" viewBox="0 0 1000 1000" version="1.1" id="svg5" xmlns="http://www.w3.org/2000/svg" xmlns:svg="http://www.w3.org/2000/svg"><path d="M774.167 63.877 C 760.319 69.295,761.027 68.131,744.036 113.465 C 697.071 238.768,629.971 358.945,559.854 443.333 C 544.901 461.330,515.460 490.969,500.987 502.596 L 492.808 509.167 345.023 510.000 L 197.239 510.833 191.118 515.503 C 183.141 521.588,180.000 527.944,180.000 538.004 C 180.000 547.049,184.107 554.679,192.206 560.680 L 196.911 564.167 500.000 564.167 L 803.089 564.167 807.794 560.680 C 815.893 554.679,820.000 547.049,820.000 538.004 C 820.000 527.944,816.860 521.588,808.883 515.503 L 802.762 510.833 689.027 510.000 L 575.292 509.167 583.516 500.000 C 632.879 444.975,680.375 374.461,725.846 288.692 C 754.155 235.294,785.773 162.931,804.341 109.041 C 810.214 91.996,810.547 90.066,808.685 83.850 C 805.936 74.673,800.731 68.506,792.631 64.827 C 784.866 61.301,781.229 61.113,774.167 63.877 M193.203 132.123 C 190.110 134.207,185.808 138.520,183.642 141.706 C 180.365 146.529,179.827 149.036,180.432 156.667 C 181.087 164.918,187.853 178.485,248.170 292.500 C 293.784 378.723,316.798 420.578,320.249 423.588 C 333.198 434.880,350.881 431.840,361.398 416.513 C 364.644 411.782,365.170 409.303,364.548 401.667 C 363.876 393.431,357.069 379.800,297.546 267.500 C 261.105 198.750,229.890 140.530,228.178 138.122 C 221.144 128.229,203.478 125.199,193.203 132.123 M67.369 839.827 C 45.703 849.668,45.291 878.113,66.656 889.161 C 70.986 891.400,120.202 891.637,502.019 891.259 L 932.500 890.833 937.774 887.072 C 945.713 881.408,950.633 870.029,949.218 860.598 C 947.819 851.266,937.115 839.506,928.440 837.771 C 925.402 837.164,731.948 836.683,498.542 836.703 C 89.038 836.739,73.928 836.848,67.369 839.827 " stroke="none" fill-rule="evenodd" fill="#000000"></path></svg>