<svg width="1000" height="1000" viewBox="0 0 1000 1000" version="1.1" id="svg5" xmlns="http://www.w3.org/2000/svg" xmlns:svg="http://www.w3.org/2000/svg"><path d="M302.759 52.431 C 296.143 54.790,289.204 60.317,286.455 65.417 C 285.590 67.022,283.018 79.772,280.740 93.751 C 272.765 142.682,254.290 208.911,230.945 272.259 C 224.925 288.595,220.000 304.026,220.000 306.551 C 220.000 314.583,226.963 325.281,234.933 329.495 L 242.191 333.333 329.562 333.333 L 416.934 333.333 415.896 350.417 C 410.688 436.148,400.284 499.536,379.979 569.240 C 357.660 645.856,320.210 725.910,276.314 790.833 C 255.105 822.202,222.064 862.700,200.572 883.669 L 190.833 893.171 130.833 893.669 C 71.540 894.161,70.761 894.212,64.667 898.001 C 46.660 909.198,46.660 934.135,64.667 945.333 L 70.833 949.167 501.667 949.167 L 932.500 949.167 938.666 945.333 C 956.674 934.135,956.674 909.198,938.666 898.001 L 932.500 894.167 813.013 893.697 L 693.525 893.228 697.530 882.864 C 699.732 877.164,705.672 860.057,710.730 844.850 C 753.704 715.634,776.927 561.939,785.167 352.210 L 787.142 301.920 783.155 293.877 C 780.399 288.320,777.106 284.683,772.500 282.111 L 765.833 278.388 527.083 278.361 C 395.771 278.346,288.333 277.745,288.333 277.027 C 288.333 276.308,292.474 263.370,297.535 248.277 C 315.422 194.935,328.314 145.426,335.062 104.167 C 338.948 80.404,339.131 73.027,335.982 67.001 C 332.317 59.986,324.801 53.816,317.500 51.831 C 309.525 49.663,310.651 49.617,302.759 52.431 M729.350 363.750 C 722.962 534.597,701.160 687.247,666.875 801.186 C 659.976 824.114,647.614 860.269,645.198 864.587 C 644.157 866.448,627.433 846.113,579.375 784.551 C 531.389 723.082,513.508 701.338,509.305 699.344 C 491.323 690.811,469.984 703.745,470.010 723.163 C 470.016 727.382,471.064 732.834,472.340 735.279 C 473.616 737.724,501.361 773.923,533.996 815.720 C 566.632 857.518,593.333 892.080,593.333 892.525 C 593.333 892.969,519.770 893.333,429.859 893.333 L 266.385 893.333 275.397 882.917 C 280.354 877.188,289.289 866.125,295.253 858.333 C 400.778 720.459,461.319 547.422,470.918 356.250 L 472.069 333.333 601.278 333.333 L 730.488 333.333 729.350 363.750 " stroke="none" fill-rule="evenodd" fill="black"></path></svg>