<svg width="1000" height="1000" viewBox="0 0 1000 1000" version="1.1" id="svg5" xmlns="http://www.w3.org/2000/svg" xmlns:svg="http://www.w3.org/2000/svg"><path d="M615.527 44.906 C 611.142 46.897,606.812 50.703,603.860 55.161 L 599.167 62.250 598.638 122.792 L 598.110 183.333 520.984 183.333 L 443.858 183.333 436.512 187.208 C 426.227 192.634,421.331 201.425,422.156 212.986 C 422.825 222.362,426.081 228.169,433.974 234.064 C 438.448 237.405,440.756 237.513,517.844 237.964 L 597.114 238.428 596.000 247.911 C 590.731 292.740,562.273 353.971,524.930 400.827 C 495.816 437.356,455.482 469.673,423.279 482.275 C 408.971 487.874,401.847 489.596,385.397 491.431 C 374.538 492.643,370.399 493.905,365.814 497.402 L 360.000 501.836 360.000 440.918 L 360.000 380.000 387.917 379.963 C 411.482 379.932,416.893 379.446,422.631 376.839 C 439.187 369.320,444.182 350.235,433.514 335.253 C 427.094 326.238,421.761 325.000,389.331 325.000 L 360.000 325.000 359.991 246.250 C 359.985 193.936,359.364 165.275,358.141 160.871 C 352.885 141.939,329.462 133.920,314.989 146.098 C 303.850 155.471,304.217 152.324,303.677 242.917 L 303.186 325.000 246.638 325.000 L 190.090 325.000 189.628 241.960 L 189.167 158.919 185.029 152.882 C 173.518 136.088,151.588 135.813,139.270 152.307 C 135.933 156.774,135.809 159.345,135.000 240.537 L 134.167 324.167 103.032 325.000 C 68.495 325.924,66.888 326.412,58.602 338.487 C 53.559 345.837,54.078 360.016,59.679 367.883 C 66.968 378.118,74.222 380.000,106.395 380.000 L 135.071 380.000 134.961 588.272 C 134.842 813.704,134.341 800.859,143.592 809.472 C 145.741 811.474,149.611 813.911,152.192 814.889 C 155.255 816.050,182.216 816.667,229.867 816.667 L 302.850 816.667 303.817 828.208 C 304.922 841.383,307.698 847.766,314.989 853.902 C 329.462 866.080,352.885 858.061,358.141 839.129 C 359.420 834.523,359.984 787.376,359.991 684.634 L 360.000 536.767 366.001 540.839 C 374.376 546.523,381.795 547.513,399.418 545.299 C 465.815 536.958,540.221 480.915,594.123 398.648 C 607.148 378.769,624.388 345.373,631.900 325.469 C 634.765 317.878,637.646 311.667,638.301 311.667 C 638.957 311.667,689.093 364.132,749.714 428.256 C 868.344 553.743,864.657 550.332,878.820 547.675 C 886.971 546.146,895.319 540.124,898.747 533.300 C 902.567 525.697,902.488 513.854,898.575 507.500 C 896.881 504.750,841.009 444.856,774.414 374.401 C 684.381 279.150,653.333 245.293,653.333 242.364 L 653.333 238.426 734.046 237.963 C 812.961 237.510,814.863 237.422,819.463 234.013 C 827.736 227.881,831.667 220.415,831.667 210.833 C 831.667 200.254,827.063 192.581,817.451 187.136 C 810.852 183.399,810.609 183.388,732.917 183.361 L 655.000 183.333 654.963 124.583 C 654.930 71.151,654.650 65.230,651.865 59.167 C 648.224 51.237,644.507 47.683,636.243 44.230 C 628.278 40.902,624.041 41.040,615.527 44.906 M303.333 570.833 L 303.333 761.667 246.667 761.667 L 190.000 761.667 190.000 570.833 L 190.000 380.000 246.667 380.000 L 303.333 380.000 303.333 570.833 M620.205 411.736 C 612.901 413.375,606.660 418.112,602.500 425.174 C 599.344 430.532,599.141 434.315,598.677 496.250 L 598.188 561.667 506.177 561.676 C 444.167 561.682,411.993 562.286,407.500 563.527 C 397.922 566.173,388.855 576.218,387.422 585.770 C 386.510 591.851,387.049 594.799,390.230 601.144 C 394.797 610.250,400.130 614.612,409.296 616.738 C 412.891 617.571,456.617 618.272,506.465 618.294 L 597.096 618.333 595.980 626.745 C 594.300 639.413,587.390 664.758,581.740 678.982 C 561.881 728.974,530.083 775.551,488.738 815.210 C 441.347 860.668,391.316 887.433,345.643 891.761 C 333.033 892.956,325.906 894.484,321.563 896.925 C 304.416 906.562,303.812 932.853,320.501 943.109 C 328.451 947.996,336.121 948.821,353.871 946.702 C 460.157 934.012,577.080 832.074,630.149 705.833 C 633.617 697.583,637.132 690.833,637.961 690.833 C 638.790 690.833,692.651 741.446,757.651 803.306 C 822.651 865.166,883.093 922.685,891.965 931.126 C 903.849 942.433,909.883 946.956,914.882 948.302 C 928.734 952.032,944.081 943.182,948.325 929.018 C 951.329 918.992,948.205 909.633,938.614 899.923 C 934.335 895.590,868.021 832.299,791.250 759.275 C 714.479 686.252,651.678 625.604,651.692 624.502 C 651.768 618.517,652.438 618.473,750.058 617.982 C 837.151 617.544,846.311 617.239,851.103 614.617 C 857.879 610.909,862.836 604.547,865.265 596.441 C 869.164 583.425,859.653 567.373,845.755 563.514 C 841.341 562.289,808.814 561.682,747.188 561.676 L 655.210 561.667 654.688 496.250 C 654.171 431.321,654.138 430.787,650.333 424.667 C 643.823 414.198,631.948 409.101,620.205 411.736 " stroke="none" fill-rule="evenodd" fill="#000000"></path></svg>