<svg width="1000" height="1000" viewBox="0 0 1000 1000" version="1.1" id="svg5" sodipodi:docname="хви.svg" inkscape:version="1.2.1 (9c6d41e410, 2022-07-14)" xmlns:inkscape="http://www.inkscape.org/namespaces/inkscape" xmlns:sodipodi="http://sodipodi.sourceforge.net/DTD/sodipodi-0.dtd" xmlns="http://www.w3.org/2000/svg" xmlns:svg="http://www.w3.org/2000/svg"><path d="M230.833 54.446 C 225.439 55.892,216.888 63.094,213.748 68.836 C 211.137 73.610,210.781 81.073,210.329 140.355 L 209.824 206.544 151.863 207.022 L 93.902 207.500 87.933 212.055 C 75.711 221.381,76.525 199.687,77.039 502.500 L 77.500 774.167 81.334 780.333 C 92.531 798.340,117.469 798.340,128.666 780.333 L 132.500 774.167 132.937 517.917 L 133.375 261.667 171.667 261.667 L 209.960 261.667 210.397 597.083 C 210.806 911.426,211.014 932.831,213.717 937.770 C 224.400 957.293,252.267 957.293,262.950 937.770 C 265.652 932.831,265.861 911.426,266.270 597.083 L 266.707 261.667 305.020 261.667 L 343.333 261.667 343.333 475.000 C 343.333 592.333,343.023 688.333,342.644 688.333 C 342.265 688.333,337.733 680.271,332.572 670.417 C 322.174 650.562,316.753 644.492,306.740 641.492 C 288.061 635.895,267.396 656.175,273.360 674.248 C 276.260 683.034,347.390 814.603,351.871 819.470 C 354.050 821.837,358.677 825.068,362.153 826.651 L 368.473 829.528 356.152 844.347 C 341.257 862.262,340.000 864.522,340.000 873.389 C 340.000 886.515,347.412 896.425,360.065 900.216 C 374.542 904.554,382.801 899.144,406.130 870.041 C 440.675 826.947,462.379 787.412,481.428 732.881 C 499.020 682.522,516.467 603.450,525.191 534.543 C 526.325 525.584,527.797 518.834,528.461 519.543 C 529.125 520.253,547.436 555.708,569.151 598.333 C 590.866 640.958,610.253 678.282,612.233 681.275 C 616.423 687.608,627.088 693.333,634.693 693.333 C 637.612 693.333,639.994 693.521,639.987 693.750 C 639.940 695.300,632.830 716.565,628.423 728.333 C 620.222 750.239,602.683 785.598,592.143 801.475 C 586.900 809.372,574.747 825.583,565.134 837.500 C 555.522 849.417,546.670 862.032,545.463 865.535 C 541.491 877.059,548.055 891.234,560.334 897.649 C 566.741 900.996,578.194 900.580,584.437 896.774 C 590.410 893.132,606.553 874.735,623.418 852.350 C 667.978 793.208,697.908 714.883,718.255 604.167 C 722.382 581.711,729.840 535.225,730.067 530.545 C 730.213 527.519,737.390 543.884,809.123 710.833 C 850.086 806.167,885.068 886.551,886.863 889.465 C 890.585 895.509,901.973 901.667,909.431 901.667 C 912.205 901.667,917.742 899.940,921.733 897.829 C 930.074 893.418,936.667 882.829,936.667 873.845 C 936.667 870.095,904.273 792.898,839.740 642.857 C 751.392 437.447,742.825 416.731,742.944 408.813 C 743.016 404.036,743.892 387.536,744.890 372.147 C 748.476 316.892,750.040 272.934,751.110 197.266 L 752.198 120.366 747.789 112.843 C 743.044 104.745,732.717 98.333,724.420 98.333 C 713.181 98.333,699.278 109.792,697.669 120.381 C 697.214 123.380,696.411 155.833,695.885 192.500 C 694.517 287.961,692.113 340.817,684.971 432.500 C 682.519 463.974,675.612 523.288,670.707 555.000 C 666.621 581.416,655.398 640.158,654.210 641.345 C 653.259 642.297,644.371 625.273,589.990 518.333 L 537.867 415.833 539.806 385.000 C 540.872 368.042,542.511 339.542,543.448 321.667 C 545.907 274.713,548.196 129.280,546.587 122.148 C 541.099 97.815,510.817 92.197,496.638 112.881 L 492.500 118.917 491.441 195.208 C 490.406 269.692,490.004 282.209,486.544 347.500 C 478.329 502.548,459.643 624.025,430.913 709.167 C 422.142 735.159,407.708 769.737,402.561 777.086 C 400.253 780.381,399.996 753.830,399.960 508.288 C 399.937 350.728,399.281 233.076,398.404 229.296 C 396.674 221.835,392.674 215.901,386.027 210.936 C 381.622 207.645,379.006 207.480,324.135 207.021 L 266.842 206.543 266.338 140.355 C 265.778 66.903,265.944 68.037,254.434 59.257 C 248.841 54.991,237.457 52.671,230.833 54.446 " stroke="none" fill-rule="evenodd" fill="black"></path></svg>