<svg width="1000" height="1000" viewBox="0 0 1000 1000" version="1.1" id="svg5" xmlns="http://www.w3.org/2000/svg" xmlns:svg="http://www.w3.org/2000/svg"><path d="M639.167 52.449 C 630.945 55.423,624.105 62.783,621.779 71.161 C 620.640 75.261,620.015 110.330,620.009 170.447 L 620.000 263.395 581.250 262.947 L 542.500 262.500 520.833 201.732 C 502.927 151.513,498.261 140.056,493.950 135.731 C 487.379 129.137,476.391 126.091,467.768 128.472 C 455.410 131.884,444.856 148.038,447.667 159.238 C 448.269 161.638,456.540 185.430,466.048 212.109 C 475.555 238.789,483.333 261.229,483.333 261.976 C 483.333 262.722,467.087 263.333,447.230 263.333 C 411.781 263.333,410.998 263.408,404.057 267.476 C 396.240 272.057,390.000 282.543,390.000 291.097 C 390.000 299.544,396.796 310.192,404.933 314.495 L 412.191 318.333 515.338 318.333 L 618.484 318.333 617.363 324.583 C 615.252 336.347,607.935 357.497,600.785 372.504 C 581.676 412.611,545.843 455.278,506.147 485.190 C 493.533 494.695,492.807 495.000,482.814 495.009 C 469.359 495.020,460.880 499.909,454.869 511.123 C 450.812 518.691,449.728 519.482,436.528 524.506 C 418.977 531.187,403.521 534.696,383.795 536.479 C 370.943 537.641,367.463 538.601,362.567 542.336 C 349.273 552.476,347.235 569.164,357.763 581.675 C 364.216 589.344,370.072 591.667,382.957 591.667 C 412.285 591.667,449.552 581.085,486.145 562.369 L 510.327 550.000 565.997 550.000 L 621.667 550.000 621.667 685.260 L 621.667 820.519 609.583 802.409 C 602.938 792.449,595.493 782.852,593.041 781.084 C 586.857 776.624,573.633 775.564,566.996 778.996 C 558.961 783.151,553.710 789.815,551.626 798.501 C 549.034 809.307,550.109 811.435,586.908 868.333 C 603.805 894.458,620.478 920.539,623.959 926.290 C 631.199 938.249,639.029 943.333,650.204 943.333 C 660.219 943.333,670.453 936.894,674.840 927.831 C 678.322 920.637,678.333 920.038,678.333 735.307 L 678.333 550.000 751.720 550.000 C 831.367 550.000,832.280 549.905,840.802 540.710 L 844.935 536.250 859.350 548.542 C 913.302 594.545,915.276 595.776,928.667 591.764 C 948.322 585.875,955.438 562.254,941.928 547.744 C 939.493 545.128,878.363 492.628,806.085 431.078 L 674.671 319.167 781.085 318.333 C 860.061 317.715,888.408 316.979,891.021 315.480 C 897.212 311.930,904.520 302.245,905.682 296.053 C 907.997 283.712,899.878 269.653,887.808 265.102 C 885.073 264.071,869.263 263.333,849.892 263.333 C 831.618 263.333,816.667 262.942,816.667 262.463 C 816.667 261.984,819.666 255.628,823.331 248.337 C 831.858 231.379,836.640 217.011,845.033 183.136 C 852.445 153.221,853.354 143.097,849.327 135.309 C 842.374 121.864,825.099 116.413,812.549 123.706 C 803.436 129.001,799.145 136.102,795.907 151.247 C 790.673 175.723,781.741 206.772,776.477 218.789 C 770.728 231.912,761.159 246.863,752.069 256.924 L 746.279 263.333 711.548 263.333 L 676.818 263.333 676.326 167.083 L 675.833 70.833 671.999 64.667 C 664.806 53.098,651.283 48.066,639.167 52.449 M139.167 142.260 C 132.993 145.118,127.458 150.999,125.111 157.192 C 123.941 160.279,123.333 189.416,123.333 242.406 L 123.333 322.928 97.848 323.613 C 74.976 324.227,71.738 324.684,66.266 328.066 C 54.592 335.281,49.324 349.501,54.095 360.920 C 60.720 376.775,68.220 379.915,99.583 379.963 L 123.333 380.000 123.333 588.920 L 123.333 797.840 127.083 803.350 C 129.146 806.381,132.950 810.429,135.537 812.347 C 140.097 815.727,142.259 815.848,206.613 816.304 L 272.985 816.775 273.583 829.942 C 274.039 839.981,274.996 844.199,277.610 847.701 C 283.496 855.585,289.307 858.841,298.681 859.510 C 310.465 860.351,319.372 855.381,324.583 845.057 L 328.333 837.627 328.333 608.963 L 328.333 380.299 353.750 379.733 C 376.823 379.219,379.735 378.813,385.333 375.333 C 395.007 369.317,398.858 361.709,398.029 350.248 C 397.221 339.078,393.792 333.592,384.167 328.063 C 378.219 324.647,374.847 324.165,352.917 323.602 L 328.333 322.970 328.297 242.735 C 328.263 168.093,328.044 162.024,325.158 155.668 C 320.445 145.292,313.046 140.833,300.539 140.833 C 289.415 140.833,284.238 143.424,277.603 152.307 C 274.255 156.790,274.155 159.047,273.705 240.121 L 273.243 323.333 225.788 323.333 L 178.333 323.333 178.297 242.917 C 178.263 168.098,178.044 162.024,175.158 155.668 C 173.451 151.911,169.599 147.088,166.597 144.950 C 159.948 140.216,146.444 138.892,139.167 142.260 M725.809 434.795 C 759.739 463.558,789.358 488.870,791.629 491.045 L 795.758 495.000 687.724 495.000 L 579.690 495.000 586.586 487.083 C 590.378 482.729,598.375 473.542,604.356 466.667 C 619.346 449.436,640.063 417.902,650.460 396.491 C 657.781 381.416,659.539 378.908,661.633 380.551 C 662.999 381.623,691.879 406.033,725.809 434.795 M272.924 570.417 L 272.500 760.833 225.833 760.833 L 179.167 760.833 178.743 570.417 L 178.319 380.000 225.833 380.000 L 273.347 380.000 272.924 570.417 " stroke="none" fill-rule="evenodd" fill="#000000"></path></svg>