<svg width="1000" height="1000" viewBox="0 0 1000 1000" version="1.1" id="svg5" xmlns="http://www.w3.org/2000/svg" xmlns:svg="http://www.w3.org/2000/svg"><path d="M72.465 91.541 C 48.290 97.377,43.434 128.797,64.667 141.999 L 70.833 145.833 234.534 146.289 L 398.234 146.746 397.441 151.289 C 385.759 218.232,363.991 312.103,349.043 360.000 C 346.612 367.792,343.205 379.042,341.472 385.000 C 327.327 433.651,297.058 513.484,271.329 570.000 C 218.142 686.829,152.893 790.857,71.437 888.691 C 53.707 909.986,51.667 913.503,51.667 922.773 C 51.667 941.980,72.438 955.419,89.933 947.530 C 102.463 941.880,171.034 854.363,211.402 792.500 C 263.939 711.988,306.127 632.034,343.315 542.500 C 356.018 511.916,360.179 500.901,376.686 454.167 L 389.637 417.500 598.152 417.077 L 806.667 416.654 806.644 423.744 C 806.632 427.643,805.520 444.333,804.174 460.833 C 793.740 588.705,773.713 678.122,734.554 771.667 C 723.929 797.047,690.494 864.533,685.010 871.667 L 681.806 875.833 597.153 791.447 C 521.742 716.275,511.802 706.938,506.110 705.929 C 485.655 702.304,468.429 720.194,473.628 739.665 C 474.980 744.731,492.903 763.506,573.887 844.696 C 628.124 899.071,674.685 944.716,677.356 946.130 C 683.558 949.413,697.451 948.418,703.836 944.232 C 709.160 940.741,722.291 919.184,745.516 875.800 C 790.256 792.231,819.744 711.322,838.137 621.667 C 851.536 556.353,861.587 465.884,862.228 404.808 L 862.500 378.962 857.697 372.637 C 848.797 360.918,864.723 361.667,624.220 361.667 C 504.566 361.667,406.667 361.339,406.667 360.938 C 406.667 360.537,410.342 346.475,414.833 329.688 C 428.254 279.532,448.577 185.758,452.601 155.427 L 453.755 146.722 693.128 146.278 L 932.500 145.833 938.666 141.999 C 956.674 130.802,956.674 105.865,938.666 94.667 L 932.500 90.833 505.000 90.579 C 269.875 90.439,75.234 90.872,72.465 91.541 " stroke="none" fill-rule="evenodd" fill="black"></path></svg>