<svg width="1000" height="1000" viewBox="0 0 1000 1000" version="1.1" id="svg5" sodipodi:docname="夏.svg" inkscape:version="1.2.1 (9c6d41e410, 2022-07-14)" xmlns:inkscape="http://www.inkscape.org/namespaces/inkscape" xmlns:sodipodi="http://sodipodi.sourceforge.net/DTD/sodipodi-0.dtd" xmlns="http://www.w3.org/2000/svg" xmlns:svg="http://www.w3.org/2000/svg"><path d="M334.167 52.484 C 315.637 59.089,309.723 82.447,322.998 96.595 C 325.474 99.233,368.152 124.010,417.838 151.654 C 516.088 206.317,515.162 205.919,528.783 199.306 C 538.734 194.475,542.500 187.801,542.500 175.000 C 542.500 166.554,541.703 163.050,538.885 159.099 C 536.245 155.397,511.752 140.925,448.052 105.424 C 400.082 78.690,358.583 55.730,355.833 54.402 C 347.790 50.519,341.293 49.944,334.167 52.484 M738.993 104.962 C 735.635 106.319,712.172 129.591,705.299 138.383 C 700.733 144.222,654.632 186.496,632.842 204.822 C 591.641 239.476,495.227 310.000,489.052 310.000 C 487.925 310.000,429.739 284.422,359.751 253.161 C 286.412 220.403,229.676 195.996,225.833 195.553 C 217.909 194.640,206.148 200.046,201.164 206.893 C 197.649 211.723,195.654 224.072,197.319 230.704 C 200.218 242.258,202.476 243.456,319.850 295.742 C 381.349 323.137,431.667 346.021,431.667 346.594 C 431.667 347.168,417.979 355.587,401.250 365.303 C 289.203 430.379,178.942 479.238,95.000 501.009 C 66.312 508.450,64.324 509.265,58.396 516.017 C 44.676 531.643,51.389 554.122,71.582 560.172 C 78.176 562.147,80.502 561.921,97.332 557.662 C 130.176 549.352,168.688 536.775,210.954 520.556 C 212.954 519.789,213.358 549.557,213.731 725.376 L 214.167 931.093 218.818 937.191 C 221.376 940.545,225.108 944.166,227.112 945.238 C 246.396 955.559,268.333 942.156,268.333 920.054 L 268.333 913.333 500.000 913.333 L 731.667 913.333 731.667 920.916 C 731.667 929.925,734.688 936.372,741.659 942.237 C 754.271 952.850,770.853 950.733,781.182 937.191 L 785.833 931.093 786.269 717.857 C 786.681 516.212,786.862 504.666,789.602 505.452 C 791.196 505.909,820.401 518.744,854.503 533.975 C 888.604 549.205,918.604 561.650,921.170 561.630 C 938.358 561.495,952.501 543.812,948.199 527.835 C 944.297 513.342,950.840 516.652,743.356 424.217 C 637.493 377.054,550.700 337.874,550.482 337.150 C 550.264 336.426,555.091 332.458,561.208 328.333 C 580.524 315.309,637.442 272.323,658.712 254.696 C 702.748 218.203,757.965 165.317,771.415 146.750 C 781.088 133.396,777.748 116.749,763.464 107.123 C 757.578 103.156,745.992 102.133,738.993 104.962 M602.593 421.826 C 660.292 447.580,709.000 469.282,710.833 470.053 C 712.667 470.824,625.667 471.489,517.500 471.530 L 320.833 471.604 347.500 457.749 C 390.295 435.514,463.321 393.655,484.920 378.978 C 488.140 376.790,492.329 375.000,494.230 375.000 C 496.131 375.000,544.894 396.072,602.593 421.826 M471.667 596.680 L 471.667 665.026 370.417 664.596 L 269.167 664.167 268.731 596.250 L 268.296 528.333 369.981 528.333 L 471.667 528.333 471.667 596.680 M731.269 596.250 L 730.833 664.167 629.583 664.596 L 528.333 665.026 528.333 596.680 L 528.333 528.333 630.019 528.333 L 731.704 528.333 731.269 596.250 M471.667 788.333 L 471.667 856.667 370.000 856.667 L 268.333 856.667 268.333 789.444 C 268.333 752.472,268.833 721.722,269.444 721.111 C 270.056 720.500,315.806 720.000,371.111 720.000 L 471.667 720.000 471.667 788.333 M731.269 788.750 L 731.704 856.667 630.019 856.667 L 528.333 856.667 528.333 788.320 L 528.333 719.974 629.583 720.404 L 730.833 720.833 731.269 788.750 " stroke="none" fill-rule="evenodd" fill="black"></path></svg>