<svg width="1000" height="1000" viewBox="0 0 1000 1000" version="1.1" id="svg5" sodipodi:docname="多.svg" inkscape:version="1.2.1 (9c6d41e410, 2022-07-14)" xmlns:inkscape="http://www.inkscape.org/namespaces/inkscape" xmlns:sodipodi="http://sodipodi.sourceforge.net/DTD/sodipodi-0.dtd" xmlns="http://www.w3.org/2000/svg" xmlns:svg="http://www.w3.org/2000/svg"><path d="M487.500 43.938 C 481.238 46.847,474.094 54.382,471.773 60.525 C 470.642 63.518,470.000 86.590,470.000 124.243 L 470.000 183.268 351.119 183.718 L 232.239 184.167 226.118 188.836 C 212.224 199.434,210.597 216.836,222.292 229.742 C 230.337 238.619,226.059 238.333,350.751 238.333 L 466.667 238.333 466.667 242.671 C 466.667 245.056,464.399 253.776,461.628 262.048 C 447.973 302.806,420.749 343.049,381.189 380.953 C 314.037 445.295,230.311 486.277,156.354 491.005 C 134.596 492.396,127.664 495.552,122.083 506.610 C 117.321 516.045,117.344 522.605,122.171 531.733 C 129.926 546.398,142.950 549.204,180.227 544.242 C 263.797 533.116,356.128 484.108,426.710 413.413 C 458.287 381.786,481.396 350.383,499.241 314.853 C 506.624 300.151,506.939 299.795,510.502 302.137 C 512.517 303.462,587.292 358.403,676.667 424.229 C 766.042 490.054,841.792 544.873,845.000 546.049 C 853.215 549.060,857.937 548.827,865.724 545.025 C 879.182 538.454,884.761 523.308,878.738 509.694 C 875.646 502.703,864.285 494.024,699.303 372.612 C 602.429 301.322,523.456 242.133,523.806 241.080 C 524.275 239.674,556.245 238.938,644.305 238.306 C 710.229 237.832,764.352 237.270,764.579 237.056 C 764.805 236.842,767.985 233.961,771.646 230.654 C 783.166 220.247,784.016 205.342,773.784 193.182 C 765.237 183.025,769.372 183.333,641.720 183.333 L 525.000 183.333 525.000 123.860 C 525.000 67.921,524.803 63.983,521.691 57.610 C 515.584 45.101,499.146 38.528,487.500 43.938 M490.658 411.561 C 483.525 413.287,477.528 418.049,473.446 425.227 C 470.125 431.068,470.000 433.641,470.000 496.432 L 470.000 561.577 326.960 562.039 L 183.920 562.500 177.882 566.638 C 156.962 580.975,162.799 610.979,187.629 616.738 C 191.264 617.581,254.687 618.271,330.492 618.294 L 466.818 618.333 465.682 624.583 C 462.471 642.261,447.710 674.300,432.351 696.932 C 370.878 787.513,245.431 867.038,131.627 887.572 C 123.857 888.974,107.209 890.799,94.631 891.626 C 68.565 893.342,61.834 895.634,55.721 904.871 C 50.031 913.469,49.057 920.382,52.327 928.947 C 55.612 937.546,60.221 942.203,69.136 945.928 C 85.266 952.667,153.592 942.429,204.415 925.656 C 330.544 884.031,450.076 789.147,499.153 691.694 C 502.392 685.262,505.460 680.000,505.972 680.000 C 506.483 680.000,597.618 740.084,708.492 813.521 C 837.069 898.683,912.495 947.655,916.745 948.733 C 929.662 952.012,944.201 942.783,948.448 928.609 C 950.748 920.932,948.320 910.357,942.860 904.269 C 940.828 902.004,846.542 838.894,733.333 764.023 C 620.125 689.153,526.238 626.799,524.696 625.458 C 523.153 624.117,522.288 621.986,522.774 620.721 C 523.512 618.797,546.918 618.347,666.411 617.961 C 798.075 617.536,809.576 617.276,814.436 614.617 C 821.212 610.909,826.169 604.547,828.598 596.441 C 832.497 583.425,822.986 567.373,809.088 563.514 C 804.550 562.254,759.327 561.682,663.750 561.676 L 525.000 561.667 525.000 498.280 C 525.000 431.383,524.647 427.898,517.024 419.474 C 510.992 412.809,499.612 409.394,490.658 411.561 " stroke="none" fill-rule="evenodd" fill="#000000"></path></svg>