<svg width="1000" height="1000" viewBox="0 0 1000 1000" version="1.1" id="svg5" xmlns="http://www.w3.org/2000/svg" xmlns:svg="http://www.w3.org/2000/svg"><path d="M491.871 51.711 C 485.275 53.220,479.075 57.540,474.270 63.974 C 470.922 68.457,470.821 70.713,470.372 151.809 L 469.910 235.044 413.130 234.605 L 356.350 234.167 329.778 182.540 C 315.164 154.145,301.548 129.137,299.520 126.965 C 290.362 117.157,274.305 115.521,263.403 123.284 C 257.370 127.580,251.760 138.256,251.703 145.549 C 251.682 148.351,260.384 167.410,273.149 192.518 L 294.631 234.771 247.732 235.302 C 196.170 235.886,194.975 236.106,186.098 246.656 C 173.920 261.128,181.939 284.552,200.871 289.808 C 205.444 291.077,247.669 291.651,337.042 291.657 L 466.584 291.667 464.847 296.250 C 435.627 373.366,312.550 453.428,196.404 470.873 C 187.394 472.226,174.955 473.338,168.761 473.343 C 153.816 473.355,145.450 475.883,138.995 482.338 C 128.694 492.640,127.807 507.525,136.813 518.974 C 143.088 526.951,149.090 528.830,167.458 528.566 C 213.750 527.901,270.267 513.785,325.967 488.975 L 342.767 481.492 424.065 528.462 C 468.778 554.296,508.093 576.065,511.431 576.837 C 522.555 579.411,535.807 572.856,540.815 562.303 C 544.571 554.388,543.597 540.716,538.800 534.014 C 536.471 530.761,513.478 516.603,468.915 490.979 C 432.387 469.976,401.557 451.944,400.405 450.908 C 398.782 449.448,401.976 446.346,414.571 437.151 C 450.519 410.908,481.073 379.468,498.058 351.246 C 503.114 342.844,506.708 338.527,508.333 338.903 C 509.708 339.221,563.208 370.296,627.221 407.960 L 743.608 476.439 738.887 478.910 C 736.291 480.268,723.684 492.507,710.871 506.107 C 672.078 547.283,637.928 578.728,592.233 615.349 C 550.339 648.925,493.403 690.151,488.705 690.312 C 487.126 690.367,428.083 663.695,357.500 631.042 C 277.952 594.242,227.242 571.672,224.103 571.670 C 217.403 571.666,205.183 578.039,201.074 583.681 C 196.678 589.717,195.459 604.506,198.825 610.977 C 200.214 613.648,203.109 617.469,205.258 619.468 C 207.408 621.468,259.307 646.237,320.589 674.511 C 381.872 702.785,432.114 726.649,432.240 727.543 C 432.656 730.512,367.721 768.780,313.333 797.618 C 232.636 840.406,156.994 871.748,90.270 890.043 C 76.955 893.694,64.406 897.764,62.385 899.089 C 48.101 908.448,47.456 933.214,61.240 943.030 C 71.483 950.323,77.312 950.467,101.736 944.029 C 205.765 916.606,349.711 848.230,476.291 766.109 C 485.709 759.999,493.767 755.000,494.198 755.000 C 494.629 755.000,587.798 797.858,701.241 850.241 C 814.683 902.623,910.606 946.438,914.401 947.606 C 938.090 954.899,958.156 927.507,944.378 906.687 C 939.247 898.933,958.148 908.079,727.120 801.563 C 628.827 756.245,548.390 718.755,548.370 718.252 C 548.350 717.749,557.521 710.679,568.750 702.541 C 639.101 651.555,713.548 586.197,756.782 537.467 C 775.613 516.241,776.532 514.717,776.608 504.583 C 776.640 500.229,776.990 496.667,777.386 496.667 C 777.781 496.667,787.719 502.366,799.469 509.332 C 832.206 528.740,836.115 530.496,844.489 529.552 C 870.769 526.590,878.354 493.343,856.026 478.984 C 853.170 477.147,780.770 434.437,695.138 384.072 L 539.443 292.500 667.638 291.667 C 760.773 291.061,796.745 290.303,799.167 288.893 C 803.420 286.418,810.710 278.569,813.130 273.860 C 815.752 268.756,815.458 257.387,812.560 251.782 C 809.183 245.253,801.079 238.790,793.698 236.740 C 790.240 235.779,769.993 235.014,747.891 235.009 L 708.282 235.000 714.986 224.384 C 727.655 204.325,747.249 152.054,747.287 138.215 C 747.327 123.545,735.111 111.667,719.984 111.667 C 704.546 111.667,697.655 119.519,688.224 147.857 C 673.506 192.082,663.966 207.027,636.495 228.894 L 628.823 235.000 576.912 235.000 L 525.000 235.000 525.000 154.275 C 525.000 101.141,524.392 71.947,523.222 68.858 C 518.533 56.481,504.521 48.818,491.871 51.711 " stroke="none" fill-rule="evenodd" fill="#000000"></path></svg>