<svg width="1000" height="1000" viewBox="0 0 1000 1000" version="1.1" id="svg5" xmlns="http://www.w3.org/2000/svg" xmlns:svg="http://www.w3.org/2000/svg"><path d="M489.856 51.593 C 482.637 53.781,477.477 57.984,473.649 64.795 L 470.000 71.287 470.000 193.144 L 470.000 315.000 328.750 315.037 C 194.605 315.071,187.156 315.229,180.668 318.176 C 170.292 322.888,165.833 330.287,165.833 342.794 C 165.833 353.918,168.424 359.097,177.308 365.730 C 181.861 369.130,183.424 369.171,325.369 369.611 L 468.829 370.055 467.755 385.181 C 464.344 433.229,450.208 492.822,429.797 545.200 C 425.196 557.006,420.775 566.667,419.972 566.667 C 418.346 566.667,348.648 522.433,345.516 519.413 C 343.990 517.942,345.597 512.300,352.468 495.000 C 363.385 467.512,375.278 427.088,375.278 417.467 C 375.278 392.369,343.858 380.863,327.714 400.050 C 325.320 402.894,322.186 409.484,320.749 414.694 C 311.174 449.401,298.467 485.233,295.368 486.266 C 294.459 486.569,283.750 480.402,271.569 472.562 C 245.410 455.723,239.277 453.550,228.995 457.477 C 210.919 464.380,204.303 485.993,216.007 499.902 C 218.321 502.652,231.041 511.829,244.274 520.296 C 257.506 528.763,268.333 536.218,268.333 536.862 C 268.333 537.507,265.226 542.039,261.428 546.934 C 249.486 562.325,223.173 586.843,199.068 605.039 C 180.804 618.826,175.009 624.174,171.979 630.039 C 162.761 647.885,176.269 668.333,197.278 668.333 C 203.417 668.333,206.786 666.910,216.927 660.030 C 246.522 639.953,285.183 605.276,302.056 583.674 C 305.967 578.667,310.706 572.701,312.587 570.417 L 316.008 566.264 355.475 591.577 C 377.181 605.499,395.301 617.472,395.740 618.182 C 398.001 621.840,357.144 687.340,331.708 720.833 C 290.188 775.507,238.947 824.109,192.366 852.999 C 155.271 876.006,120.570 888.371,85.833 890.958 C 75.900 891.698,68.853 893.162,64.971 895.293 C 50.482 903.247,46.157 922.170,56.011 934.502 C 66.415 947.522,77.690 949.284,112.496 943.334 C 222.671 924.499,345.509 819.050,431.721 669.301 C 443.275 649.232,443.986 648.375,447.330 650.518 C 819.298 888.880,911.387 947.373,916.877 948.767 C 929.656 952.010,944.223 942.709,948.448 928.609 C 950.747 920.936,948.323 910.372,942.860 904.247 C 940.828 901.970,834.167 832.895,705.833 750.747 C 577.500 668.599,471.556 600.479,470.401 599.369 C 468.723 597.755,469.975 593.214,476.646 576.718 C 486.191 553.114,499.566 513.198,505.703 490.000 C 514.344 457.337,523.333 402.668,523.333 382.781 C 523.333 378.651,523.789 374.086,524.345 372.636 C 525.256 370.261,539.387 370.000,667.115 370.000 L 808.874 370.000 815.943 365.857 C 823.523 361.415,830.000 350.844,830.000 342.916 C 830.000 332.842,822.147 321.578,812.137 317.295 C 807.724 315.407,781.817 315.000,665.928 315.000 L 525.083 315.000 524.625 191.953 L 524.167 68.905 519.360 62.605 C 514.473 56.198,503.544 49.986,497.500 50.180 C 495.667 50.239,492.227 50.874,489.856 51.593 " stroke="none" fill-rule="evenodd" fill="#000000"></path></svg>