<svg width="1000" height="1000" viewBox="0 0 1000 1000" version="1.1" id="svg5" xmlns="http://www.w3.org/2000/svg" xmlns:svg="http://www.w3.org/2000/svg"><path d="M565.205 71.711 C 558.752 73.187,552.421 77.522,547.928 83.539 C 545.820 86.363,542.972 98.149,539.093 120.103 C 531.343 163.965,523.018 202.753,513.002 241.667 C 504.285 275.537,487.734 331.557,484.857 336.934 C 483.275 339.890,480.319 340.021,424.513 339.605 L 365.833 339.167 343.019 305.000 C 330.472 286.208,301.597 242.710,278.853 208.337 C 234.426 141.195,232.912 139.444,219.258 139.444 C 199.627 139.444,185.409 161.398,194.125 178.253 C 195.477 180.867,219.143 217.250,246.715 259.103 C 274.288 300.955,297.262 336.279,297.769 337.599 C 298.565 339.673,284.436 340.001,193.928 340.006 C 89.934 340.012,89.124 340.038,83.333 343.567 C 76.026 348.020,72.990 352.142,70.689 360.737 C 67.233 373.647,72.496 384.843,85.034 391.250 L 92.373 395.000 277.853 395.000 C 432.861 395.000,463.333 395.371,463.333 397.260 C 463.333 403.929,430.493 478.832,409.604 519.805 C 323.588 688.525,212.582 812.597,76.326 892.309 C 58.059 902.996,53.138 908.603,52.045 919.978 C 50.577 935.255,61.186 948.136,76.443 949.602 C 85.429 950.465,88.653 949.113,113.733 933.955 C 255.023 848.563,370.465 718.213,458.203 545.000 C 480.232 501.509,493.943 471.093,511.031 427.803 L 523.979 395.000 699.084 395.000 L 874.190 395.000 872.951 417.917 C 866.037 545.879,841.992 663.725,802.136 765.000 C 793.328 787.380,753.870 871.685,750.736 874.819 C 750.276 875.279,712.610 838.421,667.033 792.910 C 610.293 736.254,582.213 709.351,577.970 707.582 C 569.630 704.107,564.102 704.331,555.503 708.493 C 542.537 714.770,536.612 730.658,542.335 743.804 C 545.359 750.749,739.255 944.261,745.525 946.590 C 756.433 950.643,768.653 947.900,776.038 939.742 C 781.075 934.176,803.025 894.251,820.128 859.546 C 867.644 763.124,896.429 670.217,913.985 556.615 C 925.369 482.945,933.705 368.652,928.567 356.667 C 925.971 350.611,923.173 347.535,916.637 343.551 L 910.833 340.012 727.083 340.006 C 598.880 340.002,543.333 339.466,543.333 338.235 C 543.333 337.264,546.999 324.316,551.479 309.461 C 573.430 236.681,600.663 108.776,597.640 92.662 C 595.021 78.701,579.232 68.503,565.205 71.711 " stroke="none" fill-rule="evenodd" fill="black"></path></svg>