<svg width="1000" height="1000" viewBox="0 0 1000 1000" version="1.1" id="svg5" sodipodi:docname="хнЧ.svg" inkscape:version="1.2.1 (9c6d41e410, 2022-07-14)" xmlns:inkscape="http://www.inkscape.org/namespaces/inkscape" xmlns:sodipodi="http://sodipodi.sourceforge.net/DTD/sodipodi-0.dtd" xmlns="http://www.w3.org/2000/svg" xmlns:svg="http://www.w3.org/2000/svg"><path d="M183.991 51.577 C 160.983 57.073,156.189 87.972,176.216 101.695 L 182.255 105.833 460.433 106.667 L 738.612 107.500 721.389 122.584 C 677.264 161.230,626.293 199.953,570.254 237.405 C 536.099 260.232,533.083 261.900,528.793 260.332 C 526.248 259.402,474.476 234.981,413.743 206.064 C 353.011 177.146,300.735 152.772,297.574 151.900 C 279.338 146.865,259.751 166.698,264.974 184.911 C 268.757 198.101,268.572 197.994,374.757 248.333 C 429.865 274.458,474.951 296.208,474.949 296.667 C 474.940 298.039,416.508 330.276,381.667 348.130 C 297.778 391.119,210.227 425.974,142.805 443.223 C 128.306 446.933,115.021 450.964,113.283 452.181 C 97.916 462.944,97.115 485.934,111.737 496.526 C 115.356 499.148,120.857 501.769,123.961 502.352 C 130.733 503.622,168.753 494.289,204.808 482.505 C 224.766 475.982,229.455 474.976,232.803 476.501 C 235.648 477.798,290.888 478.333,421.745 478.333 C 523.452 478.333,606.667 478.932,606.667 479.664 C 606.667 482.593,492.448 600.000,489.599 600.000 C 488.903 600.000,488.333 584.743,488.333 566.095 C 488.333 533.917,488.138 531.821,484.495 524.933 C 480.192 516.796,469.544 510.000,461.097 510.000 C 452.543 510.000,442.057 516.240,437.476 524.057 C 433.439 530.945,433.333 531.976,433.328 564.313 C 433.325 582.566,432.830 610.490,432.228 626.366 L 431.133 655.233 411.817 672.276 C 308.597 763.350,193.189 839.993,88.909 886.722 C 61.779 898.879,59.433 900.328,54.837 907.764 C 47.280 919.991,51.682 937.284,64.342 945.108 C 74.092 951.134,82.824 949.961,105.833 939.532 C 210.784 891.967,309.391 829.186,410.833 745.344 L 430.833 728.814 431.855 770.657 C 433.004 817.685,434.102 823.779,445.331 845.411 C 452.824 859.847,468.365 877.649,483.227 888.821 C 521.086 917.281,582.609 934.045,670.833 939.944 C 705.444 942.258,925.012 942.211,931.142 939.889 C 946.200 934.184,953.467 914.774,945.548 901.414 C 940.705 893.243,850.680 778.291,844.979 772.998 C 828.001 757.236,800.000 770.160,800.000 793.758 C 800.000 802.997,802.424 806.739,836.434 850.000 C 851.207 868.792,863.303 884.812,863.314 885.600 C 863.349 888.167,673.876 885.676,646.667 882.753 C 581.729 875.775,539.653 863.012,513.231 842.276 C 499.218 831.279,491.998 819.991,488.539 803.668 C 486.500 794.047,486.054 684.588,488.034 679.708 C 488.657 678.173,505.776 660.923,526.076 641.375 C 585.764 583.898,692.114 472.357,697.131 461.970 C 702.712 450.414,698.263 436.598,686.184 427.983 L 680.833 424.167 518.333 423.333 L 355.833 422.500 393.333 403.791 C 437.327 381.841,501.288 346.504,532.500 326.903 C 535.448 325.052,549.025 331.097,650.000 379.219 C 712.792 409.144,766.892 434.024,770.222 434.507 C 778.874 435.764,787.236 432.452,793.824 425.160 C 803.625 414.311,803.416 398.698,793.337 388.844 C 790.186 385.763,752.446 366.967,690.066 337.411 C 635.997 311.793,591.767 290.458,591.776 290.000 C 591.785 289.542,602.384 282.042,615.330 273.333 C 647.281 251.841,700.720 211.804,730.028 187.402 C 777.297 148.046,826.181 100.212,831.220 88.384 C 837.702 73.169,827.894 55.583,810.704 51.596 C 802.871 49.779,191.595 49.761,183.991 51.577 M679.084 584.011 C 673.061 586.634,665.419 595.250,663.961 601.061 C 662.274 607.780,664.293 619.326,668.086 624.653 C 670.394 627.894,698.838 646.193,750.220 677.493 C 793.452 703.828,831.471 726.481,834.706 727.833 C 843.763 731.617,853.691 729.448,861.528 721.975 C 873.625 710.437,874.190 693.878,862.846 683.298 C 858.042 678.818,718.053 592.609,702.983 584.850 C 695.836 581.171,686.368 580.838,679.084 584.011 " stroke="none" fill-rule="evenodd" fill="black"></path></svg>