<svg width="1000" height="1000" viewBox="0 0 1000 1000" version="1.1" id="svg5" sodipodi:docname="хнг.svg" inkscape:version="1.2.1 (9c6d41e410, 2022-07-14)" xmlns:inkscape="http://www.inkscape.org/namespaces/inkscape" xmlns:sodipodi="http://sodipodi.sourceforge.net/DTD/sodipodi-0.dtd" xmlns="http://www.w3.org/2000/svg" xmlns:svg="http://www.w3.org/2000/svg"><path d="M140.177 72.714 C 134.589 75.133,127.370 82.866,125.106 88.858 C 123.907 92.031,123.327 137.359,123.313 228.858 C 123.281 437.269,119.243 550.068,108.180 651.667 C 97.541 749.375,82.243 818.336,58.273 876.651 C 49.153 898.837,48.344 905.221,53.401 915.132 C 61.916 931.824,84.934 934.462,96.970 920.126 C 106.756 908.469,123.291 864.798,134.879 820.000 C 156.441 736.644,168.654 636.580,175.055 490.833 C 176.776 451.639,179.838 249.449,179.946 167.917 L 180.000 126.667 275.000 126.667 L 370.000 126.667 370.000 263.645 L 370.000 400.624 365.417 396.388 C 351.330 383.370,224.828 287.310,218.962 285.177 C 213.281 283.111,210.912 283.032,205.287 284.717 C 186.167 290.446,178.047 311.062,188.862 326.420 C 194.259 334.086,331.213 439.646,338.750 441.950 C 346.418 444.294,355.796 441.919,363.082 435.789 C 365.777 433.522,368.435 431.667,368.991 431.667 C 370.339 431.667,369.935 704.880,368.569 716.932 L 367.500 726.363 295.833 632.089 C 256.417 580.238,222.065 535.700,219.496 533.115 C 209.951 523.510,194.132 523.140,183.724 532.279 C 173.636 541.136,170.675 553.358,176.083 563.816 C 179.960 571.313,325.780 763.024,332.519 769.483 C 341.695 778.278,353.091 779.707,364.665 773.513 C 367.875 771.795,368.191 772.177,368.997 778.746 C 369.474 782.644,370.236 800.083,370.689 817.500 C 371.642 854.152,375.003 873.497,383.260 889.855 C 392.557 908.272,406.477 919.438,428.760 926.352 C 436.629 928.794,461.560 929.115,678.968 929.575 L 920.435 930.087 927.741 926.550 C 936.295 922.409,943.333 911.885,943.333 903.237 C 943.333 897.876,898.108 740.169,891.468 722.374 C 888.460 714.314,888.332 708.112,888.739 590.708 L 889.167 467.500 910.833 466.667 C 936.447 465.682,942.362 463.168,948.395 450.707 C 953.164 440.855,951.905 431.404,944.653 422.606 C 936.977 413.294,931.583 411.667,908.387 411.667 L 888.333 411.667 888.333 281.360 C 888.333 152.468,888.295 150.974,884.840 143.836 C 882.511 139.024,878.991 135.239,874.277 132.476 L 867.207 128.333 688.187 128.340 L 509.167 128.346 503.363 131.884 C 496.824 135.870,493.984 138.993,491.535 144.889 C 490.445 147.514,489.889 195.321,489.960 280.306 L 490.070 411.667 469.982 411.667 C 447.018 411.667,441.709 413.215,433.806 422.216 C 424.950 432.303,424.474 445.459,432.582 456.088 C 439.238 464.815,442.278 465.758,466.667 466.664 L 489.167 467.500 489.507 625.470 C 489.845 782.529,489.867 783.476,493.346 789.665 C 501.737 804.595,520.342 808.971,532.870 798.961 C 542.650 791.146,544.994 784.984,544.997 767.083 L 545.000 751.667 689.167 751.667 L 833.333 751.667 833.340 767.917 C 833.345 781.539,833.918 785.105,836.884 789.971 C 841.167 796.996,843.820 799.239,852.500 803.172 L 859.167 806.193 868.750 838.818 C 874.021 856.761,878.333 872.262,878.333 873.263 C 878.333 874.573,817.392 874.955,661.250 874.625 C 424.144 874.124,436.851 874.674,432.074 864.707 C 426.071 852.181,426.051 851.042,425.100 467.500 C 424.168 91.549,424.160 90.822,420.748 85.000 C 418.868 81.792,414.360 77.522,410.729 75.511 L 404.129 71.856 274.325 71.345 C 180.608 70.975,143.313 71.356,140.177 72.714 M661.262 297.917 L 661.690 411.667 603.345 411.667 L 545.000 411.667 545.000 297.478 L 545.000 183.290 602.917 183.728 L 660.833 184.167 661.262 297.917 M833.333 297.500 L 833.333 411.667 775.000 411.667 L 716.667 411.667 716.667 297.500 L 716.667 183.333 775.000 183.333 L 833.333 183.333 833.333 297.500 M661.262 581.250 L 661.690 695.000 603.345 695.000 L 545.000 695.000 545.000 580.812 L 545.000 466.623 602.917 467.062 L 660.833 467.500 661.262 581.250 M832.928 581.250 L 833.356 695.000 775.012 695.000 L 716.667 695.000 716.667 581.944 C 716.667 519.764,717.176 468.379,717.799 467.756 C 718.422 467.133,744.485 466.821,775.716 467.062 L 832.500 467.500 832.928 581.250 " stroke="none" fill-rule="evenodd" fill="black"></path></svg>