<svg width="1000" height="1000" viewBox="0 0 1000 1000" version="1.1" id="svg5" sodipodi:docname="хнж.svg" inkscape:version="1.2.1 (9c6d41e410, 2022-07-14)" xmlns:inkscape="http://www.inkscape.org/namespaces/inkscape" xmlns:sodipodi="http://sodipodi.sourceforge.net/DTD/sodipodi-0.dtd" xmlns="http://www.w3.org/2000/svg" xmlns:svg="http://www.w3.org/2000/svg"><path d="M233.487 51.936 C 230.363 54.079,226.238 57.950,224.320 60.537 C 220.937 65.100,220.819 67.244,220.362 132.620 L 219.892 200.000 173.696 200.037 C 121.891 200.078,117.705 200.855,109.835 211.889 L 105.833 217.500 105.402 491.701 L 104.971 765.901 108.735 773.360 C 118.777 793.256,147.709 792.898,157.265 772.759 C 159.763 767.495,160.000 744.919,160.000 511.831 L 160.000 256.667 189.988 256.667 L 219.976 256.667 220.405 593.211 L 220.833 929.756 224.270 934.358 C 230.903 943.242,236.081 945.833,247.206 945.833 C 255.316 945.833,258.655 945.010,262.942 941.952 C 274.751 933.529,274.075 941.429,275.000 801.154 L 275.833 674.809 306.667 741.839 C 328.448 789.190,339.087 810.484,342.905 814.367 C 356.535 828.232,378.634 824.034,386.811 806.027 C 389.745 799.567,389.929 793.163,389.963 696.250 L 390.000 593.333 440.241 593.333 L 490.481 593.333 489.358 628.750 C 485.585 747.720,475.800 824.611,458.020 875.000 C 447.211 905.632,447.770 915.983,460.769 925.897 C 475.777 937.345,495.378 930.846,503.690 911.667 C 526.442 859.163,540.761 761.863,544.649 633.333 L 545.833 594.167 652.083 593.738 L 758.333 593.309 758.333 694.894 L 758.333 796.479 750.588 793.053 C 732.039 784.848,711.830 798.021,711.703 818.400 C 711.655 826.218,760.442 916.548,768.999 924.483 C 782.034 936.571,802.285 932.535,811.310 916.051 C 813.942 911.244,814.203 898.344,814.624 752.083 L 815.081 593.333 872.124 593.327 C 926.913 593.321,929.391 593.184,934.839 589.863 C 942.368 585.273,946.093 580.489,948.040 572.913 C 951.299 560.233,945.635 548.387,933.299 542.083 C 926.124 538.417,924.728 538.333,870.524 538.333 L 815.089 538.333 814.628 393.750 C 814.210 262.882,813.905 248.692,811.408 244.167 C 807.834 237.688,802.026 232.341,796.142 230.111 C 792.954 228.903,746.545 228.333,651.368 228.333 C 511.776 228.333,511.265 228.346,505.007 231.863 C 501.552 233.805,497.138 238.219,495.196 241.673 C 491.676 247.937,491.667 248.348,491.667 393.144 L 491.667 538.333 440.866 538.333 L 390.065 538.333 389.616 379.583 C 389.110 200.984,390.146 214.559,376.329 205.410 L 369.419 200.833 322.209 200.301 L 275.000 199.768 274.963 135.301 C 274.930 76.036,274.676 70.282,271.824 64.002 C 267.497 54.473,259.884 49.486,248.442 48.687 C 240.785 48.151,238.176 48.718,233.487 51.936 M470.658 63.226 C 447.635 68.806,442.854 99.638,462.883 113.362 L 468.922 117.500 652.378 117.500 C 823.149 117.500,836.198 117.301,841.103 114.617 C 847.879 110.909,852.836 104.547,855.265 96.441 C 858.627 85.218,852.402 71.566,841.103 65.383 C 836.208 62.705,823.031 62.481,655.833 62.236 C 556.833 62.090,473.504 62.536,470.658 63.226 M335.000 461.667 C 335.000 574.417,334.438 666.642,333.750 666.611 C 333.063 666.581,329.875 661.155,326.667 654.554 C 322.038 645.031,319.457 641.778,314.167 638.804 C 302.713 632.363,290.352 634.179,280.417 643.763 L 275.000 648.987 275.000 452.827 L 275.000 256.667 305.000 256.667 L 335.000 256.667 335.000 461.667 M758.333 410.833 L 758.333 538.333 652.500 538.333 L 546.667 538.333 546.667 410.833 L 546.667 283.333 652.500 283.333 L 758.333 283.333 758.333 410.833 " stroke="none" fill-rule="evenodd" fill="#000000"></path></svg>