<svg width="1000" height="1000" viewBox="0 0 1000 1000" version="1.1" id="svg5" xmlns="http://www.w3.org/2000/svg" xmlns:svg="http://www.w3.org/2000/svg"><path d="M601.234 52.328 C 593.375 55.200,590.986 57.187,586.270 64.771 L 582.500 70.833 582.032 192.917 L 581.563 315.000 502.448 315.000 L 423.333 315.000 423.294 235.417 C 423.272 191.646,422.571 152.891,421.738 149.296 C 419.651 140.301,415.277 134.834,406.633 130.417 L 399.294 126.667 241.043 126.667 L 82.793 126.667 75.723 130.810 C 70.992 133.583,67.490 137.357,65.135 142.222 L 61.616 149.491 62.058 463.496 C 62.474 758.846,62.673 777.817,65.415 782.831 C 69.927 791.081,78.923 797.065,87.987 797.844 C 97.667 798.675,105.233 795.041,112.343 786.142 C 117.143 780.136,117.459 778.823,118.068 762.392 L 118.711 745.000 242.689 745.000 L 366.667 745.000 366.676 757.917 C 366.688 774.073,368.810 781.861,375.174 789.110 C 387.532 803.185,410.208 799.978,419.585 782.831 C 422.308 777.850,422.529 764.109,422.949 573.750 L 423.398 370.000 502.777 370.000 L 582.156 370.000 581.001 389.583 C 573.302 520.078,522.950 671.998,451.880 779.157 C 429.015 813.633,399.445 847.049,375.540 865.425 C 354.999 881.216,330.587 891.515,313.333 891.669 C 300.089 891.788,286.667 905.674,286.667 919.258 C 286.667 933.717,300.913 946.667,316.820 946.667 C 336.809 946.667,366.267 936.830,388.977 922.572 C 475.357 868.341,559.224 731.729,604.963 570.747 C 609.404 555.117,614.690 534.492,616.710 524.914 C 618.729 515.336,620.944 506.890,621.630 506.144 C 622.317 505.398,682.691 602.723,755.795 722.421 C 828.899 842.120,890.599 941.540,892.906 943.355 C 915.954 961.484,947.092 935.104,933.586 908.892 C 931.774 905.376,863.824 793.750,782.586 660.833 L 634.881 419.167 635.988 395.833 C 636.598 383.000,637.419 371.938,637.813 371.250 C 638.207 370.563,682.071 370.000,735.288 370.000 C 829.795 370.000,832.188 369.920,838.135 366.578 C 852.931 358.262,857.262 339.606,847.294 327.130 C 837.159 314.445,842.364 315.005,734.583 315.003 L 638.333 315.000 638.260 195.417 C 638.183 69.165,638.120 68.052,630.579 59.719 C 623.536 51.937,610.966 48.771,601.234 52.328 M214.589 436.250 L 215.011 690.000 166.672 690.000 L 118.333 690.000 118.333 435.808 L 118.333 181.616 166.250 182.058 L 214.167 182.500 214.589 436.250 M366.667 435.833 L 366.667 690.000 318.333 690.000 L 270.000 690.000 270.000 436.944 C 270.000 297.764,270.500 183.389,271.111 182.778 C 271.722 182.167,293.472 181.667,319.444 181.667 L 366.667 181.667 366.667 435.833 " stroke="none" fill-rule="evenodd" fill="#000000"></path></svg>