<svg width="1000" height="1000" viewBox="0 0 1000 1000" version="1.1" id="svg5" xmlns="http://www.w3.org/2000/svg" xmlns:svg="http://www.w3.org/2000/svg"><path d="M400.614 45.147 C 393.591 47.183,383.799 58.324,382.379 65.895 C 380.103 78.026,383.406 83.363,413.035 115.424 C 428.324 131.968,448.488 153.828,457.843 164.002 L 474.852 182.500 329.509 183.333 L 184.167 184.167 177.500 188.029 C 167.828 193.634,164.446 199.081,163.629 210.370 C 163.026 218.708,163.536 220.976,167.290 226.649 C 175.481 239.025,175.893 239.104,235.417 239.670 L 288.333 240.173 288.301 248.003 C 288.167 279.959,282.587 394.154,280.731 402.917 L 279.936 406.667 182.198 406.667 L 84.460 406.667 77.390 410.810 C 69.752 415.286,63.333 425.836,63.333 433.913 C 63.333 443.999,72.104 456.083,82.192 459.894 C 85.305 461.070,118.592 461.667,181.127 461.667 L 275.371 461.667 274.356 467.083 C 273.798 470.063,272.557 478.875,271.599 486.667 C 268.867 508.883,261.977 548.631,256.432 574.167 C 236.050 668.026,208.360 734.714,165.717 792.646 C 150.400 813.454,118.895 843.600,91.842 863.333 C 59.748 886.743,53.531 892.543,51.646 900.833 C 49.504 910.252,52.392 919.451,59.826 926.885 C 67.064 934.123,75.557 936.359,85.030 933.521 C 99.576 929.163,163.115 879.282,185.639 854.539 C 247.138 786.981,287.815 696.671,313.613 570.417 C 315.720 560.104,317.963 551.667,318.598 551.667 C 319.232 551.667,353.877 591.666,395.587 640.554 C 437.298 689.442,474.016 731.717,477.184 734.499 C 498.423 753.147,531.992 727.013,518.680 702.192 C 517.114 699.272,475.333 649.447,425.833 591.469 C 376.333 533.491,334.203 483.755,332.211 480.944 C 329.292 476.825,328.812 474.539,329.739 469.167 L 330.888 462.500 400.861 461.667 C 451.264 461.066,471.818 460.269,474.355 458.814 C 480.579 455.244,488.136 445.246,489.300 439.042 C 490.802 431.038,487.513 420.590,481.645 414.721 L 476.923 410.000 537.792 410.000 L 598.661 410.000 597.564 420.417 C 580.271 584.716,550.661 690.178,499.650 769.167 C 473.945 808.970,445.722 837.106,394.324 874.167 C 379.832 884.617,375.000 889.122,371.979 895.000 C 362.707 913.043,376.094 933.333,397.271 933.333 C 403.757 933.333,406.897 931.958,418.686 923.954 C 487.817 877.020,528.948 832.948,564.704 767.500 C 591.387 718.657,618.486 638.870,631.074 572.083 C 632.672 563.604,634.397 556.677,634.906 556.689 C 635.416 556.701,694.696 638.638,766.640 738.772 C 838.583 838.906,899.746 923.196,902.556 926.083 C 913.365 937.188,929.855 937.145,941.017 925.983 C 949.886 917.114,951.400 905.292,945.160 893.633 C 944.130 891.709,876.484 797.291,794.836 683.817 C 652.892 486.545,646.425 477.244,647.322 471.667 C 647.838 468.458,649.543 453.296,651.111 437.973 L 653.962 410.113 740.161 409.640 L 826.360 409.167 832.763 404.048 C 845.907 393.541,848.579 378.026,839.332 365.902 C 830.086 353.780,833.657 354.224,741.020 353.663 L 657.873 353.160 658.911 331.997 C 659.482 320.357,660.444 294.896,661.049 275.417 L 662.148 240.000 733.991 239.991 C 777.416 239.985,808.241 239.313,811.919 238.291 C 819.627 236.150,829.451 225.455,830.925 217.599 C 833.278 205.055,827.576 193.333,816.051 187.023 C 811.288 184.415,799.473 184.094,680.343 183.333 L 549.854 182.500 489.012 116.667 C 449.579 73.999,425.760 49.514,421.323 47.083 C 414.098 43.127,409.173 42.666,400.614 45.147 M605.609 273.750 C 605.052 292.313,604.124 317.625,603.548 330.000 L 602.500 352.500 520.833 353.333 C 449.154 354.065,438.555 354.502,434.163 356.913 C 417.652 365.973,413.924 385.634,426.032 399.781 L 431.926 406.667 384.068 406.667 L 336.210 406.667 337.287 391.250 C 340.013 352.219,341.630 319.296,342.689 281.250 L 343.836 240.000 475.229 240.000 L 606.622 240.000 605.609 273.750 " stroke="none" fill-rule="evenodd" fill="#000000"></path></svg>