<svg width="1000" height="1000" viewBox="0 0 1000 1000" version="1.1" id="svg5" sodipodi:docname="хоЪ.svg" inkscape:version="1.2.1 (9c6d41e410, 2022-07-14)" xmlns:inkscape="http://www.inkscape.org/namespaces/inkscape" xmlns:sodipodi="http://sodipodi.sourceforge.net/DTD/sodipodi-0.dtd" xmlns="http://www.w3.org/2000/svg" xmlns:svg="http://www.w3.org/2000/svg"><path d="M746.154 51.154 C 739.227 52.268,727.205 64.534,725.832 71.889 C 723.894 82.273,736.150 925.115,738.323 930.833 C 742.396 941.555,752.653 948.611,764.167 948.611 C 778.323 948.611,789.950 937.882,791.185 923.680 C 791.560 919.364,789.211 726.171,785.965 494.361 C 780.464 101.601,779.861 72.485,777.114 66.968 C 771.378 55.447,758.947 49.098,746.154 51.154 M364.856 96.593 C 358.527 98.511,352.310 102.959,348.866 108.032 C 345.984 112.279,345.792 123.106,345.000 326.667 L 344.167 540.833 281.250 541.270 L 218.333 541.707 218.333 417.767 L 218.333 293.826 214.583 288.316 C 208.952 280.042,202.840 276.290,193.536 275.396 C 182.179 274.305,171.822 280.184,166.790 290.579 C 163.268 297.855,163.260 298.214,163.713 437.949 L 164.167 578.025 169.285 584.429 C 179.370 597.047,176.390 596.661,263.826 596.664 L 341.818 596.667 340.930 602.083 C 340.441 605.063,338.847 615.000,337.386 624.167 C 325.344 699.733,296.205 767.462,259.638 804.882 C 232.773 832.373,205.921 845.344,169.688 848.336 C 150.376 849.930,144.390 852.115,137.765 859.989 C 125.439 874.637,133.659 898.036,152.957 903.232 C 166.719 906.938,204.565 900.883,229.788 890.941 C 272.791 873.990,313.951 834.868,341.727 784.544 C 368.391 736.234,388.588 669.816,395.942 606.250 L 397.051 596.667 461.025 596.667 L 525.000 596.667 525.000 610.054 C 525.000 625.841,527.309 632.292,535.549 639.527 C 548.967 651.308,568.738 647.212,576.572 631.028 C 580.033 623.879,580.046 623.151,579.607 458.044 L 579.167 292.240 574.364 285.943 C 562.510 270.404,537.969 271.984,528.725 288.881 C 526.077 293.722,525.763 304.547,525.000 417.500 L 524.167 540.833 462.083 541.270 L 400.000 541.707 399.963 330.437 C 399.928 128.998,399.784 118.856,396.865 112.500 C 393.224 104.570,389.507 101.017,381.243 97.564 C 374.571 94.776,371.459 94.592,364.856 96.593 " stroke="none" fill-rule="evenodd" fill="black"></path></svg>