<svg width="1000" height="1000" viewBox="0 0 1000 1000" version="1.1" id="svg5" xmlns="http://www.w3.org/2000/svg" xmlns:svg="http://www.w3.org/2000/svg"><path d="M490.000 106.114 C 483.042 108.976,477.491 114.776,473.664 123.182 C 467.404 136.932,442.672 183.602,417.058 230.000 C 332.362 383.418,243.211 519.678,165.164 615.000 C 140.834 644.715,128.468 658.327,94.759 692.500 C 77.578 709.917,62.729 726.278,61.761 728.858 C 56.896 741.820,63.030 757.135,75.503 763.173 C 90.755 770.557,97.744 767.433,124.450 741.289 C 237.952 630.179,357.738 455.641,496.797 198.750 C 499.899 193.021,502.825 188.341,503.301 188.351 C 503.777 188.361,590.107 317.894,695.146 476.202 C 823.640 669.862,888.148 765.673,892.310 769.041 C 897.424 773.180,900.007 774.048,907.223 774.048 C 923.346 774.048,935.000 762.309,935.000 746.068 C 935.000 737.565,950.929 762.066,685.232 361.881 C 599.801 233.207,527.979 124.645,525.627 120.632 C 519.537 110.240,512.989 106.097,501.776 105.543 C 496.674 105.291,491.375 105.548,490.000 106.114 M488.367 455.417 C 479.723 459.834,475.349 465.301,473.262 474.296 C 472.403 478.000,471.729 558.275,471.706 659.523 L 471.667 838.212 347.917 838.689 L 224.167 839.167 218.001 843.001 C 203.354 852.108,199.776 870.791,210.153 883.982 C 218.534 894.638,210.871 894.051,358.333 895.337 C 432.125 895.981,495.875 896.507,500.000 896.507 C 504.125 896.507,567.875 895.981,641.667 895.337 C 764.366 894.267,776.284 893.920,781.103 891.283 C 804.001 878.754,798.986 845.657,773.356 840.161 C 767.630 838.933,726.057 838.333,646.585 838.333 L 528.333 838.333 528.294 659.583 C 528.271 558.299,527.597 478.000,526.738 474.296 C 525.904 470.700,523.815 465.825,522.096 463.462 C 518.328 458.282,505.936 451.667,500.000 451.667 C 497.638 451.667,492.404 453.354,488.367 455.417 " stroke="none" fill-rule="evenodd" fill="black"></path></svg>