<svg width="1000" height="1000" viewBox="0 0 1000 1000" version="1.1" id="svg5" sodipodi:docname="寒.svg" inkscape:version="1.3 (0e150ed6c4, 2023-07-21)" xmlns:inkscape="http://www.inkscape.org/namespaces/inkscape" xmlns:sodipodi="http://sodipodi.sourceforge.net/DTD/sodipodi-0.dtd" xmlns="http://www.w3.org/2000/svg" xmlns:svg="http://www.w3.org/2000/svg"><path d="M225.000 67.869 C 218.842 70.183,212.698 76.046,209.842 82.335 C 206.890 88.836,206.740 96.461,206.743 240.000 C 206.745 324.667,207.411 393.701,208.262 397.371 C 212.367 415.068,231.631 425.329,246.333 417.649 C 252.828 414.255,259.955 406.245,261.449 400.659 L 262.740 395.833 500.000 395.833 L 737.260 395.833 738.551 400.659 C 740.045 406.245,747.172 414.255,753.667 417.649 C 769.965 426.163,790.036 413.331,792.482 392.833 C 793.051 388.066,793.288 317.417,793.008 235.833 C 792.548 101.532,792.239 87.027,789.742 82.500 C 786.168 76.022,780.359 70.674,774.475 68.444 C 769.544 66.576,229.945 66.011,225.000 67.869 M471.667 162.500 L 471.667 203.333 367.500 203.333 L 263.333 203.333 263.333 162.500 L 263.333 121.667 367.500 121.667 L 471.667 121.667 471.667 162.500 M736.667 162.500 L 736.667 203.333 632.500 203.333 L 528.333 203.333 528.333 162.500 L 528.333 121.667 632.500 121.667 L 736.667 121.667 736.667 162.500 M471.667 299.167 L 471.667 340.000 367.500 340.000 L 263.333 340.000 263.333 299.167 L 263.333 258.333 367.500 258.333 L 471.667 258.333 471.667 299.167 M736.667 299.167 L 736.667 340.000 632.500 340.000 L 528.333 340.000 528.333 299.167 L 528.333 258.333 632.500 258.333 L 736.667 258.333 736.667 299.167 M334.705 460.000 C 176.902 460.825,175.195 460.869,170.641 464.270 C 161.757 470.903,159.167 476.082,159.167 487.206 C 159.167 499.713,163.625 507.112,174.002 511.824 C 180.495 514.773,188.041 514.929,326.250 514.963 L 471.667 515.000 471.667 580.000 L 471.667 645.000 284.946 645.000 C 80.806 645.000,91.613 644.473,82.883 654.849 C 73.744 665.709,73.752 679.300,82.903 690.175 C 91.610 700.523,80.856 700.000,284.946 700.000 L 471.667 700.000 471.676 802.917 C 471.682 872.863,472.275 907.957,473.526 912.462 C 478.782 931.394,502.205 939.413,516.677 927.235 C 528.011 917.699,527.450 923.707,527.975 806.271 L 528.450 700.042 717.437 699.604 C 905.371 699.169,906.449 699.148,911.025 695.730 C 928.071 683.003,928.071 661.997,911.025 649.270 C 906.449 645.852,905.372 645.831,717.378 645.396 L 528.333 644.958 528.333 579.979 L 528.333 515.000 673.750 514.963 C 811.959 514.929,819.505 514.773,825.998 511.824 C 843.569 503.845,847.030 479.648,832.434 466.832 C 829.301 464.082,824.284 461.408,821.286 460.891 C 813.505 459.550,522.682 459.018,334.705 460.000 " stroke="none" fill-rule="evenodd" fill="black"></path></svg>