<svg width="1000" height="1000" viewBox="0 0 1000 1000" version="1.1" id="svg5" sodipodi:docname="将.svg" inkscape:version="1.2.1 (9c6d41e410, 2022-07-14)" xmlns:inkscape="http://www.inkscape.org/namespaces/inkscape" xmlns:sodipodi="http://sodipodi.sourceforge.net/DTD/sodipodi-0.dtd" xmlns="http://www.w3.org/2000/svg" xmlns:svg="http://www.w3.org/2000/svg"><path d="M490.000 52.015 C 484.030 53.633,476.234 59.886,472.773 65.833 C 471.452 68.104,470.568 86.966,470.000 125.000 L 469.167 180.833 328.203 181.667 L 187.239 182.500 181.354 186.989 C 164.878 199.558,167.097 224.263,185.503 233.173 C 192.650 236.633,194.030 236.667,329.926 236.667 L 467.133 236.667 466.183 245.417 C 464.837 257.823,457.620 281.527,449.636 299.769 C 408.701 393.299,294.733 492.896,132.914 576.554 C 115.270 585.676,92.208 596.974,81.667 601.660 C 60.819 610.928,54.661 616.017,51.492 626.594 C 46.163 644.377,65.127 664.956,82.854 660.627 C 99.646 656.526,212.059 598.717,237.005 581.354 L 241.510 578.218 242.005 654.526 C 242.441 721.801,242.827 731.425,245.258 735.833 C 248.832 742.312,254.641 747.659,260.525 749.889 C 263.664 751.078,299.351 751.667,368.373 751.667 L 471.528 751.667 472.014 839.708 L 472.500 927.748 476.638 933.785 C 488.292 950.787,511.708 950.787,523.362 933.785 L 527.500 927.748 527.986 839.708 L 528.472 751.667 614.871 751.667 L 701.271 751.667 703.234 759.461 C 708.291 779.546,731.655 788.209,746.677 775.568 C 757.887 766.136,757.449 770.177,757.985 671.264 C 758.308 611.530,757.877 579.495,756.691 575.090 C 753.221 562.204,742.338 553.333,730.000 553.333 C 717.873 553.333,705.949 562.719,703.240 574.397 C 702.418 577.937,701.728 606.896,701.706 638.750 L 701.667 696.667 615.052 696.667 L 528.438 696.667 527.969 576.250 C 527.453 443.796,527.960 450.193,517.308 441.813 C 506.804 433.551,493.196 433.551,482.692 441.813 C 472.040 450.193,472.547 443.796,472.031 576.250 L 471.562 696.667 384.948 696.667 L 298.333 696.667 298.294 638.750 C 298.272 606.896,297.570 577.833,296.734 574.167 C 295.668 569.488,292.975 565.457,287.705 560.651 L 280.195 553.802 294.663 543.984 C 314.572 530.474,350.828 502.453,370.728 485.195 C 425.418 437.767,470.310 382.945,493.553 335.200 C 499.063 323.883,503.298 317.092,504.577 317.523 C 505.720 317.909,596.313 394.561,705.895 487.862 C 817.268 582.687,908.141 658.856,911.950 660.574 C 935.833 671.347,959.825 641.682,944.472 620.361 C 942.471 617.582,846.708 535.283,731.667 437.474 C 616.625 339.665,522.238 258.497,521.919 257.100 C 521.599 255.703,521.841 250.534,522.455 245.613 L 523.573 236.667 665.427 236.667 C 806.041 236.667,807.344 236.636,814.497 233.173 C 829.697 225.815,834.604 206.036,824.512 192.805 C 815.539 181.041,824.397 181.667,666.831 181.667 L 525.000 181.667 525.000 128.280 C 525.000 72.128,524.489 67.723,517.024 59.474 C 510.796 52.592,499.437 49.457,490.000 52.015 " stroke="none" fill-rule="evenodd" fill="#000000"></path></svg>