<svg width="1000" height="1000" viewBox="0 0 1000 1000" version="1.1" id="svg5" xmlns="http://www.w3.org/2000/svg" xmlns:svg="http://www.w3.org/2000/svg"><path d="M794.602 148.437 C 786.504 152.713,785.981 153.595,769.481 190.833 C 654.561 450.187,507.177 626.166,310.477 738.894 C 280.809 755.896,238.741 777.071,204.072 792.454 C 173.734 805.915,172.599 806.638,168.171 815.318 C 158.993 833.308,172.264 855.000,192.447 855.000 C 204.675 855.000,300.912 808.983,350.000 779.664 C 510.322 683.907,634.758 553.600,740.407 370.833 C 766.929 324.953,800.845 257.102,824.134 203.333 C 833.927 180.725,835.231 176.521,834.580 169.654 C 832.730 150.141,812.106 139.196,794.602 148.437 " stroke="none" fill-rule="evenodd" fill="black"></path></svg>