<svg width="1000" height="1000" viewBox="0 0 1000 1000" version="1.1" id="svg5" xmlns="http://www.w3.org/2000/svg" xmlns:svg="http://www.w3.org/2000/svg"><path d="M625.614 51.741 C 619.591 53.571,608.770 64.806,607.667 70.375 C 607.254 72.460,606.088 106.417,605.074 145.833 C 604.061 185.250,602.516 228.375,601.640 241.667 C 586.629 469.473,545.930 614.689,471.033 707.674 C 456.491 725.729,431.285 749.461,406.391 768.538 C 395.174 777.134,382.776 787.071,378.841 790.620 C 366.781 801.498,365.490 816.414,375.613 827.943 C 385.588 839.304,397.580 841.175,410.833 833.436 C 421.421 827.254,450.064 804.871,471.859 785.747 C 548.121 718.831,601.080 611.420,629.377 466.264 C 632.011 452.752,634.610 441.689,635.152 441.681 C 635.694 441.673,695.954 529.400,769.064 636.631 C 872.150 787.827,903.328 832.421,907.950 835.278 C 915.074 839.681,926.885 840.030,934.554 836.064 C 945.218 830.549,951.571 816.787,948.532 805.783 C 947.646 802.575,880.607 702.649,799.556 583.725 C 718.504 464.801,650.967 365.600,649.472 363.277 C 646.952 359.359,646.990 356.767,650.002 327.444 C 656.615 263.052,661.617 166.087,661.648 101.667 C 661.659 77.170,661.195 71.585,658.747 66.785 C 652.525 54.582,637.988 47.982,625.614 51.741 M302.228 55.857 C 290.631 62.808,288.339 69.818,288.302 98.443 C 288.262 129.607,285.532 209.654,283.277 245.833 C 272.158 424.168,240.408 563.595,190.706 652.353 C 162.338 703.011,132.403 736.527,80.833 775.368 C 57.981 792.580,53.967 796.703,51.582 805.417 C 46.534 823.860,64.811 842.767,83.553 838.488 C 90.947 836.800,91.000 836.769,107.500 824.395 C 143.584 797.332,181.470 761.836,201.133 736.667 C 251.727 671.908,289.649 578.497,311.922 463.767 C 314.990 447.964,317.895 435.027,318.377 435.017 C 318.860 435.008,354.463 478.569,397.495 531.821 C 479.388 633.161,481.106 635.000,493.838 635.000 C 502.829 635.000,513.417 628.409,517.829 620.067 C 522.444 611.339,522.692 604.382,518.668 596.489 C 517.018 593.253,474.779 540.032,424.803 478.220 C 374.827 416.407,332.739 363.958,331.275 361.667 C 328.893 357.938,328.846 355.485,330.829 338.333 C 337.496 280.671,341.465 212.079,342.642 134.167 L 343.574 72.500 339.670 65.867 C 331.728 52.377,315.343 47.996,302.228 55.857 M72.889 895.139 C 61.135 897.923,54.143 904.923,51.484 916.569 C 48.501 929.634,57.622 944.463,70.912 948.152 C 80.257 950.747,919.743 950.747,929.088 948.152 C 952.230 941.728,956.014 910.862,935.244 897.946 L 929.167 894.167 504.167 893.909 C 259.846 893.761,76.498 894.284,72.889 895.139 " stroke="none" fill-rule="evenodd" fill="black"></path></svg>