<svg width="1000" height="1000" viewBox="0 0 1000 1000" version="1.1" id="svg5" inkscape:version="1.2.1 (9c6d41e410, 2022-07-14)" sodipodi:docname="тид.svg" xmlns:inkscape="http://www.inkscape.org/namespaces/inkscape" xmlns:sodipodi="http://sodipodi.sourceforge.net/DTD/sodipodi-0.dtd" xmlns="http://www.w3.org/2000/svg" xmlns:svg="http://www.w3.org/2000/svg"><path d="M597.759 54.078 C 594.234 55.346,589.450 58.134,587.127 60.275 C 578.039 68.650,578.333 63.219,578.333 222.302 L 578.333 369.710 564.134 389.164 C 498.694 478.815,420.403 553.207,329.023 612.564 C 279.976 644.423,212.770 679.411,143.737 709.026 C 123.334 717.779,104.808 726.141,102.569 727.608 C 97.541 730.903,91.667 742.661,91.667 749.431 C 91.667 752.205,93.394 757.742,95.505 761.733 C 99.941 770.123,110.516 776.667,119.636 776.667 C 129.199 776.667,217.313 737.984,266.667 712.119 C 343.096 672.064,411.439 626.182,463.333 580.088 C 501.612 546.087,549.141 497.536,569.167 471.976 C 572.833 467.296,576.396 463.437,577.083 463.400 C 577.771 463.363,578.333 551.237,578.333 658.675 L 578.333 854.016 537.917 813.896 C 494.385 770.685,491.496 768.616,477.882 770.903 C 468.574 772.467,457.466 783.210,455.761 792.298 C 453.041 806.797,453.448 807.311,523.058 877.204 C 560.294 914.592,590.263 943.342,594.044 945.305 C 607.027 952.043,623.219 946.624,630.038 933.259 C 633.281 926.903,633.333 922.483,633.333 657.484 C 633.333 410.667,633.563 387.722,636.079 382.834 C 637.589 379.900,642.349 372.250,646.657 365.833 C 658.901 347.599,684.678 302.999,685.916 297.906 C 689.624 282.660,674.814 265.000,658.320 265.000 C 652.041 265.000,640.709 270.577,637.922 275.039 C 636.791 276.851,635.295 278.333,634.599 278.333 C 633.903 278.333,633.333 232.632,633.333 176.775 C 633.333 108.885,632.744 73.662,631.556 70.525 C 626.479 57.126,610.674 49.435,597.759 54.078 " stroke="none" fill-rule="evenodd" fill="black"></path></svg>