<svg width="1000" height="1000" viewBox="0 0 1000 1000" version="1.1" id="svg5" sodipodi:docname="тиФ.svg" inkscape:version="1.2.1 (9c6d41e410, 2022-07-14)" xmlns:inkscape="http://www.inkscape.org/namespaces/inkscape" xmlns:sodipodi="http://sodipodi.sourceforge.net/DTD/sodipodi-0.dtd" xmlns="http://www.w3.org/2000/svg" xmlns:svg="http://www.w3.org/2000/svg"><path d="M485.372 53.438 C 480.795 55.763,476.768 59.577,474.122 64.093 L 470.000 71.126 470.000 123.038 L 470.000 174.950 312.622 175.392 C 156.616 175.829,155.203 175.863,150.641 179.270 C 148.110 181.160,144.493 184.777,142.603 187.308 C 139.190 191.879,139.163 193.125,138.686 368.038 C 138.421 464.909,138.646 546.620,139.185 549.619 C 141.126 560.425,154.986 571.719,166.196 571.630 C 173.481 571.573,184.118 565.920,188.498 559.778 C 192.067 554.774,192.590 551.910,193.333 533.333 L 194.167 512.500 331.250 512.074 L 468.333 511.647 468.327 515.407 C 468.293 534.005,455.920 580.196,442.938 610.183 C 419.169 665.088,386.345 712.058,337.564 760.968 C 280.172 818.512,220.141 857.623,156.604 878.867 C 133.437 886.612,118.543 889.620,92.500 891.813 C 74.828 893.301,69.557 894.373,63.910 897.629 C 56.566 901.862,49.968 912.553,50.037 920.110 C 50.099 927.042,56.019 937.670,62.615 942.693 C 68.695 947.324,69.573 947.494,86.547 947.328 C 162.624 946.585,258.157 903.983,340.000 834.303 C 416.279 769.360,477.594 683.031,505.623 601.111 C 506.198 599.431,507.483 598.328,508.478 598.659 C 509.474 598.991,598.762 676.491,706.896 770.881 C 815.030 865.272,906.788 944.262,910.803 946.416 C 916.607 949.529,919.485 950.098,924.846 949.193 C 934.352 947.587,941.868 942.037,946.344 933.320 C 950.370 925.480,950.392 918.009,946.415 909.280 C 945.372 906.991,849.396 822.145,733.135 720.732 L 521.751 536.347 522.683 526.090 C 523.195 520.449,523.905 514.892,524.259 513.741 C 524.770 512.078,553.813 511.735,665.368 512.074 L 805.833 512.500 806.667 533.333 C 807.410 551.910,807.933 554.774,811.502 559.778 C 815.844 565.865,826.503 571.572,833.642 571.630 C 843.758 571.713,855.059 563.883,859.372 553.804 C 862.784 545.829,862.784 200.837,859.372 192.863 C 856.597 186.377,849.193 179.185,842.808 176.773 C 839.615 175.566,788.121 175.000,681.558 175.000 L 525.000 175.000 524.997 123.750 C 524.995 66.539,524.830 65.591,513.303 56.390 C 505.057 49.808,494.676 48.711,485.372 53.438 M469.595 343.750 L 470.023 456.667 331.678 456.667 L 193.333 456.667 193.333 344.444 C 193.333 282.722,193.838 231.718,194.454 231.101 C 195.070 230.485,257.133 230.173,332.371 230.407 L 469.167 230.833 469.595 343.750 M806.667 343.333 L 806.667 456.667 665.833 456.667 L 525.000 456.667 525.000 343.333 L 525.000 230.000 665.833 230.000 L 806.667 230.000 806.667 343.333 " stroke="none" fill-rule="evenodd" fill="#000000"></path></svg>