<svg width="1000" height="1000" viewBox="0 0 1000 1000" version="1.1" id="svg5" sodipodi:docname="ти╗.svg" inkscape:version="1.3 (0e150ed6c4, 2023-07-21)" xmlns:inkscape="http://www.inkscape.org/namespaces/inkscape" xmlns:sodipodi="http://sodipodi.sourceforge.net/DTD/sodipodi-0.dtd" xmlns="http://www.w3.org/2000/svg" xmlns:svg="http://www.w3.org/2000/svg"><path d="M88.267 52.171 C 83.297 54.799,79.795 58.306,77.156 63.296 L 73.302 70.584 73.734 500.708 C 74.141 904.839,74.341 931.152,77.050 936.103 C 83.233 947.402,96.885 953.627,108.108 950.265 C 123.485 945.657,128.555 937.262,129.656 914.583 L 130.446 898.333 500.000 898.333 L 869.554 898.333 870.344 914.583 C 871.445 937.262,876.515 945.657,891.892 950.265 C 903.115 953.627,916.767 947.402,922.950 936.103 C 925.658 931.153,925.863 905.124,926.328 507.500 C 926.599 274.667,926.363 80.267,925.801 75.501 C 924.494 64.392,919.387 56.800,910.050 52.083 L 902.627 48.333 499.076 48.333 L 95.524 48.333 88.267 52.171 M870.000 473.333 L 870.000 843.333 676.667 843.333 L 483.333 843.333 483.333 731.328 L 483.333 619.324 489.583 625.241 C 494.530 629.925,551.903 681.810,627.754 750.196 C 640.661 761.833,655.271 762.507,666.698 751.995 C 672.535 746.625,687.229 720.509,709.723 675.527 C 781.571 531.851,816.346 401.438,824.318 245.773 C 825.345 225.721,825.161 223.515,821.920 217.163 C 819.989 213.378,815.954 208.530,812.954 206.390 L 807.500 202.500 631.667 201.667 C 534.958 201.208,396.583 201.208,324.167 201.667 L 192.500 202.500 187.046 206.390 C 180.582 211.000,175.000 221.163,175.000 228.320 C 175.000 238.989,183.513 250.985,193.858 254.894 C 197.008 256.084,236.319 256.667,313.446 256.667 L 428.343 256.667 427.921 549.583 L 427.500 842.500 278.750 842.926 L 130.000 843.351 130.000 473.342 L 130.000 103.333 500.000 103.333 L 870.000 103.333 870.000 473.333 M767.484 270.417 C 760.353 361.308,742.532 447.614,714.900 525.075 C 698.925 569.859,672.628 629.669,651.317 669.690 L 641.276 688.547 637.721 685.264 C 586.947 638.360,514.522 574.081,510.470 572.325 C 503.591 569.343,496.392 569.374,489.113 572.415 L 483.333 574.830 483.333 415.748 L 483.333 256.667 625.948 256.667 L 768.562 256.667 767.484 270.417 " stroke="none" fill-rule="evenodd" fill="#000000"></path></svg>