<svg width="1000" height="1000" viewBox="0 0 1000 1000" version="1.1" id="svg5" xmlns="http://www.w3.org/2000/svg" xmlns:svg="http://www.w3.org/2000/svg"><path d="M494.132 51.615 C 486.782 53.281,480.573 57.852,476.279 64.756 C 472.560 70.737,472.492 71.794,471.988 131.214 L 471.477 191.595 328.525 192.047 L 185.572 192.500 179.475 197.151 C 165.934 207.481,163.817 224.063,174.429 236.675 C 183.306 247.224,174.726 246.667,328.251 246.667 C 465.788 246.667,468.333 246.725,468.333 249.901 C 468.333 251.679,466.384 258.617,464.002 265.317 C 434.385 348.621,322.242 438.009,195.000 479.737 C 162.381 490.434,132.025 496.219,98.237 498.177 C 71.862 499.705,66.784 501.251,59.432 509.989 C 50.310 520.829,51.544 535.566,62.449 546.031 C 71.483 554.701,77.413 555.706,105.902 553.392 C 143.527 550.337,176.137 543.764,214.263 531.551 C 223.084 528.725,230.474 526.658,230.684 526.957 C 230.894 527.256,231.950 530.586,233.032 534.358 C 235.455 542.808,240.308 549.162,247.230 552.950 C 251.939 555.527,259.815 555.887,321.250 556.335 L 390.000 556.838 389.962 622.169 C 389.908 714.940,387.624 737.389,375.001 769.164 C 357.079 814.281,319.168 853.181,270.870 876.013 C 250.520 885.633,232.610 891.249,215.493 893.376 C 199.361 895.380,193.940 897.651,187.765 904.989 C 176.902 917.899,181.540 938.011,197.254 946.137 C 217.087 956.393,281.494 937.260,326.584 907.717 C 379.285 873.187,415.824 825.678,433.145 769.167 C 443.294 736.055,443.670 731.800,444.515 640.417 L 445.289 556.667 498.417 556.667 L 551.544 556.667 552.068 700.417 L 552.591 844.167 556.409 856.639 C 571.593 906.240,606.989 933.296,670.833 944.103 C 703.116 949.568,812.194 952.380,827.462 948.141 C 841.164 944.337,850.299 929.910,847.656 916.250 C 846.342 909.460,774.130 800.461,768.041 796.078 C 765.588 794.312,759.811 792.506,755.203 792.063 C 743.684 790.956,733.497 796.833,728.289 807.591 C 722.094 820.388,723.590 824.513,747.368 860.193 C 758.899 877.496,768.333 892.031,768.333 892.493 C 768.333 894.047,710.036 893.351,693.684 891.602 C 661.410 888.151,636.647 879.517,624.351 867.428 C 616.848 860.052,610.743 847.708,608.346 835.067 C 606.448 825.059,606.023 647.882,607.762 592.017 L 608.858 556.831 679.971 556.332 L 751.083 555.833 757.119 551.695 C 777.574 537.673,772.629 507.842,748.845 501.781 C 744.058 500.561,671.104 500.000,517.202 500.000 L 292.546 500.000 315.636 487.398 C 374.121 455.479,428.690 412.200,464.709 369.167 C 477.492 353.894,495.810 327.216,503.330 312.917 C 505.621 308.563,508.046 305.000,508.721 305.000 C 509.396 305.000,600.764 360.966,711.762 429.369 C 823.661 498.328,916.306 554.371,919.704 555.157 C 930.920 557.752,943.159 551.809,948.612 541.121 C 952.895 532.725,952.237 519.355,947.200 512.441 C 945.103 509.562,864.076 458.651,735.313 379.306 C 620.643 308.646,526.787 250.083,526.744 249.167 C 526.693 248.074,576.171 247.213,670.416 246.667 C 774.957 246.061,815.076 245.307,817.500 243.903 C 826.314 238.799,831.944 229.171,831.944 219.203 C 831.944 210.108,828.317 203.095,820.549 197.169 L 814.428 192.500 671.475 192.047 L 528.523 191.595 528.012 131.214 C 527.506 71.535,527.455 70.762,523.666 64.667 C 517.289 54.412,505.254 49.093,494.132 51.615 " stroke="none" fill-rule="evenodd" fill="black"></path></svg>