<svg width="1000" height="1000" viewBox="0 0 1000 1000" version="1.1" id="svg5" sodipodi:docname="帽.svg" inkscape:version="1.2.2 (732a01da63, 2022-12-09)" xmlns:inkscape="http://www.inkscape.org/namespaces/inkscape" xmlns:sodipodi="http://sodipodi.sourceforge.net/DTD/sodipodi-0.dtd" xmlns="http://www.w3.org/2000/svg" xmlns:svg="http://www.w3.org/2000/svg"><path d="M140.205 51.670 C 132.076 53.589,126.361 58.330,122.083 66.701 L 118.333 74.040 118.333 170.407 C 118.333 276.648,118.022 273.324,128.883 282.860 C 139.009 291.752,153.495 292.189,163.344 283.902 C 173.609 275.264,173.333 277.901,173.333 188.416 L 173.333 106.667 496.667 106.667 C 674.500 106.667,820.000 107.161,820.000 107.766 C 820.000 108.371,813.941 141.933,806.535 182.350 C 799.129 222.766,793.013 258.834,792.944 262.501 C 792.792 270.567,796.457 278.125,803.323 283.902 C 817.293 295.658,839.201 289.067,845.637 271.172 C 847.022 267.319,855.816 221.688,865.178 169.770 L 882.200 75.372 878.183 67.356 C 873.541 58.091,868.245 53.731,859.038 51.596 C 850.942 49.718,148.164 49.791,140.205 51.670 M675.205 185.142 C 668.655 186.527,662.453 190.813,657.603 197.307 C 654.266 201.775,654.153 204.118,653.702 278.454 L 653.236 355.000 574.535 355.037 C 501.388 355.071,495.351 355.292,489.002 358.176 C 478.625 362.888,474.167 370.287,474.167 382.794 C 474.167 393.918,476.757 399.095,485.640 405.730 C 490.101 409.062,492.704 409.192,571.370 410.000 L 652.500 410.833 652.500 456.667 L 652.500 502.500 571.371 503.333 C 492.332 504.145,490.120 504.257,485.537 507.653 C 482.950 509.571,479.146 513.619,477.083 516.650 C 468.804 528.815,474.708 548.001,488.836 554.840 C 495.850 558.235,498.258 558.333,574.693 558.333 L 653.333 558.333 653.333 605.766 L 653.333 653.199 542.842 653.683 C 419.732 654.222,429.045 653.322,417.500 665.792 C 412.885 670.776,407.601 672.622,348.874 689.763 C 313.880 699.976,284.442 708.333,283.457 708.333 C 282.197 708.333,281.667 671.807,281.667 585.000 L 281.667 461.667 350.417 461.630 C 413.858 461.596,419.694 461.354,425.998 458.491 C 435.527 454.163,440.514 446.551,441.313 435.109 C 442.061 424.412,438.211 417.025,428.464 410.456 L 422.840 406.667 352.254 406.667 L 281.667 406.667 281.657 332.917 C 281.651 284.524,281.019 256.901,279.819 252.578 C 277.435 243.990,269.074 235.777,260.316 233.418 C 245.261 229.364,230.247 239.029,226.827 254.977 C 225.663 260.408,225.000 289.456,225.000 335.082 L 225.000 406.667 155.780 406.667 C 79.037 406.667,78.978 406.674,70.847 417.334 C 61.408 429.709,64.579 447.732,77.768 456.667 L 83.918 460.833 154.459 461.302 L 225.000 461.771 225.000 593.921 L 225.000 726.072 152.083 747.432 C 111.979 759.180,75.260 770.231,70.486 771.990 C 60.634 775.619,54.194 782.282,51.744 791.378 C 47.463 807.276,61.114 825.000,77.638 825.000 C 82.494 825.000,219.283 786.234,265.833 771.666 C 271.333 769.945,310.708 758.343,353.333 745.885 C 442.815 719.731,443.239 719.589,448.373 714.125 L 452.248 710.000 552.791 710.000 L 653.333 710.000 653.333 818.387 C 653.333 936.905,653.072 933.610,663.158 942.097 C 676.177 953.051,693.241 950.518,704.064 936.026 C 707.443 931.501,707.508 929.573,707.951 820.758 L 708.403 710.091 818.785 709.629 C 942.689 709.110,935.649 709.837,944.366 696.664 C 953.284 683.188,948.309 664.499,933.899 657.344 C 927.832 654.331,921.822 654.142,817.917 653.693 L 708.333 653.219 708.333 605.823 L 708.333 558.426 788.874 557.963 L 869.414 557.500 875.452 553.362 C 892.245 541.852,892.520 519.922,876.026 507.603 C 871.565 504.271,868.962 504.141,790.296 503.333 L 709.167 502.500 709.167 456.667 L 709.167 410.833 790.296 410.000 C 868.963 409.192,871.566 409.062,876.027 405.730 C 883.593 400.079,887.086 394.059,887.937 385.203 C 889.025 373.882,883.146 363.487,872.831 358.493 C 865.817 355.098,863.408 355.000,787.022 355.000 L 708.430 355.000 707.965 278.454 C 707.513 204.118,707.401 201.775,704.064 197.307 C 696.614 187.332,686.001 182.859,675.205 185.142 " stroke="none" fill-rule="evenodd" fill="#ffffff"></path></svg>