<svg width="1000" height="1000" viewBox="0 0 1000 1000" version="1.1" id="svg5" sodipodi:docname="広.svg" inkscape:version="1.2.1 (9c6d41e410, 2022-07-14)" xmlns:inkscape="http://www.inkscape.org/namespaces/inkscape" xmlns:sodipodi="http://sodipodi.sourceforge.net/DTD/sodipodi-0.dtd" xmlns="http://www.w3.org/2000/svg" xmlns:svg="http://www.w3.org/2000/svg"><path d="M344.167 67.362 C 337.955 70.135,330.782 77.659,328.439 83.858 C 327.409 86.587,326.667 102.108,326.667 120.942 L 326.667 153.333 279.113 153.333 C 226.321 153.333,224.465 153.641,215.473 163.883 C 206.731 173.839,206.520 188.008,214.954 198.730 C 222.107 207.824,225.464 208.333,278.185 208.333 L 326.700 208.333 326.267 285.417 L 325.833 362.500 222.204 363.333 C 120.327 364.153,118.496 364.226,113.871 367.653 C 97.376 379.878,97.701 401.815,114.548 413.362 L 120.586 417.500 218.794 417.968 L 317.002 418.436 315.875 422.968 C 313.926 430.800,302.369 454.151,295.387 464.365 C 281.144 485.197,256.861 507.642,233.333 521.719 C 216.033 532.072,210.000 539.814,210.000 551.667 C 210.000 568.435,226.439 582.079,242.240 578.428 C 255.450 575.375,292.159 549.488,312.415 528.942 C 340.831 500.117,357.260 473.185,369.212 435.833 L 374.545 419.167 490.606 418.739 L 606.667 418.311 606.667 487.136 C 606.667 555.224,606.707 556.039,610.417 563.299 C 612.479 567.336,616.100 572.044,618.462 573.763 C 628.555 581.105,643.280 580.305,652.232 571.928 C 661.838 562.939,661.667 564.455,661.667 488.462 L 661.667 418.426 770.540 417.963 L 879.414 417.500 885.451 413.362 C 902.299 401.815,902.624 379.878,886.129 367.653 C 881.496 364.220,879.760 364.154,771.962 363.333 L 662.500 362.500 662.500 285.833 L 662.500 209.167 724.464 208.333 C 784.065 207.532,786.608 207.367,791.131 204.010 C 805.148 193.607,807.009 175.223,795.311 162.711 C 786.717 153.521,785.231 153.333,720.887 153.333 L 661.667 153.333 661.667 119.835 C 661.667 83.459,660.655 78.379,652.063 71.621 C 641.341 63.187,627.172 63.398,617.216 72.140 C 607.451 80.713,606.667 84.329,606.667 120.780 L 606.667 153.333 494.167 153.333 L 381.667 153.333 381.639 119.583 C 381.613 87.748,381.401 85.462,377.889 79.292 C 371.252 67.628,355.809 62.165,344.167 67.362 M606.667 285.845 L 606.667 363.357 494.583 362.928 L 382.500 362.500 382.065 287.500 C 381.826 246.250,381.990 211.563,382.430 210.417 C 383.058 208.779,407.110 208.333,494.948 208.333 L 606.667 208.333 606.667 285.845 M489.170 477.530 C 482.363 481.210,478.500 484.899,475.246 490.829 C 472.854 495.188,472.435 504.261,471.994 561.224 L 471.489 626.614 321.699 627.057 C 173.359 627.496,171.865 627.533,167.308 630.936 C 150.263 643.664,150.263 664.669,167.308 677.397 C 171.866 680.800,173.359 680.838,321.788 681.276 L 471.667 681.719 471.667 780.839 L 471.667 879.959 280.122 880.396 C 88.718 880.833,88.574 880.836,83.872 884.320 C 81.284 886.238,77.413 890.363,75.269 893.487 C 72.016 898.228,71.483 900.754,72.044 908.772 C 72.856 920.385,76.564 926.070,86.701 931.250 L 94.040 935.000 499.936 934.963 C 892.167 934.928,906.063 934.822,912.665 931.824 C 922.194 927.497,927.180 919.884,927.980 908.442 C 928.699 898.153,925.208 891.048,916.128 884.320 C 911.426 880.836,911.282 880.833,719.878 880.396 L 528.333 879.959 528.333 780.839 L 528.333 681.719 678.212 681.276 C 826.641 680.838,828.134 680.800,832.692 677.397 C 849.737 664.669,849.737 643.664,832.692 630.936 C 828.135 627.533,826.641 627.496,678.301 627.057 L 528.511 626.614 528.006 561.224 C 527.443 488.404,527.644 489.729,515.765 480.668 C 508.355 475.016,496.425 473.608,489.170 477.530 " stroke="none" fill-rule="evenodd" fill="#000000"></path></svg>