<svg width="1000" height="1000" viewBox="0 0 1000 1000" version="1.1" id="svg5" xmlns="http://www.w3.org/2000/svg" xmlns:svg="http://www.w3.org/2000/svg"><path d="M395.658 51.643 C 379.455 55.307,370.131 75.449,377.673 90.499 C 381.146 97.431,548.533 265.544,558.243 271.853 C 579.647 285.759,606.325 267.264,599.944 242.943 C 598.289 236.635,587.997 225.725,508.623 146.136 C 459.422 96.803,417.292 55.472,415.000 54.291 C 409.170 51.285,401.740 50.268,395.658 51.643 M134.201 322.145 C 115.318 332.839,115.742 359.892,134.943 369.583 L 142.373 373.333 239.632 373.333 L 336.892 373.333 336.174 498.750 C 335.385 636.495,335.385 636.492,324.248 677.363 C 305.377 746.612,261.928 805.636,198.333 848.414 C 162.740 872.357,118.521 889.944,85.236 893.395 C 74.578 894.500,67.747 896.121,64.011 898.430 C 46.723 909.114,46.999 934.390,64.522 945.219 C 81.095 955.462,136.605 943.197,187.240 918.103 C 261.467 881.317,319.451 823.929,354.240 752.820 C 365.515 729.773,378.138 693.890,382.495 672.500 C 390.540 633.002,390.409 635.596,391.167 501.250 L 391.888 373.333 475.993 373.333 L 560.098 373.333 559.974 582.083 C 559.868 761.512,560.206 792.834,562.375 805.077 C 576.721 886.048,629.266 930.485,726.779 944.115 C 755.685 948.155,811.380 950.289,872.500 949.698 C 926.306 949.178,927.632 949.085,933.578 945.387 C 943.964 938.929,949.241 927.249,946.755 916.225 C 946.080 913.232,923.223 875.006,895.962 831.277 C 843.877 747.730,842.575 746.020,829.467 743.892 C 816.761 741.831,801.276 753.935,799.084 767.643 C 797.433 777.969,794.550 772.798,862.052 880.603 L 870.256 893.706 810.545 892.863 C 747.082 891.968,732.237 890.579,701.047 882.620 C 656.036 871.136,630.869 848.493,619.401 809.167 C 616.122 797.921,615.977 792.502,615.368 659.167 C 615.021 583.083,615.260 487.646,615.898 447.083 L 617.060 373.333 717.344 373.333 L 817.627 373.333 825.057 369.583 C 844.258 359.892,844.682 332.839,825.799 322.145 L 819.167 318.388 480.000 318.388 L 140.833 318.388 134.201 322.145 " stroke="none" fill-rule="evenodd" fill="black"></path></svg>