<svg width="1000" height="1000" viewBox="0 0 1000 1000" version="1.1" id="svg5" sodipodi:docname="引.svg" inkscape:version="1.3 (0e150ed6c4, 2023-07-21)" xmlns:inkscape="http://www.inkscape.org/namespaces/inkscape" xmlns:sodipodi="http://sodipodi.sourceforge.net/DTD/sodipodi-0.dtd" xmlns="http://www.w3.org/2000/svg" xmlns:svg="http://www.w3.org/2000/svg"><path d="M165.802 62.323 C 158.770 65.387,150.372 75.487,149.065 82.453 C 147.682 89.829,149.131 95.861,154.119 103.490 C 161.057 114.100,165.081 115.000,205.572 115.000 L 241.474 115.000 241.154 124.087 C 240.843 132.911,242.322 136.156,292.083 235.783 C 320.271 292.218,343.333 338.754,343.333 339.196 C 343.333 339.638,286.521 340.004,217.083 340.009 C 130.580 340.016,88.759 340.594,84.245 341.848 C 61.104 348.272,57.319 379.138,78.089 392.054 L 84.167 395.833 277.917 396.284 L 471.667 396.734 471.667 529.200 L 471.667 661.667 354.167 661.667 L 236.667 661.667 236.648 580.417 C 236.638 535.729,236.148 496.247,235.558 492.678 C 234.098 483.840,223.123 472.390,214.583 470.796 C 201.708 468.392,190.060 473.980,183.690 485.615 C 181.080 490.383,180.833 499.673,180.833 593.333 C 180.833 709.073,180.287 704.063,193.887 713.065 L 200.587 717.500 332.738 718.333 L 464.888 719.167 458.380 733.854 C 437.905 780.063,397.983 819.786,345.833 845.839 C 298.759 869.356,246.924 880.959,174.167 884.265 C 147.577 885.473,143.897 886.479,136.116 894.665 C 126.156 905.144,127.167 921.219,138.462 931.975 C 146.596 939.719,153.172 940.821,182.307 939.318 C 258.882 935.370,316.735 921.558,371.963 894.042 C 442.129 859.082,495.174 800.874,516.666 735.252 L 522.207 718.333 642.770 718.333 L 763.333 718.333 763.343 722.917 C 763.361 731.951,766.749 739.687,773.267 745.575 C 787.242 758.201,807.078 754.580,816.310 737.718 C 818.914 732.962,819.212 722.461,819.681 619.167 C 819.964 556.833,819.727 501.934,819.155 497.167 C 817.335 482.006,807.549 471.687,793.874 470.508 C 783.971 469.655,776.490 473.223,769.285 482.236 L 764.167 488.639 763.680 575.153 L 763.193 661.667 645.763 661.667 L 528.333 661.667 528.333 529.200 L 528.333 396.734 722.083 396.284 L 915.833 395.833 921.999 391.999 C 937.691 382.242,940.206 359.753,926.948 347.754 C 918.496 340.105,919.464 340.151,761.857 340.073 L 612.881 340.000 626.024 329.705 C 677.650 289.267,715.135 234.265,753.038 143.333 L 764.501 115.833 799.334 115.000 C 832.115 114.216,834.477 113.945,839.440 110.405 C 845.400 106.154,851.667 94.544,851.667 87.754 C 851.667 77.667,842.896 65.584,832.808 61.773 C 829.549 60.541,727.773 60.020,499.475 60.065 C 231.634 60.118,169.903 60.536,165.802 62.323 M703.693 115.915 C 705.845 118.067,677.920 178.038,662.813 203.707 C 630.800 258.103,588.054 296.955,525.251 328.740 L 503.002 340.000 449.418 340.002 L 395.833 340.005 396.386 331.155 C 396.927 322.482,395.927 320.282,345.969 220.299 C 317.936 164.195,295.000 117.551,295.000 116.646 C 295.000 114.911,701.961 114.184,703.693 115.915 " stroke="none" fill-rule="evenodd" fill="black"></path></svg>