<svg width="1000" height="1000" viewBox="0 0 1000 1000" version="1.1" id="svg5" sodipodi:docname="彼.svg" inkscape:version="1.2.1 (9c6d41e410, 2022-07-14)" xmlns:inkscape="http://www.inkscape.org/namespaces/inkscape" xmlns:sodipodi="http://sodipodi.sourceforge.net/DTD/sodipodi-0.dtd" xmlns="http://www.w3.org/2000/svg" xmlns:svg="http://www.w3.org/2000/svg"><path d="M158.098 98.596 C 149.145 103.787,144.437 113.183,145.338 124.057 C 146.239 134.923,150.946 141.880,160.538 146.524 L 167.719 150.000 455.526 150.000 L 743.333 150.000 743.333 278.333 L 743.333 406.667 451.913 406.667 L 160.493 406.667 154.983 410.417 C 151.953 412.479,147.904 416.284,145.987 418.873 C 142.507 423.569,142.500 423.902,142.500 579.706 C 142.500 743.210,142.764 750.309,150.060 783.333 C 164.133 847.029,198.023 882.182,258.326 895.633 C 274.147 899.162,274.549 899.167,576.667 899.167 L 879.167 899.167 885.333 895.333 C 893.841 890.042,898.702 881.617,898.803 871.989 C 898.877 864.919,894.029 854.785,848.416 766.667 C 820.658 713.042,796.158 666.369,793.972 662.950 C 785.709 650.027,768.582 646.557,755.791 655.214 C 748.047 660.455,742.654 671.540,743.776 679.907 C 744.286 683.708,760.740 717.334,784.814 763.773 C 806.916 806.409,825.000 841.753,825.000 842.313 C 825.000 842.874,702.188 843.320,552.083 843.304 C 253.837 843.273,267.429 843.702,245.979 833.630 C 226.655 824.555,216.854 812.423,208.432 787.147 C 198.064 756.034,197.785 751.425,197.098 599.597 L 196.474 461.694 489.487 461.264 L 782.500 460.833 788.111 456.832 C 791.197 454.631,795.118 449.756,796.824 445.998 C 799.779 439.493,799.929 431.672,799.963 282.165 C 799.988 178.356,799.406 122.454,798.246 117.165 C 796.243 108.028,792.924 103.399,784.839 98.470 L 779.167 95.012 471.667 95.045 L 164.167 95.077 158.098 98.596 " stroke="none" fill-rule="evenodd" fill="black"></path></svg>