<svg width="1000" height="1000" viewBox="0 0 1000 1000" version="1.1" id="svg5" xmlns="http://www.w3.org/2000/svg" xmlns:svg="http://www.w3.org/2000/svg"><path d="M237.500 51.196 C 231.423 52.673,223.014 60.350,219.855 67.307 C 216.987 73.623,216.737 79.276,216.703 138.693 L 216.667 203.220 152.917 203.693 C 89.783 204.162,89.116 204.203,83.893 207.928 C 80.993 209.997,77.042 214.949,75.114 218.932 L 71.608 226.173 72.054 498.503 L 72.500 770.833 76.334 776.999 C 80.411 783.556,87.855 788.870,95.479 790.667 C 107.375 793.470,122.957 783.464,126.486 770.755 C 127.776 766.107,128.317 689.700,128.324 511.250 L 128.333 258.333 172.500 258.333 L 216.667 258.333 216.703 592.083 C 216.739 914.447,216.846 926.067,219.855 932.693 C 228.690 952.147,254.676 955.154,266.820 938.127 L 270.833 932.500 271.667 595.833 L 272.500 259.167 317.083 258.723 L 361.667 258.279 361.614 476.223 C 361.568 665.471,361.247 693.753,359.180 691.022 C 357.870 689.292,352.082 679.616,346.316 669.519 C 333.830 647.652,328.059 641.050,319.079 638.360 C 300.802 632.884,280.040 651.513,284.350 669.521 C 284.962 672.076,303.921 705.950,326.481 744.795 C 355.847 795.360,369.085 816.639,373.080 819.701 C 381.221 825.941,395.394 826.740,403.180 821.398 C 406.304 819.254,410.429 815.383,412.347 812.795 L 415.833 808.089 416.264 516.505 C 416.689 228.892,416.650 224.834,413.399 218.462 C 411.587 214.909,407.268 210.239,403.802 208.085 C 397.549 204.197,397.017 204.160,335.000 203.333 L 272.500 202.500 271.667 135.000 L 270.833 67.500 266.832 61.889 C 260.524 53.046,248.273 48.579,237.500 51.196 M428.947 100.134 C 421.917 102.189,412.131 113.330,410.712 120.895 C 408.513 132.614,415.023 145.592,425.623 150.622 C 430.784 153.071,447.792 153.333,601.404 153.333 C 694.940 153.333,771.794 153.896,772.190 154.583 C 773.830 157.433,754.814 341.816,744.043 427.500 C 719.919 619.392,690.598 739.452,643.607 838.750 L 633.551 860.000 506.295 860.000 L 379.040 860.000 371.617 863.750 C 352.520 873.397,351.109 897.516,368.871 910.680 C 373.533 914.135,374.817 914.174,511.371 915.000 C 587.159 915.458,709.675 915.458,783.629 915.000 C 916.179 914.179,918.157 914.118,922.693 910.730 C 931.576 904.096,934.167 898.918,934.167 887.794 C 934.167 875.287,929.708 867.888,919.332 863.176 C 912.896 860.253,906.201 860.071,803.750 860.037 C 743.938 860.016,695.000 859.595,695.000 859.100 C 695.000 858.605,696.412 855.418,698.137 852.017 C 705.396 837.711,721.171 796.815,731.917 764.442 C 770.874 647.085,794.921 503.580,820.773 234.167 C 824.027 200.250,827.247 168.375,827.928 163.333 L 829.167 154.167 846.667 153.313 C 865.977 152.370,870.765 150.406,876.497 141.078 C 884.355 128.291,881.369 113.361,869.078 103.986 L 862.760 99.167 648.463 98.888 C 522.805 98.724,432.008 99.240,428.947 100.134 M485.583 206.547 C 476.011 210.894,470.000 220.112,470.000 230.446 C 470.000 238.957,534.375 787.072,535.962 792.072 C 537.422 796.671,544.915 804.870,550.116 807.560 C 552.711 808.902,558.509 810.000,563.001 810.000 C 573.892 810.000,583.469 803.286,587.452 792.858 C 590.251 785.527,590.014 783.263,557.581 508.151 C 539.600 355.626,524.438 228.308,523.889 225.222 C 522.658 218.314,514.387 208.604,507.163 205.585 C 499.866 202.536,493.824 202.806,485.583 206.547 " stroke="none" fill-rule="evenodd" fill="#000000"></path></svg>