<svg width="1000" height="1000" viewBox="0 0 1000 1000" version="1.1" id="svg5" sodipodi:docname="後.svg" xml:space="preserve" inkscape:version="1.3 (0e150ed6c4, 2023-07-21)" xmlns:inkscape="http://www.inkscape.org/namespaces/inkscape" xmlns:sodipodi="http://sodipodi.sourceforge.net/DTD/sodipodi-0.dtd" xmlns="http://www.w3.org/2000/svg" xmlns:svg="http://www.w3.org/2000/svg"><path d="M302.806 67.417 C 294.503 70.375,290.220 74.329,286.468 82.500 C 283.632 88.676,283.404 95.148,283.370 170.361 L 283.333 251.556 217.620 252.028 C 153.936 252.485,151.761 252.608,147.203 255.987 C 138.124 262.717,134.634 269.821,135.353 280.109 C 136.153 291.551,141.139 299.163,150.668 303.491 C 156.940 306.339,162.668 306.596,220.559 306.630 L 283.618 306.667 282.539 319.583 C 275.441 404.618,256.834 466.540,219.393 529.734 C 191.296 577.157,151.065 619.660,103.854 651.800 C 94.516 658.157,85.323 665.539,83.425 668.204 C 77.952 675.891,77.397 686.115,81.976 694.902 C 87.316 705.150,92.953 708.817,104.561 709.592 C 113.854 710.213,114.664 709.918,129.410 700.534 C 164.482 678.215,204.509 642.250,230.168 610.000 C 274.983 553.673,304.943 492.366,322.660 420.729 C 325.139 410.703,327.412 402.205,327.711 401.845 C 328.010 401.485,337.560 410.186,348.934 421.180 C 423.963 493.704,532.021 566.605,637.267 615.702 C 649.972 621.629,660.785 626.896,661.295 627.406 C 661.805 627.916,568.910 628.336,454.861 628.340 L 247.500 628.346 241.696 631.884 C 234.806 636.084,232.356 638.899,228.933 646.544 C 223.541 658.587,231.171 675.511,244.504 681.082 C 248.949 682.939,293.683 683.333,499.838 683.333 C 672.039 683.333,751.242 682.783,754.475 681.564 C 757.055 680.592,761.590 677.458,764.552 674.601 L 769.938 669.407 797.052 678.021 C 835.565 690.256,878.269 701.896,916.752 710.648 C 938.096 715.503,952.672 707.048,955.900 687.941 C 957.271 679.823,951.480 667.525,943.869 662.396 C 941.065 660.506,930.984 657.212,921.468 655.076 C 827.824 634.056,726.490 598.376,641.667 556.556 C 605.004 538.481,555.000 510.633,555.000 508.291 C 555.000 507.795,561.938 502.445,570.417 496.402 C 604.013 472.456,647.199 431.169,685.729 386.163 L 703.959 364.870 749.896 410.620 C 799.492 460.014,802.015 461.869,816.035 459.239 C 824.664 457.620,835.953 446.331,837.572 437.702 C 840.210 423.640,838.513 421.362,786.287 368.890 L 737.905 320.279 747.916 306.390 C 763.072 285.362,787.944 246.924,803.277 220.833 C 818.892 194.262,848.846 134.180,851.496 124.114 C 856.467 105.237,838.868 87.027,819.216 90.714 C 808.428 92.738,804.158 98.447,786.876 133.952 C 777.895 152.403,764.724 177.625,757.607 190.000 C 741.352 218.265,700.306 280.392,698.349 279.691 C 697.544 279.403,675.929 258.783,650.317 233.870 C 599.579 184.517,597.659 183.154,584.152 186.883 C 575.429 189.292,565.607 199.237,564.119 207.166 C 561.349 221.935,561.316 221.890,614.524 275.271 C 645.721 306.569,663.474 325.563,662.908 327.037 C 661.569 330.526,633.189 363.348,614.272 383.284 C 576.448 423.146,540.862 452.877,514.351 466.765 L 500.449 474.048 485.641 463.331 C 441.266 431.216,406.173 401.452,371.667 366.667 C 339.021 333.758,337.041 330.846,337.945 317.083 L 338.629 306.667 401.868 306.667 C 470.573 306.667,471.664 306.536,480.311 297.289 C 485.471 291.770,488.349 285.049,488.297 278.642 C 488.238 271.503,482.532 260.844,476.444 256.502 L 470.833 252.500 405.000 251.667 L 339.167 250.833 338.333 167.500 C 337.561 90.308,337.273 83.793,334.425 79.090 C 327.926 68.362,314.289 63.327,302.806 67.417 M135.400 870.184 C 125.600 875.035,121.148 881.852,120.353 893.224 C 119.606 903.922,123.456 911.309,133.203 917.877 L 138.826 921.667 500.000 921.667 L 861.174 921.667 866.797 917.877 C 876.544 911.309,880.394 903.922,879.647 893.224 C 878.848 881.793,874.325 874.917,864.462 870.143 L 857.281 866.667 499.890 866.668 L 142.500 866.669 135.400 870.184 " stroke="none" fill-rule="evenodd" fill="#000000"></path></svg>