<svg width="1000" height="1000" viewBox="0 0 1000 1000" version="1.1" id="svg5" sodipodi:docname="御.svg" inkscape:version="1.2.1 (9c6d41e410, 2022-07-14)" xmlns:inkscape="http://www.inkscape.org/namespaces/inkscape" xmlns:sodipodi="http://sodipodi.sourceforge.net/DTD/sodipodi-0.dtd" xmlns="http://www.w3.org/2000/svg" xmlns:svg="http://www.w3.org/2000/svg"><path d="M243.538 51.736 C 235.458 53.549,229.712 58.294,225.417 66.701 L 221.667 74.040 221.667 198.686 L 221.667 323.333 155.669 323.333 C 82.175 323.333,82.764 323.252,73.331 334.697 C 62.842 347.422,66.266 365.718,80.723 374.190 L 87.793 378.333 154.730 378.333 L 221.667 378.333 221.667 537.462 L 221.667 696.590 217.917 698.973 C 215.854 700.284,180.042 720.181,138.333 743.188 C 95.063 767.057,60.567 787.135,57.998 789.945 C 48.481 800.357,48.531 815.213,58.118 825.565 C 64.284 832.225,70.351 835.000,78.739 835.000 C 85.092 835.000,95.865 829.529,166.739 790.308 C 211.158 765.727,251.802 743.648,257.059 741.244 C 262.317 738.840,269.067 735.063,272.059 732.850 C 275.052 730.637,304.284 714.057,337.020 696.006 C 370.840 677.357,398.005 661.325,399.931 658.875 C 401.796 656.505,404.146 651.505,405.153 647.765 C 410.196 629.036,391.376 610.001,372.867 615.111 C 369.460 616.052,347.132 627.662,323.250 640.911 C 299.368 654.160,279.113 665.000,278.238 665.000 C 277.238 665.000,276.806 611.973,277.074 522.083 L 277.500 379.167 326.965 378.333 C 373.621 377.547,376.691 377.305,381.028 374.064 C 391.002 366.612,395.474 355.999,393.191 345.205 C 391.493 337.177,386.746 331.399,378.299 327.083 C 371.200 323.456,369.420 323.333,323.844 323.333 L 276.727 323.333 276.280 195.417 C 275.844 70.440,275.757 67.399,272.500 63.092 C 265.291 53.557,254.419 49.295,243.538 51.736 M380.658 51.564 C 357.640 57.122,352.855 87.968,372.881 101.695 L 378.918 105.833 457.792 106.326 C 525.800 106.751,536.667 107.156,536.667 109.265 C 536.667 110.611,534.002 135.514,530.745 164.606 C 494.189 491.138,442.272 698.569,352.188 878.012 C 332.956 916.322,331.368 921.263,335.111 931.142 C 340.650 945.760,359.345 953.067,373.061 945.974 C 380.793 941.976,384.884 935.543,403.891 897.500 C 478.262 748.641,527.565 578.007,562.524 348.483 C 565.793 327.023,568.856 308.835,569.332 308.066 C 569.808 307.296,598.995 306.667,634.193 306.667 L 698.189 306.667 698.819 551.250 C 699.463 800.903,699.557 804.651,705.953 836.510 C 718.075 896.894,746.718 930.957,795.803 943.365 C 814.087 947.987,851.136 950.399,893.554 949.729 C 927.307 949.196,929.489 948.966,935.333 945.333 C 943.952 939.973,948.732 931.609,948.674 921.989 C 948.610 911.500,885.707 733.614,879.792 727.198 C 866.969 713.288,843.912 716.446,835.417 733.277 C 833.354 737.363,831.667 742.694,831.667 745.122 C 831.667 747.551,842.910 781.330,856.651 820.186 C 870.393 859.042,881.643 891.396,881.651 892.083 C 881.675 893.981,829.011 893.553,816.667 891.555 C 779.879 885.602,765.961 865.783,757.054 806.667 C 754.410 789.118,754.167 765.768,754.167 530.000 C 754.167 293.993,753.937 272.082,751.421 267.496 C 747.816 260.928,743.735 257.361,736.243 254.230 C 731.022 252.049,718.635 251.667,653.157 251.667 L 576.208 251.667 577.242 242.917 C 577.811 238.104,580.120 218.792,582.373 200.000 C 584.626 181.208,587.801 152.540,589.428 136.293 L 592.386 106.752 740.777 106.293 C 877.785 105.869,889.571 105.612,894.436 102.950 C 901.212 99.242,906.169 92.880,908.598 84.774 C 911.960 73.552,905.735 59.899,894.436 53.717 C 889.513 51.023,872.644 50.816,637.500 50.574 C 499.083 50.431,383.504 50.877,380.658 51.564 " stroke="none" fill-rule="evenodd" fill="black"></path></svg>