<svg width="1000" height="1000" viewBox="0 0 1000 1000" version="1.1" id="svg5" sodipodi:docname="心.svg" inkscape:version="1.2.1 (9c6d41e410, 2022-07-14)" xmlns:inkscape="http://www.inkscape.org/namespaces/inkscape" xmlns:sodipodi="http://sodipodi.sourceforge.net/DTD/sodipodi-0.dtd" xmlns="http://www.w3.org/2000/svg" xmlns:svg="http://www.w3.org/2000/svg"><path d="M483.203 52.123 C 480.110 54.207,475.874 58.443,473.790 61.536 L 470.000 67.160 470.000 241.930 L 470.000 416.701 396.462 416.267 L 322.925 415.833 288.295 306.868 C 269.249 246.937,252.785 196.255,251.707 194.242 C 250.629 192.229,246.654 188.575,242.874 186.124 C 224.815 174.415,200.803 187.044,201.156 208.066 C 201.244 213.269,211.541 248.018,232.350 313.333 C 249.435 366.958,263.821 412.146,264.319 413.750 C 265.171 416.493,261.355 416.667,200.059 416.667 C 128.010 416.667,128.076 416.658,118.806 427.216 C 109.884 437.378,109.472 450.457,117.734 461.288 C 126.067 472.214,116.407 471.667,301.010 471.667 L 468.793 471.667 467.655 484.583 C 457.727 597.211,373.290 733.947,261.667 818.160 C 202.509 862.791,145.044 887.422,90.399 891.570 C 68.959 893.197,62.634 895.292,56.813 902.692 C 48.551 913.196,48.551 926.804,56.813 937.308 C 63.172 945.391,69.209 947.323,86.992 946.966 C 156.700 945.565,242.073 907.251,318.333 843.143 C 339.806 825.092,379.883 784.840,397.793 763.333 C 442.682 709.434,480.792 643.376,500.956 584.519 C 504.344 574.630,507.747 566.755,508.518 567.019 C 509.289 567.284,591.048 644.750,690.204 739.167 C 928.271 965.855,907.175 946.226,915.006 948.335 C 934.686 953.634,953.565 934.731,948.364 914.934 C 946.882 909.290,943.913 905.093,936.035 897.500 C 930.329 892.000,834.731 800.911,723.595 695.081 L 521.531 502.661 522.527 490.914 C 523.074 484.453,523.864 477.498,524.282 475.458 L 525.043 471.750 693.518 471.724 C 860.576 471.697,862.044 471.668,868.108 468.260 C 876.989 463.269,882.031 455.076,882.147 445.450 C 882.265 435.683,878.589 428.303,870.550 422.169 L 864.431 417.500 795.549 417.014 C 757.664 416.746,726.667 416.207,726.667 415.816 C 726.667 415.424,730.103 409.792,734.302 403.300 C 752.353 375.397,769.050 334.067,780.075 290.000 C 787.813 259.070,798.443 205.265,798.554 196.473 C 798.808 176.163,778.426 162.295,761.167 171.034 C 747.757 177.825,746.592 180.459,738.314 222.707 C 725.796 286.596,714.829 322.710,698.139 355.000 C 687.992 374.633,672.416 397.754,661.183 409.859 L 654.866 416.667 589.933 416.667 L 525.000 416.667 525.000 243.686 L 525.000 70.706 521.250 63.283 C 516.118 53.125,508.506 48.333,497.500 48.333 C 491.238 48.333,487.263 49.387,483.203 52.123 " stroke="none" fill-rule="evenodd" fill="#000000"></path></svg>