<svg width="1000" height="1000" viewBox="0 0 1000 1000" version="1.1" id="svg5" sodipodi:docname="必.svg" inkscape:version="1.2.1 (9c6d41e410, 2022-07-14)" xmlns:inkscape="http://www.inkscape.org/namespaces/inkscape" xmlns:sodipodi="http://sodipodi.sourceforge.net/DTD/sodipodi-0.dtd" xmlns="http://www.w3.org/2000/svg" xmlns:svg="http://www.w3.org/2000/svg"><path d="M675.833 52.377 C 672.167 54.583,667.667 58.888,665.833 61.944 C 662.596 67.340,662.487 70.894,662.040 185.417 L 661.580 303.333 601.624 303.333 L 541.667 303.333 541.667 232.193 C 541.667 163.372,541.553 160.817,538.173 153.836 C 528.979 134.844,503.993 133.155,490.936 150.642 C 487.562 155.162,487.500 156.914,487.500 248.333 C 487.500 339.753,487.562 341.505,490.936 346.025 C 492.826 348.556,496.443 352.174,498.974 354.064 C 503.447 357.405,505.758 357.513,582.621 357.964 L 661.667 358.428 661.667 389.214 L 661.667 420.000 574.946 420.000 C 479.284 420.000,481.612 419.761,472.140 430.549 C 463.398 440.506,463.187 454.674,471.621 465.396 C 479.238 475.080,478.385 475.000,574.002 475.000 L 661.667 475.000 661.667 505.783 L 661.667 536.565 562.786 537.033 L 463.905 537.500 457.784 542.169 C 446.282 550.944,446.667 547.638,446.667 637.774 C 446.667 706.578,446.317 718.673,444.389 716.607 C 442.478 714.561,294.605 463.580,288.478 451.986 C 286.584 448.402,287.520 447.019,302.127 431.800 C 322.453 410.623,348.058 380.869,367.232 356.146 C 388.644 328.537,414.713 289.056,415.976 282.325 C 421.178 254.596,385.487 237.504,368.402 259.544 C 366.431 262.086,357.406 275.042,348.345 288.333 C 327.294 319.217,281.787 376.224,277.917 376.558 C 277.229 376.618,276.667 339.917,276.667 295.000 L 276.667 213.333 350.417 213.297 C 418.604 213.263,424.679 213.027,430.964 210.173 C 443.369 204.539,450.151 190.998,446.702 178.750 C 444.582 171.221,440.753 166.426,433.172 161.804 C 427.525 158.361,426.709 158.346,248.696 158.340 C 51.987 158.333,62.756 157.758,54.400 168.712 C 46.139 179.543,46.551 192.622,55.473 202.784 C 64.848 213.462,63.736 213.333,146.613 213.333 L 221.667 213.333 221.667 323.333 C 221.667 383.833,221.104 433.303,220.417 433.267 C 219.729 433.231,197.042 405.772,170.000 372.248 C 142.958 338.724,118.749 309.533,116.201 307.380 C 106.344 299.051,91.174 300.100,81.493 309.782 C 71.193 320.082,69.848 333.330,77.907 345.111 C 79.517 347.464,102.914 376.627,129.902 409.918 C 181.229 473.235,184.551 476.531,197.137 476.630 C 203.259 476.678,211.728 472.993,215.675 468.563 C 217.421 466.604,219.484 465.000,220.258 465.000 C 221.033 465.000,221.667 473.124,221.667 483.054 L 221.667 501.109 215.288 506.235 C 211.408 509.353,203.131 520.725,194.160 535.264 C 146.721 612.142,83.794 698.333,55.028 725.833 C 45.535 734.908,41.515 740.795,39.861 748.044 C 35.462 767.315,54.379 785.093,73.750 779.894 C 79.195 778.433,83.930 774.852,94.219 764.413 C 120.882 737.364,160.667 685.845,198.333 629.589 C 209.792 612.476,219.729 598.442,220.417 598.404 C 221.104 598.365,221.667 637.583,221.667 685.554 L 221.667 772.774 212.917 772.151 C 206.030 771.660,202.754 772.348,197.534 775.381 C 186.104 782.022,180.655 796.073,185.039 807.603 C 187.680 814.548,225.277 873.334,230.294 878.361 C 232.747 880.820,238.244 883.808,242.509 885.003 C 249.420 886.937,251.094 886.828,257.875 884.004 C 262.174 882.213,267.736 878.047,270.659 874.429 L 275.833 868.025 276.667 705.263 L 277.500 542.500 281.060 548.333 C 283.018 551.542,312.152 601.042,345.804 658.333 C 379.455 715.625,408.603 764.259,410.578 766.408 C 416.683 773.057,423.057 775.445,432.356 774.568 C 437.019 774.128,442.146 773.215,443.750 772.539 C 446.436 771.407,446.667 772.927,446.667 791.759 C 446.667 810.532,447.006 812.786,450.810 819.277 C 455.286 826.914,465.836 833.333,473.913 833.333 C 483.999 833.333,496.083 824.563,499.894 814.475 C 501.080 811.336,501.667 773.972,501.667 701.558 L 501.667 593.333 581.635 593.333 L 661.604 593.333 662.052 760.539 L 662.500 927.745 666.638 933.784 C 680.975 954.705,710.979 948.868,716.738 924.038 C 717.591 920.356,718.271 846.691,718.294 755.417 L 718.333 593.333 798.333 593.333 L 878.333 593.333 878.272 672.917 L 878.211 752.500 840.356 713.867 C 807.657 680.497,801.649 675.079,796.250 674.098 C 785.804 672.200,778.304 674.591,770.629 682.265 C 762.156 690.739,759.807 700.655,763.933 710.532 C 765.525 714.341,783.687 734.427,812.049 763.742 C 837.106 789.642,864.571 818.085,873.083 826.947 C 881.595 835.810,891.060 844.247,894.115 845.697 C 907.163 851.889,923.454 846.022,929.840 832.831 C 933.297 825.689,933.333 824.237,933.333 692.754 C 933.333 584.312,932.915 558.893,931.060 554.452 C 928.162 547.515,919.977 540.613,912.032 538.407 C 908.108 537.317,871.430 536.682,812.083 536.676 L 718.333 536.667 718.333 505.833 L 718.333 475.000 806.104 475.000 L 893.874 475.000 900.943 470.857 C 915.631 462.249,918.834 444.099,907.986 430.939 C 898.754 419.739,901.207 420.000,805.054 420.000 L 718.333 420.000 718.333 389.167 L 718.333 358.333 778.333 358.333 L 838.333 358.333 838.333 366.104 C 838.333 381.241,851.553 395.000,866.097 395.000 C 874.544 395.000,885.192 388.204,889.495 380.067 L 893.333 372.809 893.306 265.988 L 893.278 159.167 889.522 152.534 C 879.079 134.096,852.587 134.096,842.145 152.534 C 838.409 159.131,838.388 159.557,838.361 231.250 L 838.333 303.333 778.333 303.333 L 718.333 303.333 718.294 190.417 C 718.272 128.313,717.571 74.558,716.738 70.962 C 712.250 51.613,692.224 42.513,675.833 52.377 " stroke="none" fill-rule="evenodd" fill="black"></path></svg>