<svg width="1000" height="1000" viewBox="0 0 1000 1000" version="1.1" id="svg5" sodipodi:docname="思.svg" inkscape:version="1.2.1 (9c6d41e410, 2022-07-14)" xmlns:inkscape="http://www.inkscape.org/namespaces/inkscape" xmlns:sodipodi="http://sodipodi.sourceforge.net/DTD/sodipodi-0.dtd" xmlns="http://www.w3.org/2000/svg" xmlns:svg="http://www.w3.org/2000/svg"><path d="M259.830 52.097 C 256.715 54.167,252.479 59.201,250.417 63.283 L 246.667 70.706 246.667 243.686 L 246.667 416.667 226.667 416.667 C 210.876 416.667,206.667 416.188,206.667 414.391 C 206.667 413.139,199.536 364.307,190.820 305.876 C 179.969 233.130,174.092 198.144,172.178 194.903 C 168.041 187.901,160.432 182.973,152.352 182.062 C 143.020 181.010,138.078 182.361,131.735 187.698 C 124.767 193.561,121.227 200.881,121.400 209.064 C 121.514 214.457,147.509 394.267,150.750 412.083 L 151.583 416.667 126.978 416.667 C 104.747 416.667,101.665 417.029,95.034 420.417 C 74.952 430.678,74.078 454.823,93.316 467.917 C 98.823 471.665,98.867 471.667,171.815 471.667 C 214.529 471.667,245.197 472.304,245.752 473.202 C 247.012 475.240,243.858 519.236,240.725 543.333 C 224.665 666.843,179.154 791.621,126.333 856.967 C 107.432 880.349,93.837 890.184,77.321 892.426 C 62.793 894.397,53.163 902.967,50.673 916.141 C 48.752 926.307,55.569 939.278,65.564 944.472 C 77.254 950.547,102.643 945.850,123.269 933.794 C 136.655 925.970,164.242 898.962,178.217 880.000 C 224.832 816.749,269.129 703.510,287.586 600.417 C 289.104 591.938,290.831 585.011,291.423 585.024 C 292.015 585.038,319.500 619.876,352.500 662.442 C 395.427 717.814,414.224 740.808,418.560 743.251 C 436.250 753.221,458.333 740.113,458.333 719.644 C 458.333 715.136,457.462 709.820,456.398 707.831 C 455.333 705.841,420.968 661.078,380.031 608.357 C 339.094 555.636,304.411 510.625,302.957 508.333 C 300.830 504.979,300.489 501.024,301.211 488.050 L 302.107 471.933 375.360 471.812 C 439.524 471.706,449.325 471.353,454.352 468.967 C 470.337 461.381,474.580 440.564,462.860 427.216 C 454.577 417.781,450.123 416.667,420.709 416.667 C 396.559 416.667,394.728 416.452,395.790 413.750 C 398.880 405.887,408.478 368.239,412.281 349.070 C 417.667 321.916,420.448 301.412,425.768 249.638 C 432.039 188.612,431.614 183.548,419.446 174.267 C 408.590 165.986,395.414 166.623,385.118 175.925 C 376.880 183.368,375.925 187.436,371.644 233.333 C 366.847 284.751,362.412 317.938,356.602 345.875 C 351.711 369.394,339.526 410.609,336.289 414.583 C 335.139 415.995,329.283 416.667,318.129 416.667 L 301.667 416.667 301.667 241.913 L 301.667 67.160 297.877 61.536 C 288.962 48.307,271.902 44.074,259.830 52.097 M691.536 52.123 C 688.443 54.207,684.207 58.443,682.123 61.536 L 678.333 67.160 678.333 241.913 L 678.333 416.667 654.299 416.667 L 630.265 416.667 629.301 412.083 C 628.770 409.563,620.879 361.351,611.765 304.946 C 602.650 248.541,594.475 200.541,593.598 198.279 C 591.843 193.757,584.547 186.459,578.860 183.537 C 569.543 178.750,553.859 182.912,546.687 192.074 C 539.040 201.842,538.944 200.702,556.680 310.246 C 565.839 366.818,573.333 413.906,573.333 414.885 C 573.333 416.077,564.220 416.667,545.780 416.667 C 514.754 416.667,510.499 417.695,502.140 427.216 C 493.405 437.164,492.953 448.177,500.786 460.156 C 508.427 471.841,506.973 471.667,596.759 471.667 L 677.180 471.667 676.100 492.917 C 669.089 630.915,606.952 797.406,536.610 866.667 C 520.112 882.911,508.726 889.650,493.957 891.909 C 487.655 892.873,480.100 895.125,477.167 896.915 C 460.059 907.352,460.428 932.782,477.844 943.546 C 482.637 946.508,486.134 947.218,495.122 947.051 C 548.090 946.069,609.115 884.521,656.973 783.813 C 677.329 740.977,699.126 678.450,711.021 628.770 C 714.584 613.886,717.908 601.698,718.408 601.687 C 718.907 601.676,759.407 676.749,808.408 768.516 C 861.843 868.588,899.663 937.599,902.905 940.948 C 916.852 955.357,940.247 950.057,947.592 930.823 C 949.784 925.086,950.063 921.985,948.826 917.121 C 947.947 913.663,898.727 820.250,839.447 709.538 L 731.667 508.243 731.667 495.163 C 731.667 487.969,732.126 479.787,732.687 476.980 L 733.708 471.877 813.546 471.784 C 900.914 471.682,900.442 471.731,908.762 461.844 C 916.377 452.794,916.961 438.110,910.091 428.461 C 908.195 425.798,903.412 422.055,899.462 420.143 C 893.037 417.032,889.267 416.667,863.640 416.667 C 847.888 416.667,835.000 416.283,835.000 415.815 C 835.000 415.346,837.677 406.158,840.950 395.398 C 853.947 352.658,860.821 313.447,869.189 234.300 C 873.878 189.955,873.614 186.735,864.506 177.115 C 858.317 170.579,850.159 167.650,841.410 168.823 C 833.778 169.847,824.384 176.467,820.840 183.320 C 819.356 186.191,816.986 201.456,814.967 221.150 C 805.083 317.591,797.328 357.752,779.706 403.750 L 774.758 416.667 754.046 416.667 L 733.333 416.667 733.333 243.686 L 733.333 70.706 729.583 63.283 C 724.452 53.125,716.839 48.333,705.833 48.333 C 699.571 48.333,695.596 49.387,691.536 52.123 " stroke="none" fill-rule="evenodd" fill="#000000"></path></svg>