<svg width="1000" height="1000" viewBox="0 0 1000 1000" version="1.1" id="svg5" sodipodi:docname="急.svg" inkscape:version="1.2 (dc2aedaf03, 2022-05-15)" xmlns:inkscape="http://www.inkscape.org/namespaces/inkscape" xmlns:sodipodi="http://sodipodi.sourceforge.net/DTD/sodipodi-0.dtd" xmlns="http://www.w3.org/2000/svg" xmlns:svg="http://www.w3.org/2000/svg"><path d="M46.989 25.157 C 40.310 26.523,34.197 31.379,30.113 38.560 L 26.667 44.621 26.667 500.808 C 26.667 920.246,26.887 957.460,29.401 962.759 C 30.905 965.928,34.784 970.542,38.021 973.011 L 43.907 977.500 500.704 977.894 L 957.500 978.289 964.167 974.554 C 968.556 972.095,972.114 968.282,974.583 963.390 L 978.333 955.960 978.331 500.897 C 978.328 70.950,978.167 45.518,975.414 40.119 C 973.811 36.975,969.839 32.279,966.586 29.682 L 960.671 24.961 506.250 24.564 C 256.318 24.345,49.651 24.612,46.989 25.157 M181.859 219.167 C 206.453 295.250,226.582 358.625,226.591 360.000 C 226.602 361.829,207.802 368.541,156.574 385.000 C 118.056 397.375,85.445 407.742,84.104 408.039 C 81.978 408.509,81.667 387.576,81.667 244.249 L 81.667 79.919 109.405 80.376 L 137.143 80.833 181.859 219.167 M277.728 206.547 C 300.040 275.689,318.117 332.396,317.898 332.562 C 317.679 332.729,309.474 335.529,299.665 338.784 C 286.534 343.142,281.434 344.193,280.330 342.769 C 279.506 341.704,260.241 283.083,237.518 212.500 C 214.796 141.917,195.845 83.206,195.404 82.032 C 194.774 80.352,199.134 79.997,215.882 80.365 L 237.161 80.833 277.728 206.547 M372.709 190.833 C 392.266 251.333,407.986 301.628,407.641 302.599 C 407.037 304.302,371.955 315.880,370.879 314.732 C 370.587 314.421,353.665 262.417,333.274 199.167 C 312.883 135.917,295.840 83.206,295.401 82.032 C 294.774 80.352,299.134 79.997,315.878 80.365 L 337.151 80.833 372.709 190.833 M467.747 175.617 C 484.569 227.748,498.333 271.371,498.333 272.557 C 498.333 274.863,463.239 286.863,461.505 285.150 C 460.958 284.609,446.041 239.167,428.356 184.167 C 410.671 129.167,395.842 83.206,395.403 82.032 C 394.774 80.352,399.134 79.997,415.882 80.365 L 437.160 80.833 467.747 175.617 M563.548 162.500 C 578.054 207.417,589.940 244.292,589.961 244.446 C 590.086 245.344,552.968 256.857,552.252 256.141 C 551.550 255.439,536.468 209.227,495.701 82.866 C 494.811 80.110,496.254 79.932,515.959 80.366 L 537.175 80.833 563.548 162.500 M922.628 108.728 C 921.971 124.528,921.267 137.622,921.064 137.825 C 920.057 138.832,646.496 226.667,644.366 226.667 C 643.005 226.667,641.389 224.979,640.775 222.917 C 639.271 217.869,596.385 84.725,595.411 82.083 C 594.800 80.426,628.263 80.000,759.233 80.000 L 923.823 80.000 922.628 108.728 M921.667 217.500 C 921.667 228.958,921.365 238.333,920.996 238.333 C 920.627 238.333,866.065 255.850,799.746 277.258 C 733.427 298.667,677.550 316.695,675.575 317.321 C 672.260 318.370,671.510 317.035,665.819 299.957 C 662.428 289.782,660.020 281.092,660.466 280.645 C 661.518 279.593,916.839 196.977,919.583 196.800 C 921.146 196.700,921.667 201.873,921.667 217.500 M921.667 317.371 L 921.667 338.075 916.250 339.782 C 913.271 340.721,864.230 356.530,807.270 374.912 C 750.309 393.294,703.031 408.333,702.207 408.333 C 700.654 408.333,690.000 377.605,690.000 373.126 C 690.000 371.240,719.167 361.146,803.750 333.760 C 866.313 313.503,918.438 296.871,919.583 296.798 C 921.145 296.700,921.667 301.848,921.667 317.371 M613.267 316.695 C 616.328 326.795,618.532 335.336,618.166 335.676 C 617.006 336.754,585.059 346.667,582.745 346.667 C 580.850 346.667,570.000 316.095,570.000 310.757 C 570.000 309.224,599.561 298.919,605.101 298.520 C 607.010 298.383,609.185 303.223,613.267 316.695 M522.362 344.586 C 525.646 354.442,528.333 363.005,528.333 363.615 C 528.333 364.836,491.758 377.371,490.963 376.423 C 488.685 373.706,478.928 339.829,480.198 339.044 C 481.886 338.001,513.353 327.012,515.279 326.793 C 515.891 326.724,519.078 334.731,522.362 344.586 M431.609 373.750 C 434.573 383.146,437.111 391.490,437.249 392.292 C 437.573 394.174,403.892 405.571,401.133 404.512 C 398.505 403.504,387.752 369.885,389.526 368.223 C 390.966 366.874,421.385 356.841,424.360 356.734 C 425.384 356.697,428.646 364.354,431.609 373.750 M341.762 404.667 C 344.926 414.719,346.544 422.423,345.666 423.254 C 343.187 425.603,310.975 434.985,309.819 433.695 C 308.444 432.161,298.333 401.470,298.333 398.829 C 298.333 396.637,333.495 384.906,335.263 386.507 C 335.866 387.053,338.791 395.225,341.762 404.667 M642.441 406.944 C 645.683 417.180,648.147 425.699,647.917 425.876 C 647.688 426.053,639.446 428.871,629.603 432.138 C 616.606 436.452,611.370 437.543,610.480 436.123 C 608.601 433.126,598.375 401.069,599.075 400.370 C 599.806 399.638,633.631 388.469,635.358 388.389 C 636.013 388.358,639.200 396.708,642.441 406.944 M921.667 417.500 C 921.667 428.958,921.357 438.333,920.979 438.333 C 920.600 438.333,878.426 451.855,827.259 468.381 C 776.092 484.908,733.140 498.220,731.811 497.964 C 729.351 497.490,717.676 463.445,719.381 461.720 C 720.466 460.622,916.701 396.991,919.583 396.803 C 921.146 396.701,921.667 401.872,921.667 417.500 M250.868 433.438 C 254.247 443.579,256.747 452.116,256.423 452.408 C 255.655 453.100,84.100 508.333,82.719 508.333 C 82.140 508.333,81.667 499.378,81.667 488.432 C 81.667 474.391,82.277 468.133,83.741 467.182 C 86.082 465.660,239.760 415.381,242.779 415.149 C 243.849 415.067,247.489 423.297,250.868 433.438 M551.981 436.660 C 555.311 446.740,557.540 455.283,556.934 455.645 C 552.729 458.157,521.013 466.659,519.987 465.550 C 518.173 463.587,507.506 430.265,508.415 429.397 C 509.549 428.313,540.456 418.674,543.380 418.492 C 545.184 418.379,547.689 423.671,551.981 436.660 M461.204 465.129 C 464.190 474.683,466.641 483.025,466.650 483.666 C 466.671 485.142,431.316 496.647,429.744 495.675 C 428.539 494.930,418.333 463.286,418.333 460.295 C 418.333 458.543,451.264 446.637,454.136 447.351 C 455.037 447.575,458.217 455.575,461.204 465.129 M370.679 494.507 C 373.964 504.319,376.093 512.851,375.410 513.466 C 373.868 514.854,343.212 525.000,340.560 525.000 C 338.471 525.000,326.104 490.022,327.637 488.451 C 329.014 487.042,358.715 476.950,361.936 476.798 C 364.006 476.700,366.212 481.169,370.679 494.507 M671.616 497.140 C 674.566 506.109,676.619 514.387,676.178 515.536 C 675.172 518.157,641.546 528.917,639.911 527.141 C 638.163 525.241,627.523 491.905,628.415 491.119 C 630.468 489.309,664.308 478.891,665.209 479.792 C 665.783 480.365,668.666 488.171,671.616 497.140 M921.667 517.371 L 921.667 538.074 905.417 543.176 C 896.479 545.982,860.297 557.633,825.011 569.066 C 789.725 580.500,760.372 589.325,759.782 588.678 C 757.699 586.393,747.677 553.434,748.741 552.370 C 749.974 551.137,916.402 497.003,919.583 496.800 C 921.145 496.700,921.667 501.848,921.667 517.371 M280.784 525.812 C 283.528 535.105,284.880 542.373,284.006 543.136 C 282.605 544.359,85.118 608.333,82.744 608.333 C 82.152 608.333,81.667 599.378,81.667 588.432 C 81.667 574.360,82.276 568.135,83.746 567.182 C 84.890 566.440,127.828 552.203,179.163 535.543 C 255.640 510.724,272.821 505.663,274.278 507.527 C 275.256 508.778,278.183 517.006,280.784 525.812 M581.247 527.257 C 584.345 537.204,586.644 545.535,586.356 545.771 C 586.069 546.006,577.769 548.875,567.912 552.147 C 551.632 557.550,549.853 557.839,548.501 555.298 C 545.841 550.297,538.077 523.269,538.735 521.296 C 539.440 519.179,569.413 508.375,573.224 508.864 C 574.722 509.056,577.720 515.928,581.247 527.257 M490.679 556.174 C 493.964 565.986,496.093 574.494,495.410 575.082 C 494.247 576.081,461.429 586.667,459.495 586.667 C 458.411 586.667,446.083 550.009,446.911 549.247 C 448.143 548.112,479.296 538.464,481.936 538.400 C 483.990 538.351,486.248 542.941,490.679 556.174 M399.573 584.300 C 402.547 593.393,404.984 601.749,404.990 602.868 C 404.998 604.455,376.773 614.543,369.324 615.616 C 367.607 615.863,356.550 583.737,357.125 580.172 C 357.484 577.945,388.891 566.605,392.500 567.400 C 393.417 567.602,396.600 575.207,399.573 584.300 M700.908 588.299 C 704.021 597.905,706.028 606.293,705.367 606.938 C 704.006 608.268,673.103 618.333,670.382 618.333 C 668.775 618.333,659.222 592.055,658.004 584.286 C 657.579 581.577,660.120 580.208,674.167 575.577 C 683.333 572.555,691.827 570.252,693.041 570.458 C 694.255 570.664,697.795 578.693,700.908 588.299 M309.592 614.833 C 312.659 624.366,314.567 632.729,313.834 633.418 C 312.594 634.583,85.085 708.333,82.733 708.333 C 82.146 708.333,81.667 699.378,81.667 688.432 C 81.667 674.375,82.277 668.134,83.744 667.182 C 87.789 664.556,297.551 596.921,300.758 597.208 C 303.357 597.441,305.147 601.012,309.592 614.833 M921.667 760.000 L 921.667 923.333 895.098 923.333 C 875.674 923.333,868.167 922.773,867.182 921.250 C 864.307 916.809,776.936 644.100,778.031 642.988 C 779.305 641.694,916.219 597.022,919.583 596.802 C 921.237 596.695,921.667 630.372,921.667 760.000 M610.166 616.679 C 613.048 625.769,615.019 634.212,614.548 635.442 C 613.541 638.066,579.786 648.868,578.237 647.062 C 576.647 645.208,566.339 611.439,567.123 610.655 C 568.519 609.259,602.547 598.897,603.714 599.512 C 604.381 599.864,607.285 607.589,610.166 616.679 M519.435 645.769 C 522.496 654.901,525.000 663.179,525.000 664.165 C 525.000 665.915,494.771 676.667,489.852 676.667 C 487.252 676.667,475.816 645.051,477.063 641.310 C 477.769 639.194,507.727 628.370,511.518 628.862 C 512.917 629.043,516.125 635.895,519.435 645.769 M428.451 673.333 C 430.864 681.125,433.353 689.116,433.982 691.092 C 435.036 694.408,433.706 695.155,416.624 700.848 C 406.449 704.238,397.799 706.688,397.402 706.291 C 395.278 704.167,385.614 669.817,386.915 669.013 C 391.345 666.275,416.405 658.557,419.948 658.839 C 423.585 659.129,424.572 660.812,428.451 673.333 M724.163 661.661 C 725.370 663.614,808.302 920.243,808.321 922.083 C 808.344 924.346,768.908 923.549,767.127 921.250 C 764.920 918.401,686.097 673.348,687.073 672.371 C 687.863 671.582,719.858 660.360,721.985 660.126 C 722.618 660.057,723.599 660.748,724.163 661.661 M338.679 705.089 L 344.765 723.512 341.133 725.084 C 336.713 726.997,84.258 808.333,82.741 808.333 C 82.150 808.333,81.667 799.378,81.667 788.432 C 81.667 774.378,82.277 768.134,83.743 767.182 C 86.018 765.704,328.104 686.935,330.880 686.769 C 331.822 686.713,335.331 694.957,338.679 705.089 M671.199 805.833 C 691.607 869.083,708.312 921.396,708.319 922.083 C 708.345 924.347,668.908 923.549,667.132 921.250 C 665.231 918.789,596.667 706.470,596.667 703.045 C 596.667 700.471,625.174 690.020,630.796 690.533 C 633.640 690.792,639.174 706.585,671.199 805.833 M546.423 728.750 C 548.196 734.479,562.851 780.083,578.990 830.092 C 595.129 880.101,608.333 921.539,608.333 922.176 C 608.333 924.376,568.862 923.490,567.131 921.250 C 566.245 920.104,552.151 877.542,535.810 826.667 C 519.469 775.792,505.788 733.273,505.408 732.180 C 504.971 730.923,511.350 728.070,522.776 724.410 C 532.707 721.229,541.366 718.560,542.016 718.480 C 542.667 718.399,544.650 723.021,546.423 728.750 M480.504 834.721 C 495.810 882.234,508.333 921.609,508.333 922.221 C 508.333 924.391,468.840 923.460,467.132 921.250 C 465.497 919.134,414.976 763.427,415.029 760.670 C 415.058 759.206,444.928 748.838,450.087 748.502 C 452.068 748.373,459.202 768.597,480.504 834.721 M385.197 849.238 C 397.903 888.615,408.307 921.400,408.316 922.092 C 408.326 922.784,335.021 923.159,245.417 922.925 L 82.500 922.500 82.040 895.960 C 81.741 878.773,82.206 868.794,83.358 867.642 C 85.278 865.722,358.205 776.833,360.631 777.338 C 361.436 777.506,372.491 809.861,385.197 849.238 " stroke="none" fill-rule="evenodd" fill="#000000"></path></svg>