<svg width="1000" height="1000" viewBox="0 0 1000 1000" version="1.1" id="svg5" sodipodi:docname="悪.svg" inkscape:version="1.2.1 (9c6d41e410, 2022-07-14)" xmlns:inkscape="http://www.inkscape.org/namespaces/inkscape" xmlns:sodipodi="http://sodipodi.sourceforge.net/DTD/sodipodi-0.dtd" xmlns="http://www.w3.org/2000/svg" xmlns:svg="http://www.w3.org/2000/svg"><path d="M483.203 52.123 C 480.110 54.207,475.874 58.443,473.790 61.536 L 470.000 67.160 470.000 163.580 L 470.000 260.000 394.578 260.000 L 319.155 260.000 285.285 198.525 C 266.657 164.713,249.409 135.180,246.958 132.895 C 240.491 126.869,236.094 125.000,228.377 125.000 C 213.158 125.000,201.026 136.846,201.026 151.705 C 201.026 158.618,204.016 164.920,228.013 208.583 C 242.856 235.591,255.000 258.208,255.000 258.844 C 255.000 259.480,227.743 260.000,194.429 260.000 C 134.415 260.000,133.791 260.035,126.600 263.838 C 118.257 268.250,111.667 278.838,111.667 287.829 C 111.667 295.456,117.082 305.547,123.712 310.276 L 129.167 314.167 297.083 314.607 L 465.000 315.047 465.000 318.761 C 465.000 324.395,451.118 351.024,441.329 364.167 C 428.197 381.797,398.184 410.924,376.323 427.250 C 352.188 445.276,315.845 467.330,288.333 480.646 L 267.500 490.729 246.536 491.614 C 226.805 492.448,225.211 492.775,219.451 497.169 C 216.084 499.738,212.170 504.082,210.752 506.824 C 207.655 512.813,205.540 513.677,176.524 520.807 C 147.451 527.951,122.777 531.626,96.667 532.703 C 73.122 533.674,63.708 536.260,57.691 543.411 C 48.884 553.876,48.202 565.435,55.721 576.796 C 62.823 587.528,68.404 588.948,99.082 587.829 C 148.545 586.026,194.816 575.815,262.080 551.859 L 276.660 546.667 374.164 546.667 L 471.667 546.667 471.667 696.199 L 471.667 845.731 436.250 810.497 C 398.469 772.910,396.187 771.346,382.997 773.984 C 376.316 775.320,367.370 782.138,364.165 788.337 C 361.003 794.451,360.944 807.133,364.049 812.999 C 365.359 815.475,393.672 844.634,426.966 877.797 C 479.674 930.300,488.308 938.242,493.750 939.233 C 506.670 941.586,518.281 936.005,524.643 924.385 C 527.285 919.559,527.534 905.158,527.952 732.917 L 528.403 546.667 650.118 546.667 C 753.722 546.667,772.534 546.304,776.551 544.227 C 782.409 541.197,789.668 532.738,791.014 527.372 C 791.572 525.151,792.331 523.333,792.702 523.333 C 793.072 523.333,816.769 536.173,845.363 551.866 C 911.499 588.163,915.167 590.000,921.510 590.000 C 933.191 590.000,944.512 581.315,948.309 569.440 C 951.244 560.259,948.065 549.953,940.124 542.914 C 936.765 539.936,843.508 488.000,732.887 427.500 C 622.266 367.000,531.737 316.955,531.712 316.289 C 531.687 315.622,605.944 315.065,696.728 315.050 C 876.884 315.020,865.771 315.623,875.550 305.335 C 887.699 292.553,882.805 270.665,866.017 262.699 C 861.121 260.375,852.426 260.000,803.498 260.000 C 772.008 260.000,746.667 259.348,746.667 258.537 C 746.667 257.733,747.799 256.135,749.184 254.986 C 753.396 251.490,765.955 231.657,773.448 216.667 C 780.831 201.897,795.726 162.459,798.363 150.699 C 802.789 130.958,783.673 112.542,764.667 118.236 C 753.004 121.731,748.188 128.302,740.171 151.667 C 730.866 178.784,718.780 204.173,709.332 216.452 C 699.908 228.700,682.453 244.803,669.254 253.427 L 659.194 260.000 592.097 260.000 L 525.000 260.000 525.000 165.353 L 525.000 70.706 521.250 63.283 C 516.118 53.125,508.506 48.333,497.500 48.333 C 491.238 48.333,487.263 49.387,483.203 52.123 M620.833 428.696 C 681.333 461.786,731.546 489.492,732.417 490.264 C 733.288 491.035,654.637 491.667,557.638 491.667 L 381.276 491.667 397.721 479.761 C 433.544 453.826,460.061 429.230,480.320 403.142 C 490.183 390.442,493.407 385.760,502.364 371.119 C 504.368 367.844,506.101 366.730,508.041 367.468 C 509.577 368.052,560.333 395.605,620.833 428.696 " stroke="none" fill-rule="evenodd" fill="#000000"></path></svg>