<svg width="1000" height="1000" viewBox="0 0 1000 1000" version="1.1" id="svg5" sodipodi:docname="意.svg" inkscape:version="1.2.1 (9c6d41e410, 2022-07-14)" xmlns:inkscape="http://www.inkscape.org/namespaces/inkscape" xmlns:sodipodi="http://sodipodi.sourceforge.net/DTD/sodipodi-0.dtd" xmlns="http://www.w3.org/2000/svg" xmlns:svg="http://www.w3.org/2000/svg"><path d="M155.833 52.362 C 148.948 55.436,141.923 63.296,139.967 70.114 C 137.642 78.222,137.759 447.156,140.090 458.027 C 141.952 466.708,149.146 475.791,156.321 478.519 C 158.464 479.333,163.642 480.000,167.828 480.000 C 177.192 480.000,185.084 475.441,190.333 466.999 C 193.831 461.374,194.216 458.534,194.730 434.583 L 195.293 408.333 229.323 408.333 L 263.353 408.333 262.927 541.250 L 262.500 674.167 200.417 674.604 L 138.333 675.041 138.297 590.437 C 138.263 511.683,138.047 505.363,135.173 499.036 C 125.635 478.035,98.172 476.858,86.743 496.959 C 83.298 503.017,83.265 504.233,83.713 607.792 L 84.167 712.500 88.168 718.111 C 90.369 721.197,95.244 725.118,99.002 726.824 C 105.342 729.704,111.333 729.929,182.296 729.963 L 258.759 730.000 257.680 736.750 C 255.894 747.919,246.719 774.873,239.252 790.887 C 220.071 832.025,192.046 862.251,157.500 879.059 C 137.942 888.574,122.053 892.816,97.500 895.075 C 68.683 897.727,67.289 898.025,61.678 902.746 C 48.832 913.555,47.524 929.934,58.508 942.444 C 65.752 950.695,72.397 952.316,94.190 951.148 C 158.900 947.680,216.466 918.013,256.779 867.357 C 283.294 834.039,306.339 781.310,314.078 736.250 L 315.151 730.000 379.027 730.000 L 442.904 730.000 444.062 738.732 C 446.270 755.374,456.638 765.385,471.667 765.385 C 481.638 765.385,489.924 760.698,495.333 751.999 L 499.167 745.833 499.167 624.167 L 499.167 502.500 495.333 496.334 C 490.010 487.774,481.209 482.686,471.785 482.720 C 461.805 482.756,454.382 486.821,448.743 495.339 L 444.167 502.252 443.680 588.646 L 443.193 675.040 381.180 674.604 L 319.167 674.167 319.167 541.667 L 319.167 409.167 516.260 408.743 L 713.353 408.320 712.927 541.243 L 712.500 674.167 650.417 674.604 L 588.333 675.041 588.297 590.437 C 588.263 511.683,588.047 505.363,585.173 499.036 C 575.635 478.035,548.172 476.858,536.743 496.959 C 533.298 503.017,533.265 504.233,533.713 607.792 L 534.167 712.500 538.168 718.111 C 540.369 721.197,545.244 725.118,549.002 726.824 C 555.351 729.708,561.390 729.929,634.583 729.963 L 713.333 730.000 713.333 829.220 C 713.333 937.766,713.123 935.319,723.182 943.784 C 733.977 952.867,747.634 952.914,758.341 943.904 C 768.730 935.162,768.333 939.686,768.333 830.083 L 768.333 730.000 830.619 730.000 L 892.904 730.000 894.062 738.732 C 896.270 755.374,906.638 765.385,921.667 765.385 C 931.638 765.385,939.924 760.698,945.333 751.999 L 949.167 745.833 949.167 624.167 L 949.167 502.500 945.333 496.334 C 940.010 487.774,931.209 482.686,921.785 482.720 C 911.805 482.756,904.382 486.821,898.743 495.339 L 894.167 502.252 893.680 588.646 L 893.193 675.040 831.180 674.604 L 769.167 674.167 769.167 541.667 L 769.167 409.167 786.936 408.695 L 804.705 408.224 805.269 434.528 C 805.784 458.535,806.168 461.372,809.667 466.999 C 814.916 475.441,822.808 480.000,832.172 480.000 C 836.358 480.000,841.536 479.333,843.679 478.519 C 850.854 475.791,858.048 466.708,859.910 458.027 C 862.247 447.130,862.339 78.321,860.007 69.926 C 858.145 63.225,849.786 54.400,842.808 51.769 C 839.554 50.542,734.376 50.020,499.475 50.065 C 220.255 50.119,159.956 50.522,155.833 52.362 M805.000 154.167 L 805.000 201.667 500.000 201.667 L 195.000 201.667 195.000 154.167 L 195.000 106.667 500.000 106.667 L 805.000 106.667 805.000 154.167 M805.000 305.000 L 805.000 353.333 500.000 353.333 L 195.000 353.333 195.000 305.000 L 195.000 256.667 500.000 256.667 L 805.000 256.667 805.000 305.000 " stroke="none" fill-rule="evenodd" fill="#000000"></path></svg>