<svg width="1000" height="1000" viewBox="0 0 1000 1000" version="1.1" id="svg5" sodipodi:docname="我.svg" inkscape:version="1.2.1 (9c6d41e410, 2022-07-14)" xmlns:inkscape="http://www.inkscape.org/namespaces/inkscape" xmlns:sodipodi="http://sodipodi.sourceforge.net/DTD/sodipodi-0.dtd" xmlns="http://www.w3.org/2000/svg" xmlns:svg="http://www.w3.org/2000/svg"><path d="M279.167 51.838 C 272.786 53.800,267.834 58.003,263.470 65.161 C 260.054 70.765,260.012 72.306,260.006 192.862 L 260.000 314.892 192.785 315.362 L 125.570 315.833 119.474 320.484 C 105.934 330.815,103.818 347.397,114.429 360.008 C 122.935 370.117,122.010 370.000,193.515 370.000 L 258.862 370.000 257.774 402.487 C 253.567 528.082,222.753 654.161,172.635 750.833 C 144.142 805.794,122.335 835.829,78.246 880.833 C 56.362 903.171,51.934 908.531,50.966 913.854 C 47.069 935.277,70.836 953.691,89.464 943.680 C 104.656 935.516,149.793 887.572,174.521 853.333 C 232.755 772.704,277.882 660.133,297.456 546.667 C 299.907 532.458,302.452 518.208,303.111 515.000 L 304.308 509.167 319.098 529.167 C 398.315 636.287,500.226 732.707,613.333 807.549 C 699.483 864.554,787.269 907.531,882.500 939.325 C 914.217 949.914,916.177 950.358,922.929 948.493 C 937.711 944.407,946.646 929.678,943.036 915.343 C 940.331 904.601,933.124 898.267,918.264 893.573 C 823.979 863.788,723.213 815.121,638.600 758.504 C 601.748 733.845,540.000 686.912,540.000 683.561 C 540.000 681.557,792.109 546.442,793.304 547.805 C 793.960 548.554,805.980 578.792,820.016 615.000 C 848.437 688.321,849.827 691.493,856.082 697.292 C 864.685 705.270,880.010 705.937,889.871 698.763 C 896.328 694.066,902.029 682.007,901.106 675.000 C 900.507 670.457,849.263 535.987,831.559 492.500 C 829.693 487.917,814.142 448.203,797.000 404.248 C 763.150 317.449,762.152 315.554,748.450 312.076 C 731.180 307.693,714.545 320.638,714.545 338.461 C 714.545 342.483,724.524 370.208,743.254 418.226 C 759.043 458.706,771.604 492.727,771.166 493.830 C 770.267 496.094,543.280 618.835,542.125 617.681 C 541.716 617.272,574.445 515.618,614.857 391.783 C 665.852 235.519,688.333 164.416,688.333 159.395 C 688.333 150.892,683.524 142.779,675.131 137.123 C 664.569 130.005,647.183 133.246,639.723 143.722 C 637.774 146.460,601.055 256.351,558.125 387.925 C 515.196 519.499,479.607 627.604,479.040 628.159 C 477.389 629.772,429.110 578.218,401.832 545.714 C 375.053 513.805,338.755 463.845,321.112 434.612 C 313.603 422.170,313.333 421.269,313.333 408.613 C 313.333 401.403,313.816 389.789,314.407 382.805 L 315.480 370.107 382.620 369.637 C 447.448 369.183,449.918 369.048,454.360 365.730 C 462.253 359.835,465.508 354.029,466.177 344.652 C 467.018 332.868,462.048 323.961,451.723 318.750 C 444.399 315.053,443.376 315.000,379.647 315.000 L 315.000 315.000 315.000 194.275 C 315.000 112.809,314.422 72.025,313.222 68.858 C 310.694 62.187,305.213 56.710,297.500 53.150 C 290.183 49.773,286.695 49.523,279.167 51.838 " stroke="none" fill-rule="evenodd" fill="black"></path></svg>