<svg width="1000" height="1000" viewBox="0 0 1000 1000" version="1.1" id="svg5" xmlns="http://www.w3.org/2000/svg" xmlns:svg="http://www.w3.org/2000/svg"><path d="M625.614 51.741 C 619.591 53.571,608.770 64.806,607.667 70.375 C 607.254 72.460,606.087 112.459,605.072 159.262 C 604.058 206.064,602.779 247.127,602.229 250.512 L 601.231 256.667 547.886 256.667 L 494.542 256.667 495.736 242.083 C 499.409 197.219,499.925 185.204,499.961 143.696 C 500.004 93.167,499.651 91.095,489.451 82.140 C 476.318 70.609,456.246 74.491,448.282 90.102 C 445.290 95.965,444.999 100.038,444.994 136.184 C 444.988 179.450,443.018 217.600,439.117 250.000 C 436.128 274.823,430.148 310.997,428.165 316.250 L 426.749 320.000 381.467 320.000 L 336.184 320.000 337.377 295.417 C 338.033 281.896,339.246 258.833,340.072 244.167 C 340.899 229.500,342.091 185.147,342.723 145.605 L 343.870 73.709 339.459 66.181 C 334.604 57.897,324.349 51.667,315.569 51.667 C 307.123 51.667,296.474 58.463,292.171 66.600 C 288.614 73.327,288.332 75.880,288.313 101.512 C 288.273 154.699,283.541 285.306,280.714 311.250 L 279.760 320.000 229.724 320.000 L 179.687 320.000 180.699 312.083 C 183.419 290.805,184.992 254.927,184.996 214.103 C 185.000 170.679,184.864 168.769,181.250 161.610 C 171.223 141.743,142.283 142.120,132.735 162.241 C 130.431 167.096,130.000 174.439,130.000 208.869 C 130.000 323.755,116.994 397.737,78.878 499.676 C 72.947 515.540,67.688 531.022,67.191 534.079 C 65.042 547.321,76.547 562.111,90.640 564.225 C 101.205 565.809,111.933 560.535,117.355 551.090 C 128.562 531.570,157.248 444.589,166.601 401.771 C 169.491 388.536,172.233 377.099,172.693 376.354 C 173.153 375.609,196.361 375.000,224.265 375.000 L 275.000 375.000 275.000 378.798 C 275.000 380.887,273.504 395.832,271.676 412.009 C 255.729 553.104,229.192 660.148,190.159 740.833 C 160.831 801.456,132.883 837.663,79.167 884.625 C 55.745 905.101,53.917 907.144,51.613 915.417 C 46.364 934.259,66.407 954.101,85.049 948.516 C 99.702 944.125,164.270 882.666,188.546 850.000 C 226.307 799.190,253.898 742.792,277.532 668.106 C 290.682 626.553,305.408 562.704,313.423 512.500 C 315.471 499.667,317.684 488.559,318.340 487.817 C 318.996 487.074,353.121 534.324,394.173 592.817 C 435.225 651.309,471.499 701.996,474.780 705.453 C 485.990 717.262,501.575 717.150,513.551 705.174 C 520.242 698.484,522.760 690.376,520.983 681.250 C 520.321 677.854,485.359 626.719,427.254 544.167 C 376.284 471.750,333.169 410.250,331.443 407.500 C 328.398 402.648,328.222 392.132,330.962 378.750 L 331.730 375.000 371.698 375.000 C 393.681 375.000,411.667 375.598,411.667 376.328 C 411.667 378.351,399.718 413.051,390.176 438.742 C 385.496 451.341,381.679 464.091,381.694 467.075 C 381.759 479.933,395.527 493.248,408.816 493.306 C 416.270 493.338,427.028 488.257,430.762 482.939 C 435.200 476.621,456.424 420.269,466.708 387.500 C 468.722 381.083,473.921 361.583,478.262 344.167 L 486.154 312.500 542.244 312.061 L 598.333 311.622 598.333 316.561 C 598.333 325.412,593.298 380.014,589.133 416.320 C 568.193 598.872,526.731 730.966,464.360 813.838 C 446.543 837.512,431.455 852.941,386.150 893.820 C 374.669 904.180,371.383 908.198,369.906 913.681 C 365.381 930.486,379.254 948.333,396.842 948.333 C 404.849 948.333,412.857 943.101,435.833 922.860 C 491.130 874.145,523.472 832.891,553.822 772.358 C 586.455 707.274,612.703 621.109,629.174 525.000 C 631.609 510.792,634.104 497.872,634.717 496.290 C 635.509 494.251,673.384 556.804,764.897 711.290 C 835.881 831.122,896.104 932.353,898.725 936.248 C 904.670 945.081,911.852 948.938,922.128 948.814 C 937.338 948.629,948.892 936.861,948.947 921.497 C 948.973 914.293,939.834 898.426,798.237 659.831 C 657.929 423.407,647.502 405.314,647.529 398.333 C 647.561 389.881,653.407 316.971,654.311 313.750 C 654.768 312.119,672.807 311.667,737.339 311.667 C 791.691 311.667,821.382 311.061,824.475 309.889 C 834.882 305.946,841.944 295.547,841.944 284.167 C 841.944 275.107,838.309 268.089,830.550 262.169 L 824.429 257.500 741.122 257.038 L 657.815 256.576 658.902 228.705 C 659.499 213.375,660.430 171.958,660.971 136.667 C 661.892 76.512,661.762 72.143,658.893 66.785 C 652.305 54.481,637.952 47.993,625.614 51.741 " stroke="none" fill-rule="evenodd" fill="black"></path></svg>