<svg width="1000" height="1000" viewBox="0 0 1000 1000" version="1.1" id="svg5" sodipodi:docname="手.svg" inkscape:version="1.2.1 (9c6d41e410, 2022-07-14)" xmlns:inkscape="http://www.inkscape.org/namespaces/inkscape" xmlns:sodipodi="http://sodipodi.sourceforge.net/DTD/sodipodi-0.dtd" xmlns="http://www.w3.org/2000/svg" xmlns:svg="http://www.w3.org/2000/svg"><path d="M497.759 52.377 C 489.972 55.219,484.384 60.252,480.927 67.538 C 478.617 72.405,478.333 99.119,478.333 311.502 L 478.333 550.000 324.167 550.000 L 170.000 550.000 170.000 410.246 L 170.000 270.493 166.210 264.869 C 159.642 255.123,152.255 251.272,141.558 252.020 C 130.116 252.820,122.503 257.806,118.176 267.335 C 115.223 273.838,115.072 281.588,115.039 428.333 C 115.001 601.136,114.102 588.549,127.238 599.048 L 133.642 604.167 303.590 604.614 C 463.853 605.036,473.489 605.226,472.680 607.947 C 472.208 609.535,470.707 615.708,469.345 621.667 C 465.891 636.773,454.618 668.826,446.829 685.684 C 415.047 754.476,357.510 813.713,289.167 848.004 C 232.543 876.414,176.273 889.946,101.461 893.142 C 73.688 894.328,69.794 894.855,64.461 898.151 C 46.657 909.155,46.766 934.202,64.667 945.333 C 70.437 948.920,72.332 949.140,94.167 948.754 C 267.235 945.689,406.207 869.734,482.215 736.667 C 501.413 703.057,517.021 662.331,525.650 623.333 L 529.522 605.833 685.595 605.408 L 841.667 604.983 841.667 621.305 C 841.667 634.946,842.283 638.833,845.417 644.966 C 850.596 655.103,856.282 658.810,867.894 659.623 C 875.913 660.184,878.438 659.651,883.180 656.398 C 895.349 648.047,895.742 646.706,896.667 610.300 C 897.125 592.260,897.125 507.992,896.667 423.038 C 895.839 269.570,895.811 268.545,892.347 263.871 C 890.429 261.284,886.304 257.413,883.180 255.269 C 878.438 252.016,875.913 251.483,867.894 252.044 C 856.282 252.856,850.596 256.564,845.417 266.701 L 841.667 274.040 841.667 412.028 L 841.667 550.017 687.917 549.592 L 534.167 549.167 533.333 309.167 C 532.536 79.656,532.366 68.945,529.425 64.090 C 522.819 53.185,509.272 48.174,497.759 52.377 " stroke="none" fill-rule="evenodd" fill="black"></path></svg>