<svg width="1000" height="1000" viewBox="0 0 1000 1000" version="1.1" id="svg5" sodipodi:docname="抗.svg" inkscape:version="1.2.1 (9c6d41e410, 2022-07-14)" xmlns:inkscape="http://www.inkscape.org/namespaces/inkscape" xmlns:sodipodi="http://sodipodi.sourceforge.net/DTD/sodipodi-0.dtd" xmlns="http://www.w3.org/2000/svg" xmlns:svg="http://www.w3.org/2000/svg"><path d="M402.465 91.535 C 389.872 94.589,381.008 105.635,381.053 118.215 C 381.089 128.195,385.154 135.618,393.672 141.257 L 400.585 145.833 476.126 146.329 C 541.694 146.759,551.667 147.152,551.667 149.306 C 551.667 150.671,549.400 171.823,546.630 196.311 C 511.015 511.171,461.329 708.165,374.427 879.067 C 358.380 910.624,355.849 916.695,355.949 923.384 C 356.311 947.501,386.650 959.014,403.021 941.246 C 408.225 935.598,443.377 865.366,457.033 833.333 C 499.877 732.833,532.459 623.829,557.664 496.667 C 564.372 462.824,579.460 374.451,582.847 349.167 L 584.186 339.167 646.200 338.730 L 708.213 338.293 708.782 572.896 C 709.298 786.061,709.615 809.144,712.249 825.486 C 716.311 850.687,722.107 870.005,730.901 887.650 C 746.762 919.476,771.693 938.192,808.946 946.239 C 820.363 948.705,831.347 949.167,878.624 949.167 C 932.709 949.167,934.916 949.042,939.355 945.730 C 946.859 940.132,950.418 934.082,951.231 925.541 C 951.914 918.370,948.809 908.575,922.533 835.000 C 906.328 789.625,891.351 748.684,889.250 744.019 C 881.332 726.437,860.274 721.860,846.134 734.647 C 841.712 738.646,836.667 749.051,836.667 754.172 C 836.667 757.302,869.847 853.384,884.580 892.917 C 885.178 894.521,880.051 894.992,862.262 894.967 C 822.595 894.910,805.169 890.990,792.016 879.164 C 777.324 865.955,768.906 839.897,765.097 795.833 C 764.006 783.211,763.361 688.464,763.351 538.996 L 763.333 302.160 759.544 296.536 C 757.459 293.443,753.223 289.207,750.131 287.123 L 744.507 283.333 669.019 283.333 C 627.500 283.333,593.204 282.771,592.805 282.083 C 592.407 281.396,593.162 272.583,594.483 262.500 C 595.804 252.417,599.309 222.417,602.271 195.833 L 607.656 147.500 751.035 146.667 L 894.413 145.833 900.123 141.908 C 910.066 135.074,912.500 130.437,912.500 118.333 C 912.500 106.229,910.065 101.592,900.122 94.758 L 894.412 90.833 650.956 90.573 C 517.055 90.431,405.234 90.863,402.465 91.535 M127.067 130.184 C 117.267 135.035,112.815 141.852,112.020 153.224 C 111.272 163.922,115.123 171.309,124.869 177.877 C 129.929 181.287,132.464 181.667,150.148 181.667 C 160.958 181.667,170.207 182.319,170.700 183.117 C 171.807 184.909,168.875 405.500,167.324 437.083 L 166.199 460.000 140.862 460.000 C 117.626 460.000,114.922 460.318,108.267 463.838 C 100.129 468.141,93.333 478.789,93.333 487.236 C 93.333 495.125,99.519 506.095,106.368 510.354 C 111.873 513.777,115.142 514.252,138.333 515.000 L 164.167 515.833 163.676 527.500 C 159.569 625.095,147.576 719.454,130.630 787.500 C 121.823 822.867,118.502 833.134,115.353 834.734 C 113.784 835.531,102.833 838.688,91.018 841.748 C 79.202 844.808,67.220 848.872,64.391 850.779 C 56.378 856.179,51.667 864.374,51.667 872.911 C 51.667 886.807,58.608 895.796,72.560 899.969 C 78.964 901.884,84.992 900.457,198.393 870.169 C 399.971 816.330,387.874 819.859,394.534 812.954 C 403.821 803.327,405.499 794.097,400.117 782.243 C 396.388 774.032,385.214 766.667,376.484 766.667 C 373.337 766.667,365.734 768.061,359.590 769.764 C 353.445 771.468,348.203 772.647,347.940 772.384 C 347.677 772.121,350.470 714.289,354.147 643.870 L 360.833 515.833 375.977 514.990 C 389.399 514.242,391.834 513.601,397.403 509.353 C 412.036 498.193,412.060 476.826,397.453 465.685 C 392.132 461.626,389.239 460.801,377.693 460.048 L 364.167 459.167 364.647 447.500 C 364.911 441.083,368.475 371.874,372.566 293.703 C 379.400 163.124,379.797 151.073,377.439 145.430 C 373.983 137.159,370.431 133.443,362.500 129.801 C 356.246 126.929,348.977 126.738,245.000 126.705 C 135.585 126.670,134.076 126.714,127.067 130.184 M322.446 192.917 C 321.755 201.443,308.333 454.655,308.333 459.154 C 308.333 459.650,289.021 459.856,265.417 459.611 L 222.500 459.167 222.661 451.667 C 222.749 447.542,223.833 385.104,225.071 312.917 L 227.320 181.667 275.338 181.667 L 323.357 181.667 322.446 192.917 M305.042 517.083 C 305.297 529.583,290.944 786.216,289.929 787.305 C 288.556 788.778,186.392 816.667,182.369 816.667 C 180.748 816.667,180.611 815.359,181.801 811.250 C 185.272 799.261,195.131 752.732,199.017 730.000 C 206.663 685.273,213.128 626.716,216.589 570.833 C 217.554 555.250,218.783 536.313,219.321 528.750 L 220.299 515.000 262.650 515.000 C 295.396 515.000,305.010 515.472,305.042 517.083 " stroke="none" fill-rule="evenodd" fill="black"></path></svg>