<svg width="1000" height="1000" viewBox="0 0 1000 1000" version="1.1" id="svg5" sodipodi:docname="散.svg" inkscape:version="1.2.1 (9c6d41e410, 2022-07-14)" xmlns:inkscape="http://www.inkscape.org/namespaces/inkscape" xmlns:sodipodi="http://sodipodi.sourceforge.net/DTD/sodipodi-0.dtd" xmlns="http://www.w3.org/2000/svg" xmlns:svg="http://www.w3.org/2000/svg"><path d="M421.536 68.790 C 412.642 74.783,408.332 82.475,408.344 92.330 C 408.351 97.605,409.458 102.505,411.261 105.238 C 412.859 107.660,433.479 131.079,457.083 157.280 C 480.688 183.482,500.000 205.312,500.000 205.793 C 500.000 206.273,415.963 206.667,313.251 206.667 C 108.465 206.667,121.726 206.006,112.765 216.656 C 107.782 222.578,105.827 230.832,107.409 239.266 C 108.912 247.277,118.736 257.865,126.644 259.994 C 135.422 262.358,864.498 262.379,873.275 260.016 C 881.265 257.864,891.080 247.321,892.591 239.266 C 894.173 230.832,892.218 222.578,887.235 216.656 C 878.340 206.085,887.825 206.667,724.378 206.667 L 575.257 206.667 513.878 138.327 C 477.575 97.905,450.354 68.968,447.248 67.493 C 439.353 63.745,428.186 64.308,421.536 68.790 M565.990 348.777 C 562.410 350.825,557.974 354.531,556.133 357.014 C 551.976 362.621,550.411 377.861,553.413 383.511 C 555.883 388.160,885.139 921.061,891.395 930.536 C 899.484 942.787,914.920 946.660,927.343 939.556 C 937.653 933.661,940.835 928.132,940.826 916.128 L 940.818 905.833 771.829 632.500 C 678.885 482.167,600.889 357.012,598.503 354.378 C 589.694 344.651,577.023 342.468,565.990 348.777 M359.132 349.882 C 352.481 351.477,345.872 355.921,342.502 361.064 C 341.001 363.354,337.181 377.342,334.013 392.148 C 304.375 530.656,249.164 669.489,185.735 765.000 C 155.746 810.157,121.757 849.247,86.045 879.651 C 70.615 892.787,66.667 898.803,66.667 909.180 C 66.667 927.452,87.049 941.426,103.607 934.508 C 117.114 928.864,162.285 885.505,190.778 850.833 C 270.487 753.838,337.841 607.696,378.968 442.500 C 390.451 396.377,393.921 376.867,391.864 370.000 C 389.264 361.323,383.926 355.110,375.964 351.494 C 368.671 348.182,366.921 348.014,359.132 349.882 " stroke="none" fill-rule="evenodd" fill="#000000"></path></svg>