<svg width="1000" height="1000" viewBox="0 0 1000 1000" version="1.1" id="svg5" sodipodi:docname="文.svg" inkscape:version="1.2.1 (9c6d41e410, 2022-07-14)" xmlns:inkscape="http://www.inkscape.org/namespaces/inkscape" xmlns:sodipodi="http://sodipodi.sourceforge.net/DTD/sodipodi-0.dtd" xmlns="http://www.w3.org/2000/svg" xmlns:svg="http://www.w3.org/2000/svg"><path d="M215.833 53.135 C 212.167 54.818,207.783 57.752,206.092 59.654 C 198.975 67.658,198.483 72.765,198.406 139.524 L 198.333 203.215 137.785 203.691 L 77.236 204.167 71.267 208.721 C 59.044 218.047,59.858 196.353,60.372 499.167 C 60.803 753.046,61.022 771.178,63.717 776.103 C 74.400 795.627,102.267 795.627,112.950 776.103 C 115.642 771.182,115.863 753.868,116.276 514.583 L 116.718 258.333 157.526 258.333 L 198.333 258.333 198.343 590.417 C 198.349 826.333,198.882 924.408,200.181 929.088 C 204.040 942.986,220.092 952.497,233.108 948.598 C 241.214 946.169,247.576 941.212,251.283 934.436 C 253.985 929.498,254.194 908.088,254.607 593.750 L 255.048 258.333 295.857 258.333 L 336.667 258.333 336.667 473.333 C 336.667 591.583,336.334 688.333,335.927 688.333 C 335.520 688.333,330.915 680.646,325.694 671.250 C 312.871 648.176,309.131 643.499,300.427 639.648 C 282.687 631.801,263.333 645.178,263.333 665.287 C 263.333 671.653,267.650 680.331,297.613 734.202 C 344.394 818.310,343.515 816.885,351.315 821.269 C 364.494 828.676,379.043 824.907,387.877 811.797 L 391.667 806.174 391.667 514.671 C 391.667 191.632,392.627 218.051,380.551 208.836 L 374.431 204.167 314.716 203.690 L 255.000 203.213 254.927 142.023 C 254.887 108.369,254.223 77.565,253.452 73.570 C 251.605 64.010,247.262 58.330,238.299 53.750 C 229.449 49.228,224.628 49.096,215.833 53.135 M382.469 93.989 C 375.535 97.011,367.045 107.122,365.780 113.866 C 363.513 125.951,371.930 140.401,383.858 144.898 C 386.849 146.025,410.265 146.667,448.442 146.667 C 504.372 146.667,508.333 146.860,508.329 149.583 C 508.319 155.278,498.227 221.408,491.604 259.167 C 487.906 280.250,478.735 327.500,471.224 364.167 C 463.713 400.833,457.553 435.018,457.534 440.132 C 457.506 447.842,458.320 450.506,462.303 455.726 C 471.176 467.355,456.924 466.638,680.754 466.714 L 883.333 466.783 883.310 472.141 C 883.266 482.316,880.053 544.243,878.275 569.167 C 871.684 661.588,861.850 723.685,844.016 785.495 C 833.594 821.619,819.700 860.891,817.406 860.708 C 816.541 860.639,793.261 827.639,765.672 787.375 C 733.219 740.010,713.569 712.843,710.009 710.417 C 702.394 705.227,689.269 705.245,681.536 710.456 C 669.327 718.684,664.816 733.363,670.888 745.105 C 675.189 753.422,800.152 935.481,805.402 941.078 C 817.902 954.407,840.128 951.083,848.522 934.631 C 854.886 922.156,873.599 872.685,885.894 835.833 C 911.644 758.653,924.679 688.822,932.404 586.667 C 935.577 544.702,938.193 490.990,938.652 458.333 C 939.036 431.099,938.062 426.463,930.526 419.643 C 922.348 412.242,917.629 411.667,865.054 411.667 C 820.282 411.667,815.000 411.385,815.000 409.000 C 815.000 407.533,827.794 341.721,843.430 262.750 C 862.781 165.021,871.537 117.425,870.848 113.714 C 869.587 106.925,860.971 96.902,853.830 93.918 C 845.955 90.628,390.025 90.697,382.469 93.989 M809.449 150.417 C 807.752 157.389,758.333 408.392,758.333 410.036 C 758.333 411.084,715.403 411.667,638.221 411.667 C 524.609 411.667,518.156 411.509,518.975 408.750 C 524.360 390.631,553.455 228.454,560.015 180.000 C 561.938 165.792,563.861 152.479,564.288 150.417 L 565.064 146.667 687.712 146.667 L 810.361 146.667 809.449 150.417 " stroke="none" fill-rule="evenodd" fill="#000000"></path></svg>