<svg width="1000" height="1000" viewBox="0 0 1000 1000" version="1.1" id="svg5" sodipodi:docname="新.svg" inkscape:version="1.2.1 (9c6d41e410, 2022-07-14)" xmlns:inkscape="http://www.inkscape.org/namespaces/inkscape" xmlns:sodipodi="http://sodipodi.sourceforge.net/DTD/sodipodi-0.dtd" xmlns="http://www.w3.org/2000/svg" xmlns:svg="http://www.w3.org/2000/svg"><path d="M192.325 51.566 C 169.308 57.115,164.521 87.969,184.549 101.695 L 190.586 105.833 309.043 106.291 L 427.500 106.749 457.917 137.108 C 474.646 153.805,488.333 168.024,488.333 168.705 C 488.333 169.387,425.087 170.144,347.786 170.389 L 207.239 170.833 201.354 175.323 C 189.316 184.506,190.000 174.623,190.000 339.309 C 190.000 486.135,190.027 487.337,193.493 494.497 C 202.687 513.489,227.672 515.179,240.730 497.693 C 243.412 494.102,244.296 490.008,244.754 479.046 L 245.342 465.000 485.833 465.000 L 726.325 465.000 726.912 479.046 C 727.371 490.008,728.254 494.102,730.936 497.693 C 736.831 505.585,742.638 508.841,752.014 509.510 C 763.575 510.335,772.366 505.440,777.792 495.155 L 781.667 487.809 781.667 340.680 C 781.667 240.983,781.096 192.038,779.898 188.858 C 777.267 181.881,768.442 173.521,761.741 171.660 C 758.175 170.669,717.097 170.015,658.097 170.009 L 560.361 170.000 559.219 165.417 C 558.517 162.600,547.731 150.413,531.234 133.797 L 504.391 106.760 642.735 106.297 L 781.080 105.833 787.118 101.695 C 804.121 90.042,804.121 66.623,787.117 54.971 L 781.078 50.833 489.289 50.576 C 328.805 50.434,195.171 50.880,192.325 51.566 M457.953 257.929 L 458.405 290.025 352.119 289.596 L 245.833 289.167 245.377 259.223 C 245.126 242.754,245.292 228.310,245.746 227.127 C 246.411 225.394,267.103 225.059,352.036 225.404 L 457.500 225.833 457.953 257.929 M726.286 257.083 L 725.833 289.167 619.583 289.596 L 513.333 290.025 513.333 258.623 C 513.333 241.353,513.833 226.722,514.444 226.111 C 515.056 225.500,563.072 225.000,621.147 225.000 L 726.739 225.000 726.286 257.083 M457.953 377.083 L 457.500 409.167 351.667 409.167 L 245.833 409.167 245.377 379.223 C 245.126 362.754,245.290 348.316,245.741 347.139 C 246.397 345.429,267.804 345.000,352.484 345.000 L 458.405 345.000 457.953 377.083 M725.833 377.500 L 725.833 409.167 620.000 409.167 L 514.167 409.167 513.714 377.071 L 513.261 344.975 619.547 345.404 L 725.833 345.833 725.833 377.500 M276.617 518.750 C 272.534 520.813,267.500 525.048,265.430 528.163 L 261.667 533.826 261.667 615.246 L 261.667 696.667 168.026 696.667 C 76.362 696.667,74.233 696.740,67.169 700.160 C 48.178 709.354,46.488 734.338,63.974 747.397 C 68.478 750.761,70.589 750.843,163.680 751.290 L 258.785 751.747 257.616 766.290 C 256.080 785.389,250.848 816.030,246.453 831.667 C 244.521 838.542,238.983 852.417,234.147 862.500 C 227.139 877.113,222.801 883.605,212.771 894.494 C 197.993 910.536,194.949 917.694,198.236 928.667 C 203.860 947.438,225.458 954.875,241.394 943.528 C 254.933 933.887,273.658 908.556,284.874 884.709 C 298.614 855.494,307.738 820.128,311.671 780.833 C 312.680 770.750,313.876 760.063,314.328 757.083 L 315.151 751.667 491.742 751.667 L 668.333 751.667 668.333 810.142 L 668.333 868.617 660.417 862.883 C 634.585 844.171,628.719 841.755,616.871 844.945 C 608.647 847.159,598.935 857.597,597.379 865.895 C 595.984 873.327,598.813 883.506,603.810 889.040 C 607.255 892.855,677.374 942.585,685.254 946.803 C 687.222 947.856,692.429 948.718,696.825 948.718 C 706.628 948.718,714.960 943.974,720.333 935.333 L 724.167 929.167 724.664 840.454 L 725.162 751.740 828.293 751.287 C 929.495 750.842,931.510 750.769,936.026 747.397 C 943.593 741.746,947.086 735.726,947.937 726.870 C 949.025 715.549,943.146 705.153,932.831 700.160 C 925.749 696.732,923.739 696.667,825.395 696.667 L 725.177 696.667 724.672 616.174 C 724.213 542.996,723.903 535.279,721.265 531.255 C 716.014 523.246,709.469 518.496,701.259 516.735 C 695.903 515.586,624.048 515.000,488.604 515.000 L 284.040 515.000 276.617 518.750 M668.333 634.167 L 668.333 696.667 492.500 696.667 L 316.667 696.667 316.667 634.167 L 316.667 571.667 492.500 571.667 L 668.333 571.667 668.333 634.167 " stroke="none" fill-rule="evenodd" fill="#000000"></path></svg>