<svg width="1000" height="1000" viewBox="0 0 1000 1000" version="1.1" id="svg5" xmlns="http://www.w3.org/2000/svg" xmlns:svg="http://www.w3.org/2000/svg"><path d="M488.367 53.750 C 479.723 58.167,475.349 63.634,473.262 72.629 C 472.416 76.279,471.729 142.653,471.706 222.917 L 471.667 366.667 314.413 366.667 L 157.160 366.667 151.536 370.456 C 141.789 377.025,137.939 384.412,138.687 395.109 C 139.486 406.541,144.009 413.416,153.871 418.190 C 160.993 421.638,162.329 421.667,316.360 421.667 L 471.667 421.667 471.667 606.372 L 471.667 791.078 280.417 840.786 C 175.229 868.125,83.645 891.991,76.897 893.822 C 62.786 897.650,54.669 904.322,51.580 914.633 C 47.504 928.236,57.045 944.396,71.440 948.272 C 77.418 949.882,80.624 949.633,92.173 946.660 C 99.686 944.726,193.675 920.311,301.037 892.405 C 408.399 864.499,498.260 841.667,500.728 841.667 C 503.196 841.667,508.729 840.194,513.024 838.395 C 519.755 835.575,795.378 763.205,801.352 762.689 C 802.599 762.581,823.902 799.694,850.990 849.167 C 880.322 902.738,900.659 938.061,904.249 941.667 C 909.738 947.181,910.670 947.500,921.278 947.500 C 930.359 947.500,933.538 946.760,937.942 943.619 C 945.052 938.547,948.869 930.972,949.034 921.605 C 949.155 914.720,944.429 905.372,896.250 817.198 C 867.146 763.933,843.333 719.827,843.333 719.184 C 843.333 718.541,841.934 716.024,840.223 713.591 C 838.513 711.157,814.408 667.542,786.656 616.667 C 758.905 565.792,734.301 522.117,731.983 519.613 C 729.664 517.108,724.494 513.810,720.495 512.282 C 714.313 509.921,712.188 509.815,706.316 511.575 C 696.467 514.526,691.936 517.938,688.237 525.188 C 681.237 538.910,680.872 538.014,730.108 628.004 C 754.918 673.349,774.606 711.015,773.858 711.707 C 773.111 712.398,725.625 725.123,668.333 739.985 C 611.042 754.847,556.104 769.122,546.250 771.706 L 528.333 776.404 528.333 599.035 L 528.333 421.667 683.640 421.667 C 837.671 421.667,839.007 421.638,846.129 418.190 C 855.991 413.416,860.514 406.541,861.313 395.109 C 862.061 384.412,858.211 377.025,848.464 370.456 L 842.840 366.667 685.587 366.667 L 528.333 366.667 528.294 222.917 C 528.271 142.653,527.584 76.279,526.738 72.629 C 525.904 69.033,523.815 64.158,522.096 61.796 C 518.328 56.615,505.936 50.000,500.000 50.000 C 497.638 50.000,492.404 51.688,488.367 53.750 " stroke="none" fill-rule="evenodd" fill="black"></path></svg>