<svg width="1000" height="1000" viewBox="0 0 1000 1000" version="1.1" id="svg5" sodipodi:docname="族.svg" inkscape:version="1.3 (0e150ed6c4, 2023-07-21)" xmlns:inkscape="http://www.inkscape.org/namespaces/inkscape" xmlns:sodipodi="http://sodipodi.sourceforge.net/DTD/sodipodi-0.dtd" xmlns="http://www.w3.org/2000/svg" xmlns:svg="http://www.w3.org/2000/svg"><path d="M243.738 68.083 C 237.611 69.848,228.162 78.336,225.661 84.322 C 223.921 88.487,223.324 98.841,223.295 125.363 C 223.256 162.593,220.943 256.334,218.997 299.583 L 217.853 325.000 153.762 325.000 C 98.143 325.000,88.919 325.357,83.983 327.699 C 67.195 335.665,62.301 357.553,74.450 370.335 C 83.767 380.137,82.685 380.000,150.652 380.000 C 185.019 380.000,213.440 380.563,213.810 381.250 C 215.890 385.111,204.586 496.283,196.483 551.667 C 175.030 698.285,141.592 792.687,87.150 860.335 C 81.843 866.930,73.566 877.216,68.757 883.193 C 55.816 899.279,55.033 911.159,66.107 923.417 C 78.211 936.815,93.939 935.924,107.950 921.047 C 133.826 893.572,161.878 852.834,179.844 816.642 C 213.943 747.951,240.124 649.697,254.226 537.500 C 255.724 525.583,257.303 514.724,257.736 513.368 C 258.168 512.013,279.195 551.763,304.462 601.702 C 329.729 651.641,352.374 694.655,354.785 697.289 C 357.195 699.922,361.604 703.120,364.583 704.394 L 370.000 706.711 370.000 775.856 L 370.000 845.000 351.080 845.000 C 334.203 845.000,331.565 845.405,326.650 848.750 C 315.948 856.033,311.092 866.862,313.475 878.129 C 315.173 886.157,319.921 891.934,328.367 896.250 L 335.706 900.000 627.073 900.000 C 868.019 900.000,919.373 899.610,923.830 897.748 C 935.650 892.809,943.457 878.537,941.016 866.330 C 939.802 860.262,933.150 850.970,927.849 847.939 C 925.729 846.727,915.682 845.480,904.167 845.000 L 884.167 844.167 883.333 667.500 C 882.695 532.225,882.021 489.997,880.454 487.263 C 877.225 481.628,868.790 475.284,862.032 473.407 C 858.623 472.460,847.396 471.681,837.083 471.676 L 818.333 471.667 818.331 297.083 C 818.328 101.389,819.295 116.501,806.096 105.952 L 799.692 100.833 628.596 100.402 C 437.150 99.920,451.490 99.046,441.282 111.830 L 436.494 117.826 436.621 294.746 L 436.748 471.667 414.987 471.667 C 400.217 471.667,391.503 472.404,387.863 473.961 C 381.377 476.736,374.185 484.140,371.773 490.525 C 370.649 493.498,369.985 516.090,369.959 552.192 L 369.918 609.167 319.176 509.167 C 265.190 402.775,266.795 406.687,269.383 387.806 L 270.433 380.146 316.765 379.657 C 360.548 379.194,363.349 378.978,367.695 375.730 C 375.261 370.077,378.753 364.058,379.604 355.203 C 380.692 343.882,374.812 333.487,364.497 328.493 C 357.754 325.229,354.519 325.000,315.107 325.000 L 272.934 325.000 274.016 306.250 C 278.065 236.102,279.707 93.862,276.564 85.525 C 271.627 72.430,256.517 64.401,243.738 68.083 M763.333 313.333 L 763.333 471.667 627.500 471.667 L 491.667 471.667 491.667 313.333 L 491.667 155.000 627.500 155.000 L 763.333 155.000 763.333 313.333 M827.925 686.250 L 827.500 844.167 627.083 844.590 L 426.667 845.013 426.667 686.673 L 426.667 528.333 627.508 528.333 L 828.350 528.333 827.925 686.250 " stroke="none" fill-rule="evenodd" fill="black"></path></svg>