<svg width="1000" height="1000" viewBox="0 0 1000 1000" version="1.1" id="svg5" sodipodi:docname="日.svg" inkscape:version="1.2.1 (9c6d41e410, 2022-07-14)" xmlns:inkscape="http://www.inkscape.org/namespaces/inkscape" xmlns:sodipodi="http://sodipodi.sourceforge.net/DTD/sodipodi-0.dtd" xmlns="http://www.w3.org/2000/svg" xmlns:svg="http://www.w3.org/2000/svg"><path d="M120.833 118.325 C 117.167 120.153,112.292 124.410,110.000 127.785 L 105.833 133.923 105.833 499.045 C 105.833 842.032,106.008 864.486,108.717 869.436 C 112.424 876.212,118.786 881.169,126.892 883.598 C 139.908 887.497,155.960 877.986,159.819 864.088 C 160.825 860.465,161.652 849.813,161.657 840.417 L 161.667 823.333 499.829 823.333 L 837.991 823.333 838.579 843.750 C 839.065 860.646,839.757 865.172,842.590 869.994 C 853.325 888.268,876.929 889.239,889.110 871.907 L 894.167 864.713 894.662 507.773 C 894.935 311.456,894.698 146.934,894.136 142.167 C 892.826 131.058,887.720 123.467,878.383 118.750 L 870.960 115.000 499.230 115.001 C 131.245 115.003,127.433 115.036,120.833 118.325 M471.667 305.833 L 471.667 441.667 316.667 441.667 L 161.667 441.667 161.667 305.833 L 161.667 170.000 316.667 170.000 L 471.667 170.000 471.667 305.833 M838.333 305.833 L 838.333 441.667 683.333 441.667 L 528.333 441.667 528.333 305.833 L 528.333 170.000 683.333 170.000 L 838.333 170.000 838.333 305.833 M471.667 631.667 L 471.667 766.667 316.667 766.667 L 161.667 766.667 161.667 631.667 L 161.667 496.667 316.667 496.667 L 471.667 496.667 471.667 631.667 M838.333 631.667 L 838.333 766.667 683.333 766.667 L 528.333 766.667 528.333 631.667 L 528.333 496.667 683.333 496.667 L 838.333 496.667 838.333 631.667 " stroke="none" fill-rule="evenodd" fill="black"></path></svg>