<svg width="1000" height="1000" viewBox="0 0 1000 1000" version="1.1" id="svg5" sodipodi:docname="春.svg" inkscape:version="1.2.1 (9c6d41e410, 2022-07-14)" xmlns:inkscape="http://www.inkscape.org/namespaces/inkscape" xmlns:sodipodi="http://sodipodi.sourceforge.net/DTD/sodipodi-0.dtd" xmlns="http://www.w3.org/2000/svg" xmlns:svg="http://www.w3.org/2000/svg"><path d="M457.986 51.630 C 448.428 54.548,443.607 60.143,430.331 83.729 C 416.180 108.870,390.552 148.598,374.142 170.833 C 348.277 205.880,309.102 253.350,306.081 253.305 C 305.028 253.289,291.042 242.212,275.000 228.690 C 189.151 156.322,183.580 151.864,177.604 150.743 C 168.446 149.025,160.412 151.303,153.451 157.592 C 142.081 167.864,140.861 183.900,150.622 194.787 C 152.572 196.962,179.667 220.148,210.833 246.313 C 242.000 272.477,267.875 294.218,268.333 294.626 C 269.429 295.601,228.719 334.834,207.500 353.253 C 160.208 394.305,113.006 426.771,79.791 441.093 C 56.452 451.155,51.282 456.761,51.282 472.000 C 51.282 487.317,63.702 498.982,79.753 498.739 C 90.365 498.579,131.192 477.927,163.388 456.435 C 204.878 428.738,241.630 398.290,286.293 354.612 C 299.379 341.814,311.004 331.721,312.126 332.182 C 313.249 332.643,343.792 357.961,380.000 388.444 C 460.966 456.607,460.473 456.217,468.073 458.263 C 476.789 460.610,486.066 457.659,493.574 450.151 C 502.906 440.820,504.256 425.861,496.641 416.180 C 494.842 413.892,461.112 384.912,421.685 351.779 C 382.258 318.645,350.000 290.784,350.000 289.865 C 350.000 288.945,354.807 282.682,360.682 275.945 C 407.158 222.655,459.492 147.793,485.773 97.005 C 491.283 86.357,491.975 83.746,491.335 76.019 C 490.886 70.613,489.208 65.235,487.001 62.136 C 481.188 53.973,467.064 48.859,457.986 51.630 M558.159 163.428 C 550.669 164.656,544.160 169.102,540.001 175.832 C 536.619 181.304,536.610 182.258,536.604 529.009 C 536.597 909.402,535.821 880.560,546.332 890.550 C 555.802 899.551,570.972 899.576,581.628 890.610 C 589.666 883.846,590.741 880.474,591.648 859.167 L 592.500 839.167 742.917 838.777 L 893.333 838.388 893.370 856.277 C 893.398 870.076,894.113 875.721,896.494 880.964 C 905.946 901.776,933.627 903.213,944.724 883.467 L 948.413 876.905 948.424 529.301 C 948.433 222.499,948.139 181.126,945.917 176.829 C 943.045 171.274,936.098 165.336,930.979 164.061 C 926.232 162.878,565.252 162.265,558.159 163.428 M715.000 345.833 L 715.000 473.333 653.333 473.333 L 591.667 473.333 591.667 345.833 L 591.667 218.333 653.333 218.333 L 715.000 218.333 715.000 345.833 M893.333 345.833 L 893.333 473.333 831.667 473.333 L 770.000 473.333 770.000 345.833 L 770.000 218.333 831.667 218.333 L 893.333 218.333 893.333 345.833 M296.384 380.045 C 293.020 381.822,288.520 385.726,286.384 388.721 L 282.500 394.167 282.066 620.417 C 281.827 744.854,281.180 846.667,280.628 846.667 C 280.076 846.667,274.733 841.384,268.755 834.927 C 256.227 821.396,251.208 818.333,241.560 818.333 C 222.633 818.333,208.541 838.955,216.253 855.366 C 220.544 864.495,290.553 942.425,297.370 945.660 C 310.504 951.893,326.336 946.428,332.917 933.390 L 336.667 925.960 336.667 662.673 L 336.667 399.386 333.173 392.169 C 326.531 378.449,309.827 372.944,296.384 380.045 M715.000 655.833 L 715.000 783.333 653.333 783.333 L 591.667 783.333 591.667 655.833 L 591.667 528.333 653.333 528.333 L 715.000 528.333 715.000 655.833 M893.333 655.833 L 893.333 783.333 831.667 783.333 L 770.000 783.333 770.000 655.833 L 770.000 528.333 831.667 528.333 L 893.333 528.333 893.333 655.833 M400.161 535.137 C 388.168 542.449,383.383 554.272,387.307 566.896 C 389.793 574.893,461.298 771.540,465.860 782.923 C 471.187 796.218,485.651 803.997,498.108 800.265 C 510.987 796.406,518.600 786.827,518.691 774.369 C 518.726 769.477,507.160 735.686,478.509 656.982 C 456.382 596.198,437.172 544.777,435.821 542.714 C 429.100 532.458,410.900 528.590,400.161 535.137 M177.469 535.656 C 170.952 538.495,162.247 548.456,161.036 554.460 C 160.514 557.048,158.534 571.167,156.636 585.833 C 144.525 679.408,131.144 728.022,106.631 767.500 C 100.629 777.166,99.378 780.606,99.336 787.559 C 99.214 807.824,120.327 821.111,138.299 812.081 C 154.357 804.012,179.175 753.121,192.435 701.072 C 201.922 663.832,216.134 571.405,214.551 557.236 C 212.627 540.008,193.297 528.759,177.469 535.656 " stroke="none" fill-rule="evenodd" fill="black"></path></svg>