<svg width="1000" height="1000" viewBox="0 0 1000 1000" version="1.1" id="svg5" sodipodi:docname="時.svg" inkscape:version="1.2.1 (9c6d41e410, 2022-07-14)" xmlns:inkscape="http://www.inkscape.org/namespaces/inkscape" xmlns:sodipodi="http://sodipodi.sourceforge.net/DTD/sodipodi-0.dtd" xmlns="http://www.w3.org/2000/svg" xmlns:svg="http://www.w3.org/2000/svg"><path d="M200.372 93.531 C 195.721 95.833,191.811 99.504,189.122 104.093 L 185.000 111.126 185.003 294.313 C 185.005 499.520,184.032 483.495,197.130 493.961 C 205.786 500.877,218.015 501.185,227.773 494.732 C 237.746 488.137,240.000 481.918,240.000 460.998 L 240.000 443.333 500.000 443.333 L 760.000 443.333 760.000 460.998 C 760.000 481.918,762.254 488.137,772.227 494.732 C 781.985 501.185,794.214 500.877,802.870 493.961 C 815.964 483.498,814.995 499.343,814.997 295.770 L 815.000 114.040 811.250 106.701 C 806.833 98.056,801.366 93.682,792.371 91.596 C 788.582 90.717,664.268 90.063,496.667 90.041 L 207.500 90.003 200.372 93.531 M471.667 192.500 L 471.667 238.333 355.833 238.333 L 240.000 238.333 240.000 192.500 L 240.000 146.667 355.833 146.667 L 471.667 146.667 471.667 192.500 M760.000 192.500 L 760.000 238.333 644.167 238.333 L 528.333 238.333 528.333 192.500 L 528.333 146.667 644.167 146.667 L 760.000 146.667 760.000 192.500 M471.667 341.678 L 471.667 388.356 356.250 387.928 L 240.833 387.500 240.390 341.250 L 239.947 295.000 355.807 295.000 L 471.667 295.000 471.667 341.678 M759.610 341.250 L 759.167 387.500 643.750 387.928 L 528.333 388.356 528.333 341.678 L 528.333 295.000 644.193 295.000 L 760.053 295.000 759.610 341.250 M711.871 481.809 C 705.322 483.194,699.120 487.479,694.270 493.972 C 690.987 498.367,690.812 501.021,690.352 553.453 L 689.871 608.333 500.854 608.333 L 311.838 608.333 311.336 554.583 C 310.771 494.129,310.714 493.829,298.316 485.624 C 292.643 481.870,290.375 481.359,282.036 481.963 C 270.912 482.767,265.250 486.193,260.113 495.227 C 256.826 501.006,256.667 503.768,256.667 554.810 L 256.667 608.333 165.417 608.370 C 80.032 608.404,73.728 608.606,67.335 611.509 C 57.806 615.837,52.820 623.449,52.020 634.891 C 51.301 645.180,54.791 652.284,63.871 659.013 C 68.480 662.429,70.477 662.517,162.204 663.333 L 255.833 664.167 256.089 776.856 C 256.374 902.168,255.746 895.314,267.785 904.497 L 273.906 909.167 481.832 909.609 L 689.758 910.051 691.639 915.749 C 694.084 923.159,704.902 932.851,712.270 934.234 C 715.462 934.832,720.437 934.803,723.327 934.168 C 728.936 932.936,738.819 925.157,742.147 919.355 C 743.659 916.719,744.376 884.194,745.000 790.000 L 745.833 664.167 839.167 663.333 C 910.032 662.701,933.386 661.993,936.182 660.394 C 941.483 657.363,948.136 648.071,949.349 642.003 C 950.985 633.825,948.638 625.463,942.860 618.883 C 933.360 608.062,936.112 608.333,835.952 608.333 L 745.129 608.333 744.648 553.453 C 744.188 501.021,744.013 498.367,740.730 493.972 C 733.279 483.999,722.667 479.525,711.871 481.809 M689.167 759.167 L 689.167 854.167 500.417 854.590 L 311.667 855.014 311.667 759.167 L 311.667 663.319 500.417 663.743 L 689.167 664.167 689.167 759.167 " stroke="none" fill-rule="evenodd" fill="#000000"></path></svg>