<svg width="1000" height="1000" viewBox="0 0 1000 1000" version="1.1" id="svg5" xmlns="http://www.w3.org/2000/svg" xmlns:svg="http://www.w3.org/2000/svg"><path d="M498.333 51.113 C 492.716 53.425,486.448 58.904,483.725 63.881 C 481.035 68.798,480.775 84.236,480.000 285.000 L 479.167 500.833 457.425 511.667 C 445.466 517.625,433.591 523.871,431.035 525.547 C 425.633 529.088,420.089 540.231,420.037 547.655 C 419.976 556.160,426.736 566.827,434.933 571.162 C 444.809 576.384,450.500 576.004,464.766 569.167 C 471.461 565.958,477.252 563.333,477.636 563.333 C 478.019 563.333,478.348 599.146,478.365 642.917 C 478.383 686.688,479.133 736.000,480.031 752.500 C 485.872 859.746,509.411 924.734,549.554 944.446 L 559.167 949.167 742.794 949.167 L 926.422 949.167 931.128 945.680 C 938.835 939.969,943.333 931.986,943.333 924.018 C 943.333 915.689,885.148 714.249,880.389 706.099 C 876.349 699.182,865.916 693.388,857.500 693.388 C 843.875 693.388,830.093 706.542,830.027 719.608 C 830.012 722.600,840.553 761.225,853.452 805.441 C 866.350 849.657,877.319 887.896,877.827 890.417 L 878.750 895.000 725.219 895.000 L 571.688 895.000 566.509 887.917 C 554.254 871.154,546.172 844.487,538.853 796.667 C 536.633 782.159,536.055 758.196,535.474 656.523 L 534.772 533.880 562.803 517.565 C 678.739 450.087,775.339 368.010,862.020 263.333 C 897.475 220.518,900.263 214.865,893.071 200.372 C 886.164 186.453,872.560 180.630,859.027 185.798 C 852.616 188.246,848.797 192.076,832.652 212.247 C 750.799 314.507,666.397 389.576,558.333 456.232 L 535.833 470.110 535.000 268.510 C 534.172 68.144,534.146 66.882,530.730 62.308 C 524.771 54.327,519.057 51.153,509.652 50.601 C 504.802 50.317,499.708 50.547,498.333 51.113 M358.960 116.528 C 350.261 120.478,349.803 121.146,329.679 159.167 C 278.982 254.950,219.653 339.343,167.298 390.143 C 136.034 420.480,113.535 435.925,84.656 446.876 C 66.243 453.859,63.180 455.944,59.285 464.153 C 53.208 476.958,57.503 491.155,70.040 499.706 C 75.005 503.093,77.263 503.542,85.833 502.852 C 91.459 502.398,101.666 499.718,109.167 496.724 C 187.092 465.623,274.495 368.956,358.616 220.833 C 378.962 185.007,394.442 155.137,396.361 147.999 C 399.735 135.451,393.993 123.399,381.633 117.083 C 372.753 112.546,367.985 112.429,358.960 116.528 M357.030 327.678 C 350.053 331.237,348.347 333.797,332.156 365.000 C 272.794 479.403,197.867 580.477,138.284 626.525 C 118.255 642.005,103.544 650.518,84.741 657.508 C 63.670 665.342,56.667 672.636,56.667 686.749 C 56.667 696.116,60.964 704.499,68.177 709.203 C 77.859 715.517,84.349 715.859,99.308 710.847 C 182.484 682.974,275.810 580.427,367.035 416.667 C 388.655 377.857,396.966 360.135,397.080 352.601 C 397.212 343.841,392.656 334.265,386.154 329.635 C 379.371 324.805,364.609 323.813,357.030 327.678 M359.167 537.353 C 351.725 540.660,348.288 545.345,335.828 569.167 C 270.382 694.293,196.450 793.578,133.407 841.005 C 118.843 851.962,96.084 864.602,84.167 868.353 C 64.946 874.402,56.667 883.220,56.667 897.640 C 56.667 912.105,66.765 923.213,81.126 924.544 C 90.173 925.383,105.739 920.463,125.833 910.413 C 190.285 878.178,261.053 801.621,331.479 687.947 C 358.244 644.745,393.160 580.485,396.873 567.592 C 399.868 557.193,391.638 541.907,380.548 537.273 C 373.750 534.433,365.669 534.463,359.167 537.353 " stroke="none" fill-rule="evenodd" fill="black"></path></svg>