<svg width="1000" height="1000" viewBox="0 0 1000 1000" version="1.1" id="svg5" sodipodi:docname="月.svg" inkscape:version="1.2.1 (9c6d41e410, 2022-07-14)" xmlns:inkscape="http://www.inkscape.org/namespaces/inkscape" xmlns:sodipodi="http://sodipodi.sourceforge.net/DTD/sodipodi-0.dtd" xmlns="http://www.w3.org/2000/svg" xmlns:svg="http://www.w3.org/2000/svg"><path d="M256.667 121.667 C 176.312 122.590,177.224 122.463,170.291 133.710 C 163.006 145.527,163.627 156.422,172.140 166.117 C 181.335 176.591,181.881 176.667,247.694 176.667 L 307.162 176.667 306.137 327.083 C 305.573 409.813,304.343 492.500,303.403 510.833 C 295.605 662.953,276.359 743.855,232.424 809.208 L 222.928 823.333 148.077 823.333 C 64.974 823.333,66.147 823.192,57.014 834.272 C 46.166 847.432,49.369 865.583,64.057 874.190 L 71.126 878.333 500.000 878.333 L 928.874 878.333 935.943 874.190 C 950.631 865.583,953.834 847.432,942.986 834.272 C 933.692 822.997,937.139 823.333,830.748 823.333 C 777.934 823.333,735.003 822.771,735.347 822.083 C 762.093 768.564,768.374 752.849,778.301 714.626 C 801.389 625.725,807.266 535.720,806.360 284.870 L 805.833 138.906 801.030 132.610 C 798.389 129.146,793.774 125.288,790.776 124.035 C 786.277 122.155,745.524 121.677,557.246 121.296 C 431.802 121.041,296.542 121.208,256.667 121.667 M751.651 301.250 C 751.622 530.383,746.412 610.717,726.006 696.667 C 718.486 728.340,703.255 767.883,689.946 790.286 C 684.169 800.010,682.516 801.762,681.012 799.757 C 668.049 782.480,572.482 671.814,569.254 670.343 C 560.321 666.273,552.907 666.267,545.098 670.322 C 541.026 672.437,536.289 676.100,534.570 678.462 C 530.119 684.582,528.156 694.680,530.042 701.760 C 531.134 705.860,546.542 725.381,580.030 765.093 L 628.440 822.500 459.783 822.925 C 367.022 823.158,290.874 823.097,290.566 822.788 C 290.257 822.479,294.082 814.413,299.066 804.863 C 328.213 749.018,346.156 676.468,354.063 582.500 C 359.385 519.252,360.335 486.070,361.189 333.750 L 362.070 176.667 556.868 176.667 L 751.667 176.667 751.651 301.250 " stroke="none" fill-rule="evenodd" fill="#000000"></path></svg>