<svg width="1000" height="1000" viewBox="0 0 1000 1000" version="1.1" id="svg5" sodipodi:docname="木.svg" inkscape:version="1.2.1 (9c6d41e410, 2022-07-14)" xmlns:inkscape="http://www.inkscape.org/namespaces/inkscape" xmlns:sodipodi="http://sodipodi.sourceforge.net/DTD/sodipodi-0.dtd" xmlns="http://www.w3.org/2000/svg" xmlns:svg="http://www.w3.org/2000/svg"><path d="M490.282 58.387 C 484.678 59.646,476.345 66.362,472.773 72.500 C 471.364 74.922,470.605 110.927,470.000 204.167 L 469.167 332.500 396.768 332.935 C 356.949 333.174,323.788 332.788,323.078 332.078 C 322.368 331.368,306.301 286.547,287.374 232.477 C 268.447 178.406,251.560 132.197,249.847 129.789 C 248.134 127.381,243.922 124.077,240.487 122.447 C 221.786 113.573,200.892 126.451,201.192 146.667 C 201.270 151.924,210.578 180.541,232.318 242.357 C 249.376 290.862,263.333 331.174,263.333 331.940 C 263.333 332.707,234.053 333.333,198.267 333.333 C 136.508 333.333,132.869 333.503,126.672 336.664 C 118.471 340.848,111.656 351.912,111.694 360.980 C 111.731 369.867,117.805 379.956,125.867 384.522 L 132.500 388.278 296.250 388.306 C 429.581 388.328,460.000 388.736,460.000 390.502 C 460.000 393.287,438.240 428.890,423.795 449.740 C 366.524 532.406,282.192 632.652,203.338 711.798 C 151.401 763.927,115.266 795.170,79.167 819.161 C 58.392 832.967,54.556 836.630,51.777 845.313 C 45.246 865.720,68.115 886.452,87.838 878.003 C 96.714 874.201,129.251 851.913,148.562 836.407 C 202.846 792.819,283.520 711.545,350.961 632.500 C 391.120 585.431,434.169 530.755,458.452 495.975 C 463.307 489.022,467.891 483.333,468.639 483.333 C 469.388 483.333,470.000 581.996,470.000 702.583 C 470.000 941.424,469.368 925.842,479.435 935.261 C 488.387 943.638,503.111 944.439,513.204 937.096 C 515.567 935.378,519.188 930.669,521.250 926.633 L 525.000 919.294 525.000 706.740 L 525.000 494.186 717.083 686.153 C 926.061 895.003,912.054 882.174,927.863 879.209 C 936.238 877.637,947.448 866.356,948.997 857.941 C 951.824 842.573,964.052 855.826,735.755 626.838 L 525.000 415.445 525.000 401.889 L 525.000 388.333 692.554 388.333 C 875.744 388.333,866.756 388.817,875.451 378.484 C 884.589 367.624,884.581 354.033,875.430 343.158 C 867.260 333.448,866.320 333.333,795.054 333.333 C 759.274 333.333,730.000 333.036,730.000 332.674 C 730.000 332.311,734.607 324.683,740.238 315.724 C 763.000 279.508,776.371 242.566,791.775 173.333 C 799.766 137.421,800.296 128.897,795.017 121.217 C 789.291 112.886,783.594 109.463,774.157 108.680 C 763.526 107.798,753.523 112.388,748.688 120.365 C 746.866 123.373,742.982 137.083,740.058 150.833 C 720.753 241.620,702.568 283.720,665.817 322.707 L 655.801 333.333 590.400 333.333 L 525.000 333.333 525.000 207.446 C 525.000 73.130,525.110 75.075,517.024 66.140 C 511.002 59.487,499.819 56.244,490.282 58.387 " stroke="none" fill-rule="evenodd" fill="#000000"></path></svg>