<svg width="1000" height="1000" viewBox="0 0 1000 1000" version="1.1" id="svg5" xmlns="http://www.w3.org/2000/svg" xmlns:svg="http://www.w3.org/2000/svg"><path d="M141.154 151.203 C 134.155 152.255,122.211 164.506,120.796 172.083 C 118.392 184.958,123.980 196.606,135.615 202.977 C 140.346 205.567,149.979 205.878,238.750 206.313 L 336.667 206.793 336.649 334.646 C 336.632 461.313,335.801 486.776,330.649 518.333 C 320.340 581.482,294.750 640.066,257.080 686.756 C 245.463 701.155,218.605 727.418,204.048 738.612 C 165.321 768.395,120.025 789.192,84.619 793.447 C 67.168 795.543,60.382 798.791,54.892 807.675 C 47.137 820.223,52.283 839.063,65.410 846.182 C 80.639 854.441,125.849 844.946,168.950 824.435 C 229.238 795.746,284.242 747.782,321.755 691.191 C 355.835 639.777,375.835 586.431,386.873 517.500 C 390.493 494.897,390.629 489.667,391.239 350.417 L 391.867 206.667 475.978 206.667 L 560.088 206.667 559.971 441.250 C 559.858 668.714,559.956 676.415,563.192 695.000 C 578.454 782.653,630.701 829.252,730.529 844.246 C 758.219 848.405,804.286 850.235,867.500 849.687 C 934.925 849.102,934.409 849.192,942.699 836.664 C 945.887 831.847,947.051 827.928,947.051 822.012 C 947.051 814.532,943.452 807.477,898.352 726.551 C 871.567 678.490,848.043 637.408,846.076 635.258 C 833.425 621.432,810.694 624.738,801.976 641.674 C 795.399 654.451,796.196 656.473,835.787 727.398 C 855.521 762.750,871.667 792.048,871.667 792.504 C 871.667 794.652,771.323 793.192,750.221 790.737 C 704.128 785.374,671.793 773.733,652.188 755.446 C 635.192 739.591,627.912 726.488,619.530 696.667 C 616.095 684.449,616.001 680.703,615.371 530.833 C 615.016 446.500,615.251 339.090,615.894 292.144 L 617.061 206.788 718.114 206.311 C 809.851 205.877,819.648 205.570,824.385 202.977 C 836.020 196.606,841.608 184.958,839.204 172.083 C 837.610 163.544,826.160 152.568,817.322 151.108 C 810.302 149.949,148.880 150.041,141.154 151.203 " stroke="none" fill-rule="evenodd" fill="black"></path></svg>