<svg width="1000" height="1000" viewBox="0 0 1000 1000" version="1.1" id="svg5" sodipodi:docname="来.svg" inkscape:version="1.2.1 (9c6d41e410, 2022-07-14)" xmlns:inkscape="http://www.inkscape.org/namespaces/inkscape" xmlns:sodipodi="http://sodipodi.sourceforge.net/DTD/sodipodi-0.dtd" xmlns="http://www.w3.org/2000/svg" xmlns:svg="http://www.w3.org/2000/svg"><path d="M330.833 65.278 C 325.408 68.279,319.853 73.840,317.215 78.912 C 315.139 82.904,314.776 95.006,314.929 155.162 L 315.111 226.667 258.497 226.667 C 222.549 226.667,200.171 227.314,197.192 228.439 C 186.685 232.409,178.306 244.389,178.361 255.363 C 178.395 262.106,184.251 272.679,190.536 277.343 C 195.067 280.706,197.367 280.851,253.453 281.312 L 311.667 281.790 311.667 289.909 C 311.667 302.797,306.689 337.781,302.506 354.290 C 297.139 375.473,289.261 393.478,280.222 405.217 C 275.975 410.733,271.191 417.254,269.592 419.707 C 265.979 425.249,265.756 438.405,269.165 444.997 C 272.967 452.348,282.292 458.625,290.844 459.589 L 298.333 460.434 298.333 554.383 L 298.333 648.333 186.095 648.333 L 73.858 648.333 66.512 652.208 C 56.227 657.634,51.331 666.425,52.156 677.986 C 52.825 687.363,56.081 693.170,63.974 699.064 C 68.501 702.444,70.406 702.507,181.323 702.951 C 243.333 703.199,294.709 704.043,295.492 704.825 C 297.142 706.476,294.261 750.348,290.665 778.333 C 284.014 830.085,273.577 863.233,254.878 891.996 C 248.584 901.678,248.100 903.226,248.692 911.776 C 249.492 923.322,254.013 930.085,264.242 935.037 C 280.215 942.769,292.644 936.154,307.057 912.252 C 331.822 871.184,345.324 813.079,351.347 721.667 L 352.500 704.167 485.000 704.167 L 617.500 704.167 617.936 772.449 L 618.371 840.731 611.269 833.796 C 603.338 826.051,597.554 823.333,589.005 823.333 C 570.568 823.333,557.519 841.549,563.334 859.168 C 564.759 863.486,574.620 875.152,595.548 897.279 C 612.136 914.817,627.932 930.845,630.651 932.897 C 636.551 937.349,644.460 939.083,651.660 937.501 C 657.269 936.270,667.153 928.490,670.480 922.688 C 671.980 920.073,672.715 891.493,673.333 811.667 L 674.167 704.167 802.795 703.333 C 929.451 702.513,931.495 702.447,936.026 699.064 C 943.919 693.170,947.175 687.363,947.844 677.986 C 948.669 666.425,943.773 657.634,933.488 652.208 L 926.142 648.333 799.788 648.333 L 673.435 648.333 672.967 548.750 C 672.563 462.595,672.837 448.615,675.000 445.075 C 677.097 441.644,677.634 428.205,678.333 361.742 L 679.167 282.500 741.964 281.667 C 802.411 280.865,804.937 280.703,809.464 277.343 C 823.482 266.940,825.342 248.556,813.644 236.045 C 805.039 226.842,803.635 226.667,738.387 226.667 L 678.333 226.667 678.333 155.563 L 678.333 84.460 674.190 77.390 C 671.428 72.676,667.642 69.156,662.831 66.827 C 655.655 63.353,654.714 63.334,494.890 63.384 C 380.666 63.420,333.202 63.968,330.833 65.278 M623.333 172.500 L 623.333 226.667 496.667 226.667 L 370.000 226.667 370.000 173.611 C 370.000 144.431,370.500 120.056,371.111 119.444 C 371.722 118.833,428.722 118.333,497.778 118.333 L 623.333 118.333 623.333 172.500 M622.944 327.083 C 623.188 351.604,623.076 371.667,622.695 371.667 C 622.314 371.667,618.101 369.042,613.333 365.833 C 605.098 360.291,601.206 359.233,591.667 359.940 C 584.695 360.457,575.000 367.976,571.572 375.527 C 564.758 390.536,568.787 399.492,590.472 417.540 C 599.257 424.851,606.494 431.396,606.555 432.083 C 606.617 432.771,544.417 433.333,468.333 433.333 C 326.409 433.333,325.806 433.307,331.542 427.417 C 335.128 423.733,346.673 397.958,351.463 382.939 C 357.142 365.137,364.098 329.586,365.735 310.000 C 366.310 303.125,367.200 293.933,367.714 289.573 L 368.649 281.646 495.574 282.073 L 622.500 282.500 622.944 327.083 M618.333 568.333 L 618.333 648.333 485.833 648.333 L 353.333 648.333 353.333 569.444 C 353.333 526.056,353.833 490.056,354.444 489.444 C 355.056 488.833,414.681 488.333,486.944 488.333 L 618.333 488.333 618.333 568.333 " stroke="none" fill-rule="evenodd" fill="black"></path></svg>