<svg width="1000" height="1000" viewBox="0 0 1000 1000" version="1.1" id="svg5" sodipodi:docname="果.svg" inkscape:version="1.2.1 (9c6d41e410, 2022-07-14)" xmlns:inkscape="http://www.inkscape.org/namespaces/inkscape" xmlns:sodipodi="http://sodipodi.sourceforge.net/DTD/sodipodi-0.dtd" xmlns="http://www.w3.org/2000/svg" xmlns:svg="http://www.w3.org/2000/svg"><path d="M494.132 51.615 C 486.782 53.281,480.573 57.852,476.279 64.756 C 472.502 70.830,472.500 70.877,472.011 153.714 L 471.521 236.594 329.511 237.047 L 187.500 237.500 181.334 241.334 C 163.326 252.531,163.326 277.469,181.334 288.666 L 187.500 292.500 328.750 292.970 L 470.000 293.441 470.000 297.624 C 470.000 305.701,464.739 327.694,458.096 347.387 C 440.580 399.315,405.773 453.551,359.183 501.513 C 278.722 584.345,179.061 637.774,95.967 642.627 C 73.474 643.941,70.492 644.670,63.883 650.473 C 53.002 660.026,50.495 672.441,57.111 684.010 C 64.239 696.475,67.146 697.526,93.893 697.303 C 112.269 697.150,122.116 696.148,138.333 692.780 C 173.128 685.554,210.390 672.423,243.693 655.652 L 255.000 649.958 255.000 786.953 C 255.000 922.420,255.039 924.028,258.476 931.129 C 263.251 940.991,270.126 945.514,281.558 946.313 C 289.215 946.849,291.824 946.282,296.513 943.064 C 308.104 935.111,309.078 932.385,310.000 905.303 L 310.833 880.833 528.333 880.833 L 745.833 880.833 746.667 905.303 C 747.589 932.385,748.562 935.111,760.153 943.064 C 764.842 946.282,767.452 946.849,775.109 946.313 C 786.541 945.514,793.416 940.991,798.190 931.129 C 801.634 924.015,801.667 922.569,801.667 776.087 C 801.667 654.242,801.263 627.283,799.372 622.863 C 796.597 616.377,789.193 609.185,782.808 606.773 C 779.578 605.552,708.068 605.000,553.225 605.000 C 429.535 605.000,328.375 604.438,328.427 603.750 C 328.478 603.063,336.138 596.500,345.449 589.167 C 367.793 571.569,414.018 525.471,432.356 502.500 C 460.641 467.067,487.898 421.958,502.625 386.210 C 505.745 378.638,509.233 372.575,510.418 372.667 C 511.598 372.759,600.674 444.650,708.365 532.424 C 816.056 620.199,906.930 693.878,910.307 696.156 C 921.543 703.735,937.699 700.854,946.547 689.694 C 951.866 682.985,953.164 669.492,949.278 661.303 C 947.186 656.895,895.276 613.774,735.824 483.989 C 529.278 315.873,525.133 312.385,525.090 306.667 C 525.065 303.458,525.492 299.170,526.037 297.136 L 527.028 293.439 669.764 292.970 L 812.500 292.500 818.666 288.666 C 836.674 277.469,836.674 252.531,818.666 241.334 L 812.500 237.500 670.489 237.047 L 528.479 236.594 527.989 153.714 L 527.500 70.833 523.666 64.667 C 517.289 54.412,505.254 49.093,494.132 51.615 M746.266 742.083 L 745.833 824.167 528.333 824.167 L 310.833 824.167 310.399 744.167 C 310.161 700.167,310.325 663.229,310.764 662.083 C 311.397 660.431,356.613 660.000,529.130 660.000 L 746.698 660.000 746.266 742.083 " stroke="none" fill-rule="evenodd" fill="black"></path></svg>