<svg width="1000" height="1000" viewBox="0 0 1000 1000" version="1.1" id="svg5" sodipodi:docname="械.svg" inkscape:version="1.2.1 (9c6d41e410, 2022-07-14)" xmlns:inkscape="http://www.inkscape.org/namespaces/inkscape" xmlns:sodipodi="http://sodipodi.sourceforge.net/DTD/sodipodi-0.dtd" xmlns="http://www.w3.org/2000/svg" xmlns:svg="http://www.w3.org/2000/svg"><path d="M67.469 52.314 C 60.560 55.336,52.034 65.463,50.855 72.048 C 50.318 75.046,50.093 269.125,50.356 503.333 L 50.833 929.167 54.667 935.333 C 60.076 944.031,68.362 948.718,78.333 948.718 C 88.304 948.718,96.590 944.031,101.999 935.333 L 105.833 929.167 106.283 730.417 L 106.732 531.667 154.200 531.667 L 201.667 531.667 201.706 684.583 C 201.729 770.353,202.412 840.371,203.262 844.038 C 209.014 868.836,239.025 874.707,253.329 853.831 C 256.897 848.624,257.518 845.584,258.073 830.587 L 258.711 813.333 498.333 813.333 L 737.955 813.333 738.594 830.587 C 739.149 845.584,739.770 848.624,743.338 853.831 C 751.909 866.340,768.821 870.498,780.131 862.877 C 786.986 858.257,793.333 849.191,793.333 844.019 C 793.333 841.917,794.013 839.777,794.844 839.263 C 795.675 838.750,820.507 861.768,850.026 890.415 C 879.546 919.062,905.886 943.899,908.561 945.609 C 919.890 952.852,937.499 947.931,945.333 935.333 L 949.167 929.167 949.167 500.000 L 949.167 70.833 945.333 64.667 C 943.224 61.276,938.724 56.776,935.333 54.667 L 929.167 50.833 500.833 50.473 C 149.038 50.178,71.601 50.507,67.469 52.314 M893.333 291.667 L 893.333 476.667 844.215 476.667 L 795.097 476.667 794.632 346.250 C 794.212 228.572,793.897 215.345,791.408 210.833 C 787.834 204.355,782.026 199.007,776.142 196.778 C 772.887 195.545,687.049 195.000,495.971 195.000 L 220.493 195.000 214.830 198.763 C 211.715 200.833,207.479 205.867,205.417 209.950 L 201.667 217.373 201.667 347.020 L 201.667 476.667 154.167 476.667 L 106.667 476.667 106.667 291.667 L 106.667 106.667 500.000 106.667 L 893.333 106.667 893.333 291.667 M470.000 363.333 L 470.000 476.667 364.167 476.667 L 258.333 476.667 258.333 363.333 L 258.333 250.000 364.167 250.000 L 470.000 250.000 470.000 363.333 M738.333 363.333 L 738.333 476.667 632.500 476.667 L 526.667 476.667 526.667 363.333 L 526.667 250.000 632.500 250.000 L 738.333 250.000 738.333 363.333 M470.000 645.000 L 470.000 758.333 364.167 758.333 L 258.333 758.333 258.333 645.000 L 258.333 531.667 364.167 531.667 L 470.000 531.667 470.000 645.000 M738.333 645.000 L 738.333 758.333 632.500 758.333 L 526.667 758.333 526.667 645.000 L 526.667 531.667 632.500 531.667 L 738.333 531.667 738.333 645.000 M893.333 693.711 L 893.333 855.755 880.417 843.271 C 873.313 836.405,857.375 820.955,845.000 808.938 C 819.227 783.910,814.620 780.959,803.057 782.070 L 795.000 782.844 795.000 657.255 L 795.000 531.667 844.167 531.667 L 893.333 531.667 893.333 693.711 " stroke="none" fill-rule="evenodd" fill="#000000"></path></svg>