<svg width="1000" height="1000" viewBox="0 0 1000 1000" version="1.1" id="svg5" sodipodi:docname="棉.svg" inkscape:version="1.2.1 (9c6d41e410, 2022-07-14)" xmlns:inkscape="http://www.inkscape.org/namespaces/inkscape" xmlns:sodipodi="http://sodipodi.sourceforge.net/DTD/sodipodi-0.dtd" xmlns="http://www.w3.org/2000/svg" xmlns:svg="http://www.w3.org/2000/svg"><path d="M202.469 87.323 C 199.702 88.528,195.051 92.233,192.135 95.555 C 182.885 106.090,182.916 118.946,192.217 129.539 C 200.711 139.213,204.374 140.000,240.919 140.000 C 258.900 140.000,273.322 140.563,272.968 141.250 C 267.959 150.981,266.462 156.366,267.318 161.580 C 268.498 168.771,359.407 416.741,361.706 419.040 C 362.601 419.935,363.333 421.267,363.333 422.000 C 363.333 422.733,311.559 423.333,248.280 423.333 C 153.863 423.333,132.232 423.749,127.685 425.648 C 115.943 430.555,108.464 443.790,110.700 455.708 C 112.070 463.010,120.479 473.007,127.837 476.082 C 135.864 479.435,864.136 479.435,872.163 476.082 C 879.521 473.007,887.930 463.010,889.300 455.708 C 891.536 443.790,884.057 430.555,872.315 425.648 C 867.738 423.736,842.801 423.333,728.962 423.333 L 591.151 423.333 607.710 406.250 C 663.483 348.713,698.704 278.387,735.002 152.083 L 738.474 140.000 765.124 140.000 C 795.171 140.000,799.546 138.920,807.860 129.451 C 817.115 118.910,817.086 106.056,807.783 95.461 C 804.906 92.184,800.127 88.490,797.163 87.252 C 789.275 83.956,210.037 84.025,202.469 87.323 M680.000 142.027 C 680.000 143.141,676.583 155.196,672.407 168.815 C 633.217 296.616,591.955 360.448,515.328 411.821 L 498.155 423.333 452.411 423.333 C 427.252 423.333,406.667 423.050,406.667 422.704 C 406.667 422.357,407.792 419.381,409.167 416.090 C 410.542 412.800,411.667 407.419,411.667 404.135 C 411.667 400.445,393.922 349.934,365.246 271.998 C 339.715 202.607,318.260 144.521,317.568 142.917 C 316.374 140.149,325.601 140.000,498.155 140.000 C 639.801 140.000,680.000 140.448,680.000 142.027 M202.469 523.989 C 195.372 527.081,187.035 537.176,185.700 544.292 C 183.464 556.210,190.943 569.445,202.685 574.352 C 206.775 576.060,216.789 576.667,240.919 576.667 C 258.900 576.667,273.322 577.229,272.968 577.917 C 268.048 587.474,266.460 593.079,267.265 598.043 C 268.380 604.913,357.685 849.261,361.005 854.525 C 362.286 856.555,363.333 858.617,363.333 859.108 C 363.333 859.599,311.559 860.000,248.280 860.000 C 121.538 860.000,126.772 859.579,117.140 870.549 C 107.885 881.090,107.914 893.944,117.217 904.539 C 127.124 915.823,97.028 915.000,500.000 915.000 C 804.278 915.000,867.692 914.616,872.163 912.748 C 875.127 911.510,879.941 907.776,882.860 904.451 C 892.115 893.910,892.086 881.056,882.783 870.461 C 873.156 859.497,880.554 860.000,728.962 860.000 L 591.151 860.000 607.710 842.917 C 657.797 791.246,689.069 733.652,720.607 635.000 C 726.614 616.208,733.092 595.396,735.002 588.750 L 738.474 576.667 765.124 576.667 C 784.097 576.667,793.370 576.000,797.315 574.352 C 809.057 569.445,816.536 556.210,814.300 544.292 C 812.930 536.990,804.521 526.993,797.163 523.918 C 789.275 520.622,210.037 520.692,202.469 523.989 M680.000 578.923 C 680.000 583.990,659.015 647.688,648.897 673.333 C 623.560 737.555,593.229 784.270,554.813 818.241 C 538.858 832.350,518.580 847.481,504.854 855.521 L 497.207 860.000 451.937 860.000 C 427.038 860.000,406.667 859.717,406.667 859.370 C 406.667 859.024,407.792 856.048,409.167 852.757 C 410.542 849.466,411.667 844.103,411.667 840.838 C 411.667 837.197,393.716 786.112,365.236 708.701 C 339.700 639.291,318.245 581.188,317.558 579.583 C 316.374 576.816,325.605 576.667,498.155 576.667 C 649.972 576.667,680.000 577.039,680.000 578.923 " stroke="none" fill-rule="evenodd" fill="#000000"></path></svg>