<svg width="1000" height="1000" viewBox="0 0 1000 1000" version="1.1" id="svg5" sodipodi:docname="棚.svg" inkscape:version="1.2.1 (9c6d41e410, 2022-07-14)" xmlns:inkscape="http://www.inkscape.org/namespaces/inkscape" xmlns:sodipodi="http://sodipodi.sourceforge.net/DTD/sodipodi-0.dtd" xmlns="http://www.w3.org/2000/svg" xmlns:svg="http://www.w3.org/2000/svg"><path d="M345.538 108.221 C 198.079 109.159,196.873 109.194,192.205 112.653 C 183.125 119.382,179.634 126.487,180.353 136.776 C 181.153 148.217,186.139 155.830,195.668 160.158 C 202.148 163.100,209.439 163.262,337.083 163.297 L 471.667 163.333 471.667 317.453 L 471.667 471.573 335.294 472.037 L 198.920 472.500 192.882 476.638 C 175.879 488.291,175.879 511.709,192.882 523.362 L 198.920 527.500 335.294 527.963 L 471.667 528.427 471.667 682.547 L 471.667 836.667 272.917 836.703 C 83.046 836.738,73.863 836.878,67.369 839.827 C 45.699 849.669,45.291 878.113,66.662 889.164 C 70.994 891.405,120.313 891.692,500.079 891.692 C 980.183 891.693,935.821 892.915,944.732 879.440 C 953.279 866.515,949.807 851.034,936.184 841.316 L 930.833 837.500 729.583 837.057 L 528.333 836.614 528.333 682.521 L 528.333 528.427 664.706 527.963 L 801.079 527.500 807.779 523.065 C 824.202 512.195,824.202 487.805,807.779 476.935 L 801.079 472.500 664.706 472.037 L 528.333 471.573 528.333 317.453 L 528.333 163.333 662.980 163.333 L 797.627 163.333 805.050 159.583 C 824.618 149.698,825.536 124.751,806.797 112.123 L 801.174 108.333 657.498 108.333 C 578.476 108.333,509.400 108.095,503.994 107.805 C 498.589 107.514,427.284 107.701,345.538 108.221 " stroke="none" fill-rule="evenodd" fill="#000000"></path></svg>