<svg width="1000" height="1000" viewBox="0 0 1000 1000" version="1.1" id="svg5" xmlns="http://www.w3.org/2000/svg" xmlns:svg="http://www.w3.org/2000/svg"><path d="M377.759 54.098 C 374.234 55.354,369.450 58.134,367.127 60.275 C 358.033 68.655,358.333 63.058,358.333 224.241 L 358.333 373.588 351.024 392.211 C 324.018 461.014,290.548 524.179,253.135 576.946 C 216.404 628.753,169.899 675.866,110.284 721.667 C 96.203 732.484,90.759 741.503,92.131 751.734 C 94.168 766.921,107.832 777.908,122.611 776.242 C 131.130 775.282,146.356 764.505,182.937 733.543 C 248.992 677.635,299.978 614.755,345.204 533.420 L 357.500 511.307 357.934 585.528 C 358.172 626.349,358.172 693.743,357.934 735.291 L 357.500 810.833 352.500 801.959 C 342.196 783.671,338.255 778.236,332.951 775.001 C 324.676 769.954,317.585 769.196,309.066 772.450 C 298.764 776.384,292.964 784.383,292.002 795.983 L 291.249 805.058 325.101 867.112 C 343.720 901.242,360.702 931.848,362.839 935.126 C 373.926 952.129,396.709 952.572,409.064 936.025 C 412.494 931.431,412.501 930.930,413.333 656.128 L 414.167 380.833 427.164 343.358 C 434.313 322.746,440.850 302.811,441.691 299.057 C 444.859 284.922,436.023 270.190,421.911 266.076 L 414.167 263.819 413.333 167.326 C 412.712 95.435,411.978 69.923,410.454 67.263 C 407.225 61.628,398.790 55.284,392.032 53.407 C 384.592 51.341,385.633 51.290,377.759 54.098 M609.425 54.164 C 605.901 55.384,601.142 58.134,598.850 60.275 C 589.317 69.179,589.966 36.993,589.981 499.804 C 589.988 734.419,590.492 927.755,591.101 929.439 C 594.865 939.839,606.585 948.333,617.171 948.333 C 626.162 948.333,636.750 941.743,641.162 933.400 L 645.000 926.142 645.000 693.071 C 645.000 564.882,645.563 460.021,646.250 460.048 C 646.938 460.074,706.219 503.178,777.987 555.835 C 860.867 616.646,910.880 652.296,915.070 653.551 C 928.200 657.485,944.282 648.069,948.110 634.205 C 950.523 625.465,947.772 615.028,941.443 608.911 C 938.744 606.302,871.127 556.167,791.184 497.500 L 645.833 390.833 645.000 230.703 L 644.167 70.573 639.497 64.451 C 631.710 54.243,620.386 50.369,609.425 54.164 " stroke="none" fill-rule="evenodd" fill="black"></path></svg>