<svg width="1000" height="1000" viewBox="0 0 1000 1000" version="1.1" id="svg5" sodipodi:docname="欽.svg" inkscape:version="1.2.2 (732a01da63, 2022-12-09)" xmlns:inkscape="http://www.inkscape.org/namespaces/inkscape" xmlns:sodipodi="http://sodipodi.sourceforge.net/DTD/sodipodi-0.dtd" xmlns="http://www.w3.org/2000/svg" xmlns:svg="http://www.w3.org/2000/svg"><path d="M216.319 71.595 C 201.323 76.288,193.368 91.703,197.669 107.733 C 199.107 113.091,338.289 283.445,344.830 287.851 C 355.845 295.273,374.298 291.122,381.359 279.635 C 386.750 270.865,387.473 263.107,383.678 254.754 C 379.405 245.351,242.652 77.262,236.821 74.247 C 230.684 71.073,221.700 69.911,216.319 71.595 M728.252 72.278 C 718.930 75.255,716.581 77.687,698.255 103.333 C 592.227 251.720,466.996 360.036,282.500 462.930 C 244.454 484.148,146.646 533.398,107.651 550.972 C 97.576 555.513,87.019 561.574,83.973 564.567 C 73.312 575.043,72.760 589.787,82.592 601.472 C 87.654 607.488,99.826 612.452,106.328 611.151 C 112.513 609.914,157.842 588.673,214.914 560.268 C 240.075 547.746,261.253 537.253,261.976 536.952 C 262.699 536.650,263.488 620.708,263.729 723.748 L 264.167 911.094 268.836 917.215 C 274.688 924.887,282.217 928.869,290.889 928.880 C 296.199 928.887,343.071 908.480,514.072 831.709 C 695.552 750.234,730.827 734.922,732.350 736.960 C 744.166 752.774,875.382 918.432,878.838 921.899 C 897.629 940.752,931.925 919.201,923.052 894.116 C 919.993 885.468,614.816 497.523,607.620 493.135 C 596.345 486.259,579.839 490.256,571.171 501.959 C 566.763 507.911,565.533 521.310,568.814 527.641 C 570.199 530.313,599.102 567.750,633.041 610.833 C 666.980 653.917,694.243 689.663,693.625 690.269 C 692.302 691.566,320.962 858.333,319.397 858.333 C 318.004 858.333,318.010 534.326,319.404 517.836 L 320.475 505.170 348.154 488.885 C 478.442 412.232,580.681 329.525,667.583 230.482 C 707.970 184.452,758.071 117.658,761.969 104.649 C 767.695 85.537,747.486 66.135,728.252 72.278 " stroke="none" fill-rule="evenodd" fill="black"></path></svg>