<svg width="1000" height="1000" viewBox="0 0 1000 1000" version="1.1" id="svg5" xmlns="http://www.w3.org/2000/svg" xmlns:svg="http://www.w3.org/2000/svg"><path d="M480.658 91.562 C 467.755 94.682,459.196 106.948,460.335 120.687 C 461.138 130.370,464.510 135.928,473.209 141.908 L 478.918 145.833 558.282 146.324 L 637.647 146.816 637.168 152.158 C 610.416 450.708,555.909 691.616,469.021 895.316 C 463.703 907.784,460.000 918.924,460.000 922.453 C 460.000 943.111,482.184 956.479,499.922 946.510 C 508.668 941.595,510.430 938.619,524.935 904.279 C 579.695 774.636,629.342 598.428,655.745 440.000 C 657.196 431.292,658.762 422.479,659.224 420.417 L 660.064 416.667 753.631 416.667 L 847.199 416.667 846.095 455.417 C 843.078 561.356,832.026 666.415,815.019 750.833 C 808.142 784.966,795.372 839.391,793.362 843.132 C 792.563 844.618,783.132 827.824,766.687 795.632 C 722.798 709.718,724.419 712.373,712.909 707.564 C 704.746 704.153,699.510 704.332,691.758 708.287 C 679.969 714.301,673.465 727.169,676.631 738.211 C 678.936 746.245,775.060 933.149,779.761 938.736 C 791.238 952.375,813.047 951.399,822.525 936.823 C 828.945 926.950,854.515 832.771,866.462 775.000 C 882.535 697.273,892.119 622.692,898.266 527.500 C 900.907 486.618,903.728 407.914,903.092 392.887 C 902.569 380.530,901.941 378.171,897.697 372.608 C 889.064 361.293,893.217 361.667,775.985 361.667 C 717.802 361.667,669.875 361.104,669.481 360.417 C 669.087 359.729,670.145 349.417,671.832 337.500 C 677.308 298.807,683.132 250.074,687.466 206.667 C 689.801 183.292,692.127 160.253,692.635 155.470 L 693.560 146.773 811.363 146.303 L 929.167 145.833 935.333 141.999 C 953.340 130.802,953.340 105.865,935.333 94.667 L 929.167 90.833 707.500 90.572 C 585.583 90.429,483.504 90.874,480.658 91.562 M72.465 168.199 C 48.282 174.078,43.433 205.462,64.667 218.666 C 70.812 222.487,71.079 222.502,141.340 223.001 L 211.846 223.501 210.941 230.501 C 210.443 234.350,209.244 245.000,208.277 254.167 C 203.875 295.875,193.553 369.107,187.488 401.667 C 186.207 408.542,183.167 425.042,180.731 438.333 C 156.503 570.558,115.741 701.596,65.059 810.181 C 54.709 832.357,51.667 840.535,51.667 846.187 C 51.667 869.457,78.583 881.589,96.096 866.212 C 102.082 860.957,106.100 853.344,125.323 810.833 C 169.030 714.179,210.835 577.886,232.679 460.833 C 234.047 453.500,235.555 446.188,236.029 444.583 C 236.835 441.856,242.265 441.667,319.503 441.667 L 402.115 441.667 400.985 466.250 C 395.898 576.861,386.388 650.299,366.920 729.294 C 356.686 770.818,354.945 776.126,352.607 772.929 C 351.522 771.444,338.304 748.710,323.234 722.409 C 292.846 669.375,290.462 666.493,276.130 665.474 C 256.015 664.044,241.264 683.921,248.921 702.137 C 254.348 715.048,340.678 862.857,344.703 866.129 C 357.176 876.269,376.514 873.028,384.798 859.411 C 388.818 852.803,404.319 803.699,415.129 763.333 C 439.833 671.080,451.731 583.272,456.650 456.896 C 457.782 427.833,457.803 410.885,456.713 406.837 C 455.067 400.724,447.405 392.061,440.526 388.533 C 437.965 387.220,408.698 386.667,341.776 386.667 C 289.466 386.667,246.667 386.230,246.667 385.697 C 246.667 385.163,249.621 363.976,253.231 338.613 C 256.841 313.251,261.482 276.964,263.544 257.975 L 267.293 223.449 373.230 222.975 L 479.167 222.500 485.333 218.666 C 503.340 207.469,503.340 182.531,485.333 171.334 L 479.167 167.500 278.333 167.237 C 167.875 167.093,75.234 167.526,72.465 168.199 " stroke="none" fill-rule="evenodd" fill="black"></path></svg>