<svg width="1000" height="1000" viewBox="0 0 1000 1000" version="1.1" id="svg5" sodipodi:docname="止.svg" inkscape:version="1.2.1 (9c6d41e410, 2022-07-14)" xmlns:inkscape="http://www.inkscape.org/namespaces/inkscape" xmlns:sodipodi="http://sodipodi.sourceforge.net/DTD/sodipodi-0.dtd" xmlns="http://www.w3.org/2000/svg" xmlns:svg="http://www.w3.org/2000/svg"><path d="M67.249 121.547 C 47.391 130.564,46.086 156.886,64.869 169.544 L 70.493 173.333 500.000 173.333 L 929.507 173.333 935.131 169.544 C 944.877 162.975,948.728 155.588,947.980 144.891 C 947.180 133.449,942.194 125.837,932.665 121.509 C 926.060 118.509,911.715 118.407,500.000 118.407 C 86.419 118.407,73.968 118.497,67.249 121.547 M315.751 298.919 C 309.051 301.959,302.212 310.269,300.073 317.968 C 299.032 321.719,298.348 348.687,298.343 386.250 L 298.333 448.333 230.417 448.373 C 193.063 448.395,159.604 449.085,156.064 449.906 C 143.259 452.877,134.152 465.591,135.415 478.733 C 136.613 491.196,144.959 500.466,157.629 503.404 C 161.225 504.238,194.354 504.938,231.250 504.960 L 298.333 505.000 298.343 671.250 C 298.349 780.468,298.942 839.626,300.073 843.698 C 302.280 851.643,309.182 859.828,316.119 862.727 C 320.588 864.594,350.593 865.000,484.113 865.000 L 646.667 865.000 646.667 881.558 C 646.667 890.665,647.464 900.228,648.439 902.808 C 652.251 912.896,664.334 921.667,674.420 921.667 C 682.550 921.667,693.047 915.249,697.586 907.503 L 701.792 900.327 701.708 702.746 L 701.624 505.164 773.729 504.665 C 838.350 504.218,846.380 503.867,851.103 501.283 C 857.879 497.576,862.836 491.214,865.265 483.108 C 869.164 470.092,859.653 454.040,845.755 450.181 C 841.465 448.990,815.180 448.349,770.417 448.343 L 701.667 448.333 701.667 383.280 C 701.667 311.052,701.607 310.605,690.940 302.468 C 677.289 292.056,657.633 296.732,650.160 312.169 C 646.798 319.115,646.667 321.807,646.667 383.860 L 646.667 448.333 500.833 448.333 L 355.000 448.333 354.960 387.083 C 354.938 353.396,354.238 322.891,353.404 319.296 C 350.457 306.590,341.122 298.196,328.874 297.240 C 324.238 296.878,318.681 297.589,315.751 298.919 M646.667 657.500 L 646.667 810.000 500.833 810.000 L 355.000 810.000 355.000 657.500 L 355.000 505.000 500.833 505.000 L 646.667 505.000 646.667 657.500 " stroke="none" fill-rule="evenodd" fill="#000000"></path></svg>