<svg width="1000" height="1000" viewBox="0 0 1000 1000" version="1.1" id="svg5" sodipodi:docname="цнг.svg" inkscape:version="1.3.1 (91b66b0783, 2023-11-16)" xmlns:inkscape="http://www.inkscape.org/namespaces/inkscape" xmlns:sodipodi="http://sodipodi.sourceforge.net/DTD/sodipodi-0.dtd" xmlns="http://www.w3.org/2000/svg" xmlns:svg="http://www.w3.org/2000/svg"><path d="M263.738 51.416 C 257.611 53.181,248.162 61.669,245.661 67.655 C 243.809 72.088,243.333 85.995,243.333 135.728 L 243.333 198.229 172.785 198.698 L 102.237 199.167 96.117 203.836 C 88.140 209.922,85.000 216.278,85.000 226.337 C 85.000 235.382,89.106 243.011,97.204 249.013 C 101.777 252.404,103.859 252.513,172.620 252.969 L 243.333 253.437 243.333 343.316 L 243.333 433.196 173.750 433.681 C 104.440 434.165,104.142 434.182,98.001 438.001 C 89.559 443.250,85.000 451.141,85.000 460.505 C 85.000 464.691,85.667 469.870,86.481 472.013 C 89.209 479.188,98.292 486.382,106.973 488.243 C 111.909 489.302,140.633 490.000,179.263 490.000 L 243.362 490.000 242.931 579.583 L 242.500 669.167 151.371 670.000 C 62.181 670.816,60.142 670.908,55.538 674.320 C 47.264 680.452,43.333 687.918,43.333 697.500 C 43.333 708.506,48.125 716.118,58.283 721.250 C 65.705 724.999,65.727 725.000,154.520 725.000 L 243.333 725.000 243.333 825.887 C 243.333 907.745,243.766 927.809,245.626 932.262 C 248.562 939.288,258.794 947.736,266.009 949.090 C 277.961 951.332,292.079 943.039,296.564 931.142 C 297.741 928.022,298.333 892.713,298.333 825.779 L 298.333 725.109 389.715 724.638 L 481.096 724.167 487.192 719.516 C 500.722 709.193,502.849 692.603,492.256 680.014 C 489.901 677.215,486.367 674.004,484.404 672.879 C 481.754 671.361,457.414 670.618,390.000 670.000 L 299.167 669.167 298.736 579.683 L 298.304 490.199 367.902 489.683 C 437.201 489.169,437.526 489.150,443.666 485.333 C 450.222 481.256,455.537 473.812,457.333 466.188 C 460.137 454.291,450.131 438.709,437.422 435.181 C 433.151 433.995,407.532 433.349,364.583 433.343 L 298.333 433.333 298.333 343.333 L 298.333 253.333 366.720 253.333 C 442.569 253.333,442.271 253.371,451.180 242.564 C 459.787 232.121,459.500 218.937,450.430 208.158 C 442.223 198.405,441.616 198.333,366.720 198.333 L 298.333 198.333 298.333 134.917 C 298.333 66.030,298.465 67.094,288.773 57.884 C 281.792 51.250,272.578 48.869,263.738 51.416 M710.668 63.176 C 704.106 66.156,698.520 72.223,696.034 79.070 C 695.388 80.850,693.359 96.975,691.527 114.903 C 684.526 183.383,675.713 247.845,665.879 302.500 C 663.570 315.333,661.678 326.396,661.674 327.083 C 661.670 327.771,650.976 328.333,637.911 328.333 L 614.154 328.333 581.835 242.917 C 564.060 195.938,547.433 152.837,544.887 147.137 C 539.926 136.032,533.925 130.909,523.589 128.956 C 506.438 125.715,488.255 144.514,492.434 161.164 C 493.259 164.451,542.999 296.685,554.187 325.335 C 555.213 327.964,551.128 328.205,497.799 328.668 L 440.304 329.167 433.902 334.285 C 420.759 344.793,418.088 360.308,427.335 372.431 C 435.989 383.777,430.528 383.265,544.858 383.450 C 601.758 383.542,648.623 384.120,649.003 384.736 C 649.822 386.060,637.756 438.041,629.211 470.000 C 578.893 658.200,514.926 791.018,431.616 880.275 C 422.491 890.051,414.270 900.037,413.346 902.467 C 405.405 923.352,427.180 945.959,447.808 938.246 C 456.788 934.888,488.965 900.664,512.830 869.090 C 590.336 766.544,655.502 608.279,699.117 416.667 C 702.351 402.458,705.387 389.146,705.864 387.083 L 706.730 383.333 795.865 383.333 L 885.000 383.333 884.991 387.917 C 884.986 390.438,884.240 408.625,883.334 428.333 C 877.137 563.098,864.381 665.592,841.669 763.117 C 835.586 789.238,822.095 840.128,820.949 841.273 C 820.673 841.549,803.324 811.938,782.395 775.471 C 761.413 738.910,741.650 706.425,738.339 703.055 C 727.805 692.331,712.251 692.356,701.493 703.115 C 693.524 711.084,690.743 720.624,693.812 729.465 C 695.028 732.968,720.585 778.583,750.606 830.833 C 787.795 895.560,807.095 927.550,811.171 931.220 C 821.491 940.513,835.480 940.533,846.029 931.271 C 852.959 925.186,852.597 926.025,864.219 889.167 C 902.522 767.688,923.724 652.336,934.063 509.167 C 937.382 463.212,939.923 407.247,940.175 374.535 C 940.375 348.645,940.309 348.131,935.912 341.487 C 933.176 337.353,928.745 333.512,924.473 331.572 C 917.875 328.577,912.142 328.405,817.917 328.370 C 723.001 328.335,718.333 328.192,718.333 325.321 C 718.333 323.665,719.777 314.450,721.542 304.843 C 729.875 259.488,740.322 182.758,746.678 120.219 C 750.512 82.501,750.157 79.091,741.353 69.064 C 736.651 63.709,728.179 59.986,720.833 60.046 C 719.000 60.061,714.426 61.469,710.668 63.176 " stroke="none" fill-rule="evenodd" fill="black"></path></svg>