<svg width="1000" height="1000" viewBox="0 0 1000 1000" version="1.1" id="svg5" sodipodi:docname="цнд.svg" inkscape:version="1.2.1 (9c6d41e410, 2022-07-14)" xmlns:inkscape="http://www.inkscape.org/namespaces/inkscape" xmlns:sodipodi="http://sodipodi.sourceforge.net/DTD/sodipodi-0.dtd" xmlns="http://www.w3.org/2000/svg" xmlns:svg="http://www.w3.org/2000/svg"><path d="M446.275 52.065 C 441.524 53.277,435.743 58.057,421.871 72.243 C 371.383 123.875,75.821 434.846,73.128 439.167 C 69.109 445.617,69.089 457.505,73.086 465.026 C 76.702 471.830,84.848 477.841,92.363 479.251 C 95.885 479.912,207.931 459.902,423.444 420.125 C 602.611 387.056,750.734 360.000,752.605 360.000 C 754.700 360.000,781.282 382.189,821.754 417.720 C 857.914 449.466,889.913 476.466,892.863 477.720 C 909.907 484.966,930.000 471.591,930.000 453.001 C 930.000 448.509,928.881 442.671,927.513 440.026 C 926.146 437.381,894.833 408.715,857.930 376.323 C 670.012 211.376,641.066 186.200,635.690 183.028 C 619.811 173.659,596.667 187.184,596.667 205.831 C 596.667 219.813,597.851 221.185,647.251 264.436 C 701.798 312.193,700.872 311.351,699.907 312.310 C 698.687 313.523,182.783 408.472,180.160 407.966 C 178.757 407.696,240.503 341.713,327.203 250.833 C 442.568 129.908,477.281 92.567,479.365 87.155 C 487.111 67.037,467.813 46.572,446.275 52.065 M222.632 481.839 C 215.689 482.968,209.370 487.144,204.270 493.975 C 200.840 498.569,200.833 499.017,200.833 714.835 L 200.833 931.093 205.484 937.191 C 215.813 950.733,232.396 952.850,245.008 942.237 C 253.776 934.860,255.000 930.615,255.000 907.583 L 255.000 886.667 481.667 886.667 L 708.333 886.667 708.333 905.887 C 708.333 930.933,711.818 939.879,724.035 946.196 C 736.542 952.664,752.808 947.441,759.997 934.649 L 763.505 928.407 763.391 714.898 C 763.292 532.018,762.930 500.721,760.864 496.727 C 757.473 490.168,749.196 483.635,742.868 482.522 C 735.569 481.238,230.406 480.574,222.632 481.839 M708.333 683.333 L 708.333 830.000 481.667 830.000 L 255.000 830.000 255.000 684.444 C 255.000 604.389,255.500 538.389,256.111 537.778 C 256.722 537.167,358.722 536.667,482.778 536.667 L 708.333 536.667 708.333 683.333 " stroke="none" fill-rule="evenodd" fill="black"></path></svg>