<svg width="1000" height="1000" viewBox="0 0 1000 1000" version="1.1" id="svg5" sodipodi:docname="цнк.svg" inkscape:version="1.2.1 (9c6d41e410, 2022-07-14)" xmlns:inkscape="http://www.inkscape.org/namespaces/inkscape" xmlns:sodipodi="http://sodipodi.sourceforge.net/DTD/sodipodi-0.dtd" xmlns="http://www.w3.org/2000/svg" xmlns:svg="http://www.w3.org/2000/svg"><path d="M204.170 89.292 C 193.227 94.998,188.056 102.992,188.056 114.203 C 188.056 121.937,190.060 126.934,195.625 133.075 C 203.860 142.162,189.719 141.667,440.751 141.667 C 568.671 141.667,673.322 142.229,673.308 142.917 C 673.294 143.604,613.136 186.729,539.623 238.750 L 405.963 333.333 308.335 333.333 L 210.706 333.333 203.367 337.083 C 199.331 339.146,194.622 342.766,192.904 345.129 C 185.958 354.676,186.590 370.523,194.244 378.778 C 203.778 389.060,187.194 388.388,431.119 388.377 C 580.599 388.370,653.415 388.919,652.290 390.043 C 651.368 390.966,547.913 451.994,422.390 525.661 C 153.052 683.732,167.988 674.769,151.914 687.962 C 117.964 715.826,100.762 746.577,100.894 779.167 C 101.121 835.450,153.299 880.439,235.833 895.514 L 255.833 899.167 567.500 899.167 L 879.167 899.167 885.333 895.333 C 895.442 889.047,899.356 880.440,898.585 866.191 C 898.407 862.905,883.421 841.724,847.292 793.691 C 819.219 756.369,794.281 723.704,791.875 721.101 C 776.158 704.101,751.386 709.693,744.784 731.732 C 741.259 743.495,743.149 746.926,780.163 795.970 L 815.279 842.500 538.890 842.961 C 296.970 843.364,260.452 843.102,246.077 840.861 C 205.577 834.545,170.301 815.445,160.058 794.287 C 147.365 768.067,168.318 737.461,218.333 709.166 C 236.176 699.072,740.431 402.914,761.087 390.397 C 778.842 379.638,783.333 373.590,783.333 360.440 C 783.333 353.957,782.288 350.724,778.503 345.499 C 769.297 332.790,775.926 333.340,631.216 333.278 C 505.182 333.224,502.578 333.157,506.242 330.101 C 508.300 328.384,571.117 283.706,645.834 230.817 C 721.055 177.572,783.303 132.383,785.310 129.564 C 794.338 116.886,789.444 98.080,775.155 90.542 L 767.809 86.667 488.488 86.677 C 238.447 86.686,208.643 86.960,204.170 89.292 " stroke="none" fill-rule="evenodd" fill="black"></path></svg>