<svg width="1000" height="1000" viewBox="0 0 1000 1000" version="1.1" id="svg5" xmlns="http://www.w3.org/2000/svg" xmlns:svg="http://www.w3.org/2000/svg"><path d="M400.833 52.504 C 391.484 55.809,383.846 64.610,382.493 73.636 C 380.394 87.630,383.032 91.057,427.983 132.728 L 469.089 170.833 324.961 171.667 C 186.853 172.465,180.614 172.633,175.574 175.683 C 163.735 182.848,159.445 201.989,167.097 213.504 C 169.167 216.618,174.201 220.854,178.283 222.917 L 185.706 226.667 327.868 226.667 L 470.030 226.667 469.598 312.083 L 469.167 397.500 300.538 398.333 C 133.477 399.159,131.867 399.199,127.308 402.603 C 117.333 410.051,112.858 420.665,115.142 431.462 C 116.840 439.490,121.588 445.267,130.034 449.583 L 137.373 453.333 302.853 453.333 C 466.257 453.333,468.333 453.374,468.333 456.609 C 468.333 464.942,462.806 498.074,458.426 515.997 C 455.760 526.907,450.248 545.208,446.177 556.667 C 438.202 579.115,423.804 612.846,421.621 614.195 C 420.525 614.872,361.904 583.839,348.851 575.672 L 345.202 573.389 352.469 557.836 C 360.161 541.377,369.991 514.446,374.110 498.551 C 377.180 486.703,375.455 479.154,367.830 471.069 C 360.636 463.441,351.416 460.708,341.701 463.324 C 329.555 466.595,324.871 472.974,317.016 496.947 C 313.211 508.559,307.090 524.572,303.413 532.531 L 296.727 547.001 284.614 540.377 C 238.952 515.408,237.088 514.845,224.201 522.145 C 214.703 527.524,209.698 536.878,210.474 547.796 C 211.410 560.956,216.001 565.604,242.293 580.009 C 254.782 586.852,265.000 592.901,265.000 593.452 C 265.000 594.843,244.219 614.564,234.386 622.505 C 229.924 626.109,214.924 636.582,201.053 645.779 C 179.402 660.134,175.288 663.561,171.979 670.000 C 162.755 687.951,176.091 708.333,197.060 708.333 C 202.960 708.333,207.142 706.698,217.804 700.222 C 253.134 678.764,275.894 661.201,299.167 637.440 L 315.833 620.423 354.521 641.461 C 375.799 653.033,393.236 663.256,393.271 664.179 C 393.366 666.733,373.787 695.396,358.892 714.508 C 305.228 783.368,240.458 837.566,176.114 867.452 C 145.567 881.641,118.224 888.940,86.373 891.409 C 66.830 892.924,63.100 894.491,55.587 904.341 C 46.202 916.646,50.770 935.135,65.198 943.245 C 80.231 951.694,133.425 943.836,177.247 926.692 C 215.236 911.831,260.803 884.803,298.475 854.787 C 322.874 835.347,374.392 783.335,395.484 756.848 C 405.259 744.573,419.823 724.844,427.849 713.005 C 438.489 697.312,443.193 691.677,445.212 692.205 C 446.735 692.603,552.498 750.331,680.241 820.490 C 807.983 890.648,915.160 948.544,918.411 949.147 C 930.596 951.408,944.456 941.931,948.448 928.609 C 951.044 919.943,947.925 909.002,941.079 902.760 C 938.194 900.130,832.708 841.383,706.667 772.213 C 580.625 703.042,475.845 645.377,473.822 644.066 L 470.144 641.684 476.863 627.092 C 502.756 570.858,519.187 513.676,522.742 467.423 L 523.822 453.380 692.450 452.940 L 861.079 452.500 867.231 448.333 C 880.420 439.400,883.592 421.376,874.153 409.000 C 865.567 397.744,875.652 398.333,691.720 398.333 L 525.000 398.333 525.000 312.500 L 525.000 226.667 666.720 226.667 C 822.734 226.667,814.799 227.197,824.527 216.117 C 833.418 205.991,833.856 191.505,825.568 181.656 C 816.721 171.141,824.286 171.667,681.754 171.667 L 551.676 171.667 544.639 165.417 C 540.768 161.979,511.900 135.392,480.487 106.334 C 416.448 47.096,416.337 47.021,400.833 52.504 " stroke="none" fill-rule="evenodd" fill="#000000"></path></svg>