<svg width="1000" height="1000" viewBox="0 0 1000 1000" version="1.1" id="svg5" xmlns="http://www.w3.org/2000/svg" xmlns:svg="http://www.w3.org/2000/svg"><path d="M564.652 91.595 C 547.897 96.839,539.593 116.945,548.290 131.208 C 554.763 141.826,891.247 512.759,896.095 514.622 C 908.349 519.332,917.425 518.068,925.335 510.550 C 936.332 500.098,938.246 486.891,930.417 475.500 C 922.381 463.811,588.837 95.764,584.479 93.779 C 578.244 90.938,569.743 90.002,564.652 91.595 M347.303 95.793 C 339.674 99.273,333.931 107.026,330.930 117.897 C 323.473 144.908,304.278 193.193,288.426 224.814 C 237.069 327.264,171.791 401.831,90.030 451.443 C 64.442 466.969,60.000 472.084,60.000 486.025 C 60.000 500.868,77.330 515.564,91.082 512.382 C 102.557 509.727,136.946 488.476,166.667 465.674 C 258.829 394.966,337.029 277.756,380.059 145.833 C 388.701 119.338,387.175 107.481,373.958 98.424 C 367.009 93.663,354.647 92.443,347.303 95.793 M342.500 338.274 C 338.307 340.029,332.512 345.494,328.739 351.250 C 326.039 355.369,325.763 367.981,324.839 529.092 C 324.292 624.466,323.298 704.750,322.630 707.500 C 321.963 710.250,320.272 718.500,318.874 725.833 C 310.541 769.519,290.555 809.441,262.691 838.055 C 247.045 854.123,232.852 864.071,212.183 873.458 C 190.089 883.492,190.021 883.538,185.695 890.919 C 176.380 906.814,184.525 926.491,202.470 931.446 C 221.437 936.683,275.248 906.044,306.615 872.148 C 336.714 839.623,360.861 791.846,371.624 743.523 C 380.677 702.883,380.784 700.295,380.810 521.667 L 380.833 355.833 376.999 349.667 C 371.579 340.950,363.888 336.644,353.970 336.772 C 349.495 336.830,344.333 337.506,342.500 338.274 M611.915 339.494 C 608.844 341.007,604.344 345.248,601.915 348.918 L 597.500 355.590 597.500 634.045 L 597.500 912.500 601.334 918.666 C 606.743 927.365,615.029 932.051,625.000 932.051 C 634.971 932.051,643.257 927.365,648.666 918.666 L 652.500 912.500 652.500 634.045 L 652.500 355.590 648.065 348.889 C 640.458 337.393,624.563 333.262,611.915 339.494 " stroke="none" fill-rule="evenodd" fill="black"></path></svg>