<svg width="1000" height="1000" viewBox="0 0 1000 1000" version="1.1" id="svg5" sodipodi:docname="毛.svg" inkscape:version="1.3 (0e150ed6c4, 2023-07-21)" xmlns:inkscape="http://www.inkscape.org/namespaces/inkscape" xmlns:sodipodi="http://sodipodi.sourceforge.net/DTD/sodipodi-0.dtd" xmlns="http://www.w3.org/2000/svg" xmlns:svg="http://www.w3.org/2000/svg"><path d="M862.286 119.156 C 858.501 121.425,854.253 125.730,852.846 128.724 C 851.438 131.717,845.693 153.667,840.079 177.500 C 783.975 415.662,735.679 547.566,665.852 653.333 C 641.359 690.433,618.396 718.475,585.935 750.924 C 555.690 781.158,535.746 798.212,500.833 823.696 C 488.712 832.544,477.797 841.851,476.058 844.822 C 474.149 848.082,472.949 853.342,472.949 858.444 C 472.949 879.745,495.416 891.869,514.582 880.911 C 518.477 878.683,530.137 870.561,540.493 862.860 C 675.251 762.647,758.049 639.990,824.251 442.500 C 846.994 374.652,873.626 277.186,897.472 174.534 C 905.730 138.980,905.804 135.492,898.514 125.253 C 890.967 114.655,874.436 111.873,862.286 119.156 M114.170 159.292 C 111.422 160.725,107.887 163.062,106.314 164.486 C 101.899 168.481,97.770 180.911,98.811 187.068 C 100.154 195.008,261.317 556.792,265.568 561.408 C 270.947 567.250,277.864 570.278,285.833 570.278 C 302.855 570.278,316.015 554.659,312.750 538.333 C 311.140 530.284,150.006 169.495,146.104 165.202 C 138.595 156.941,123.896 154.221,114.170 159.292 M384.167 159.019 C 374.404 163.358,368.333 173.121,368.333 184.480 C 368.333 188.690,391.122 241.735,446.870 367.289 C 490.065 464.572,527.609 548.366,530.301 553.498 C 539.585 571.197,557.306 575.580,572.768 564.002 C 579.053 559.296,584.177 547.134,582.792 540.209 C 581.736 534.931,421.379 173.210,417.389 167.105 C 411.630 158.296,394.936 154.233,384.167 159.019 " stroke="none" fill-rule="evenodd" fill="black"></path></svg>