<svg width="1000" height="1000" viewBox="0 0 1000 1000" version="1.1" id="svg5" xmlns="http://www.w3.org/2000/svg" xmlns:svg="http://www.w3.org/2000/svg"><path d="M490.282 50.054 C 484.678 51.313,476.345 58.029,472.773 64.167 C 471.441 66.456,470.572 86.289,470.000 127.500 L 469.167 187.500 361.667 188.333 C 279.379 188.971,253.303 189.661,250.484 191.272 C 243.703 195.150,237.873 204.649,237.156 212.987 C 236.323 222.681,239.960 230.233,248.904 237.381 L 255.307 242.500 362.654 242.964 L 470.000 243.427 470.000 300.880 L 470.000 358.333 331.250 358.343 C 235.673 358.349,190.450 358.921,185.912 360.181 C 172.014 364.040,162.503 380.092,166.402 393.108 C 168.831 401.214,173.788 407.576,180.564 411.283 C 185.422 413.942,196.838 414.203,326.900 414.628 L 467.967 415.090 464.661 430.462 C 448.192 507.017,382.344 592.610,291.667 655.329 C 242.052 689.645,185.141 715.331,135.833 725.662 C 117.545 729.493,112.743 730.119,90.585 731.556 C 71.050 732.823,69.444 733.197,63.656 737.820 C 50.762 748.119,48.160 763.737,57.335 775.765 C 64.331 784.938,69.215 786.667,88.130 786.667 C 167.388 786.667,272.958 742.802,357.825 674.609 C 381.598 655.505,414.294 624.468,429.167 606.887 C 434.667 600.385,440.066 595.050,441.166 595.032 C 442.265 595.015,477.478 624.199,519.417 659.886 C 601.384 729.636,602.218 730.213,615.579 726.524 C 623.790 724.257,632.668 716.234,635.092 708.889 C 637.499 701.595,636.372 691.977,632.401 685.915 C 630.762 683.415,595.195 652.248,553.362 616.655 C 511.529 581.062,476.433 550.893,475.370 549.613 C 473.864 547.797,474.288 546.026,477.301 541.559 C 482.152 534.367,494.484 510.792,500.566 497.083 C 503.107 491.354,505.894 486.667,506.758 486.667 C 507.623 486.667,598.278 554.124,708.215 636.571 C 845.830 739.776,910.100 787.014,914.520 788.204 C 923.739 790.687,932.778 787.754,940.339 779.827 C 949.753 769.958,950.863 755.785,943.005 745.794 C 941.039 743.295,846.371 671.502,732.632 586.254 C 618.893 501.006,524.842 430.331,523.630 429.199 C 522.124 427.792,521.787 425.220,522.565 421.070 L 523.704 415.000 661.435 414.960 C 738.084 414.938,802.066 414.248,805.704 413.404 C 830.534 407.645,836.371 377.642,815.451 363.305 L 809.413 359.167 667.206 358.705 L 525.000 358.243 525.000 300.788 L 525.000 243.333 629.647 243.333 L 734.294 243.333 741.633 239.583 C 754.170 233.177,759.434 221.981,755.977 209.070 C 753.676 200.475,750.641 196.353,743.333 191.900 C 737.540 188.370,736.764 188.346,631.250 188.340 L 525.000 188.333 525.000 130.780 C 525.000 70.154,524.561 66.135,517.024 57.807 C 511.002 51.153,499.819 47.911,490.282 50.054 M385.705 721.612 C 379.660 724.058,371.810 733.279,369.976 740.088 C 368.027 747.328,369.706 756.495,374.136 762.797 C 376.039 765.504,571.987 933.167,588.731 946.415 C 597.511 953.362,613.767 951.567,622.667 942.667 C 633.440 931.894,633.504 915.295,622.816 904.226 C 615.819 896.980,418.181 729.260,410.482 724.036 C 404.285 719.830,392.869 718.713,385.705 721.612 " stroke="none" fill-rule="evenodd" fill="black"></path></svg>