<svg width="1000" height="1000" viewBox="0 0 1000 1000" version="1.1" id="svg5" xmlns="http://www.w3.org/2000/svg" xmlns:svg="http://www.w3.org/2000/svg"><path d="M625.614 51.741 C 619.590 53.571,608.769 64.807,607.668 70.375 C 607.256 72.460,606.093 111.292,605.084 156.667 C 602.614 267.709,599.111 325.896,589.933 408.333 C 568.962 596.684,527.832 729.503,464.360 813.838 C 446.543 837.512,431.455 852.941,386.150 893.820 C 374.669 904.180,371.383 908.198,369.906 913.681 C 365.381 930.486,379.254 948.333,396.842 948.333 C 404.849 948.333,412.857 943.101,435.833 922.860 C 491.130 874.145,523.472 832.891,553.822 772.358 C 586.455 707.274,612.703 621.109,629.174 525.000 C 631.609 510.792,634.104 497.872,634.717 496.290 C 635.509 494.251,673.384 556.804,764.897 711.290 C 835.881 831.122,896.104 932.353,898.725 936.248 C 904.670 945.081,911.852 948.938,922.128 948.814 C 937.337 948.629,948.892 936.861,948.947 921.499 C 948.973 914.300,939.955 898.619,801.337 664.832 C 720.137 527.883,652.066 413.059,650.068 409.668 L 646.437 403.502 649.854 365.501 C 656.677 289.638,659.625 229.435,660.977 138.333 C 661.893 76.568,661.765 72.147,658.894 66.785 C 652.305 54.481,637.952 47.993,625.614 51.741 M303.267 55.505 C 298.306 58.128,294.794 61.639,292.171 66.600 C 288.614 73.327,288.332 75.880,288.313 101.512 C 288.286 136.996,285.516 229.989,283.269 270.833 C 271.701 481.104,241.112 635.510,190.159 740.833 C 160.831 801.456,132.883 837.663,79.167 884.625 C 55.745 905.101,53.917 907.144,51.613 915.417 C 46.364 934.259,66.407 954.101,85.049 948.516 C 99.702 944.125,164.270 882.666,188.546 850.000 C 226.307 799.190,253.898 742.792,277.532 668.106 C 290.682 626.553,305.408 562.704,313.423 512.500 C 315.471 499.667,317.684 488.559,318.340 487.817 C 318.996 487.074,353.121 534.324,394.173 592.817 C 435.225 651.309,471.499 701.996,474.780 705.453 C 485.990 717.262,501.575 717.150,513.551 705.174 C 520.241 698.484,522.760 690.378,520.984 681.250 C 520.323 677.853,484.858 625.967,425.852 542.074 C 374.109 468.506,331.038 406.939,330.138 405.258 C 329.031 403.189,329.526 391.205,331.669 368.184 C 338.345 296.467,343.258 188.957,343.307 113.480 C 343.333 73.127,343.299 72.735,339.190 65.723 C 334.609 57.907,324.124 51.667,315.569 51.667 C 312.795 51.667,307.258 53.394,303.267 55.505 " stroke="none" fill-rule="evenodd" fill="black"></path></svg>