<svg width="1000" height="1000" viewBox="0 0 1000 1000" version="1.1" id="svg5" sodipodi:docname="汝.svg" inkscape:version="1.2.1 (9c6d41e410, 2022-07-14)" xmlns:inkscape="http://www.inkscape.org/namespaces/inkscape" xmlns:sodipodi="http://sodipodi.sourceforge.net/DTD/sodipodi-0.dtd" xmlns="http://www.w3.org/2000/svg" xmlns:svg="http://www.w3.org/2000/svg"><path d="M279.167 51.838 C 272.786 53.800,267.834 58.003,263.470 65.161 C 260.054 70.765,260.012 72.306,260.006 192.862 L 260.000 314.892 192.785 315.362 L 125.570 315.833 119.474 320.484 C 105.934 330.815,103.818 347.397,114.429 360.008 C 122.935 370.117,122.010 370.000,193.515 370.000 L 258.862 370.000 257.774 402.487 C 253.567 528.082,222.753 654.161,172.635 750.833 C 144.142 805.794,122.335 835.829,78.246 880.833 C 56.362 903.171,51.934 908.531,50.966 913.854 C 47.069 935.277,70.836 953.691,89.464 943.680 C 104.656 935.516,149.793 887.572,174.521 853.333 C 232.755 772.704,277.882 660.133,297.456 546.667 C 299.907 532.458,302.452 518.208,303.111 515.000 L 304.308 509.167 319.098 529.167 C 398.315 636.287,500.226 732.707,613.333 807.549 C 699.483 864.554,787.269 907.531,882.500 939.325 C 914.217 949.914,916.177 950.358,922.929 948.493 C 937.711 944.407,946.646 929.678,943.036 915.343 C 940.331 904.601,933.124 898.267,918.264 893.573 C 823.989 863.791,723.278 815.152,638.600 758.508 C 554.718 702.398,476.797 633.101,409.763 555.000 C 377.263 517.134,342.084 469.361,321.112 434.612 C 313.603 422.170,313.333 421.269,313.333 408.613 C 313.333 401.403,313.816 389.789,314.407 382.805 L 315.480 370.107 382.620 369.637 C 447.448 369.183,449.918 369.048,454.360 365.730 C 462.253 359.835,465.508 354.029,466.177 344.652 C 467.018 332.868,462.048 323.961,451.723 318.750 C 444.399 315.053,443.376 315.000,379.647 315.000 L 315.000 315.000 315.000 194.275 C 315.000 112.809,314.422 72.025,313.222 68.858 C 310.694 62.187,305.213 56.710,297.500 53.150 C 290.183 49.773,286.695 49.523,279.167 51.838 M446.536 223.790 C 436.789 230.358,432.939 237.745,433.687 248.442 C 434.486 259.874,439.009 266.749,448.871 271.524 C 456.014 274.981,457.009 275.000,634.693 275.000 C 732.945 275.000,813.333 275.323,813.333 275.717 C 813.333 278.075,646.666 552.500,645.234 552.500 C 644.270 552.500,627.324 528.543,607.577 499.261 C 587.830 469.980,569.673 443.935,567.228 441.383 C 550.271 423.684,519.678 438.720,522.067 463.580 C 522.884 472.088,531.040 484.594,673.574 695.893 C 730.589 780.414,724.620 772.140,731.667 776.433 C 751.870 788.744,778.857 767.587,771.160 745.471 C 769.954 742.003,748.881 709.322,724.333 672.844 C 699.784 636.367,680.080 605.528,680.547 604.313 C 681.013 603.098,728.090 524.568,785.161 429.802 C 883.965 265.742,888.961 257.062,889.612 248.333 C 890.400 237.753,886.537 230.353,876.797 223.790 L 871.174 220.000 661.667 220.000 L 452.160 220.000 446.536 223.790 " stroke="none" fill-rule="evenodd" fill="#000000"></path></svg>