<svg width="1000" height="1000" viewBox="0 0 1000 1000" version="1.1" id="svg5" sodipodi:docname="決.svg" inkscape:version="1.2.1 (9c6d41e410, 2022-07-14)" xmlns:inkscape="http://www.inkscape.org/namespaces/inkscape" xmlns:sodipodi="http://sodipodi.sourceforge.net/DTD/sodipodi-0.dtd" xmlns="http://www.w3.org/2000/svg" xmlns:svg="http://www.w3.org/2000/svg"><path d="M631.871 51.736 C 623.791 53.549,618.046 58.294,613.750 66.701 L 610.000 74.040 610.000 312.020 L 610.000 550.000 534.167 550.000 L 458.333 550.000 458.333 410.246 L 458.333 270.493 454.544 264.869 C 447.975 255.123,440.588 251.272,429.891 252.020 C 418.438 252.820,411.583 257.344,406.776 267.274 C 403.274 274.508,403.267 274.866,403.716 430.179 L 404.167 585.833 407.983 591.184 C 410.082 594.126,414.207 598.251,417.150 600.350 L 422.500 604.167 514.793 604.638 L 607.087 605.108 605.924 617.138 C 604.561 631.235,599.643 657.662,594.227 680.000 C 577.915 747.269,549.851 804.109,514.899 840.670 C 482.931 874.109,450.769 889.580,405.518 893.283 C 385.653 894.909,379.142 897.160,373.480 904.359 C 365.218 914.863,365.218 928.471,373.480 938.974 C 379.737 946.928,385.951 948.990,402.657 948.653 C 482.113 947.052,552.903 899.819,600.004 816.977 C 627.983 767.767,649.931 699.585,659.924 630.833 C 661.789 618.000,663.319 606.938,663.324 606.250 C 663.329 605.563,697.750 605.000,739.816 605.000 L 816.298 605.000 816.938 622.917 C 817.646 642.695,819.786 648.417,829.033 655.254 C 836.717 660.935,850.764 661.486,858.180 656.398 C 865.686 651.247,869.886 645.352,871.738 637.371 C 873.736 628.755,873.736 282.912,871.738 274.296 C 865.979 249.466,835.975 243.629,821.638 264.549 L 817.500 270.587 817.046 410.311 L 816.593 550.034 741.213 549.600 L 665.833 549.167 665.000 308.333 C 664.178 70.741,664.122 67.441,660.833 63.092 C 653.624 53.557,642.752 49.295,631.871 51.736 M172.140 113.489 C 169.193 115.377,165.068 119.677,162.974 123.044 L 159.167 129.167 159.167 500.000 L 159.167 870.833 163.001 876.999 C 168.500 885.843,176.067 890.000,186.667 890.000 C 197.267 890.000,204.834 885.843,210.333 876.999 L 214.167 870.833 214.167 500.000 L 214.167 129.167 210.333 123.001 C 208.224 119.609,204.010 115.297,200.969 113.417 C 193.443 108.766,179.460 108.801,172.140 113.489 " stroke="none" fill-rule="evenodd" fill="black"></path></svg>