<svg width="1000" height="1000" viewBox="0 0 1000 1000" version="1.1" id="svg5" xmlns="http://www.w3.org/2000/svg" xmlns:svg="http://www.w3.org/2000/svg"><path d="M400.614 45.147 C 393.591 47.183,383.799 58.324,382.379 65.895 C 380.103 78.026,383.406 83.363,413.035 115.424 C 428.324 131.968,448.487 153.828,457.843 164.002 L 474.852 182.500 278.676 183.333 C 61.114 184.258,77.565 183.342,67.698 195.069 C 57.040 207.734,60.718 226.996,75.501 235.941 C 80.730 239.104,88.791 239.176,491.667 239.653 C 717.625 239.920,905.729 239.680,909.675 239.120 C 919.288 237.755,930.848 226.968,932.568 217.756 C 934.762 206.003,928.443 192.890,917.770 187.050 C 912.893 184.382,898.984 184.105,731.177 183.333 L 549.855 182.500 489.012 116.667 C 449.580 74.000,425.760 49.514,421.323 47.083 C 414.098 43.127,409.173 42.666,400.614 45.147 M311.667 321.667 L 175.833 322.500 170.560 326.262 C 153.257 338.603,156.053 364.583,175.640 373.478 C 182.136 376.428,188.930 376.595,303.750 376.630 L 425.000 376.667 425.000 649.892 C 425.000 838.884,425.547 924.563,426.773 927.808 C 430.611 937.967,442.731 946.710,452.863 946.630 C 460.148 946.573,470.784 940.920,475.165 934.778 L 479.167 929.167 480.000 812.831 L 480.833 696.496 560.802 757.571 C 604.785 791.162,642.810 819.701,645.303 820.990 C 651.944 824.424,662.722 823.890,670.065 819.763 C 681.680 813.235,720.865 750.219,753.346 685.833 C 783.624 625.813,801.591 578.790,816.390 520.833 C 829.328 470.165,839.372 402.791,840.380 359.908 C 840.814 341.479,840.642 340.358,836.399 333.918 C 827.824 320.905,842.719 321.833,634.031 321.305 C 531.439 321.046,386.375 321.208,311.667 321.667 M783.701 383.750 C 783.396 387.646,781.653 402.833,779.827 417.500 C 766.356 525.699,731.964 620.824,667.522 728.125 C 658.645 742.906,650.509 754.969,649.441 754.931 C 648.374 754.893,617.125 731.629,580.000 703.233 C 535.829 669.447,510.340 651.016,506.250 649.904 C 499.719 648.128,487.798 650.154,485.805 653.379 C 485.254 654.270,483.723 655.000,482.402 655.000 C 480.330 655.000,480.000 635.893,480.000 515.833 L 480.000 376.667 632.127 376.667 L 784.255 376.667 783.701 383.750 " stroke="none" fill-rule="evenodd" fill="#000000"></path></svg>