<svg width="1000" height="1000" viewBox="0 0 1000 1000" version="1.1" id="svg5" xmlns="http://www.w3.org/2000/svg" xmlns:svg="http://www.w3.org/2000/svg"><path d="M490.000 106.114 C 483.042 108.976,477.491 114.776,473.664 123.182 C 467.404 136.932,442.672 183.602,417.058 230.000 C 332.362 383.418,243.211 519.678,165.164 615.000 C 140.834 644.715,128.468 658.327,94.759 692.500 C 77.578 709.917,62.729 726.278,61.761 728.858 C 56.896 741.820,63.030 757.135,75.503 763.173 C 90.755 770.557,97.744 767.433,124.450 741.289 C 237.952 630.179,357.738 455.641,496.797 198.750 C 499.899 193.021,502.825 188.341,503.301 188.351 C 503.777 188.361,590.107 317.894,695.146 476.202 C 823.640 669.862,888.148 765.673,892.310 769.041 C 897.424 773.180,900.007 774.048,907.223 774.048 C 923.346 774.048,935.000 762.309,935.000 746.068 C 935.000 737.565,950.929 762.066,685.232 361.881 C 599.801 233.207,527.979 124.645,525.627 120.632 C 519.537 110.240,512.989 106.097,501.776 105.543 C 496.674 105.291,491.375 105.548,490.000 106.114 M226.667 839.869 C 215.625 842.051,207.054 850.600,204.333 862.146 C 201.530 874.042,211.536 889.624,224.245 893.152 C 233.557 895.737,766.443 895.737,775.755 893.152 C 784.343 890.768,792.557 882.407,794.915 873.649 C 798.969 858.594,789.304 843.581,773.356 840.161 C 763.807 838.113,236.977 837.832,226.667 839.869 " stroke="none" fill-rule="evenodd" fill="black"></path></svg>