<svg width="1000" height="1000" viewBox="0 0 1000 1000" version="1.1" id="svg5" sodipodi:docname="激.svg" inkscape:version="1.2.1 (9c6d41e410, 2022-07-14)" xmlns:inkscape="http://www.inkscape.org/namespaces/inkscape" xmlns:sodipodi="http://sodipodi.sourceforge.net/DTD/sodipodi-0.dtd" xmlns="http://www.w3.org/2000/svg" xmlns:svg="http://www.w3.org/2000/svg"><path d="M163.981 74.841 C 153.651 81.141,148.532 92.485,150.731 104.207 C 152.216 112.123,162.008 122.808,169.747 124.958 C 173.744 126.068,266.993 126.651,441.348 126.657 C 589.981 126.663,706.472 127.300,705.974 128.106 C 704.105 131.130,654.406 163.768,622.500 182.925 C 585.567 205.099,526.323 237.840,520.280 239.416 C 517.531 240.133,482.261 227.432,399.848 196.048 C 335.749 171.638,281.036 151.667,278.265 151.667 C 265.972 151.667,252.916 162.672,250.875 174.753 C 249.557 182.557,253.719 193.543,260.276 199.563 C 262.654 201.746,301.486 217.455,353.924 237.446 C 403.196 256.230,444.782 272.312,446.338 273.184 C 449.614 275.018,439.637 279.906,386.667 302.418 C 291.653 342.798,201.753 372.207,126.451 387.544 C 104.396 392.036,102.755 392.684,96.356 399.440 C 87.695 408.583,86.273 418.024,91.827 429.497 C 96.049 438.219,106.489 445.000,115.694 445.000 C 123.964 445.000,169.697 435.092,200.833 426.555 C 292.579 401.399,391.931 363.293,496.913 312.993 L 521.327 301.296 710.247 373.294 C 880.602 438.218,899.924 445.223,906.870 444.578 C 932.997 442.154,940.676 407.333,917.919 394.472 C 914.022 392.270,838.271 362.879,749.583 329.160 C 660.896 295.442,588.345 267.399,588.360 266.843 C 588.374 266.288,596.160 261.543,605.661 256.299 C 674.053 218.550,748.705 168.439,792.500 130.881 C 811.723 114.396,815.395 108.750,814.531 97.014 C 813.808 87.203,810.275 81.264,801.684 75.417 L 796.174 71.667 482.670 71.673 C 177.762 71.679,169.024 71.766,163.981 74.841 M505.400 345.184 C 501.496 347.116,496.621 351.053,494.567 353.932 L 490.833 359.167 490.000 483.333 L 489.167 607.500 353.750 607.926 L 218.333 608.353 218.261 542.926 C 218.221 506.942,217.557 474.231,216.785 470.236 C 215.030 461.151,210.707 455.227,202.343 450.444 C 190.292 443.553,177.374 446.700,167.619 458.903 L 162.500 465.306 162.026 551.867 C 161.576 634.107,161.712 638.788,164.745 645.644 C 166.501 649.614,170.780 655.030,174.255 657.681 L 180.573 662.500 332.726 663.333 L 484.879 664.167 479.488 677.500 C 454.100 740.283,391.168 795.987,309.944 827.573 C 260.219 846.909,208.435 856.836,140.172 860.119 C 116.466 861.259,103.056 862.591,100.172 864.092 C 82.364 873.360,79.239 897.960,94.359 909.854 C 103.243 916.842,109.377 917.464,148.117 915.310 C 269.752 908.547,362.835 876.973,439.225 816.565 C 485.055 780.324,526.837 721.311,538.277 676.667 C 539.334 672.542,540.579 667.854,541.045 666.250 C 541.842 663.503,549.867 663.333,679.279 663.333 L 816.667 663.333 816.667 677.238 C 816.667 688.539,817.385 692.501,820.505 698.400 C 824.808 706.537,835.456 713.333,843.903 713.333 C 852.457 713.333,862.943 707.093,867.524 699.277 L 871.667 692.207 871.667 580.000 L 871.667 467.793 867.524 460.723 C 862.996 452.997,852.477 446.667,844.167 446.667 C 836.517 446.667,825.517 452.941,821.313 459.702 C 817.534 465.779,817.493 466.463,816.667 536.667 L 815.833 607.500 680.417 607.926 L 545.000 608.353 544.963 487.093 C 544.929 373.000,544.746 365.439,541.865 359.167 C 538.224 351.237,534.507 347.683,526.243 344.230 C 518.048 340.806,513.857 340.998,505.400 345.184 " stroke="none" fill-rule="evenodd" fill="black"></path></svg>