<svg width="1000" height="1000" viewBox="0 0 1000 1000" version="1.1" id="svg5" xmlns="http://www.w3.org/2000/svg" xmlns:svg="http://www.w3.org/2000/svg"><path d="M336.871 51.736 C 328.791 53.549,323.046 58.294,318.750 66.701 C 314.283 75.442,314.107 80.373,317.960 88.731 C 322.104 97.717,498.791 279.665,506.503 282.887 C 518.527 287.911,534.714 281.833,540.835 269.997 C 544.317 263.264,544.015 250.291,540.234 244.167 C 536.262 237.735,364.486 60.326,357.655 55.602 C 351.470 51.324,344.492 50.026,336.871 51.736 M740.050 149.228 C 730.576 153.464,728.583 156.240,713.767 185.833 C 686.270 240.754,654.474 295.366,615.759 354.167 C 571.845 420.864,493.372 525.833,487.424 525.833 C 486.192 525.833,430.687 480.833,364.079 425.833 C 297.471 370.833,240.242 324.150,236.904 322.092 C 219.542 311.391,196.667 324.602,196.667 345.329 C 196.667 349.823,197.779 355.651,199.139 358.280 C 200.549 361.006,255.180 407.255,326.223 465.865 C 394.759 522.406,451.062 569.277,451.341 570.023 C 452.618 573.435,370.954 662.477,331.114 701.111 C 235.865 793.477,156.678 853.454,82.625 889.317 C 63.517 898.571,59.109 901.418,55.542 906.808 C 43.732 924.654,56.651 948.718,78.041 948.718 C 92.189 948.718,143.230 922.125,190.000 890.386 C 275.933 832.070,376.363 740.301,467.208 637.083 C 481.931 620.354,494.622 606.667,495.408 606.667 C 496.195 606.667,588.379 682.229,700.261 774.583 C 812.144 866.938,905.875 943.899,908.554 945.609 C 915.394 949.976,928.164 949.740,935.658 945.108 C 949.339 936.653,953.141 918.947,943.940 906.538 C 941.315 902.997,848.042 825.034,736.667 733.286 C 625.292 641.538,533.456 565.448,532.588 564.196 C 531.439 562.538,533.738 558.599,541.044 549.709 C 609.123 466.873,688.773 348.680,739.647 255.000 C 768.101 202.605,777.117 183.057,776.939 174.151 C 776.564 155.516,756.423 141.908,740.050 149.228 " stroke="none" fill-rule="evenodd" fill="black"></path></svg>