<svg width="1000" height="1000" viewBox="0 0 1000 1000" version="1.1" id="svg5" sodipodi:docname="為.svg" inkscape:version="1.2.1 (9c6d41e410, 2022-07-14)" xmlns:inkscape="http://www.inkscape.org/namespaces/inkscape" xmlns:sodipodi="http://sodipodi.sourceforge.net/DTD/sodipodi-0.dtd" xmlns="http://www.w3.org/2000/svg" xmlns:svg="http://www.w3.org/2000/svg"><path d="M216.569 51.580 C 202.675 55.796,197.695 62.874,194.227 83.333 C 188.262 118.516,175.036 158.242,162.555 178.462 C 159.316 183.709,156.667 188.558,156.667 189.238 C 156.667 191.380,143.257 211.966,132.828 225.833 C 120.348 242.428,106.057 258.759,82.906 282.879 C 73.028 293.171,64.208 303.533,63.306 305.905 C 56.525 323.741,69.576 343.718,88.011 343.718 C 99.159 343.718,103.737 340.887,120.046 323.910 C 152.005 290.640,178.869 258.129,193.858 234.583 L 199.959 225.000 336.646 225.000 L 473.333 225.000 473.333 395.833 L 473.333 566.667 347.500 566.667 L 221.667 566.667 221.667 436.775 C 221.667 348.816,221.093 305.369,219.889 302.192 C 215.946 291.784,205.547 284.722,194.167 284.722 C 185.107 284.722,178.089 288.358,172.169 296.119 L 167.500 302.241 167.500 453.333 L 167.500 604.426 172.169 610.548 C 181.907 623.315,170.992 622.445,327.917 622.971 C 436.888 623.336,468.332 623.896,468.329 625.471 C 468.326 626.587,466.138 636.149,463.466 646.720 C 433.723 764.370,354.319 849.461,245.854 879.918 C 216.278 888.223,195.528 891.379,158.314 893.234 C 135.516 894.371,131.162 895.040,126.063 898.191 C 110.564 907.771,107.975 928.308,120.667 941.000 C 128.917 949.250,135.571 950.305,166.929 948.332 C 222.449 944.838,265.260 934.935,310.259 915.175 C 416.208 868.651,495.826 766.139,520.742 644.167 C 522.240 636.833,523.825 629.146,524.264 627.083 L 525.064 623.333 652.532 623.333 L 780.000 623.333 780.000 637.807 C 780.000 662.032,788.167 673.361,806.558 674.647 C 814.215 675.182,816.824 674.615,821.513 671.398 C 833.538 663.147,834.076 661.407,835.000 627.803 C 835.458 611.136,835.458 530.992,835.000 449.704 C 834.177 303.686,834.125 301.853,830.730 297.307 C 823.281 287.333,812.667 282.859,801.871 285.142 C 793.843 286.840,788.066 291.588,783.750 300.034 L 780.000 307.373 780.000 437.020 L 780.000 566.667 654.159 566.667 L 528.318 566.667 528.742 396.250 L 529.167 225.833 723.628 225.000 C 917.686 224.168,918.100 224.159,922.795 220.680 C 939.346 208.416,939.346 186.584,922.795 174.320 L 918.089 170.833 573.211 170.405 C 383.528 170.169,228.333 169.721,228.333 169.408 C 228.333 169.096,231.258 159.913,234.833 149.003 C 247.166 111.361,252.704 76.690,247.865 67.419 C 243.998 60.011,236.616 53.857,229.167 51.831 C 221.711 49.804,222.379 49.817,216.569 51.580 " stroke="none" fill-rule="evenodd" fill="black"></path></svg>