<svg width="1000" height="1000" viewBox="0 0 1000 1000" version="1.1" id="svg5" sodipodi:docname="煙.svg" inkscape:version="1.2.1 (9c6d41e410, 2022-07-14)" xmlns:inkscape="http://www.inkscape.org/namespaces/inkscape" xmlns:sodipodi="http://sodipodi.sourceforge.net/DTD/sodipodi-0.dtd" xmlns="http://www.w3.org/2000/svg" xmlns:svg="http://www.w3.org/2000/svg"><path d="M370.561 130.857 C 366.051 133.561,362.406 137.530,360.145 142.201 C 356.094 150.569,355.776 156.309,358.945 163.893 C 360.202 166.902,386.407 195.454,417.406 227.590 C 493.914 306.905,498.388 311.213,505.669 312.579 C 514.967 314.323,522.913 312.038,530.087 305.556 C 540.987 295.709,542.783 281.661,534.564 270.553 C 532.512 267.781,501.368 235.086,465.355 197.898 C 421.921 153.047,398.130 129.674,394.690 128.475 C 386.313 125.555,378.045 126.371,370.561 130.857 M676.866 198.571 C 666.596 201.555,663.832 204.918,649.951 231.315 C 621.380 285.647,602.227 318.271,574.404 360.000 C 545.085 403.973,493.317 473.333,489.817 473.333 C 488.882 473.333,449.728 441.603,402.809 402.820 C 355.889 364.038,315.178 330.607,312.339 328.529 C 301.513 320.604,285.758 322.401,276.820 332.580 C 266.419 344.426,266.883 358.536,278.053 370.065 C 281.416 373.536,321.667 407.229,367.500 444.938 C 413.333 482.648,451.535 514.518,452.393 515.761 C 454.714 519.124,431.480 545.267,382.552 594.348 C 307.359 669.776,249.041 715.612,193.805 742.699 C 181.475 748.745,170.288 755.394,168.394 757.801 C 154.088 775.989,166.774 802.051,189.934 802.051 C 207.677 802.051,268.336 766.689,317.216 727.850 C 365.820 689.231,430.456 627.651,475.028 577.500 C 486.434 564.667,496.663 554.167,497.759 554.167 C 498.856 554.167,565.528 608.542,645.919 675.000 C 726.310 741.458,794.262 797.233,796.923 798.943 C 799.818 800.804,804.972 802.102,809.759 802.174 C 831.803 802.506,845.258 777.464,832.404 760.029 C 829.707 756.371,761.875 699.275,681.667 633.150 C 601.458 567.025,535.156 512.300,534.328 511.539 C 532.569 509.923,531.354 511.693,558.427 476.427 C 611.485 407.311,653.015 343.360,688.717 275.797 C 708.826 237.741,712.451 228.870,711.016 221.221 C 707.980 205.040,691.719 194.254,676.866 198.571 M115.833 362.260 C 109.660 365.118,104.124 370.999,101.778 377.192 C 100.548 380.438,100.000 458.107,100.000 629.329 C 100.000 834.546,100.388 877.702,102.273 882.215 C 105.172 889.152,113.357 896.053,121.302 898.260 C 125.480 899.421,249.708 899.984,502.564 899.991 L 877.627 900.000 885.050 896.250 C 889.133 894.188,894.174 889.941,896.252 886.813 L 900.032 881.127 899.599 629.019 C 899.167 377.325,899.161 376.903,895.730 372.308 C 889.044 363.352,883.944 360.833,872.500 360.833 C 860.176 360.833,854.716 363.938,848.777 374.323 L 845.055 380.833 845.027 612.083 L 845.000 843.333 500.000 843.333 L 155.000 843.333 154.973 612.083 L 154.945 380.833 151.223 374.323 C 149.175 370.743,145.469 366.307,142.986 364.466 C 137.282 360.237,122.754 359.057,115.833 362.260 " stroke="none" fill-rule="evenodd" fill="#000000"></path></svg>