<svg width="1000" height="1000" viewBox="0 0 1000 1000" version="1.1" id="svg5" xmlns="http://www.w3.org/2000/svg" xmlns:svg="http://www.w3.org/2000/svg"><path d="M394.830 65.419 C 386.529 70.919,380.991 83.021,382.419 92.540 C 383.749 101.410,382.727 100.168,435.313 156.823 C 456.682 179.847,474.413 199.343,474.713 200.149 C 475.024 200.982,411.632 201.805,327.752 202.057 C 181.716 202.496,180.197 202.534,175.641 205.936 C 158.596 218.664,158.596 239.669,175.641 252.397 C 180.185 255.790,182.054 255.844,324.705 256.667 L 469.167 257.500 469.599 337.917 L 470.032 418.333 311.266 418.370 C 160.777 418.405,152.152 418.566,145.833 421.468 C 129.238 429.089,124.173 446.554,134.130 461.823 C 142.098 474.041,131.346 473.333,309.002 473.333 C 467.396 473.333,468.333 473.353,468.333 476.678 C 468.333 492.314,458.434 536.531,448.560 565.000 C 439.450 591.267,439.899 590.318,437.089 589.240 C 435.725 588.716,400.760 567.391,359.388 541.849 C 318.016 516.308,282.412 494.506,280.267 493.400 C 274.912 490.639,263.032 490.875,257.265 493.857 C 240.390 502.583,236.709 525.476,250.202 537.783 C 252.383 539.772,289.042 562.916,331.667 589.214 C 374.292 615.512,410.250 638.058,411.575 639.316 C 414.540 642.131,412.374 646.364,392.467 676.667 C 314.553 795.266,189.208 884.780,92.500 890.888 C 68.611 892.397,67.055 892.858,59.148 900.765 C 53.500 906.412,51.673 909.651,50.782 915.598 C 49.156 926.437,54.417 936.874,64.477 942.770 C 71.769 947.043,72.504 947.134,92.346 946.196 C 211.309 940.575,356.855 836.796,447.500 692.960 C 455.169 680.790,462.210 671.010,463.147 671.225 C 465.825 671.841,565.499 733.465,568.684 736.474 C 571.348 738.991,570.473 740.360,555.237 757.510 C 546.273 767.599,530.026 784.099,519.132 794.177 C 479.310 831.016,479.999 830.235,480.006 838.483 C 480.023 857.841,502.719 870.588,521.992 862.063 C 535.172 856.233,580.873 813.751,610.878 779.437 L 620.843 768.042 764.172 856.790 C 843.002 905.602,910.735 946.647,914.689 948.001 C 939.788 956.601,960.910 922.070,941.948 903.435 C 939.502 901.031,874.500 860.188,797.500 812.673 C 720.500 765.158,656.568 725.410,655.429 724.344 C 653.794 722.814,654.301 721.016,657.837 715.813 C 671.939 695.060,691.901 655.456,704.243 623.748 C 714.019 598.628,714.403 593.507,707.152 584.891 C 701.533 578.212,691.248 573.413,682.500 573.386 C 674.214 573.361,659.878 579.859,656.484 585.179 C 655.084 587.372,650.301 598.542,645.855 610.000 C 637.508 631.509,617.606 672.075,609.228 684.654 C 606.608 688.589,603.540 691.589,602.412 691.321 C 601.284 691.053,574.778 675.083,543.510 655.833 C 502.991 630.888,486.869 620.115,487.388 618.333 C 487.788 616.958,491.521 607.101,495.684 596.427 C 509.037 562.183,518.145 526.104,522.242 491.218 L 524.245 474.167 686.167 473.333 C 847.205 472.505,848.116 472.481,852.795 469.013 C 855.383 467.096,859.188 463.047,861.250 460.017 C 869.530 447.852,863.625 428.666,849.497 421.827 C 842.326 418.355,841.298 418.333,683.640 418.333 L 525.000 418.333 525.000 337.500 L 525.000 256.667 666.974 256.667 C 807.710 256.667,809.011 256.636,816.164 253.173 C 825.041 248.876,831.679 238.516,831.639 229.020 C 831.602 220.133,825.528 210.044,817.466 205.478 L 810.833 201.722 681.322 201.694 L 551.811 201.667 489.807 134.814 C 455.705 98.045,425.485 66.548,422.651 64.820 C 415.263 60.315,402.106 60.598,394.830 65.419 " stroke="none" fill-rule="evenodd" fill="#000000"></path></svg>