<svg width="1000" height="1000" viewBox="0 0 1000 1000" version="1.1" id="svg5" xml:space="preserve" sodipodi:docname="牌.svg" inkscape:version="1.2.1 (9c6d41e410, 2022-07-14)" xmlns:inkscape="http://www.inkscape.org/namespaces/inkscape" xmlns:sodipodi="http://sodipodi.sourceforge.net/DTD/sodipodi-0.dtd" xmlns="http://www.w3.org/2000/svg" xmlns:svg="http://www.w3.org/2000/svg"><path d="M460.578 48.217 C 455.076 51.572,178.133 351.750,172.724 360.221 C 166.172 370.484,170.221 388.727,180.555 395.498 C 190.345 401.913,194.198 401.761,239.470 393.174 C 263.137 388.685,283.807 385.009,285.404 385.006 C 288.068 385.000,288.233 386.892,287.402 407.917 C 286.412 432.977,283.874 476.731,282.230 497.083 L 281.187 510.000 183.356 510.000 L 85.524 510.000 78.267 513.838 C 63.378 521.711,59.019 541.011,69.135 554.273 C 77.514 565.259,74.856 565.000,179.113 565.000 C 233.885 565.000,273.333 565.628,273.333 566.501 C 273.333 571.510,265.804 610.562,260.983 630.558 C 239.975 717.691,206.406 782.755,158.848 828.515 C 139.364 847.263,123.206 859.082,91.667 877.656 C 59.886 896.372,52.427 902.961,50.809 913.751 C 49.872 919.998,50.364 923.033,53.297 929.091 C 58.611 940.069,65.190 944.167,77.500 944.167 C 86.543 944.167,89.015 943.303,103.333 935.137 C 126.228 922.081,164.101 897.041,176.667 886.653 C 191.904 874.056,216.398 848.791,228.923 832.751 C 267.706 783.084,294.333 724.097,315.040 641.976 C 316.037 638.020,317.448 635.020,318.174 635.309 C 318.901 635.597,354.523 668.833,397.334 709.167 C 440.145 749.500,478.321 784.246,482.169 786.381 C 495.126 793.567,511.565 787.969,518.358 774.057 C 522.392 765.795,522.489 759.471,518.706 751.275 C 516.720 746.972,487.272 718.222,423.333 658.161 C 372.458 610.371,330.597 569.883,330.308 568.187 C 329.804 565.232,332.770 565.084,401.272 564.635 L 472.763 564.167 478.733 559.612 C 488.511 552.152,492.173 538.158,487.463 526.250 C 486.379 523.508,489.596 523.333,541.211 523.333 C 571.406 523.333,596.494 523.716,596.962 524.185 C 598.836 526.058,588.803 589.066,581.557 620.929 C 560.672 712.770,527.636 778.286,477.331 827.631 C 459.422 845.197,440.927 858.738,408.806 877.800 C 375.506 897.562,374.133 898.628,370.832 907.272 C 365.696 920.720,371.356 934.323,385.013 941.354 C 395.452 946.728,401.794 945.484,422.123 934.075 C 500.211 890.254,548.918 842.315,585.440 773.333 C 601.923 742.202,619.025 697.081,629.187 657.917 C 631.744 648.063,634.353 640.000,634.984 640.000 C 635.616 640.000,696.762 707.594,770.864 790.210 C 865.391 895.595,907.232 941.103,911.078 942.710 C 924.545 948.336,939.792 942.851,946.250 930.057 C 950.554 921.530,950.957 915.488,947.731 907.863 C 946.483 904.913,878.608 827.994,796.897 736.932 C 677.625 604.007,648.344 570.489,648.386 566.932 C 648.415 564.494,649.516 554.625,650.833 545.000 C 652.150 535.375,653.251 526.563,653.281 525.417 C 653.322 523.778,671.506 523.333,738.498 523.333 C 813.994 523.333,824.317 523.023,829.426 520.599 C 849.491 511.077,849.920 482.635,830.155 472.208 L 822.809 468.333 740.334 468.333 L 657.858 468.333 658.956 457.917 C 659.560 452.188,660.535 426.793,661.123 401.485 C 662.163 356.715,662.095 355.273,658.621 348.152 C 648.489 327.388,619.822 327.002,610.133 347.500 C 607.404 353.272,606.820 360.091,605.780 398.333 C 605.120 422.625,604.111 448.125,603.540 455.000 L 602.500 467.500 520.000 468.333 C 459.771 468.942,436.549 469.712,433.979 471.186 C 427.817 474.720,420.202 484.729,419.065 490.787 C 418.036 496.275,418.598 501.073,421.005 507.345 C 421.920 509.731,417.689 510.000,379.181 510.000 L 336.339 510.000 337.341 500.417 C 339.366 481.045,341.572 443.255,342.685 408.869 C 343.786 374.846,343.954 373.540,347.330 372.719 C 357.113 370.341,700.706 305.000,703.428 305.000 C 705.251 305.000,726.352 322.956,752.887 347.089 C 809.128 398.236,808.655 397.843,816.378 399.922 C 837.160 405.518,856.143 382.930,847.681 362.675 C 845.717 357.975,778.612 294.859,725.227 247.500 C 720.060 242.917,694.458 219.738,668.333 195.992 C 642.208 172.246,618.420 151.808,615.470 150.575 C 608.218 147.544,602.152 147.808,594.002 151.509 C 585.463 155.387,579.797 163.168,578.750 172.455 C 577.172 186.457,579.162 189.101,617.888 224.464 C 637.679 242.535,653.188 257.536,652.352 257.799 C 647.636 259.285,275.992 329.881,275.497 329.385 C 275.168 329.057,324.519 274.873,385.165 208.977 C 459.940 127.731,496.485 86.832,498.703 81.913 C 502.470 73.557,501.738 65.782,496.359 57.032 C 489.590 46.020,471.492 41.562,460.578 48.217 " stroke="none" fill-rule="evenodd" fill="black"></path></svg>