<svg width="1000" height="1000" viewBox="0 0 1000 1000" version="1.1" id="svg5" inkscape:version="1.2.1 (9c6d41e410, 2022-07-14)" sodipodi:docname="牛.svg" xmlns:inkscape="http://www.inkscape.org/namespaces/inkscape" xmlns:sodipodi="http://sodipodi.sourceforge.net/DTD/sodipodi-0.dtd" xmlns="http://www.w3.org/2000/svg" xmlns:svg="http://www.w3.org/2000/svg"><path d="M318.792 51.660 C 311.422 53.354,305.426 57.552,301.755 63.588 C 300.058 66.379,295.885 80.400,292.481 94.748 C 268.691 195.022,236.397 265.285,183.974 330.833 C 164.691 354.943,110.170 409.364,80.785 433.832 C 67.926 444.540,55.969 455.731,54.215 458.700 C 47.167 470.632,51.914 487.427,64.539 495.230 C 71.221 499.360,83.541 500.123,89.763 496.794 C 101.087 490.733,167.164 431.462,189.870 406.998 L 204.259 391.495 283.099 453.607 C 358.410 512.938,361.898 515.928,361.008 520.378 C 360.495 522.940,356.203 535.341,351.469 547.935 C 304.607 672.615,234.574 776.607,130.017 876.769 C 113.331 892.754,98.626 907.859,97.339 910.334 C 94.302 916.178,94.350 927.243,97.440 933.218 C 103.338 944.624,117.491 951.344,128.949 948.181 C 143.542 944.151,217.927 869.633,261.059 815.833 C 320.759 741.368,366.578 662.092,399.865 575.669 C 404.487 563.671,408.988 554.372,410.049 554.631 C 411.096 554.886,471.512 602.041,544.309 659.420 C 636.417 732.020,676.667 764.706,676.667 766.904 C 676.667 773.028,641.206 867.827,639.162 867.167 C 638.595 866.984,611.364 834.381,578.649 794.716 C 545.934 755.051,516.618 720.889,513.504 718.799 C 499.236 709.228,478.184 718.222,473.512 735.886 C 471.021 745.302,473.574 753.109,482.910 764.631 C 532.223 825.483,629.509 942.360,632.455 944.291 C 649.554 955.494,666.786 947.479,676.591 923.762 C 690.706 889.617,706.249 850.143,714.491 827.510 C 719.496 813.765,723.823 802.288,724.107 802.004 C 724.391 801.720,763.697 832.286,811.455 869.929 C 859.212 907.571,901.672 940.755,905.810 943.672 C 911.793 947.890,915.007 948.974,921.517 948.974 C 941.543 948.974,954.505 927.676,945.732 909.188 C 943.836 905.193,916.019 882.350,843.232 825.017 C 788.288 781.738,743.333 745.680,743.333 744.886 C 743.333 744.093,747.130 730.857,751.770 715.472 C 791.496 583.755,814.562 442.879,821.771 287.946 C 823.771 244.942,823.338 241.066,815.599 232.719 C 806.380 222.777,821.763 223.333,555.887 223.333 C 421.566 223.333,311.667 223.029,311.667 222.658 C 311.667 222.286,316.883 206.348,323.258 187.241 C 336.330 148.062,351.670 89.132,351.660 78.129 C 351.646 61.004,335.323 47.859,318.792 51.660 M416.667 282.920 C 416.667 289.573,406.026 349.628,399.170 381.667 C 390.258 423.315,381.100 457.500,378.854 457.500 C 376.826 457.500,240.000 350.444,240.000 348.858 C 240.000 348.375,242.141 345.247,244.759 341.907 C 251.375 333.463,269.935 304.913,278.231 290.417 L 285.147 278.333 350.907 278.333 L 416.667 278.333 416.667 282.920 M766.652 285.417 C 766.631 295.999,761.983 360.531,759.120 390.000 C 752.012 463.172,739.422 539.895,723.198 608.918 C 714.729 644.949,697.983 705.906,696.012 707.877 C 695.416 708.473,439.401 507.622,430.575 499.634 L 426.983 496.383 430.257 485.275 C 445.390 433.923,464.181 345.246,472.431 286.250 L 473.538 278.333 620.102 278.333 L 766.667 278.333 766.652 285.417 " stroke="none" fill-rule="evenodd" fill="black"></path></svg>