<svg width="1000" height="1000" viewBox="0 0 1000 1000" version="1.1" id="svg5" sodipodi:docname="物.svg" inkscape:version="1.2.1 (9c6d41e410, 2022-07-14)" xmlns:inkscape="http://www.inkscape.org/namespaces/inkscape" xmlns:sodipodi="http://sodipodi.sourceforge.net/DTD/sodipodi-0.dtd" xmlns="http://www.w3.org/2000/svg" xmlns:svg="http://www.w3.org/2000/svg"><path d="M117.417 127.344 C 106.628 132.044,99.104 146.137,101.563 157.040 C 103.422 165.282,106.042 169.354,112.809 174.516 L 118.907 179.167 466.073 180.000 L 813.240 180.833 644.837 389.167 C 552.216 503.750,475.082 598.884,473.428 600.576 C 470.517 603.554,467.905 600.860,391.844 516.410 C 348.627 468.426,310.363 427.019,306.813 424.393 C 294.207 415.071,274.568 419.665,267.349 433.625 C 263.495 441.077,263.615 453.346,267.602 459.558 C 269.379 462.327,307.652 505.372,352.652 555.213 C 397.652 605.054,438.527 650.413,443.485 656.009 C 448.443 661.606,494.247 712.323,545.271 768.712 C 613.815 844.465,639.450 871.730,643.436 873.119 C 660.167 878.952,677.113 869.463,680.755 852.223 C 683.396 839.726,682.921 839.115,594.216 740.812 C 547.905 689.491,510.011 646.534,510.007 645.353 C 510.003 644.172,590.781 543.297,689.513 421.186 C 788.246 299.075,875.205 191.523,882.756 182.180 C 890.951 172.042,897.181 162.614,898.209 158.795 C 901.511 146.532,894.365 132.527,882.137 127.295 C 874.287 123.936,125.130 123.985,117.417 127.344 " stroke="none" fill-rule="evenodd" fill="black"></path></svg>