<svg width="1000" height="1000" viewBox="0 0 1000 1000" version="1.1" id="svg5" sodipodi:docname="犬.svg" inkscape:version="1.3 (0e150ed6c4, 2023-07-21)" xmlns:inkscape="http://www.inkscape.org/namespaces/inkscape" xmlns:sodipodi="http://sodipodi.sourceforge.net/DTD/sodipodi-0.dtd" xmlns="http://www.w3.org/2000/svg" xmlns:svg="http://www.w3.org/2000/svg"><path d="M218.582 62.827 C 208.855 67.620,205.494 75.018,202.487 98.256 C 196.944 141.096,188.668 173.554,174.174 209.308 C 158.772 247.300,138.691 282.471,108.597 324.167 C 101.981 333.333,95.732 343.609,94.711 347.002 C 90.642 360.521,100.123 375.994,114.916 379.977 C 129.968 384.031,137.472 378.713,157.813 349.582 C 179.858 318.011,194.529 294.334,207.383 269.584 L 217.986 249.167 511.077 248.333 C 736.292 247.693,804.982 247.032,807.688 245.480 C 813.875 241.932,821.467 231.928,822.614 225.810 C 824.140 217.678,822.428 210.479,817.400 203.887 C 808.697 192.477,832.685 193.333,521.749 193.333 C 297.450 193.333,240.004 192.909,240.021 191.250 C 240.032 190.104,241.912 182.417,244.199 174.167 C 249.630 154.574,254.342 129.967,257.413 105.162 C 260.042 83.924,259.428 78.868,253.111 69.789 C 246.696 60.567,230.001 57.202,218.582 62.827 M275.867 323.811 C 272.148 325.918,267.584 330.482,265.478 334.201 L 261.722 340.833 261.694 437.917 L 261.667 535.000 165.108 535.000 C 101.075 535.000,66.970 535.596,63.858 536.769 C 56.693 539.470,48.463 548.328,46.564 555.383 C 44.193 564.187,46.197 572.682,52.279 579.610 C 61.657 590.291,58.504 590.000,164.946 590.000 L 261.667 590.000 261.660 607.917 C 261.633 678.354,249.644 739.062,226.430 786.305 C 202.517 834.971,169.040 865.765,120.000 884.203 C 105.481 889.662,97.893 896.353,94.903 906.333 C 91.286 918.404,97.362 931.786,108.957 937.289 C 121.059 943.032,134.289 939.887,167.500 923.375 C 222.578 895.990,264.369 847.135,288.911 781.442 C 306.731 733.745,316.667 673.085,316.667 611.989 L 316.667 590.000 395.794 590.000 L 474.922 590.000 475.378 755.540 L 475.833 921.079 479.971 927.117 C 486.213 936.226,495.067 940.545,505.687 939.665 C 515.371 938.862,520.928 935.490,526.908 926.790 L 530.833 921.079 531.289 755.540 L 531.745 590.000 610.849 590.000 L 689.953 590.000 690.393 756.545 C 690.832 922.579,690.844 923.104,694.320 927.795 C 700.451 936.069,707.917 940.000,717.500 940.000 C 727.083 940.000,734.549 936.069,740.680 927.795 C 744.156 923.104,744.168 922.579,744.607 756.545 L 745.047 590.000 838.411 590.000 C 941.176 590.000,938.363 590.267,947.721 579.610 C 953.803 572.682,955.807 564.187,953.436 555.383 C 951.537 548.328,943.307 539.470,936.142 536.769 C 933.037 535.598,899.908 535.000,838.225 535.000 L 745.000 535.000 745.000 438.267 C 745.000 345.192,744.875 341.290,741.704 335.074 C 731.826 315.711,704.565 315.214,693.811 334.201 L 690.055 340.833 690.027 437.917 L 690.000 535.000 610.833 535.000 L 531.667 535.000 531.657 441.250 C 531.651 377.992,531.050 345.344,529.808 340.871 C 524.552 321.939,501.128 313.920,486.656 326.098 C 475.385 335.582,475.884 330.651,475.353 437.917 L 474.873 535.000 395.770 535.000 L 316.667 535.000 316.639 437.917 L 316.612 340.833 312.855 334.201 C 308.238 326.049,298.201 320.055,289.167 320.055 C 285.323 320.055,279.692 321.645,275.867 323.811 " stroke="none" fill-rule="evenodd" fill="black"></path></svg>