<svg width="1000" height="1000" viewBox="0 0 1000 1000" version="1.1" id="svg5" sodipodi:docname="猫.svg" inkscape:version="1.2.1 (9c6d41e410, 2022-07-14)" xmlns:inkscape="http://www.inkscape.org/namespaces/inkscape" xmlns:sodipodi="http://sodipodi.sourceforge.net/DTD/sodipodi-0.dtd" xmlns="http://www.w3.org/2000/svg" xmlns:svg="http://www.w3.org/2000/svg"><path d="M490.833 64.117 C 483.020 66.945,479.377 70.959,461.293 96.667 C 432.509 137.585,368.516 217.814,325.031 267.500 C 241.027 363.483,158.066 440.865,86.153 490.314 C 63.235 506.073,59.100 511.713,60.417 525.418 C 61.756 539.356,71.161 548.465,85.348 549.564 C 93.171 550.171,95.284 549.567,104.068 544.221 C 129.123 528.969,173.525 494.768,208.565 463.730 C 219.678 453.887,232.857 442.271,237.853 437.917 L 246.937 430.000 298.647 430.000 C 342.329 430.000,350.217 430.363,349.460 432.338 C 348.966 433.623,345.901 444.311,342.648 456.088 C 320.107 537.690,288.024 608.335,251.935 655.833 C 247.756 661.333,236.296 673.780,226.469 683.492 C 206.822 702.909,203.312 709.452,206.448 720.811 C 210.174 734.308,220.103 741.667,234.585 741.667 C 244.644 741.667,249.839 738.195,269.748 718.165 C 309.587 678.084,339.891 627.175,370.343 549.167 L 377.500 530.833 416.250 530.386 C 443.319 530.073,455.000 530.485,455.000 531.751 C 455.000 532.747,453.078 541.199,450.729 550.531 C 434.198 616.213,409.158 674.098,375.260 724.992 C 358.425 750.268,342.161 769.754,317.293 794.444 C 295.519 816.062,293.438 819.729,295.551 832.748 C 298.348 849.983,319.174 860.188,334.679 851.921 C 348.092 844.770,393.718 795.108,415.301 764.167 C 453.966 708.740,486.935 634.727,504.257 564.467 C 507.462 551.469,510.655 538.583,511.354 535.833 L 512.623 530.833 558.812 530.390 C 591.660 530.075,605.000 530.479,605.000 531.787 C 605.000 532.799,602.405 544.999,599.232 558.897 C 578.149 651.273,542.968 730.684,496.848 790.000 C 490.790 797.792,477.583 812.462,467.500 822.601 C 444.809 845.418,444.983 845.200,443.233 852.869 C 438.834 872.150,458.435 890.659,477.274 885.015 C 481.617 883.714,488.412 878.713,497.305 870.273 C 555.400 815.139,595.637 749.456,628.672 655.833 C 642.137 617.671,648.220 594.661,660.947 533.750 L 661.730 530.000 698.365 530.000 C 732.615 530.000,735.000 530.197,735.000 533.018 C 735.000 538.891,724.804 596.210,718.935 623.333 C 700.936 706.514,678.005 774.081,648.515 830.833 C 634.398 858.002,617.662 885.000,614.937 885.000 C 613.997 885.000,597.250 876.750,577.722 866.667 C 539.379 846.868,536.000 845.918,524.276 851.642 C 509.454 858.879,504.421 877.306,513.538 890.955 C 517.363 896.680,523.833 900.606,565.205 922.299 C 629.379 955.948,631.740 956.095,652.874 927.771 C 706.322 856.142,746.470 757.900,773.201 633.333 C 786.106 573.196,795.681 507.908,793.205 496.933 C 791.337 488.650,786.769 483.078,778.299 478.750 L 770.960 475.000 582.980 475.000 C 479.591 475.000,395.000 474.700,395.000 474.333 C 395.000 473.967,397.514 464.404,400.587 453.083 C 409.006 422.063,412.273 404.586,410.960 397.589 C 409.450 389.541,399.726 378.877,391.919 376.709 C 388.547 375.772,367.022 375.014,343.647 375.009 L 301.460 375.000 322.714 352.107 C 370.300 300.849,419.354 242.444,471.464 175.000 C 488.109 153.458,502.417 135.833,503.261 135.833 C 504.105 135.833,587.761 225.083,689.162 334.167 C 790.563 443.250,878.573 537.492,884.740 543.594 C 894.380 553.132,897.046 554.853,903.746 555.857 C 913.329 557.294,924.687 552.462,930.321 544.549 C 935.472 537.315,936.328 522.627,931.994 515.833 C 930.240 513.083,841.213 416.715,734.158 301.681 C 627.102 186.647,534.559 87.010,528.506 80.266 C 513.169 63.178,504.132 59.304,490.833 64.117 " stroke="none" fill-rule="evenodd" fill="black"></path></svg>