<svg width="1000" height="1000" viewBox="0 0 1000 1000" version="1.1" id="svg5" sodipodi:docname="獣.svg" inkscape:version="1.2.1 (9c6d41e410, 2022-07-14)" xmlns:inkscape="http://www.inkscape.org/namespaces/inkscape" xmlns:sodipodi="http://sodipodi.sourceforge.net/DTD/sodipodi-0.dtd" xmlns="http://www.w3.org/2000/svg" xmlns:svg="http://www.w3.org/2000/svg"><path d="M280.798 51.532 C 265.737 55.193,260.717 63.477,257.419 90.110 C 244.032 198.244,210.357 322.158,170.984 408.163 C 143.341 468.545,105.620 523.320,69.365 555.726 C 54.333 569.161,51.667 573.522,51.667 584.671 C 51.667 599.411,63.736 611.667,78.254 611.667 C 89.206 611.667,96.886 606.189,121.743 580.650 C 157.614 543.795,183.583 505.981,211.465 450.000 C 235.533 401.679,258.608 340.537,274.210 283.750 L 278.903 266.667 358.618 266.667 C 437.320 266.667,438.333 266.709,438.333 270.012 C 438.333 271.852,436.056 283.665,433.272 296.262 C 406.640 416.772,360.072 529.751,299.487 620.833 C 273.473 659.943,250.583 687.820,213.953 725.000 C 198.149 741.042,184.420 756.278,183.443 758.858 C 182.466 761.439,181.667 766.164,181.667 769.358 C 181.667 785.555,199.826 799.207,215.583 794.856 C 230.472 790.745,281.985 737.366,320.794 685.833 C 381.870 604.734,432.958 500.236,466.647 387.500 C 476.608 354.168,490.692 295.983,494.181 273.750 L 495.293 266.667 589.895 266.667 L 684.498 266.667 681.538 283.750 C 661.852 397.359,621.233 521.370,574.692 609.953 C 538.595 678.659,503.726 727.402,454.833 777.500 C 440.519 792.167,427.951 805.805,426.904 807.807 C 425.857 809.809,425.000 815.134,425.000 819.640 C 425.000 830.222,431.628 839.955,441.531 843.918 C 457.028 850.118,462.759 847.232,491.220 818.891 C 571.919 738.536,634.037 634.408,681.955 499.167 C 704.860 434.517,728.315 343.293,738.410 279.583 L 740.457 266.667 814.625 266.667 L 888.794 266.667 887.679 277.917 C 885.920 295.674,875.356 362.852,869.006 396.667 C 832.622 590.400,775.622 749.900,703.014 861.147 C 695.722 872.320,688.696 882.341,687.401 883.416 C 685.515 884.981,673.172 878.964,625.484 853.238 C 559.791 817.798,556.536 816.598,543.795 823.098 C 526.031 832.161,524.108 856.685,540.219 868.724 C 543.307 871.032,577.345 889.888,615.860 910.627 C 691.856 951.548,692.793 951.910,706.232 945.533 C 719.855 939.068,767.496 866.600,797.366 806.904 C 866.451 668.836,922.281 463.983,944.951 265.383 C 948.397 235.186,947.754 229.108,940.261 221.101 C 930.705 210.889,955.688 211.607,609.810 211.602 L 292.904 211.597 293.871 205.382 C 294.402 201.963,297.151 187.167,299.980 172.500 C 306.869 136.774,313.462 93.127,313.826 80.833 C 314.059 72.975,313.306 69.513,310.310 64.667 C 303.920 54.330,291.688 48.886,280.798 51.532 " stroke="none" fill-rule="evenodd" fill="black"></path></svg>