<svg width="1000" height="1000" viewBox="0 0 1000 1000" version="1.1" id="svg5" xmlns="http://www.w3.org/2000/svg" xmlns:svg="http://www.w3.org/2000/svg"><path d="M247.500 54.768 C 239.114 59.947,237.034 63.519,229.353 85.916 C 225.282 97.787,216.332 122.125,209.464 140.000 C 161.138 265.780,113.114 366.043,71.899 427.200 C 50.600 458.807,51.025 457.995,51.157 466.771 C 51.378 481.406,61.178 491.771,75.953 492.996 C 92.531 494.371,98.995 488.033,127.979 441.985 C 166.187 381.283,211.688 285.739,254.996 175.272 C 259.789 163.046,264.289 153.671,264.996 154.438 C 265.703 155.206,300.230 229.708,341.723 320.000 C 383.215 410.292,418.563 486.173,420.273 488.624 C 421.982 491.076,426.351 494.451,429.981 496.124 C 433.611 497.798,436.600 499.737,436.624 500.433 C 436.647 501.130,432.397 508.115,427.179 515.955 C 418.963 528.302,417.692 531.275,417.692 538.153 C 417.692 552.153,427.497 563.439,441.752 565.848 C 452.564 567.674,462.386 561.755,472.194 547.500 C 491.628 519.258,511.433 485.456,529.130 450.330 C 536.197 436.303,542.620 425.053,543.402 425.330 C 545.698 426.142,640.247 565.467,640.409 568.276 C 640.662 572.675,611.986 635.455,587.473 684.167 C 534.679 789.079,493.699 848.394,444.689 890.833 C 431.281 902.444,429.892 917.669,441.107 930.084 C 452.318 942.493,465.515 942.592,482.088 930.392 C 521.324 901.508,570.225 834.704,619.907 742.117 C 634.363 715.178,673.084 635.346,675.703 627.083 C 676.356 625.021,677.509 623.333,678.265 623.333 C 679.020 623.333,726.296 691.771,783.322 775.417 C 840.348 859.063,889.146 929.523,891.763 931.995 C 898.778 938.622,908.276 941.044,917.000 938.430 C 930.920 934.260,940.445 918.746,936.921 905.984 C 936.066 902.886,883.534 824.456,820.183 731.694 C 756.832 638.931,705.004 562.165,705.009 561.101 C 705.013 560.037,708.443 550.917,712.630 540.833 C 734.629 487.855,759.455 420.384,782.540 350.833 C 808.960 271.233,837.083 175.040,836.955 164.706 C 836.833 154.893,830.394 145.290,820.526 140.208 C 817.962 138.887,790.254 138.333,726.776 138.333 C 677.216 138.333,636.667 138.059,636.667 137.724 C 636.667 137.389,638.542 128.808,640.833 118.657 C 643.125 108.505,645.000 97.492,645.000 94.183 C 645.000 78.352,628.030 64.831,612.544 68.323 C 598.188 71.561,593.509 78.372,587.440 104.863 C 564.912 203.193,538.323 292.727,515.882 345.823 C 512.780 353.162,507.509 365.917,504.169 374.167 C 496.501 393.103,466.695 453.333,464.991 453.333 C 463.639 453.333,444.328 411.759,348.098 201.667 C 315.139 129.708,286.802 68.208,285.128 65.000 C 278.870 53.008,259.067 47.623,247.500 54.768 M772.662 196.250 C 772.169 197.854,766.908 215.667,760.971 235.833 C 738.760 311.280,708.050 401.928,682.485 467.500 C 678.197 478.500,673.204 491.438,671.391 496.250 C 669.578 501.063,667.483 505.000,666.736 505.000 C 664.481 505.000,570.000 365.505,570.000 362.177 C 570.000 360.480,572.202 353.373,574.892 346.386 C 588.131 312.006,604.704 260.429,616.576 216.667 C 619.436 206.125,622.103 196.563,622.502 195.417 C 623.069 193.792,639.760 193.333,698.393 193.333 C 769.209 193.333,773.506 193.502,772.662 196.250 M250.001 331.872 C 244.564 334.040,238.701 339.592,235.258 345.833 C 232.735 350.407,232.462 370.474,232.055 581.052 L 231.610 811.270 221.616 811.993 C 215.196 812.457,209.991 813.904,207.061 816.039 C 201.376 820.181,194.998 832.384,195.006 839.103 C 195.014 845.301,234.954 933.785,240.353 939.567 C 252.432 952.500,270.461 951.011,282.381 936.096 L 287.500 929.691 287.940 643.860 C 288.239 449.807,287.823 355.962,286.646 351.591 C 282.241 335.229,264.935 325.917,250.001 331.872 M125.798 473.281 C 114.128 475.927,105.000 487.411,105.000 499.449 C 105.000 507.723,152.635 751.769,155.666 759.022 C 159.997 769.388,173.952 776.286,186.013 774.023 C 193.884 772.546,204.090 762.694,206.582 754.167 C 208.360 748.085,206.338 736.290,183.527 619.684 C 169.775 549.386,157.432 489.759,156.099 487.180 C 150.514 476.381,137.817 470.556,125.798 473.281 M381.319 473.318 C 374.545 475.354,366.931 481.322,364.085 486.825 C 362.692 489.517,360.059 503.521,358.233 517.944 C 348.320 596.251,337.380 642.351,308.105 729.177 C 298.559 757.489,298.094 759.589,299.896 766.282 C 303.354 779.123,315.166 788.333,328.176 788.333 C 333.424 788.333,344.135 782.459,348.116 777.398 C 351.471 773.133,373.033 710.072,383.231 674.699 C 398.073 623.220,411.716 550.977,414.447 509.402 C 415.290 496.569,414.958 492.915,412.470 487.672 C 407.373 476.931,392.341 470.005,381.319 473.318 " stroke="none" fill-rule="evenodd" fill="black"></path></svg>