<svg width="1000" height="1000" viewBox="0 0 1000 1000" version="1.1" id="svg5" sodipodi:docname="王.svg" inkscape:version="1.2.1 (9c6d41e410, 2022-07-14)" xmlns:inkscape="http://www.inkscape.org/namespaces/inkscape" xmlns:sodipodi="http://sodipodi.sourceforge.net/DTD/sodipodi-0.dtd" xmlns="http://www.w3.org/2000/svg" xmlns:svg="http://www.w3.org/2000/svg"><path d="M400.614 45.147 C 393.591 47.183,383.799 58.324,382.379 65.895 C 380.103 78.026,383.406 83.363,413.035 115.424 C 428.324 131.968,448.488 153.828,457.843 164.002 L 474.852 182.500 329.509 183.333 L 184.167 184.167 177.500 188.029 C 167.828 193.634,164.446 199.081,163.629 210.370 C 163.026 218.708,163.536 220.976,167.290 226.649 C 176.147 240.032,164.857 239.111,326.250 239.619 L 470.000 240.072 470.000 348.369 L 470.000 456.667 302.446 456.667 C 118.066 456.667,128.600 456.062,118.806 467.216 C 109.884 477.378,109.472 490.457,117.734 501.288 C 126.065 512.211,116.522 511.667,299.848 511.667 C 404.365 511.667,466.838 512.262,467.458 513.265 C 469.007 515.772,463.937 544.048,458.432 563.595 C 439.894 629.422,399.044 696.600,341.675 755.601 C 294.943 803.663,250.679 836.261,197.500 861.778 C 158.859 880.319,129.679 888.632,92.055 891.817 C 79.892 892.847,68.458 894.732,65.268 896.234 C 58.654 899.348,51.904 908.911,50.586 917.035 C 49.274 925.120,54.675 936.647,62.602 942.681 C 68.752 947.362,69.459 947.494,87.383 947.291 C 175.073 946.296,285.203 890.089,374.192 800.914 C 426.877 748.119,467.464 689.754,493.082 629.949 C 497.609 619.379,502.268 607.546,503.435 603.653 C 504.601 599.759,506.168 596.782,506.917 597.037 C 507.666 597.292,597.204 675.125,705.891 770.000 C 814.578 864.875,906.788 944.262,910.803 946.416 C 916.607 949.529,919.485 950.098,924.846 949.193 C 934.352 947.587,941.868 942.037,946.344 933.320 C 950.370 925.480,950.392 918.009,946.415 909.280 C 945.372 906.991,849.306 822.066,732.934 720.557 L 521.350 535.997 522.511 525.082 C 523.150 519.078,524.016 513.604,524.435 512.917 C 524.854 512.229,600.988 511.667,693.621 511.667 C 860.819 511.667,862.090 511.642,868.106 508.221 C 888.144 496.826,886.927 469.348,865.964 459.827 C 859.494 456.888,851.128 456.738,692.083 456.703 L 525.000 456.667 525.000 348.333 L 525.000 240.000 665.417 239.991 C 755.201 239.985,808.028 239.372,811.919 238.291 C 819.627 236.150,829.451 225.455,830.925 217.599 C 833.278 205.055,827.576 193.333,816.051 187.023 C 811.288 184.415,799.473 184.094,680.343 183.333 L 549.854 182.500 489.012 116.667 C 449.579 73.999,425.760 49.514,421.323 47.083 C 414.098 43.127,409.173 42.666,400.614 45.147 " stroke="none" fill-rule="evenodd" fill="#000000"></path></svg>