<svg width="1000" height="1000" viewBox="0 0 1000 1000" version="1.1" id="svg5" xmlns="http://www.w3.org/2000/svg" xmlns:svg="http://www.w3.org/2000/svg"><path d="M411.701 73.750 C 395.059 82.254,390.993 101.021,402.763 115.008 C 411.459 125.343,407.857 125.000,507.586 125.000 L 598.672 125.000 597.536 137.083 C 592.794 187.512,580.156 281.517,571.376 331.667 C 568.567 347.708,565.641 364.958,564.873 370.000 C 562.266 387.129,546.489 462.360,538.135 497.500 C 518.599 579.674,494.552 659.704,468.050 730.741 C 456.095 762.787,455.650 763.690,454.032 759.167 C 450.004 747.900,439.090 740.000,427.554 740.000 C 424.317 740.000,395.741 747.198,364.053 755.997 C 332.364 764.795,306.153 771.709,305.806 771.362 C 305.459 771.015,308.535 760.254,312.642 747.449 C 344.501 648.117,365.139 510.591,383.293 276.667 C 385.178 252.375,387.129 229.313,387.629 225.417 L 388.538 218.333 396.522 218.333 C 413.451 218.333,426.713 201.858,423.191 185.205 C 421.491 177.163,416.742 171.397,408.246 167.057 L 400.855 163.281 252.380 163.724 L 103.906 164.167 97.588 168.986 C 80.921 181.699,82.235 204.815,100.198 214.911 C 106.173 218.269,108.400 218.333,218.977 218.333 L 331.667 218.333 331.664 224.583 C 331.662 228.021,329.772 253.708,327.463 281.667 C 306.466 535.921,289.106 646.205,253.958 748.619 C 243.779 778.277,239.364 789.166,236.898 790.690 C 235.957 791.272,198.583 801.900,153.844 814.308 C 109.105 826.715,70.250 838.177,67.501 839.777 C 51.429 849.130,51.158 873.672,66.996 885.497 C 76.480 892.578,80.430 891.882,167.561 867.777 C 212.444 855.361,253.667 844.064,259.167 842.673 C 274.517 838.792,438.772 792.280,442.099 790.872 C 444.496 789.858,443.999 792.023,439.379 802.732 C 429.035 826.705,420.424 845.590,408.327 870.833 C 397.295 893.856,396.403 896.516,397.051 904.463 C 397.967 915.698,403.905 923.670,414.322 927.648 C 420.987 930.193,423.084 930.313,429.767 928.531 C 440.884 925.567,445.227 920.473,456.779 896.851 C 524.649 758.063,576.822 596.337,613.032 412.500 L 615.986 397.500 726.326 397.071 L 836.667 396.643 836.658 410.405 C 836.646 429.166,833.878 480.667,830.767 520.000 C 823.830 607.704,812.918 679.203,795.791 749.167 C 789.131 776.377,773.825 831.730,772.633 832.923 C 772.365 833.190,754.314 802.830,732.518 765.455 C 710.723 728.080,691.302 695.716,689.362 693.535 C 677.014 679.661,653.343 683.599,644.956 700.924 C 642.324 706.361,641.505 710.402,642.115 714.947 C 643.275 723.596,752.729 911.633,761.652 920.307 C 772.580 930.929,787.063 930.942,798.135 920.339 C 803.793 914.921,805.613 911.008,813.027 888.333 C 841.729 800.550,861.298 720.540,872.337 645.833 C 883.760 568.530,891.471 470.898,892.169 394.735 C 892.482 360.606,892.313 358.385,889.064 354.005 C 884.121 347.342,878.188 343.331,870.704 341.596 C 867.109 340.762,810.729 340.062,745.417 340.040 C 680.104 340.018,626.667 339.590,626.667 339.090 C 626.667 338.589,628.876 323.777,631.577 306.173 C 640.283 249.422,649.860 173.572,653.716 130.833 L 654.167 125.833 791.129 125.000 C 926.203 124.178,928.154 124.119,932.692 120.730 C 940.260 115.080,943.753 109.060,944.604 100.203 C 945.692 88.882,939.812 78.487,929.497 73.493 L 922.281 70.000 670.660 70.000 L 419.040 70.000 411.701 73.750 M142.500 251.605 C 140.667 252.372,136.577 255.705,133.412 259.012 C 128.329 264.321,127.585 266.239,127.048 275.429 C 126.527 284.352,168.194 719.000,171.083 734.778 C 171.648 737.865,174.437 743.039,177.279 746.276 C 189.921 760.675,209.037 759.869,220.194 744.468 C 224.009 739.201,224.995 736.081,224.975 729.333 C 224.961 724.658,214.931 619.075,202.686 494.705 C 178.097 244.965,180.478 261.354,167.636 253.417 C 161.848 249.840,148.944 248.910,142.500 251.605 " stroke="none" fill-rule="evenodd" fill="#000000"></path></svg>