<svg width="1000" height="1000" viewBox="0 0 1000 1000" version="1.1" id="svg5" xmlns="http://www.w3.org/2000/svg" xmlns:svg="http://www.w3.org/2000/svg"><path d="M315.371 129.335 C 308.186 133.008,302.205 140.293,300.073 147.968 C 299.030 151.725,298.348 178.947,298.343 217.083 L 298.333 280.000 226.080 280.000 C 153.894 280.000,153.821 280.004,148.316 283.750 C 140.062 289.368,136.290 295.492,135.404 304.716 C 134.427 314.883,138.837 323.829,147.881 330.029 L 153.917 334.167 226.102 334.650 L 298.287 335.133 298.727 506.447 L 299.167 677.760 303.836 683.882 C 313.022 695.924,300.334 695.133,482.536 695.032 L 646.667 694.942 646.667 712.209 C 646.667 727.020,647.212 730.508,650.505 736.733 C 654.916 745.076,665.504 751.667,674.495 751.667 C 685.151 751.667,696.791 743.181,700.624 732.618 C 701.266 730.849,701.754 640.662,701.708 532.201 L 701.624 335.000 772.126 335.000 C 841.928 335.000,842.701 334.963,850.050 331.250 C 868.820 321.768,871.620 297.764,855.400 285.388 L 849.431 280.833 775.965 280.000 L 702.500 279.167 701.667 212.500 C 700.743 138.625,700.774 138.832,689.624 131.957 C 677.807 124.672,666.911 125.294,657.216 133.806 C 646.660 143.075,646.667 143.021,646.667 214.946 L 646.667 280.000 500.921 280.000 L 355.176 280.000 354.671 213.750 C 354.111 140.167,354.290 141.379,342.687 132.530 C 335.299 126.895,322.966 125.452,315.371 129.335 M646.667 487.500 L 646.667 640.000 500.833 640.000 L 355.000 640.000 355.000 487.500 L 355.000 335.000 500.833 335.000 L 646.667 335.000 646.667 487.500 M64.869 822.123 C 55.924 828.151,51.667 835.797,51.667 845.833 C 51.667 856.839,56.458 864.452,66.617 869.583 L 74.040 873.333 500.000 873.333 L 925.960 873.333 933.383 869.583 C 952.951 859.698,953.870 834.751,935.131 822.123 L 929.507 818.333 500.000 818.333 L 70.493 818.333 64.869 822.123 " stroke="none" fill-rule="evenodd" fill="#000000"></path></svg>