<svg width="1000" height="1000" viewBox="0 0 1000 1000" version="1.1" id="svg5" xmlns="http://www.w3.org/2000/svg" xmlns:svg="http://www.w3.org/2000/svg"><path d="M489.856 51.593 C 482.637 53.781,477.477 57.984,473.649 64.795 L 470.000 71.287 470.000 193.144 L 470.000 315.000 328.750 315.037 C 194.605 315.071,187.156 315.229,180.668 318.176 C 170.292 322.888,165.833 330.287,165.833 342.794 C 165.833 353.918,168.424 359.097,177.308 365.730 C 181.861 369.130,183.424 369.171,325.369 369.611 L 468.829 370.055 467.755 385.181 C 466.210 406.950,462.234 432.520,456.380 458.333 C 450.709 483.344,440.534 518.328,438.239 520.707 C 437.346 521.633,406.320 499.302,360.460 464.727 C 318.499 433.090,282.372 406.251,280.178 405.083 C 274.298 401.954,259.954 403.619,253.560 408.172 C 247.233 412.677,241.667 422.888,241.667 429.987 C 241.667 437.032,245.339 444.981,251.045 450.285 C 253.678 452.733,291.833 481.847,335.833 514.984 C 379.833 548.120,416.067 575.879,416.352 576.670 C 417.133 578.841,390.039 632.283,378.200 651.921 C 317.733 752.225,241.058 830.183,165.730 867.947 C 139.587 881.053,111.949 889.013,85.833 890.958 C 75.900 891.698,68.853 893.162,64.971 895.293 C 50.482 903.247,46.157 922.170,56.011 934.502 C 66.415 947.522,77.690 949.284,112.496 943.334 C 210.425 926.592,318.566 841.787,402.904 715.593 C 421.175 688.254,436.243 662.462,450.080 634.841 C 457.942 619.146,462.559 611.652,464.021 612.213 C 468.911 614.090,574.998 695.313,574.978 697.165 C 574.949 699.761,549.363 735.339,535.184 752.500 C 529.124 759.833,515.392 775.362,504.668 787.007 C 490.135 802.789,484.707 809.899,483.354 814.924 C 478.110 834.399,497.108 853.600,516.463 848.388 C 520.017 847.431,525.974 843.840,529.701 840.407 C 549.657 822.025,587.252 777.327,609.034 746.085 C 615.202 737.238,620.499 730.000,620.806 730.000 C 621.112 730.000,686.119 778.758,765.265 838.350 C 853.518 904.800,911.584 947.441,915.417 948.614 C 920.159 950.066,923.256 950.051,928.258 948.553 C 946.668 943.037,954.654 923.879,945.264 907.754 C 943.655 904.992,882.231 857.687,798.333 794.598 C 719.042 734.972,653.096 685.198,651.787 683.988 C 649.748 682.103,651.473 677.518,663.817 652.011 C 683.010 612.350,704.960 553.844,709.274 530.849 C 712.462 513.854,692.044 496.363,674.984 501.475 C 662.787 505.129,658.328 511.642,650.273 537.571 C 636.035 583.400,608.714 646.041,603.139 645.639 C 600.529 645.451,487.806 561.525,485.797 558.274 C 485.248 557.386,488.560 545.223,493.156 531.246 C 503.402 500.092,508.640 480.511,514.024 453.225 C 518.627 429.904,523.333 394.287,523.333 382.781 C 523.333 378.651,523.789 374.086,524.345 372.636 C 525.256 370.261,539.387 370.000,667.115 370.000 L 808.874 370.000 815.943 365.857 C 823.523 361.415,830.000 350.844,830.000 342.916 C 830.000 332.842,822.147 321.578,812.137 317.295 C 807.724 315.407,781.817 315.000,665.928 315.000 L 525.083 315.000 524.625 191.953 L 524.167 68.905 519.360 62.605 C 514.473 56.198,503.544 49.986,497.500 50.180 C 495.667 50.239,492.227 50.874,489.856 51.593 " stroke="none" fill-rule="evenodd" fill="#000000"></path></svg>