<svg width="1000" height="1000" viewBox="0 0 1000 1000" version="1.1" id="svg5" xmlns="http://www.w3.org/2000/svg" xmlns:svg="http://www.w3.org/2000/svg"><path d="M519.167 71.470 C 398.302 147.006,256.144 219.027,152.382 257.293 C 112.075 272.157,108.350 274.147,103.750 283.270 C 98.988 292.714,99.011 299.272,103.838 308.400 C 108.807 317.797,119.520 323.918,129.167 322.872 C 140.987 321.591,202.986 297.997,253.257 275.649 C 268.339 268.944,280.923 263.701,281.220 263.998 C 281.517 264.295,280.989 266.566,280.047 269.044 C 275.816 280.172,278.985 292.722,287.919 300.218 C 290.610 302.476,319.538 314.158,355.477 327.500 C 390.046 340.333,418.330 351.388,418.331 352.067 C 418.334 353.535,398.246 363.734,363.104 380.109 C 265.906 425.398,170.041 460.210,97.500 476.558 C 66.202 483.611,64.277 484.319,58.508 490.890 C 46.208 504.898,49.474 523.277,65.990 532.999 C 74.713 538.133,82.112 537.338,124.482 526.715 C 188.480 510.668,262.700 484.646,337.597 451.993 C 372.079 436.961,437.911 405.315,466.536 390.012 C 480.567 382.511,490.196 378.335,492.369 378.807 C 494.274 379.222,590.580 414.910,706.382 458.114 C 822.184 501.318,919.196 536.667,921.964 536.667 C 933.277 536.667,945.084 527.066,948.256 515.288 C 950.499 506.958,947.897 497.949,941.128 490.612 C 936.302 485.380,919.020 478.608,746.038 414.169 C 641.651 375.282,555.839 343.061,555.344 342.566 C 554.149 341.371,552.513 342.503,580.833 324.942 C 657.778 277.230,718.721 232.075,760.540 191.790 C 774.177 178.652,776.669 174.332,776.660 163.833 C 776.650 150.546,767.503 139.919,753.859 137.340 C 744.578 135.586,737.104 139.667,717.742 157.064 C 682.344 188.871,645.658 216.872,595.998 249.988 C 571.860 266.085,516.035 300.309,494.010 312.513 L 485.521 317.217 396.919 284.167 L 308.318 251.117 347.076 231.238 C 449.648 178.629,568.555 109.288,580.461 95.139 C 588.443 85.653,588.489 71.069,580.568 61.656 C 574.635 54.604,568.237 51.666,558.833 51.673 C 551.509 51.679,548.157 53.352,519.167 71.470 M489.084 414.011 C 482.430 416.909,475.559 425.218,473.407 432.968 C 472.293 436.980,471.682 483.714,471.676 565.417 L 471.667 691.667 385.000 691.667 L 298.333 691.667 298.324 628.750 C 298.318 587.988,297.667 563.499,296.474 559.204 C 294.038 550.429,284.110 540.609,276.168 539.119 C 261.447 536.358,247.309 545.235,243.419 559.682 C 242.084 564.638,241.664 590.717,242.009 647.122 C 242.538 733.687,242.415 732.460,251.386 740.579 C 259.618 748.029,261.984 748.183,369.583 748.260 L 471.667 748.333 471.676 839.583 C 471.682 901.018,472.287 932.999,473.526 937.462 C 478.782 956.394,502.205 964.413,516.677 952.235 C 527.929 942.768,527.450 947.403,527.982 842.917 L 528.463 748.333 614.918 748.333 L 701.374 748.333 702.532 755.417 C 703.169 759.313,705.572 765.001,707.872 768.059 C 724.133 789.677,754.158 780.464,757.494 752.833 C 758.069 748.066,758.306 702.542,758.020 651.667 C 757.446 549.507,757.908 553.882,746.677 544.432 C 732.205 532.254,708.782 540.272,703.526 559.204 C 702.333 563.499,701.682 587.988,701.676 628.750 L 701.667 691.667 615.000 691.667 L 528.333 691.667 528.324 565.417 C 528.318 483.714,527.707 436.980,526.593 432.968 C 521.963 416.297,504.315 407.377,489.084 414.011 " stroke="none" fill-rule="evenodd" fill="black"></path></svg>