<svg width="1000" height="1000" viewBox="0 0 1000 1000" version="1.1" id="svg5" sodipodi:docname="百.svg" inkscape:version="1.2.1 (9c6d41e410, 2022-07-14)" xmlns:inkscape="http://www.inkscape.org/namespaces/inkscape" xmlns:sodipodi="http://sodipodi.sourceforge.net/DTD/sodipodi-0.dtd" xmlns="http://www.w3.org/2000/svg" xmlns:svg="http://www.w3.org/2000/svg"><path d="M494.132 51.615 C 486.782 53.281,480.573 57.852,476.279 64.756 C 472.632 70.621,472.481 72.421,471.964 116.217 L 471.429 161.601 314.342 162.050 L 157.254 162.500 151.216 166.638 C 130.295 180.975,136.132 210.979,160.962 216.738 C 164.628 217.588,234.315 218.271,319.583 218.294 L 471.667 218.333 471.667 283.333 L 471.667 348.333 273.750 348.406 C 63.881 348.484,68.392 348.322,59.654 356.092 C 55.363 359.908,50.086 371.137,50.037 376.557 C 49.972 383.703,56.687 394.966,63.830 399.693 L 70.590 404.167 499.878 404.167 L 929.167 404.167 935.333 400.333 C 942.521 395.863,947.591 388.329,949.180 379.754 C 950.466 372.819,946.142 361.230,940.352 356.092 C 931.598 348.322,936.119 348.484,726.250 348.406 L 528.333 348.333 528.333 283.333 L 528.333 218.333 680.417 218.294 C 765.685 218.271,835.372 217.588,839.038 216.738 C 863.868 210.979,869.705 180.975,848.784 166.638 L 842.746 162.500 685.658 162.050 L 528.571 161.601 528.036 116.217 C 527.516 72.225,527.382 70.644,523.666 64.667 C 517.289 54.412,505.254 49.093,494.132 51.615 M144.084 479.005 C 137.222 482.002,130.374 490.481,129.030 497.642 C 126.479 511.241,131.897 522.394,143.871 528.190 L 151.052 531.667 456.458 531.667 C 656.267 531.667,761.513 532.234,760.850 533.306 C 760.293 534.208,712.436 572.988,654.502 619.484 C 596.567 665.980,532.091 717.762,511.222 734.555 C 476.407 762.568,472.970 764.926,469.555 763.135 C 467.508 762.062,434.197 738.437,395.529 710.636 C 356.862 682.835,322.737 658.571,319.696 656.717 C 304.001 647.148,282.704 657.756,279.153 676.913 C 277.826 684.076,282.265 695.490,288.524 701.003 C 291.582 703.697,418.096 795.252,458.714 824.167 C 462.577 826.917,501.386 854.739,544.956 885.994 C 588.526 917.248,626.573 944.061,629.504 945.577 C 646.313 954.269,666.473 942.295,667.859 922.796 C 668.954 907.407,668.300 906.799,590.950 851.129 C 552.515 823.466,520.866 800.083,520.621 799.167 C 520.375 798.250,594.096 738.250,684.445 665.833 C 774.794 593.417,852.488 530.813,857.098 526.713 C 870.124 515.130,873.103 504.284,866.704 491.741 C 864.892 488.188,860.954 483.530,857.954 481.390 L 852.500 477.500 500.833 477.142 C 211.008 476.848,148.273 477.175,144.084 479.005 " stroke="none" fill-rule="evenodd" fill="black"></path></svg>