<svg width="1000" height="1000" viewBox="0 0 1000 1000" version="1.1" id="svg5" xmlns="http://www.w3.org/2000/svg" xmlns:svg="http://www.w3.org/2000/svg"><path d="M488.367 53.750 C 479.723 58.167,475.349 63.634,473.262 72.629 C 472.429 76.225,471.728 105.979,471.706 138.750 L 471.667 198.333 315.417 198.361 L 159.167 198.388 152.657 202.111 C 142.272 208.049,139.167 213.509,139.167 225.833 C 139.167 237.277,141.686 242.377,150.641 249.064 C 155.204 252.470,156.607 252.504,313.455 252.942 L 471.667 253.383 471.667 343.317 L 471.667 433.251 314.460 433.709 L 157.254 434.167 151.216 438.305 C 130.295 452.642,136.132 482.645,160.962 488.404 C 164.628 489.254,234.315 489.938,319.583 489.960 L 471.667 490.000 471.667 580.000 L 471.667 670.000 271.477 670.000 C 72.643 670.000,71.246 670.023,65.198 673.422 C 50.454 681.709,46.092 700.422,56.011 712.836 C 66.541 726.013,48.449 724.995,272.023 724.997 L 471.545 725.000 472.023 827.083 C 472.547 939.217,472.150 934.894,482.692 943.187 C 493.196 951.449,506.804 951.449,517.308 943.187 C 527.850 934.894,527.453 939.217,527.977 827.083 L 528.455 725.000 728.003 725.000 C 919.180 725.000,927.794 724.870,933.318 721.908 C 936.489 720.207,941.325 716.046,944.065 712.660 C 953.923 700.481,949.482 681.673,934.802 673.422 C 928.754 670.023,927.357 670.000,728.523 670.000 L 528.333 670.000 528.333 580.000 L 528.333 490.000 680.417 489.960 C 765.685 489.938,835.372 489.254,839.038 488.404 C 863.868 482.645,869.705 452.642,848.784 438.305 L 842.746 434.167 685.540 433.709 L 528.333 433.251 528.333 343.317 L 528.333 253.383 686.545 252.942 C 843.393 252.504,844.796 252.470,849.359 249.064 C 858.314 242.377,860.833 237.277,860.833 225.833 C 860.833 213.509,857.728 208.049,847.343 202.111 L 840.833 198.388 684.583 198.361 L 528.333 198.333 528.294 138.750 C 528.253 77.871,527.564 69.311,522.096 61.796 C 518.328 56.615,505.936 50.000,500.000 50.000 C 497.638 50.000,492.404 51.688,488.367 53.750 " stroke="none" fill-rule="evenodd" fill="#000000"></path></svg>