<svg width="1000" height="1000" viewBox="0 0 1000 1000" version="1.1" id="svg5" sodipodi:docname="硬.svg" inkscape:version="1.2.1 (9c6d41e410, 2022-07-14)" xmlns:inkscape="http://www.inkscape.org/namespaces/inkscape" xmlns:sodipodi="http://sodipodi.sourceforge.net/DTD/sodipodi-0.dtd" xmlns="http://www.w3.org/2000/svg" xmlns:svg="http://www.w3.org/2000/svg"><path d="M698.333 41.864 C 692.198 44.298,683.632 53.184,681.770 59.047 C 680.875 61.863,678.587 78.417,676.684 95.833 C 672.439 134.678,664.603 192.383,659.029 225.833 C 655.127 249.252,644.213 307.917,642.208 316.250 C 641.312 319.974,641.085 320.000,610.048 320.000 L 578.790 320.000 538.303 223.750 C 516.036 170.813,496.370 125.421,494.601 122.879 C 490.523 117.018,480.132 111.667,472.829 111.667 C 458.045 111.667,443.886 126.782,445.507 140.833 C 445.930 144.500,462.489 185.935,482.305 232.911 C 502.121 279.887,518.333 318.699,518.333 319.161 C 518.333 319.622,488.867 320.000,452.853 320.000 C 388.258 320.000,387.273 320.051,379.950 323.750 C 360.199 333.728,358.373 358.087,376.425 370.777 L 383.618 375.833 505.976 376.311 C 573.272 376.574,628.333 377.098,628.333 377.475 C 628.333 379.960,613.074 436.496,604.915 464.245 C 558.200 623.105,497.382 750.703,426.581 838.392 C 408.812 860.399,394.433 876.076,372.364 897.500 C 351.671 917.589,349.301 922.199,353.117 934.935 C 356.941 947.699,366.825 955.005,380.252 954.994 C 389.886 954.985,394.633 951.843,415.964 931.355 C 527.915 823.827,616.340 647.439,676.698 411.250 L 685.535 376.667 793.239 376.667 L 900.942 376.667 900.511 387.917 C 893.415 572.924,875.228 694.836,834.611 829.652 C 826.557 856.386,824.002 863.020,822.416 861.318 C 821.313 860.135,799.647 826.542,774.270 786.667 C 748.893 746.792,725.955 712.141,723.297 709.665 C 714.153 701.149,702.423 700.426,690.230 707.629 C 679.790 713.797,675.176 730.727,680.913 741.820 C 687.782 755.103,809.106 943.081,813.341 947.002 C 822.520 955.501,834.247 956.238,846.368 949.078 C 853.216 945.033,855.306 940.822,867.552 906.400 C 922.051 753.201,950.543 584.547,956.084 382.354 C 957.162 343.009,957.110 342.077,953.503 335.658 C 951.479 332.056,947.105 327.247,943.784 324.971 L 937.746 320.833 818.040 320.374 C 752.201 320.122,698.333 319.314,698.333 318.580 C 698.333 317.845,700.555 305.677,703.271 291.539 C 716.768 221.267,735.080 91.616,734.973 67.088 C 734.895 49.451,714.538 35.436,698.333 41.864 M66.716 207.639 C 55.137 212.661,49.615 220.998,49.615 233.456 C 49.615 251.721,63.226 261.517,88.750 261.626 L 98.333 261.667 98.333 540.887 C 98.333 771.630,98.724 821.043,100.585 825.496 C 107.157 841.224,127.247 847.916,140.946 838.940 C 143.307 837.393,182.440 789.373,227.908 732.230 C 273.376 675.087,311.067 628.333,311.667 628.333 C 312.266 628.333,324.994 672.021,339.950 725.417 C 354.906 778.813,368.725 825.477,370.659 829.116 C 374.985 837.254,384.985 843.278,394.167 843.278 C 407.739 843.278,421.573 830.130,421.639 817.167 C 421.670 811.216,287.798 333.689,284.087 326.512 C 271.498 302.168,233.337 311.872,233.332 339.419 C 233.332 342.947,246.883 394.054,263.447 452.990 C 280.010 511.926,293.323 560.774,293.031 561.540 C 291.967 564.331,155.797 734.876,154.583 734.937 C 153.896 734.972,153.333 628.527,153.333 498.394 L 153.333 261.787 278.191 261.310 L 403.049 260.833 410.242 255.777 C 428.294 243.087,426.468 218.728,406.717 208.750 L 399.294 205.000 235.897 205.065 C 94.177 205.122,71.733 205.463,66.716 207.639 " stroke="none" fill-rule="evenodd" fill="#000000"></path></svg>