<svg width="1000" height="1000" viewBox="0 0 1000 1000" version="1.1" id="svg5" xmlns="http://www.w3.org/2000/svg" xmlns:svg="http://www.w3.org/2000/svg"><path d="M302.729 52.441 C 294.654 55.320,287.226 62.328,285.150 69.025 C 284.273 71.853,282.334 83.542,280.840 95.000 C 272.245 160.944,255.349 247.239,228.920 360.171 C 218.914 402.926,216.460 415.877,217.407 420.922 C 218.944 429.118,228.624 439.000,237.538 441.474 C 242.233 442.778,314.607 443.317,485.656 443.324 L 727.145 443.333 726.002 471.250 C 722.228 563.451,712.578 649.293,699.153 710.094 C 689.219 755.087,670.289 811.659,649.351 858.926 L 645.028 868.686 579.998 785.359 C 531.465 723.170,513.534 701.351,509.316 699.349 C 491.323 690.811,469.984 703.739,470.010 723.163 C 470.016 727.382,471.056 732.817,472.321 735.242 C 477.657 745.469,633.267 942.662,638.327 945.609 C 649.347 952.027,667.046 948.133,673.816 937.802 C 677.301 932.483,700.051 880.940,712.570 850.000 C 756.289 741.952,774.029 642.320,781.770 461.355 C 782.855 435.975,783.246 412.559,782.639 409.320 C 781.336 402.378,775.026 394.358,767.718 390.357 C 762.869 387.702,745.445 387.469,521.250 387.056 C 388.563 386.812,280.000 386.190,280.000 385.675 C 280.000 385.160,283.697 368.859,288.216 349.452 C 315.813 230.927,341.575 86.238,337.757 71.208 C 335.789 63.459,325.867 53.947,317.576 51.860 C 308.906 49.677,310.679 49.607,302.729 52.441 " stroke="none" fill-rule="evenodd" fill="black"></path></svg>