<svg width="1000" height="1000" viewBox="0 0 1000 1000" version="1.1" id="svg5" sodipodi:docname="чио.svg" inkscape:version="1.2.1 (9c6d41e410, 2022-07-14)" xmlns:inkscape="http://www.inkscape.org/namespaces/inkscape" xmlns:sodipodi="http://sodipodi.sourceforge.net/DTD/sodipodi-0.dtd" xmlns="http://www.w3.org/2000/svg" xmlns:svg="http://www.w3.org/2000/svg"><path d="M154.170 164.286 C 146.877 168.098,143.163 171.815,140.603 177.863 C 135.539 189.828,139.042 203.224,149.277 211.030 L 155.574 215.833 437.931 216.264 L 720.288 216.695 719.152 223.764 C 715.950 243.674,699.132 330.156,692.536 360.626 C 648.039 566.170,599.337 675.773,512.289 766.275 L 495.833 783.382 284.530 783.358 C 110.787 783.338,72.268 783.734,67.837 785.585 C 60.496 788.652,52.350 798.333,50.984 805.614 C 48.669 817.954,56.789 832.014,68.858 836.564 C 72.123 837.795,203.377 838.333,500.162 838.333 C 854.698 838.333,927.684 837.953,932.163 836.082 C 939.504 833.014,947.650 823.333,949.016 816.053 C 951.331 803.712,943.211 789.653,931.142 785.102 C 927.941 783.895,870.341 783.333,749.892 783.333 C 652.785 783.333,573.333 782.913,573.333 782.399 C 573.333 781.885,579.198 774.197,586.367 765.316 C 669.589 662.203,718.356 529.640,764.906 280.000 C 769.606 254.792,774.220 230.272,775.158 225.511 L 776.864 216.856 810.650 216.344 L 844.436 215.833 850.728 211.030 C 865.399 199.831,865.397 178.495,850.723 167.303 L 844.426 162.500 501.797 162.087 C 193.441 161.715,158.667 161.935,154.170 164.286 M220.001 276.872 C 210.088 280.825,203.333 290.955,203.333 301.869 C 203.333 308.692,265.083 625.452,268.502 636.167 C 270.742 643.189,279.914 651.066,288.561 653.395 C 294.247 654.926,296.792 654.769,302.671 652.523 C 311.609 649.110,319.467 640.369,321.015 632.119 C 322.783 622.695,257.961 294.732,252.836 287.172 C 245.848 276.865,231.392 272.330,220.001 276.872 M403.334 276.872 C 393.615 280.748,386.667 290.948,386.667 301.340 C 386.667 306.084,430.985 534.567,451.019 633.105 C 452.621 640.982,462.590 650.897,471.250 653.224 C 487.504 657.594,504.977 644.565,504.994 628.065 C 504.997 624.709,490.385 547.939,472.523 457.465 C 449.459 340.650,439.096 291.431,436.772 287.670 C 430.363 277.301,414.835 272.287,403.334 276.872 " stroke="none" fill-rule="evenodd" fill="#000000"></path></svg>