<svg width="1000" height="1000" viewBox="0 0 1000 1000" version="1.1" id="svg5" xmlns="http://www.w3.org/2000/svg" xmlns:svg="http://www.w3.org/2000/svg"><path d="M817.325 51.643 C 810.705 53.140,804.437 57.822,800.557 64.167 C 797.636 68.944,797.463 80.711,796.667 328.312 L 795.833 587.457 703.333 609.399 C 652.458 621.467,608.780 631.769,606.271 632.291 L 601.709 633.242 601.271 380.371 L 600.833 127.500 597.017 122.150 C 591.888 114.959,584.611 109.998,577.500 108.844 C 569.078 107.477,557.603 112.329,552.055 119.602 L 547.500 125.573 547.068 385.330 L 546.636 645.086 542.901 646.707 C 540.847 647.598,521.917 652.391,500.833 657.358 C 479.750 662.324,460.579 667.128,458.230 668.033 C 452.024 670.426,443.670 680.677,442.397 687.464 C 439.229 704.347,451.545 720.105,468.039 720.276 C 471.409 720.310,495.030 715.388,520.529 709.336 C 546.028 703.285,569.849 698.333,573.464 698.333 C 577.079 698.333,583.216 696.864,587.101 695.068 C 593.307 692.201,788.750 645.000,794.418 645.000 C 796.213 645.000,796.694 671.480,797.056 790.417 C 797.491 932.898,797.567 935.922,800.833 940.242 C 802.667 942.666,806.589 946.315,809.550 948.351 C 819.011 954.854,835.908 952.651,843.540 943.921 C 851.049 935.330,850.789 940.520,851.667 781.679 L 852.500 630.858 887.500 622.496 C 934.351 611.303,935.529 610.903,941.442 604.168 C 950.817 593.490,951.483 579.906,943.151 569.313 C 939.026 564.069,928.396 558.333,922.803 558.333 C 920.605 558.333,904.638 561.703,887.320 565.822 C 870.002 569.941,854.896 573.316,853.750 573.322 C 852.093 573.331,851.667 522.384,851.667 324.113 C 851.667 56.408,852.037 68.697,843.690 59.474 C 837.762 52.923,826.482 49.573,817.325 51.643 M94.167 135.686 C 73.702 144.782,73.112 173.872,93.179 184.458 L 100.524 188.333 181.929 188.333 L 263.333 188.333 263.333 332.500 C 263.333 453.207,262.963 476.667,261.058 476.667 C 256.442 476.667,249.819 483.953,235.638 504.637 C 184.169 579.708,123.891 654.414,80.292 697.170 C 57.341 719.677,53.794 725.256,55.551 736.082 C 58.550 754.562,78.977 765.547,94.604 757.083 C 118.398 744.195,193.813 657.104,257.971 568.422 L 263.333 561.010 263.333 667.430 L 263.333 773.850 259.583 770.690 C 257.521 768.951,252.356 764.385,248.107 760.542 C 239.664 752.907,232.167 750.580,222.083 752.463 C 213.791 754.011,202.559 765.523,201.206 773.860 C 199.043 787.189,201.153 790.224,237.153 825.556 C 255.677 843.736,273.713 860.568,277.233 862.960 C 292.839 873.563,314.000 864.694,318.404 845.704 C 319.262 842.004,319.938 762.953,319.960 663.551 L 320.000 487.936 364.583 541.789 C 430.476 621.381,443.673 636.868,448.872 640.699 C 456.273 646.153,470.925 645.566,478.881 639.497 C 482.249 636.929,486.128 632.654,487.502 629.997 C 491.008 623.217,490.684 610.279,486.856 604.167 C 485.133 601.417,450.261 558.839,409.362 509.550 C 368.463 460.261,335.000 419.337,335.000 418.607 C 335.000 417.878,352.511 399.705,373.914 378.224 C 395.317 356.742,420.582 329.792,430.060 318.333 C 451.548 292.354,476.457 259.077,478.642 253.431 C 481.035 247.248,479.327 233.798,475.493 228.626 C 470.683 222.139,460.242 216.725,452.500 216.703 C 441.568 216.672,435.087 222.184,415.313 248.333 C 392.084 279.051,371.395 303.069,342.813 332.500 L 320.153 355.833 320.076 272.128 L 320.000 188.422 403.874 187.961 L 487.748 187.500 493.898 183.333 C 507.087 174.399,510.259 156.376,500.820 144.000 C 492.182 132.676,504.986 133.327,292.137 133.399 C 135.046 133.452,98.237 133.877,94.167 135.686 M110.802 272.323 C 103.706 275.415,95.368 285.509,94.033 292.625 C 91.774 304.667,95.080 309.969,126.523 344.737 C 142.820 362.757,169.390 392.125,185.567 410.000 C 215.264 442.814,221.806 448.192,232.137 448.290 C 243.576 448.397,257.162 437.103,259.300 425.708 C 261.214 415.505,257.611 408.041,242.725 391.376 C 173.329 313.688,137.695 275.557,132.063 272.960 C 124.645 269.539,117.670 269.330,110.802 272.323 " stroke="none" fill-rule="evenodd" fill="black"></path></svg>