<svg width="1000" height="1000" viewBox="0 0 1000 1000" version="1.1" id="svg5" xmlns="http://www.w3.org/2000/svg" xmlns:svg="http://www.w3.org/2000/svg"><path d="M490.282 58.387 C 484.145 59.766,475.978 66.726,472.351 73.667 C 470.373 77.454,470.000 104.740,470.000 245.751 L 470.000 413.333 397.663 413.333 L 325.326 413.333 323.692 408.750 C 322.793 406.229,307.644 362.917,290.029 312.500 C 272.413 262.083,256.388 217.833,254.417 214.167 C 250.365 206.629,239.287 200.000,230.742 200.000 C 222.137 200.000,211.507 206.735,207.171 214.933 C 205.060 218.925,203.333 224.333,203.333 226.952 C 203.333 230.417,255.802 384.279,265.897 410.417 C 266.957 413.162,263.407 413.336,205.595 413.373 C 171.809 413.395,141.225 414.095,137.629 414.929 C 112.799 420.688,106.962 450.692,127.883 465.029 L 133.921 469.167 301.960 469.622 L 470.000 470.077 470.000 695.955 C 470.000 942.033,469.361 925.836,479.435 935.261 C 488.387 943.638,503.111 944.439,513.204 937.096 C 515.567 935.378,519.188 930.669,521.250 926.633 L 525.000 919.294 525.000 694.685 L 525.000 470.076 695.540 469.621 L 866.079 469.167 872.117 465.029 C 893.038 450.692,887.201 420.688,862.371 414.929 C 858.775 414.095,828.271 413.395,794.583 413.373 C 760.896 413.351,733.333 413.039,733.333 412.680 C 733.333 412.320,737.523 405.383,742.645 397.263 C 766.053 360.149,778.795 325.165,794.129 255.913 C 798.275 237.190,801.654 219.013,801.639 215.519 C 801.572 199.878,786.215 186.773,770.684 189.102 C 761.163 190.530,750.768 199.365,748.332 208.100 C 747.402 211.437,743.667 227.822,740.032 244.513 C 722.652 324.322,705.243 363.749,670.821 401.250 L 659.730 413.333 592.365 413.333 L 525.000 413.333 525.000 247.446 C 525.000 69.891,525.234 75.213,517.024 66.140 C 511.002 59.487,499.819 56.244,490.282 58.387 " stroke="none" fill-rule="evenodd" fill="#000000"></path></svg>