<svg width="1000" height="1000" viewBox="0 0 1000 1000" version="1.1" id="svg5" xmlns="http://www.w3.org/2000/svg" xmlns:svg="http://www.w3.org/2000/svg"><path d="M569.652 48.314 C 557.523 51.970,550.000 62.337,550.000 75.393 C 550.000 83.576,548.498 80.863,589.721 147.118 C 602.708 167.991,613.333 185.786,613.333 186.662 C 613.333 187.652,576.447 188.428,515.954 188.711 C 420.656 189.157,418.475 189.240,413.871 192.598 C 406.639 197.872,401.304 209.419,402.185 217.893 C 403.070 226.407,406.239 231.566,414.418 237.806 L 420.571 242.500 514.452 242.970 L 608.333 243.439 608.333 378.386 L 608.333 513.333 567.618 513.333 L 526.903 513.333 524.418 504.583 C 523.051 499.771,512.728 461.041,501.477 418.518 C 489.016 371.416,479.663 339.186,477.545 336.043 C 473.343 329.808,462.553 323.398,456.196 323.361 C 450.659 323.328,440.519 327.347,436.140 331.310 C 431.112 335.860,428.025 343.225,428.040 350.631 C 428.047 354.409,437.117 391.446,448.193 432.936 C 459.270 474.425,468.333 509.451,468.333 510.771 C 468.333 512.781,461.623 513.251,426.950 513.669 L 385.566 514.167 379.448 518.836 C 371.473 524.923,368.333 531.279,368.333 541.337 C 368.333 550.382,372.440 558.012,380.538 564.013 C 385.186 567.458,386.585 567.505,495.955 567.951 L 606.667 568.403 606.667 574.869 C 606.667 585.026,600.630 617.421,595.075 637.079 C 571.670 719.894,514.227 806.587,450.399 855.423 C 417.891 880.296,393.259 891.491,362.084 895.561 C 341.398 898.263,338.561 899.405,332.362 907.533 C 323.071 919.714,326.354 937.821,339.456 946.667 C 344.970 950.390,347.236 950.817,360.731 950.679 C 426.276 950.008,508.994 893.710,571.102 807.500 C 602.236 764.284,627.165 716.342,642.384 670.417 C 644.890 662.854,647.525 656.667,648.239 656.667 C 648.954 656.667,706.947 722.139,777.113 802.161 C 847.279 882.183,906.657 948.553,909.065 949.650 C 918.012 953.727,925.422 953.735,933.236 949.678 C 937.307 947.563,942.044 943.900,943.763 941.538 C 948.232 935.395,950.177 925.320,948.274 918.178 C 947.079 913.691,910.941 871.463,804.217 749.844 C 693.716 623.921,661.745 586.518,661.711 583.125 C 661.687 580.719,662.135 576.406,662.708 573.542 L 663.750 568.333 772.762 568.333 C 891.996 568.333,888.604 568.602,897.117 558.484 C 906.256 547.624,906.248 534.033,897.097 523.158 C 889.378 513.985,885.759 513.333,842.554 513.333 C 816.881 513.333,803.333 512.743,803.333 511.625 C 803.333 510.686,805.859 504.873,808.946 498.708 C 818.027 480.575,827.768 450.483,833.987 421.355 C 842.368 382.104,848.793 341.884,847.621 336.020 C 846.053 328.181,839.845 320.282,832.390 316.642 C 823.992 312.541,817.816 312.506,809.002 316.509 C 797.138 321.897,795.467 325.954,788.159 367.107 C 777.205 428.800,771.066 450.849,756.682 480.163 C 752.903 487.865,747.041 498.292,743.656 503.333 L 737.500 512.500 700.417 512.949 L 663.333 513.397 663.333 378.365 L 663.333 243.333 753.750 243.324 C 809.733 243.318,846.484 242.671,850.253 241.624 C 853.778 240.645,858.822 237.185,862.242 233.400 C 871.717 222.912,872.409 209.824,864.067 198.887 C 855.772 188.012,858.762 188.336,766.333 188.308 C 720.225 188.294,681.625 187.726,680.556 187.046 C 679.487 186.365,661.592 158.439,640.790 124.988 C 619.987 91.536,601.074 61.648,598.760 58.569 C 594.404 52.772,583.320 46.660,577.500 46.847 C 575.667 46.905,572.135 47.566,569.652 48.314 M139.167 142.260 C 132.993 145.118,127.458 150.999,125.111 157.192 C 123.941 160.279,123.333 189.416,123.333 242.406 L 123.333 322.928 97.848 323.613 C 74.976 324.227,71.738 324.684,66.266 328.066 C 54.592 335.281,49.324 349.501,54.095 360.920 C 60.720 376.775,68.220 379.915,99.583 379.963 L 123.333 380.000 123.333 588.920 L 123.333 797.840 127.083 803.350 C 129.146 806.381,132.950 810.429,135.537 812.347 C 140.097 815.727,142.259 815.848,206.613 816.304 L 272.985 816.775 273.583 829.942 C 274.039 839.981,274.996 844.199,277.610 847.701 C 283.496 855.585,289.307 858.841,298.681 859.510 C 310.465 860.351,319.372 855.381,324.583 845.057 L 328.333 837.627 328.333 608.963 L 328.333 380.299 353.750 379.733 C 376.823 379.219,379.735 378.813,385.333 375.333 C 395.007 369.317,398.858 361.709,398.029 350.248 C 397.221 339.078,393.792 333.592,384.167 328.063 C 378.219 324.647,374.847 324.165,352.917 323.602 L 328.333 322.970 328.297 242.735 C 328.263 168.093,328.044 162.024,325.158 155.668 C 320.445 145.292,313.046 140.833,300.539 140.833 C 289.415 140.833,284.238 143.424,277.603 152.307 C 274.255 156.790,274.155 159.047,273.705 240.121 L 273.243 323.333 225.788 323.333 L 178.333 323.333 178.297 242.917 C 178.263 168.098,178.044 162.024,175.158 155.668 C 173.451 151.911,169.599 147.088,166.597 144.950 C 159.948 140.216,146.444 138.892,139.167 142.260 M272.924 570.417 L 272.500 760.833 225.833 760.833 L 179.167 760.833 178.743 570.417 L 178.319 380.000 225.833 380.000 L 273.347 380.000 272.924 570.417 " stroke="none" fill-rule="evenodd" fill="#000000"></path></svg>