<svg width="1000" height="1000" viewBox="0 0 1000 1000" version="1.1" id="svg5" xmlns="http://www.w3.org/2000/svg" xmlns:svg="http://www.w3.org/2000/svg"><path d="M625.614 51.741 C 619.591 53.571,608.770 64.806,607.667 70.375 C 607.254 72.460,606.087 112.459,605.072 159.262 C 604.058 206.064,602.779 247.127,602.229 250.512 L 601.231 256.667 521.395 256.667 C 434.664 256.667,435.171 256.617,426.356 266.045 C 417.686 275.317,416.276 284.697,421.827 296.164 C 424.156 300.976,427.676 304.761,432.390 307.524 L 439.460 311.667 518.896 311.667 L 598.333 311.667 598.333 316.583 C 598.333 325.414,593.293 380.053,589.133 416.320 C 568.193 598.872,526.731 730.966,464.360 813.838 C 446.543 837.512,431.455 852.941,386.150 893.820 C 374.669 904.180,371.383 908.198,369.906 913.681 C 365.381 930.486,379.254 948.333,396.842 948.333 C 404.849 948.333,412.857 943.101,435.833 922.860 C 491.130 874.145,523.472 832.891,553.822 772.358 C 586.455 707.274,612.703 621.109,629.174 525.000 C 631.609 510.792,634.104 497.872,634.717 496.290 C 635.509 494.251,673.384 556.804,764.897 711.290 C 835.881 831.122,896.104 932.353,898.725 936.248 C 904.670 945.081,911.852 948.938,922.128 948.814 C 937.338 948.629,948.892 936.861,948.947 921.497 C 948.973 914.293,939.834 898.426,798.237 659.831 C 657.929 423.407,647.502 405.314,647.529 398.333 C 647.561 389.881,653.407 316.971,654.311 313.750 C 654.769 312.119,673.175 311.667,739.181 311.667 C 819.733 311.667,823.751 311.521,829.898 308.385 C 845.509 300.421,849.391 280.349,837.860 267.216 C 828.425 256.469,830.261 256.667,739.793 256.667 L 657.812 256.667 658.900 228.750 C 659.498 213.396,660.430 171.958,660.971 136.667 C 661.892 76.512,661.762 72.143,658.893 66.785 C 652.305 54.481,637.952 47.993,625.614 51.741 M303.267 55.505 C 298.306 58.128,294.794 61.639,292.171 66.600 C 288.614 73.327,288.332 75.880,288.313 101.512 C 288.273 154.699,283.541 285.306,280.714 311.250 L 279.760 320.000 183.160 320.000 C 76.663 320.000,80.011 319.687,70.473 330.549 C 61.269 341.032,61.497 355.382,71.030 365.602 C 79.923 375.135,78.344 375.000,180.780 375.000 L 275.000 375.000 275.000 378.798 C 275.000 380.887,273.504 395.832,271.676 412.009 C 255.729 553.104,229.192 660.148,190.159 740.833 C 160.831 801.456,132.883 837.663,79.167 884.625 C 55.745 905.101,53.917 907.144,51.613 915.417 C 46.364 934.259,66.407 954.101,85.049 948.516 C 99.702 944.125,164.270 882.666,188.546 850.000 C 226.307 799.190,253.898 742.792,277.532 668.106 C 290.682 626.553,305.408 562.704,313.423 512.500 C 315.471 499.667,317.684 488.559,318.340 487.817 C 318.996 487.074,353.121 534.324,394.173 592.817 C 435.225 651.309,471.499 701.996,474.780 705.453 C 485.990 717.262,501.575 717.150,513.551 705.174 C 520.242 698.484,522.760 690.376,520.983 681.250 C 520.321 677.854,485.359 626.719,427.254 544.167 C 376.284 471.750,333.169 410.250,331.443 407.500 C 328.398 402.648,328.222 392.132,330.962 378.750 L 331.730 375.000 400.302 375.000 L 468.874 375.000 475.943 370.857 C 483.760 366.276,490.000 355.790,490.000 347.236 C 490.000 338.789,483.204 328.141,475.067 323.838 C 467.845 320.019,467.481 320.000,401.997 320.000 L 336.184 320.000 337.377 295.417 C 338.033 281.896,339.246 258.833,340.072 244.167 C 340.899 229.500,342.091 185.147,342.723 145.605 L 343.870 73.709 339.459 66.181 C 336.430 61.013,332.786 57.559,327.831 55.160 C 318.534 50.660,312.262 50.748,303.267 55.505 " stroke="none" fill-rule="evenodd" fill="black"></path></svg>