<svg width="1000" height="1000" viewBox="0 0 1000 1000" version="1.1" id="svg5" sodipodi:docname="箱.svg" inkscape:version="1.2.1 (9c6d41e410, 2022-07-14)" xmlns:inkscape="http://www.inkscape.org/namespaces/inkscape" xmlns:sodipodi="http://sodipodi.sourceforge.net/DTD/sodipodi-0.dtd" xmlns="http://www.w3.org/2000/svg" xmlns:svg="http://www.w3.org/2000/svg"><path d="M156.491 135.094 C 149.001 136.323,142.493 140.769,138.332 147.502 C 134.947 152.980,134.939 153.825,134.984 498.252 C 135.022 784.889,135.413 844.430,137.288 848.917 C 140.194 855.871,148.621 862.937,155.466 864.159 C 158.418 864.686,315.466 864.904,504.461 864.642 L 848.089 864.167 852.692 860.730 C 860.585 854.837,863.841 849.030,864.510 839.652 C 865.335 828.091,860.440 819.301,850.155 813.875 L 842.809 810.000 516.405 810.000 L 190.000 810.000 190.000 500.000 L 190.000 190.000 516.405 190.000 L 842.809 190.000 850.155 186.125 C 867.456 176.998,870.057 153.759,855.178 141.238 C 852.276 138.797,847.486 136.374,844.534 135.855 C 837.535 134.624,163.902 133.879,156.491 135.094 " stroke="none" fill-rule="evenodd" fill="#000000"></path></svg>