<svg width="1000" height="1000" viewBox="0 0 1000 1000" version="1.1" id="svg5" xmlns="http://www.w3.org/2000/svg" xmlns:svg="http://www.w3.org/2000/svg"><path d="M485.474 56.822 C 482.526 58.710,478.401 63.010,476.307 66.377 L 472.500 72.500 472.051 275.583 C 471.627 467.361,471.441 478.600,468.718 477.502 C 462.318 474.920,453.782 474.768,448.119 477.134 C 444.858 478.496,430.635 490.112,416.512 502.945 C 310.083 599.658,166.882 708.877,89.167 752.611 C 78.167 758.801,66.709 766.162,63.706 768.969 C 50.418 781.388,53.584 803.292,69.868 811.599 C 80.149 816.844,87.774 816.029,102.775 808.082 C 178.842 767.783,325.334 658.413,434.717 560.257 C 449.686 546.824,464.123 534.050,466.800 531.870 L 471.667 527.906 471.667 693.120 C 471.667 783.987,471.222 858.333,470.677 858.333 C 470.133 858.333,460.728 850.462,449.776 840.841 C 425.712 819.701,422.262 817.733,410.911 818.674 C 391.887 820.252,380.780 838.702,388.198 856.405 C 390.901 862.856,480.673 942.272,489.530 946.047 C 504.703 952.515,521.977 943.653,526.593 927.032 C 527.739 922.905,528.318 842.950,528.324 687.778 C 528.329 559.597,528.944 454.972,529.690 455.278 C 530.436 455.583,613.395 533.458,714.045 628.333 C 814.694 723.208,899.771 802.561,903.105 804.674 C 907.928 807.729,910.930 808.384,917.796 807.880 C 937.215 806.453,949.034 786.684,940.819 769.372 C 939.357 766.290,858.983 689.375,748.736 585.554 C 644.473 487.368,557.842 405.567,556.223 403.773 C 553.345 400.584,554.007 400.095,586.223 381.621 C 644.084 348.443,696.216 314.824,745.833 278.690 C 786.360 249.177,838.165 206.796,844.472 197.996 C 855.270 182.929,847.145 162.106,828.258 156.447 C 817.887 153.340,810.630 156.506,792.070 172.234 C 737.659 218.340,682.512 258.394,618.410 298.365 C 589.322 316.503,531.752 350.000,529.667 350.000 C 528.984 350.000,528.217 287.507,527.963 211.127 L 527.500 72.254 523.065 65.554 C 520.626 61.869,516.013 57.612,512.814 56.094 C 504.677 52.233,492.117 52.567,485.474 56.822 M150.990 223.402 C 148.325 224.199,143.618 227.301,140.529 230.295 C 130.873 239.654,129.337 252.599,136.491 264.327 C 138.642 267.852,175.434 294.001,252.570 346.827 C 314.682 389.364,367.451 425.070,369.834 426.175 C 386.844 434.059,408.333 420.669,408.333 402.187 C 408.333 386.232,412.073 389.266,286.780 303.544 C 223.443 260.210,169.200 224.060,166.239 223.211 C 159.948 221.406,157.561 221.436,150.990 223.402 " stroke="none" fill-rule="evenodd" fill="black"></path></svg>