<svg width="1000" height="1000" viewBox="0 0 1000 1000" version="1.1" id="svg5" xmlns="http://www.w3.org/2000/svg" xmlns:svg="http://www.w3.org/2000/svg"><path d="M154.167 94.281 C 142.287 100.475,137.307 109.740,138.789 122.888 C 139.698 130.956,143.335 136.941,150.642 142.397 C 155.242 145.832,155.345 145.833,438.528 146.264 L 721.812 146.695 720.897 152.098 C 720.393 155.069,716.576 180.000,712.415 207.500 C 666.051 513.918,621.568 666.525,543.667 786.428 C 531.230 805.571,513.148 830.075,501.983 842.917 L 492.926 853.333 283.076 853.333 C 110.596 853.333,72.267 853.734,67.837 855.585 C 60.496 858.652,52.350 868.333,50.984 875.614 C 48.669 887.954,56.789 902.014,68.858 906.564 C 72.123 907.795,203.377 908.333,500.162 908.333 C 858.481 908.333,927.652 907.966,932.262 906.040 C 939.288 903.104,947.736 892.872,949.090 885.658 C 951.332 873.705,943.039 859.588,931.142 855.102 C 927.938 853.895,869.112 853.333,745.725 853.333 C 646.326 853.333,565.000 852.879,565.000 852.323 C 565.000 851.768,567.160 848.580,569.801 845.240 C 579.360 833.147,601.387 798.638,614.814 774.717 C 669.195 677.836,708.290 552.454,742.324 365.788 C 751.156 317.342,766.083 225.177,773.358 174.167 C 775.319 160.417,777.428 148.648,778.045 148.013 C 778.662 147.379,793.927 146.629,811.967 146.346 C 842.045 145.876,845.148 145.548,849.364 142.397 C 856.870 136.786,860.418 130.742,861.243 122.160 C 862.253 111.642,858.789 103.455,850.723 97.303 L 844.426 92.500 501.797 92.087 C 193.707 91.716,158.663 91.937,154.167 94.281 M248.965 199.061 C 241.591 202.270,234.737 211.951,233.837 220.427 C 233.319 225.304,248.905 310.803,284.043 495.833 C 312.070 643.417,336.178 769.609,337.616 776.260 C 340.572 789.924,345.519 797.113,354.570 800.894 C 371.352 807.907,390.069 797.465,392.648 779.652 C 393.835 771.453,287.925 216.630,283.837 209.629 C 277.404 198.615,261.243 193.717,248.965 199.061 " stroke="none" fill-rule="evenodd" fill="#000000"></path></svg>