<svg width="1000" height="1000" viewBox="0 0 1000 1000" version="1.1" id="svg5" sodipodi:docname="紙.svg" inkscape:version="1.2.1 (9c6d41e410, 2022-07-14)" xmlns:inkscape="http://www.inkscape.org/namespaces/inkscape" xmlns:sodipodi="http://sodipodi.sourceforge.net/DTD/sodipodi-0.dtd" xmlns="http://www.w3.org/2000/svg" xmlns:svg="http://www.w3.org/2000/svg"><path d="M247.759 52.497 C 244.234 53.718,239.475 56.467,237.184 58.608 C 228.289 66.915,228.333 66.523,228.333 137.417 L 228.333 203.333 150.262 203.333 L 72.191 203.333 64.933 207.171 C 59.958 209.802,56.461 213.306,53.814 218.313 L 49.951 225.616 50.392 498.225 C 50.806 754.160,51.012 771.159,53.748 776.164 C 55.351 779.096,59.418 783.596,62.785 786.164 C 67.823 790.007,70.576 790.833,78.333 790.833 C 86.091 790.833,88.843 790.007,93.881 786.164 C 106.927 776.214,105.781 801.328,106.276 514.563 L 106.718 258.292 167.109 258.729 L 227.500 259.167 228.333 596.128 L 229.167 933.089 232.657 937.795 C 243.055 951.814,261.443 953.677,273.955 941.977 C 283.972 932.612,283.333 956.400,283.333 592.533 L 283.333 258.292 343.750 258.729 L 404.167 259.167 404.589 484.685 C 404.846 621.634,404.410 709.832,403.479 709.257 C 402.636 708.735,392.069 694.444,379.999 677.498 C 367.928 660.552,356.153 645.194,353.833 643.369 C 334.380 628.067,306.058 645.967,310.687 670.638 C 311.377 674.317,327.810 698.800,357.956 741.063 C 383.372 776.695,406.279 809.092,408.860 813.055 C 413.960 820.885,423.882 826.567,432.564 826.630 C 439.918 826.683,451.889 820.046,456.237 813.504 L 460.000 807.840 460.000 515.000 L 460.000 222.160 456.250 216.650 C 454.188 213.619,450.383 209.571,447.796 207.653 C 443.199 204.246,441.282 204.156,363.213 203.703 L 283.333 203.240 283.333 139.066 C 283.333 71.323,282.991 67.909,275.357 59.474 C 268.749 52.172,257.160 49.242,247.759 52.497 M462.500 79.867 C 440.495 85.241,432.696 109.755,448.092 125.151 C 451.475 128.533,457.225 132.129,460.871 133.141 C 465.083 134.310,487.402 134.985,522.083 134.991 L 576.667 135.000 576.676 535.417 C 576.683 820.936,577.210 937.724,578.514 942.422 C 584.841 965.210,614.734 969.588,627.924 949.659 L 632.500 942.745 633.333 777.302 L 634.167 611.858 697.500 692.017 C 732.333 736.104,762.935 774.293,765.504 776.881 C 771.816 783.238,782.041 785.915,790.424 783.403 C 804.271 779.255,808.265 772.351,830.005 715.000 C 890.096 556.476,925.637 406.990,940.761 249.167 C 944.382 211.382,948.190 149.932,948.618 122.388 C 948.955 100.652,948.709 98.502,945.240 92.889 C 943.182 89.559,938.724 85.109,935.333 83.001 L 929.167 79.167 698.333 78.906 C 571.375 78.763,465.250 79.195,462.500 79.867 M892.711 146.250 C 892.182 152.438,891.300 166.125,890.750 176.667 C 883.337 318.733,856.349 463.435,811.638 600.833 C 798.898 639.982,777.724 699.487,775.871 701.349 C 775.588 701.633,750.549 670.495,720.227 632.154 C 688.457 591.981,662.867 561.126,659.834 559.334 C 654.197 556.004,643.207 554.971,637.083 557.196 L 633.333 558.558 633.333 346.779 L 633.333 135.000 763.502 135.000 L 893.672 135.000 892.711 146.250 " stroke="none" fill-rule="evenodd" fill="black"></path></svg>