<svg width="1000" height="1000" viewBox="0 0 1000 1000" version="1.1" id="svg5" xmlns="http://www.w3.org/2000/svg" xmlns:svg="http://www.w3.org/2000/svg"><path d="M485.474 68.489 C 482.526 70.377,478.401 74.677,476.307 78.044 C 472.691 83.859,472.472 86.031,471.945 121.250 L 471.389 158.333 323.611 158.343 C 228.850 158.349,173.650 158.958,169.747 160.042 C 162.189 162.142,152.208 172.853,150.855 180.317 C 150.305 183.351,150.075 261.958,150.344 355.000 C 150.886 542.466,150.067 529.151,161.656 538.902 C 176.128 551.080,199.552 543.061,204.808 524.129 C 206.088 519.518,206.651 471.461,206.657 366.250 L 206.667 215.000 339.167 215.000 L 471.667 215.000 471.667 401.667 L 471.667 588.333 332.746 588.333 L 193.826 588.333 188.316 592.083 C 185.286 594.146,181.238 597.951,179.320 600.538 C 175.859 605.209,175.830 606.224,175.388 740.122 L 174.942 875.000 129.554 875.040 C 104.591 875.062,81.225 875.762,77.629 876.596 C 64.549 879.629,56.434 888.937,55.467 902.014 C 54.700 912.378,57.842 918.580,67.645 926.057 L 73.907 930.833 500.000 930.833 L 926.093 930.833 932.355 926.057 C 942.158 918.580,945.300 912.378,944.533 902.014 C 943.566 888.937,935.451 879.629,922.371 876.596 C 918.775 875.762,895.409 875.062,870.446 875.040 L 825.058 875.000 824.612 740.122 C 824.170 606.224,824.141 605.209,820.680 600.538 C 818.762 597.951,814.714 594.146,811.684 592.083 L 806.174 588.333 667.254 588.333 L 528.333 588.333 528.333 401.667 L 528.333 215.000 660.833 215.000 L 793.333 215.000 793.333 355.043 L 793.333 495.086 788.519 492.596 C 763.257 479.533,656.263 429.515,652.068 428.808 C 644.266 427.493,632.478 432.492,627.265 439.326 C 619.226 449.867,620.323 466.656,629.622 475.382 C 632.122 477.727,674.292 498.973,723.333 522.595 C 821.691 569.970,822.891 570.401,835.708 562.963 C 839.731 560.629,843.742 556.338,846.125 551.821 L 850.000 544.476 850.000 363.180 C 850.000 239.389,849.439 180.395,848.231 177.192 C 845.600 170.214,836.775 161.855,830.074 159.993 C 826.403 158.973,768.230 158.348,676.389 158.343 L 528.611 158.333 528.055 121.124 C 527.502 84.045,527.484 83.891,523.065 77.218 C 520.626 73.534,516.013 69.279,512.814 67.760 C 504.677 63.899,492.117 64.234,485.474 68.489 M769.595 759.583 L 770.023 875.000 500.011 875.000 L 230.000 875.000 230.000 760.278 C 230.000 697.181,230.502 645.053,231.116 644.439 C 231.730 643.826,353.043 643.513,500.699 643.745 L 769.167 644.167 769.595 759.583 " stroke="none" fill-rule="evenodd" fill="#000000"></path></svg>