<svg width="1000" height="1000" viewBox="0 0 1000 1000" version="1.1" id="svg5" sodipodi:docname="網.svg" inkscape:version="1.3 (0e150ed6c4, 2023-07-21)" xmlns:inkscape="http://www.inkscape.org/namespaces/inkscape" xmlns:sodipodi="http://sodipodi.sourceforge.net/DTD/sodipodi-0.dtd" xmlns="http://www.w3.org/2000/svg" xmlns:svg="http://www.w3.org/2000/svg"><path d="M284.425 52.497 C 277.729 54.816,271.047 60.164,267.764 65.833 C 266.381 68.221,265.597 99.206,265.000 175.000 L 264.167 280.833 224.167 281.667 C 198.222 282.207,182.995 283.182,180.833 284.440 C 164.944 293.687,161.309 313.063,172.883 326.818 C 180.601 335.991,184.290 336.667,226.624 336.667 L 265.021 336.667 264.594 460.417 L 264.167 584.167 166.667 585.000 L 69.167 585.833 63.816 589.650 C 51.420 598.491,47.388 611.115,52.946 623.679 C 54.761 627.783,58.779 632.946,61.873 635.154 L 67.500 639.167 162.457 639.624 C 214.683 639.875,258.012 640.679,258.744 641.410 C 260.494 643.161,256.034 673.308,249.707 702.500 C 242.457 735.943,231.709 766.892,216.713 797.500 C 197.641 836.428,181.960 858.732,150.136 892.194 C 132.403 910.840,130.126 915.430,132.453 927.834 C 133.955 935.841,143.813 945.770,152.613 948.139 C 164.039 951.216,170.549 948.167,187.300 931.892 C 257.863 863.331,298.895 772.717,314.568 650.833 L 315.854 640.833 390.844 640.833 L 465.833 640.833 466.667 785.833 C 467.455 922.991,467.666 931.108,470.575 935.910 C 479.668 950.921,502.109 953.324,513.690 940.526 C 521.836 931.525,521.667 934.882,521.667 782.554 L 521.667 640.000 603.333 640.000 L 685.000 640.000 685.000 782.554 C 685.000 934.882,684.831 931.525,692.976 940.526 C 704.558 953.324,726.999 950.921,736.092 935.910 C 739.000 931.108,739.212 922.991,740.000 785.833 L 740.833 640.833 836.667 640.000 L 932.500 639.167 938.127 635.154 C 945.976 629.556,950.645 618.445,949.200 608.807 C 947.819 599.602,937.052 587.827,928.440 586.105 C 925.402 585.497,881.756 585.000,831.448 585.000 L 739.979 585.000 740.406 461.250 L 740.833 337.500 778.333 336.667 C 818.450 335.775,819.816 335.495,827.276 326.628 C 838.691 313.063,834.955 293.628,819.167 284.440 C 817.030 283.197,802.365 282.201,778.333 281.667 L 740.833 280.833 740.000 175.000 C 739.071 56.984,739.772 63.643,727.375 55.148 C 717.614 48.460,701.060 50.542,692.976 59.474 C 684.998 68.289,685.000 68.265,685.000 178.280 L 685.000 281.667 603.333 281.667 L 521.667 281.667 521.667 178.280 C 521.667 68.265,521.668 68.289,513.690 59.474 C 505.607 50.542,489.053 48.460,479.292 55.148 C 466.894 63.643,467.596 56.984,466.667 175.000 L 465.833 280.833 393.333 280.833 L 320.833 280.833 320.000 175.000 C 319.403 99.206,318.619 68.221,317.236 65.833 C 310.517 54.230,296.214 48.416,284.425 52.497 M466.261 461.250 L 466.688 585.000 393.344 585.000 L 320.000 585.000 320.000 460.816 L 320.000 336.632 392.917 337.066 L 465.833 337.500 466.261 461.250 M685.000 460.833 L 685.000 585.000 603.333 585.000 L 521.667 585.000 521.667 460.833 L 521.667 336.667 603.333 336.667 L 685.000 336.667 685.000 460.833 " stroke="none" fill-rule="evenodd" fill="#000000"></path></svg>