<svg width="1000" height="1000" viewBox="0 0 1000 1000" version="1.1" id="svg5" xmlns="http://www.w3.org/2000/svg" xmlns:svg="http://www.w3.org/2000/svg"><path d="M495.702 101.494 C 483.085 107.225,476.493 120.308,479.882 132.895 C 481.877 140.303,489.663 149.321,496.215 151.812 C 498.516 152.687,561.435 153.333,644.275 153.333 C 780.363 153.333,788.333 153.495,788.331 156.250 C 788.321 166.705,775.752 310.240,768.228 385.833 C 745.986 609.273,719.369 741.085,675.085 847.083 L 669.689 860.000 562.698 860.000 L 455.706 860.000 448.367 863.750 C 428.754 873.772,427.399 897.107,445.640 910.730 C 450.160 914.106,452.325 914.181,568.037 915.000 C 632.825 915.458,738.092 915.458,801.963 915.000 C 915.992 914.182,918.176 914.105,922.693 910.730 C 931.577 904.095,934.167 898.918,934.167 887.794 C 934.167 875.287,929.708 867.888,919.332 863.176 C 912.939 860.273,906.634 860.071,821.250 860.037 C 771.063 860.016,730.000 859.645,730.000 859.210 C 730.000 858.776,732.161 852.963,734.803 846.293 C 750.390 806.938,772.100 730.128,784.036 672.102 C 804.422 573.003,820.389 441.988,838.017 229.167 L 844.229 154.167 857.836 153.333 C 872.834 152.415,877.843 149.921,884.583 140.017 C 887.286 136.046,888.333 132.085,888.333 125.833 C 888.333 114.827,883.542 107.215,873.383 102.083 L 865.960 98.333 684.230 98.370 C 510.928 98.405,502.185 98.550,495.702 101.494 M115.802 165.656 C 108.706 168.748,100.368 178.842,99.033 185.958 C 96.847 197.614,103.382 210.604,113.957 215.622 C 119.065 218.046,132.056 218.333,236.502 218.333 L 353.333 218.333 353.333 223.931 C 353.333 232.113,343.968 340.750,339.088 389.167 C 324.259 536.316,312.085 613.023,291.476 689.167 C 280.723 728.895,261.235 784.048,256.042 789.451 C 255.010 790.523,215.992 801.625,169.334 814.120 C 122.675 826.616,82.392 837.930,79.815 839.262 C 73.499 842.529,66.667 854.549,66.667 862.395 C 66.667 876.025,77.249 888.057,90.557 889.557 C 96.247 890.198,116.181 885.431,185.498 866.851 C 233.755 853.916,274.381 843.333,275.779 843.333 C 277.177 843.333,282.636 841.863,287.910 840.066 C 293.185 838.269,334.208 826.963,379.073 814.942 C 423.938 802.921,462.691 792.027,465.191 790.734 C 470.972 787.745,476.702 779.732,478.381 772.290 C 481.872 756.811,468.210 739.987,452.166 740.008 C 448.683 740.013,419.219 747.138,386.690 755.842 C 354.162 764.545,326.692 771.667,325.647 771.667 C 324.505 771.667,327.248 760.820,332.516 744.496 C 357.775 666.234,373.480 583.425,388.276 450.486 C 393.313 405.229,403.364 297.524,406.675 253.333 C 409.488 215.788,408.326 218.855,420.061 218.006 C 431.167 217.203,436.795 213.983,443.064 204.847 C 446.282 200.158,446.849 197.548,446.313 189.891 C 445.514 178.449,440.527 170.837,430.998 166.509 C 424.495 163.556,416.882 163.408,272.500 163.435 C 150.862 163.458,119.837 163.898,115.802 165.656 M545.583 206.547 C 535.830 210.976,530.000 220.085,530.000 230.894 C 530.000 240.070,584.347 783.156,585.950 790.000 C 586.487 792.292,588.782 796.605,591.049 799.585 C 605.339 818.365,636.452 810.498,639.412 787.356 C 640.364 779.910,586.164 236.459,583.327 225.000 C 581.209 216.450,574.964 208.977,567.137 205.628 C 559.906 202.534,553.853 202.792,545.583 206.547 M152.102 254.876 C 147.669 258.088,144.409 262.269,142.556 267.121 C 139.788 274.370,140.125 278.254,163.173 504.844 C 180.768 677.820,187.293 736.649,189.370 741.026 C 194.663 752.180,206.827 758.258,219.207 755.936 C 227.036 754.467,237.820 744.635,240.087 736.900 C 241.533 731.964,237.486 687.859,218.365 500.181 C 205.440 373.322,194.052 267.947,193.058 266.014 C 184.867 250.090,165.849 244.918,152.102 254.876 " stroke="none" fill-rule="evenodd" fill="#000000"></path></svg>