<svg width="1000" height="1000" viewBox="0 0 1000 1000" version="1.1" id="svg5" xmlns="http://www.w3.org/2000/svg" xmlns:svg="http://www.w3.org/2000/svg"><path d="M400.299 54.470 C 387.001 61.023,381.288 78.135,388.119 90.956 C 390.036 94.555,411.115 118.500,434.961 144.167 L 478.317 190.833 331.242 191.667 L 184.167 192.500 178.816 196.316 C 165.193 206.034,161.721 221.515,170.268 234.440 C 179.100 247.795,148.663 246.667,500.000 246.667 C 851.337 246.667,820.900 247.795,829.732 234.440 C 838.279 221.515,834.807 206.034,821.184 196.316 L 815.833 192.500 684.855 192.045 L 553.878 191.589 491.678 124.312 C 453.720 83.256,427.284 55.989,423.849 54.351 C 416.686 50.935,407.377 50.982,400.299 54.470 M93.383 347.639 C 81.744 352.688,76.282 360.996,76.282 373.655 C 76.282 383.404,81.214 391.529,90.198 396.578 C 96.240 399.973,97.752 400.000,283.977 400.000 L 471.667 400.000 471.676 660.417 C 471.683 845.275,472.219 922.757,473.526 927.462 C 477.417 941.477,491.694 950.262,506.168 947.547 C 514.110 946.057,524.038 936.237,526.474 927.462 C 527.781 922.757,528.317 845.275,528.324 660.417 L 528.333 400.000 716.250 399.994 C 903.485 399.988,904.187 399.975,909.839 396.530 C 917.368 391.940,921.093 387.156,923.040 379.580 C 926.299 366.899,920.635 355.053,908.299 348.750 L 900.960 345.000 500.064 345.065 C 146.866 345.123,98.479 345.429,93.383 347.639 " stroke="none" fill-rule="evenodd" fill="#000000"></path></svg>