<svg width="1000" height="1000" viewBox="0 0 1000 1000" version="1.1" id="svg5" sodipodi:docname="羅.svg" inkscape:version="1.2.1 (9c6d41e410, 2022-07-14)" xmlns:inkscape="http://www.inkscape.org/namespaces/inkscape" xmlns:sodipodi="http://sodipodi.sourceforge.net/DTD/sodipodi-0.dtd" xmlns="http://www.w3.org/2000/svg" xmlns:svg="http://www.w3.org/2000/svg"><path d="M88.267 52.171 C 83.297 54.799,79.795 58.306,77.156 63.296 L 73.302 70.584 73.734 500.708 C 74.141 904.839,74.341 931.152,77.050 936.103 C 83.233 947.402,96.885 953.627,108.108 950.265 C 123.485 945.657,128.555 937.262,129.656 914.583 L 130.446 898.333 500.000 898.333 L 869.554 898.333 870.344 914.583 C 871.445 937.262,876.515 945.657,891.892 950.265 C 903.115 953.627,916.767 947.402,922.950 936.103 C 925.658 931.153,925.863 905.124,926.328 507.500 C 926.599 274.667,926.363 80.267,925.801 75.501 C 924.494 64.392,919.387 56.800,910.050 52.083 L 902.627 48.333 499.076 48.333 L 95.524 48.333 88.267 52.171 M870.000 473.333 L 870.000 843.333 500.000 843.333 L 130.000 843.333 130.000 473.333 L 130.000 103.333 500.000 103.333 L 870.000 103.333 870.000 473.333 M490.000 126.278 C 483.609 129.403,479.521 132.962,476.155 138.333 C 472.613 143.986,472.484 145.883,471.981 199.583 L 471.463 255.000 378.493 255.000 L 285.524 255.000 278.267 258.838 C 269.924 263.250,263.333 273.838,263.333 282.829 C 263.333 290.456,268.748 300.547,275.379 305.276 L 280.833 309.167 376.250 309.623 L 471.667 310.079 471.667 422.488 L 471.667 534.896 350.417 535.365 C 239.152 535.795,228.733 536.071,223.897 538.717 C 217.121 542.424,212.164 548.786,209.735 556.892 C 206.373 568.115,212.598 581.767,223.897 587.950 C 228.733 590.596,239.149 590.872,350.358 591.302 L 471.549 591.770 472.024 697.259 L 472.500 802.747 476.425 808.457 C 483.259 818.399,487.896 820.833,500.000 820.833 C 512.104 820.833,516.741 818.399,523.575 808.457 L 527.500 802.747 527.976 697.259 L 528.451 591.770 649.642 591.302 C 782.955 590.786,776.471 591.298,784.854 580.641 C 793.116 570.137,793.116 556.529,784.854 546.026 C 776.471 535.369,782.962 535.880,649.583 535.365 L 528.333 534.896 528.333 422.488 L 528.333 310.079 623.750 309.623 L 719.167 309.167 724.621 305.276 C 731.252 300.547,736.667 290.456,736.667 282.829 C 736.667 273.838,730.076 263.250,721.733 258.838 L 714.476 255.000 621.507 255.000 L 528.537 255.000 528.019 199.458 C 527.503 144.254,527.476 143.880,523.575 138.208 C 517.323 129.116,512.046 126.051,501.742 125.526 C 496.659 125.267,491.375 125.605,490.000 126.278 " stroke="none" fill-rule="evenodd" fill="#000000"></path></svg>