<svg width="1000" height="1000" viewBox="0 0 1000 1000" version="1.1" id="svg5" inkscape:version="1.2.1 (9c6d41e410, 2022-07-14)" sodipodi:docname="而.svg" xmlns:inkscape="http://www.inkscape.org/namespaces/inkscape" xmlns:sodipodi="http://sodipodi.sourceforge.net/DTD/sodipodi-0.dtd" xmlns="http://www.w3.org/2000/svg" xmlns:svg="http://www.w3.org/2000/svg"><path d="M634.132 53.281 C 626.782 54.948,620.573 59.519,616.279 66.422 L 612.500 72.500 611.667 254.897 L 610.833 437.294 387.500 541.974 C 222.195 619.457,162.997 647.939,159.665 651.596 C 147.889 664.519,151.513 685.602,166.855 693.429 C 180.622 700.453,170.070 704.816,398.987 597.446 C 515.304 542.889,610.745 498.523,611.077 498.855 C 611.410 499.187,611.491 581.961,611.257 682.796 L 610.833 866.133 560.271 829.758 C 527.216 805.979,507.329 792.743,502.837 791.533 C 486.008 787.002,470.000 800.027,470.000 818.251 C 470.000 826.342,472.854 832.471,479.435 838.509 C 482.037 840.897,516.634 866.181,556.316 894.696 C 605.044 929.711,630.337 946.891,634.232 947.622 C 648.304 950.262,662.632 941.304,666.474 927.462 C 667.774 922.781,668.329 854.742,668.362 695.833 L 668.410 470.833 743.496 435.833 C 805.292 407.028,819.576 399.745,824.197 394.683 C 841.303 375.944,824.769 346.349,799.490 350.460 C 796.562 350.936,766.042 364.513,731.667 380.631 L 669.167 409.937 668.333 241.218 L 667.500 72.500 663.666 66.334 C 657.289 56.079,645.254 50.760,634.132 53.281 " stroke="none" fill-rule="evenodd" fill="black"></path></svg>