<svg width="1000" height="1000" viewBox="0 0 1000 1000" version="1.1" id="svg5" sodipodi:docname="耳.svg" inkscape:version="1.2.1 (9c6d41e410, 2022-07-14)" xmlns:inkscape="http://www.inkscape.org/namespaces/inkscape" xmlns:sodipodi="http://sodipodi.sourceforge.net/DTD/sodipodi-0.dtd" xmlns="http://www.w3.org/2000/svg" xmlns:svg="http://www.w3.org/2000/svg"><path d="M308.333 53.535 C 303.598 55.417,295.658 62.544,292.773 67.500 C 291.418 69.828,290.582 92.200,290.000 141.667 L 289.167 212.500 180.833 212.500 L 72.500 212.500 66.334 216.334 C 59.778 220.411,54.463 227.855,52.667 235.479 C 49.863 247.375,59.869 262.957,72.578 266.486 C 77.040 267.724,113.227 268.318,184.670 268.324 L 290.174 268.333 289.194 336.250 C 286.451 526.277,278.886 613.490,258.238 693.152 C 239.554 765.234,209.254 822.438,156.321 885.557 C 137.213 908.343,133.729 915.202,135.761 926.035 C 137.363 934.575,148.556 945.766,157.059 947.330 C 172.282 950.130,179.349 944.894,207.445 910.000 C 244.001 864.599,269.177 823.325,288.207 777.600 C 296.620 757.387,310.303 715.304,314.388 697.083 L 317.470 683.333 577.068 683.333 L 836.667 683.333 836.703 698.750 C 836.747 717.093,839.839 725.499,849.161 732.609 C 861.706 742.177,882.126 737.101,888.952 722.717 C 891.939 716.423,891.943 715.800,891.727 337.330 L 891.667 232.160 887.917 226.650 C 885.854 223.619,882.049 219.571,879.461 217.653 L 874.756 214.167 610.295 213.333 L 345.833 212.500 345.000 141.667 C 344.418 92.200,343.582 69.828,342.227 67.500 C 334.898 54.907,320.158 48.833,308.333 53.535 M836.667 344.167 L 836.667 420.000 589.733 420.000 L 342.800 420.000 343.896 378.750 C 344.499 356.063,344.994 321.938,344.996 302.917 L 345.000 268.333 590.833 268.333 L 836.667 268.333 836.667 344.167 M836.667 550.833 L 836.667 626.667 582.354 626.667 L 328.040 626.667 329.008 620.417 C 332.212 599.734,337.576 542.074,339.127 511.667 C 339.664 501.125,340.509 488.563,341.005 483.750 L 341.907 475.000 589.287 475.000 L 836.667 475.000 836.667 550.833 " stroke="none" fill-rule="evenodd" fill="black"></path></svg>