<svg width="1000" height="1000" viewBox="0 0 1000 1000" version="1.1" id="svg5" xml:space="preserve" xmlns="http://www.w3.org/2000/svg" xmlns:svg="http://www.w3.org/2000/svg"><path d="M282.500 45.696 C 276.289 48.468,269.115 55.993,266.773 62.192 C 265.580 65.349,265.000 106.347,265.000 187.554 L 265.000 308.225 197.620 308.696 C 132.550 309.151,130.083 309.284,125.640 312.603 C 116.757 319.238,114.167 324.416,114.167 335.539 C 114.167 348.046,118.625 355.445,129.002 360.158 C 135.283 363.010,141.039 363.263,200.417 363.297 L 265.000 363.333 264.975 370.417 C 264.923 384.779,260.059 450.334,257.505 471.089 C 244.872 573.734,220.693 658.522,181.766 736.683 C 153.673 793.088,128.144 828.726,83.671 873.622 L 57.796 899.743 57.044 908.808 C 55.739 924.538,64.806 936.417,80.246 939.208 C 90.836 941.122,98.994 935.904,123.638 911.452 C 167.803 867.631,196.515 827.882,227.618 767.500 C 254.868 714.597,274.821 660.751,290.614 597.500 C 296.917 572.253,305.722 528.329,307.569 512.917 C 308.201 507.646,309.260 503.333,309.924 503.333 C 310.588 503.333,315.564 509.515,320.982 517.070 C 354.565 563.900,405.368 621.945,451.344 666.018 L 474.140 687.870 468.497 692.685 C 465.393 695.333,456.024 702.438,447.677 708.474 C 435.169 717.519,431.948 720.780,429.360 727.020 C 423.770 740.496,429.566 754.387,443.706 761.404 C 449.925 764.490,453.003 765.067,458.393 764.157 C 466.091 762.856,483.282 751.887,500.634 737.204 C 506.941 731.867,513.005 726.832,514.108 726.016 C 515.465 725.012,522.544 729.649,535.974 740.340 C 640.964 823.913,755.631 886.769,883.333 930.747 C 910.955 940.259,917.129 941.837,924.463 941.259 C 950.681 939.193,958.721 905.394,936.265 891.643 C 933.278 889.814,924.553 886.393,916.876 884.042 C 857.709 865.918,770.236 827.031,708.260 791.301 C 657.028 761.765,598.252 721.189,555.184 685.626 C 554.298 684.895,556.473 682.026,576.667 657.285 C 586.292 645.493,600.815 626.842,608.941 615.839 C 622.720 597.181,663.967 535.920,670.946 523.750 C 672.654 520.771,674.523 518.333,675.099 518.333 C 675.675 518.333,699.431 548.896,727.890 586.250 C 756.349 623.604,781.404 655.783,783.567 657.758 C 785.730 659.734,790.663 662.282,794.528 663.422 C 812.631 668.760,831.288 650.441,827.627 630.924 C 826.861 626.843,809.197 602.402,766.608 546.497 C 733.640 503.222,706.667 466.831,706.667 465.630 C 706.667 464.428,712.408 453.107,719.426 440.473 C 744.989 394.446,781.724 318.368,803.351 266.667 C 825.858 212.863,845.000 158.443,845.000 148.263 C 845.000 134.165,834.420 123.246,819.652 122.103 C 812.138 121.522,809.788 122.109,803.769 126.070 C 795.431 131.559,794.504 133.352,782.727 166.809 C 762.178 225.184,741.250 274.623,708.708 341.667 C 690.209 379.779,670.775 415.833,668.732 415.833 C 667.792 415.833,643.008 384.289,613.657 345.735 C 554.892 268.546,554.975 268.630,539.242 270.403 C 521.108 272.447,509.250 293.108,517.327 308.588 C 518.596 311.019,545.987 347.573,578.195 389.819 C 610.404 432.065,637.155 467.666,637.641 468.932 C 638.127 470.198,634.982 477.144,630.653 484.367 C 618.630 504.427,580.282 562.131,566.545 580.833 C 546.999 607.445,514.907 646.667,512.679 646.667 C 509.703 646.667,476.788 615.082,450.374 586.881 C 409.125 542.841,369.309 492.762,339.558 447.500 C 317.046 413.253,318.107 416.392,319.404 387.840 L 320.513 363.440 387.472 362.970 L 454.430 362.500 460.550 357.831 C 474.442 347.231,476.070 329.818,464.375 316.930 C 457.386 309.229,457.167 309.204,387.500 308.333 L 320.833 307.500 320.000 184.167 L 319.167 60.833 315.165 55.222 C 308.005 45.184,293.272 40.887,282.500 45.696 " stroke="none" fill-rule="evenodd" fill="black"></path></svg>