<svg width="1000" height="1000" viewBox="0 0 1000 1000" version="1.1" id="svg5" sodipodi:docname="船.svg" inkscape:version="1.2.1 (9c6d41e410, 2022-07-14)" xmlns:inkscape="http://www.inkscape.org/namespaces/inkscape" xmlns:sodipodi="http://sodipodi.sourceforge.net/DTD/sodipodi-0.dtd" xmlns="http://www.w3.org/2000/svg" xmlns:svg="http://www.w3.org/2000/svg"><path d="M274.473 80.751 C 266.169 83.709,261.887 87.662,258.135 95.833 C 255.343 101.913,255.070 107.890,255.037 163.684 L 255.000 224.867 162.917 225.350 C 79.327 225.789,70.347 226.099,65.564 228.717 C 58.788 232.424,53.831 238.786,51.402 246.892 C 47.503 259.908,57.014 275.960,70.912 279.819 C 75.312 281.041,106.968 281.651,166.250 281.657 L 255.000 281.667 255.000 442.094 C 255.000 541.912,255.617 604.674,256.634 608.219 C 258.308 614.057,264.900 622.107,270.833 625.560 C 273.299 626.995,328.197 627.717,481.667 628.333 L 689.167 629.167 690.063 637.500 C 691.130 647.414,693.198 651.521,700.011 657.254 C 705.913 662.219,714.175 664.172,722.599 662.591 C 730.455 661.118,741.150 651.294,743.291 643.586 C 744.385 639.648,744.985 574.719,744.991 459.583 L 745.000 281.667 833.750 281.657 C 893.032 281.651,924.688 281.041,929.088 279.819 C 942.986 275.960,952.497 259.908,948.598 246.892 C 946.169 238.786,941.212 232.424,934.436 228.717 C 929.653 226.099,920.673 225.789,837.083 225.350 L 745.000 224.867 744.963 163.684 C 744.930 107.729,744.663 101.919,741.839 95.702 C 736.379 83.680,723.667 77.056,711.421 79.851 C 704.148 81.511,699.763 84.400,694.645 90.904 C 690.843 95.736,690.832 95.909,690.361 160.374 L 689.888 225.000 500.000 225.000 L 310.112 225.000 309.639 160.417 C 309.168 95.957,309.159 95.824,305.332 90.726 C 297.896 80.823,285.511 76.819,274.473 80.751 M689.592 427.083 L 689.167 572.500 499.583 572.924 L 310.000 573.348 310.000 427.507 L 310.000 281.667 500.009 281.667 L 690.018 281.667 689.592 427.083 M652.500 677.362 C 636.707 684.411,630.730 704.761,640.584 717.926 C 643.693 722.080,832.004 898.404,848.755 912.847 C 860.434 922.916,873.895 923.255,885.175 913.764 C 894.438 905.970,897.357 893.868,892.677 882.665 C 889.736 875.628,682.792 682.163,673.709 677.960 C 666.288 674.526,659.295 674.329,652.500 677.362 M300.833 679.436 C 291.060 684.589,288.629 688.376,282.422 708.123 C 259.291 781.713,205.311 836.012,130.833 860.608 C 113.010 866.494,107.793 869.954,103.561 878.697 C 99.019 888.078,99.066 894.109,103.750 903.390 C 108.145 912.098,117.725 918.264,126.922 918.306 C 135.132 918.343,163.388 908.386,185.959 897.504 C 254.568 864.423,307.687 804.656,332.609 732.500 C 340.507 709.632,341.125 698.496,335.000 689.442 C 327.435 678.261,311.767 673.672,300.833 679.436 " stroke="none" fill-rule="evenodd" fill="black"></path></svg>