<svg width="1000" height="1000" viewBox="0 0 1000 1000" version="1.1" id="svg5" sodipodi:docname="色.svg" inkscape:version="1.2.1 (9c6d41e410, 2022-07-14)" xmlns:inkscape="http://www.inkscape.org/namespaces/inkscape" xmlns:sodipodi="http://sodipodi.sourceforge.net/DTD/sodipodi-0.dtd" xmlns="http://www.w3.org/2000/svg" xmlns:svg="http://www.w3.org/2000/svg"><path d="M382.378 67.457 C 377.826 69.726,372.877 73.663,371.381 76.207 C 369.884 78.752,363.377 94.708,356.922 111.667 C 319.147 210.899,287.968 272.805,239.593 344.623 C 199.049 404.815,155.788 454.614,98.037 507.571 C 82.248 522.050,78.531 529.147,80.695 540.684 C 82.249 548.964,92.274 559.145,101.250 561.558 C 113.126 564.750,118.913 562.021,139.319 543.607 C 180.267 506.655,218.364 465.615,251.432 422.835 C 259.084 412.936,265.984 405.061,266.764 405.335 C 267.545 405.609,308.392 441.417,357.535 484.907 C 420.916 540.998,446.676 564.783,446.165 566.740 C 445.033 571.067,413.301 613.978,385.833 648.327 C 293.722 763.514,210.452 839.659,135.487 877.256 C 116.073 886.992,111.229 891.345,108.069 901.892 C 102.904 919.131,120.618 939.048,138.255 935.833 C 153.898 932.982,215.145 895.999,247.500 869.868 C 322.052 809.656,404.140 720.245,475.757 621.250 C 482.886 611.396,489.304 603.333,490.020 603.333 C 490.736 603.333,575.148 677.521,677.603 768.194 C 879.342 946.734,870.344 939.479,884.440 934.979 C 892.578 932.381,901.063 924.380,903.495 917.009 C 905.749 910.179,904.630 899.727,901.061 894.280 C 899.646 892.121,817.266 818.538,717.994 730.762 C 618.722 642.985,533.992 567.800,529.704 563.682 L 521.908 556.196 533.178 539.348 C 602.897 435.128,668.788 317.976,725.449 197.500 C 735.808 175.474,738.797 167.471,738.874 161.549 C 738.998 152.130,733.956 143.363,725.333 138.001 L 719.167 134.167 563.750 133.717 C 478.271 133.469,408.333 133.013,408.333 132.702 C 408.333 132.392,411.333 124.051,415.000 114.167 C 418.667 104.283,421.667 94.101,421.667 91.540 C 421.667 80.844,415.191 71.571,404.167 66.483 C 395.348 62.414,392.220 62.553,382.378 67.457 M660.974 205.417 C 645.000 239.782,609.829 306.477,581.653 355.833 C 543.389 422.863,483.467 518.333,479.660 518.333 C 478.056 518.333,301.862 363.041,299.393 359.451 C 298.437 358.062,303.059 348.827,313.125 332.014 C 337.416 291.443,359.113 249.267,380.825 200.417 L 385.455 190.000 526.798 190.000 L 668.140 190.000 660.974 205.417 " stroke="none" fill-rule="evenodd" fill="black"></path></svg>