<svg width="1000" height="1000" viewBox="0 0 1000 1000" version="1.1" id="svg5" inkscape:version="1.2.1 (9c6d41e410, 2022-07-14)" sodipodi:docname="花.svg" xmlns:inkscape="http://www.inkscape.org/namespaces/inkscape" xmlns:sodipodi="http://sodipodi.sourceforge.net/DTD/sodipodi-0.dtd" xmlns="http://www.w3.org/2000/svg" xmlns:svg="http://www.w3.org/2000/svg"><path d="M782.500 50.886 C 781.583 51.155,778.655 51.859,775.993 52.451 C 772.819 53.156,762.775 61.675,746.826 77.188 C 687.970 134.435,610.927 192.417,516.187 250.763 L 503.208 258.756 380.354 204.877 C 267.431 155.352,256.735 150.990,248.039 150.915 C 237.902 150.827,232.443 153.593,226.170 161.996 C 222.655 166.704,220.649 179.051,222.319 185.704 C 225.212 197.231,227.633 198.505,338.167 246.667 C 437.533 289.962,443.158 292.638,439.746 295.000 C 431.253 300.879,363.245 336.181,333.343 350.233 C 241.984 393.166,166.508 421.382,95.263 439.240 C 79.367 443.224,64.639 447.612,62.535 448.990 C 47.868 458.601,47.712 484.324,62.263 493.858 C 72.101 500.304,77.957 500.338,103.468 494.100 C 177.054 476.107,251.491 448.862,342.500 406.612 C 387.472 385.733,469.751 342.778,498.333 325.255 C 501.542 323.288,505.409 321.676,506.928 321.673 C 508.447 321.669,599.691 360.988,709.693 409.046 C 819.695 457.105,912.353 497.160,915.599 498.056 C 922.825 500.051,931.362 498.297,938.231 493.406 C 949.987 485.035,952.560 468.449,943.994 456.261 C 939.046 449.221,937.800 448.644,753.291 368.024 C 651.144 323.391,567.382 286.265,567.152 285.520 C 566.923 284.776,575.908 278.186,587.118 270.877 C 619.175 249.975,671.929 212.618,697.479 192.727 C 740.433 159.284,796.073 109.270,806.938 94.333 C 815.630 82.385,812.325 63.650,800.156 55.877 C 794.428 52.217,786.043 49.848,782.500 50.886 M489.084 379.011 C 482.430 381.909,475.559 390.218,473.407 397.968 C 472.262 402.092,471.682 480.186,471.676 631.250 C 471.671 756.146,471.222 858.333,470.677 858.333 C 470.133 858.333,460.728 850.462,449.776 840.841 C 425.712 819.701,422.262 817.733,410.911 818.674 C 391.887 820.252,380.780 838.702,388.198 856.405 C 390.901 862.856,480.673 942.272,489.530 946.047 C 504.703 952.515,521.977 943.653,526.593 927.032 C 528.983 918.428,528.983 406.572,526.593 397.968 C 521.963 381.297,504.315 372.377,489.084 379.011 M640.648 534.841 C 629.864 541.417,624.190 555.497,627.962 566.318 C 628.899 569.005,662.993 621.431,703.728 682.822 C 773.847 788.496,778.189 794.633,785.255 798.053 C 794.308 802.436,798.767 802.532,807.569 798.534 C 820.806 792.521,827.417 779.448,823.553 766.923 C 822.520 763.573,788.485 710.974,747.921 650.034 C 695.215 570.855,672.550 538.155,668.504 535.451 C 661.222 530.585,648.098 530.298,640.648 534.841 M303.969 535.885 C 301.111 537.138,296.805 540.502,294.401 543.359 C 289.554 549.119,288.089 553.837,279.144 592.500 C 260.539 672.912,235.504 721.258,191.742 761.289 C 177.545 774.275,173.915 781.003,175.578 791.247 C 178.506 809.292,197.153 819.772,213.804 812.732 C 220.638 809.843,247.255 784.765,259.857 769.341 C 287.769 735.180,308.966 692.287,323.970 639.601 C 333.058 607.687,341.667 569.070,341.667 560.215 C 341.667 549.871,336.643 542.098,326.717 537.083 C 318.387 532.875,311.642 532.520,303.969 535.885 " stroke="none" fill-rule="evenodd" fill="black"></path></svg>