<svg width="1000" height="1000" viewBox="0 0 1000 1000" version="1.1" id="svg5" xmlns="http://www.w3.org/2000/svg" xmlns:svg="http://www.w3.org/2000/svg"><path d="M220.001 163.539 C 210.450 167.348,203.167 177.874,203.051 188.039 C 202.981 194.148,265.251 512.701,268.496 522.833 C 270.656 529.579,279.723 537.617,287.955 540.084 C 301.515 544.146,318.277 533.379,321.002 518.856 C 321.923 513.944,314.773 474.903,289.313 345.839 C 258.872 191.521,256.095 178.734,251.849 173.333 C 243.781 163.071,231.018 159.146,220.001 163.539 M402.500 164.019 C 392.883 168.294,386.667 178.124,386.667 189.056 C 386.667 192.085,401.298 268.723,419.182 359.365 C 442.452 477.310,452.566 525.351,454.752 528.333 C 459.254 534.475,467.519 539.570,475.042 540.840 C 489.121 543.219,505.000 529.335,505.000 514.646 C 505.000 511.404,490.354 434.611,472.453 343.994 C 446.346 211.836,439.174 178.153,436.203 173.760 C 429.242 163.466,413.792 159.001,402.500 164.019 M742.500 164.442 C 735.722 168.023,731.747 171.676,729.138 176.722 C 727.935 179.049,723.089 202.300,718.370 228.393 C 663.518 531.671,614.246 660.274,512.289 766.275 L 495.833 783.382 284.530 783.358 C 110.787 783.338,72.268 783.734,67.837 785.585 C 60.496 788.652,52.350 798.333,50.984 805.614 C 48.669 817.954,56.789 832.014,68.858 836.564 C 72.123 837.795,203.377 838.333,500.162 838.333 C 854.698 838.333,927.684 837.953,932.163 836.082 C 939.504 833.014,947.650 823.333,949.016 816.053 C 951.331 803.712,943.211 789.653,931.142 785.102 C 927.941 783.895,870.341 783.333,749.892 783.333 C 652.785 783.333,573.333 782.913,573.333 782.399 C 573.333 781.885,579.198 774.197,586.367 765.316 C 668.172 663.959,716.645 534.044,762.443 293.406 C 778.458 209.254,781.623 189.148,779.858 182.758 C 775.262 166.110,756.631 156.976,742.500 164.442 " stroke="none" fill-rule="evenodd" fill="#000000"></path></svg>