<svg width="1000" height="1000" viewBox="0 0 1000 1000" version="1.1" id="svg5" sodipodi:docname="菓.svg" inkscape:version="1.2.2 (732a01da63, 2022-12-09)" xmlns:inkscape="http://www.inkscape.org/namespaces/inkscape" xmlns:sodipodi="http://sodipodi.sourceforge.net/DTD/sodipodi-0.dtd" xmlns="http://www.w3.org/2000/svg" xmlns:svg="http://www.w3.org/2000/svg"><path d="M67.249 121.547 C 47.391 130.564,46.086 156.886,64.869 169.544 L 70.493 173.333 271.080 173.333 L 471.667 173.333 471.667 235.804 L 471.667 298.276 336.788 298.721 C 203.512 299.161,201.855 299.207,197.308 302.603 C 194.777 304.493,191.160 308.110,189.270 310.642 C 185.837 315.239,185.833 315.522,185.342 585.539 C 185.001 773.514,185.393 857.707,186.630 861.986 C 189.075 870.442,199.965 879.541,209.322 880.944 C 214.920 881.783,218.232 881.206,224.091 878.370 C 235.669 872.765,238.964 866.885,239.979 850.020 L 240.833 835.833 500.000 835.833 L 759.167 835.833 760.021 850.020 C 761.036 866.885,764.331 872.765,775.909 878.370 C 781.732 881.189,785.093 881.781,790.585 880.958 C 799.146 879.674,809.439 871.751,812.707 863.928 C 816.129 855.737,816.128 324.195,812.705 316.196 C 809.930 309.711,802.526 302.518,796.142 300.106 C 792.971 298.908,748.791 298.333,659.892 298.333 L 528.333 298.333 528.333 235.833 L 528.333 173.333 728.920 173.333 L 929.507 173.333 935.131 169.544 C 944.877 162.975,948.728 155.588,947.980 144.891 C 947.180 133.449,942.194 125.837,932.665 121.509 C 926.060 118.509,911.715 118.407,500.000 118.407 C 86.419 118.407,73.968 118.497,67.249 121.547 M471.667 446.678 L 471.667 540.023 356.250 539.595 L 240.833 539.167 240.400 448.333 C 240.162 398.375,240.326 356.563,240.765 355.417 C 241.392 353.778,266.109 353.333,356.614 353.333 L 471.667 353.333 471.667 446.678 M759.597 446.250 L 759.167 539.167 643.750 539.595 L 528.333 540.023 528.333 446.678 L 528.333 353.333 644.181 353.333 L 760.028 353.333 759.597 446.250 M471.667 687.500 L 471.667 780.000 355.833 780.000 L 240.000 780.000 240.000 687.500 L 240.000 595.000 355.833 595.000 L 471.667 595.000 471.667 687.500 M760.000 687.500 L 760.000 780.000 644.167 780.000 L 528.333 780.000 528.333 687.500 L 528.333 595.000 644.167 595.000 L 760.000 595.000 760.000 687.500 " stroke="none" fill-rule="evenodd" fill="#000000"></path></svg>