<svg width="1000" height="1000" viewBox="0 0 1000 1000" version="1.1" id="svg5" sodipodi:docname="虎.svg" inkscape:version="1.2.1 (9c6d41e410, 2022-07-14)" xmlns:inkscape="http://www.inkscape.org/namespaces/inkscape" xmlns:sodipodi="http://sodipodi.sourceforge.net/DTD/sodipodi-0.dtd" xmlns="http://www.w3.org/2000/svg" xmlns:svg="http://www.w3.org/2000/svg"><path d="M69.084 50.678 C 62.391 53.593,55.497 61.966,53.411 69.712 C 51.286 77.602,53.552 86.357,59.570 93.508 C 68.033 103.566,65.219 103.333,178.280 103.333 C 270.406 103.333,281.667 103.614,281.667 105.908 C 281.667 107.325,278.620 120.637,274.897 135.492 C 226.171 329.880,155.427 475.932,73.140 552.026 C 63.937 560.537,55.340 569.525,54.037 572.001 C 50.321 579.056,51.008 591.863,55.456 598.464 C 64.785 612.306,79.786 615.650,93.424 606.928 C 97.499 604.321,108.873 594.191,118.698 584.417 C 184.049 519.411,240.394 420.672,285.646 291.860 L 294.204 267.500 371.268 267.067 C 447.586 266.638,448.333 266.666,448.333 269.996 C 448.333 271.845,446.056 283.665,443.272 296.262 C 416.640 416.772,370.072 529.751,309.487 620.833 C 283.473 659.943,260.583 687.820,223.953 725.000 C 208.149 741.042,194.420 756.278,193.443 758.858 C 192.466 761.439,191.667 766.164,191.667 769.358 C 191.667 785.555,209.826 799.207,225.583 794.856 C 240.472 790.745,291.985 737.366,330.794 685.833 C 391.870 604.734,442.958 500.236,476.647 387.500 C 486.608 354.168,500.692 295.983,504.181 273.750 L 505.293 266.667 594.895 266.667 L 684.498 266.667 681.538 283.750 C 661.852 397.359,621.233 521.370,574.692 609.953 C 538.595 678.659,503.726 727.402,454.833 777.500 C 440.519 792.167,427.951 805.805,426.904 807.807 C 425.857 809.809,425.000 815.134,425.000 819.640 C 425.000 830.222,431.628 839.955,441.531 843.918 C 457.028 850.118,462.759 847.232,491.220 818.891 C 571.919 738.536,634.037 634.408,681.955 499.167 C 704.860 434.517,728.315 343.293,738.410 279.583 L 740.457 266.667 814.625 266.667 L 888.794 266.667 887.679 277.917 C 885.920 295.674,875.356 362.852,869.006 396.667 C 832.622 590.400,775.622 749.900,703.014 861.147 C 695.722 872.320,688.696 882.341,687.401 883.416 C 685.515 884.981,673.172 878.964,625.484 853.238 C 559.791 817.798,556.536 816.598,543.795 823.098 C 526.031 832.161,524.108 856.685,540.219 868.724 C 543.307 871.032,577.345 889.888,615.860 910.627 C 691.856 951.548,692.793 951.910,706.232 945.533 C 719.855 939.068,767.496 866.600,797.366 806.904 C 866.451 668.836,922.281 463.983,944.951 265.383 C 948.397 235.186,947.754 229.108,940.261 221.101 C 930.713 210.897,954.703 211.609,620.266 211.600 C 451.717 211.595,313.449 211.227,313.004 210.782 C 312.559 210.337,315.814 196.667,320.237 180.403 C 324.659 164.140,331.742 135.458,335.975 116.667 C 346.560 69.684,345.513 60.879,328.299 52.083 L 320.960 48.333 197.564 48.399 C 98.741 48.451,73.154 48.905,69.084 50.678 " stroke="none" fill-rule="evenodd" fill="black"></path></svg>