<svg width="1000" height="1000" viewBox="0 0 1000 1000" version="1.1" id="svg5" sodipodi:docname="虫.svg" inkscape:version="1.2.1 (9c6d41e410, 2022-07-14)" xmlns:inkscape="http://www.inkscape.org/namespaces/inkscape" xmlns:sodipodi="http://sodipodi.sourceforge.net/DTD/sodipodi-0.dtd" xmlns="http://www.w3.org/2000/svg" xmlns:svg="http://www.w3.org/2000/svg"><path d="M486.619 51.822 C 483.384 53.698,478.884 57.938,476.619 61.243 L 472.500 67.253 472.030 185.293 L 471.560 303.333 349.997 303.333 L 228.434 303.333 227.967 230.292 L 227.500 157.252 223.362 151.215 C 211.851 134.422,189.921 134.146,177.603 150.641 C 174.243 155.140,174.157 157.287,173.709 247.314 L 173.252 339.387 177.043 344.957 C 179.128 348.020,182.951 352.096,185.538 354.013 C 190.213 357.478,191.138 357.503,330.955 357.944 L 471.667 358.389 471.667 405.896 L 471.667 453.403 298.634 453.295 C 185.717 453.225,124.194 453.772,121.551 454.870 C 115.659 457.317,112.536 460.159,108.551 466.696 L 105.012 472.500 105.006 638.804 C 105.001 774.720,105.411 806.092,107.252 810.496 C 110.319 817.837,120.000 825.983,127.280 827.349 C 139.621 829.664,153.681 821.544,158.231 809.475 C 159.430 806.295,160.000 757.027,160.000 656.558 L 160.000 508.333 315.833 508.333 L 471.667 508.333 471.676 713.750 C 471.682 849.910,472.266 921.256,473.407 925.365 C 476.885 937.891,487.841 946.667,500.000 946.667 C 512.159 946.667,523.115 937.891,526.593 925.365 C 527.734 921.256,528.318 849.910,528.324 713.750 L 528.333 508.333 684.167 508.333 L 840.000 508.333 840.000 640.165 L 840.000 771.996 834.583 768.794 C 831.604 767.033,797.292 746.197,758.333 722.492 C 719.375 698.787,684.724 678.028,681.331 676.362 C 666.224 668.946,649.015 676.952,643.383 694.016 C 640.790 701.873,643.651 711.971,650.517 719.195 C 653.441 722.272,701.208 752.338,756.667 786.009 C 848.285 841.633,858.262 847.285,865.833 847.850 C 877.090 848.691,886.120 843.554,891.250 833.390 L 895.000 825.960 894.963 650.897 C 894.928 483.776,894.786 475.523,891.824 469.002 C 890.118 465.244,886.197 460.369,883.111 458.168 L 877.500 454.167 702.917 453.727 L 528.333 453.288 528.333 405.811 L 528.333 358.333 650.000 358.333 L 771.667 358.333 771.667 365.054 C 771.667 374.261,775.045 381.564,782.216 387.860 C 795.673 399.676,816.382 395.336,824.094 379.084 C 826.697 373.599,826.929 363.825,826.766 266.392 C 826.576 152.101,826.666 153.361,818.131 145.528 C 805.707 134.124,786.553 136.749,776.638 151.215 L 772.500 157.252 772.033 230.292 L 771.566 303.333 650.003 303.333 L 528.440 303.333 527.970 185.293 L 527.500 67.253 523.362 61.215 C 514.927 48.907,498.765 44.776,486.619 51.822 " stroke="none" fill-rule="evenodd" fill="#000000"></path></svg>