<svg width="1000" height="1000" viewBox="0 0 1000 1000" version="1.1" id="svg5" xmlns="http://www.w3.org/2000/svg" xmlns:svg="http://www.w3.org/2000/svg"><path d="M386.092 52.412 C 376.919 55.710,372.551 60.496,366.415 73.969 C 356.076 96.672,328.824 149.290,317.542 168.333 C 304.304 190.679,269.024 244.376,266.595 245.877 C 265.680 246.443,243.907 226.415,218.212 201.370 C 192.516 176.325,169.106 154.521,166.189 152.917 C 155.733 147.167,142.901 150.191,133.806 160.549 C 130.887 163.875,127.989 169.309,127.367 172.625 C 124.901 185.767,127.178 188.839,172.167 233.078 C 195.267 255.793,218.104 277.996,222.917 282.417 C 227.729 286.839,231.667 291.181,231.667 292.067 C 231.667 296.218,182.859 351.743,156.395 377.698 C 123.334 410.122,96.062 431.445,70.216 445.078 C 56.864 452.121,51.026 460.164,51.026 471.518 C 51.026 486.379,62.815 498.526,77.455 498.747 C 107.412 499.200,193.520 427.217,257.746 348.030 C 264.944 339.155,271.324 331.843,271.923 331.780 C 272.522 331.718,310.199 368.017,355.648 412.444 C 401.097 456.872,440.732 494.488,443.724 496.035 C 450.462 499.520,461.244 499.499,468.032 495.989 C 480.498 489.543,486.538 473.091,480.844 461.092 C 479.061 457.334,445.553 423.407,392.321 371.460 C 345.211 325.487,306.667 287.276,306.667 286.545 C 306.667 285.814,313.321 275.605,321.454 263.858 C 366.956 198.137,421.667 96.974,421.667 78.558 C 421.667 60.305,402.768 46.416,386.092 52.412 M740.614 51.731 C 733.663 53.856,723.734 65.070,722.683 71.984 C 722.221 75.018,721.422 113.500,720.908 157.500 C 719.010 319.753,711.940 444.388,698.265 556.667 C 694.340 588.890,685.345 647.110,683.535 652.003 C 682.589 654.562,669.387 624.791,630.074 531.450 C 581.573 416.291,577.888 406.850,578.114 398.333 C 578.248 393.292,579.100 374.917,580.008 357.500 C 583.256 295.189,585.013 236.245,586.017 155.833 L 587.038 74.167 583.014 66.755 C 578.401 58.255,567.844 51.667,558.838 51.667 C 551.211 51.667,541.120 57.082,536.390 63.712 C 532.536 69.116,532.489 69.751,531.328 131.667 C 528.703 271.550,526.076 343.189,520.753 420.000 C 507.621 609.470,481.871 743.048,442.432 826.286 C 431.879 848.558,426.349 857.984,405.244 889.674 C 390.440 911.903,389.374 914.066,389.489 921.663 C 389.859 946.177,418.343 958.237,435.429 941.116 C 441.790 934.741,465.730 898.962,478.139 877.284 C 516.936 809.509,545.054 705.274,562.717 563.756 C 565.262 543.363,567.840 527.238,568.444 527.922 C 569.049 528.607,585.111 566.292,604.137 611.667 C 623.164 657.042,640.230 696.891,642.062 700.220 C 645.953 707.291,655.932 713.448,664.183 713.870 C 667.374 714.033,669.988 715.001,669.993 716.020 C 669.997 717.039,666.999 728.490,663.332 741.467 C 647.184 798.604,629.457 837.793,599.159 883.333 L 579.754 912.500 580.388 921.920 C 580.859 928.917,582.170 932.845,585.483 937.188 C 593.847 948.154,611.276 951.275,621.628 943.660 C 631.430 936.448,661.009 891.675,677.447 859.167 C 712.431 789.980,739.412 683.783,753.559 559.583 C 754.682 549.729,756.034 541.667,756.565 541.667 C 757.096 541.667,788.554 629.229,826.473 736.250 C 864.391 843.271,897.130 933.529,899.226 936.823 C 903.885 944.147,913.335 948.886,922.989 948.741 C 936.776 948.532,948.642 936.172,948.871 921.781 C 948.931 917.976,916.354 824.053,858.447 661.081 L 767.928 406.328 770.670 351.081 C 774.469 274.537,776.612 194.380,776.642 127.727 C 776.666 73.862,776.511 71.009,773.245 65.198 C 766.732 53.611,753.002 47.945,740.614 51.731 M256.668 378.539 C 254.376 379.453,250.743 381.843,248.592 383.850 C 239.520 392.320,240.000 379.811,240.000 607.971 L 240.000 819.441 231.063 818.700 C 215.111 817.377,203.245 826.769,200.726 842.711 C 199.710 849.143,201.059 852.374,221.603 892.711 C 233.682 916.428,245.201 937.617,247.199 939.798 C 258.906 952.571,279.747 950.455,290.029 935.450 L 294.167 929.411 294.656 668.456 C 294.926 524.930,294.688 404.281,294.127 400.346 C 291.749 383.652,272.275 372.315,256.668 378.539 M321.522 535.466 C 314.701 540.062,308.398 550.648,308.361 557.570 C 308.336 562.178,368.051 766.323,374.264 782.869 C 377.400 791.219,384.329 797.499,393.408 800.219 C 406.684 804.197,422.721 794.655,426.529 780.511 C 428.659 772.601,430.288 778.667,387.786 636.235 C 366.923 566.318,359.611 543.948,356.526 540.603 C 347.782 531.120,331.513 528.733,321.522 535.466 M171.667 537.069 C 159.417 543.599,157.571 548.766,153.346 588.333 C 143.656 679.085,133.622 724.627,114.238 765.844 C 107.547 780.071,106.509 783.644,107.118 790.346 C 108.496 805.518,121.440 816.086,136.831 814.608 C 148.955 813.443,154.601 808.130,164.023 789.023 C 186.080 744.294,200.637 677.758,210.163 578.133 C 212.117 557.697,212.069 556.883,208.469 549.446 C 201.512 535.075,185.506 529.692,171.667 537.069 " stroke="none" fill-rule="evenodd" fill="black"></path></svg>