<svg width="1000" height="1000" viewBox="0 0 1000 1000" version="1.1" id="svg5" sodipodi:docname="血.svg" inkscape:version="1.2.2 (732a01da63, 2022-12-09)" xmlns:inkscape="http://www.inkscape.org/namespaces/inkscape" xmlns:sodipodi="http://sodipodi.sourceforge.net/DTD/sodipodi-0.dtd" xmlns="http://www.w3.org/2000/svg" xmlns:svg="http://www.w3.org/2000/svg"><path d="M261.871 50.142 C 255.320 51.527,249.119 55.814,244.270 62.308 C 240.857 66.879,240.830 68.096,240.394 242.622 L 239.955 418.333 221.644 418.333 C 208.108 418.333,203.333 417.790,203.331 416.250 C 203.326 410.769,173.060 205.177,171.599 200.692 C 169.848 195.320,163.409 188.397,157.193 185.204 C 155.191 184.175,149.864 183.333,145.356 183.333 C 134.865 183.333,127.235 188.262,121.763 198.573 L 117.694 206.243 132.311 309.371 C 140.351 366.092,147.295 413.813,147.743 415.417 C 148.491 418.094,146.646 418.333,125.221 418.333 C 112.385 418.333,99.772 419.131,97.192 420.106 C 86.847 424.015,78.333 436.011,78.333 446.680 C 78.333 453.837,83.916 464.000,90.379 468.610 L 95.833 472.500 167.083 472.968 L 238.333 473.436 238.284 487.968 C 238.181 518.415,231.056 570.156,221.680 608.551 C 195.948 713.930,140.903 816.814,71.536 889.184 C 52.953 908.571,51.314 911.182,51.156 921.636 C 50.928 936.753,62.936 948.718,78.333 948.718 C 88.729 948.718,94.300 945.287,109.250 929.679 C 154.185 882.766,192.195 827.445,224.114 762.500 C 250.718 708.370,267.302 660.608,279.942 601.716 L 284.403 580.932 344.805 651.716 C 378.027 690.647,407.835 724.321,411.046 726.547 C 415.201 729.428,419.253 730.629,425.107 730.714 C 429.630 730.780,433.332 730.875,433.332 730.926 C 433.357 732.891,418.835 765.746,412.185 778.771 C 397.047 808.420,383.551 827.716,356.130 858.915 C 341.751 875.275,340.000 878.544,340.000 889.029 C 340.000 902.539,352.592 915.000,366.245 915.000 C 370.325 915.000,376.134 913.827,379.155 912.394 C 388.909 907.765,427.969 860.401,445.789 831.592 C 477.193 780.825,501.754 711.991,519.187 625.890 C 523.402 605.076,535.000 534.804,535.000 530.084 C 535.000 528.604,535.568 528.281,536.465 529.250 C 537.271 530.121,557.233 566.833,580.824 610.833 C 604.416 654.833,625.605 693.350,627.912 696.427 C 632.893 703.070,640.671 706.667,650.059 706.667 C 657.977 706.667,658.079 704.802,648.784 730.000 C 630.749 778.895,611.023 812.382,576.873 852.075 C 566.821 863.758,557.725 875.961,556.658 879.193 C 550.362 898.271,569.946 918.733,589.469 913.476 C 597.132 911.413,604.162 904.978,622.399 883.333 C 650.390 850.111,664.085 829.210,681.637 792.926 C 710.959 732.310,732.416 654.902,746.142 560.222 C 747.754 549.100,749.529 540.000,750.086 540.000 C 750.643 540.000,787.719 620.813,832.477 719.583 C 877.235 818.354,915.712 901.684,917.981 904.760 C 923.340 912.027,931.898 915.562,941.823 914.608 C 956.489 913.199,967.857 899.864,966.249 885.956 C 965.767 881.792,926.000 792.200,863.390 654.225 L 761.316 429.283 763.979 389.225 C 768.583 319.968,770.327 269.710,770.584 198.890 C 770.827 131.999,770.747 130.164,767.397 125.660 C 754.707 108.597,733.672 108.589,720.936 125.640 C 717.685 129.994,717.438 133.255,716.340 186.370 C 712.123 390.325,702.029 510.092,680.006 617.500 C 673.110 651.132,671.245 658.471,669.723 657.957 C 668.979 657.706,640.877 606.500,607.275 544.167 C 551.501 440.704,546.198 430.180,546.375 423.333 C 546.483 419.208,547.344 404.583,548.290 390.833 C 553.401 316.542,557.824 148.356,554.997 135.818 C 550.618 116.403,527.789 107.392,512.509 119.047 C 500.742 128.022,501.033 125.980,499.777 208.333 C 498.281 306.304,496.267 348.412,488.396 446.195 C 484.644 492.814,475.961 557.586,467.443 602.500 C 462.048 630.949,451.930 674.604,448.768 683.076 C 447.439 686.635,440.521 679.039,371.571 598.323 C 329.915 549.560,295.227 508.600,294.485 507.303 C 293.743 506.005,293.654 497.896,294.286 489.281 L 295.436 473.618 365.055 473.486 C 403.346 473.413,436.061 472.852,437.754 472.239 C 447.960 468.544,456.667 456.778,456.667 446.680 C 456.667 436.011,448.153 424.015,437.808 420.106 C 435.228 419.131,422.203 418.333,408.864 418.333 L 384.611 418.333 385.702 414.583 C 400.748 362.851,407.339 324.510,414.995 244.167 C 420.178 189.781,419.658 184.994,407.564 175.769 C 396.110 167.033,381.199 168.746,371.065 179.963 C 364.373 187.370,364.664 185.885,359.972 236.667 C 352.652 315.903,345.236 359.591,332.814 396.667 L 325.833 417.500 310.439 417.979 L 295.045 418.458 294.606 242.684 C 294.170 68.096,294.143 66.879,290.730 62.308 C 283.282 52.333,272.668 47.858,261.871 50.142 " stroke="none" fill-rule="evenodd" fill="#000000"></path></svg>