<svg width="1000" height="1000" viewBox="0 0 1000 1000" version="1.1" id="svg5" sodipodi:docname="行.svg" inkscape:version="1.2.1 (9c6d41e410, 2022-07-14)" xmlns:inkscape="http://www.inkscape.org/namespaces/inkscape" xmlns:sodipodi="http://sodipodi.sourceforge.net/DTD/sodipodi-0.dtd" xmlns="http://www.w3.org/2000/svg" xmlns:svg="http://www.w3.org/2000/svg"><path d="M332.500 59.116 C 324.278 62.090,317.439 69.450,315.112 77.828 C 314.132 81.356,313.348 99.845,313.343 119.528 L 313.333 154.889 247.785 155.361 L 182.236 155.833 176.116 160.503 C 168.140 166.589,165.000 172.945,165.000 183.004 C 165.000 192.048,169.106 199.677,177.203 205.680 C 181.761 209.059,183.937 209.181,247.572 209.639 L 313.238 210.111 313.702 315.472 C 314.221 433.147,313.545 426.573,326.118 436.164 L 332.239 440.833 480.880 441.276 L 629.521 441.719 630.486 453.234 C 631.916 470.290,636.327 477.243,649.105 482.582 C 663.159 488.454,680.579 479.468,684.806 464.167 C 686.074 459.578,686.651 418.947,686.657 333.805 L 686.667 210.111 752.380 209.639 C 816.064 209.181,818.239 209.059,822.797 205.680 C 830.894 199.677,835.000 192.048,835.000 183.004 C 835.000 172.945,831.860 166.589,823.884 160.503 L 817.764 155.833 752.215 155.361 L 686.667 154.889 686.657 119.528 C 686.647 80.145,685.543 73.543,677.644 65.644 C 664.871 52.871,644.468 55.572,634.667 71.334 C 631.002 77.229,630.809 79.205,630.282 116.250 L 629.731 155.000 500.000 155.000 L 370.269 155.000 369.718 116.250 C 369.191 79.205,368.998 77.229,365.333 71.334 C 358.139 59.765,344.617 54.733,332.500 59.116 M630.000 298.333 L 630.000 386.667 500.000 386.667 L 370.000 386.667 370.000 298.333 L 370.000 210.000 500.000 210.000 L 630.000 210.000 630.000 298.333 M268.895 419.191 C 264.384 421.894,260.739 425.864,258.478 430.534 C 255.188 437.331,255.000 440.429,255.000 487.948 L 255.000 538.176 162.793 538.671 L 70.586 539.167 63.828 543.640 C 56.687 548.367,49.972 559.632,50.037 566.776 C 50.084 572.070,55.328 583.396,59.409 587.020 C 68.311 594.924,69.310 595.000,164.946 595.000 L 255.000 595.000 255.000 730.054 C 255.000 847.819,255.328 865.892,257.564 871.243 C 261.017 879.507,264.570 883.224,272.500 886.865 C 278.853 889.783,288.820 889.929,484.422 889.963 L 689.678 890.000 690.256 905.417 C 690.942 923.740,694.346 930.090,706.321 935.387 C 720.052 941.461,735.341 935.274,741.811 921.027 C 744.784 914.482,744.928 906.843,744.963 754.583 L 745.000 595.000 835.417 594.963 C 919.579 594.929,926.294 594.715,932.500 591.865 C 953.571 582.190,955.129 555.310,935.333 543.001 L 929.167 539.167 837.083 538.671 L 745.000 538.176 745.000 487.948 C 745.000 440.358,744.816 437.340,741.507 430.503 C 734.647 416.332,715.526 410.485,703.203 418.790 C 700.110 420.874,695.874 425.110,693.790 428.203 C 690.048 433.755,690.000 434.489,690.000 486.080 L 690.000 538.333 500.000 538.333 L 310.000 538.333 310.000 486.080 C 310.000 434.489,309.952 433.755,306.210 428.203 C 297.153 414.762,282.277 411.169,268.895 419.191 M689.594 714.583 L 689.167 834.167 499.583 834.590 L 310.000 835.014 310.000 715.007 L 310.000 595.000 500.011 595.000 L 690.022 595.000 689.594 714.583 " stroke="none" fill-rule="evenodd" fill="black"></path></svg>