<svg width="1000" height="1000" viewBox="0 0 1000 1000" version="1.1" id="svg5" sodipodi:docname="術.svg" inkscape:version="1.2.1 (9c6d41e410, 2022-07-14)" xmlns:inkscape="http://www.inkscape.org/namespaces/inkscape" xmlns:sodipodi="http://sodipodi.sourceforge.net/DTD/sodipodi-0.dtd" xmlns="http://www.w3.org/2000/svg" xmlns:svg="http://www.w3.org/2000/svg"><path d="M282.759 52.431 C 276.041 54.826,269.358 60.201,266.097 65.833 C 264.669 68.298,263.950 131.679,263.333 309.167 L 262.500 549.167 200.417 549.604 L 138.333 550.041 138.297 412.104 C 138.262 281.189,138.102 273.819,135.158 267.335 C 130.830 257.806,123.217 252.820,111.776 252.020 C 101.078 251.272,93.691 255.123,87.123 264.869 L 83.333 270.493 83.333 427.078 C 83.333 602.586,82.521 591.105,95.554 599.732 L 102.253 604.167 181.337 604.631 L 260.422 605.095 259.233 618.797 C 258.579 626.334,256.207 643.000,253.961 655.833 C 233.960 770.158,189.964 852.315,133.521 880.739 C 118.062 888.524,106.829 891.565,86.949 893.349 C 74.423 894.473,68.201 895.840,64.116 898.365 C 46.650 909.159,46.945 934.313,64.667 945.333 C 69.972 948.631,72.761 949.118,84.630 948.815 C 131.034 947.632,170.994 929.361,207.529 892.622 C 253.743 846.151,286.685 774.824,305.728 680.000 C 308.894 664.235,316.667 611.490,316.667 605.770 C 316.667 605.346,345.070 605.000,379.786 605.000 L 442.905 605.000 443.656 623.213 C 444.306 639.011,444.939 642.205,448.424 647.291 C 459.958 664.123,483.436 664.035,495.029 647.117 L 499.167 641.078 499.167 455.833 L 499.167 270.589 495.029 264.550 C 483.377 247.546,459.958 247.545,448.305 264.549 L 444.167 270.587 443.704 410.314 L 443.242 550.040 381.204 549.604 L 319.167 549.167 318.333 309.167 C 317.715 130.974,317.000 68.308,315.560 65.833 C 312.107 59.900,304.057 53.308,298.219 51.634 C 291.136 49.602,290.617 49.629,282.759 52.431 M732.759 52.431 C 726.041 54.826,719.358 60.201,716.097 65.833 C 714.669 68.298,713.950 131.679,713.333 309.167 L 712.500 549.167 650.417 549.604 L 588.333 550.041 588.297 412.104 C 588.262 281.189,588.102 273.819,585.158 267.335 C 580.830 257.806,573.217 252.820,561.776 252.020 C 551.078 251.272,543.691 255.123,537.123 264.869 L 533.333 270.493 533.333 427.078 C 533.333 602.586,532.521 591.105,545.554 599.732 L 552.253 604.167 632.793 604.630 L 713.333 605.092 713.336 765.463 C 713.339 945.128,712.428 931.878,725.498 942.322 C 737.911 952.241,756.624 947.879,764.911 933.135 C 768.297 927.110,768.333 925.351,768.333 766.023 L 768.333 605.000 830.619 605.000 L 892.905 605.000 893.656 623.213 C 894.306 639.011,894.939 642.205,898.424 647.291 C 909.958 664.123,933.436 664.035,945.029 647.117 L 949.167 641.078 949.167 455.833 L 949.167 270.589 945.029 264.550 C 933.377 247.546,909.958 247.545,898.305 264.549 L 894.167 270.587 893.704 410.314 L 893.242 550.040 831.204 549.604 L 769.167 549.167 768.333 309.167 C 767.715 130.974,767.000 68.308,765.560 65.833 C 762.107 59.900,754.057 53.308,748.219 51.634 C 741.136 49.602,740.617 49.629,732.759 52.431 " stroke="none" fill-rule="evenodd" fill="black"></path></svg>