<svg width="1000" height="1000" viewBox="0 0 1000 1000" version="1.1" id="svg5" sodipodi:docname="衣.svg" inkscape:version="1.2.1 (9c6d41e410, 2022-07-14)" xmlns:inkscape="http://www.inkscape.org/namespaces/inkscape" xmlns:sodipodi="http://sodipodi.sourceforge.net/DTD/sodipodi-0.dtd" xmlns="http://www.w3.org/2000/svg" xmlns:svg="http://www.w3.org/2000/svg"><path d="M122.465 101.540 C 98.289 107.381,93.434 138.796,114.667 151.999 L 120.833 155.833 268.750 156.293 L 416.667 156.753 416.667 516.764 C 416.667 910.312,415.958 883.233,426.492 892.097 C 439.510 903.051,456.575 900.518,467.397 886.025 C 470.804 881.462,470.837 880.067,471.292 721.128 L 471.750 560.833 475.478 567.442 C 478.114 572.112,505.840 596.478,570.020 650.524 C 619.967 692.585,663.761 729.176,667.340 731.837 C 680.065 741.301,693.235 741.353,703.343 731.980 C 712.034 723.921,750.719 656.805,777.533 603.268 C 831.098 496.317,865.944 390.553,884.200 279.518 C 891.732 233.707,898.028 171.427,898.656 136.524 C 898.906 122.599,898.465 119.774,895.221 114.524 C 893.174 111.212,888.724 106.776,885.333 104.667 L 879.167 100.833 503.333 100.578 C 296.625 100.438,125.234 100.870,122.465 101.540 M840.956 175.417 C 839.352 200.783,834.171 243.913,829.153 273.674 C 814.801 358.795,794.338 428.439,758.739 513.333 C 740.605 556.576,682.612 668.333,678.306 668.333 C 677.454 668.333,640.549 637.870,596.295 600.637 C 552.041 563.404,513.420 531.904,510.470 530.637 C 496.369 524.580,482.573 530.398,474.436 545.833 C 472.019 550.418,471.795 534.473,471.733 353.750 L 471.667 156.667 656.904 156.667 L 842.141 156.667 840.956 175.417 " stroke="none" fill-rule="evenodd" fill="black"></path></svg>