<svg width="1000" height="1000" viewBox="0 0 1000 1000" version="1.1" id="svg5" inkscape:version="1.2.1 (9c6d41e410, 2022-07-14)" sodipodi:docname="裁.svg" xmlns:inkscape="http://www.inkscape.org/namespaces/inkscape" xmlns:sodipodi="http://sodipodi.sourceforge.net/DTD/sodipodi-0.dtd" xmlns="http://www.w3.org/2000/svg" xmlns:svg="http://www.w3.org/2000/svg"><path d="M350.648 54.841 C 347.795 56.580,343.670 60.515,341.481 63.585 L 337.500 69.167 336.667 138.807 L 335.833 208.448 200.000 270.884 C 99.383 317.134,63.001 334.600,59.672 338.254 C 43.641 355.849,55.426 383.389,79.140 383.747 C 84.987 383.836,106.974 374.283,208.509 327.540 C 275.787 296.567,332.146 270.862,333.750 270.418 C 336.445 269.673,336.667 271.765,336.667 297.962 C 336.667 328.554,334.747 353.041,330.693 374.167 C 317.930 440.672,284.065 498.464,232.856 541.128 C 187.568 578.860,129.999 605.709,85.266 609.963 C 67.541 611.649,60.788 615.058,55.089 625.198 C 48.004 637.805,52.006 652.542,64.869 661.210 C 77.553 669.758,118.469 663.781,160.503 647.242 C 205.986 629.345,244.432 605.115,283.560 569.685 L 297.954 556.652 484.572 557.076 L 671.190 557.500 585.773 660.833 C 538.794 717.667,499.584 764.167,498.641 764.167 C 497.698 764.167,477.814 743.475,454.454 718.184 C 429.715 691.401,410.003 671.441,407.241 670.379 C 398.080 666.858,395.107 666.509,388.773 668.215 C 382.428 669.923,373.778 677.495,370.200 684.474 C 367.349 690.034,367.970 701.884,371.408 707.522 C 374.083 711.908,416.964 759.047,479.800 826.677 C 490.452 838.141,519.359 869.416,544.039 896.178 C 569.584 923.878,591.002 945.701,593.766 946.846 C 606.849 952.265,623.292 946.310,629.112 934.046 C 632.835 926.200,632.695 914.416,628.807 908.383 C 627.172 905.844,605.958 882.231,581.667 855.909 C 557.375 829.586,537.500 807.463,537.500 806.747 C 537.500 806.030,581.750 751.936,635.833 686.537 C 762.104 533.849,756.309 541.100,757.609 534.170 C 759.414 524.551,756.992 516.583,750.278 510.053 L 744.167 504.108 837.623 504.137 L 931.080 504.167 937.383 499.364 C 947.976 491.292,951.487 476.494,945.417 465.498 C 940.114 455.892,845.047 350.402,839.188 347.622 C 822.185 339.554,802.205 350.974,800.396 369.794 C 799.870 375.274,800.506 379.478,802.424 383.186 C 803.961 386.158,817.169 402.007,831.776 418.405 C 846.383 434.803,858.333 448.734,858.333 449.364 C 858.333 451.383,753.345 448.565,730.833 445.942 C 702.608 442.653,692.189 440.716,675.012 435.561 C 642.710 425.867,625.891 412.122,619.341 390.067 C 617.043 382.328,616.667 369.399,616.667 298.145 L 616.667 215.229 736.250 274.413 C 850.267 330.842,856.169 333.553,863.054 332.645 C 872.692 331.374,878.642 327.612,883.941 319.441 C 890.650 309.093,889.519 295.954,881.139 286.902 C 877.158 282.602,633.244 161.002,623.144 158.282 L 616.915 156.605 616.374 113.593 L 615.833 70.581 611.399 63.884 C 605.520 55.007,597.091 51.081,585.904 52.008 C 576.300 52.805,570.722 56.200,564.758 64.879 L 560.833 70.591 560.833 227.379 C 560.833 371.593,561.070 385.139,563.778 396.287 C 569.534 419.973,578.120 436.091,592.807 450.778 C 615.903 473.874,644.458 487.017,690.833 495.898 L 710.833 499.728 526.111 499.864 C 424.514 499.939,341.639 499.419,341.944 498.709 C 342.250 497.999,347.103 488.436,352.728 477.459 C 369.815 444.114,379.627 414.419,386.860 374.167 C 389.866 357.436,390.621 345.068,391.477 298.515 L 392.500 242.863 414.167 232.967 C 444.041 219.322,449.335 213.768,447.985 197.491 C 447.093 186.734,441.880 179.028,432.665 174.842 C 423.145 170.519,417.465 170.897,405.267 176.668 C 399.456 179.417,394.046 181.667,393.247 181.667 C 392.447 181.667,391.577 156.220,391.313 125.119 C 390.852 70.747,390.699 68.391,387.347 63.869 C 378.464 51.887,362.095 47.861,350.648 54.841 " stroke="none" fill-rule="evenodd" fill="black"></path></svg>