<svg width="1000" height="1000" viewBox="0 0 1000 1000" version="1.1" id="svg5" sodipodi:docname="覆.svg" inkscape:version="1.2.1 (9c6d41e410, 2022-07-14)" xmlns:inkscape="http://www.inkscape.org/namespaces/inkscape" xmlns:sodipodi="http://sodipodi.sourceforge.net/DTD/sodipodi-0.dtd" xmlns="http://www.w3.org/2000/svg" xmlns:svg="http://www.w3.org/2000/svg"><path d="M490.528 102.046 C 482.024 104.780,477.948 110.595,460.418 145.000 C 439.039 186.959,398.940 259.321,366.675 314.167 C 266.369 484.674,171.525 614.287,85.066 699.012 C 73.928 709.927,63.648 721.114,62.222 723.872 C 58.867 730.358,60.045 743.687,64.504 749.707 C 73.133 761.358,89.682 765.406,100.847 758.596 C 103.605 756.915,116.358 745.105,129.186 732.353 C 233.516 628.644,347.490 465.573,467.440 248.389 C 481.851 222.296,495.460 197.359,497.682 192.973 C 499.905 188.588,502.370 185.000,503.160 185.000 C 503.951 185.000,590.749 314.831,696.044 473.513 C 811.891 648.096,889.424 763.403,892.386 765.512 C 895.499 767.729,900.660 769.235,906.558 769.647 C 916.765 770.360,923.953 766.875,930.496 758.041 C 935.145 751.764,936.133 738.692,932.490 731.648 C 930.906 728.584,839.276 589.957,728.867 423.588 C 618.459 257.219,527.114 119.164,525.878 116.799 C 518.758 103.178,504.943 97.412,490.528 102.046 M462.505 440.397 C 458.737 442.586,454.269 447.142,452.221 450.884 C 446.792 460.799,264.832 873.260,262.954 879.905 C 261.019 886.754,263.254 895.665,268.618 902.484 C 272.712 907.688,283.755 913.257,290.000 913.267 C 292.292 913.270,368.042 883.774,458.333 847.720 C 581.411 798.574,623.011 782.630,624.542 784.018 C 625.664 785.036,639.813 810.986,655.984 841.684 C 672.154 872.383,687.160 899.871,689.330 902.768 C 694.294 909.395,706.062 914.130,713.909 912.658 C 727.334 910.140,737.329 898.366,737.278 885.131 C 737.253 878.450,732.935 869.302,702.604 811.667 C 683.550 775.458,662.516 735.708,655.862 723.333 C 649.208 710.958,631.139 676.833,615.709 647.500 C 600.279 618.167,585.683 592.172,583.272 589.734 C 577.627 584.023,567.188 580.885,558.965 582.428 C 549.430 584.217,538.989 595.326,537.498 605.267 C 536.057 614.876,535.458 613.524,570.393 679.545 C 589.642 715.923,597.366 732.035,596.050 733.068 C 593.102 735.379,344.889 833.778,344.070 832.959 C 343.669 832.558,379.339 750.714,423.337 651.085 C 479.457 524.007,503.333 468.188,503.333 464.070 C 503.333 456.292,498.003 446.179,491.440 441.506 C 483.597 435.920,471.039 435.439,462.505 440.397 " stroke="none" fill-rule="evenodd" fill="black"></path></svg>