<svg width="1000" height="1000" viewBox="0 0 1000 1000" version="1.1" id="svg5" sodipodi:docname="шкН.svg" inkscape:version="1.2.1 (9c6d41e410, 2022-07-14)" xmlns:inkscape="http://www.inkscape.org/namespaces/inkscape" xmlns:sodipodi="http://sodipodi.sourceforge.net/DTD/sodipodi-0.dtd" xmlns="http://www.w3.org/2000/svg" xmlns:svg="http://www.w3.org/2000/svg"><path d="M544.473 49.081 C 532.494 53.353,526.282 62.211,526.282 75.018 C 526.282 83.929,523.864 79.696,563.674 140.485 C 579.156 164.127,592.237 184.548,592.743 185.865 C 593.534 187.927,579.353 188.322,490.450 188.713 L 387.239 189.167 381.268 193.721 C 365.047 206.096,367.846 230.101,386.617 239.583 L 394.040 243.333 491.196 243.333 L 588.353 243.333 587.927 377.917 L 587.500 512.500 544.279 512.945 C 520.507 513.190,500.404 512.737,499.604 511.938 C 498.805 511.138,487.402 472.043,474.264 425.059 C 460.304 375.137,449.021 337.804,447.115 335.233 C 442.762 329.361,432.018 323.386,425.833 323.397 C 418.849 323.410,407.920 328.714,403.625 334.175 C 397.204 342.337,396.291 349.614,399.946 363.474 C 403.278 376.111,439.312 505.201,440.942 510.340 C 441.772 512.959,438.359 513.218,397.038 513.673 L 352.233 514.167 346.115 518.836 C 338.140 524.923,335.000 531.279,335.000 541.337 C 335.000 550.382,339.107 558.012,347.205 564.013 C 351.860 567.463,353.149 567.505,469.500 567.950 L 587.090 568.399 585.989 578.783 C 575.087 681.625,501.807 800.508,411.321 862.149 C 381.788 882.268,352.853 893.505,324.531 895.855 C 308.157 897.214,301.991 900.207,295.309 910.040 C 292.037 914.854,291.483 917.425,292.030 925.254 C 293.374 944.475,306.132 953.024,330.445 950.997 C 412.737 944.138,503.463 876.284,572.089 770.274 C 586.474 748.053,609.721 701.104,618.370 676.808 C 622.095 666.344,625.709 656.771,626.401 655.535 C 627.274 653.973,669.126 698.179,763.413 800.253 C 908.735 957.578,906.045 954.952,919.632 952.747 C 927.853 951.413,937.325 944.658,940.573 937.814 C 943.977 930.640,944.132 919.713,940.919 913.498 C 939.591 910.930,871.694 836.530,790.037 748.164 L 641.569 587.500 642.035 578.333 L 642.500 569.167 760.000 568.333 C 890.442 567.408,884.167 567.983,891.376 556.290 C 898.661 544.473,898.040 533.578,889.527 523.883 C 880.668 513.793,878.148 513.333,831.720 513.333 C 808.774 513.333,790.000 512.940,790.000 512.458 C 790.000 511.977,792.607 506.407,795.793 500.080 C 810.515 470.846,819.844 439.138,830.767 381.208 C 837.802 343.894,838.177 334.379,832.917 326.650 C 826.482 317.195,820.930 314.167,810.032 314.167 C 801.643 314.167,799.431 314.876,793.905 319.341 C 785.574 326.071,782.850 333.539,777.550 364.167 C 765.946 431.232,755.149 464.278,734.256 496.667 C 722.615 514.715,726.914 513.333,682.381 513.333 L 643.333 513.333 643.333 378.333 L 643.333 243.333 740.307 243.333 C 835.356 243.333,837.424 243.264,844.497 239.840 C 858.668 232.980,864.515 213.859,856.210 201.536 C 854.126 198.443,849.890 194.207,846.797 192.123 L 841.174 188.333 751.837 188.308 C 702.702 188.294,661.723 187.731,660.774 187.058 C 659.825 186.384,640.404 157.333,617.617 122.500 C 594.829 87.667,574.981 57.748,573.509 56.015 C 570.283 52.214,558.791 46.726,554.167 46.776 C 552.333 46.797,547.971 47.834,544.473 49.081 M86.513 165.250 C 80.311 166.524,74.055 170.899,69.270 177.309 L 65.833 181.911 65.833 519.706 C 65.833 857.461,65.834 857.501,69.257 863.328 C 79.888 881.424,103.599 882.568,115.552 865.560 C 119.993 859.242,120.455 857.188,121.261 840.176 L 122.139 821.667 191.069 821.667 L 260.000 821.667 260.006 839.583 C 260.012 854.905,260.525 858.341,263.551 863.304 C 267.751 870.194,270.565 872.644,278.211 876.067 C 290.254 881.459,307.177 873.829,312.748 860.496 C 314.614 856.031,315.000 797.813,315.000 520.820 C 315.000 191.099,314.955 186.446,311.704 180.074 C 309.892 176.521,305.954 171.863,302.954 169.724 C 297.666 165.952,296.333 165.821,259.167 165.422 C 157.807 164.333,91.295 164.267,86.513 165.250 M260.000 342.500 L 260.000 465.000 190.833 465.000 L 121.667 465.000 121.667 342.500 L 121.667 220.000 190.833 220.000 L 260.000 220.000 260.000 342.500 M259.594 642.917 L 260.022 765.000 190.844 765.000 L 121.667 765.000 121.667 642.482 L 121.667 519.963 190.417 520.398 L 259.167 520.833 259.594 642.917 " stroke="none" fill-rule="evenodd" fill="black"></path></svg>