<svg width="1000" height="1000" viewBox="0 0 1000 1000" version="1.1" id="svg5" sodipodi:docname="шлЦ.svg" inkscape:version="1.2.1 (9c6d41e410, 2022-07-14)" xmlns:inkscape="http://www.inkscape.org/namespaces/inkscape" xmlns:sodipodi="http://sodipodi.sourceforge.net/DTD/sodipodi-0.dtd" xmlns="http://www.w3.org/2000/svg" xmlns:svg="http://www.w3.org/2000/svg"><path d="M179.167 52.351 C 172.949 55.140,165.779 62.666,163.439 68.858 C 160.981 75.364,160.966 446.569,163.423 458.027 C 165.285 466.708,172.479 475.791,179.654 478.519 C 185.778 480.847,196.454 480.258,202.814 477.240 C 206.013 475.721,210.626 471.466,213.065 467.783 C 217.321 461.358,217.523 460.023,218.063 434.710 L 218.626 408.333 500.000 408.333 L 781.374 408.333 781.937 434.583 C 782.451 458.534,782.836 461.374,786.334 466.999 C 791.583 475.441,799.475 480.000,808.838 480.000 C 818.724 480.000,823.066 478.240,829.554 471.604 C 833.161 467.915,835.437 463.425,836.641 457.621 C 837.852 451.789,838.271 388.970,837.958 259.953 L 837.500 70.833 833.666 64.667 C 831.557 61.276,827.057 56.776,823.666 54.667 L 817.500 50.833 500.833 50.471 C 238.467 50.170,183.309 50.492,179.167 52.351 M781.667 154.167 L 781.667 201.667 500.000 201.667 L 218.333 201.667 218.333 154.167 L 218.333 106.667 500.000 106.667 L 781.667 106.667 781.667 154.167 M781.667 305.000 L 781.667 353.333 500.000 353.333 L 218.333 353.333 218.333 305.000 L 218.333 256.667 500.000 256.667 L 781.667 256.667 781.667 305.000 M125.611 519.484 C 119.522 520.677,108.547 531.386,106.620 538.014 C 105.379 542.283,104.985 603.100,105.332 736.667 L 105.833 929.167 109.667 935.333 C 120.865 953.340,145.802 953.340,156.999 935.333 C 160.480 929.735,160.886 926.823,161.400 903.750 L 161.966 878.333 500.000 878.333 L 838.034 878.333 838.600 903.750 C 839.114 926.823,839.520 929.735,843.001 935.333 C 854.198 953.340,879.135 953.340,890.333 935.333 L 894.167 929.167 894.625 740.047 C 894.939 610.394,894.522 548.225,893.298 542.332 C 890.900 530.780,882.787 522.541,871.407 520.100 C 863.478 518.400,134.218 517.797,125.611 519.484 M838.333 623.333 L 838.333 671.667 500.000 671.667 L 161.667 671.667 161.667 623.333 L 161.667 575.000 500.000 575.000 L 838.333 575.000 838.333 623.333 M838.333 775.000 L 838.333 823.333 500.000 823.333 L 161.667 823.333 161.667 775.000 L 161.667 726.667 500.000 726.667 L 838.333 726.667 838.333 775.000 " stroke="none" fill-rule="evenodd" fill="#000000"></path></svg>