<svg width="1000" height="1000" viewBox="0 0 1000 1000" version="1.1" id="svg5" sodipodi:docname="謝.svg" inkscape:version="1.2.1 (9c6d41e410, 2022-07-14)" xmlns:inkscape="http://www.inkscape.org/namespaces/inkscape" xmlns:sodipodi="http://sodipodi.sourceforge.net/DTD/sodipodi-0.dtd" xmlns="http://www.w3.org/2000/svg" xmlns:svg="http://www.w3.org/2000/svg"><path d="M246.523 51.593 C 240.194 53.511,233.976 57.959,230.532 63.032 C 227.767 67.107,227.427 73.220,226.667 132.500 L 225.833 197.500 165.833 198.333 C 124.623 198.906,104.789 199.774,102.500 201.107 C 93.589 206.292,86.667 217.285,86.667 226.249 C 86.667 233.522,93.087 244.574,99.702 248.687 C 105.721 252.430,106.930 252.515,165.833 253.333 L 225.833 254.167 226.264 343.671 L 226.696 433.176 167.098 433.671 C 100.578 434.224,101.334 434.099,92.169 446.123 C 88.294 451.209,87.509 453.865,87.555 461.743 C 87.600 469.497,88.455 472.345,92.224 477.287 C 101.328 489.222,100.635 489.108,167.098 489.680 L 226.696 490.192 226.264 579.680 L 225.833 669.167 147.500 670.000 C 75.172 670.769,68.778 671.069,64.090 673.908 C 50.297 682.263,46.439 700.856,56.011 712.836 C 66.018 725.358,63.220 724.995,149.583 724.997 L 226.667 725.000 226.667 826.831 C 226.667 940.431,226.275 936.442,238.177 944.203 C 246.647 949.727,254.752 950.845,262.586 947.571 C 271.177 943.982,274.857 940.504,278.532 932.500 C 281.394 926.268,281.596 919.284,281.630 825.417 L 281.667 725.000 357.807 725.000 C 431.704 725.000,434.160 724.897,441.164 721.507 C 460.155 712.313,461.845 687.329,444.360 674.270 C 439.886 670.928,437.576 670.821,360.713 670.370 L 281.667 669.906 281.667 579.953 L 281.667 490.000 336.250 489.960 C 366.271 489.938,393.775 489.238,397.371 488.404 C 422.200 482.646,428.038 452.646,407.120 438.305 L 401.084 434.167 341.375 433.654 L 281.667 433.141 281.667 343.297 L 281.667 253.452 342.380 252.976 C 400.710 252.519,403.274 252.365,407.694 249.064 C 416.649 242.374,419.167 237.276,419.167 225.833 C 419.167 213.509,416.062 208.049,405.677 202.111 C 399.281 198.454,398.135 198.388,340.417 198.361 L 281.667 198.333 281.630 136.250 C 281.597 79.583,281.326 73.585,278.532 67.500 C 274.891 59.570,271.174 56.017,262.909 52.564 C 256.238 49.776,253.126 49.592,246.523 51.593 M521.562 51.690 C 506.023 54.351,499.758 65.000,497.553 92.500 C 492.616 154.053,472.015 218.637,436.626 283.504 C 429.323 296.890,422.873 310.216,422.293 313.119 C 420.877 320.200,425.571 332.115,431.862 337.409 C 447.197 350.313,468.262 343.820,477.496 323.343 C 479.152 319.671,481.142 316.667,481.920 316.667 C 482.697 316.667,483.333 381.056,483.333 459.754 L 483.333 602.840 487.083 608.350 C 492.070 615.677,498.019 619.895,505.962 621.738 C 509.558 622.571,544.938 623.272,584.583 623.294 C 641.123 623.325,656.665 623.783,656.658 625.417 C 656.653 626.563,655.114 638.000,653.238 650.833 C 640.559 737.562,611.209 810.488,572.507 851.418 C 547.338 878.037,523.153 890.189,488.884 893.436 C 469.669 895.257,464.266 897.263,457.765 904.989 C 449.241 915.119,449.931 929.557,459.440 940.084 C 467.684 949.208,474.376 950.720,496.143 948.377 C 580.471 939.298,644.020 876.770,682.518 765.000 C 696.014 725.816,707.495 673.714,710.888 636.250 L 712.058 623.333 774.362 623.333 L 836.667 623.333 836.667 639.754 C 836.667 654.073,837.152 656.893,840.456 661.797 C 847.025 671.544,854.412 675.394,865.109 674.647 C 876.541 673.848,883.416 669.325,888.190 659.462 C 891.645 652.325,891.667 651.233,891.667 480.341 C 891.667 287.317,892.425 299.192,879.501 289.830 C 866.753 280.595,849.884 284.212,840.456 298.203 L 836.667 303.826 836.667 435.246 L 836.667 566.667 775.833 566.667 L 715.000 566.667 715.000 395.869 L 715.000 225.071 823.212 224.619 C 930.044 224.172,931.484 224.122,936.129 220.680 C 944.227 214.679,948.333 207.049,948.333 198.004 C 948.333 187.944,945.193 181.588,937.215 175.503 L 931.093 170.833 736.380 170.396 C 618.921 170.133,541.667 169.349,541.667 168.422 C 541.667 167.576,542.815 161.426,544.218 154.755 C 551.025 122.395,555.597 79.803,553.197 71.109 C 549.651 58.268,535.146 49.364,521.562 51.690 M659.591 396.250 L 660.016 566.667 599.175 566.667 L 538.333 566.667 538.333 437.020 L 538.333 307.373 534.583 299.950 C 532.521 295.867,528.208 290.768,525.000 288.617 C 520.060 285.307,517.563 284.807,508.700 285.353 C 501.810 285.777,498.486 285.400,498.973 284.249 C 499.379 283.287,504.682 271.250,510.757 257.500 C 516.833 243.750,522.510 230.804,523.375 228.731 L 524.946 224.962 592.056 225.398 L 659.167 225.833 659.591 396.250 " stroke="none" fill-rule="evenodd" fill="#000000"></path></svg>