<svg width="1000" height="1000" viewBox="0 0 1000 1000" version="1.1" id="svg5" sodipodi:docname="шнШ.svg" inkscape:version="1.2.1 (9c6d41e410, 2022-07-14)" xmlns:inkscape="http://www.inkscape.org/namespaces/inkscape" xmlns:sodipodi="http://sodipodi.sourceforge.net/DTD/sodipodi-0.dtd" xmlns="http://www.w3.org/2000/svg" xmlns:svg="http://www.w3.org/2000/svg"><path d="M470.658 63.226 C 447.635 68.806,442.854 99.638,462.883 113.362 L 468.922 117.500 652.378 117.500 C 823.149 117.500,836.198 117.301,841.103 114.617 C 847.879 110.909,852.836 104.547,855.265 96.441 C 858.627 85.218,852.402 71.566,841.103 65.383 C 836.208 62.705,823.031 62.481,655.833 62.236 C 556.833 62.090,473.504 62.536,470.658 63.226 M257.759 120.831 C 251.062 123.149,244.380 128.497,241.097 134.167 C 239.690 136.596,238.941 178.626,238.333 289.167 L 237.500 440.833 222.652 441.319 C 214.486 441.586,207.226 441.211,206.519 440.485 C 205.813 439.760,198.747 397.917,190.819 347.500 C 182.890 297.083,175.220 253.329,173.774 250.268 C 170.673 243.701,161.614 237.443,153.068 235.962 C 145.247 234.607,134.715 238.710,129.205 245.259 C 120.311 255.828,120.259 254.894,134.923 348.333 C 142.331 395.542,148.567 435.667,148.780 437.500 C 149.147 440.665,147.944 440.875,125.000 441.667 C 102.856 442.430,100.362 442.836,95.207 446.513 C 87.358 452.111,82.688 463.221,84.133 472.860 C 85.514 482.065,96.281 493.840,104.893 495.562 C 107.931 496.170,138.823 496.667,173.542 496.667 L 236.667 496.667 236.636 501.250 C 236.522 518.364,226.348 567.042,216.738 596.448 C 204.055 635.260,178.770 690.428,153.237 735.000 C 135.896 765.271,106.129 809.963,81.375 842.894 C 69.498 858.694,59.070 874.069,58.201 877.061 C 53.702 892.559,67.217 910.158,83.812 910.409 C 96.212 910.597,101.913 906.403,118.720 884.726 C 159.348 832.326,195.756 774.914,225.825 715.833 C 244.337 679.460,255.702 652.737,267.551 617.722 C 272.473 603.178,276.807 590.971,277.181 590.597 C 277.556 590.222,304.886 622.372,337.915 662.041 C 370.945 701.710,400.113 736.159,402.734 738.595 C 411.974 747.180,425.739 747.781,436.564 740.073 C 446.145 733.251,450.332 719.676,446.030 709.380 C 444.614 705.992,412.866 666.436,375.478 621.477 C 338.090 576.519,303.739 535.089,299.143 529.412 L 290.787 519.091 291.643 508.295 L 292.500 497.500 360.000 496.667 C 419.921 495.927,428.093 495.509,432.785 492.942 C 441.013 488.441,445.570 480.749,446.313 470.109 C 447.061 459.412,443.211 452.025,433.464 445.456 C 428.259 441.949,426.048 441.667,403.742 441.667 C 385.148 441.667,379.826 441.191,380.442 439.583 C 383.427 431.791,392.237 397.379,395.696 380.000 C 399.545 360.656,405.532 314.110,410.086 268.122 C 411.874 250.060,411.781 248.239,408.712 241.302 C 406.902 237.209,403.007 232.141,400.058 230.041 C 394.380 225.998,382.956 223.897,376.061 225.627 C 370.681 226.978,362.170 234.191,359.215 239.907 C 357.898 242.453,355.346 259.597,353.353 279.292 C 346.482 347.162,340.233 383.376,329.648 416.667 C 321.418 442.549,322.230 441.667,306.624 441.667 L 293.333 441.667 293.333 292.446 C 293.333 132.911,293.523 136.831,285.357 127.807 C 278.749 120.505,267.160 117.576,257.759 120.831 M504.764 231.929 C 501.426 233.865,497.114 238.262,495.181 241.701 C 491.681 247.928,491.667 248.551,491.667 393.144 L 491.667 538.333 438.686 538.333 C 387.055 538.333,385.517 538.429,378.283 542.083 C 358.715 551.969,357.797 576.915,376.536 589.544 C 382.099 593.292,382.746 593.333,436.320 593.333 L 490.481 593.333 489.358 628.750 C 485.585 747.720,475.800 824.611,458.020 875.000 C 447.211 905.632,447.770 915.983,460.769 925.897 C 475.777 937.345,495.378 930.846,503.690 911.667 C 526.442 859.163,540.761 761.863,544.649 633.333 L 545.833 594.167 652.083 593.738 L 758.333 593.309 758.333 707.488 C 758.333 770.286,758.052 821.667,757.708 821.667 C 757.364 821.667,752.511 815.757,746.924 808.534 C 732.561 789.967,721.525 785.945,706.600 793.838 C 693.873 800.568,688.211 816.817,694.414 828.812 C 698.378 836.477,764.197 920.694,770.116 925.675 C 782.903 936.435,802.680 931.814,811.310 916.051 C 813.942 911.244,814.203 898.344,814.624 752.083 L 815.081 593.333 872.124 593.327 C 926.913 593.321,929.391 593.184,934.839 589.863 C 942.368 585.273,946.093 580.489,948.040 572.913 C 951.299 560.233,945.635 548.387,933.299 542.083 C 926.124 538.417,924.728 538.333,870.524 538.333 L 815.089 538.333 814.628 393.750 C 814.210 262.882,813.905 248.692,811.408 244.167 C 807.834 237.688,802.026 232.341,796.142 230.111 C 792.950 228.902,746.568 228.346,651.142 228.372 C 511.424 228.410,510.808 228.425,504.764 231.929 M758.333 410.833 L 758.333 538.333 652.500 538.333 L 546.667 538.333 546.667 410.833 L 546.667 283.333 652.500 283.333 L 758.333 283.333 758.333 410.833 " stroke="none" fill-rule="evenodd" fill="black"></path></svg>