<svg width="1000" height="1000" viewBox="0 0 1000 1000" version="1.1" id="svg5" sodipodi:docname="豊.svg" inkscape:version="1.2.1 (9c6d41e410, 2022-07-14)" xmlns:inkscape="http://www.inkscape.org/namespaces/inkscape" xmlns:sodipodi="http://sodipodi.sourceforge.net/DTD/sodipodi-0.dtd" xmlns="http://www.w3.org/2000/svg" xmlns:svg="http://www.w3.org/2000/svg"><path d="M174.764 73.596 C 157.064 83.859,157.469 111.395,175.464 121.232 C 180.507 123.989,196.809 124.217,444.045 125.000 L 707.257 125.833 592.072 192.917 C 528.720 229.813,476.407 260.000,475.820 260.000 C 475.233 260.000,442.813 243.356,403.776 223.013 C 340.349 189.960,331.958 186.026,324.883 186.026 C 300.602 186.026,289.086 216.159,306.982 232.870 C 310.623 236.269,363.532 264.357,491.667 330.913 C 518.708 344.959,555.083 363.936,572.500 373.084 L 604.167 389.716 603.562 412.775 C 603.230 425.457,602.623 436.396,602.214 437.083 C 601.805 437.771,565.490 438.333,521.515 438.333 C 433.267 438.333,434.892 438.155,425.473 448.883 C 417.498 457.965,416.754 466.799,422.747 481.250 C 423.425 482.886,414.228 483.333,379.947 483.333 L 336.283 483.333 337.277 474.583 C 340.300 447.970,342.212 405.065,342.347 360.833 C 342.499 311.000,342.487 310.815,338.610 305.379 C 333.880 298.748,323.789 293.333,316.162 293.333 C 307.439 293.333,296.577 299.936,292.445 307.748 C 289.145 313.989,288.801 317.886,287.794 360.441 C 286.731 405.329,284.153 454.969,281.930 473.333 L 280.820 482.500 181.585 483.333 C 71.602 484.257,78.312 483.536,69.501 495.382 C 61.905 505.597,62.565 518.203,71.236 528.508 C 79.642 538.498,77.823 538.333,179.669 538.333 C 230.879 538.333,273.170 538.725,273.649 539.205 C 274.128 539.684,273.900 543.246,273.141 547.121 C 272.382 550.996,270.213 563.542,268.320 575.000 C 263.970 601.331,253.790 643.484,245.780 668.333 C 224.187 735.317,198.397 781.574,160.125 821.960 C 140.703 842.455,120.032 858.729,87.500 879.134 C 54.587 899.779,51.667 902.947,51.667 918.001 C 51.667 932.079,64.785 945.000,79.079 945.000 C 84.686 945.000,101.665 935.834,127.300 918.968 C 190.683 877.267,226.072 838.799,262.812 771.667 C 280.947 738.529,302.697 677.128,314.324 626.250 C 315.948 619.146,317.782 613.333,318.401 613.333 C 319.019 613.333,354.636 649.009,397.549 692.612 C 443.546 739.349,478.165 773.214,481.887 775.112 C 494.924 781.763,510.865 776.569,517.829 763.400 C 522.318 754.911,522.649 748.910,519.096 740.406 C 517.344 736.213,486.816 704.448,423.262 640.688 C 347.256 564.435,330.000 546.310,330.000 542.728 L 330.000 538.333 398.905 538.333 C 467.616 538.333,467.829 538.323,475.067 534.495 C 480.027 531.872,483.539 528.361,486.162 523.400 C 490.628 514.955,490.982 508.910,487.500 500.576 C 486.125 497.285,485.000 494.300,485.000 493.941 C 485.000 493.582,510.310 493.486,541.245 493.728 L 597.489 494.167 596.988 500.833 C 596.712 504.500,594.601 520.625,592.296 536.667 C 574.300 661.925,540.491 750.184,486.954 811.667 C 468.468 832.896,448.358 849.826,417.641 870.023 C 401.064 880.923,384.724 891.718,381.331 894.014 C 358.855 909.217,369.846 943.333,397.219 943.333 C 403.332 943.333,407.614 941.488,422.625 932.386 C 481.422 896.732,514.232 868.350,545.801 825.833 C 582.928 775.831,610.249 714.577,628.518 640.383 C 631.513 628.218,634.479 618.468,635.109 618.716 C 635.739 618.964,696.180 690.792,769.422 778.333 C 913.213 950.198,909.500 946.206,923.869 944.413 C 932.400 943.349,942.187 936.615,945.573 929.480 C 949.269 921.690,949.083 910.417,945.152 903.969 C 943.409 901.111,876.387 820.436,796.214 724.692 C 716.041 628.948,649.691 549.162,648.769 547.389 C 647.622 545.184,647.764 539.168,649.219 528.333 C 650.388 519.625,651.846 508.188,652.459 502.917 L 653.573 493.333 738.870 493.327 C 822.252 493.321,824.294 493.243,829.839 489.863 C 845.974 480.026,849.480 462.116,837.860 448.883 C 828.427 438.138,830.236 438.333,740.049 438.333 L 658.324 438.333 659.579 406.250 C 660.269 388.604,660.833 359.857,660.833 342.368 L 660.833 310.570 656.182 304.474 C 651.020 297.709,646.948 295.088,638.707 293.230 C 623.408 289.779,606.667 303.579,606.667 319.639 C 606.667 323.199,606.272 326.506,605.789 326.989 C 604.599 328.179,536.434 292.579,536.257 290.675 C 536.180 289.845,599.964 251.972,677.998 206.512 C 756.033 161.051,822.789 121.931,826.346 119.577 C 842.833 108.666,842.083 83.135,824.993 73.530 L 818.713 70.000 499.773 70.038 L 180.833 70.077 174.764 73.596 " stroke="none" fill-rule="evenodd" fill="black"></path></svg>