<svg width="1000" height="1000" viewBox="0 0 1000 1000" version="1.1" id="svg5" xmlns="http://www.w3.org/2000/svg" xmlns:svg="http://www.w3.org/2000/svg"><path d="M740.651 51.563 C 732.573 53.517,729.776 56.159,711.855 78.765 C 661.876 141.809,595.934 211.530,538.714 261.827 C 438.774 349.675,349.955 401.131,262.811 421.665 C 236.707 427.816,230.426 431.794,226.588 444.606 C 222.403 458.573,231.767 474.321,246.637 478.325 C 252.962 480.029,256.493 479.708,273.846 475.855 C 406.950 446.304,558.087 339.260,709.221 167.500 C 741.099 131.271,769.568 95.231,772.689 87.155 C 780.217 67.672,761.233 46.583,740.651 51.563 M739.698 286.635 C 732.233 288.888,729.552 291.563,708.765 317.500 C 623.657 423.691,523.179 518.692,431.667 579.495 C 370.949 619.837,305.648 648.918,254.773 658.272 C 237.208 661.502,228.266 669.088,225.639 682.989 C 224.256 690.306,228.865 702.082,235.196 707.409 C 243.173 714.121,251.025 715.440,265.235 712.452 C 367.130 691.027,467.991 633.611,580.833 532.794 C 603.818 512.259,654.776 461.930,679.048 435.793 C 724.948 386.364,770.309 330.751,773.551 319.931 C 777.208 307.726,770.283 293.907,757.631 288.161 C 750.309 284.835,746.684 284.527,739.698 286.635 M735.304 523.750 C 730.545 526.341,722.670 534.709,709.816 550.833 C 638.684 640.062,550.139 727.644,472.562 785.509 C 397.476 841.515,333.164 874.056,264.503 890.785 C 239.528 896.871,234.861 899.082,229.925 907.174 C 223.463 917.768,224.177 929.267,231.909 939.096 C 240.533 950.059,251.060 951.014,281.667 943.608 C 403.333 914.166,537.231 822.389,677.239 672.471 C 722.368 624.148,770.336 565.662,773.499 555.103 C 777.415 542.034,770.201 528.394,756.304 522.588 C 747.904 519.080,743.426 519.327,735.304 523.750 " stroke="none" fill-rule="evenodd" fill="black"></path></svg>