<svg width="1000" height="1000" viewBox="0 0 1000 1000" version="1.1" id="svg5" xmlns="http://www.w3.org/2000/svg" xmlns:svg="http://www.w3.org/2000/svg"><path d="M770.498 51.676 C 767.564 52.338,762.592 55.044,759.448 57.689 C 756.305 60.335,744.830 70.012,733.950 79.192 C 699.848 107.967,651.891 141.370,598.333 173.653 C 563.901 194.408,515.001 221.658,512.181 221.663 C 511.088 221.665,454.463 200.557,386.347 174.757 C 318.231 148.957,259.671 127.112,256.213 126.212 C 238.231 121.532,219.373 141.877,224.825 160.073 C 229.124 174.422,227.146 173.456,338.922 215.767 C 395.621 237.229,442.433 255.211,442.950 255.728 C 444.192 256.970,445.485 256.260,420.833 267.861 C 319.786 315.416,205.337 355.927,120.185 374.280 C 92.291 380.293,87.995 382.366,82.111 392.657 C 75.657 403.942,78.063 416.936,88.182 425.451 C 97.134 432.983,103.832 433.826,123.536 429.902 C 222.032 410.289,347.877 364.569,481.438 299.875 L 516.430 282.926 657.847 336.463 C 753.589 372.709,801.320 390.000,805.630 390.000 C 814.573 390.000,822.921 385.552,827.791 378.192 C 835.828 366.047,834.305 352.971,823.673 342.855 C 820.480 339.817,784.936 325.628,701.667 294.153 C 637.042 269.724,583.562 249.155,582.824 248.443 C 582.085 247.730,588.460 243.184,596.991 238.339 C 663.667 200.472,734.383 151.821,779.233 112.961 C 794.882 99.402,799.759 94.135,802.266 88.084 C 810.591 67.998,792.099 46.806,770.498 51.676 M67.417 470.678 C 64.622 471.895,60.338 475.264,57.898 478.164 C 46.949 491.177,49.485 508.244,63.975 519.064 C 68.556 522.484,69.502 522.502,270.090 522.936 L 471.602 523.373 472.051 726.270 L 472.500 929.167 476.334 935.333 C 481.743 944.031,490.029 948.718,500.000 948.718 C 509.971 948.718,518.257 944.031,523.666 935.333 L 527.500 929.167 527.949 726.270 L 528.398 523.373 729.746 522.936 L 931.093 522.500 937.191 517.849 C 950.809 507.461,952.852 490.940,942.097 478.158 C 933.205 467.590,966.617 468.327,499.637 468.399 C 148.268 468.452,71.598 468.857,67.417 470.678 " stroke="none" fill-rule="evenodd" fill="black"></path></svg>