<svg width="1000" height="1000" viewBox="0 0 1000 1000" version="1.1" id="svg5" sodipodi:docname="赤.svg" inkscape:version="1.2.1 (9c6d41e410, 2022-07-14)" xmlns:inkscape="http://www.inkscape.org/namespaces/inkscape" xmlns:sodipodi="http://sodipodi.sourceforge.net/DTD/sodipodi-0.dtd" xmlns="http://www.w3.org/2000/svg" xmlns:svg="http://www.w3.org/2000/svg"><path d="M372.500 52.468 C 359.666 57.011,351.552 70.816,354.011 83.924 C 356.143 95.287,362.753 99.855,436.667 141.045 C 522.148 188.682,521.467 188.333,529.058 188.333 C 548.745 188.333,562.008 167.086,553.410 149.324 C 549.036 140.290,552.759 142.638,466.661 94.614 C 379.689 46.103,384.454 48.236,372.500 52.468 M720.000 96.224 C 717.391 96.706,706.488 106.541,690.833 122.534 C 663.162 150.802,650.453 162.557,620.833 187.275 C 583.513 218.420,505.110 275.000,499.274 275.000 C 497.762 275.000,449.494 252.592,392.013 225.205 C 334.531 197.818,285.579 174.964,283.232 174.419 C 271.777 171.759,254.714 183.446,252.453 195.499 C 251.816 198.891,251.791 204.308,252.397 207.536 C 254.768 220.176,257.434 221.763,353.327 267.605 C 402.843 291.276,442.789 311.183,442.095 311.843 C 439.202 314.593,400.614 336.348,369.686 352.665 C 294.407 392.383,216.015 424.139,157.752 438.519 C 136.620 443.734,128.056 452.092,128.056 467.500 C 128.056 482.429,140.265 495.028,154.692 494.987 C 161.352 494.969,194.353 486.233,220.833 477.478 C 295.951 452.644,386.757 409.398,474.833 356.514 C 489.959 347.431,502.895 340.000,503.579 340.000 C 505.451 340.000,732.253 448.368,734.083 450.136 C 735.045 451.066,672.995 451.667,575.988 451.667 C 424.595 451.667,416.369 451.515,417.438 448.750 C 421.925 437.152,419.302 426.102,410.084 417.774 C 400.148 408.797,385.637 407.586,376.272 414.952 C 374.036 416.711,366.806 425.707,360.205 434.942 C 336.879 467.576,316.598 492.750,296.334 514.222 C 270.694 541.389,257.792 553.386,232.500 573.577 C 185.258 611.293,145.949 636.182,87.191 665.582 C 73.271 672.547,60.019 680.256,57.741 682.712 C 48.940 692.204,48.883 707.788,57.611 718.162 C 63.141 724.733,74.672 729.078,82.624 727.587 C 89.941 726.214,144.849 698.418,171.667 682.511 C 193.181 669.749,220.322 651.966,236.871 639.789 C 242.941 635.322,248.837 631.667,249.973 631.667 C 251.677 631.667,436.314 719.227,438.046 720.856 C 439.814 722.519,359.897 776.283,325.000 796.907 C 240.617 846.778,181.321 872.932,104.694 894.081 C 88.023 898.682,78.943 910.124,80.495 924.573 C 81.307 932.136,87.607 941.935,93.779 945.238 C 105.527 951.526,117.322 949.436,170.177 931.699 C 242.262 907.510,324.336 865.444,407.713 809.954 C 438.710 789.325,442.866 786.413,473.806 763.643 L 495.113 747.963 699.640 845.968 C 812.130 899.870,907.948 945.285,912.569 946.889 C 937.455 955.526,958.872 928.588,944.448 906.793 C 939.289 898.997,962.024 910.349,713.750 791.607 C 620.938 747.218,545.000 710.419,545.000 709.832 C 545.000 709.245,554.563 700.630,566.250 690.687 C 632.224 634.563,690.791 577.311,740.887 519.971 C 762.909 494.765,764.688 492.347,766.693 484.900 C 767.979 480.127,767.823 476.900,766.061 471.785 C 764.775 468.053,764.321 465.000,765.051 465.000 C 765.781 465.000,780.595 471.750,797.970 480.000 C 832.546 496.417,836.434 497.285,848.390 491.250 C 863.140 483.805,867.398 466.324,857.942 452.035 C 853.978 446.046,844.669 441.331,706.063 375.110 C 624.851 336.310,558.766 303.982,559.205 303.271 C 559.645 302.560,567.691 296.514,577.086 289.836 C 606.570 268.878,633.288 248.341,659.167 226.742 C 688.102 202.592,742.704 149.625,750.167 138.466 C 754.651 131.761,755.194 129.705,754.635 121.558 C 753.365 103.047,739.189 92.678,720.000 96.224 M670.324 516.250 C 657.889 530.542,593.936 593.168,569.167 615.310 C 544.636 637.238,502.141 673.001,493.247 679.202 L 487.327 683.329 392.830 638.037 C 340.857 613.126,298.333 592.230,298.333 591.601 C 298.333 590.973,305.904 583.043,315.156 573.979 C 331.736 557.738,359.093 527.584,369.799 513.750 L 375.280 506.667 526.972 506.667 L 678.663 506.667 670.324 516.250 " stroke="none" fill-rule="evenodd" fill="black"></path></svg>