<svg width="1000" height="1000" viewBox="0 0 1000 1000" version="1.1" id="svg5" sodipodi:docname="足.svg" inkscape:version="1.2.1 (9c6d41e410, 2022-07-14)" xmlns:inkscape="http://www.inkscape.org/namespaces/inkscape" xmlns:sodipodi="http://sodipodi.sourceforge.net/DTD/sodipodi-0.dtd" xmlns="http://www.w3.org/2000/svg" xmlns:svg="http://www.w3.org/2000/svg"><path d="M274.473 52.360 C 266.139 55.404,261.874 59.356,258.135 67.500 C 255.268 73.743,255.071 80.864,255.037 179.583 L 255.000 285.000 163.144 285.000 C 71.442 285.000,71.276 285.006,64.728 288.687 C 50.361 296.761,46.181 315.533,56.011 327.836 C 66.142 340.514,61.539 339.995,163.735 339.997 L 254.970 340.000 255.402 607.206 L 255.833 874.411 259.924 880.381 C 262.174 883.664,266.299 887.734,269.090 889.425 C 273.932 892.358,283.749 892.538,481.667 893.333 L 689.167 894.167 690.007 913.333 C 690.934 934.482,692.704 939.021,702.256 944.757 C 709.796 949.284,715.890 950.338,723.178 948.375 C 731.886 946.030,738.156 940.740,741.839 932.631 C 744.807 926.097,744.928 914.453,744.963 632.917 L 745.000 340.000 836.250 339.997 C 938.463 339.995,933.857 340.514,943.989 327.836 C 953.908 315.422,949.546 296.709,934.802 288.422 C 928.865 285.085,926.419 285.000,836.856 285.000 L 745.000 285.000 744.963 179.583 C 744.929 80.569,744.739 73.754,741.839 67.369 C 732.844 47.563,706.036 45.089,693.922 62.946 C 691.015 67.232,690.784 73.886,690.000 175.833 L 689.167 284.167 500.000 284.167 L 310.833 284.167 310.000 175.833 C 309.216 73.886,308.985 67.232,306.078 62.946 C 299.323 52.989,285.463 48.347,274.473 52.360 M689.589 588.750 L 689.167 837.500 499.583 837.924 L 310.000 838.348 310.000 589.174 L 310.000 340.000 500.005 340.000 L 690.011 340.000 689.589 588.750 " stroke="none" fill-rule="evenodd" fill="black"></path></svg>