<svg width="1000" height="1000" viewBox="0 0 1000 1000" version="1.1" id="svg5" xmlns="http://www.w3.org/2000/svg" xmlns:svg="http://www.w3.org/2000/svg"><path d="M334.167 52.484 C 320.820 57.241,312.640 72.218,316.447 84.925 C 317.533 88.550,320.203 93.613,322.380 96.175 C 325.048 99.316,356.161 115.704,417.873 146.477 C 491.714 183.298,510.694 192.121,516.057 192.121 C 532.468 192.121,544.365 179.128,543.002 162.692 C 541.639 146.257,544.274 147.972,442.755 97.469 C 392.198 72.318,348.583 51.373,345.833 50.924 C 343.083 50.475,337.833 51.177,334.167 52.484 M747.500 97.553 C 746.583 97.822,743.715 98.511,741.126 99.084 C 738.270 99.716,728.771 107.404,716.960 118.643 C 679.276 154.500,634.776 189.594,580.833 225.994 C 549.170 247.361,499.997 278.554,492.835 281.817 C 489.012 283.559,475.546 278.539,358.327 231.675 C 214.201 174.053,220.343 175.925,207.509 185.714 C 199.906 191.513,196.667 198.022,196.667 207.500 C 196.667 215.988,199.349 222.319,205.258 227.776 C 207.408 229.762,257.638 250.762,316.881 274.443 C 376.123 298.124,424.767 318.224,424.978 319.109 C 425.448 321.080,356.347 356.083,313.348 375.653 C 239.157 409.421,160.371 437.943,100.833 452.587 C 66.407 461.055,62.037 462.718,56.839 469.326 C 43.182 486.689,55.701 513.341,77.500 513.312 C 86.176 513.300,112.537 507.273,146.764 497.474 C 238.067 471.334,355.289 421.171,463.333 362.004 C 479.375 353.219,493.625 346.125,495.000 346.238 C 496.375 346.352,591.479 383.995,706.343 429.889 C 861.847 492.022,916.913 513.333,921.949 513.333 C 939.068 513.333,952.590 495.808,948.161 479.359 C 944.357 465.233,950.896 468.239,746.667 386.756 C 642.625 345.246,556.955 310.787,556.289 310.180 C 555.623 309.574,573.248 297.024,595.456 282.291 C 637.395 254.468,684.383 220.017,711.667 197.087 C 740.703 172.684,771.087 143.754,773.895 137.837 C 779.858 125.272,775.935 109.428,765.156 102.543 C 759.428 98.884,751.043 96.514,747.500 97.553 M305.400 446.757 C 301.496 448.741,296.621 452.720,294.567 455.599 C 290.912 460.723,290.823 461.964,290.351 514.583 L 289.869 568.333 214.627 568.333 C 141.643 568.333,139.169 568.438,132.169 571.827 C 113.178 581.020,111.488 606.003,128.973 619.064 C 133.426 622.390,136.072 622.527,211.370 623.333 L 289.167 624.167 289.469 760.000 C 289.635 834.708,290.158 897.791,290.631 900.184 C 291.610 905.142,298.633 914.086,303.930 917.121 C 306.662 918.687,348.362 919.362,481.639 920.000 L 655.777 920.833 656.733 926.667 C 660.769 951.302,693.555 956.954,706.999 935.333 L 710.833 929.167 711.284 776.250 L 711.734 623.333 788.121 623.333 L 864.507 623.333 870.131 619.544 C 879.076 613.516,883.333 605.869,883.333 595.833 C 883.333 584.827,878.542 577.215,868.383 572.083 C 861.015 568.361,860.415 568.333,786.314 568.333 L 711.667 568.333 711.657 519.583 C 711.652 489.339,710.954 468.332,709.819 464.245 C 705.960 450.347,689.908 440.836,676.892 444.735 C 668.786 447.164,662.424 452.121,658.717 458.897 C 656.193 463.510,655.768 470.658,655.309 516.250 L 654.786 568.333 499.979 568.333 L 345.173 568.333 344.670 515.284 L 344.167 462.234 339.472 456.083 C 329.994 443.662,317.967 440.370,305.400 446.757 M655.000 743.333 L 655.000 863.333 500.000 863.333 L 345.000 863.333 345.000 743.333 L 345.000 623.333 500.000 623.333 L 655.000 623.333 655.000 743.333 " stroke="none" fill-rule="evenodd" fill="black"></path></svg>