<svg width="1000" height="1000" viewBox="0 0 1000 1000" version="1.1" id="svg5" sodipodi:docname="車.svg" inkscape:version="1.2.1 (9c6d41e410, 2022-07-14)" xmlns:inkscape="http://www.inkscape.org/namespaces/inkscape" xmlns:sodipodi="http://sodipodi.sourceforge.net/DTD/sodipodi-0.dtd" xmlns="http://www.w3.org/2000/svg" xmlns:svg="http://www.w3.org/2000/svg"><path d="M124.869 115.250 C 117.190 116.821,111.360 121.671,107.024 130.098 L 103.215 137.500 103.691 223.333 L 104.167 309.167 108.001 315.333 C 119.142 333.250,144.192 333.250,155.333 315.333 C 159.152 309.191,159.169 308.894,159.652 239.583 L 160.138 170.000 500.000 170.000 L 839.862 170.000 840.348 239.583 C 840.831 308.894,840.848 309.191,844.667 315.333 C 855.808 333.250,880.858 333.250,891.999 315.333 L 895.833 309.167 895.833 222.500 C 895.833 143.793,895.571 135.354,892.977 130.615 C 889.568 124.389,881.161 117.003,876.122 115.805 C 870.755 114.530,131.059 113.983,124.869 115.250 M206.600 318.838 C 201.639 321.461,198.128 324.973,195.505 329.933 L 191.667 337.191 191.667 450.168 L 191.667 563.145 130.417 563.656 C 69.829 564.161,69.100 564.208,63.001 568.001 C 44.993 579.198,44.993 604.135,63.001 615.333 C 69.101 619.126,69.814 619.172,130.417 619.660 L 191.667 620.153 191.706 752.993 C 191.728 826.705,192.421 888.743,193.262 892.371 C 196.201 905.041,205.471 913.387,217.933 914.585 C 227.257 915.481,233.228 913.039,240.550 905.335 C 245.963 899.640,248.237 891.589,248.294 877.917 L 248.333 868.333 500.000 868.333 L 751.667 868.333 751.706 877.917 C 751.763 891.589,754.037 899.640,759.450 905.335 C 766.772 913.039,772.743 915.481,782.067 914.585 C 794.529 913.387,803.799 905.041,806.738 892.371 C 807.579 888.743,808.272 826.705,808.294 752.993 L 808.333 620.153 869.583 619.660 C 930.186 619.172,930.899 619.126,936.999 615.333 C 955.007 604.135,955.007 579.198,936.999 568.001 C 930.900 564.208,930.171 564.161,869.583 563.656 L 808.333 563.145 808.294 453.656 C 808.272 393.437,807.571 341.225,806.738 337.629 C 804.651 328.634,800.277 323.167,791.633 318.750 L 784.294 315.000 499.076 315.000 L 213.858 315.000 206.600 318.838 M471.667 466.667 L 471.667 563.333 360.000 563.333 L 248.333 563.333 248.333 466.667 L 248.333 370.000 360.000 370.000 L 471.667 370.000 471.667 466.667 M751.667 466.667 L 751.667 563.333 640.000 563.333 L 528.333 563.333 528.333 466.667 L 528.333 370.000 640.000 370.000 L 751.667 370.000 751.667 466.667 M471.667 716.667 L 471.667 813.333 360.000 813.333 L 248.333 813.333 248.333 716.667 L 248.333 620.000 360.000 620.000 L 471.667 620.000 471.667 716.667 M751.667 716.667 L 751.667 813.333 640.000 813.333 L 528.333 813.333 528.333 716.667 L 528.333 620.000 640.000 620.000 L 751.667 620.000 751.667 716.667 " stroke="none" fill-rule="evenodd" fill="#000000"></path></svg>