<svg width="1000" height="1000" viewBox="0 0 1000 1000" version="1.1" id="svg5" xmlns="http://www.w3.org/2000/svg" xmlns:svg="http://www.w3.org/2000/svg"><path d="M705.264 71.642 C 698.986 73.144,688.816 82.100,686.428 88.228 C 685.558 90.461,683.032 110.095,680.814 131.858 C 676.206 177.079,671.637 213.808,665.705 253.333 C 659.789 292.745,651.707 337.281,650.194 338.800 C 649.482 339.516,638.869 339.891,626.609 339.634 L 604.318 339.167 568.912 245.833 C 537.342 162.610,532.880 151.924,527.721 147.184 C 515.790 136.222,500.884 136.740,489.661 148.506 C 483.110 155.374,480.530 163.467,482.413 171.239 C 483.025 173.766,497.358 212.352,514.263 256.986 C 531.168 301.620,545.000 338.558,545.000 339.069 C 545.000 339.581,519.463 340.000,488.251 340.000 C 425.372 340.000,425.687 339.952,417.335 350.902 C 408.087 363.026,410.759 378.542,423.904 389.048 L 430.307 394.167 535.251 394.632 C 633.621 395.067,640.140 395.276,639.337 397.965 C 638.865 399.543,636.536 409.458,634.161 420.000 C 599.128 575.509,543.393 719.665,482.105 813.285 C 461.059 845.434,444.203 866.787,418.010 894.484 C 407.197 905.919,403.234 911.333,402.391 915.829 C 397.934 939.588,420.513 957.458,441.477 946.763 C 448.330 943.267,472.225 918.146,491.297 894.388 C 574.433 790.822,642.959 629.291,688.302 430.000 C 692.160 413.042,695.597 398.229,695.940 397.083 C 696.428 395.450,715.849 395.000,785.781 395.000 L 875.000 395.000 874.984 398.750 C 874.933 410.857,871.271 481.171,869.103 511.667 C 860.077 638.630,841.770 747.188,812.231 848.918 C 811.739 850.614,810.734 851.364,809.998 850.584 C 809.263 849.805,791.668 819.542,770.899 783.333 C 750.130 747.125,730.964 715.477,728.308 713.005 C 721.176 706.366,711.711 703.960,703.000 706.570 C 688.779 710.830,679.231 726.737,683.369 739.276 C 685.844 746.773,793.989 934.535,798.802 939.689 C 810.149 951.842,830.951 951.042,840.168 938.098 C 849.958 924.348,884.197 799.751,897.352 730.000 C 916.559 628.159,929.287 495.001,930.169 386.667 C 930.423 355.450,929.067 351.128,916.637 343.551 C 910.890 340.047,909.847 340.012,809.583 340.006 L 708.333 340.000 708.333 336.499 C 708.333 334.574,710.172 322.761,712.418 310.249 C 720.695 264.153,730.339 192.590,736.678 130.219 C 740.360 93.994,740.051 89.752,733.091 80.904 C 726.914 73.051,715.395 69.217,705.264 71.642 M124.919 140.545 C 112.514 144.646,105.017 154.395,105.006 166.440 C 104.993 181.719,115.796 192.597,132.743 194.368 L 142.804 195.419 142.094 203.126 C 141.603 208.455,147.635 243.755,161.637 317.500 C 172.775 376.167,182.295 425.854,182.792 427.917 L 183.695 431.667 142.763 431.667 C 120.250 431.667,98.191 432.447,93.741 433.401 C 80.282 436.288,71.282 446.831,71.282 459.712 C 71.282 473.372,78.729 483.183,91.762 486.692 C 95.927 487.814,155.314 488.243,265.557 487.948 L 433.025 487.500 439.429 482.381 C 452.574 471.876,455.246 456.359,445.999 444.235 C 437.075 432.536,437.221 432.561,374.484 431.964 C 343.492 431.670,318.406 430.920,318.737 430.298 C 346.280 378.554,360.854 328.404,377.291 228.807 L 382.717 195.926 392.363 193.994 C 397.669 192.931,403.995 190.616,406.421 188.850 C 411.701 185.006,418.333 172.656,418.333 166.667 C 418.333 160.731,411.718 148.339,406.538 144.570 C 404.175 142.852,399.300 140.763,395.704 139.929 C 385.506 137.564,132.194 138.140,124.919 140.545 M326.661 196.250 C 326.641 200.565,314.195 269.005,309.244 292.027 C 296.957 349.161,282.262 387.410,260.301 419.426 L 252.476 430.833 243.758 431.336 L 235.040 431.839 236.016 424.670 C 236.738 419.365,231.728 389.750,216.757 310.833 C 205.628 252.167,195.843 202.104,195.014 199.583 L 193.507 195.000 260.087 195.000 C 296.706 195.000,326.664 195.563,326.661 196.250 M120.751 520.678 C 114.728 523.301,107.086 531.917,105.627 537.728 C 103.985 544.272,106.003 556.640,109.498 561.440 C 114.193 567.892,125.969 573.333,135.233 573.333 L 143.092 573.333 142.259 582.083 C 141.615 588.848,146.141 615.475,162.210 699.456 C 174.766 765.077,184.120 809.985,185.838 812.893 C 187.403 815.541,190.852 819.161,193.503 820.937 C 196.154 822.713,198.326 824.584,198.329 825.093 C 198.331 825.603,174.250 831.886,144.815 839.056 C 85.397 853.530,82.971 854.609,77.477 868.995 C 75.245 874.840,75.079 877.435,76.579 883.008 C 79.940 895.491,90.907 905.000,101.940 905.000 C 106.293 905.000,174.049 889.151,270.000 865.687 C 388.546 836.699,429.739 826.153,433.890 823.728 C 440.185 820.052,446.675 808.050,446.639 800.155 C 446.579 786.965,433.046 773.374,420.000 773.400 C 416.792 773.406,394.860 778.150,371.262 783.940 C 347.665 789.731,328.011 794.122,327.587 793.698 C 327.163 793.274,328.557 789.456,330.686 785.214 C 347.933 750.833,361.962 698.382,375.669 617.036 L 382.893 574.167 391.464 573.097 C 401.510 571.842,406.392 568.989,412.746 560.659 C 422.131 548.354,417.563 529.865,403.135 521.755 C 397.129 518.380,395.193 518.334,261.440 518.399 C 152.465 518.451,124.835 518.899,120.751 520.678 M325.752 581.250 C 325.136 585.604,322.072 603.792,318.943 621.667 C 303.803 708.144,287.509 757.763,261.471 796.690 C 256.003 804.866,250.743 812.041,249.783 812.634 C 247.320 814.156,231.110 818.332,230.404 817.627 C 230.083 817.305,231.358 814.521,233.237 811.438 C 235.117 808.355,236.657 803.391,236.660 800.407 C 236.664 797.422,227.728 747.922,216.802 690.407 C 205.876 632.891,196.418 583.021,195.783 579.583 L 194.629 573.333 260.750 573.333 L 326.871 573.333 325.752 581.250 " stroke="none" fill-rule="evenodd" fill="black"></path></svg>