<svg width="1000" height="1000" viewBox="0 0 1000 1000" version="1.1" id="svg5" xmlns="http://www.w3.org/2000/svg" xmlns:svg="http://www.w3.org/2000/svg"><path d="M488.367 53.750 C 479.723 58.167,475.349 63.634,473.262 72.629 C 472.429 76.225,471.728 113.468,471.706 155.392 L 471.667 231.617 313.455 232.058 C 155.878 232.498,155.225 232.514,150.538 235.987 C 141.458 242.715,137.968 249.820,138.687 260.109 C 139.486 271.551,144.473 279.163,154.002 283.491 C 160.506 286.445,168.289 286.595,316.250 286.630 L 471.667 286.667 471.667 428.301 L 471.667 569.935 271.250 570.384 C 84.905 570.802,70.463 571.036,65.564 573.717 C 58.788 577.424,53.831 583.786,51.402 591.892 C 48.040 603.115,54.265 616.767,65.564 622.950 C 70.463 625.631,84.903 625.865,271.208 626.283 L 471.582 626.732 472.041 777.949 C 472.547 944.563,471.911 934.707,482.692 943.187 C 493.196 951.449,506.804 951.449,517.308 943.187 C 528.089 934.707,527.453 944.563,527.959 777.949 L 528.418 626.732 728.792 626.283 C 915.097 625.865,929.537 625.631,934.436 622.950 C 941.212 619.242,946.169 612.880,948.598 604.774 C 951.960 593.552,945.735 579.899,934.436 573.717 C 929.537 571.036,915.095 570.802,728.750 570.384 L 528.333 569.935 528.333 428.301 L 528.333 286.667 683.750 286.630 C 831.711 286.595,839.494 286.445,845.998 283.491 C 855.527 279.163,860.514 271.551,861.313 260.109 C 862.032 249.820,858.542 242.715,849.462 235.987 C 844.775 232.514,844.122 232.498,686.545 232.058 L 528.333 231.617 528.294 155.392 C 528.272 113.468,527.571 76.225,526.738 72.629 C 525.904 69.033,523.815 64.158,522.096 61.796 C 518.328 56.615,505.936 50.000,500.000 50.000 C 497.638 50.000,492.404 51.688,488.367 53.750 " stroke="none" fill-rule="evenodd" fill="#000000"></path></svg>