<svg width="1000" height="1000" viewBox="0 0 1000 1000" version="1.1" id="svg5" xmlns="http://www.w3.org/2000/svg" xmlns:svg="http://www.w3.org/2000/svg"><path d="M486.668 60.206 C 484.376 61.119,480.743 63.509,478.592 65.517 C 470.588 72.990,470.000 76.086,470.000 110.751 L 470.000 143.333 345.780 143.333 C 245.219 143.333,220.533 143.762,216.170 145.585 C 209.415 148.408,200.033 158.916,199.900 163.808 C 199.845 165.839,199.823 205.305,199.851 251.511 L 199.902 335.521 204.008 341.725 C 208.368 348.315,219.910 355.025,226.776 354.963 C 232.070 354.916,243.396 349.672,247.020 345.591 C 251.100 340.996,255.000 330.953,255.000 325.041 L 255.000 319.976 362.083 320.404 L 469.167 320.833 469.628 345.417 L 470.089 370.000 314.245 370.000 C 139.212 370.000,149.145 369.307,139.830 382.166 L 135.000 388.833 135.000 478.637 C 135.000 576.877,134.860 575.379,144.825 583.764 C 162.527 598.659,187.702 587.690,189.647 564.236 L 190.413 555.000 329.373 555.000 L 468.333 555.000 468.340 566.250 C 468.344 572.438,468.835 587.063,469.431 598.750 L 470.514 620.000 329.117 620.000 C 188.966 620.000,187.655 620.031,180.503 623.493 C 166.332 630.353,160.485 649.474,168.790 661.797 C 170.874 664.890,175.110 669.126,178.203 671.210 L 183.826 675.000 324.413 675.000 C 433.463 675.000,465.000 675.453,465.000 677.021 C 465.000 678.133,462.000 685.070,458.332 692.438 C 421.891 765.648,301.660 842.735,177.500 872.495 C 146.432 879.942,124.872 883.157,95.101 884.781 C 75.233 885.866,69.295 886.771,64.786 889.405 C 47.202 899.674,45.814 923.325,62.102 935.124 C 68.675 939.885,69.316 940.000,89.331 940.000 C 192.206 940.000,332.232 887.236,424.337 813.764 C 453.375 790.600,485.925 755.245,499.431 732.199 C 501.752 728.240,504.407 725.000,505.333 725.000 C 506.258 725.000,598.230 773.501,709.713 832.780 C 930.031 949.930,920.791 945.582,934.538 938.569 C 952.301 929.507,954.227 904.942,938.115 892.965 C 935.027 890.670,847.375 843.591,743.333 788.346 C 639.292 733.100,549.292 685.185,543.333 681.866 L 532.500 675.833 672.631 675.000 L 812.761 674.167 818.732 669.612 C 826.005 664.064,830.856 652.588,829.489 644.166 C 828.336 637.056,823.374 629.779,816.184 624.650 L 810.833 620.833 667.917 620.381 L 525.000 619.928 525.000 587.464 L 525.000 555.000 664.800 555.000 L 804.599 555.000 805.298 564.659 C 806.426 580.259,816.678 590.385,831.345 590.385 C 844.862 590.385,854.659 583.080,858.431 570.191 C 859.601 566.193,860.021 535.015,859.680 477.500 L 859.167 390.833 855.333 384.667 C 853.224 381.276,848.724 376.776,845.333 374.667 L 839.167 370.833 682.083 370.368 L 525.000 369.902 525.000 344.951 L 525.000 320.000 632.500 320.000 L 740.000 320.000 740.000 326.749 C 740.000 335.099,743.117 341.335,750.553 347.864 C 757.328 353.812,765.873 355.791,774.617 353.436 C 781.672 351.537,790.530 343.307,793.231 336.142 C 794.392 333.062,794.999 302.985,794.997 248.642 C 794.995 155.817,795.438 159.416,782.763 149.285 L 776.359 144.167 650.679 143.709 L 525.000 143.252 525.000 111.888 C 525.000 82.280,524.783 80.113,521.125 73.179 C 514.622 60.852,499.409 55.125,486.668 60.206 M469.619 232.083 L 469.167 264.167 362.083 264.596 L 255.000 265.024 255.000 232.512 L 255.000 200.000 362.536 200.000 L 470.072 200.000 469.619 232.083 M740.000 232.500 L 740.000 265.000 632.500 265.000 L 525.000 265.000 525.000 232.500 L 525.000 200.000 632.500 200.000 L 740.000 200.000 740.000 232.500 M469.616 462.917 L 469.167 499.167 330.000 499.167 L 190.833 499.167 190.384 462.917 L 189.935 426.667 330.000 426.667 L 470.065 426.667 469.616 462.917 M804.616 462.917 L 804.167 499.167 664.583 499.593 L 525.000 500.019 525.000 463.343 L 525.000 426.667 665.033 426.667 L 805.065 426.667 804.616 462.917 " stroke="none" fill-rule="evenodd" fill="#000000"></path></svg>