<svg width="1000" height="1000" viewBox="0 0 1000 1000" version="1.1" id="svg5" xmlns="http://www.w3.org/2000/svg" xmlns:svg="http://www.w3.org/2000/svg"><path d="M520.833 62.260 C 514.660 65.118,509.124 70.999,506.778 77.192 C 505.572 80.375,505.000 125.518,505.000 217.608 L 505.000 353.333 383.333 353.333 L 261.667 353.333 261.667 260.353 L 261.667 167.373 257.917 159.950 C 248.031 140.382,223.085 139.464,210.456 158.203 L 206.667 163.826 206.667 276.667 L 206.667 389.507 210.417 395.017 C 212.479 398.047,216.284 402.096,218.872 404.013 C 223.536 407.470,224.782 407.507,363.872 408.333 L 504.167 409.167 503.777 423.333 C 503.300 440.663,501.351 450.475,495.012 467.469 C 490.342 479.987,476.163 506.437,473.033 508.472 C 472.210 509.006,418.879 490.434,354.519 467.201 C 227.547 421.365,231.428 422.422,218.775 430.242 C 207.266 437.355,203.029 455.828,210.417 466.684 C 212.479 469.714,216.062 473.596,218.378 475.311 C 220.694 477.026,269.352 495.253,326.507 515.816 C 383.663 536.379,430.741 553.519,431.126 553.904 C 432.402 555.179,417.745 566.829,400.313 578.394 C 337.760 619.896,257.069 643.358,154.195 649.958 C 139.544 650.898,121.218 651.667,113.471 651.667 C 102.808 651.667,97.740 652.470,92.610 654.975 C 72.710 664.691,71.899 691.492,91.162 702.781 L 98.671 707.181 132.252 706.156 C 168.525 705.049,206.309 701.565,235.685 696.619 L 254.167 693.506 259.167 698.318 C 261.917 700.964,266.278 703.925,268.858 704.898 C 272.092 706.117,352.281 706.667,526.842 706.667 C 777.702 706.667,780.196 706.634,786.734 703.299 C 790.374 701.442,795.194 696.986,797.481 693.364 L 801.627 686.796 817.063 692.366 C 892.410 719.552,889.913 718.766,898.370 717.953 C 913.660 716.484,925.174 701.989,922.779 687.227 C 921.633 680.166,914.217 670.158,907.798 667.008 C 905.378 665.821,818.821 634.430,715.449 597.252 C 612.077 560.073,527.331 529.501,527.125 529.313 C 526.919 529.125,531.154 520.016,536.536 509.069 C 551.351 478.940,557.230 457.561,559.655 425.000 L 560.833 409.167 681.667 409.167 L 802.500 409.167 803.467 419.264 C 803.999 424.817,805.758 431.602,807.375 434.340 C 818.321 452.869,845.588 451.719,855.054 432.329 C 858.321 425.639,858.383 422.643,857.946 293.701 C 857.506 163.543,857.457 161.853,854.064 157.308 C 841.336 140.263,820.332 140.263,807.603 157.307 C 804.239 161.812,804.157 163.916,803.710 257.621 L 803.254 353.333 681.627 353.333 L 560.000 353.333 559.963 217.917 C 559.929 89.460,559.767 82.149,556.824 75.668 C 555.118 71.911,551.266 67.088,548.264 64.950 C 541.614 60.216,528.111 58.892,520.833 62.260 M595.000 612.436 C 650.458 632.379,696.958 649.341,698.333 650.131 C 699.744 650.940,632.400 651.587,543.750 651.616 C 457.354 651.644,386.667 651.373,386.667 651.015 C 386.667 650.656,395.479 645.381,406.250 639.293 C 431.805 624.849,452.622 609.870,473.731 590.737 C 483.137 582.212,491.583 575.448,492.500 575.707 C 493.417 575.965,539.542 592.494,595.000 612.436 M157.039 888.525 C 138.160 897.886,136.548 922.719,153.975 935.730 L 158.578 939.167 525.833 939.167 L 893.089 939.167 897.794 935.680 C 905.893 929.679,910.000 922.049,910.000 913.004 C 910.000 902.944,906.859 896.588,898.882 890.503 L 892.760 885.833 528.463 885.412 L 164.167 884.990 157.039 888.525 " stroke="none" fill-rule="evenodd" fill="black"></path></svg>