<svg width="1000" height="1000" viewBox="0 0 1000 1000" version="1.1" id="svg5" sodipodi:docname="遊.svg" inkscape:version="1.2.1 (9c6d41e410, 2022-07-14)" xmlns:inkscape="http://www.inkscape.org/namespaces/inkscape" xmlns:sodipodi="http://sodipodi.sourceforge.net/DTD/sodipodi-0.dtd" xmlns="http://www.w3.org/2000/svg" xmlns:svg="http://www.w3.org/2000/svg"><path d="M223.394 51.940 C 210.465 55.687,203.333 65.197,203.333 78.687 C 203.333 85.092,207.645 93.956,236.853 147.602 C 255.288 181.463,272.584 211.499,275.286 214.350 C 287.892 227.644,310.184 224.307,318.569 207.871 C 325.113 195.043,324.011 192.139,286.791 124.167 C 268.218 90.250,251.782 61.111,250.265 59.413 C 244.087 52.495,232.548 49.286,223.394 51.940 M406.667 51.931 C 395.191 55.206,386.667 66.616,386.667 78.704 C 386.667 84.917,391.276 94.374,420.219 147.537 C 438.673 181.433,455.995 211.527,458.713 214.412 C 464.325 220.369,475.890 224.291,482.849 222.596 C 490.481 220.738,499.295 214.018,502.240 207.814 C 508.449 194.728,507.733 192.817,472.228 127.650 C 454.203 94.567,437.665 65.062,435.475 62.082 C 428.768 52.952,417.277 48.903,406.667 51.931 M746.319 51.630 C 736.191 54.722,731.992 59.815,719.866 83.713 C 692.327 137.986,674.889 163.678,645.950 192.614 C 631.931 206.631,620.281 216.420,607.517 224.905 C 587.571 238.166,548.861 257.689,522.500 267.784 L 505.833 274.167 287.205 275.000 C 69.638 275.829,68.554 275.850,63.975 279.270 C 49.482 290.092,46.949 307.157,57.903 320.175 C 66.630 330.547,54.694 330.000,272.446 330.000 L 471.667 330.000 471.667 485.833 L 471.667 641.667 349.167 641.667 L 226.667 641.667 226.667 543.280 C 226.667 434.823,226.992 438.354,216.117 428.806 C 205.577 419.552,192.723 419.581,182.128 428.884 C 171.264 438.422,171.667 433.410,171.667 559.005 C 171.667 635.577,172.250 674.660,173.439 677.808 C 175.852 684.193,183.044 691.597,189.530 694.372 C 193.937 696.257,218.976 696.667,329.946 696.667 C 446.023 696.667,465.000 697.002,465.000 699.053 C 465.000 702.490,455.926 726.599,450.724 736.983 C 414.704 808.885,348.813 858.585,260.130 880.742 C 229.782 888.325,190.797 893.326,161.907 893.343 C 141.685 893.354,134.169 895.439,126.426 903.182 C 115.681 913.927,115.681 929.407,126.426 940.151 C 135.394 949.119,140.538 949.989,174.648 948.306 C 251.508 944.513,318.389 926.450,373.050 894.722 C 446.986 851.807,497.735 787.885,519.044 710.833 L 522.731 697.500 648.032 697.073 L 773.333 696.646 773.361 706.239 C 773.412 724.045,784.598 736.667,800.329 736.667 C 812.745 736.667,822.485 730.218,826.643 719.244 C 827.967 715.751,828.475 674.957,828.392 578.690 C 828.292 461.809,827.932 442.391,825.787 438.243 C 817.165 421.571,797.306 417.020,784.033 428.675 C 780.828 431.488,777.297 435.375,776.186 437.312 C 774.693 439.916,773.950 466.885,773.333 540.833 L 772.500 640.833 650.417 641.261 L 528.333 641.688 528.333 485.864 L 528.333 330.040 729.878 329.603 C 930.498 329.169,931.444 329.151,936.025 325.730 C 953.071 313.003,953.071 291.997,936.025 279.270 C 931.469 275.867,929.958 275.829,783.212 275.390 C 701.695 275.147,635.000 274.371,635.000 273.666 C 635.000 272.962,637.354 270.995,640.231 269.295 C 650.721 263.099,678.142 239.835,690.736 226.448 C 719.280 196.106,746.428 154.799,771.293 103.879 C 782.109 81.728,783.043 73.930,776.131 63.484 C 769.986 54.198,756.054 48.658,746.319 51.630 " stroke="none" fill-rule="evenodd" fill="black"></path></svg>