<svg width="1000" height="1000" viewBox="0 0 1000 1000" version="1.1" id="svg5" sodipodi:docname="道.svg" inkscape:version="1.2.1 (9c6d41e410, 2022-07-14)" xmlns:inkscape="http://www.inkscape.org/namespaces/inkscape" xmlns:sodipodi="http://sodipodi.sourceforge.net/DTD/sodipodi-0.dtd" xmlns="http://www.w3.org/2000/svg" xmlns:svg="http://www.w3.org/2000/svg"><path d="M170.798 51.615 C 163.449 53.281,157.239 57.852,152.946 64.756 L 149.167 70.833 148.692 177.830 L 148.217 284.827 110.060 285.330 C 74.383 285.801,71.596 286.060,67.201 289.320 C 58.929 295.455,55.000 302.920,55.000 312.500 C 55.000 323.506,59.792 331.118,69.950 336.250 C 76.955 339.789,79.369 340.000,112.853 340.000 L 148.333 340.000 148.343 602.917 C 148.349 778.629,148.923 867.889,150.073 872.032 C 151.950 878.790,158.295 887.225,163.930 890.454 C 166.580 891.973,190.919 892.715,258.333 893.333 L 349.167 894.167 350.000 912.500 C 350.931 932.988,352.982 938.244,362.625 944.852 C 372.386 951.540,388.940 949.458,397.024 940.526 C 405.412 931.258,405.000 947.146,405.000 632.641 L 405.000 340.174 443.051 339.670 L 481.102 339.167 487.195 334.516 C 500.733 324.182,502.848 307.602,492.237 294.992 C 484.200 285.439,481.979 285.000,441.749 285.000 L 405.000 285.000 405.000 179.946 C 405.000 68.132,405.011 68.300,397.024 59.474 C 388.940 50.542,372.386 48.460,362.625 55.148 C 350.216 63.651,350.929 56.782,350.000 176.667 L 349.167 284.167 277.141 284.601 L 205.116 285.035 204.641 177.934 L 204.167 70.833 200.333 64.667 C 193.956 54.412,181.920 49.093,170.798 51.615 M540.867 200.478 C 532.805 205.044,526.731 215.133,526.694 224.020 C 526.654 233.516,533.292 243.876,542.169 248.173 C 549.327 251.638,550.564 251.667,695.264 251.667 L 841.142 251.667 848.400 247.829 C 856.630 243.476,863.333 232.856,863.333 224.167 C 863.333 215.987,856.540 204.711,849.042 200.444 L 842.500 196.722 695.000 196.722 L 547.500 196.722 540.867 200.478 M349.589 588.750 L 349.167 837.500 277.083 837.934 L 205.000 838.369 205.000 589.184 L 205.000 340.000 277.505 340.000 L 350.011 340.000 349.589 588.750 M479.717 751.711 C 469.934 756.879,465.833 764.042,465.833 775.963 C 465.833 784.394,466.586 787.080,470.323 791.979 C 479.637 804.190,462.679 803.336,695.252 803.306 L 904.167 803.278 910.799 799.522 C 918.951 794.905,924.945 784.867,924.945 775.833 C 924.945 766.799,918.951 756.762,910.799 752.145 L 904.167 748.388 695.000 748.434 C 491.311 748.479,485.673 748.565,479.717 751.711 " stroke="none" fill-rule="evenodd" fill="black"></path></svg>