<svg width="1000" height="1000" viewBox="0 0 1000 1000" version="1.1" id="svg5" xmlns="http://www.w3.org/2000/svg" xmlns:svg="http://www.w3.org/2000/svg"><path d="M274.425 52.497 C 270.901 53.718,266.142 56.467,263.850 58.608 C 254.828 67.035,255.000 65.196,255.000 153.251 L 255.000 235.000 241.024 235.000 L 227.049 235.000 214.774 185.502 C 207.523 156.262,201.120 133.939,199.127 130.958 C 193.874 123.100,185.595 118.333,177.200 118.333 C 163.066 118.333,153.725 125.242,149.702 138.672 C 147.909 144.655,148.656 148.953,158.276 188.029 C 164.072 211.572,169.123 231.673,169.501 232.699 C 169.972 233.974,164.491 234.806,152.178 235.329 C 131.729 236.197,126.069 238.303,118.891 247.713 C 115.122 252.655,114.266 255.503,114.221 263.257 C 114.176 271.135,114.961 273.791,118.836 278.877 C 127.996 290.896,127.276 290.776,193.486 291.327 L 252.804 291.822 251.416 300.678 C 249.556 312.534,242.583 336.304,236.458 351.667 C 216.780 401.019,176.998 449.683,142.282 466.870 C 135.818 470.070,127.593 472.490,119.896 473.457 C 105.864 475.219,98.570 479.372,93.422 488.532 C 85.797 502.099,91.180 518.629,105.679 526.170 C 111.883 529.397,128.578 529.207,142.189 525.755 C 156.400 522.150,176.815 511.812,191.360 500.853 C 198.066 495.801,204.165 491.667,204.912 491.667 C 205.660 491.667,221.434 509.685,239.966 531.709 C 258.878 554.183,275.965 572.957,278.914 574.502 C 290.428 580.532,305.562 576.822,313.557 566.008 C 318.466 559.368,319.690 545.792,316.020 538.694 C 313.783 534.369,293.238 509.357,250.498 458.928 L 243.233 450.356 253.804 434.761 C 267.305 414.843,278.671 393.966,286.095 375.448 C 289.317 367.410,292.547 360.212,293.274 359.452 C 294.233 358.450,367.858 445.460,392.241 476.411 C 393.560 478.085,393.205 479.106,390.846 480.426 C 384.651 483.893,380.736 489.874,373.513 506.905 C 356.729 546.486,315.802 620.815,288.146 661.945 C 279.237 675.195,277.787 676.635,275.313 674.691 C 273.778 673.486,248.518 651.142,219.178 625.038 C 189.839 598.933,163.237 576.246,160.064 574.621 C 152.347 570.669,145.560 570.899,136.610 575.417 C 124.124 581.719,118.693 595.973,123.512 609.797 C 124.843 613.613,142.061 629.990,185.179 668.447 C 218.081 697.792,245.000 722.227,245.000 722.745 C 245.000 723.263,239.948 730.170,233.773 738.094 C 210.649 767.764,188.474 793.263,164.193 818.104 C 126.563 856.603,100.353 878.212,72.687 893.547 C 56.663 902.428,51.026 909.708,51.026 921.518 C 51.026 936.367,63.196 948.889,77.630 948.889 C 109.713 948.889,202.976 867.127,270.833 779.512 C 279.083 768.860,286.368 760.112,287.021 760.072 C 287.674 760.033,309.432 778.938,335.371 802.083 C 361.310 825.229,384.745 845.898,387.447 848.013 C 390.932 850.741,391.897 852.473,390.764 853.968 C 381.073 866.763,378.333 872.701,378.333 880.910 C 378.333 902.678,402.012 915.061,420.230 902.821 C 426.916 898.329,459.084 856.141,470.830 836.458 C 511.276 768.687,539.097 673.243,555.869 544.724 C 557.340 533.455,558.861 523.917,559.250 523.528 C 559.638 523.140,563.254 529.874,567.284 538.494 C 608.052 625.678,637.263 684.703,641.606 688.668 C 646.669 693.291,658.804 697.603,661.705 695.810 C 664.815 693.887,663.293 701.092,656.051 722.569 C 638.037 775.994,622.559 805.177,589.461 848.116 C 573.761 868.484,570.768 875.473,573.461 885.474 C 578.607 904.586,602.067 912.862,616.552 900.674 C 627.796 891.213,661.135 844.588,675.448 818.308 C 709.133 756.456,734.573 663.466,750.830 542.764 C 751.428 538.326,752.248 535.025,752.652 535.430 C 753.056 535.834,785.940 616.978,825.726 715.749 C 867.479 819.403,899.637 897.006,901.784 899.291 C 906.982 904.825,918.601 908.969,925.345 907.694 C 941.612 904.620,952.203 888.950,948.087 874.045 C 947.208 870.860,905.937 767.585,856.374 644.544 C 806.811 521.503,765.704 418.947,765.025 416.641 C 764.346 414.336,764.763 397.086,765.951 378.308 C 771.644 288.374,775.297 121.832,771.808 111.263 C 768.987 102.715,758.175 93.764,749.012 92.390 C 738.828 90.863,727.991 96.278,722.622 105.577 C 718.653 112.452,718.618 112.942,717.574 175.833 C 715.936 274.431,712.669 357.340,708.379 409.167 C 707.469 420.167,705.920 439.292,704.938 451.667 C 701.047 500.700,690.773 577.739,682.378 620.833 C 678.964 638.361,678.255 640.606,676.676 638.918 C 675.946 638.138,651.550 587.625,622.462 526.667 C 573.676 424.429,569.591 415.187,569.790 407.500 C 569.909 402.917,570.760 386.792,571.682 371.667 C 574.973 317.675,576.675 266.394,577.658 191.667 L 578.655 115.833 574.744 108.340 C 565.275 90.198,541.167 88.287,528.656 104.687 L 524.167 110.572 522.198 203.203 C 521.115 254.150,519.410 312.333,518.408 332.500 C 508.197 538.084,485.074 674.291,444.529 767.684 C 437.078 784.848,425.558 806.667,423.947 806.667 C 422.738 806.667,320.000 715.136,320.000 714.060 C 320.000 713.590,324.381 706.672,329.735 698.686 C 363.060 648.981,396.097 590.156,419.652 538.584 L 428.291 519.668 433.361 523.935 C 442.555 531.671,455.974 531.800,465.876 524.247 C 476.887 515.849,480.070 499.088,472.702 488.304 C 470.521 485.112,433.414 439.750,390.241 387.500 L 311.744 292.500 371.289 291.667 C 429.816 290.848,430.939 290.768,436.999 286.999 C 445.843 281.500,450.000 273.933,450.000 263.333 C 450.000 252.788,445.841 245.155,437.176 239.800 C 432.317 236.797,427.976 235.956,414.170 235.342 L 397.153 234.585 401.793 220.155 C 406.899 204.276,411.545 182.459,415.930 153.759 L 418.793 135.018 414.715 127.092 C 404.732 107.689,379.662 106.263,367.437 124.403 C 364.981 128.047,362.627 137.630,359.413 157.063 C 353.740 191.365,349.813 205.940,341.983 221.751 L 335.833 234.167 322.917 234.653 L 310.000 235.140 310.000 155.017 C 310.000 70.097,309.834 68.103,302.024 59.474 C 295.416 52.172,283.827 49.242,274.425 52.497 " stroke="none" fill-rule="evenodd" fill="#000000"></path></svg>