<svg width="1000" height="1000" viewBox="0 0 1000 1000" version="1.1" id="svg5" sodipodi:docname="醇.svg" inkscape:version="1.3.1 (91b66b0783, 2023-11-16)" xmlns:inkscape="http://www.inkscape.org/namespaces/inkscape" xmlns:sodipodi="http://sodipodi.sourceforge.net/DTD/sodipodi-0.dtd" xmlns="http://www.w3.org/2000/svg" xmlns:svg="http://www.w3.org/2000/svg"><path d="M196.668 58.539 C 182.755 64.087,176.144 81.066,182.288 95.470 C 184.921 101.644,273.795 184.666,281.169 187.841 C 291.687 192.370,306.468 187.975,313.383 178.264 C 318.445 171.155,319.739 157.552,316.035 150.390 C 313.010 144.541,229.550 66.160,220.241 60.425 C 213.754 56.429,203.930 55.643,196.668 58.539 M733.705 95.104 C 729.135 97.426,725.150 101.197,722.601 105.613 C 718.659 112.441,718.616 113.041,717.574 175.833 C 715.936 274.431,712.669 357.340,708.379 409.167 C 707.469 420.167,705.920 439.292,704.938 451.667 C 701.047 500.700,690.773 577.739,682.378 620.833 C 678.964 638.361,678.255 640.606,676.676 638.918 C 675.946 638.138,651.550 587.625,622.462 526.667 C 573.676 424.429,569.591 415.187,569.790 407.500 C 569.909 402.917,570.760 386.792,571.682 371.667 C 574.973 317.675,576.675 266.394,577.658 191.667 L 578.655 115.833 574.744 108.340 C 565.275 90.198,541.167 88.287,528.656 104.687 L 524.167 110.572 522.198 203.203 C 521.115 254.150,519.410 312.333,518.408 332.500 C 509.517 511.517,490.268 640.908,459.300 729.841 C 442.344 778.535,423.867 812.579,393.994 850.172 C 380.525 867.122,378.347 871.411,378.340 881.000 C 378.324 902.673,402.053 915.034,420.230 902.821 C 426.916 898.329,459.084 856.141,470.830 836.458 C 511.276 768.687,539.097 673.243,555.869 544.724 C 557.340 533.455,558.861 523.917,559.250 523.528 C 559.638 523.140,563.254 529.874,567.284 538.494 C 608.052 625.678,637.263 684.703,641.606 688.668 C 646.669 693.291,658.804 697.603,661.705 695.810 C 664.815 693.887,663.293 701.092,656.051 722.569 C 638.037 775.994,622.559 805.177,589.461 848.116 C 573.761 868.484,570.768 875.473,573.461 885.474 C 578.607 904.586,602.067 912.862,616.552 900.674 C 627.796 891.213,661.135 844.588,675.448 818.308 C 709.133 756.456,734.573 663.466,750.830 542.764 C 751.428 538.326,752.248 535.025,752.652 535.430 C 753.056 535.834,785.940 616.978,825.726 715.749 C 867.479 819.403,899.637 897.006,901.784 899.291 C 906.982 904.825,918.601 908.969,925.345 907.694 C 941.612 904.620,952.203 888.950,948.087 874.045 C 947.208 870.860,905.937 767.585,856.374 644.544 C 806.811 521.503,765.704 418.947,765.025 416.641 C 764.346 414.336,764.763 397.086,765.951 378.308 C 769.390 323.980,771.555 261.270,772.626 185.000 C 773.561 118.372,773.438 113.827,770.560 108.452 C 762.929 94.200,746.907 88.397,733.705 95.104 M394.167 100.686 C 387.088 103.832,383.256 108.546,372.372 127.500 C 358.332 151.949,343.325 174.705,325.107 199.167 C 304.406 226.962,280.149 255.883,277.722 255.660 C 276.683 255.565,251.036 238.220,220.728 217.114 C 190.421 196.009,163.271 177.525,160.395 176.037 C 137.982 164.448,113.168 190.140,124.783 212.909 C 127.777 218.777,136.081 225.170,183.717 258.288 C 214.214 279.489,239.388 297.461,239.658 298.225 C 240.226 299.832,201.103 336.589,179.125 355.097 C 143.957 384.714,112.512 405.863,82.316 420.210 C 60.697 430.481,54.625 435.679,51.744 446.378 C 46.942 464.212,65.059 483.072,83.458 479.392 C 90.297 478.024,123.678 462.015,135.622 454.374 C 146.114 447.662,148.334 447.470,144.498 453.605 C 139.414 461.737,139.852 466.154,150.848 517.760 C 156.843 545.891,162.185 570.653,162.721 572.787 C 163.688 576.641,163.593 576.667,148.097 576.676 C 128.850 576.687,120.872 578.795,113.978 585.689 C 101.347 598.320,103.522 617.894,118.671 627.924 L 125.583 632.500 185.444 633.014 L 245.305 633.527 244.157 643.847 C 235.792 719.059,186.527 812.353,138.455 844.019 C 126.998 851.566,120.826 854.004,108.333 855.914 C 89.514 858.792,79.202 872.174,82.453 889.501 C 83.937 897.411,93.756 907.373,102.428 909.767 C 118.233 914.132,147.774 905.037,170.833 888.708 C 214.639 857.687,258.062 794.007,280.189 728.340 C 284.205 716.420,287.996 706.667,288.613 706.667 C 289.230 706.667,305.550 724.587,324.879 746.490 C 360.981 787.400,365.959 791.667,377.587 791.667 C 388.659 791.667,400.098 782.014,403.354 769.924 C 406.876 756.844,405.523 754.855,351.721 694.000 C 324.248 662.925,301.747 636.605,301.718 635.512 C 301.680 634.017,316.680 633.397,362.209 633.012 L 422.750 632.500 429.662 627.924 C 441.574 620.037,445.826 606.895,440.395 594.754 C 434.226 580.963,425.439 576.850,401.905 576.740 C 389.686 576.683,386.493 576.190,387.155 574.464 C 394.823 554.482,402.092 520.595,407.553 479.365 C 410.821 454.697,409.936 448.976,401.520 440.368 C 388.711 427.267,366.612 430.264,358.638 446.185 C 356.723 450.007,354.006 463.025,351.753 479.167 C 345.517 523.840,340.612 544.474,331.250 565.417 L 326.220 576.667 313.982 576.667 L 301.743 576.667 301.288 477.621 C 300.840 380.094,300.780 378.503,297.347 373.871 C 285.081 357.321,263.252 357.321,250.987 373.871 C 247.553 378.503,247.493 380.094,247.045 477.621 L 246.590 576.667 233.407 576.667 C 222.291 576.667,220.090 576.209,219.364 573.750 C 218.891 572.146,213.200 545.790,206.718 515.181 C 200.236 484.572,193.725 456.984,192.249 453.874 C 188.566 446.111,177.320 439.722,167.339 439.722 C 163.089 439.722,160.261 439.164,161.056 438.481 C 161.850 437.798,171.500 430.557,182.500 422.388 C 209.638 402.237,232.822 382.185,261.976 353.649 L 286.452 329.692 337.862 365.426 C 366.138 385.080,390.887 402.024,392.860 403.080 C 397.911 405.783,410.930 405.467,416.663 402.502 C 427.989 396.645,434.106 381.608,430.100 369.471 C 427.367 361.188,421.774 356.652,370.391 321.043 C 345.426 303.741,325.000 289.107,325.000 288.523 C 325.000 287.939,329.937 281.546,335.972 274.316 C 370.437 233.027,403.392 185.722,423.856 148.164 C 430.207 136.508,431.667 132.271,431.667 125.494 C 431.667 106.507,411.334 93.056,394.167 100.686 " stroke="none" fill-rule="evenodd" fill="#000000"></path></svg>