<svg width="1000" height="1000" viewBox="0 0 1000 1000" version="1.1" id="svg5" inkscape:version="1.2.1 (9c6d41e410, 2022-07-14)" sodipodi:docname="針.svg" xmlns:inkscape="http://www.inkscape.org/namespaces/inkscape" xmlns:sodipodi="http://sodipodi.sourceforge.net/DTD/sodipodi-0.dtd" xmlns="http://www.w3.org/2000/svg" xmlns:svg="http://www.w3.org/2000/svg"><path d="M630.833 53.135 C 627.167 54.818,622.783 57.752,621.092 59.654 C 613.141 68.596,613.484 49.889,613.406 477.917 C 613.366 699.063,612.871 880.000,612.306 880.000 C 609.247 880.000,568.672 857.603,548.814 844.953 C 460.947 788.983,363.703 707.085,247.500 591.191 C 218.167 561.935,192.141 536.949,189.666 535.666 C 179.557 530.426,163.829 534.941,156.542 545.175 C 151.156 552.739,150.418 564.351,154.779 572.901 C 158.589 580.368,231.009 653.983,273.345 693.423 C 405.215 816.273,515.284 897.797,599.064 934.672 C 628.993 947.846,640.073 951.005,648.004 948.629 C 656.208 946.171,662.562 941.238,666.283 934.436 C 668.991 929.487,669.197 903.625,669.666 509.167 C 669.940 278.167,669.696 84.506,669.123 78.809 C 667.831 65.965,663.307 58.763,653.383 53.750 C 644.432 49.228,639.626 49.097,630.833 53.135 " stroke="none" fill-rule="evenodd" fill="black"></path></svg>