<svg width="1000" height="1000" viewBox="0 0 1000 1000" version="1.1" id="svg5" inkscape:version="1.2.1 (9c6d41e410, 2022-07-14)" sodipodi:docname="銭.svg" xmlns:inkscape="http://www.inkscape.org/namespaces/inkscape" xmlns:sodipodi="http://sodipodi.sourceforge.net/DTD/sodipodi-0.dtd" xmlns="http://www.w3.org/2000/svg" xmlns:svg="http://www.w3.org/2000/svg"><path d="M494.132 51.615 C 486.782 53.281,480.573 57.852,476.279 64.756 C 472.683 70.539,472.473 72.707,471.949 109.583 L 471.398 148.333 317.782 148.343 C 211.414 148.349,162.140 148.915,157.578 150.181 C 143.680 154.040,134.169 170.092,138.069 183.108 C 140.497 191.214,145.454 197.576,152.230 201.283 C 157.103 203.949,169.331 204.201,314.583 204.624 L 471.667 205.082 471.667 265.852 L 471.667 326.622 292.622 327.061 C 114.729 327.497,113.547 327.522,108.975 330.936 C 101.466 336.543,97.916 342.589,97.091 351.173 C 96.080 361.691,99.545 369.878,107.610 376.030 L 113.906 380.833 292.762 381.272 L 471.618 381.711 472.059 655.439 C 472.471 911.295,472.688 929.511,475.383 934.436 C 481.566 945.735,495.218 951.960,506.441 948.598 C 514.547 946.169,520.909 941.212,524.617 934.436 C 527.209 929.699,527.584 920.660,528.333 844.923 L 529.167 760.679 596.667 807.108 C 633.792 832.643,667.917 855.733,672.500 858.419 C 682.561 864.315,693.176 864.941,701.103 860.108 C 707.287 856.337,724.195 834.396,748.706 798.333 C 842.453 660.404,889.393 533.810,901.782 385.495 C 904.901 348.157,903.315 340.112,891.025 330.936 C 886.453 327.522,885.271 327.497,707.378 327.061 L 528.333 326.622 528.333 265.852 L 528.333 205.082 685.417 204.624 C 830.669 204.201,842.897 203.949,847.770 201.283 C 854.546 197.576,859.503 191.214,861.931 183.108 C 865.831 170.092,856.320 154.040,842.422 150.181 C 837.860 148.915,788.586 148.349,682.218 148.343 L 528.602 148.333 528.051 109.583 C 527.524 72.539,527.331 70.562,523.666 64.667 C 517.289 54.412,505.254 49.093,494.132 51.615 M846.652 383.750 C 846.643 384.896,845.511 395.392,844.136 407.074 C 828.985 535.752,787.644 641.919,704.652 765.278 C 693.757 781.472,683.936 795.475,682.827 796.395 C 681.379 797.597,659.477 783.430,604.989 746.045 L 529.167 694.022 528.741 537.844 L 528.316 381.667 687.491 381.667 C 813.729 381.667,846.664 382.098,846.652 383.750 M168.547 473.567 C 155.402 477.388,147.474 488.641,148.569 501.923 C 149.477 512.935,298.509 801.944,306.413 808.021 C 310.486 811.152,314.536 812.489,321.413 812.970 C 332.311 813.732,339.573 809.944,346.358 799.960 C 349.653 795.112,350.169 792.671,349.523 785.000 C 348.836 776.853,340.381 759.619,273.534 630.122 C 232.165 549.981,197.010 482.967,195.413 481.202 C 189.067 474.190,177.607 470.933,168.547 473.567 " stroke="none" fill-rule="evenodd" fill="black"></path></svg>