<svg width="1000" height="1000" viewBox="0 0 1000 1000" version="1.1" id="svg5" sodipodi:docname="長.svg" inkscape:version="1.3 (0e150ed6c4, 2023-07-21)" xmlns:inkscape="http://www.inkscape.org/namespaces/inkscape" xmlns:sodipodi="http://sodipodi.sourceforge.net/DTD/sodipodi-0.dtd" xmlns="http://www.w3.org/2000/svg" xmlns:svg="http://www.w3.org/2000/svg"><path d="M669.167 55.603 C 662.219 58.833,655.241 66.680,653.301 73.448 C 652.320 76.866,651.667 116.640,651.667 172.906 L 651.667 266.667 573.860 266.667 C 498.392 266.667,495.837 266.771,488.871 270.143 C 478.169 275.324,474.167 281.943,474.167 294.461 C 474.167 305.979,477.039 311.375,486.650 317.917 L 492.160 321.667 571.913 321.667 L 651.667 321.667 651.667 398.333 L 651.667 475.000 577.083 475.040 C 536.063 475.062,499.558 475.762,495.962 476.596 C 471.133 482.354,465.296 512.356,486.214 526.695 L 492.251 530.833 571.959 531.325 L 651.667 531.818 651.667 608.409 L 651.667 685.000 541.913 685.000 L 432.160 685.000 426.536 688.790 C 417.591 694.818,413.333 702.464,413.333 712.500 C 413.333 723.506,418.125 731.118,428.283 736.250 L 435.706 740.000 543.686 740.000 L 651.667 740.000 651.676 830.417 C 651.682 886.399,652.329 923.151,653.376 926.919 C 655.517 934.627,666.212 944.451,674.067 945.925 C 682.501 947.507,690.756 945.551,696.677 940.568 C 707.024 931.862,706.667 935.700,706.667 833.416 L 706.667 740.000 815.307 740.000 C 922.201 740.000,924.064 739.944,931.164 736.507 C 946.487 729.089,951.274 709.374,941.017 695.926 C 938.550 692.691,934.874 689.097,932.849 687.939 C 930.026 686.325,903.309 685.639,818.333 685.000 L 707.500 684.167 707.067 607.917 L 706.633 531.667 782.900 531.657 C 830.977 531.652,861.494 531.002,865.462 529.900 C 884.560 524.596,892.526 502.681,880.897 487.436 C 871.797 475.505,874.802 475.889,786.233 475.341 L 706.633 474.849 707.067 398.675 L 707.500 322.500 788.333 321.667 L 869.167 320.833 874.778 316.832 C 880.865 312.490,886.572 301.831,886.630 294.692 C 886.682 288.284,883.804 281.564,878.644 276.045 C 869.841 266.630,870.211 266.667,785.054 266.667 L 706.667 266.667 706.667 169.413 L 706.667 72.160 702.917 66.650 C 700.854 63.619,697.160 59.654,694.707 57.837 C 689.065 53.658,675.840 52.502,669.167 55.603 M244.084 112.252 C 237.384 115.292,230.545 123.602,228.407 131.302 C 227.322 135.206,226.682 170.343,226.676 226.250 L 226.667 315.000 158.750 315.037 C 96.241 315.070,90.292 315.319,84.036 318.161 C 76.261 321.692,71.046 327.613,68.250 336.087 C 65.850 343.358,67.191 350.610,72.387 358.462 C 80.040 370.026,79.852 370.000,157.335 370.000 L 226.667 370.000 226.667 531.667 C 226.667 620.583,226.403 693.333,226.082 693.333 C 224.051 693.333,67.976 748.528,65.325 750.184 C 63.521 751.311,60.085 755.255,57.689 758.950 C 46.350 776.437,59.027 800.011,79.925 800.300 C 85.267 800.374,217.904 755.656,273.333 735.093 C 280.208 732.543,321.083 718.217,364.167 703.258 C 437.447 677.815,442.898 675.651,448.672 669.708 C 459.066 659.012,459.225 644.686,449.075 633.451 C 442.808 626.514,431.476 622.179,424.758 624.148 C 420.664 625.349,354.858 648.111,309.583 663.987 L 283.333 673.193 283.333 521.596 L 283.333 370.000 352.917 369.994 C 420.397 369.988,422.671 369.883,428.172 366.530 C 435.753 361.908,439.582 357.112,441.702 349.583 C 445.151 337.335,438.369 323.794,425.964 318.161 C 419.708 315.319,413.759 315.070,351.250 315.037 L 283.333 315.000 283.294 227.083 C 283.272 178.729,282.571 136.225,281.738 132.629 C 278.791 119.924,269.455 111.530,257.207 110.574 C 252.571 110.212,247.015 110.922,244.084 112.252 " stroke="none" fill-rule="evenodd" fill="#ffffff"></path></svg>