<svg width="1000" height="1000" viewBox="0 0 1000 1000" version="1.1" id="svg5" xmlns="http://www.w3.org/2000/svg" xmlns:svg="http://www.w3.org/2000/svg"><path d="M487.504 107.531 C 480.121 111.521,477.413 114.406,474.583 121.299 C 401.536 299.222,305.690 493.779,221.925 634.167 C 172.245 717.429,130.269 777.968,83.093 834.393 C 62.474 859.055,60.000 863.161,60.000 872.718 C 60.000 879.757,62.068 884.074,68.891 891.282 C 75.526 898.290,84.286 900.753,93.750 898.270 C 102.528 895.967,113.129 885.299,140.137 851.592 C 201.211 775.367,266.743 672.705,333.714 548.333 C 385.388 452.369,446.528 326.123,492.522 220.417 C 497.807 208.271,502.668 198.333,503.325 198.333 C 503.981 198.333,589.481 354.521,693.324 545.417 C 797.168 736.313,884.007 895.027,886.301 898.115 C 888.595 901.203,893.910 905.250,898.113 907.110 C 904.760 910.050,906.692 910.239,912.960 908.562 C 923.054 905.863,927.991 902.206,931.909 894.526 C 939.257 880.121,952.489 906.163,732.295 501.667 C 621.267 297.708,528.476 126.962,526.092 122.230 C 523.709 117.498,519.350 111.910,516.405 109.814 C 509.430 104.847,494.632 103.678,487.504 107.531 " stroke="none" fill-rule="evenodd" fill="black"></path></svg>