<svg width="1000" height="1000" viewBox="0 0 1000 1000" version="1.1" id="svg5" xmlns="http://www.w3.org/2000/svg" xmlns:svg="http://www.w3.org/2000/svg"><path d="M564.856 91.593 C 552.971 95.195,545.000 105.952,545.000 118.390 C 545.000 123.846,579.409 203.535,713.607 508.873 C 806.341 719.868,884.072 895.027,886.343 898.115 C 891.827 905.572,903.355 910.668,911.421 909.201 C 924.608 906.801,935.000 894.808,935.000 881.989 C 935.000 876.705,898.754 792.841,765.821 490.549 C 672.772 278.955,595.291 103.958,593.640 101.667 C 590.165 96.843,577.528 89.934,572.564 90.143 C 570.695 90.222,567.227 90.874,564.856 91.593 M352.536 97.026 C 345.557 98.514,337.845 104.670,334.196 111.667 C 333.000 113.958,330.023 129.333,327.580 145.833 C 307.387 282.229,269.249 438.289,227.203 556.580 C 184.990 675.339,131.710 776.409,77.355 840.833 C 63.402 857.371,60.000 863.590,60.000 872.556 C 60.000 879.755,62.033 884.037,68.891 891.282 C 80.630 903.682,95.485 901.974,110.320 886.518 C 146.054 849.288,193.035 775.105,227.913 700.833 C 294.236 559.605,354.291 346.462,382.570 151.943 C 386.853 122.485,386.911 121.121,384.191 113.998 C 379.284 101.150,366.170 94.119,352.536 97.026 " stroke="none" fill-rule="evenodd" fill="black"></path></svg>