<svg width="1000" height="1000" viewBox="0 0 1000 1000" version="1.1" id="svg5" xmlns="http://www.w3.org/2000/svg" xmlns:svg="http://www.w3.org/2000/svg"><path d="M488.926 54.875 C 486.044 56.632,481.544 60.853,478.926 64.253 C 445.397 107.813,356.231 204.605,301.540 256.811 C 214.787 339.622,151.382 390.061,78.669 434.107 C 58.239 446.483,54.273 450.321,51.579 460.326 C 48.538 471.619,55.019 485.590,65.636 490.628 C 76.126 495.606,84.365 494.250,100.903 484.824 C 166.524 447.421,255.999 377.238,333.227 302.590 C 383.477 254.019,445.854 188.032,492.437 134.167 C 498.778 126.833,504.593 120.833,505.357 120.833 C 506.122 120.833,596.060 204.458,705.220 306.667 C 814.379 408.875,905.882 493.899,908.558 495.609 C 915.393 499.976,928.164 499.740,935.658 495.108 C 947.951 487.511,952.705 469.973,945.609 458.392 C 942.381 453.125,520.540 57.383,514.343 53.809 C 508.824 50.626,494.940 51.208,488.926 54.875 M490.001 331.872 C 484.564 334.040,478.701 339.592,475.258 345.833 C 472.736 350.405,472.429 372.454,471.667 603.050 L 470.833 855.267 449.394 835.020 C 437.602 823.884,426.116 814.074,423.868 813.220 C 401.158 804.585,378.755 827.214,388.055 849.394 C 390.821 855.989,482.128 943.000,489.529 946.092 C 504.794 952.470,521.983 943.630,526.593 927.032 C 528.985 918.420,528.985 359.913,526.593 351.302 C 522.107 335.147,504.814 325.965,490.001 331.872 M194.473 474.062 C 190.975 475.320,186.556 477.734,184.654 479.425 C 180.153 483.428,175.083 494.564,175.037 500.553 C 175.005 504.660,280.490 740.774,290.545 759.102 C 300.749 777.702,324.645 779.664,336.790 762.898 C 346.536 749.444,348.332 754.561,284.168 612.951 C 252.543 543.156,224.981 484.243,222.918 482.034 C 215.116 473.679,204.112 470.595,194.473 474.062 M789.425 474.078 C 782.712 476.492,775.858 482.006,773.017 487.279 C 772.095 488.991,768.840 499.491,765.784 510.612 C 751.750 561.689,729.913 609.654,701.353 652.136 C 691.916 666.173,660.663 708.022,637.337 737.855 C 629.983 747.260,627.755 751.497,627.098 757.324 C 624.691 778.681,647.787 794.845,666.233 784.714 C 673.672 780.628,697.301 751.844,728.412 708.968 C 776.729 642.380,804.083 585.268,822.620 512.272 C 825.144 502.335,825.314 499.288,823.654 493.748 C 818.801 477.547,803.782 468.916,789.425 474.078 " stroke="none" fill-rule="evenodd" fill="black"></path></svg>