<svg width="1000" height="1000" viewBox="0 0 1000 1000" version="1.1" id="svg5" xmlns="http://www.w3.org/2000/svg" xmlns:svg="http://www.w3.org/2000/svg"><path d="M625.614 51.741 C 619.592 53.570,608.770 64.805,607.666 70.375 C 607.252 72.460,606.087 107.542,605.077 148.333 C 604.066 189.125,602.798 224.188,602.259 226.250 L 601.278 230.000 519.219 230.000 L 437.160 230.000 431.496 233.763 C 414.633 244.970,415.067 269.642,432.314 280.159 C 437.479 283.308,437.298 283.321,386.856 283.327 L 336.212 283.333 337.331 266.250 C 340.954 210.955,341.736 191.515,342.610 135.000 L 343.576 72.500 339.671 65.867 C 331.749 52.413,315.614 48.060,302.390 55.810 C 290.640 62.695,288.338 69.664,288.307 98.443 C 288.257 144.078,283.061 268.421,280.739 279.520 L 279.968 283.207 182.067 283.687 C 92.957 284.124,83.694 284.426,78.897 287.050 C 72.121 290.758,67.164 297.120,64.735 305.226 C 60.836 318.241,70.347 334.294,84.245 338.152 C 88.660 339.378,121.275 339.984,183.135 339.991 L 275.436 340.000 274.383 346.250 C 273.805 349.688,272.534 359.625,271.560 368.333 C 268.899 392.120,259.172 448.058,252.524 477.808 C 227.259 590.874,187.782 673.543,132.500 729.150 C 117.899 743.837,98.433 760.225,70.423 781.411 C 55.044 793.044,51.093 798.928,51.053 810.262 C 50.978 831.486,75.048 843.621,93.726 831.776 C 112.247 820.030,147.648 790.700,169.291 769.169 C 214.320 724.374,245.295 674.944,272.167 605.000 C 288.322 562.952,304.754 502.999,314.191 451.667 C 315.792 442.958,317.567 435.343,318.135 434.744 C 318.702 434.145,354.402 477.156,397.468 530.323 C 479.366 631.433,481.144 633.333,493.838 633.333 C 502.829 633.333,513.417 626.743,517.829 618.400 C 522.204 610.126,522.650 603.906,519.420 596.196 C 518.184 593.247,474.635 538.373,422.645 474.254 C 348.723 383.089,328.317 356.929,329.036 354.254 C 329.541 352.373,329.965 348.396,329.977 345.417 L 330.000 340.000 396.250 339.991 C 439.444 339.985,464.807 339.341,469.129 338.141 C 477.904 335.705,487.724 325.776,489.214 317.834 C 491.207 307.208,488.768 299.868,480.656 292.083 L 473.275 285.000 535.804 285.000 C 590.792 285.000,598.333 285.307,598.333 287.547 C 598.333 298.150,588.600 378.240,583.351 410.833 C 572.715 476.872,555.041 544.069,534.914 595.000 C 526.088 617.332,505.202 657.580,492.814 676.127 C 468.451 712.605,441.621 739.923,396.402 774.292 C 376.615 789.330,373.264 792.571,370.786 799.059 C 365.659 812.483,371.464 826.167,385.174 832.976 C 399.416 840.048,407.071 836.489,448.185 803.670 C 469.474 786.676,502.657 754.187,516.619 736.667 C 569.423 670.402,607.910 577.154,630.121 461.667 C 632.148 451.125,634.263 441.976,634.820 441.335 C 635.377 440.694,694.333 525.768,765.833 630.388 C 837.333 735.008,898.007 823.133,900.664 826.221 C 906.965 833.545,913.241 836.667,921.667 836.667 C 939.545 836.667,953.430 818.336,947.840 802.112 C 946.650 798.659,878.354 697.402,796.071 577.097 L 646.465 358.362 648.986 336.264 C 650.372 324.111,652.019 307.630,652.645 299.640 L 653.783 285.113 739.939 284.640 L 826.096 284.167 832.249 279.472 C 840.428 273.232,843.597 268.074,844.482 259.559 C 845.418 250.551,839.774 239.038,831.837 233.763 L 826.174 230.000 741.995 230.000 L 657.817 230.000 658.927 207.083 C 659.537 194.479,660.468 159.042,660.994 128.333 C 661.887 76.290,661.744 72.112,658.892 66.785 C 652.307 54.482,637.952 47.993,625.614 51.741 M72.889 895.139 C 61.135 897.923,54.143 904.923,51.484 916.569 C 48.501 929.634,57.622 944.463,70.912 948.152 C 80.257 950.747,919.743 950.747,929.088 948.152 C 952.230 941.728,956.014 910.862,935.244 897.946 L 929.167 894.167 504.167 893.909 C 259.846 893.761,76.498 894.284,72.889 895.139 " stroke="none" fill-rule="evenodd" fill="black"></path></svg>