<svg width="1000" height="1000" viewBox="0 0 1000 1000" version="1.1" id="svg5" sodipodi:docname="雪.svg" inkscape:version="1.3 (0e150ed6c4, 2023-07-21)" xmlns:inkscape="http://www.inkscape.org/namespaces/inkscape" xmlns:sodipodi="http://sodipodi.sourceforge.net/DTD/sodipodi-0.dtd" xmlns="http://www.w3.org/2000/svg" xmlns:svg="http://www.w3.org/2000/svg"><path d="M173.481 72.674 C 167.583 75.155,158.362 85.907,158.214 90.475 C 158.149 92.505,157.899 176.667,157.659 277.500 C 157.228 458.938,156.551 486.838,150.724 563.333 C 139.397 712.017,110.321 814.696,61.805 877.349 C 50.516 891.927,49.211 895.181,50.406 905.780 C 52.085 920.675,66.236 931.407,81.314 929.220 C 88.054 928.243,90.480 926.712,98.439 918.417 C 115.133 901.016,137.763 863.923,151.365 831.667 C 180.960 761.485,201.254 657.733,207.682 543.746 C 208.332 532.229,209.633 522.717,210.667 521.929 C 211.675 521.160,220.750 517.277,230.833 513.300 C 284.522 492.125,359.376 447.620,425.554 397.528 C 440.107 386.512,453.703 376.431,455.769 375.125 C 459.327 372.875,465.747 376.534,577.110 444.291 L 694.695 515.833 695.437 676.667 C 696.219 846.383,696.261 847.349,704.024 872.623 C 709.887 891.711,725.423 909.391,744.167 918.305 C 764.372 927.914,772.118 928.715,852.919 929.541 C 926.001 930.288,926.740 930.262,934.157 926.671 C 945.070 921.389,949.167 914.791,949.167 902.500 C 949.167 892.510,949.120 892.416,903.545 810.833 C 878.452 765.917,855.663 725.568,852.902 721.169 C 844.161 707.243,829.203 702.925,815.867 710.478 C 807.885 714.999,801.732 725.132,801.694 733.816 C 801.661 741.546,801.281 740.791,841.115 812.140 C 858.917 844.026,873.904 871.213,874.419 872.557 C 875.224 874.656,870.456 874.996,840.595 874.971 C 801.395 874.939,778.455 873.022,768.214 868.924 C 762.775 866.748,760.573 864.618,758.188 859.225 C 750.999 842.974,751.037 845.083,750.933 458.333 L 750.833 89.167 746.943 83.712 C 744.803 80.712,740.187 76.796,736.685 75.010 C 730.461 71.834,724.137 71.751,454.088 71.297 C 255.318 70.963,176.631 71.350,173.481 72.674 M618.333 128.194 C 618.333 129.035,617.733 129.972,617.000 130.278 C 616.267 130.583,608.117 140.958,598.890 153.333 C 568.473 194.126,523.659 242.364,477.500 283.997 C 461.858 298.105,454.906 303.352,452.500 302.866 C 450.667 302.496,415.829 281.825,375.082 256.930 C 304.979 214.099,300.563 211.667,292.916 211.667 C 283.430 211.667,277.043 214.591,271.098 221.656 C 262.971 231.315,263.241 245.983,271.725 255.645 C 274.534 258.844,304.330 278.114,341.643 300.861 C 377.406 322.665,406.667 341.113,406.667 341.858 C 406.667 345.693,336.777 394.486,298.036 417.697 C 276.348 430.691,213.615 462.895,212.827 461.438 C 212.647 461.106,212.744 385.646,213.043 293.750 L 213.586 126.667 415.960 126.667 C 537.499 126.667,618.333 127.277,618.333 128.194 M696.667 289.167 C 696.667 378.542,696.191 451.667,695.610 451.667 C 694.444 451.667,508.446 338.661,505.933 336.427 C 505.019 335.613,520.059 319.750,542.071 298.312 C 578.316 263.013,604.535 234.914,626.031 208.333 C 643.359 186.906,660.018 162.770,661.980 156.250 C 664.306 148.520,661.886 139.164,655.641 131.742 L 651.370 126.667 674.019 126.667 L 696.667 126.667 696.667 289.167 M442.500 415.603 C 435.552 418.833,428.575 426.680,426.634 433.448 C 425.610 437.018,425.000 509.211,425.000 626.846 L 425.000 814.547 417.218 810.607 C 408.396 806.141,406.757 805.966,397.578 808.514 C 383.795 812.341,374.555 828.048,378.321 841.250 C 379.302 844.688,392.268 864.375,407.135 885.000 C 430.365 917.226,435.213 923.027,441.603 926.250 C 445.693 928.313,450.972 930.000,453.333 930.000 C 459.318 930.000,471.672 923.369,475.510 918.097 C 477.273 915.675,479.346 910.425,480.118 906.430 C 481.951 896.942,481.951 446.391,480.118 436.903 C 477.560 423.659,468.192 414.894,455.541 413.907 C 450.852 413.541,445.415 414.248,442.500 415.603 M537.286 555.823 C 529.255 560.637,524.429 569.436,524.483 579.167 C 524.512 584.419,534.633 607.014,572.185 685.664 C 599.039 741.906,621.823 787.553,624.367 790.209 C 636.549 802.924,659.241 799.305,667.502 783.330 C 673.797 771.157,673.467 770.275,623.067 664.413 C 597.254 610.194,575.014 564.103,573.646 561.987 C 567.053 551.796,549.085 548.750,537.286 555.823 M324.136 555.564 C 319.212 557.800,308.333 568.766,308.333 571.494 C 308.333 572.252,305.692 587.789,302.464 606.020 C 288.204 686.550,275.140 722.955,247.901 758.071 C 237.475 771.512,234.396 778.759,235.841 786.462 C 237.564 795.645,241.171 801.291,248.351 806.043 C 254.128 809.866,256.216 810.313,265.258 809.659 C 275.368 808.927,275.759 808.715,284.881 799.010 C 310.054 772.229,332.137 726.499,344.811 674.905 C 351.349 648.292,361.667 590.208,361.667 580.016 C 361.667 571.390,357.451 563.573,349.707 557.837 C 344.101 553.685,330.865 552.508,324.136 555.564 " stroke="none" fill-rule="evenodd" fill="black"></path></svg>