<svg width="1000" height="1000" viewBox="0 0 1000 1000" version="1.1" id="svg5" sodipodi:docname="青.svg" inkscape:version="1.2.1 (9c6d41e410, 2022-07-14)" xmlns:inkscape="http://www.inkscape.org/namespaces/inkscape" xmlns:sodipodi="http://sodipodi.sourceforge.net/DTD/sodipodi-0.dtd" xmlns="http://www.w3.org/2000/svg" xmlns:svg="http://www.w3.org/2000/svg"><path d="M226.701 57.083 C 222.664 59.146,217.874 62.875,216.056 65.371 C 213.696 68.611,209.314 86.964,200.737 129.538 C 167.378 295.115,130.621 407.057,77.414 505.117 C 61.715 534.049,60.562 539.178,67.145 550.799 C 74.429 563.660,90.193 568.370,103.400 561.632 C 110.955 557.778,113.568 553.975,130.481 522.220 C 145.135 494.707,154.658 474.407,169.101 439.901 C 175.013 425.774,180.536 413.988,181.373 413.709 C 182.211 413.430,189.182 419.869,196.865 428.018 C 204.547 436.168,225.269 457.891,242.912 476.292 L 274.991 509.748 264.308 540.291 C 225.765 650.487,200.718 712.047,167.120 779.167 C 138.251 836.838,118.433 867.554,92.281 895.160 C 78.315 909.903,74.951 917.701,78.069 928.108 C 82.073 941.474,91.658 948.718,105.339 948.718 C 115.455 948.718,123.116 943.729,137.259 927.933 C 189.306 869.801,242.111 764.457,301.624 600.026 C 309.898 577.168,316.667 557.623,316.667 556.594 C 316.667 555.564,317.236 554.972,317.932 555.278 C 318.628 555.583,330.674 567.833,344.702 582.500 C 377.929 617.241,384.918 621.038,401.164 613.173 C 414.514 606.711,420.440 589.706,413.680 577.257 C 412.114 574.373,394.521 554.997,374.583 534.198 C 354.646 513.400,338.333 495.370,338.333 494.133 C 338.333 492.896,339.129 489.791,340.102 487.232 C 342.790 480.162,363.666 411.235,373.085 378.333 C 386.691 330.801,400.723 277.311,413.089 225.833 C 431.486 149.252,430.866 152.748,427.569 144.116 C 424.279 135.501,417.385 129.152,408.698 126.740 C 404.877 125.679,374.859 125.015,330.417 125.009 C 290.771 125.004,258.340 124.813,258.349 124.583 C 258.358 124.354,260.196 114.314,262.433 102.271 C 266.862 78.436,266.453 72.749,259.689 64.150 C 255.618 58.974,244.592 53.425,238.270 53.370 C 235.943 53.350,230.737 55.021,226.701 57.083 M702.039 101.864 C 697.373 104.174,693.548 107.772,690.966 112.280 C 687.070 119.082,687.009 119.936,685.955 181.667 C 683.093 349.294,674.357 464.611,656.727 567.502 C 650.934 601.310,641.600 645.000,640.170 645.000 C 639.609 645.000,611.472 593.517,577.644 530.594 C 523.490 429.861,516.167 415.370,516.374 409.344 C 516.504 405.580,517.367 390.875,518.293 376.667 C 522.114 318.060,523.471 283.573,524.923 208.215 C 525.791 163.159,525.825 126.158,525.002 122.510 C 519.435 97.825,489.268 92.020,474.971 112.882 L 470.833 118.921 469.732 194.044 C 465.699 469.100,438.641 649.460,384.930 759.307 C 369.912 790.020,356.901 809.030,327.104 843.795 C 318.636 853.674,311.231 863.657,310.648 865.978 C 308.900 872.942,310.978 884.351,315.030 890.042 C 319.238 895.952,329.962 901.573,337.137 901.630 C 345.714 901.698,352.610 897.185,365.394 883.139 C 391.212 854.770,413.107 824.378,428.891 795.000 C 458.986 738.987,484.372 652.461,499.062 555.833 C 501.431 540.250,503.814 524.616,504.358 521.090 C 504.902 517.565,505.966 515.315,506.723 516.090 C 507.479 516.866,528.087 554.622,552.519 599.993 C 576.950 645.365,597.815 683.546,598.886 684.841 C 602.066 688.685,613.707 693.257,620.417 693.297 C 623.854 693.317,626.667 693.738,626.667 694.232 C 626.667 694.726,623.270 704.289,619.119 715.482 C 602.715 759.713,581.017 797.533,553.065 830.617 C 545.421 839.665,536.377 850.412,532.967 854.501 C 525.814 863.078,523.779 871.019,526.450 879.935 C 530.238 892.578,540.151 900.000,553.251 900.000 C 563.310 900.000,568.236 896.741,582.823 880.436 C 640.156 816.350,671.186 753.026,696.558 648.333 C 703.308 620.482,712.954 569.926,716.750 542.500 C 717.892 534.250,719.278 526.986,719.830 526.358 C 720.382 525.730,757.884 606.930,803.168 706.802 C 848.452 806.675,887.264 890.289,889.416 892.612 C 894.091 897.656,903.068 901.667,909.684 901.667 C 912.320 901.667,917.742 899.940,921.733 897.829 C 930.122 893.393,936.667 882.818,936.667 873.700 C 936.667 869.619,906.538 801.557,834.049 641.878 L 731.432 415.833 734.078 375.000 C 739.476 291.670,743.739 135.729,741.015 121.214 C 739.603 113.687,731.282 103.699,723.830 100.585 C 716.268 97.426,710.297 97.776,702.039 101.864 M366.667 183.088 C 366.667 189.863,328.876 333.638,312.500 389.167 C 297.134 441.268,294.860 448.333,293.453 448.333 C 292.074 448.333,202.895 355.709,202.008 353.356 C 201.738 352.638,204.857 341.276,208.940 328.108 C 221.613 287.235,231.124 250.495,245.880 185.417 L 246.730 181.667 306.698 181.667 C 339.681 181.667,366.667 182.306,366.667 183.088 " stroke="none" fill-rule="evenodd" fill="black"></path></svg>