<svg width="1000" height="1000" viewBox="0 0 1000 1000" version="1.1" id="svg5" sodipodi:docname="静.svg" inkscape:version="1.2.1 (9c6d41e410, 2022-07-14)" xmlns:inkscape="http://www.inkscape.org/namespaces/inkscape" xmlns:sodipodi="http://sodipodi.sourceforge.net/DTD/sodipodi-0.dtd" xmlns="http://www.w3.org/2000/svg" xmlns:svg="http://www.w3.org/2000/svg"><path d="M72.465 91.541 C 48.290 97.377,43.434 128.797,64.667 141.999 L 70.833 145.833 234.534 146.289 L 398.234 146.746 397.441 151.289 C 385.792 218.044,364.193 311.240,349.071 360.000 C 346.655 367.792,342.543 381.292,339.935 390.000 C 330.911 420.129,317.548 457.483,295.366 514.583 C 293.853 518.479,291.983 521.667,291.210 521.667 C 290.438 521.667,263.787 501.169,231.987 476.117 C 200.186 451.065,172.104 429.228,169.582 427.591 C 163.050 423.350,150.068 423.656,142.675 428.225 C 129.954 436.087,125.448 453.103,132.907 465.118 C 135.049 468.569,162.547 491.303,202.315 522.500 C 238.538 550.917,268.208 574.917,268.249 575.833 C 268.372 578.643,238.107 639.263,222.482 667.500 C 177.446 748.890,130.062 818.278,71.437 888.691 C 53.707 909.986,51.667 913.503,51.667 922.773 C 51.667 941.980,72.438 955.419,89.933 947.530 C 102.463 941.880,171.034 854.363,211.402 792.500 C 243.654 743.075,281.216 677.339,301.667 634.531 C 307.625 622.059,313.136 611.812,313.913 611.760 C 314.690 611.709,341.238 632.104,372.908 657.083 C 404.577 682.063,433.191 704.184,436.495 706.241 C 451.119 715.353,470.985 707.147,476.559 689.692 C 478.732 682.888,477.062 673.650,472.483 667.135 C 471.053 665.101,440.318 640.146,404.183 611.679 C 368.047 583.212,338.139 559.367,337.721 558.691 C 337.303 558.014,340.281 549.594,344.340 539.980 C 353.689 517.834,367.102 482.157,379.733 445.833 L 389.586 417.500 598.126 417.077 L 806.667 416.654 806.644 423.744 C 806.632 427.643,805.520 444.333,804.174 460.833 C 793.740 588.705,773.713 678.122,734.554 771.667 C 723.929 797.047,690.494 864.533,685.010 871.667 L 681.806 875.833 597.153 791.447 C 521.742 716.275,511.802 706.938,506.110 705.929 C 485.655 702.304,468.429 720.194,473.628 739.665 C 474.980 744.731,492.903 763.506,573.887 844.696 C 628.124 899.071,674.685 944.716,677.356 946.130 C 683.558 949.413,697.451 948.418,703.836 944.232 C 709.160 940.741,722.291 919.184,745.516 875.800 C 790.256 792.231,819.744 711.322,838.137 621.667 C 851.536 556.353,861.587 465.884,862.228 404.808 L 862.500 378.962 857.697 372.637 C 848.797 360.918,864.723 361.667,624.220 361.667 C 504.566 361.667,406.667 361.339,406.667 360.938 C 406.667 360.537,410.342 346.475,414.833 329.688 C 428.254 279.532,448.577 185.758,452.601 155.427 L 453.755 146.722 693.128 146.278 L 932.500 145.833 938.666 141.999 C 956.674 130.802,956.674 105.865,938.666 94.667 L 932.500 90.833 505.000 90.579 C 269.875 90.439,75.234 90.872,72.465 91.541 " stroke="none" fill-rule="evenodd" fill="black"></path></svg>