<svg width="1000" height="1000" viewBox="0 0 1000 1000" version="1.1" id="svg5" sodipodi:docname="ждг.svg" inkscape:version="1.2.1 (9c6d41e410, 2022-07-14)" xmlns:inkscape="http://www.inkscape.org/namespaces/inkscape" xmlns:sodipodi="http://sodipodi.sourceforge.net/DTD/sodipodi-0.dtd" xmlns="http://www.w3.org/2000/svg" xmlns:svg="http://www.w3.org/2000/svg"><path d="M109.167 51.537 C 87.167 56.894,79.362 81.421,94.759 96.818 C 98.141 100.200,103.892 103.795,107.538 104.808 C 111.740 105.974,133.843 106.651,167.917 106.657 L 221.667 106.667 221.662 139.583 C 221.644 268.642,203.493 422.890,174.895 537.001 C 148.966 640.465,115.180 720.344,68.649 788.195 C 56.951 805.253,54.326 810.255,53.711 816.651 C 51.901 835.495,70.934 851.017,88.673 845.163 C 96.314 842.641,103.869 834.438,118.754 812.500 C 173.472 731.859,214.571 625.439,240.730 496.667 C 243.989 480.625,247.047 465.813,247.526 463.750 L 248.397 460.000 335.064 460.000 L 421.730 460.000 420.710 464.583 C 420.149 467.104,416.711 480.792,413.071 495.000 C 378.444 630.139,325.453 739.349,255.486 819.767 C 241.775 835.527,238.806 842.710,241.646 853.258 C 244.902 865.348,256.341 875.000,267.413 875.000 C 280.139 875.000,292.351 863.754,323.515 823.333 C 357.610 779.111,392.286 717.178,419.164 652.500 C 439.350 603.924,463.312 526.547,477.358 464.583 L 478.397 460.000 561.698 460.000 C 640.991 460.000,645.000 460.145,645.000 463.018 C 645.000 473.111,619.217 556.097,602.441 600.000 C 560.648 709.375,513.871 792.755,448.899 873.689 C 429.240 898.178,427.141 903.890,432.962 917.049 C 437.278 926.806,444.836 932.074,455.825 932.985 C 468.243 934.015,472.715 930.989,490.458 909.548 C 581.108 800.006,657.274 642.947,697.151 483.333 L 702.772 460.833 799.147 460.403 L 895.522 459.973 894.449 484.755 C 889.003 610.571,843.300 746.232,769.717 855.000 C 747.657 887.608,749.137 885.910,744.611 883.794 C 742.533 882.823,714.988 868.072,683.400 851.014 C 632.402 823.475,625.100 820.000,618.230 820.000 C 609.150 820.000,601.274 824.595,595.309 833.373 C 592.037 838.188,591.483 840.758,592.030 848.587 C 593.164 864.802,593.083 864.742,673.552 908.222 C 767.814 959.154,762.183 958.504,789.999 921.668 C 807.982 897.854,831.666 861.823,846.969 835.000 C 912.406 720.299,950.023 583.589,950.427 459.004 C 950.526 428.399,950.375 426.894,946.515 419.902 C 944.307 415.902,939.952 410.912,936.837 408.815 L 931.174 405.000 808.504 404.942 C 741.035 404.910,589.778 404.917,472.377 404.957 C 354.976 404.998,258.586 404.697,258.177 404.288 C 257.768 403.879,259.432 387.559,261.875 368.022 C 264.318 348.485,267.282 321.448,268.461 307.941 L 270.605 283.381 490.841 282.941 L 711.078 282.500 717.778 278.065 C 734.793 266.805,733.863 241.652,716.054 231.446 L 709.167 227.500 491.894 227.053 L 274.621 226.606 275.626 198.720 C 276.179 183.382,277.100 156.409,277.674 138.778 L 278.716 106.723 510.608 106.278 C 736.562 105.845,742.637 105.751,747.832 102.607 C 757.475 96.773,760.833 90.503,760.833 78.333 C 760.833 66.229,758.399 61.592,748.456 54.758 L 742.745 50.833 428.456 50.576 C 255.597 50.435,111.917 50.867,109.167 51.537 " stroke="none" fill-rule="evenodd" fill="black"></path></svg>