<svg width="1000" height="1000" viewBox="0 0 1000 1000" version="1.1" id="svg5" sodipodi:docname="шиЫ.svg" inkscape:version="1.3 (0e150ed6c4, 2023-07-21)" xmlns:inkscape="http://www.inkscape.org/namespaces/inkscape" xmlns:sodipodi="http://sodipodi.sourceforge.net/DTD/sodipodi-0.dtd" xmlns="http://www.w3.org/2000/svg" xmlns:svg="http://www.w3.org/2000/svg"><path d="M460.034 53.750 C 451.390 58.167,447.015 63.634,444.929 72.629 C 444.095 76.225,443.395 98.888,443.373 122.992 L 443.333 166.817 342.737 166.577 C 254.026 166.365,241.538 166.647,237.050 168.968 C 230.520 172.345,225.431 178.856,223.366 186.476 C 222.394 190.061,221.446 246.136,221.023 325.000 C 220.331 454.066,219.524 479.422,214.079 543.333 C 201.076 695.940,165.942 803.544,107.246 870.524 C 89.065 891.272,85.538 900.085,90.585 912.163 C 96.581 926.513,113.654 933.401,127.019 926.863 C 134.447 923.230,152.920 903.463,167.547 883.500 C 203.432 834.519,230.629 770.349,247.439 695.000 C 249.791 684.458,252.094 674.146,252.556 672.083 L 253.397 668.333 348.316 668.333 L 443.236 668.333 443.701 798.750 C 444.213 942.292,443.658 934.770,454.359 943.187 C 464.863 951.449,478.471 951.449,488.974 943.187 C 499.675 934.770,499.120 942.294,499.632 798.734 L 500.097 668.302 582.132 668.734 L 664.167 669.167 664.362 749.167 C 664.567 832.593,665.541 846.547,672.645 867.797 C 679.506 888.320,695.335 906.404,714.167 915.235 C 739.716 927.215,766.581 930.015,855.507 929.963 C 913.984 929.930,919.723 929.674,925.998 926.824 C 935.520 922.500,940.511 914.884,941.323 903.442 L 941.982 894.167 894.314 814.690 C 861.172 759.431,845.061 734.084,841.444 731.508 C 828.101 722.007,808.037 727.710,801.312 742.914 C 795.571 755.891,796.665 758.561,831.531 816.700 C 849.024 845.868,863.836 871.036,864.447 872.630 C 865.493 875.356,862.754 875.464,818.196 874.443 C 768.658 873.308,751.451 871.343,737.662 865.243 C 728.293 861.099,724.303 853.587,721.692 835.176 C 720.585 827.374,720.017 712.407,720.060 504.975 C 720.133 151.668,721.135 181.517,708.883 172.169 L 702.762 167.500 601.381 167.046 L 500.000 166.592 499.960 122.879 C 499.919 77.616,499.052 69.066,493.763 61.796 C 489.995 56.615,477.602 50.000,471.667 50.000 C 469.305 50.000,464.070 51.688,460.034 53.750 M443.333 305.833 L 443.333 390.000 359.734 390.000 L 276.134 390.000 277.230 351.250 C 277.833 329.938,278.327 292.063,278.329 267.083 L 278.333 221.667 360.833 221.667 L 443.333 221.667 443.333 305.833 M665.000 305.833 L 665.000 390.000 582.500 390.000 L 500.000 390.000 500.000 305.833 L 500.000 221.667 582.500 221.667 L 665.000 221.667 665.000 305.833 M443.333 529.167 L 443.333 613.333 353.333 613.333 L 263.333 613.333 263.333 608.706 C 263.333 606.161,264.075 598.099,264.981 590.790 C 268.107 565.587,271.450 524.059,273.364 486.667 C 274.420 466.042,275.571 448.229,275.923 447.083 C 276.423 445.453,294.691 445.000,359.948 445.000 L 443.333 445.000 443.333 529.167 M664.599 528.750 L 664.167 612.500 582.083 612.932 L 500.000 613.365 500.000 529.182 L 500.000 445.000 582.515 445.000 L 665.031 445.000 664.599 528.750 " stroke="none" fill-rule="evenodd" fill="black"></path></svg>