<svg width="1000" height="1000" viewBox="0 0 1000 1000" version="1.1" id="svg5" xmlns="http://www.w3.org/2000/svg" xmlns:svg="http://www.w3.org/2000/svg"><path d="M130.561 110.857 C 126.051 113.561,122.406 117.530,120.145 122.201 L 116.667 129.386 116.667 500.000 L 116.667 870.614 120.160 877.831 C 126.535 890.999,142.569 896.823,155.488 890.662 C 158.834 889.067,227.775 818.615,326.734 715.662 C 417.839 620.881,493.248 543.333,494.309 543.333 C 495.370 543.333,572.984 620.645,666.786 715.136 C 768.726 817.827,839.855 888.225,843.600 890.136 C 856.979 896.962,873.254 891.435,879.840 877.831 C 883.997 869.243,884.226 863.717,880.770 855.363 C 878.962 850.991,826.261 797.151,701.775 672.500 C 604.737 575.333,523.401 492.677,521.028 488.820 C 518.654 484.962,512.765 478.843,507.940 475.221 C 503.115 471.599,484.924 454.317,467.516 436.817 L 435.865 404.999 446.683 394.398 C 452.632 388.567,511.520 331.691,577.544 268.008 C 643.568 204.324,698.782 150.397,700.242 148.169 C 707.385 137.268,705.306 123.676,695.084 114.440 C 687.886 107.938,679.963 105.677,670.556 107.442 C 663.290 108.805,676.518 96.510,522.559 245.000 C 456.504 308.708,401.111 361.900,399.463 363.203 C 396.716 365.377,391.394 360.514,335.317 304.587 C 282.020 251.432,273.265 243.362,267.146 241.752 C 245.121 235.958,226.683 257.406,234.983 279.167 C 236.691 283.646,290.959 338.923,415.264 462.799 C 436.202 483.665,453.333 501.632,453.333 502.726 C 453.333 503.820,390.146 570.450,312.917 650.792 L 172.500 796.870 171.667 461.352 C 170.835 126.550,170.826 125.821,167.407 120.001 C 159.961 107.325,143.337 103.200,130.561 110.857 " stroke="none" fill-rule="evenodd" fill="#000000"></path></svg>