<svg width="1000" height="1000" viewBox="0 0 1000 1000" version="1.1" id="svg5" sodipodi:docname="黒.svg" inkscape:version="1.2.1 (9c6d41e410, 2022-07-14)" xmlns:inkscape="http://www.inkscape.org/namespaces/inkscape" xmlns:sodipodi="http://sodipodi.sourceforge.net/DTD/sodipodi-0.dtd" xmlns="http://www.w3.org/2000/svg" xmlns:svg="http://www.w3.org/2000/svg"><path d="M637.595 55.444 C 632.127 58.541,629.513 62.106,622.032 76.667 C 582.709 153.203,515.057 261.413,464.170 329.167 C 434.730 368.366,411.654 395.256,382.064 424.847 C 367.023 439.888,354.031 453.999,353.192 456.206 C 350.415 463.508,351.422 474.144,355.456 480.131 C 363.821 492.543,378.107 496.761,391.023 490.632 C 403.768 484.584,458.236 426.356,494.057 380.486 C 538.981 322.960,604.560 222.742,645.151 149.585 C 650.110 140.649,654.712 133.524,655.378 133.752 C 656.044 133.980,709.193 210.667,773.486 304.167 C 837.779 397.667,893.109 478.070,896.442 482.842 C 903.772 493.339,912.893 498.893,922.558 498.747 C 935.294 498.554,944.730 491.017,948.661 477.896 C 950.292 472.452,950.203 469.994,948.168 464.371 C 946.390 459.457,747.062 166.870,674.014 61.951 C 666.681 51.418,649.972 48.433,637.595 55.444 M226.701 57.083 C 222.664 59.146,217.874 62.875,216.056 65.371 C 213.696 68.611,209.314 86.964,200.737 129.538 C 167.378 295.115,130.621 407.057,77.414 505.117 C 61.715 534.049,60.562 539.178,67.145 550.799 C 74.429 563.660,90.193 568.370,103.400 561.632 C 110.955 557.778,113.568 553.975,130.481 522.220 C 145.135 494.707,154.658 474.407,169.101 439.901 C 175.013 425.774,180.536 413.988,181.373 413.709 C 182.211 413.430,189.182 419.869,196.865 428.018 C 204.547 436.168,225.269 457.891,242.912 476.292 L 274.991 509.748 264.308 540.291 C 225.765 650.487,200.718 712.047,167.120 779.167 C 138.251 836.838,118.433 867.554,92.281 895.160 C 78.315 909.903,74.951 917.701,78.069 928.108 C 82.073 941.474,91.658 948.718,105.339 948.718 C 115.455 948.718,123.116 943.729,137.259 927.933 C 189.306 869.801,242.111 764.457,301.624 600.026 C 309.898 577.168,316.667 557.623,316.667 556.594 C 316.667 555.564,317.236 554.972,317.932 555.278 C 318.628 555.583,330.674 567.833,344.702 582.500 C 377.929 617.241,384.918 621.038,401.164 613.173 C 414.514 606.711,420.440 589.706,413.680 577.257 C 412.114 574.373,394.521 554.997,374.583 534.198 C 354.646 513.400,338.333 495.370,338.333 494.133 C 338.333 492.896,339.129 489.791,340.102 487.232 C 342.790 480.162,363.666 411.235,373.085 378.333 C 390.472 317.592,408.706 246.312,426.756 168.516 C 430.752 151.294,430.031 144.726,423.187 136.026 C 415.088 125.729,416.355 125.881,333.750 125.338 C 292.271 125.065,258.340 124.690,258.349 124.504 C 258.358 124.319,260.196 114.314,262.433 102.271 C 266.862 78.436,266.453 72.749,259.689 64.150 C 255.618 58.974,244.592 53.425,238.270 53.370 C 235.943 53.350,230.737 55.021,226.701 57.083 M366.667 183.088 C 366.667 189.863,328.876 333.638,312.500 389.167 C 297.134 441.268,294.860 448.333,293.453 448.333 C 292.074 448.333,202.895 355.709,202.008 353.356 C 201.738 352.638,204.857 341.276,208.940 328.108 C 221.613 287.235,231.124 250.495,245.880 185.417 L 246.730 181.667 306.698 181.667 C 339.681 181.667,366.667 182.306,366.667 183.088 M639.167 332.353 C 633.037 335.077,627.477 340.947,625.111 347.192 C 623.882 350.435,623.333 425.417,623.333 590.108 C 623.333 721.132,622.935 828.333,622.449 828.333 C 621.963 828.333,619.226 825.670,616.368 822.415 C 606.710 811.415,593.340 808.130,582.029 813.980 C 571.985 819.174,565.443 832.119,567.451 842.827 C 568.877 850.424,627.064 937.177,634.594 942.931 C 646.354 951.918,664.609 948.446,673.333 935.564 L 677.500 929.411 677.500 639.167 L 677.500 348.922 673.333 342.770 C 665.920 331.823,650.759 327.201,639.167 332.353 M450.833 473.620 C 440.302 477.403,431.667 488.769,431.667 498.847 C 431.667 501.971,448.450 562.059,468.963 632.376 C 509.886 772.657,507.691 766.933,522.752 772.685 C 539.389 779.039,558.333 765.714,558.333 747.658 C 558.333 744.463,541.576 684.419,521.094 614.226 C 482.171 480.833,482.383 481.426,471.609 475.818 C 465.297 472.532,456.462 471.598,450.833 473.620 M834.856 473.208 C 820.843 477.623,816.363 485.062,811.696 511.667 C 798.606 586.285,781.983 634.349,740.744 716.818 C 731.306 735.692,723.098 753.728,722.503 756.896 C 719.232 774.336,739.275 792.074,756.441 786.931 C 768.412 783.345,771.004 779.720,792.234 736.870 C 817.889 685.088,827.929 661.607,840.063 625.000 C 856.907 574.186,871.625 505.559,868.316 493.268 C 864.357 478.566,848.335 468.960,834.856 473.208 " stroke="none" fill-rule="evenodd" fill="black"></path></svg>