<svg width="1000" height="1000" viewBox="0 0 1000 1000" version="1.1" id="svg5" sodipodi:docname="鼓.svg" inkscape:version="1.3 (0e150ed6c4, 2023-07-21)" xmlns:inkscape="http://www.inkscape.org/namespaces/inkscape" xmlns:sodipodi="http://sodipodi.sourceforge.net/DTD/sodipodi-0.dtd" xmlns="http://www.w3.org/2000/svg" xmlns:svg="http://www.w3.org/2000/svg"><path d="M72.465 91.541 C 48.290 97.377,43.434 128.797,64.667 141.999 L 70.833 145.833 147.917 146.328 C 220.299 146.792,225.000 147.001,225.000 149.765 C 225.000 161.167,213.993 263.812,207.371 314.167 C 203.481 343.744,201.910 354.374,193.085 410.833 C 187.816 444.538,173.967 517.313,165.650 555.000 C 138.047 680.068,104.018 790.504,61.781 892.089 C 55.772 906.543,51.667 918.857,51.667 922.428 C 51.667 936.835,62.136 948.227,76.658 949.623 C 83.385 950.269,86.182 949.624,92.362 946.002 C 101.125 940.867,104.364 934.755,122.486 889.167 C 173.184 761.630,217.240 601.053,241.605 455.000 C 243.516 443.542,245.865 430.229,246.825 425.417 L 248.570 416.667 339.285 416.667 L 430.000 416.667 429.997 430.417 C 429.994 446.838,427.353 504.007,424.935 540.000 C 419.175 625.704,409.142 702.365,394.833 770.000 C 388.724 798.873,378.530 842.025,377.598 842.957 C 377.232 843.323,362.894 815.715,345.736 781.606 C 328.577 747.498,312.403 717.158,309.793 714.185 C 293.817 695.990,263.200 708.083,263.421 732.500 C 263.489 740.043,268.271 750.319,313.832 840.833 C 362.190 936.907,364.428 940.979,370.833 944.556 C 382.800 951.238,395.612 949.126,405.363 938.864 C 410.511 933.446,418.334 907.895,434.050 845.177 C 465.429 719.946,479.184 610.941,485.114 440.494 L 487.039 385.154 483.359 377.554 C 480.842 372.355,477.446 368.644,472.610 365.810 L 465.540 361.667 362.035 361.667 C 305.107 361.667,258.196 361.104,257.787 360.417 C 257.378 359.729,258.828 346.042,261.009 330.000 C 266.475 289.794,274.215 220.849,277.799 180.437 L 280.791 146.708 606.645 146.270 L 932.500 145.833 938.666 141.999 C 956.674 130.802,956.674 105.865,938.666 94.667 L 932.500 90.833 505.000 90.579 C 269.875 90.439,75.234 90.872,72.465 91.541 M590.958 250.444 C 586.870 252.770,582.957 256.934,580.524 261.546 L 576.631 268.924 577.066 571.675 L 577.500 874.427 582.307 880.728 C 584.950 884.194,590.200 888.431,593.973 890.145 C 600.483 893.101,607.458 893.262,730.417 893.297 L 860.000 893.333 860.000 911.420 C 860.000 927.473,860.426 930.139,863.790 935.131 C 870.338 944.848,877.752 948.727,888.360 947.986 C 898.724 947.262,905.762 943.058,910.941 934.499 C 914.102 929.273,914.167 922.537,914.167 597.378 L 914.167 265.589 910.029 259.550 C 898.184 242.265,875.548 242.421,863.790 259.869 L 860.000 265.493 860.000 354.413 L 860.000 443.333 745.833 443.333 L 631.667 443.333 631.667 354.413 L 631.667 265.493 627.877 259.869 C 619.024 246.733,604.152 242.936,590.958 250.444 M859.591 668.750 L 859.167 837.500 745.417 837.928 L 631.667 838.356 631.667 669.178 L 631.667 500.000 745.841 500.000 L 860.016 500.000 859.591 668.750 " stroke="none" fill-rule="evenodd" fill="black"></path></svg>