<?xml version="1.0" encoding="UTF-8" standalone="no"?>
<svg viewBox="0 0 2000 2000" version="1.1" xmlns="http://www.w3.org/2000/svg" xmlns:sodipodi="http://sodipodi.sourceforge.net/DTD/sodipodi-0.dtd">
	
      <path sodipodi:nodetypes="ccsscccscccccc" d="M 424.94,896.48313 H 660.649 C 664,1088 641,1427 593.849,1670.4832 c -2.83928,14.6618 -18.50078,18.831 -27.96,17.87 l -215.5,-21.69 2.211,28.14 c 111.4,39.94 188.3,143.1 187.2,224.9 98.42,8.252 227.69653,-29.1664 255.8,-189 C 849,1427 863,1231 863,907.10313 c 18.7,-2.854 38.84,-18.07 46.94,-34.49 l -185.4,-131.2 -108.8,106.7 H 409.3413 Z" id="path3406"></path>
      <path sodipodi:nodetypes="csccscc" id="path3408" d="M 252,446.83213 V 700 c 0,555.2039 -85,944 -240,1224 l 20,-1 C 273,1792 468.05125,1408.4601 464,742 l 0.21427,-293.76587 z"></path>
      <path sodipodi:nodetypes="ccccscc" d="m 769,272.93213 -123,146.34 -584.4802,-0.05 13.0801,49.012 h 851.9627 c 16.86,0 27.2305,-11.082 27.2305,-16.262 z" id="path3410"></path>
      <path id="path3412" d="M 1979.65,1751.93 C 1763,1680 1472.8508,1358 1474.22,1101 L 1388,1217 c 28,309 203,619 339.8,715.9 33.2,-47.9 111,-139 243.2,-154.9 z" sodipodi:nodetypes="cccccc"></path>
      <path id="path3418" d="m 1663.09,1147.379 c -33.442,140.5 -60.733,241.6 -104.48,365.7 l 18,0.161 C 1664.806,1470.7 1785.914,1354.5 1858,1261 c 14.902,11.04 44.27,-3.295 52.61,-16.921 z" sodipodi:nodetypes="cccccc"></path>
      <path id="path3420" d="m 1474.22,798.72 c 28.695,0.3973 67.66,-18.94 74.66,-45.84 L 1258.69,722.4 v 308.5995 c 0,271.3472 -67.9708,651.5059 -409.69,880.0005 l 29,10 c 437.9979,-138.5959 596.22,-545.0484 596.22,-773 z" sodipodi:nodetypes="cccsccsc"></path>
      <path id="path3435" d="m 1766,448 -123,146.34 -730.4802,-0.05 13.0801,49.012 h 997.9627 c 16.86,0 27.2305,-11.082 27.2305,-16.262 z" sodipodi:nodetypes="ccccscc"></path>
      <path sodipodi:nodetypes="ccscc" d="m 1228.8788,234.0787 c 56.816,91.58 98.126,197.9 124.51,316.2 71.887,70.72 212.63,-1.057 169,-130.7 -35,-104 -165.523,-163.4 -282.31,-189.2 z" id="path3437"></path>
      <path sodipodi:nodetypes="ccccscc" d="m 1746,856.698 -123,146.34 -684.4802,-0.05 13.0801,49.012 h 951.9627 c 16.86,0 27.2305,-11.082 27.2305,-16.262 z" id="path3439"></path>
    
</svg>
