<?xml version="1.0" encoding="UTF-8" standalone="no"?>
<svg viewBox="0 0 2000 2000" version="1.1" xmlns="http://www.w3.org/2000/svg" xmlns:sodipodi="http://sodipodi.sourceforge.net/DTD/sodipodi-0.dtd">
	
      <path id="path1541" d="M 1479.69,1404 H 517 l 4.29,-360.36 c 39.73,0 65.01,-33.67 66.81,-55.34 L 310,967.41 l -4.29,561.36 c -0.2923,38.2485 188.58425,-10.6948 211.3,-47.04 v -32 h 962.69 v 61.9 c 0,28.04 210.7292,-1.9745 211.3,-58.04 l 4.29,-421.36 c 39.73,0 65.01,-25.67 66.81,-47.34 L 1484,956 Z" sodipodi:nodetypes="cccccssccsscccc"></path>
      <path id="path1543" d="m 906.4201,853 v 449 c 0,264.0582 -68.4201,496.0258 -312.7101,649 l 20,13 C 907,1875.9545 1105.6202,1659.2691 1105.6202,1362 V 923.52 c 38.55,0 63.08,-21.03 64.83,-42.05 z" sodipodi:nodetypes="csccsccc"></path>
      <path id="path1549" d="m 1385.2,156.44 -95.1,91.71 h -562 L 496.8,192.08 v 612.1 c 0,42.84384 203.3,18.41984 203.3,-47.04 v -20 h 600.6 v 47.9 c 0,37.59034 203.3,23.88608 203.3,-58.04 V 322 c 33.56,0 78.32,-28.04 78.32,-42.05 z m -84.6,535.6 H 700 v -394.8 h 600.6 z" sodipodi:nodetypes="ccccssccsscccccccc"></path>
    
</svg>
