<?xml version="1.0" encoding="UTF-8" standalone="no"?>
<svg viewBox="0 0 2000 2000" version="1.1" xmlns="http://www.w3.org/2000/svg" xmlns:sodipodi="http://sodipodi.sourceforge.net/DTD/sodipodi-0.dtd">
	
      <path id="path3476" d="m 422.3,1247 c 205.6,111.8 405.6,310.3 561.1,503.1 155.1,44.57 245.3,-102.2 108.6,-226.1 C 917.1,1365.5 686.2,1283.7 436.4,1230.6 Z" sodipodi:nodetypes="ccccc"></path>
      <path id="path3478" d="M 182.0905,1951.0348 C 461.72502,1891.9625 905.48709,1603.1988 1133,1191 c 27.8764,2.6218 61.5915,-5.5428 76.0211,-35.9652 l -283.4996,-106 c -81.14145,227.2409 -367.03907,657.6025 -763.431,890 z" sodipodi:nodetypes="cccccc"></path>
      <path sodipodi:nodetypes="csccccc" d="m 287.64,578 h 1493.99 c 16.85,0 27.23,-11.08 27.23,-16.26 L 1616,391 l -116.44,135.94 -1230,0.05 z" id="path3480"></path>
      <path id="path3482" d="m 678.5987,995.07 h 807.5103 c -12.109,267.93 -38.218,512.24 -66.678,712.24 -2.1039,14.7852 -24.2493,28.585 -33.711,27.65 l -217.5,-21.69 2.211,28.14 c 111.4,39.94 188.3,143.1 187.2,224.9 98.42,8.252 240.1234,-30.1687 261.8,-191 30.46,-226 54.569,-496.31 69.029,-769.62 18.7,-2.854 38.84,-18.07 46.94,-34.49 L 1550,840 1441.2,946.7 H 663 Z" sodipodi:nodetypes="ccsscccscccccc"></path>
      <path id="path3484" d="m 527.80977,1075.81 c -5.15746,36.98 210.76383,14.9877 221.39461,-58.04 L 866.64736,211 c 39.72998,1e-4 64.03223,-21.67 68.85446,-43.34 L 663.431,138.77 Z" sodipodi:nodetypes="cscccc"></path>
    
</svg>
