<?xml version="1.0" encoding="UTF-8" standalone="no"?>
<svg viewBox="0 0 2000 2000" version="1.1" xmlns="http://www.w3.org/2000/svg" xmlns:sodipodi="http://sodipodi.sourceforge.net/DTD/sodipodi-0.dtd">
	
      <path sodipodi:nodetypes="cccccc" d="m 222,1575 99,299 c 20,-4 38,-37 38,-59 451,-76 838,-158 1234,-240 l 21,-33 c -438,21 -913,28 -1392,33 z" id="path1387"></path>
      <path id="path1389" d="m 1351,1340 c 63,107 143,300 185,498 85,48 233,-7 200,-160 -32,-148 -193,-281 -372,-351 z" sodipodi:nodetypes="ccscc"></path>
      <path sodipodi:nodetypes="cccccc" d="m 538,1616 c 180,-132 321,-283 439,-441 29,1 68,-18 75,-47 l -346,-77 c -23,107 -114,350 -221,557 z" id="path1392"></path>
      <path sodipodi:nodetypes="cccccccccc" d="m 1020,852 c 248,-85 466,-322 591,-512 32,1 63,-25 64,-31 L 1452,160 1332,284 H 375 l 15,48 h 943 c -71,206 -184,369 -326,490 z" id="path1397"></path>
      <path sodipodi:nodetypes="ccscc" d="m 762,658 c 83,91 189,255 245,423 130,46 244,-50 177,-199 C 1136,776 978,697 775,645 Z" id="path1400"></path>
    
</svg>
