<?xml version="1.0" encoding="UTF-8" standalone="no"?>
<svg viewBox="0 0 2000 2000" version="1.1" xmlns="http://www.w3.org/2000/svg" xmlns:sodipodi="http://sodipodi.sourceforge.net/DTD/sodipodi-0.dtd">
	
      <path id="path3536" d="m 287.64,578 h 1493.99 c 16.85,0 27.23,-11.08 27.23,-16.26 L 1616,391 l -116.44,135.94 -1230,0.05 z" sodipodi:nodetypes="csccccc"></path>
      <path sodipodi:nodetypes="ccsscccscccccc" d="m 634.5987,995.07 h 851.5103 c -12.109,267.93 -38.218,512.24 -66.678,712.24 -2.1039,14.7852 -24.2493,28.585 -33.711,27.65 l -217.5,-21.69 2.211,28.14 c 111.4,39.94 188.3,143.1 187.2,224.9 98.42,8.252 240.1234,-30.1687 261.8,-191 30.46,-226 54.569,-496.31 69.029,-769.62 18.7,-2.854 38.84,-18.07 46.94,-34.49 L 1550,840 1441.2,946.7 H 619 Z" id="path3538"></path>
      <path sodipodi:nodetypes="sscccs" d="M 499.80977,1075.81 C 493.46341,1112.6046 709.88296,1103.9426 723,1030.1682 L 868.64736,211 c 40.34054,1e-4 64.03223,-21.67 68.85446,-43.34 L 661.431,138.77 Z" id="path3540"></path>
      <path d="m 864,965 c -38.17415,386.9497 -316.93248,815.1327 -708,1003 l 20,10 c 482,-93 838,-508 923,-1007 z" id="path3499-1" sodipodi:nodetypes="ccccc"></path>
    
</svg>
