<?xml version="1.0" encoding="UTF-8" standalone="no"?>
<svg viewBox="0 0 2000 2000" version="1.1" xmlns="http://www.w3.org/2000/svg" xmlns:sodipodi="http://sodipodi.sourceforge.net/DTD/sodipodi-0.dtd">
	
      <path sodipodi:nodetypes="ccscccc" d="m 224.85,955.55 13.08,49.01 h 1539 c 16.86,0 27.23,-11.08 27.23,-16.26 L 1605.96,811 1486.86,955.6 Z" id="path2008"></path>
      <path sodipodi:nodetypes="cccccc" d="M 1987.15,1484.645 C 1710,1424.225 1311,1227.86 1146,983 l -75,-2 c 138.3172,326.8299 432.8726,595.1198 660.2,691.355 60.8,-84.355 127.4271,-139.2891 246.8,-160.8 z" id="path2010"></path>
      <path sodipodi:nodetypes="cccccc" d="m 1139,807.76 c 39.0707,-4.6053 60.3,-29.64 61.58,-50.7 L 893.38,718 C 782.83087,1073.1918 492,1409.766 50.58,1632 l 28,17 C 632,1523.4956 958,1142.6547 1139,807.76" id="path2012"></path>
      <path d="m 1376.88,1423.3 -95.1,91.71 h -545.8 l -231.3,-56.07 v 512.9412 c 0,38.25 203.3,9.1188 203.3,-37.04 v -16 h 584.4 v 52.02 c 0,28.04 203.3,10.03 203.3,-46.04 V 1588.88 c 33.56,0 78.32,-28.04 78.32,-42.05 z m -84.58,446.3412 H 707.9 V 1564 h 584.4 z" id="path2014" sodipodi:nodetypes="ccccssccsscccccccc"></path>
      <path id="path2022" d="M 929.14,196.98 C 929.14,442.65669 902,581 806.67,718 L 821,721 C 1041,609 1146.67,469 1146.67,249 V 90.98 c 35.54,0 58.66,-30.56 58.66,-45.84 L 929.14,20.25 Z" sodipodi:nodetypes="sccscccs"></path>
      <path sodipodi:nodetypes="cccccccccc" d="m 1519,664 c 124.7559,-57.92709 242.4898,-211.50825 292,-315 15.4835,1.04862 62.98,-24.53 64.1,-30.82 L 1661.5986,167.48 1532.1,292.98 H 389.2 l 15.42,48.34 H 1569.2 c -14.6669,131.96199 -39.5139,244.24357 -68.7625,321.4925 z" id="path2024"></path>
      <path sodipodi:nodetypes="ccscc" d="M 360.236,192.659 C 345,340 308,438 213.1,501 c -80.8561,98 49.1746,248.842 167,161 96.665,-72.066 114,-250 3.636,-479.091 z" id="path2026"></path>
    
</svg>
