<?xml version="1.0" encoding="UTF-8" standalone="no"?>
<svg viewBox="0 0 2000 2000" version="1.1" xmlns="http://www.w3.org/2000/svg" xmlns:sodipodi="http://sodipodi.sourceforge.net/DTD/sodipodi-0.dtd">
	
      <path sodipodi:nodetypes="csccsccc" d="m 1312.2,177.1 0.55,237 c 1.4728,634.651 -108.399,1156.634 -450,1515 l 23,9 C 1337,1728 1533.7,1123.182 1533.7,438.63 V 261.28 c 42.02,0 70.66,-33.68 70.68,-51.51 z" id="path3607"></path>
      <path sodipodi:nodetypes="csccccc" d="m 1055.83,694.1 h 847.55 c 16.85,0 27.23,-11.08 27.23,-16.26 l -199.86,-173.74 -109.44,142.94 -583.56,0.05 z" id="path3609"></path>
      <path sodipodi:nodetypes="cccccc" d="M 1990,1736.875 C 1735.5,1529.175 1517.5,1079.83 1523.7,438.63 L 1454.94,769 C 1458,1398 1632,1784 1778.84,1952.775 1820,1853 1909,1780.9995 1985.94,1760.575 Z" id="path3613"></path>
      <path id="path3633" d="M 372.49,215.5 C 431.13085,317.30383 466.93984,428.37872 501,567 569,628 718.55904,583.86473 682,434 654.68497,322.02882 510.77033,241.72914 383.69,211.8 Z" sodipodi:nodetypes="ccscc"></path>
      <path id="path3639" d="m 127.52,680.06 h 867.55 c 16.85,0 27.23,-11.08 27.23,-16.26 L 822.44,490.06 713,633 109.44,633.05 Z" sodipodi:nodetypes="csccccc"></path>
      <path sodipodi:nodetypes="ccscc" d="m 548,1270.7 c 81.24,100.8 165.2,238.4 207.7,388.6 83.26,75.3 235.2512,16.9913 185.3,-140.3 -45,-141.7005 -236,-224.7005 -382,-257 z" id="path3641"></path>
      <path sodipodi:nodetypes="ccscccc" id="path3643" d="m 118.55,1062.65 13.08,47.01 h 864.8327 c 16.85,0 27.23,-11.08 27.23,-16.26 L 837,925 728.4927,1062.6 Z"></path>
      <path id="path3645" d="M 439.7144,731 V 887 C 439.7144,1349 313,1728 49.3,1926.35 l 23,12.08 C 399,1836 666.9394,1509 666.9394,950 V 817.855 c 42.02,0 70.66,-33.68 70.68,-51.51 z" sodipodi:nodetypes="csccsccc"></path>
    
</svg>
