<?xml version="1.0" encoding="UTF-8" standalone="no"?>
<svg viewBox="0 0 2000 2000" version="1.1" xmlns="http://www.w3.org/2000/svg" xmlns:sodipodi="http://sodipodi.sourceforge.net/DTD/sodipodi-0.dtd">
	
      <path id="path1186" d="m 224,267 13,49 h 1552 c 17,0 27,-12 27,-17 L 1618,122 1499,267 Z" sodipodi:nodetypes="ccscccc"></path>
      <path sodipodi:nodetypes="ccccssccsscccccccc" d="m 1345,376 -95,92 H 768 L 537,412 v 532 c 0,38 203,-17 203,-47 v -20 h 521 v 48 c 0,28 203,-2 203,-58 V 542 c 34,0 78,-28 78,-42 z m -84,456 H 740 V 517 h 521 z" id="path1200"></path>
      <path sodipodi:nodetypes="cccccssccsscccc" d="M 1420,1404 H 577 l 4,-280 c 40,0 65,-34 67,-56 l -278,-21 -4,482 c -1,38 211,-4 211,-47 v -32 h 843 v 62 c 0,28 210,-2 211,-58 l 4,-342 c 40,0 65,-25 67,-47 l -278,-29 z" id="path1180"></path>
      <path sodipodi:nodetypes="csccsccc" d="m 906,973 v 390 c 0,239 -68,449 -312,588 l 20,13 c 293,-81 492,-279 492,-552 v -368 c 38,0 63,-22 64,-43 z" id="path1184"></path>
    
</svg>
