<?xml version="1.0" encoding="UTF-8" standalone="no"?>
<svg viewBox="0 0 2000 2000" version="1.1" xmlns="http://www.w3.org/2000/svg" xmlns:sodipodi="http://sodipodi.sourceforge.net/DTD/sodipodi-0.dtd">
	
      <path sodipodi:nodetypes="cccccccccc" d="m 1080.98,1592 c 275.8702,-103.3779 517.7775,-391.6406 656.8,-622.32 35.3117,2.0322 62.98,-24.53 64.1,-30.82 l -222.9,-148.7 -120.1,123.5 H 241.98 L 257.4,962 H 1460 c -84.2801,189.1316 -232.8818,398.6749 -425.02,580 z" id="path2905"></path>
      <path d="m 577.16381,1389.25 c 150.53955,83.539 386.69138,296.261 529.00589,459.263 C 1207.98,1891 1335.2153,1777.272 1225.98,1651 c -109,-126 -407,-241 -635.81034,-274.487 z" id="path2907" sodipodi:nodetypes="ccscc"></path>
      <path d="m 469.79,271.87 c 70.6,128.6 126.432,264.0917 177.6,433.6 69.67,85.4836 247.333,14.8449 186,-155 -52,-144 -210,-248 -352.6,-284.2 z" id="path2911" sodipodi:nodetypes="ccscc"></path>
      <path d="m 1336.84,233.12 c -35.88,154.2408 -102.3,348.3333 -178.2,517.5801 l 16.76,7.3199 c 144.6,-98 304.6,-255 386.6,-373.02 23,2.02 45.94,-8.426 56.39,-32.53 z" id="path2913" sodipodi:nodetypes="cccccc"></path>
    
</svg>
