<?xml version="1.0" encoding="UTF-8" standalone="no"?>
<svg viewBox="0 0 2000 2000" version="1.1" xmlns="http://www.w3.org/2000/svg" xmlns:sodipodi="http://sodipodi.sourceforge.net/DTD/sodipodi-0.dtd">
	
      <path d="M 708.119,426 C 668.14792,1057 467.28008,1637.8889 126.6,1907 l 18.10102,10 C 581.78613,1754.0765 880.37101,1248.4485 938,420 Z" id="path3569" sodipodi:nodetypes="ccccc"></path>
      <path sodipodi:nodetypes="ccsscccscccccc" d="m 1292,1003 h 305 c -37.649,223.93 -82.685,435.8066 -147.569,630.93 -4.712,14.1712 -24.26,28.6879 -33.711,27.65 l -217.5,-21.69 2.211,28.14 c 111.4,39.94 188.3,143.1 187.2,224.9 98.42,8.252 215.176,-35.5561 261.8,-191 62.503,-208.3866 115.92,-425 159.92,-688.31 18.7,-2.854 38.84,-18.07 46.94,-34.49 l -185.4,-131.2 -108.8,106.7 h -285.69 z" id="path3575"></path>
      <path sodipodi:nodetypes="sscccccccs" id="path3577" d="m 1101.8,1028.2 c -13.0404,71.0773 219.4323,53.9636 233.2,-22.2 l 102.08,-564.71 c 27.22,0 58.5,-25.14 58.5,-31.43 l -185.7,-126.6 -104.3,101.4 h -865 L 356,433 h 855 z"></path>
    
</svg>
