<?xml version="1.0" encoding="UTF-8" standalone="no"?>
<svg viewBox="0 0 2000 2000" version="1.1" xmlns="http://www.w3.org/2000/svg" xmlns:sodipodi="http://sodipodi.sourceforge.net/DTD/sodipodi-0.dtd">
	
      
        <path id="path3446" d="m 1647.5874,292 -95.1,91.71 H 462.96505 l -231.3,-56.07 v 1532.98 c 0,48.24 203.3,21.82 203.3,-55.04 V 432.8 H 1562.9874 v 1225.98 c 0,21.03 -15.1561,26.9805 -23.71,26.31 L 1334,1669 l -0.713,22.75 C 1424,1724 1520,1806 1538.3644,1900.6 c 187.5,-14.02 227.8,-101.6 227.8,-243.6 V 457.52 c 33.56,0 78.32,-28.04 78.32,-42.05 z" sodipodi:nodetypes="ccccssccsscccsccc"></path>
      
      <path d="m 673.34307,813.70481 c 166.8382,150.10657 357.66403,378.58069 492.07863,617.55179 116.7969,56.6649 236.3276,-60.7004 159,-206 -75.9799,-142.7673 -322.7666,-341.31258 -634.29784,-427.03038 z" id="path3454" sodipodi:nodetypes="ccscc"></path>
      <path id="path3456" d="m 1227.4197,571.92662 c -118.195,277.426 -420.74102,698.44698 -787.00002,950.99998 l 29,12 c 394,-123 729.00002,-425 950.00202,-816.66998 29.279,3.582 66.93,-10.08 77.38,-34.19 z" sodipodi:nodetypes="cccccc"></path>
    
</svg>
