<?xml version="1.0" encoding="UTF-8" standalone="no"?>
<svg viewBox="0 0 2000 2000" version="1.1" xmlns="http://www.w3.org/2000/svg" xmlns:sodipodi="http://sodipodi.sourceforge.net/DTD/sodipodi-0.dtd">
	
      <path d="M 314.52,1387.99 327.6,1439 h 1339 c 16.86,0 27.23,-11.08 27.23,-16.26 l -198.2,-177.3 -119.1,142.6 z" id="path2339" sodipodi:nodetypes="ccscccc"></path>
      <path d="m 109.09,1848.95 13.08,49.01 h 1757 c 16.86,0 27.23,-11.08 27.23,-16.26 L 1708.2,1704.4 1589.1,1849 Z" id="path2721"></path>
      <path d="m 890.99,1869.99 203.3,13.77 v -734.7 c 40.71,10e-5 65.01,-21.67 66.81,-43.34 L 891,1076.83 Z" id="path2343"></path>
      <path sodipodi:nodetypes="cccccccccc" d="m 1098,831 c 244.3686,-85.10511 458.6525,-322.4146 581.8,-512.32 31.2794,1.67261 62.98,-24.53 64.1,-30.82 L 1521,139.16 1400.9,262.66 H 328 L 343.42,311 h 1058.6 C 1333.2071,468.50099 1211.8769,643 1055,794 Z" id="path2356"></path>
      <path d="M 599.18381,594.25002 C 749.72336,677.78859 985.87519,890.51107 1128.1897,1053.5131 1230,1096 1357.2353,982.27205 1248,856 1139,730 841,615 612.18966,581.51312 Z" id="path2365" sodipodi:nodetypes="ccscc"></path>
    
</svg>
