<?xml version="1.0" encoding="UTF-8" standalone="no"?>
<svg viewBox="0 0 2000 2000" version="1.1" xmlns="http://www.w3.org/2000/svg" xmlns:sodipodi="http://sodipodi.sourceforge.net/DTD/sodipodi-0.dtd">
	
      <path id="path2217" d="M 1431.69,1498 H 565 l 4.29,-262.36 c 39.73,0 65.01,-33.67 66.81,-55.34 l -286.1,-20.89 -4.29,441.36 c -0.46326,47.6603 219.3,22.209 219.3,-47.04 v -10 h 866.69 v 75.9 c 0,41.1096 218.3962,13.0348 219.3,-58.04 l 4.29,-337.36 c 39.73,0 65.01,-25.67 66.81,-47.34 L 1436,1148 Z" sodipodi:nodetypes="cccccssccsscccc"></path>
      <path id="path2219" d="m 902.4201,1049 v 332 c 0,239.2392 -64.4201,449.404 -308.7101,588 l 20,13 C 907,1901.2955 1109.6202,1702.6767 1109.6202,1430.193 V 1119.52 c 38.55,0 63.08,-21.03 64.83,-42.05 z" sodipodi:nodetypes="csccsccc"></path>
      <path sodipodi:nodetypes="ccccc" d="M 435.07812,330.26953 V 917.2598 l 202.97657,-49.4805 0.32422,-508.50977 z" id="path2231"></path>
      <path sodipodi:nodetypes="cccccc" d="M 1504.1855,307.39017 1385.3124,69.91116 C 1159.1498,168.36365 869.02232,272.41913 606,362.64159 L 631,408 c 274.66253,-24.97851 534.7072,-61.78893 803.3124,-110.08884 18.2383,15.92228 57.395,19.462 69.8731,9.47901 z" id="path2241"></path>
      <path id="path2243" d="m 250,848 86.5633,279.8494 c 20.7631,-3.5763 38.786,-30.2925 38.8871,-58.2356 L 1533,794 l 14,-47 z" sodipodi:nodetypes="cccccc"></path>
      <path id="path2253" d="m 1311.9174,574.13959 c 63,107 142.5909,300.4691 185,498.00001 85,48 233.1152,-6.842 200,-160.00001 -32,-148 -193,-281 -372,-351 z" sodipodi:nodetypes="ccscc"></path>
    
</svg>
