<?xml version="1.0" encoding="UTF-8" standalone="no"?>
<svg viewBox="0 0 2000 2000" version="1.1" xmlns="http://www.w3.org/2000/svg" xmlns:sodipodi="http://sodipodi.sourceforge.net/DTD/sodipodi-0.dtd">
	
      <path id="path3375" d="M 435.07812,340.26953 V 917.2598 l 202.97657,-49.4805 0.32422,-498.50977 z" sodipodi:nodetypes="ccccc"></path>
      <path id="path3379" d="M 1504.1855,317.39017 1385.3124,79.91116 C 1159.1498,178.36365 869.02232,282.41913 606,372.64159 L 631,418 c 274.66253,-24.97851 534.7072,-61.78893 803.3124,-110.08884 18.2383,15.92228 57.395,19.462 69.8731,9.47901 z" sodipodi:nodetypes="cccccc"></path>
      <path sodipodi:nodetypes="cccccc" d="m 250,860 86.5633,279.8494 c 20.7631,-3.5763 38.786,-30.2925 38.8871,-58.2356 L 1533,794 l 14,-47 z" id="path3384"></path>
      <path sodipodi:nodetypes="ccscc" d="m 1311.9174,574.13959 c 63,107 142.5909,300.4691 185,498.00001 85,48 233.1152,-6.842 200,-160.00001 -32,-148 -193,-281 -372,-351 z" id="path3386"></path>
      <path d="m 1845,1778.5434 c -684,-114.5 -1186,-409.9916 -1395,-578.5 l -16.21,19 c 186.8,219.8416 661.21,604 1168,752.92 51.32,-87.1322 124,-141.8 234.8,-161.8 z" id="path3396" sodipodi:nodetypes="cccccc"></path>
      <path sodipodi:nodetypes="cccccc" d="m 1342,1089.2434 c -236.9,319.8 -629,680.8 -1203,868.9 l 13.26,18.27 c 580.74,-67.37 1047,-354.9 1403,-748.6 51.23,4.99 66.93,-10.08 77.38,-34.19 z" id="path3399"></path>
      <path d="m 710.6,1057.2434 c 58.41,52.64 150,180.6 202,292.9 125.8,36.17 224.4,-63.07 147.4,-166.6 -71.08,-95.51 -233.1,-125.3 -338.7,-134.9 z" id="path3402"></path>
    
</svg>
