<?xml version="1.0" encoding="UTF-8" standalone="no"?>
<svg viewBox="0 0 2000 2000" version="1.1" xmlns="http://www.w3.org/2000/svg" xmlns:sodipodi="http://sodipodi.sourceforge.net/DTD/sodipodi-0.dtd">
	
      <path id="path3044" d="M 900.49,104.308 C 819,301 474,768 24.69,1105 L 47,1115 C 380,995 817,708 1114.15,264.638 c 39.2774,5.96328 66.93,-10.08 77.38,-34.19 z" sodipodi:nodetypes="cccccc"></path>
      <path id="path3054" d="M 1986.99,910.58 C 1476,740 1228,425 1065.49,220 L 1016,253 c 132,281 443.977,742.452 715.11,845 46.89,-92 148.89,-148 246.8,-160.8 z" sodipodi:nodetypes="cccccc"></path>
      <path sodipodi:nodetypes="cssscccsssccc" d="m 521.3809,963 v 647 c 0,140 43,285 206,285 h 765 c 69,0 133,-103 63,-184 L 1578,1466 l -20,-4 c -28.3809,109 -73,237 -130,237 H 826 c -60,0 -90.9922,-43.2294 -91,-98 l -0.08,-561.5996 c 32.42,0.6762 63.6601,-18.9399 70.6601,-45.8398 z" id="path3062"></path>
      <path sodipodi:nodetypes="cccccc" d="M 1579.873,1227.479 1461,990 c -164,83 -591,257 -887,336 l 31,45 c 225,-16 559,-72 905,-153 20.547,22.129 57.395,19.462 69.873,9.479 z" id="path3073"></path>
    
</svg>
