<?xml version="1.0" encoding="UTF-8" standalone="no"?>
<svg viewBox="0 0 2000 2000" version="1.1" xmlns="http://www.w3.org/2000/svg" xmlns:sodipodi="http://sodipodi.sourceforge.net/DTD/sodipodi-0.dtd">
	
      <path id="path2130" d="m 676.9,236.499 v 1460.875 c 0,21.03 -10.47777,27.7332 -24.53,26.28 l -222.5,-23.009 v 22.78 c 131.33,44.849 188.33,100.849 222.5,215.8 187.5,-14.02 237.8,-101.6 237.8,-243.6 V 306.75 c 38.55,6e-5 63.08,-21.03 64.83,-42.05 z" sodipodi:nodetypes="csscccsccc"></path>
      <path sodipodi:nodetypes="csccsccc" d="m 1242.2,242.225 0.55,257 C 1243.9822,1075.0009 1168,1603 849,1943 l 23,7 c 431,-189 591.7,-764 591.7,-1486.245 v -137.35 c 42.02,0 70.66,-33.68 70.68,-51.51 z" id="path2171"></path>
      <path sodipodi:nodetypes="cccccc" d="M 1952,1750 C 1603,1499 1463.7,1122 1463.7,459.755 L 1381,824 c 0,642 206,1036 359.84,1141.9 30.2225,-77.9 97.16,-157.775 207.1,-192.2 z" id="path2173"></path>
      <path d="M 397.38,825.99 C 366.61088,1198.0115 248.30344,1507.1784 15,1761 l 19,10 c 291.68523,-128.6713 526.06957,-402.1252 585,-861 28.73952,-0.81164 64.88,-24.39 68.77,-48.41 z" id="path2183" sodipodi:nodetypes="cccccc"></path>
    
</svg>
