<?xml version="1.0" encoding="UTF-8" standalone="no"?>
<svg viewBox="0 0 2000 2000" version="1.1" xmlns="http://www.w3.org/2000/svg" xmlns:sodipodi="http://sodipodi.sourceforge.net/DTD/sodipodi-0.dtd">
	
      <path d="M 1366,72 C 1137.0282,447.85454 783.03154,878.61894 213.2598,1083 l 26,17 c 566.7402,-90 999.9857,-404.83425 1340,-889.4297 48.9296,6.14208 66.9308,-10.0794 77.3808,-34.1894 z" id="path3201" sodipodi:nodetypes="cccccc"></path>
      <path sodipodi:nodetypes="ccscc" id="path3203" d="m 483.49582,315.13888 c 285.03687,169.51396 610.90108,428.01825 840.56798,698.50202 160.8315,50.593 261.5843,-140.9322 123,-264.99999 C 1233,557 906.81589,398.32801 500.29582,299.33888 Z"></path>
      <path sodipodi:nodetypes="cccccc" id="path3218" d="M 1938,1738 C 1200.7,1617.5 755,1318.7 542,1141.2 l -29.47,15.08 c 193.4,230 653.47,641.72 1206,775.1 C 1763,1853 1839,1792 1929.33,1769.58 Z"></path>
      <path id="path3220" d="m 1309,1067 c -236.9,319.8 -613.5,669 -1203,842.9 l 13.26,18.27 c 593.4,-53.61 1047,-328.9 1403,-722.6 51.23,4.99 66.93,-10.08 77.38,-34.19 z"></path>
    
</svg>
