<?xml version="1.0" encoding="UTF-8" standalone="no"?>
<svg viewBox="0 0 2000 2000" version="1.1" xmlns="http://www.w3.org/2000/svg" xmlns:sodipodi="http://sodipodi.sourceforge.net/DTD/sodipodi-0.dtd">
	
      <path id="path2466" d="M 432.7539,1111.4908 C 493.1762,1172.2627 594.6349,1353.0615 624,1522 c 74,46 218.09451,23.0321 196,-124 -26.6651,-177.4478 -228.37155,-278.6593 -374.5461,-296.2092 z" sodipodi:nodetypes="ccscc"></path>
      <path sodipodi:nodetypes="ccscccc" id="path2473" d="m 83.59,803.55 13.08,49.01 h 730.3 c 16.86,0 27.23,-11.08 27.23,-16.26 L 688,664 576.9,803.5 Z"></path>
      <path id="path2476" d="m 563.5671,455.918 c 21.51,0.6762 63.66,-18.94 70.66,-45.84 L 342.0571,380 v 292 c 0,544 -72.46129,956 -294.0571,1257.5 l 22,5.918 C 385,1741.9982 563.5671,1327.5245 563.5671,724 Z" sodipodi:nodetypes="cccsccsc"></path>
      <path sodipodi:nodetypes="ccccscc" d="m 1764,373 -123,146.34 -846.4802,-0.05 13.0801,49.012 h 1113.9627 c 16.86,0 27.2305,-11.082 27.2305,-16.262 z" id="path2490"></path>
      <path id="path2492" d="M 1915.65,1722.49 C 1699,1650.56 1428.8508,1264.56 1430.22,1007.56 l -86.22,116 c 29.8409,273.6224 167,673.44 319.8,779.9 33.2,-47.9 111,-139 243.2,-154.9 z" sodipodi:nodetypes="cccccc"></path>
      <path id="path2495" d="m 842,1103.55 13.08,49.01 h 986.99 c 16.86,0 27.23,-11.08 27.23,-16.26 L 1700.1,981 1592,1103.5 Z" sodipodi:nodetypes="ccscccc"></path>
      <path id="path2501" d="m 901.49,748.06 c 56.816,91.58 98.126,197.9 124.51,316.2 71.887,70.72 202.63,-9.057 159,-138.7 -35,-104 -155.523,-155.4 -272.31,-181.2 z" sodipodi:nodetypes="ccscc"></path>
      <path id="path2508" d="m 1552.48,720.86 c -33.442,140.5 -60.733,241.6 -104.48,365.7 l 18,0.161 c 88.196,-42.54 209.304,-158.74 281.39,-252.24 14.902,11.04 44.27,-3.295 52.61,-16.921 z" sodipodi:nodetypes="cccccc"></path>
      <path id="path2510" d="m 1430.22,707.28 c 28.695,0.3973 63.66,-20.94 70.66,-47.84 l -278.19,-30.48 v 308.5995 c 0,271.3472 -77.364,733.5059 -444.69,962.0005 l 19,10 c 468.3209,-138.5959 633.22,-627.0484 633.22,-855 z" sodipodi:nodetypes="cccsccsc"></path>
      <path d="m 1119.7,178.2 c 38.8396,46.48 111.199,181.9 156.3,304.4 96,31.4 207.8757,-19.64091 165,-133.6 -38,-101 -187,-164.96239 -310.6,-179.4 z" id="path2524" sodipodi:nodetypes="ccscc"></path>
    
</svg>
