<?xml version="1.0" encoding="UTF-8" standalone="no"?>
<svg viewBox="0 0 2000 2000" version="1.1" xmlns="http://www.w3.org/2000/svg" xmlns:sodipodi="http://sodipodi.sourceforge.net/DTD/sodipodi-0.dtd">
	
      <path d="M 1892.105,1762.58 C 1242,1689 813,1381 505,900 l -33,32 c 295,508 649,882 1176.895,1024 51.105,-79 131.105,-138 232.8,-163.8 z" id="path1827" sodipodi:nodetypes="cccccc"></path>
      <path sodipodi:nodetypes="cccccc" d="M 1382.74,687.2 C 1115,1214 633,1727 97.74,1924 l 21.26,17 c 662,-105 1143,-621 1477,-1115.23 51.23,9.22059 66.93,-10.08 77.38,-34.19 z" id="path1829"></path>
      <path d="M 1042.9298,31.098801 C 883.10312,340.54767 576.38292,770.55423 322.8933,1019.2971 l 27.23971,10.3922 C 636.59547,913.24077 1067.2302,490.48461 1246.0428,182.91541 c 33.9828,5.1196 66.6873,-11.57729 76.5944,-35.91541 z" id="path1839" sodipodi:nodetypes="cccccc"></path>
    
</svg>
