<?xml version="1.0" encoding="UTF-8" standalone="no"?>
<svg viewBox="0 0 2000 2000" version="1.1" xmlns="http://www.w3.org/2000/svg" xmlns:sodipodi="http://sodipodi.sourceforge.net/DTD/sodipodi-0.dtd">
	
      <path d="m 622,678.05 c 66.88512,83.4748 136.00963,197.54602 171,321.95 78,63 233.9794,-21.3241 169,-142 C 906,754 758,709 633,672.45 Z" id="path2643" sodipodi:nodetypes="ccscc"></path>
      <path d="M 826.6,426.05 534.4,392.37 C 534.4,673.80105 401.69189,994.3572 82,1163 l 28.83,7 c 368.7,-77.0262 643.8,-388.64505 644.5,-691.11 46.75,-2.10311 71.27,-35.98 71.27,-52.82 z" id="path2645" sodipodi:nodetypes="cccccsc"></path>
      <path d="M 1928,983.05 C 1697,927 1415,732 1404.1,484.95 l -68.76,42.1 C 1334,827 1476,1050 1676.14,1163.95 c 25.94,-55.67 111,-139 243.2,-154.9 z" id="path2647" sodipodi:nodetypes="cccccc"></path>
      <path d="m 822,1136 c 327.8631,-72.1132 566.9,-327.68891 566.9,-609 l 15.28,-42.1 c 42.02,0 70.66,-33.68 70.66,-50.52 l -292.2,-33.68 c 0,265.23406 -116.418,563.3326 -377.64,722.3 z" id="path2649" sodipodi:nodetypes="ccccccc"></path>
      <path d="m 86.48,313.95 13.08,49.01 h 1803 c 16.86,0 27.23,-11.08 27.23,-16.26 L 1731.59,169.4 1612.49,314 Z" id="path2651" sodipodi:nodetypes="ccscccc"></path>
      <path sodipodi:nodetypes="ccscccc" d="M 176.89,573.99 189.97,623 h 811 c 16.86,0 27.23,-11.08 27.23,-16.26 L 862.5497,464 767,574.04 Z" id="path2653"></path>
      <path id="path2655" d="m 1023.3403,573.99 13.08,49.01 h 785 c 16.86,0 27.23,-11.08 27.23,-16.26 L 1683,464 1587.4503,574.04 Z" sodipodi:nodetypes="ccscccc"></path>
      <path id="path2663" d="m 808.3,24.5 c 29.04514,44.3951 75.09952,170.31957 97.7,266.5 110.103,92.5046 265,0 192,-127 C 1043.7202,69.56798 907.9455,25.733865 819,16 Z" sodipodi:nodetypes="ccscc"></path>
      <path sodipodi:nodetypes="ccccssccsccccsccc" d="m 1700.423,1197 -95.1,91.71 h -368 l -231.3,-56.07 v 568.98 c 0,48.24 203.3,21.82 203.3,-55.04 V 1337.8 h 406.5 v 233.98 c 0,21.03 -15.21,27.48 -23.71,26.31 l -134,-18.54 -0.713,22.75 c 88.2,25.13 121.6,71.11 133.8,211.3 C 1778.7,1799.58 1819,1712 1819,1570 v -207.48 c 33.56,0 78.32,-28.04 78.32,-42.05 z" id="path2689"></path>
      <path sodipodi:nodetypes="sscccs" d="m 1301.323,1962.33 c -4e-4,36.98 211.3,15.05 211.3,-58.04 v -709.06 c 42.377,10e-5 65.01,-21.67 66.81,-43.34 l -278.1,-28.89 z" id="path2691"></path>
      <path id="path2695" d="m 94.834,1572.33 89.26,267.9 c 20.77,-3.536 38.91,-30.39 39,-58.16 L 1007,1540 l 8.094,-31.93 z" sodipodi:nodetypes="cccccc"></path>
      <path sodipodi:nodetypes="ccscccc" d="m 167.5,1316.05 13.08,49.01 h 763.2 c 16.86,0 27.23,-11.08 27.23,-16.26 l -186.1,-181.8 -124,149.1 z" id="path2697"></path>
      <path id="path2701" d="m 459.69971,1962.33 c -4.2e-4,36.98 211.3,15.05 211.3,-58.04 v -749.06 c 42.377,10e-5 65.01,-21.67 66.81,-43.34 l -278.1,-28.89 z" sodipodi:nodetypes="sscccs"></path>
    
</svg>
