<?xml version="1.0" encoding="UTF-8" standalone="no"?>
<svg viewBox="0 0 2000 2000" version="1.1" xmlns="http://www.w3.org/2000/svg" xmlns:sodipodi="http://sodipodi.sourceforge.net/DTD/sodipodi-0.dtd">
	
      <path sodipodi:nodetypes="cccccc" d="m 51.94,1717.74 89.26,273.9 c 20.77,-3.536 38.91,-30.39 39,-58.16 l 815.906,-282.07 8.094,-31.93 z" id="path3088"></path>
      <path id="path3090" d="m 412,1243.48 v 525.48 l 217.2,-49.48 V 1314 c 38.55,10e-5 63.08,-21.03 64.83,-42.05 z" sodipodi:nodetypes="cccccc"></path>
      <path id="path3097" d="m 1269.99,131 v 1064.04 c 0,50.6672 213.2,21.5082 213.2,-40.04 V 201.52 c 38.55,6e-5 59.08,-21.03 60.83,-42.05 z" sodipodi:nodetypes="cssccc"></path>
      <path sodipodi:nodetypes="cccccc" d="M 1996.65,1764.03 C 1758,1735 1472.3161,1612 1470.95,1322.18 L 1407,1495.65 c 0,213.35 183,392.35 341.8,457.35 26.5465,-63.2989 108.2,-142 239.2,-162.9 z" id="path3116"></path>
      <path sodipodi:nodetypes="csccsccc" d="m 1249.45,1235 0.55,62.65 c 2.6455,301.35 -173,520.35 -440,644.7 l 23,9.65 c 383,-51 637.95,-263 637.95,-629.82 v -3 c 42.02,0 70.66,-33.68 70.68,-51.51 z" id="path3124"></path>
      <path sodipodi:nodetypes="csccccc" d="m 891.08,1451.06 h 1027.1373 c 16.85,0 27.23,-11.08 27.23,-16.26 L 1752.5873,1272.06 1652.1473,1404 873,1404.05 Z" id="path3129"></path>
      <path sodipodi:nodetypes="ccscccc" id="path3132" d="m 58.0573,506.05 13.08,47.01 H 929.97 c 16.85,0 27.23,-11.08 27.23,-16.26 L 776.5073,370.4 676,506 Z"></path>
      <path id="path3136" d="M 740.6799,251.9175 438.775,214.5725 C 438.775,701.50568 287.32702,1187.2764 9,1424 l 20,9 C 384.39105,1306.0555 670,842.88218 670,304 c 42.30462,-5.7227 70.66,-34.2525 70.6799,-52.0825 z" sodipodi:nodetypes="cccccc"></path>
      <path d="m 1691.2,230.44 -101.1,85.71 H 1186.4 L 949.1,260.08 v 410.06 c 0,38.25 209.3,17.82 209.3,-35.04 v -14 h 442.3 V 671 c 0,30.4131 209.3,12.4041 209.3,-46.04 V 390 c 33.56,0 78.32,-28.04 78.32,-42.05 z m -532.8,134.8 h 442.3 V 570 h -442.3 z" id="path3139" sodipodi:nodetypes="ccccssccsscccccccc"></path>
      <path sodipodi:nodetypes="ccccssccsscccccccc" id="path3169" d="m 1723.2,688 -101.1,85.71 H 1154.4 L 917.1,717.64 v 410.06 c 0,38.25 209.3,17.82 209.3,-35.04 v -14 h 506.3 v 49.9 c 0,30.4131 209.3,12.4041 209.3,-46.04 V 847.56 c 33.56,0 78.32,-28.04 78.32,-42.05 z m -596.8,134.8 h 506.3 v 204.76 h -506.3 z"></path>
      <path sodipodi:nodetypes="ccscc" d="M 84.8041,704 C 296.3397,803.0367 549.5693,1005.8369 710,1176 862,1215 973.3777,1058.9144 827,948 680.5204,837.0084 427.2384,736.3898 104,692 Z" id="path3171"></path>
    
</svg>
