<?xml version="1.0" encoding="UTF-8" standalone="no"?>
<svg viewBox="0 0 2000 2000" version="1.1" xmlns="http://www.w3.org/2000/svg" xmlns:sodipodi="http://sodipodi.sourceforge.net/DTD/sodipodi-0.dtd">
	
      <path sodipodi:nodetypes="csccccsccc" d="m 915.30859,173.92773 -0.006,1538.24417 c 0,21.03 -9.62493,27.3095 -23.71093,26.3105 l -202,-16.3203 -1.18164,22.75 c 127.3,35.07 187.90078,94.3096 202.30078,209.0996 187.5,-14.02 227.8868,-101.5996 227.8868,-243.5996 V 246.15625 c 39.73,0 65.0105,-21.66984 66.8105,-43.33984 z" id="path2500"></path>
      <path id="path2502" d="M 1266,1200.2315 C 1427,1113 1613.3,966.98347 1730,839 c 27.1772,-0.77746 63,-17.7685 76.6577,-44.2448 L 1503.2879,693.2932 C 1471.5617,785.84478 1363.525,1011.4622 1243,1194 Z" sodipodi:nodetypes="cccccc"></path>
      <path sodipodi:nodetypes="ccscc" d="m 262,738 c 115,123 226,283 299,442 103,59 273.1654,-43.3574 169,-187.7685 -88,-122 -266,-216 -450,-262.9315 z" id="path2504"></path>
    
</svg>
