<?xml version="1.0" encoding="UTF-8" standalone="no"?>
<svg viewBox="0 0 2000 2000" version="1.1" xmlns="http://www.w3.org/2000/svg" xmlns:sodipodi="http://sodipodi.sourceforge.net/DTD/sodipodi-0.dtd">
	
      <path id="path3272" d="m 549,1338.4 c 81.24,100.8 165.2,238.4 207.7,388.6 83.26,75.3 244,13.94 185.3,-140.3 -60.66,-159.5 -246.6,-219.9 -382,-257 z" sodipodi:nodetypes="ccccc"></path>
      <path id="path3274" d="m 1987.65,1810.03 c -249,-98.6833 -531.9039,-280.4529 -533.7,-661.5 L 1386,1348 c 7.4172,280 159,551 349.8,643 24.984,-55.4864 111,-139 243.2,-154.9 z" sodipodi:nodetypes="cccccc"></path>
      <path id="path3279" d="M 1232.45,984.35 1233,1124 c 1.5439,392.0016 -104,646 -396,838.35 l 23,9.65 c 392,-103 593.95,-405.3288 593.95,-823.47 v -80 c 42.02,0 70.66,-33.68 70.68,-51.51 z" sodipodi:nodetypes="csccsccc"></path>
      <path id="path3281" d="m 1022.08,1286 h 807.1373 c 16.85,0 27.23,-11.08 27.23,-16.26 l -192.86,-156.74 -100.44,125.94 -559.1473,0.05 z" sodipodi:nodetypes="csccccc"></path>
      <path d="m 130.05727,1238.99 13.08,47.01 H 967.97 c 16.85,0 27.23,-11.08 27.23,-16.26 L 818.50727,1119.34 720,1238.94 Z" id="path3288" sodipodi:nodetypes="ccscccc"></path>
      <path sodipodi:nodetypes="csccsccc" d="m 463.41435,993 v 76 C 463.41435,1479 323,1774 51,1972.35 l 23,8.08 C 427,1879 684.63935,1525 684.63935,1099 v -19.145 c 42.02,0 70.66,-33.68 70.68,-51.51 z" id="path3292"></path>
      <path sodipodi:nodetypes="ccccssccssccccccccccccc" id="path3305" d="m 1452.5,134.1 -101.1,91.71 H 667.7 L 430.4,169.74 v 778.1 c 0,38.25 209.3,17.82 209.3,-35.04 v -26 H 1362 v 61.9 c 0,30.4131 209.3,12.4041 209.3,-46.04 v -603 c 33.56,0 78.32,-28.04 78.32,-42.05 z M 639.7,274.9 H 1362 V 530 H 639.7 Z m 0,306.3 H 1362 V 835.7 H 639.7 Z"></path>
    
</svg>
