<?xml version="1.0" encoding="UTF-8" standalone="no"?>
<svg viewBox="0 0 2000 2000" version="1.1" xmlns="http://www.w3.org/2000/svg" xmlns:sodipodi="http://sodipodi.sourceforge.net/DTD/sodipodi-0.dtd">
	
      <path sodipodi:nodetypes="ccscccc" d="m 256,239 13,49 h 1460 c 13,0 22,-11 22,-16 L 1561,107 1445,239 Z" id="path1194"></path>
      <path sodipodi:nodetypes="ccccsccsccsscccsccc" id="path1196" d="m 1417,423 -95,92 H 692 L 461,459 v 437 c 0,523 -38,806 -266,1012 l 18,10 C 562,1766 643,1528 664,1038 V 564 h 669 v 1096 c 0,21 -15,27 -24,26 l -185,-23 -1,27 c 88,25 165,77 185,216 188,-14 228,-102 228,-244 V 589 c 34,0 78,-29 78,-43 z"></path>
      <path id="path1214" d="m 95,988 13,49 h 1811 c 13,0 22,-11 22,-16 L 1764,862 1655,988 Z" sodipodi:nodetypes="ccscccc"></path>
    
</svg>
