<?xml version="1.0" encoding="UTF-8" standalone="no"?>
<svg viewBox="0 0 2000 2000" version="1.1" xmlns="http://www.w3.org/2000/svg" xmlns:sodipodi="http://sodipodi.sourceforge.net/DTD/sodipodi-0.dtd">
	
      <path d="m 1665,224 -95,92 H 448 L 217,259 v 1668 c 0,38 222,24 203,-35 v -20 h 1161 v 56 c 0,28 203,10 203,-46 V 389 c 33,0 78,-28 78,-42 z m -85,1599 H 420 V 365 h 1160 z" id="path1394" sodipodi:nodetypes="ccccscccsscccccccc"></path>
      <path sodipodi:nodetypes="cccccccccc" d="m 979,1360 c 220,-108 420,-347 535,-539 29,2 63,-24 64,-31 L 1355,642 1235,757 H 494 l 16,49 h 726 c -59,178 -162,393 -289,535 z" id="path1398"></path>
      <path sodipodi:nodetypes="ccscc" d="m 711,1156 c 75,68 238,282 316,413 86,54 210,-18 161,-135 -53,-126 -244,-233 -464,-291 z" id="path1401"></path>
    
</svg>
