<?xml version="1.0" encoding="UTF-8" standalone="no"?>
<svg viewBox="0 0 2000 2000" version="1.1" xmlns="http://www.w3.org/2000/svg" xmlns:sodipodi="http://sodipodi.sourceforge.net/DTD/sodipodi-0.dtd">
	
      <path d="m 1254,180.48 v 1718 c 0,67.36 203.2,15.23 203.2,-49.48 V 251 c 38.55,6e-5 59.08,-21.03 60.83,-42.05 z" id="path2063" sodipodi:nodetypes="cssccc"></path>
      <path sodipodi:nodetypes="cssccc" id="path2065" d="m 542,360.48 v 1158 c 0,67.36 203.2,15.23 203.2,-49.48 V 431 c 38.55,6e-5 59.08,-21.03 60.83,-42.05 z"></path>
      <path id="path2067" d="m 217.64,966 h 1613.99 c 16.85,0 27.23,-11.08 27.23,-16.26 L 1666,771 l -116.44,143.94 -1350,0.05 z" sodipodi:nodetypes="csccccc"></path>
      <path d="m 898,376.48 v 1068 c 0,67.36 203.2,15.23 203.2,-49.48 V 447 c 38.55,6e-5 59.08,-21.03 60.83,-42.05 z" id="path2071" sodipodi:nodetypes="cssccc"></path>
    
</svg>
