<?xml version="1.0" encoding="UTF-8" standalone="no"?>
<svg viewBox="0 0 2000 2000" version="1.1" xmlns="http://www.w3.org/2000/svg" xmlns:sodipodi="http://sodipodi.sourceforge.net/DTD/sodipodi-0.dtd">
	
      <path id="path3143" d="m 1490,999.5 -95.1,91.71 H 623 l -231.3,-56.07 v 872.1 c 0,47.3058 203.3,27.5859 203.3,-39.04 v -28 h 810.4 v 43.9 c 0,39.12 203.3,18.5 203.3,-50.04 v -669 c 33.56,0 78.32,-28.04 78.32,-42.05 z m -84.58,791.5 h -810.4 v -650.8 h 810.4 z" sodipodi:nodetypes="ccccssccsscccccccc"></path>
      <path id="path3212" d="m 972,837 c 274.1817,-76.96535 514.6084,-291.57782 652.78,-463.32 35.0956,1.51262 62.98,-24.53 64.1,-30.82 l -222.9,-148.7 -120.1,123.5 H 349 L 364.42,366 H 1347 c -87.9583,183.84103 -227.5945,329.38184 -403,437 z" sodipodi:nodetypes="cccccccccc"></path>
      <path id="path3214" d="m 736,632 c 83.43243,90.88554 188.83659,255.21773 245,423 129.8532,46.3997 243.9425,-50.4441 177,-199 C 1110.0199,749.52442 952.4191,671.22886 749,619 Z" sodipodi:nodetypes="ccscc"></path>
    
</svg>
