<?xml version="1.0" encoding="UTF-8" standalone="no"?>
<svg viewBox="0 0 2000 2000" version="1.1" xmlns="http://www.w3.org/2000/svg" xmlns:sodipodi="http://sodipodi.sourceforge.net/DTD/sodipodi-0.dtd">
	
      <path sodipodi:nodetypes="ccscc" d="M 332,150 C 315,285 265,410 157,480 75,566 181,725 314,662 432,606 463,375 361,140 Z" id="path1238"></path>
      <path sodipodi:nodetypes="cccccccccc" d="m 1531,648 c 137,-37 254,-159 333,-341 18,1 63,-25 64,-31 L 1705,125 1585,251 H 341 l 15,48 h 1255 c -22,145 -57,260 -101,345 z" id="path1229"></path>
      <path id="path1261" d="m 224,981 13,49 h 722 c 17,0 27,-11 27,-16 L 818,853 709,981 Z" sodipodi:nodetypes="ccscccc"></path>
      <path id="path1257" d="m 493,546 v 1107 l 199,-49 V 616 c 39,0 63,-21 65,-42 z" sodipodi:nodetypes="cccccc"></path>
      <path sodipodi:nodetypes="cccccc" d="m 169,1616 93,266 c 21,-3 39,-30 39,-58 l 736,-268 4,-24 z" id="path1243"></path>
      <path sodipodi:nodetypes="ccscccc" d="m 949,877 13,49 h 792 c 17,0 27,-11 27,-17 L 1583,732 1464,877 Z" id="path1216"></path>
      <path sodipodi:nodetypes="ccscccc" d="m 856,1262 13,49 h 954 c 17,0 27,-11 27,-16 l -198,-178 -119,145 z" id="path1213"></path>
      <path sodipodi:nodetypes="cssccc" d="m 1224,510 v 1338 c 0,67 199,15 199,-50 V 580 c 39,0 63,-21 65,-42 z" id="path1211"></path>
    
</svg>
