<?xml version="1.0" encoding="UTF-8" standalone="no"?>
<svg viewBox="0 0 2000 2000" version="1.1" xmlns="http://www.w3.org/2000/svg" xmlns:sodipodi="http://sodipodi.sourceforge.net/DTD/sodipodi-0.dtd">
	
      <path sodipodi:nodetypes="ccccc" id="path3282" d="m 1475.7109,1477.9566 -960.01168,-0.051 13.08008,49.0098 959.2207,4e-4 z"></path>
      <path sodipodi:nodetypes="ccccc" id="path3255" d="m 897.60938,1164.9121 -0.01,687.0879 203.30082,0.01 v -687.0938 z"></path>
      <path sodipodi:nodetypes="ccccssccsscccccccc" d="m 1450,1037.44 -95.1,91.71 H 663 l -231.3,-56.07 v 856.1 c 0,47.3058 203.3,27.5859 203.3,-39.04 v -14 h 730.4 v 43.9 c 0,39.12 203.3,18.5 203.3,-50.04 v -667 c 33.56,0 78.32,-28.04 78.32,-42.05 z m -84.58,797.5 h -730.4 v -656.8 h 730.4 z" id="path3257"></path>
      <path id="path3267" d="M 900.49,163.308 C 773.90656,460.89564 421,907 34.69,1175 L 63,1191 c 425,-152 811.38018,-485.88644 1051.15,-867.362 39.2774,6.19913 66.93,-10.08 77.38,-34.19 z" sodipodi:nodetypes="cccccc"></path>
      <path id="path3269" d="M 1986.99,969.58 C 1476,799 1228,484 1065.49,279 L 1016,312 c 132,281 443.977,742.452 715.11,845 46.89,-92 148.89,-148 246.8,-160.8 z" sodipodi:nodetypes="cccccc"></path>
    
</svg>
