<?xml version="1.0" encoding="UTF-8" standalone="no"?>
<svg viewBox="0 0 2000 2000" version="1.1" xmlns="http://www.w3.org/2000/svg" xmlns:sodipodi="http://sodipodi.sourceforge.net/DTD/sodipodi-0.dtd">
	
      <path d="M 646,246.24 V 782 c 0,612.4197 -134.49587,875.2351 -543,1131.76 l 24,11 C 629,1749 845.2001,1415.1001 845.2001,812 V 316.76 c 38.55,0 63.08,-21.03 64.83,-42.05 z" id="path2230" sodipodi:nodetypes="csccsccc"></path>
      <path d="m 1896,1467 27,8 -7.5164,238.76 c 70,81 6,184 -63,184 h -541 c -163,0 -205.6925,-145.0003 -206,-285 V 106.24 l 264.0301,28.47 c -1.75,21.02 -26.28,42.05 -64.83,42.05 v 1427 c 0,54.7706 31,98 91,98 h 378.7999 c 51.2822,0 95.8753,-93.3852 121.5164,-234.76 z" id="path2226" sodipodi:nodetypes="cccssccccsssc"></path>
      <path d="M 150.1751,904.91264 282,1178.0694 c 20.26071,-5.7793 35.365,-34.4508 32.42702,-62.0651 L 796.55271,745.2337 798.0135,721 Z" id="path2235" sodipodi:nodetypes="cccccc"></path>
      <path sodipodi:nodetypes="ccscc" d="M 1231.3205,776 C 1361,832 1546,985 1649,1091 c 145.3042,23.8322 222,-161 78,-234 -118.8921,-60.27168 -303,-89 -482.6795,-94 z" id="path2238"></path>
    
</svg>
