<?xml version="1.0" encoding="UTF-8" standalone="no"?>
<svg viewBox="0 0 2000 2000" version="1.1" xmlns="http://www.w3.org/2000/svg" xmlns:sodipodi="http://sodipodi.sourceforge.net/DTD/sodipodi-0.dtd">
	
      <path sodipodi:nodetypes="cssscccsssccc" d="m 575.3809,221 v 1372 c 0,140 43,285 206,285 h 765 c 69,0 133,-103 63,-184 L 1632,1449 l -20,-4 c -28.3809,109 -73,237 -130,237 H 880 c -60,0 -90.99659,-43.2294 -91,-98 L 788.92,297.40039 c 32.42,0.6762 63.6601,-18.93984 70.6601,-45.83984 z" id="path1781"></path>
      <path id="path1799" d="M 363.38621,894.3762 1623.1412,675.95573 c 16.6023,-2.87856 24.9369,-15.56894 24.0519,-20.6728 L 1428,520 1336.4949,673.83361 336.85773,847.20475 Z" sodipodi:nodetypes="csccccc"></path>
      <path sodipodi:nodetypes="csccccc" d="m 294.41982,1304.9261 1429.22648,-247.804 c 16.6024,-2.8785 24.9369,-15.5689 24.052,-20.6728 L 1528.5051,901.16639 1437,1055 267.89134,1257.7546 Z" id="path1832"></path>
    
</svg>
