<?xml version="1.0" encoding="UTF-8" standalone="no"?>
<svg viewBox="0 0 2000 2000" version="1.1" xmlns="http://www.w3.org/2000/svg" xmlns:sodipodi="http://sodipodi.sourceforge.net/DTD/sodipodi-0.dtd">
	
      <path id="path3884" d="M 1369,1809 H 618.4 v -435.9 c 39.73,1e-4 65.01,-21.67 66.81,-43.34 l -270.1,-28.89 v 616.4 c 0,38.25 203.3,15.01 203.3,-47.04 v -12 h 750.6 v 65.9 c 0,41.5318 203.3,26.7207 203.3,-58.04 v -493 c 39.73,10e-5 65.01,-21.67 66.81,-43.34 l -270.1,-28.89 z" sodipodi:nodetypes="cccccssccsscccc"></path>
      <path sodipodi:nodetypes="ccscccc" id="path3886" d="m 54.52,1140 13.08,51.01 h 1859 c 16.86,0 27.23,-11.08 27.23,-16.26 l -198.2,-177.3 -119.1,142.6 z"></path>
      <path sodipodi:nodetypes="cccccccccssccssccccccccccccc" id="path3888" d="m 893.1,931.3 203.3,1.957 v -677.3 l -203.3,0.6918 z m 540.3,-793.1 -95.1,91.71 H 668.6 L 437.3,173.84 v 842.1 c 0,38.25 203.3,27.0606 203.3,-35.04 v -28 h 708.3 v 61.9 c 0,28.04 203.3,10.03 203.3,-46.04 v -665 c 33.56,0 78.32,-28.04 78.32,-42.05 z M 640.6,279 h 708.3 V 554.1 H 640.6 Z m 0,326.3 h 708.3 V 901.8 H 640.6 Z"></path>
      <path d="m 893.1,1837.043 203.3,1.957 v -661 l -203.3,0.6918 z" id="path3892" sodipodi:nodetypes="ccccc"></path>
    
</svg>
