<?xml version="1.0" encoding="UTF-8" standalone="no"?>
<svg viewBox="0 0 2000 2000" version="1.1" xmlns="http://www.w3.org/2000/svg" xmlns:sodipodi="http://sodipodi.sourceforge.net/DTD/sodipodi-0.dtd">
	
      <path sodipodi:nodetypes="csccccc" d="m 370.08,460.53 h 1290.55 c 16.85,0 27.23,-11.08 27.23,-16.26 L 1499,275.53 1384.56,411.47 352,411.52 Z" id="path3338"></path>
      <path id="path3340" d="m 144.08,1900 h 1733.99 c 16.85,0 27.23,-11.08 27.23,-16.26 L 1716.44,1715 1602,1850.94 126,1850.99 Z" sodipodi:nodetypes="csccccc"></path>
      <path sodipodi:nodetypes="cccccc" id="path3342" d="M 1952.605,1195.58 C 1297.7542,1144.254 758,851 567,612 l -19,39 c 206,342 662.1627,645.571 1161.395,738 38.2593,-72.5755 131.105,-138 232.8,-163.8 z"></path>
      <path id="path3346" d="M 1093.38,66 C 973.28172,704.44327 713.69354,1142.9695 20,1417.9936 L 57.710713,1436.5 C 794,1296 1198,846 1331,155.76 c 40.247,-5.05663 60.3,-29.64 61.58,-50.7 z" sodipodi:nodetypes="cccccc"></path>
      <path sodipodi:nodetypes="csccccc" d="m 504.08,1532 h 973.99 c 16.85,0 27.23,-11.08 27.23,-16.26 L 1316.44,1347 1202,1482.94 l -716,0.05 z" id="path3362"></path>
    
</svg>
