<?xml version="1.0" encoding="UTF-8" standalone="no"?>
<svg viewBox="0 0 2000 2000" version="1.1" xmlns="http://www.w3.org/2000/svg" xmlns:sodipodi="http://sodipodi.sourceforge.net/DTD/sodipodi-0.dtd">
	
      <path d="M 590.7857,444.83213 V 710 c 0,555.2039 -159.00711,947 -425.7857,1224 l 24,2 C 549.29648,1772 802.31963,1417.0001 802.7857,752 L 803,446.23413 Z" id="path2968" sodipodi:nodetypes="csccscc"></path>
      <path id="path2971" d="m 1633,270.93213 -123,146.34 -1312,-0.05 13.0801,49.012 h 1579.4825 c 16.86,0 27.2305,-11.082 27.2305,-16.262 z" sodipodi:nodetypes="ccccscc"></path>
      <path id="path2978" d="m 1340.4243,738.48 -105.4844,91.711 H 672.21 l 14,49.09 h 559.2299 v 732.199 c 0,140 43,285 206,285 h 326.4473 c 69,0 133,-103 63,-184 l 22.6191,-245 -20,-4 c -28.3809,109 -73,237 -130,237 H 1544.059 c -60,0 -84.9954,-43.229 -85,-98 L 1459,904 c 33.56,0 78.3204,-28.039 78.3204,-42.049 z" sodipodi:nodetypes="cccccssscccsssccc"></path>
    
</svg>
