<?xml version="1.0" encoding="UTF-8" standalone="no"?>
<svg viewBox="0 0 2000 2000" version="1.1" xmlns="http://www.w3.org/2000/svg" xmlns:sodipodi="http://sodipodi.sourceforge.net/DTD/sodipodi-0.dtd">
	
      <path sodipodi:nodetypes="csccccc" d="m 229.64,940 h 1573.99 c 16.85,0 27.23,-11.08 27.23,-16.26 L 1638,745 l -116.44,143.94 -1310,0.05 z" id="path2054"></path>
      <path d="m 613.7999,397 v 422 c 0,579 -100.3146,827.4736 -405,1070 l 20,11 C 644.3744,1728.2877 813,1424 813,882 V 467.52 c 38.55,0 63.08,-21.03 64.83,-42.05 z" id="path2094" sodipodi:nodetypes="csccsccc"></path>
      <path d="m 1793.7999,1494 20,4 -8,189 c 70,81 6,184 -63,184 h -361 c -163,0 -205.6925,-145.0003 -206,-285 V 377 l 264.0301,28.47 c -1.75,21.02 -26.28,42.05 -64.83,42.05 V 1577 c 0,54.7706 31,98 91,98 h 218.7999 c 46,0 86,-72 109,-181 z" id="path2090" sodipodi:nodetypes="cccssccccsssc"></path>
    
</svg>
