<?xml version="1.0" encoding="UTF-8" standalone="no"?>
<svg viewBox="0 0 2000 2000" version="1.1" xmlns="http://www.w3.org/2000/svg" xmlns:sodipodi="http://sodipodi.sourceforge.net/DTD/sodipodi-0.dtd">
	
      <path d="m 1187.8555,413 -0.01,1495.8809 c 0,36.98 212.1523,15.0489 212.1523,-58.0411 V 413 Z" id="path2422"></path>
      <path d="m 617.94141,404 -0.008,577 C 617.9277,1393 511,1722 279,1926.584 l 21,7 C 649,1816 829.85172,1464 829.93359,1067 l 0.13672,-663 z" id="path2424" sodipodi:nodetypes="csccscc"></path>
      <path id="path2426" d="M 261.15,433.5 H 1817.7 c 16.85,0 27.23,-11.08 27.23,-16.26 L 1656.07,232.5 1535.63,382.44 243.07,382.49 Z" sodipodi:nodetypes="csccccc"></path>
      <path id="path2429" d="m 194.64,1036 h 1715.99 c 16.85,0 27.23,-11.08 27.23,-16.26 L 1747,837 l -118.44,147.94 -1452,0.05 z" sodipodi:nodetypes="csccccc"></path>
    
</svg>
