<?xml version="1.0" encoding="UTF-8" standalone="no"?>
<svg viewBox="0 0 2000 2000" version="1.1" xmlns="http://www.w3.org/2000/svg" xmlns:sodipodi="http://sodipodi.sourceforge.net/DTD/sodipodi-0.dtd">
	
      <path d="M 1060.06,436.83213 V 690 c 0,555.2039 -108.06,929 -286,1224 l 20,-1 c 254.94,-142 477.5138,-514.5278 478,-1181 l 0.2143,-293.76587 z" id="path1836" sodipodi:nodetypes="csccscc"></path>
      <path id="path1838" d="m 1701.06,262.93213 -123,146.34 -734.4802,-0.05 13.0801,49.012 h 1001.9627 c 16.86,0 27.2305,-11.082 27.2305,-16.262 z" sodipodi:nodetypes="ccccscc"></path>
      <path id="path1855" d="m 1521.4473,654 -105.4844,91.7109 H 1156 l 14,49.0899 h 256.4629 V 1599 c 0,140 43,285 206,285 h 192 c 69,0 133,-103 63,-184 l 22.6191,-245 -20,-4 c -28.3809,109 -73,237 -130,237 h -35 c -60,0 -84.997,-43.2294 -85,-98 l -0.059,-770.4805 c 33.56,0 78.3204,-28.0388 78.3204,-42.0488 z" sodipodi:nodetypes="cccccssscccsscccc"></path>
      <path id="path1861" d="M 462.7539,1111.4908 C 530.12688,1175.0754 643.25688,1364.2423 676,1541 c 92.54791,49.3677 227,-8 191,-137 -50.52792,-181.0584 -242.32264,-284.1206 -391.5461,-302.2092 z" sodipodi:nodetypes="ccscc"></path>
      <path sodipodi:nodetypes="ccscccc" id="path1863" d="m 83.59,799.55 13.08,49.01 h 798.3 c 16.86,0 27.23,-11.08 27.23,-16.26 L 756,660 644.9,799.5 Z"></path>
      <path id="path1865" d="m 597.5671,413.918 c 21.51,0.6762 63.66,-18.94 70.66,-45.84 L 376.0571,338 v 332 c 0,544 -76.15164,954 -330.0571,1255.5 l 20,5.918 C 409.42686,1737.9982 597.5671,1325.5245 597.5671,722 Z" sodipodi:nodetypes="cccsccsc"></path>
    
</svg>
