<?xml version="1.0" encoding="UTF-8" standalone="no"?>
<svg viewBox="0 0 2000 2000" version="1.1" xmlns="http://www.w3.org/2000/svg" xmlns:sodipodi="http://sodipodi.sourceforge.net/DTD/sodipodi-0.dtd">
	
      <path id="path2884" d="M 1359.69,1410 H 637 l 4.29,-312.36 c 39.73,0 65.01,-33.67 66.81,-55.34 l -278.1,-20.89 -4.29,513.36 c -0.31963,38.2483 211.3,-4.18 211.3,-47.04 v -32 h 722.69 v 61.9 c 0,28.04 210.6558,-1.9753 211.3,-58.04 l 4.29,-373.36 c 39.73,0 65.01,-25.67 66.81,-47.34 L 1364,1010 Z" sodipodi:nodetypes="cccccssccsscccc"></path>
      <path id="path2886" d="m 906.4201,919 v 464 c 0,239.2392 -68.4201,449.404 -312.7101,588 l 20,13 C 907,1903.2955 1105.6202,1704.6767 1105.6202,1432.193 V 989.52 c 38.55,0 63.08,-21.03 64.83,-42.05 z" sodipodi:nodetypes="csccsccc"></path>
      <path sodipodi:nodetypes="ccscccc" d="m 623.82,788.95 13.08,49.01 h 752.07 c 16.86,0 27.23,-11.08 27.23,-16.26 L 1218,644.4 1098.9,789 Z" id="path2890"></path>
      <path sodipodi:nodetypes="cccccc" id="path2909" d="m 552.8,273 c -74.30357,270.38374 -251.71703,613.27492 -509,848.762 l 21,7.238 C 340.18372,1030.888 645.39522,710.06267 769,369.612 c 26.87436,4.40875 45.94,-8.426 56.39,-32.53 z"></path>
      <path d="m 837.1323,259.85364 h 415.0549 C 1299.1795,621 1549.1795,1033 1745.5271,1125 c 45.6524,-98 126.6524,-153 237.0806,-179.0957 l 7.85,-28.4045 C 1660.1795,841.612 1383.1795,449 1346,269.60364 c 74.1795,0 128.1795,-12.04164 131.2272,-33.3 l -168.438,-153.218 -97.1,121.71 H 825.1343 Z" id="path2914" sodipodi:nodetypes="ccccccccccc"></path>
    
</svg>
