<?xml version="1.0" encoding="UTF-8" standalone="no"?>
<svg viewBox="0 0 2000 2000" version="1.1" xmlns="http://www.w3.org/2000/svg" xmlns:sodipodi="http://sodipodi.sourceforge.net/DTD/sodipodi-0.dtd">
	
      <path sodipodi:nodetypes="cssccc" d="m 1357,130.46 v 1478 c 0,67.36 199.2,15.23 199.2,-49.48 v -1358 c 38.55,6e-5 63.08,-21.03 64.83,-42.05 z" id="path912"></path>
      <path d="m 772.4,263.9 -95.1,91.71 H 429.6 L 198.3,299.54 v 307.3 c 0,643.2 -45.3,1070.16 -181.3,1359 l 21.18,0.3898 C 253,1795 395.88458,1435 399.38,802.2298 l 2.198,-397.9 h 286.2 v 534.8 c 0,704.4 292.7,994.2 1143,1026 94.75,3.503 139.6,-105.6 90.05,-172.6 l 57.84,-255.4 -18.24,-6.102 c -61.78,146.3 -163,229.5 -200.9,227.2 -608.1,-36.02 -869,-204.1 -869,-834.3 v -488.5 c 33.56,0 78.32,-34.04 78.32,-48.05 z" id="path914" sodipodi:nodetypes="ccccsccsccscccccsccc"></path>
      <path d="m 945.3,942.7 13.08,49.01 h 993.8 c 16.86,0 27.23,-11.08 27.23,-16.26 l -198.2,-177.3 -119.1,144.6 z" id="path985" sodipodi:nodetypes="ccscccc"></path>
      <path d="m 1006,557.5 13.08,49.01 h 864 c 16.86,0 27.23,-11.08 27.23,-16.26 l -198.2,-177.3 -119.1,144.6 z" id="path987" sodipodi:nodetypes="ccscccc"></path>
      <path d="m 407.8,559.2 c 29.26,46.97 72.7,174.9 91.06,286.2 76.4,49.73 196.4,3.053 170.5,-113.3 -21.21,-95.34 -150.1,-156.8 -249.6,-179 z" id="path995" sodipodi:nodetypes="ccccc"></path>
      <path d="m 417.7,963.1 -11.95,6.1 c 29.26,46.97 72.7,174.9 91.06,286.2 76.4,49.73 196.4,3.053 170.5,-113.3 -21.21,-95.34 -150.1,-156.8 -249.6,-179 z" id="use1073" sodipodi:nodetypes="cccccc"></path>
    
</svg>
