<?xml version="1.0" encoding="UTF-8" standalone="no"?>
<svg viewBox="0 0 2000 2000" version="1.1" xmlns="http://www.w3.org/2000/svg" xmlns:sodipodi="http://sodipodi.sourceforge.net/DTD/sodipodi-0.dtd">
	
      <path d="m 893.1,1865 203.3,0.657 v -1501.8 l -203.3,0.6918 z m 608.3,-1626.9 -95.1,99.71 H 600.6 L 369.3,281.74 v 882.1 c 0,41.9492 203.3,24.0137 203.3,-41.04 v -24 h 844.3 v 47.9 c 0,37.0682 203.3,23.7483 203.3,-46.04 v -689 c 33.56,0 78.32,-28.04 78.32,-42.05 z M 572.6,386.9 h 844.3 V 690 H 572.6 Z m 0,354.3 h 844.3 v 306.5 H 572.6 Z" id="path3141" sodipodi:nodetypes="cccccccccssccssccccccccccccc"></path>
      <path id="path3145" d="M 372.01,1506.06 H 1626 c 16.85,0 27.23,-11.08 27.23,-16.26 l -192.86,-170.74 -116.44,135.94 -990,0.05 z" sodipodi:nodetypes="csccccc"></path>
      <path sodipodi:nodetypes="csccccc" d="M 132.01,1898.06 H 1866 c 16.85,0 27.23,-11.08 27.23,-16.26 l -192.86,-170.74 -116.44,135.94 -1470,0.05 z" id="path3148"></path>
    
</svg>
