<?xml version="1.0" encoding="UTF-8" standalone="no"?>
<svg viewBox="0 0 2000 2000" version="1.1" xmlns="http://www.w3.org/2000/svg" xmlns:sodipodi="http://sodipodi.sourceforge.net/DTD/sodipodi-0.dtd">
	
      <path id="path2809" d="m 23.02627,1114.8615 167.99128,278.0361 C 210.30436,1384.4174 216.80837,1353 214.70485,1327 L 1175.1747,822.0037 1183.7049,790 Z" sodipodi:nodetypes="cccccc"></path>
      <path id="path2811" d="m 548.71485,179 -0.01,1525.4678 c -1.4e-4,21.03 -9.63541,27.4457 -23.71094,26.3086 L 306.8187,1706 l -1.18164,22.75 C 413.8187,1760 498.79303,1841.5605 524.11305,1946.3076 711.6133,1932.2876 751.999,1844.708 752,1702.708 l 0.01,-1451.47753 c 39.7301,0 65.0087,-21.66985 66.8087,-43.33985 z" sodipodi:nodetypes="csscccsccc"></path>
      <path sodipodi:nodetypes="cccccc" d="M 823.32142,1156.8615 991.3127,1426.8976 C 1010.5995,1418.4174 1017.1035,1387 1015,1361 L 1975.4698,804.0037 1984,772 Z" id="path2817"></path>
      <path sodipodi:nodetypes="csscccsccc" d="M 1389.01,179 1389,1704.4678 c -10e-5,21.03 -9.6354,27.4457 -23.7109,26.3086 L 1147.1139,1706 l -1.1817,22.75 c 108.1817,31.25 193.156,112.8105 218.476,217.5576 187.5003,-14.02 227.886,-101.5996 227.887,-243.5996 l 0.01,-1451.47753 c 39.7301,0 65.0087,-21.66985 66.8087,-43.33985 z" id="path2819"></path>
    
</svg>
