<?xml version="1.0" encoding="UTF-8" standalone="no"?>
<svg viewBox="0 0 2000 2000" version="1.1" xmlns="http://www.w3.org/2000/svg" xmlns:sodipodi="http://sodipodi.sourceforge.net/DTD/sodipodi-0.dtd">
	
      <path id="path1454" d="m 645.81,776.68 c 0,612.285 -90.81,921.32 -347.81,1118 l 27,16 C 678.51105,1804 845.34,1562.304 845.34,871.68 v -224 c 35.54,0 58.66,-30.56 58.66,-45.84 L 645.81,576.95 Z" sodipodi:nodetypes="sccscccs"></path>
      <path sodipodi:nodetypes="ccscccc" id="path1456" d="m 173.49,1073.63 13.08,49.01 h 1631.5103 c 16.86,0 27.23,-11.08 27.23,-16.26 L 1652,933.03 1535.2103,1073.68 Z"></path>
      <path sodipodi:nodetypes="cssccc" d="m 1131.97,531.68 v 1346.64 c 0,67.36 199.2,15.23 199.2,-49.48 V 602.2 c 38.55,0 63.08,-21.03 64.83,-42.05 z" id="path1458"></path>
      <path sodipodi:nodetypes="cccccccccc" d="m 1526.8,676 c 124.7559,-61.594 238.4898,-231.277 288,-341.32 15.4835,1.115 62.98,-24.53 64.1,-30.82 L 1665.3986,153.16 1535.9,278.66 H 393 L 408.42,327 H 1573 c -14.6669,145.138 -37.9514,260.038 -67.2,345 z" id="path1460"></path>
      <path sodipodi:nodetypes="ccscc" d="M 364.036,178.339 C 348.7689,313.052 316.32632,455.778 216.9,526.68 c -80.85607,98 49.17457,248.842 167,161 96.665,-72.066 114,-290 3.636,-519.091 z" id="path1463"></path>
    
</svg>
