<?xml version="1.0" encoding="UTF-8" standalone="no"?>
<svg viewBox="0 0 2000 2000" version="1.1" xmlns="http://www.w3.org/2000/svg" xmlns:sodipodi="http://sodipodi.sourceforge.net/DTD/sodipodi-0.dtd">
	
      <path d="M 1987,1713 C 1865.9,1570.9 1684,970.2 1688.7,329 l -68.76,245.9 c 3.955,704.7 97.32,1171 206.7,1352 37.73,-119.6 105.2,-178.1 153,-194.7 z" id="path1281"></path>
      <path d="m 328.1,981.6 c 48.56,52.88 130.1,210.2 153.7,357.2 88.64,45.82 201.5,13.41 184.1,-133 C 649.03,1063.5 464.7,985.9 340.8,971.9 Z" id="path1283"></path>
      <path d="m 24.52,714.3 13.08,49.01 h 628.3 c 16.86,0 27.23,-11.08 27.23,-16.26 l -169.2,-155.3 -108.1,122.5 z" id="path1285" sodipodi:nodetypes="ccscccc"></path>
      <path d="m 1472,240.5 c 0,861.1 -56.57,1370 -287.9,1664 l 11.83,13.73 c 312.3,-186.9 497.6,-606.4 497.6,-1601 35.54,0 70.66,-30.56 70.66,-45.84 z" id="path1287"></path>
      <path d="m 233.7,244.5 c -0.4269,736.4 -42.26,1313 -220.3,1654 l 19.91,5.918 c 298.7,-211.1 404.8,-758.9 421.9,-1584 21.51,0.6762 63.66,-18.94 70.66,-45.84 z" id="path1289"></path>
      <path d="m 1309,714.3 13.08,49.01 h 618.3 c 16.86,0 27.23,-11.08 27.23,-16.26 l -169.2,-155.3 -108.1,122.5 z" id="path1291" sodipodi:nodetypes="ccscccc"></path>
      <path d="m 542.8,466.6 13.08,49.01 h 853.2 c 16.86,0 27.23,-11.08 27.23,-16.26 L 1242.9997,332 1126.21,466.65 Z" id="path1293" sodipodi:nodetypes="ccscccc"></path>
      <path d="m 993.1,1380 c 108.2,-134.9 253.3,-445.2 331.8,-718.7 25.46,14.72 59.7,-19.92 64.78,-38.99 l -326.5,-70.76 c -6.59,150.4 -45.77,522.9 -102,826.1 z" id="path1297"></path>
      <path d="m 522.3,1388 89.26,287.9 c 20.77,-3.536 38.91,-30.39 39,-58.16 l 737.7,-268 4.094,-23.93 z" id="path1301"></path>
      <path d="m 605.8,589.5 c 39.05,108.6 95.34,370.5 123.6,685.5 92.54,78.91 235.3,15.14 207.2,-173.7 C 902.47,871.7 762.3,666.2 618.5,575 Z" id="path1305"></path>
    
</svg>
