<?xml version="1.0" encoding="UTF-8" standalone="no"?>
<svg viewBox="0 0 2000 2000" version="1.1" xmlns="http://www.w3.org/2000/svg" xmlns:sodipodi="http://sodipodi.sourceforge.net/DTD/sodipodi-0.dtd">
	
      <path sodipodi:nodetypes="ccccssccsccccsccc" d="m 1565.5874,332.5863 -95.1,91.71 H 548.96505 l -231.3,-56.07 v 666.5 c 0,48.24 203.3,21.82 203.3,-55.04 v -506.3 h 960.02235 v 355.5 c 0,21.03 -15.21,27.48 -23.71,26.31 l -150,-18.54 -0.713,22.75 c 79.4356,26.2795 136.4356,109.2795 149.8,211.3 187.5,-14.02 227.8,-101.6 227.8,-243.6 v -329 c 33.56,0 78.32,-28.04 78.32,-42.05 z" id="path2544"></path>
      <path sodipodi:nodetypes="cscccc" d="m 898,1193.3 c 0,36.98 203.3,15.05 203.3,-58.04 V 166.65 c 39.73,1e-4 65.01,-21.67 66.81,-43.34 L 898.01,94.42 Z" id="path2546"></path>
      <path sodipodi:nodetypes="ccccssccsscccccccc" d="m 1430,1212.4767 -95.1,91.71 H 663 l -231.3,-56.07 v 662.1 c 0,47.3058 260.43124,-4.7613 203.3,-39.04 v -12 h 710.4 v 43.9 c 0,39.12 203.3,18.5 203.3,-50.04 v -475 c 33.56,0 78.32,-28.04 78.32,-42.05 z m -84.58,605.5 h -710.4 v -464.8 h 710.4 z" id="path2556"></path>
    
</svg>
