<?xml version="1.0" encoding="UTF-8" standalone="no"?>
<svg viewBox="0 0 2000 2000" version="1.1" xmlns="http://www.w3.org/2000/svg" xmlns:sodipodi="http://sodipodi.sourceforge.net/DTD/sodipodi-0.dtd">
	
      <path sodipodi:nodetypes="csscccsccc" d="m 1121.8062,179 -0.01,1505.4678 c -10e-5,21.03 -9.6797,27.902 -23.7109,26.3086 L 857.91005,1688 l 0.81836,28.75 C 968.91,1761 1066.9101,1824 1097.2044,1946.3076 c 187.5003,-14.02 227.886,-101.5996 227.887,-243.5996 l 0.01,-1451.47753 c 39.7301,0 65.0087,-21.66985 66.8087,-43.33985 z" id="path2718"></path>
      <path sodipodi:nodetypes="ccscccc" d="m 279.99,687.95 13.08,49.01 h 1479 c 16.86,0 27.23,-11.08 27.23,-16.26 L 1601.1,543.4 1482,688 Z" id="path2723"></path>
      <path sodipodi:nodetypes="csccccc" id="path2725" d="m 1036.0001,713.65 c -1.4049,7.77779 -1.9415,14.96302 -4.4101,23.31 C 927.3996,1089.2503 649.0214,1504.1113 220,1762 l 15,10 c 536,-128 825.1365,-526.0273 937,-779 l 29,-272.35 z"></path>
    
</svg>
