<?xml version="1.0" encoding="UTF-8" standalone="no"?>
<svg viewBox="0 0 2000 2000" version="1.1" xmlns="http://www.w3.org/2000/svg" xmlns:sodipodi="http://sodipodi.sourceforge.net/DTD/sodipodi-0.dtd">
	
      <path id="path2619" d="M 1169,1847 H 818.4 v -457.9 c 39.73,1e-4 65.01,-21.67 66.81,-43.34 l -270.1,-28.89 v 636.4 c 0,38.25 203.3,15.01 203.3,-47.04 v -12 h 350.6 v 53.9 c 0,41.5318 203.3,26.7207 203.3,-58.04 v -501 c 39.73,10e-5 65.01,-21.67 66.81,-43.34 l -270.1,-28.89 z" sodipodi:nodetypes="cccccssccsscccc"></path>
      <path sodipodi:nodetypes="ccscccc" id="path2622" d="m 54.52,1532 13.08,51.01 h 1859 c 16.86,0 27.23,-11.08 27.23,-16.26 l -198.2,-177.3 -119.1,142.6 z"></path>
      <path sodipodi:nodetypes="cccccccccssccssccccccccccccc" id="path2624" d="m 893.1,1207.3 203.3,1.957 v -639.3 l -203.3,0.6918 z m 540.3,-755.1 -95.1,91.71 H 668.6 L 437.3,487.84 v 788.1 c 0,38.25 203.3,27.0606 203.3,-35.04 v -12 h 708.3 v 45.9 c 0,40.9619 203.3,22.834 203.3,-46.04 v -611 c 33.56,0 78.32,-48.04 78.32,-62.05 z M 640.6,593 h 708.3 V 864.1 H 640.6 Z m 0,322.3 h 708.3 v 262.5 H 640.6 Z"></path>
      <path sodipodi:nodetypes="csccccc" d="m 184.08,428 h 1653.99 c 16.85,0 27.23,-11.08 27.23,-16.26 L 1676.44,233 1562,378.94 166,378.99 Z" id="path2631"></path>
      <path sodipodi:nodetypes="ccscc" d="M 795,52.0152 C 834.75897,92.146899 897.42623,210.67394 929,343 c 86.2098,44.48391 216.0051,-6.44066 187,-124 C 1089.1108,110.01657 925.14406,52.770892 807.3,42.3152 Z" id="path2633"></path>
    
</svg>
