<?xml version="1.0" encoding="UTF-8" standalone="no"?>
<svg viewBox="0 0 2000 2000" version="1.1" xmlns="http://www.w3.org/2000/svg" xmlns:sodipodi="http://sodipodi.sourceforge.net/DTD/sodipodi-0.dtd">
	
      <path sodipodi:nodetypes="ccscccc" id="path2287" d="m 314.52,417.23 13.08,51.01 h 1339 c 16.86,0 27.23,-11.08 27.23,-16.26 l -198.2,-197.3 -119.1,162.6 z"></path>
      <path sodipodi:nodetypes="ccccssccssccccccccccccc" id="path2289" d="m 1393.4,1061.44 -95.1,91.71 H 708.6 l -231.3,-56.07 v 874.1 c 0,38.25 203.3,17.82 203.3,-35.04 v -40 h 628.3 v 73.9 c 0,28.04 203.3,10.03 203.3,-46.04 v -697 c 33.56,0 78.32,-28.04 78.32,-42.05 z m -712.8,140.8 h 628.3 v 285.1 H 680.6 Z m 0,336.3 h 628.3 v 306.5 H 680.6 Z"></path>
      <path d="M 890.99,895.23 1094.29,909 V 142.3 c 39.73,10e-5 65.01,-21.67 66.81,-43.34 L 891,70.07 Z m -781.9,-21.04 13.08,49.01 h 1757 c 16.86,0 27.23,-11.08 27.23,-16.26 l -198.2,-197.3 -119.1,164.6 z" id="path2296" sodipodi:nodetypes="ccccccccscccc"></path>
    
</svg>
