<?xml version="1.0" encoding="UTF-8" standalone="no"?>
<svg viewBox="0 0 2000 2000" version="1.1" xmlns="http://www.w3.org/2000/svg" xmlns:sodipodi="http://sodipodi.sourceforge.net/DTD/sodipodi-0.dtd">
	
      <path d="M 1178.06,424.83213 V 690 c 0,555.2039 -88.06,959 -285.06,1222 l 20,9 c 260,-132 478.1285,-508.0177 483.06,-1189 l 0.2143,-305.76587 z" id="path3138" sodipodi:nodetypes="csccscc"></path>
      <path id="path3140" d="m 1757.06,250.93213 -123,146.34 -640.4802,-0.05 13.0801,49.012 h 907.9627 c 16.86,0 27.2305,-11.082 27.2305,-16.262 z" sodipodi:nodetypes="ccccscc"></path>
      <path id="path3142" d="m 1621.4473,654 -105.4844,91.7109 H 1316 l 14,49.0899 h 196.4629 V 1599 c 0,140 43,285 206,285 h 160 c 102.5371,0 105.5371,-141 63,-184 l 22.6191,-245 -20,-4 c -28.3809,109 -73,237 -130,237 h -17 c -55.3125,0 -70.9958,-43.2294 -71,-98 l -0.059,-770.4805 c 33.56,0 64.3204,-28.0388 64.3204,-42.0488 z" sodipodi:nodetypes="cccccssscccsssccc"></path>
      <path sodipodi:nodetypes="cccccc" d="m 479.74,1639.26 99.26,287.9 c 20.77,-3.536 38.91,-30.39 39,-58.16 l 494.646,-306.81 8.094,-31.93 z" id="path3147"></path>
      <path sodipodi:nodetypes="csccscc" id="path3164" d="M 251.037,450.83213 V 690 c 0,555.2039 -74.87583,950 -248.037,1226 l 20,5 C 272.92614,1778.0381 468.54022,1413 469.037,732 l 0.2143,-279.76587 z"></path>
      <path sodipodi:nodetypes="ccccscc" d="m 804.037,276.93213 -123,146.34 -628.4802,-0.05 13.0801,49.012 h 895.9627 c 16.86,0 27.2305,-11.082 27.2305,-16.262 z" id="path3166"></path>
      <path sodipodi:nodetypes="cccccccccc" d="M 698.4243,654 592.9399,745.7109 H 400.977 l 14,49.0899 H 603.4399 V 1671 L 817.059,1622 817,819.5195 c 33.56,0 78.3204,-28.0388 78.3204,-42.0488 z" id="path3168"></path>
    
</svg>
