<?xml version="1.0" encoding="UTF-8" standalone="no"?>
<svg viewBox="0 0 2000 2000" version="1.1" xmlns="http://www.w3.org/2000/svg" xmlns:sodipodi="http://sodipodi.sourceforge.net/DTD/sodipodi-0.dtd">
	
      <path id="path2137" d="m 540,1154.71 c 81.24,100.8 165.2,238.4 207.7,388.6 94.3,82.16 262.0422,-4.9082 181.3,-148.84 -69,-123 -225,-215 -378,-248.46 z" sodipodi:nodetypes="ccscc"></path>
      <path id="path2139" d="m 1981.825,1721.5 c -249,-98.6833 -543.7,-479.03 -543.7,-853.5 l -67.95,199.47 c 8,302 160.283,705.6247 359.8,835 24.984,-55.4864 111,-139 243.2,-154.9 z" sodipodi:nodetypes="cccccc"></path>
      <path id="path2141" d="m 1216.625,525.47 0.55,318 c 0.7012,405.4434 -113,814.0613 -396,1043 l 23,13 c 396,-143.2994 593.95,-597.2717 593.95,-1031.47 V 609.65 c 42.02,0 70.66,-33.68 70.68,-51.51 z" sodipodi:nodetypes="csccsccc"></path>
      <path sodipodi:nodetypes="csccsccc" d="M 477.5893,542.12 V 759.47 C 477.5893,1199 352,1619 35.175,1900.47 l 23,10 c 357.97878,-134.0145 640.6393,-554.2357 640.6393,-1092 V 628.975 c 42.02,0 70.6601,-33.68 70.68,-51.51 z" id="path2147"></path>
      <path sodipodi:nodetypes="ccscccc" id="path2149" d="m 137,356.65 13.08,47.01 h 1704.3827 c 16.85,0 27.23,-11.08 27.23,-16.26 L 1685,201 1566.4927,356.6 Z"></path>
    
</svg>
