<?xml version="1.0" encoding="UTF-8" standalone="no"?>
<svg viewBox="0 0 2000 2000" version="1.1" xmlns="http://www.w3.org/2000/svg" xmlns:sodipodi="http://sodipodi.sourceforge.net/DTD/sodipodi-0.dtd">
	
      <path sodipodi:nodetypes="cssccc" id="path3655" d="m 894,100.48 v 1878 c 0,67.36 211.2,15.23 211.2,-49.48 V 171 c 38.55,6e-5 59.08,-21.03 60.83,-42.05 z"></path>
      <path d="m 1517,366 -95.1,91.71 H 596.1 L 364.8,401.64 v 548.6 c 0,38.25 222.4788,23.972 203.3,-35.04 v -20 h 864.4 v 56.02 c 0,28.04 203.3,10.03 203.3,-46.04 v -373.6 c 33.56,0 78.32,-28.04 78.32,-42.05 z m -84.58,480 H 568.02 V 506.7 h 864.4 z" id="path3664" sodipodi:nodetypes="ccccscccsscccccccc"></path>
      <path sodipodi:nodetypes="ccccscccsscccccccc" id="path3669" d="m 1597,1055 -95.1,91.71 H 516.1 l -231.3,-56.07 v 548.6 c 0,38.25 222.4788,23.972 203.3,-35.04 v -20 h 1024.4 v 56.02 c 0,28.04 203.3,10.03 203.3,-46.04 v -373.6 c 33.56,0 78.32,-28.04 78.32,-42.05 z m -84.58,480 H 488.02 v -339.3 h 1024.4 z"></path>
    
</svg>
