<?xml version="1.0" encoding="UTF-8" standalone="no"?>
<svg viewBox="0 0 2000 2000" version="1.1" xmlns="http://www.w3.org/2000/svg" xmlns:sodipodi="http://sodipodi.sourceforge.net/DTD/sodipodi-0.dtd">
	
      <path id="path3943" d="m 1618.88,1507.18 h -372.69 v -290.77 c 39.73,10e-5 65.01,-27.67 66.81,-49.34 l -278.1,-26.89 v 485.77 c 0,44.1441 211.3,7.05 211.3,-47.04 v -26 h 372.69 v 75.9 c 0,32.1293 211.3,16.3428 211.3,-58.04 V 1203 c 39.73,10e-5 65.01,-25.67 66.81,-47.34 l -278.1,-28.89 z" sodipodi:nodetypes="cccccssccsscccc"></path>
      <path d="m 1332.19,1036 v 914.48 c 0,67.36 203.2,15.23 203.2,-49.48 v -794.48 c 38.55,10e-5 59.08,-21.03 60.83,-42.05 z" id="path3945" sodipodi:nodetypes="cssccc"></path>
      <path sodipodi:nodetypes="cccccssccsscccc" d="M 744.68,1507.18 H 375.99 v -286.77 c 39.73,10e-5 65.01,-27.67 66.81,-49.34 l -278.1,-26.89 v 487.77 c 0,44.1441 211.3,7.0499 211.3,-47.04 v -32 h 368.69 v 61.9 c 0,32.1293 211.3,16.3428 211.3,-58.04 V 1205 c 39.73,10e-5 65.01,-25.67 66.81,-47.34 l -278.1,-28.89 z" id="path3947"></path>
      <path sodipodi:nodetypes="csccsccc" d="M 459.4101,1049.29 V 1447 c 0,193 -52.4101,392 -248.7101,537.77 l 22,7 C 506,1927 662.6102,1718 662.6102,1480.1773 V 1119.81 c 38.55,10e-5 63.08,-21.03 64.83,-42.05 z" id="path3949"></path>
      <path d="m 1478.5,142.1 -105.1,91.71 H 645.7 L 404.4,177.74 v 806.1 c 0,38.25 217.35418,17.6643 213.3,-35.04 v -26 H 1384 v 61.9 c 0,30.4131 213.3,12.4041 213.3,-46.04 v -631 c 33.56,0 78.32,-28.04 78.32,-42.05 z M 617.7,282.9 H 1384 V 552 H 617.7 Z m 0,320.3 H 1384 V 871.7 H 617.7 Z" id="path3970" sodipodi:nodetypes="ccccssccssccccccccccccc"></path>
    
</svg>
