<?xml version="1.0" encoding="UTF-8" standalone="no"?>
<svg viewBox="0 0 2000 2000" version="1.1" xmlns="http://www.w3.org/2000/svg" xmlns:sodipodi="http://sodipodi.sourceforge.net/DTD/sodipodi-0.dtd">
	
      <path sodipodi:nodetypes="csccsccc" d="M 584,80.65 V 198 c 0,510.2146 -161.271,867.6423 -442.414,1135 l 23,4 C 522.565,1202.9855 805.225,773 805.225,257 v -89.495 c 42.02,0 70.66,-33.68 70.68,-51.51 z" id="path3776"></path>
      <path d="M 1842,1088 C 1266,1055 858.62544,833.19706 653.8,649 l 3,62 c 182.6787,251.38179 565.1513,539.2093 1033.2,585 24,-72 86,-158 143,-177 z" id="path3779" sodipodi:nodetypes="cccccc"></path>
      <path sodipodi:nodetypes="ccscccc" d="M 264.94,473.99 278.02,523 H 1070 c 13.32,0 21.52,-11.08 21.52,-16.26 L 900,334 786.42,474.04 Z" id="path3791"></path>
      <path d="m 1080.3,412 c 173.5746,98.66666 342.4216,273.84854 473.7,444 130.9408,39.33429 219.8804,-111.63851 113,-224 C 1550,509 1296,421 1094.4,395.6 Z" id="path3794" sodipodi:nodetypes="ccscc"></path>
      <path sodipodi:nodetypes="cccccssccsscccc" id="path3804" d="M 1229,1857.31 H 758.4 v -557.9 c 38.6,-5.0476 65.01,-21.67 66.81,-43.34 l -270.1,-28.89 v 728.4 c 0,47.858 203.3,24.5327 203.3,-47.04 v -10 h 470.6 v 45.9 c 0,42.1441 203.3,19.3758 203.3,-52.04 v -573 c 37.69,-5.0376 65.01,-21.67 66.81,-43.34 l -270.1,-28.89 z"></path>
      <path sodipodi:nodetypes="ccscccc" id="path3806" d="m 170.48,1500.95 13.08,49.01 h 1639 c 16.86,0 27.23,-11.08 27.23,-16.26 l -198.2,-177.3 -119.1,144.6 z"></path>
      <path sodipodi:nodetypes="cccccc" d="m 1119.6603,1002.4995 c 198,-131.99996 444.6132,-422.09921 567.5759,-708.18478 33.068,1.13703 60.8563,-17.21937 69.1827,-45.86675 L 1448,185 c -64.2111,243.3521 -173.3397,551.49954 -373.3397,807.49954 z" id="path3814"></path>
    
</svg>
