<?xml version="1.0" encoding="UTF-8" standalone="no"?>
<svg viewBox="0 0 2000 2000" version="1.1" xmlns="http://www.w3.org/2000/svg" xmlns:sodipodi="http://sodipodi.sourceforge.net/DTD/sodipodi-0.dtd">
	
      <path d="m 997.725,127.7 c 61.092,67.98759 156.8874,233.25673 211.275,378.3 95,58 233,-25 160,-167 -61.7551,-120.12627 -210,-198 -360.575,-219.9 z" id="path2734" sodipodi:nodetypes="ccscc"></path>
      <path id="path2736" d="m 611.08,586 h 1353.55 c 16.85,0 27.23,-11.08 27.23,-16.26 L 1799,393 1688.56,536.94 593,536.99 Z" sodipodi:nodetypes="csccccc"></path>
      <path sodipodi:nodetypes="ccscc" d="m 932.625,1173.24 c 70.9432,95.3943 144.2617,225.615 181.375,367.76 82.3479,77.7539 240.2782,-28.2885 168,-156 -61.7669,-109.1386 -201.4137,-190.7707 -338.375,-220.46 z" id="path2738"></path>
      <path sodipodi:nodetypes="cccccc" d="M 1996,1782.03 C 1817.7392,1683.3467 1639.125,1301 1639.125,926.53 L 1565,1146 c 0,303 87,719 226,821 35,-72 116,-141 198.8074,-158.9 z" id="path2740"></path>
      <path sodipodi:nodetypes="csccsccc" d="m 1423.625,662 0.55,240 c 0.948,413.6752 -95,801.4128 -378,1035 l 23,7 c 396,-145.3603 555.3052,-577.2708 569.95,-1017.47 l 6,-180.35 c 42.02,0 70.66,-33.68 70.68,-51.51 z" id="path2742"></path>
      <path sodipodi:nodetypes="csccccc" d="m 1297.705,996.825 h 596.6873 c 16.85,0 27.23,-11.08 27.23,-16.26 l -156.86,-166.74 -104.44,135.94 -380.6973,0.05 z" id="path2744"></path>
      <path sodipodi:nodetypes="ccscccc" id="path2746" d="m 639.8573,949.815 13.08,47.01 h 590.6577 c 16.85,0 27.23,-11.08 27.23,-16.26 l -148.6927,-144.4 -94.5073,113.6 z"></path>
      <path id="path2748" d="M 823.2143,654.65 V 838 C 823.2143,1353 719,1722 482,1942 l 20,12 C 848.54337,1824 1044.4393,1405.5487 1044.4393,897 V 741.505 c 42.02,0 70.6601,-33.68 70.68,-51.51 z" sodipodi:nodetypes="csccsccc"></path>
      <path id="path2762" d="m 346.1,1047.6 c 48.56,52.88 130.1,210.2 153.7,357.2 88.64,45.82 201.5,13.41 184.1,-133 -16.87,-142.3 -201.2,-219.9 -325.1,-233.9 z" sodipodi:nodetypes="ccccc"></path>
      <path sodipodi:nodetypes="ccscccc" id="path2764" d="m 42.52,780.3 13.08,49.01 h 628.3 c 16.86,0 27.23,-11.08 27.23,-16.26 l -169.2,-155.3 -108.1,122.5 z"></path>
      <path id="path2768" d="M 251.7,398.5 C 251.2731,1134.9 201,1655 13.4,1964.5 l 19.91,5.918 C 363,1750 456.11,1307.518 473.21,482.418 506,481 536.87,455.478 543.87,428.578 Z" sodipodi:nodetypes="cccccc"></path>
    
</svg>
