<?xml version="1.0" encoding="UTF-8" standalone="no"?>
<svg viewBox="0 0 2000 2000" version="1.1" xmlns="http://www.w3.org/2000/svg" xmlns:sodipodi="http://sodipodi.sourceforge.net/DTD/sodipodi-0.dtd">
	
      <path id="path2325" d="m 1187.8483,1908.88 c 0,36.98 212.1517,15.05 212.1517,-58.04 V 268.23 c 39.73,10e-5 65.01,-21.67 66.81,-43.34 L 1187.8583,196 Z" sodipodi:nodetypes="cscccc"></path>
      <path id="path2327" d="m 603.9432,256 -0.01,725 C 603.9272,1440 509.54063,1705 307,1926.584 l 19,5 C 644.27472,1809.7332 815.85578,1444 815.9335,1067 l 0.1523,-738.76953 c 39.73,10e-5 65.0106,-21.66985 66.8106,-43.33985 z" sodipodi:nodetypes="csccsccc"></path>
      <path sodipodi:nodetypes="csccccc" d="M 261.15,768.5 H 1827.7 c 16.85,0 27.23,-11.08 27.23,-16.26 L 1666.07,567.5 1545.63,717.44 243.07,717.49 Z" id="path2345"></path>
      <path sodipodi:nodetypes="csccccc" d="m 194.64,1311 h 1715.99 c 16.85,0 27.23,-11.08 27.23,-16.26 L 1747,1112 l -118.44,147.94 -1452,0.05 z" id="path2347"></path>
    
</svg>
