<?xml version="1.0" encoding="UTF-8" standalone="no"?>
<svg viewBox="0 0 2000 2000" version="1.1" xmlns="http://www.w3.org/2000/svg" xmlns:sodipodi="http://sodipodi.sourceforge.net/DTD/sodipodi-0.dtd">
	
      <path id="path2091" d="M 424.94,876.48313 H 660.649 C 664,1068 641,1407 593.849,1650.4832 c -2.83928,14.6618 -18.50078,18.831 -27.96,17.87 l -215.5,-21.69 2.211,28.14 c 111.4,39.94 188.3,143.1 187.2,224.9 98.42,8.252 227.69653,-29.1664 255.8,-189 C 849,1407 863,1211 863,887.10313 c 18.7,-2.854 38.84,-18.07 46.94,-34.49 l -185.4,-131.2 -108.8,106.7 H 409.3413 Z" sodipodi:nodetypes="ccsscccscccccc"></path>
      <path d="M 252,426.83213 V 680 c 0,555.2039 -87.09701,903.6374 -240,1224 l 20,-1 C 245.84287,1754.5693 468.05125,1388.4601 464,722 l 0.21427,-293.76587 z" id="path2093" sodipodi:nodetypes="csccscc"></path>
      <path id="path2095" d="m 769,252.93213 -123,146.34 -584.4802,-0.05 13.0801,49.012 h 851.9627 c 16.86,0 27.2305,-11.082 27.2305,-16.262 z" sodipodi:nodetypes="ccccscc"></path>
      <path sodipodi:nodetypes="cccccc" d="M 1975.65,1100.93 C 1759,1029 1488.8508,805 1490.22,548 L 1404,664 c 29.8409,273.62235 183,521 319.8,617.9 33.2,-47.9 111,-139 243.2,-154.9 z" id="path2108"></path>
      <path sodipodi:nodetypes="ccscccc" d="M 902,655.99 915.08,705 h 986.99 c 16.86,0 27.23,-11.08 27.23,-16.26 L 1760.1,533.44 1652,655.94 Z" id="path2110"></path>
      <path sodipodi:nodetypes="ccscc" d="m 961.49,300.5 c 56.816,91.58 98.126,197.9 124.51,316.2 71.887,70.72 202.63,-9.057 159,-138.7 C 1210,374 1089.477,322.6 972.69,296.8 Z" id="path2112"></path>
      <path sodipodi:nodetypes="cccccc" d="M 1612.48,273.3 C 1579.038,413.8 1551.747,514.9 1508,639 l 18,0.161 c 88.196,-42.54 209.304,-158.74 281.39,-252.24 14.902,11.04 44.27,-3.295 52.61,-16.921 z" id="path2114"></path>
      <path sodipodi:nodetypes="cccsccsc" d="m 1490.22,261.72 c 28.695,0.3973 67.66,-18.94 74.66,-45.84 L 1282.69,185.4 v 292.5995 c 0,271.34716 -71.9708,571.5059 -413.69,800.0005 l 29,10 c 437.9979,-138.5959 592.22,-465.04837 592.22,-693 z" id="path2116"></path>
      <path sodipodi:nodetypes="ccccssccsscccccccc" id="path2123" d="m 1643.2,1243 -95.1,91.71 H 1256.3 L 1025,1278.64 v 603.42 c 0,38.25 195.6036,22.5312 203.3,-39.04 v -16 h 330.4 v 56.02 c 0,28.04 203.3,10.03 203.3,-46.04 v -428.42 c 33.56,0 78.32,-28.04 78.32,-42.05 z m -84.58,534.82 h -330.4 V 1383.7 h 330.4 z"></path>
    
</svg>
