<?xml version="1.0" encoding="UTF-8" standalone="no"?>
<svg viewBox="0 0 2000 2000" version="1.1" xmlns="http://www.w3.org/2000/svg" xmlns:sodipodi="http://sodipodi.sourceforge.net/DTD/sodipodi-0.dtd">
	
      <path sodipodi:nodetypes="ccccscc" d="m 1764.4243,242.93213 -123,146.34 -652.5402,-0.05 13.0801,49.012 h 920.0227 c 16.86,0 27.2305,-11.082 27.2305,-16.262 z" id="path3286"></path>
      <path sodipodi:nodetypes="cccccssscccsscccc" d="m 1607.4243,702 -105.4844,91.7109 H 1289.21 l 14,49.0899 h 209.2299 V 1619 c 0,140 43,285 206,285 H 1882.21 c 112.79,0 115.79,-163 79.6772,-200 l 22.6191,-245 -20,-4 c -28.3809,109 -73,237 -130,237 h -23.4473 c -60,0 -84.997,-43.2294 -85,-98 L 1726,867.5195 c 33.56,0 78.3204,-28.0388 78.3204,-42.0488 z" id="path3289"></path>
      <path d="M 1140.21,399.832 V 711 c 0,555.204 -96,969 -359,1234 l 24,9 c 327,-127 552.5857,-520.0003 553,-1201 l 0.214,-351.766 z" id="path3294" sodipodi:nodetypes="csccscc"></path>
      <path id="path3299" d="M 481.94,876.48313 H 717.649 C 721,1068 698,1407 650.849,1650.4832 c -2.83928,14.6618 -18.49989,18.8222 -27.96,17.87 l -215.5,-21.69 2.211,28.14 c 111.4,39.94 188.3,143.1 187.2,224.9 98.42,8.252 227.69653,-29.1664 255.8,-189 C 906,1407 920,1211 920,887.10313 c 18.7,-2.854 38.84,-18.07 46.94,-34.49 l -185.4,-131.2 -108.8,106.7 H 466.3413 Z" sodipodi:nodetypes="ccsscccscccccc"></path>
      <path d="M 293,448.83213 V 702 c 0,555.2039 -89.24222,903.6374 -274,1224 l 23,-1 C 279.10818,1776.5693 504.54775,1410.473 505,744 l 0.21427,-293.76587 z" id="path3303" sodipodi:nodetypes="csccscc"></path>
      <path id="path3307" d="m 806,266.93213 -123,146.34 -624.4802,-0.05 13.0801,49.012 h 891.9627 c 16.86,0 27.2305,-11.082 27.2305,-16.262 z" sodipodi:nodetypes="ccccscc"></path>
    
</svg>
