<?xml version="1.0" encoding="UTF-8" standalone="no"?>
<svg viewBox="0 0 2000 2000" version="1.1" xmlns="http://www.w3.org/2000/svg" xmlns:sodipodi="http://sodipodi.sourceforge.net/DTD/sodipodi-0.dtd">
	
      <path sodipodi:nodetypes="ccsscccscccccc" d="M 481.94,876.48313 H 711.649 C 715,1068 692,1407 644.849,1650.4832 c -2.83928,14.6618 -18.49989,18.8222 -27.96,17.87 l -215.5,-21.69 2.211,28.14 c 111.4,39.94 188.3,143.1 187.2,224.9 98.42,8.252 227.69653,-29.1664 255.8,-189 C 900,1407 914,1211 914,887.10313 c 18.7,-2.854 44.84,-18.07 52.94,-34.49 l -191.4,-131.2 -108.8,106.7 H 466.3413 Z" id="path3438"></path>
      <path sodipodi:nodetypes="csccscc" id="path3440" d="M 293,448.83213 V 702 c 0,555.2039 -89,926 -274,1224 l 23,-1 C 254,1786 512.51388,1410.473 513,744 l 0.21427,-293.76587 z"></path>
      <path sodipodi:nodetypes="ccccscc" d="m 866,266.93213 -123,146.34 -666.4802,-0.05 13.0801,49.012 h 933.9627 c 16.86,0 27.2305,-11.082 27.2305,-16.262 z" id="path3443"></path>
      <path id="path3457" d="m 873.32142,1096.8615 167.99128,270.0361 C 1060.5995,1358.4174 1067.1035,1327 1065,1301 L 1981.4698,804.0037 1990,772 Z" sodipodi:nodetypes="cccccc"></path>
      <path id="path3460" d="M 1389.01,179 1389,1704.4678 c -10e-5,21.03 -9.6354,27.4457 -23.7109,26.3086 L 1147.1139,1706 l -1.1817,22.75 c 108.1817,31.25 193.156,112.8105 218.476,217.5576 187.5003,-14.02 227.886,-101.5996 227.887,-243.5996 l 0.01,-1451.47753 c 39.7301,0 65.0087,-21.66985 66.8087,-43.33985 z" sodipodi:nodetypes="csscccsccc"></path>
    
</svg>
