<?xml version="1.0" encoding="UTF-8" standalone="no"?>
<svg viewBox="0 0 2000 2000" version="1.1" xmlns="http://www.w3.org/2000/svg" xmlns:sodipodi="http://sodipodi.sourceforge.net/DTD/sodipodi-0.dtd">
	
      <path sodipodi:nodetypes="csscccsccc" d="m 663.7,553.1 v 1129 c 0,21.03 -10.47777,27.7332 -24.53,26.28 l -222.5,-23.009 v 22.78 C 548,1753 605,1809 639.17,1923.951 c 187.5,-14.02 223.8,-101.6 223.8,-243.6 v -1057 c 38.55,6e-5 63.08,-21.03 64.83,-42.05 z" id="rect849-6-3"></path>
      <path d="m 1682,571.9 -95.1,91.71 h -242 l -231.3,-56.07 v 620.1 c 0,38.25 203.3,15.01 203.3,-47.04 v -20 h 280.6 v 47.9 c 0,28.04 203.3,-1.97 203.3,-58.04 v -413 c 33.56,0 78.32,-28.04 78.32,-42.05 z m -365.2,140.8 h 280.6 v 179.1 h -280.6 z m 0,220.3 h 280.6 v 186.5 h -280.6 z" id="path969"></path>
      <path d="m 234.8,161.5 v 860.1 c 0,372 -45.8,673.2 -223.4,900.8 l 25.6,7.4 c 224,-138 395.06,-415.674 395.06,-896.274 v -801.9 c 38.55,6e-5 63.08,-21.03 64.83,-42.05 z" id="path927" sodipodi:nodetypes="csccsccc"></path>
      <path d="m 425.2,917.3 c 31.77,46.84 81.27,175.9 104.5,288.9 59.11,32.41 163.8,-7.038 139.3,-123.1 C 648.94,988.16 538.3,943.8 437.4,911 Z" id="dot_60-6-7"></path>
      <path d="m 150.2,585.4 c -2.371,107 -71.82,269.7 -155.2,360.1 -27.25,90.47 87.94,176.3 167.1,81.62 76.84,-91.92 58.65,-323.4 11.22,-435.7 z" id="path929"></path>
      <path d="m 929.7,874.4 c -18.21,108.7 -41.47,213.4 -77.86,328 l 12.7,9.997 c 84.95,-61.21 172.8,-145.8 233,-226.3 17.43,7.058 39.57,-11.7 45.13,-26.35 z" id="path953"></path>
      <path d="m 728.4,163.9 c 105.6,122.3 166.8,254.6 224,391.7 77.3,55.69 218.1,-10.37 165.5,-146.3 -43.02,-111.2 -203.8,-207.7 -378.5,-251 z" id="path974"></path>
      <path d="M 672.8,24.71 C 612.85,229.91 499.3,489.51 368,717.41 l 16.53,10.31 c 207,-167.6 372.9,-381.9 491,-592.5 21.03,2.649 45.67,-9.797 55.39,-34.21 z" id="path910"></path>
      <path d="m 1374,2.771 c -85.71,197.8 -244,451.029 -425.8,663.8 L 953,682.8 c 239,-96 475.2,-325.279 626.2,-528.179 25.11,3.238 45.94,-8.426 56.39,-32.53 z" id="path965" sodipodi:nodetypes="cccccc"></path>
      <path d="m 1747,1248 -95.1,91.71 h -360.5 l -235.3,-56.07 v 608.1 c 0,38.25 201.1,14.7 207.3,-47.04 v -20 h 399 v 77.9 c 0,28.04 203.3,-1.97 203.3,-58.04 v -431 c 33.56,0 78.32,-28.04 78.32,-42.05 z m -483.6,140.8 h 399 v 171.1 h -399 z m 0,212.3 h 399 v 182.5 h -399 z" id="path978"></path>
      <path d="m 1864,652.5 c 7.403,-78.04 65.33,-174.1 118.2,-196.9 l 2,-28.45 C 1854,413.7 1580.1,250.85 1522.4,154.55 l -67.24,26.13 c 37.11,170.1 283.2,433.1 408.9,471.8 z" id="path980"></path>
    
</svg>
