<?xml version="1.0" encoding="UTF-8" standalone="no"?>
<svg viewBox="0 0 2000 2000" version="1.1" xmlns="http://www.w3.org/2000/svg" xmlns:sodipodi="http://sodipodi.sourceforge.net/DTD/sodipodi-0.dtd">
	
      <path d="m 1441,272.5702 -117.1,102.71 H 439.022 L 455,424 h 861 C 1068,633 675.0222,969.65219 483,1247.5702 102,1799 629,2062 1543.25,1856.007 c 92.4961,-20.8406 135.6,-104.1348 86.05,-171.1348 l 45.84,-255.4 -18.24,-6.102 c -61.78,146.3 -141.8043,224.1 -178.9,232.2 C 986,1763 342,1751 651,1345 c 218.32538,-286.8612 561,-595 902.128,-889.902 45.872,0.4722 70.32,-34.04 70.32,-48.05 z" id="path1820" sodipodi:nodetypes="cccccsscccssccc"></path>
      <path sodipodi:nodetypes="ccscc" id="path1825" d="m 490.99994,770 c 246.249,115.0718 542.09796,302.7533 770.00006,512 173,33 237.7954,-150.6556 124,-233 C 1186,905 888.99994,799 509.60394,759.1142 Z"></path>
    
</svg>
