<?xml version="1.0" encoding="UTF-8" standalone="no"?>
<svg viewBox="0 0 2000 2000" version="1.1" xmlns="http://www.w3.org/2000/svg" xmlns:sodipodi="http://sodipodi.sourceforge.net/DTD/sodipodi-0.dtd">
	
      <path sodipodi:nodetypes="ccsscccscccccc" d="M 424.94,876.48313 H 650.649 C 654,1068 631,1407 583.849,1650.4832 c -2.83928,14.6618 -18.50078,18.831 -27.96,17.87 l -215.5,-21.69 2.211,28.14 c 111.4,39.94 188.3,143.1 187.2,224.9 98.42,8.252 227.69653,-29.1664 255.8,-189 C 839,1407 853,1211 853,887.10313 c 18.7,-2.854 38.84,-18.07 46.94,-34.49 l -185.4,-131.2 -108.8,106.7 H 409.3413 Z" id="path2153"></path>
      <path sodipodi:nodetypes="csccscc" id="path2155" d="M 252,426.83213 V 680 c 0,555.2039 -87.09701,903.6374 -240,1224 l 20,-1 C 245.84287,1754.5693 468.05125,1388.4601 464,722 l 0.21427,-293.76587 z"></path>
      <path sodipodi:nodetypes="ccccscc" d="m 749,252.93213 -123,146.34 -564.4802,-0.05 13.0801,49.012 h 831.9627 c 16.86,0 27.2305,-11.082 27.2305,-16.262 z" id="path2157"></path>
      <path d="m 1771.2,294.42 -95.1,91.71 H 1172.3 L 941,330.06 v 825.42 c 0,38.25 203.3,3.52 203.3,-39.04 v -20 h 542.4 v 60.02 c 0,28.04 203.3,10.03 203.3,-46.04 V 460 c 33.56,0 78.32,-28.04 78.32,-42.05 z m -84.58,752.82 h -542.4 V 435.12 h 542.4 z" id="path2169" sodipodi:nodetypes="ccccssccsscccccccc"></path>
      <path d="m 1318,1823.23 203.3,13.77 v -562.7 c 39.73,10e-5 73.01,-21.67 74.81,-43.34 l -278.1,-28.89 z m -453.9,-21.04 13.08,49.01 h 1079 c 16.86,0 27.23,-11.08 27.23,-16.26 l -198.2,-197.3 -119.1,164.6 z" id="path2182" sodipodi:nodetypes="ccccccccscccc"></path>
      <path sodipodi:nodetypes="ccccc" id="path2185" d="m 1314,1066.93 203.3,13.77 V 408 l -203.29,12 z"></path>
    
</svg>
