<?xml version="1.0" encoding="UTF-8" standalone="no"?>
<svg viewBox="0 0 2000 2000" version="1.1" xmlns="http://www.w3.org/2000/svg" xmlns:sodipodi="http://sodipodi.sourceforge.net/DTD/sodipodi-0.dtd">
	
      <path id="path2567" d="m 1891.85,1782.03 c -434.3404,-97.428 -820.7,-404.03 -820.7,-867.5 l -58.1697,166.2661 C 1042,1509 1400,1885 1700,1969 c 33,-72 118,-143 183.2,-160.9 z" sodipodi:nodetypes="cccccc"></path>
      <path id="path2569" d="M 861.65,564.33 862.2,926 C 862.90251,1387.9577 653,1738 152,1946 l 27,15 c 584,-93 892.15,-508 892.15,-986.47 V 648.51 c 42.02,0 70.66,-33.68 70.68,-51.51 z" sodipodi:nodetypes="csccsccc"></path>
      <path id="path2572" d="m 262.08,1150 h 1506.55 c 16.85,0 27.23,-11.08 27.23,-16.26 L 1603,977 1492.56,1100.94 244,1100.99 Z" sodipodi:nodetypes="csccccc"></path>
      <path sodipodi:nodetypes="ccscc" id="path2574" d="M 747.725,54.7 C 808.81697,122.68759 904.61236,287.95673 959,433 1054,491 1191.9837,399 1110,257 1042.4648,140.02563 909,68 758.425,46.1 Z"></path>
      <path sodipodi:nodetypes="csccccc" d="m 184.08,526 h 1653.99 c 16.85,0 27.23,-11.08 27.23,-16.26 L 1672.44,353 1562,476.94 166,476.99 Z" id="path2576"></path>
      <path sodipodi:nodetypes="ccscc" id="path2585" d="m 380.74,685.32 c 81.24,93.47 146.4,213.6 202.1,350.7 75.84,69.14 239.46373,-6.8626 173.5,-145.6 C 703.84,780 537.84,705 391.74,679.72 Z"></path>
      <path sodipodi:nodetypes="cccccc" id="path2587" d="m 1330.84,642.12 c -35.88,125.4 -102.3,283.2 -178.2,420.8 l 16.76,11.48 c 132,-65.51 275.4,-173.2 366.6,-280.4 15.18,1.712 45.94,-8.426 56.39,-32.53 z"></path>
    
</svg>
