<?xml version="1.0" encoding="UTF-8" standalone="no"?>
<svg viewBox="0 0 2000 2000" version="1.1" xmlns="http://www.w3.org/2000/svg" xmlns:sodipodi="http://sodipodi.sourceforge.net/DTD/sodipodi-0.dtd">
	
      <path id="path2272" d="m 1721.5874,544.48 -99.1,91.71 H 396.96505 l -235.3,-56.07 v 1226.5 c 0,48.24 207.44416,21.8199 207.3,-55.04 V 685.28 H 1632.9874 v 915.5 c 0,21.03 -15.21,27.48 -23.71,26.31 l -150,-18.54 -0.713,22.75 c 79.4356,26.2795 136.4356,109.2795 149.8,211.3 187.5,-14.02 231.8,-101.6 231.8,-243.6 V 710 c 33.56,0 78.32,-28.04 78.32,-42.05 z" sodipodi:nodetypes="ccccssccsccccsccc"></path>
      <path sodipodi:nodetypes="sscccssscccs" d="m 1134,1773.3 c -2e-4,36.98 207.3,15.05 207.3,-58.04 V 250.65 c 39.73,1e-4 65.01,-21.67 66.81,-43.34 l -274.1,-28.89 z m -476,0 c -2.3e-4,36.98 207.3,15.05 207.3,-58.04 V 258.65 c 39.73,1e-4 65.01,-21.67 66.81,-43.34 l -274.1,-28.89 z" id="path2278"></path>
    
</svg>
