<?xml version="1.0" encoding="UTF-8" standalone="no"?>
<svg viewBox="0 0 2000 2000" version="1.1" xmlns="http://www.w3.org/2000/svg" xmlns:sodipodi="http://sodipodi.sourceforge.net/DTD/sodipodi-0.dtd">
	
      <path id="path3676" d="m 509,1087.7 c 93.48271,143.2626 190.09533,338.8274 239,552.3 72.17999,68.2976 228.39854,22.8377 181,-182 -36.61765,-158.2469 -237.17873,-334.3185 -409,-379 z" sodipodi:nodetypes="ccscc"></path>
      <path d="m 91.0573,996.99 13.08,47.01 H 1004.97 c 16.85,0 27.23,-11.08 27.23,-16.26 L 840,875 737,996.94 Z" id="path3678" sodipodi:nodetypes="ccscccc"></path>
      <path sodipodi:nodetypes="csccsccc" d="M 436.4144,315 V 626 C 436.4144,1225 325,1657 17,1969 l 25,9 C 429,1784 657.6394,1421 657.6394,687 V 401.855 c 42.02,0 70.66,-33.68 70.68,-51.51 z" id="path3680"></path>
      <path d="m 134.6,563.61467 c 64.03966,94.41797 110.60285,204.03272 140.34138,325.99872 81.02728,72.91154 200.69254,-8.28708 157.45121,-142.99817 C 400.82087,648.25887 268.83072,586.39953 146.00656,559.80001 Z" id="path3682" sodipodi:nodetypes="ccscc"></path>
      <path d="m 733.59,535 c -37.86,146.5 -70.46,252.6 -127.6,385 l 28.61,-3.49 c 101,-55.79 226.3,-174.5 301.4,-278.3 21,2 46.45,-9.4241 53,-24 z" id="path3684" sodipodi:nodetypes="cccccc"></path>
      <path sodipodi:nodetypes="ccccscc" d="m 1788.4243,270.93213 -123,146.34 -722.5402,-0.05 13.0801,49.012 h 990.0227 c 16.86,0 27.2305,-11.082 27.2305,-16.262 z" id="path3699"></path>
      <path d="M 1160.21,427.832 V 727 c 0,555.204 -96,969 -359,1234 l 24,9 c 327,-127 552.5809,-520.0003 553,-1201 l 0.214,-339.766 z" id="path3702" sodipodi:nodetypes="csccscc"></path>
      <path sodipodi:nodetypes="ccsscccscccccc" d="m 1337.94,944.48313 h 345.709 C 1687,1136 1664,1475 1616.849,1718.4832 c -2.8393,14.6618 -18.4999,18.8222 -27.96,17.87 l -215.5,-21.69 2.211,28.14 c 111.4,39.94 188.3,143.1 187.2,224.9 98.42,8.252 227.6965,-29.1664 255.8,-189 C 1872,1475 1886,1279 1886,955.10313 c 18.7,-2.854 38.84,-18.07 46.94,-34.49 l -185.4,-131.2 -108.8,106.7 h -316.3987 z" id="path3710"></path>
    
</svg>
