<?xml version="1.0" encoding="UTF-8" standalone="no"?>
<svg viewBox="0 0 2000 2000" version="1.1" xmlns="http://www.w3.org/2000/svg" xmlns:sodipodi="http://sodipodi.sourceforge.net/DTD/sodipodi-0.dtd">
	
      <path id="path2389" d="m 893.8483,1948.88 c 0,36.98 212.1517,15.05 212.1517,-58.04 V 1226.23 L 893.8583,1222 Z" sodipodi:nodetypes="csccc"></path>
      <path sodipodi:nodetypes="csccccc" d="M 289.15,1246.5 H 1713.7 c 16.85,0 27.23,-11.08 27.23,-16.26 l -188.86,-184.74 -120.44,149.94 -1160.56,0.05 z" id="path2391"></path>
      <path sodipodi:nodetypes="csccccc" d="m 162.64,1563 h 1693.99 c 16.85,0 27.23,-11.08 27.23,-16.26 L 1693,1364 l -118.44,147.94 -1430,0.05 z" id="path2394"></path>
      <path sodipodi:nodetypes="ccccssccssccccccccccccc" id="path2401" d="m 1418.5,155.1 -95.1,91.71 H 693.7 L 462.4,190.74 v 850.1 c 0,38.25 203.3,17.82 203.3,-35.04 v -44 H 1334 v 61.9 c 0,28.04 203.3,10.03 203.3,-46.04 v -657 c 33.56,0 78.32,-28.04 78.32,-42.05 z M 665.7,295.9 H 1334 V 567 H 665.7 Z m 0,322.3 H 1334 V 910.7 H 665.7 Z"></path>
    
</svg>
