<?xml version="1.0" encoding="UTF-8" standalone="no"?>
<svg viewBox="0 0 2000 2000" version="1.1" xmlns="http://www.w3.org/2000/svg" xmlns:sodipodi="http://sodipodi.sourceforge.net/DTD/sodipodi-0.dtd">
	
      <path d="m 1662.58,178.18 -95.1,91.71 H 465.68 l -231.3,-56.07 v 1667.42 c 0,38.25 203.3,27.01 203.3,-35.04 v -20 h 1140.4 v 56.02 c 0,28.04 203.3,10.03 203.3,-46.04 V 343.76 c 33.56,0 78.32,-28.04 78.32,-42.05 z M 1578,1785 H 437.6 V 318.88 H 1578 Z" id="path3024" sodipodi:nodetypes="ccccssccsscccccccc"></path>
      <path sodipodi:nodetypes="cccccc" d="M 1570,1442 C 1351,1364 1096.15,1131.6132 1096.15,759.53 L 1028.2,959 c 8,302 166.8,581 289.95,663.97 C 1349,1560 1440,1489 1561.35,1468.07 Z" id="path3026"></path>
      <path sodipodi:nodetypes="csccsccc" d="M 886.65,434.33 887.2,735 C 887.83493,1082.0978 778,1396 466,1599 l 23,14 c 419,-109 607.15,-482.0193 607.15,-853.47 V 518.51 c 42.02,0 74.66,-33.68 74.68,-51.51 z" id="path3028"></path>
      <path sodipodi:nodetypes="csccccc" d="M 563.4927,848 H 1462.63 c 16.85,0 27.23,-11.08 27.23,-16.26 L 1305,657 1196.56,800.94 545.4127,800.99 Z" id="path3030"></path>
    
</svg>
