<?xml version="1.0" encoding="UTF-8" standalone="no"?>
<svg viewBox="0 0 2000 2000" version="1.1" xmlns="http://www.w3.org/2000/svg" xmlns:sodipodi="http://sodipodi.sourceforge.net/DTD/sodipodi-0.dtd">
	
      <path d="m 1653,178 -96,92 H 476 L 244,214 v 1667 c 0,38 223,24 204,-35 v -20 h 1120 v 56 c 0,28 203,10 203,-46 V 344 c 34,0 79,-28 79,-42 z m -85,1603 H 448 V 319 h 1120 z" id="path1209" sodipodi:nodetypes="ccccscccsscccccccc"></path>
      <path d="m 805,395 c 45,44 116,151 156,245 130,46 209,-75 134,-161 -60,-69 -195,-86 -280,-93 z" id="path1228" sodipodi:nodetypes="ccscc"></path>
      <path id="path1234" d="m 518,717 h 988 c 16,0 27,-11 27,-16 L 1340,544 1240,670 H 500 Z" sodipodi:nodetypes="csccccc"></path>
      <path sodipodi:nodetypes="csccccc" d="m 573,1067 h 868 c 16,0 27,-11 27,-16 L 1275,894 1175,1020 H 555 Z m 0,0 h 868 c 16,0 27,-11 27,-16 L 1275,894 1175,1020 H 555 Z" id="path1220"></path>
      <path sodipodi:nodetypes="csccsccc" d="m 877,752 v 110 c 2,347 -110,626 -405,822 l 31,14 c 402,-123 583,-440 583,-811 v -50 c 42,0 71,-34 71,-52 z" id="path1218"></path>
      <path sodipodi:nodetypes="cccccc" d="m 1544,1529 c -219,-78 -458,-270 -458,-642 l -68,199 c 8,302 151,541 274,624 25,-56 111,-139 243,-155 z" id="path1215"></path>
    
</svg>
