<?xml version="1.0" encoding="UTF-8" standalone="no"?>
<svg viewBox="0 0 2000 2000" version="1.1" xmlns="http://www.w3.org/2000/svg" xmlns:sodipodi="http://sodipodi.sourceforge.net/DTD/sodipodi-0.dtd">
	
      <path id="path1553" d="m 405.52,1162.06 h 1190.55 c 16.85,0 27.23,-11.08 27.23,-16.26 L 1422.44,957.06 1302,1111 l -914.56,0.05 z" sodipodi:nodetypes="csccccc"></path>
      <path id="path1557" d="M 172.01,1785 H 1826 c 16.85,0 27.23,-11.08 27.23,-16.26 L 1652.37,1580 l -120.44,153.94 -1378,0.05 z" sodipodi:nodetypes="csccccc"></path>
      <path d="M 448.4,380.3 C 519,508.9 574.83161,644.3917 626,813.9 c 69.66985,85.48362 247.33287,14.84487 186,-155 -52,-144 -210,-248 -352.6,-284.2 z" id="path1564" sodipodi:nodetypes="ccscc"></path>
      <path d="m 1271.84,341.1 c -35.88,154.24083 -102.3,348.33335 -178.2,517.58006 L 1110.4,866 C 1255,768 1415,611 1497,492.98 c 23,2.02 45.94,-8.426 56.39,-32.53 z" id="path1567" sodipodi:nodetypes="cccccc"></path>
    
</svg>
