<?xml version="1.0" encoding="UTF-8" standalone="no"?>
<svg viewBox="0 0 2000 2000" version="1.1" xmlns="http://www.w3.org/2000/svg" xmlns:sodipodi="http://sodipodi.sourceforge.net/DTD/sodipodi-0.dtd">
	
      <path sodipodi:nodetypes="cccssc" id="path2144" d="m 766,287 c 32,-6 56,-27 65,-48 L 562,204 394,738 c -18,57 204,56 228,-17 z"></path>
      <path sodipodi:nodetypes="ccsccccscccccc" id="path1420" d="m 575,675 h 833 c -32,355 -68,577 -159,856 -4,14 -18,20 -28,18 l -215,-22 2,28 c 111,40 188,143 187,225 99,8 208,-42 256,-197 71,-230 123,-490 159,-897 19,-3 39,-18 47,-35 L 1472,520 1363,627 H 568 Z"></path>
      <path d="m 850,655 c -34,430 -218,869 -565,1118 l 21,10 C 737,1621 997,1251 1073,661 Z" id="path1424" sodipodi:nodetypes="ccccc"></path>
      <path id="path1422" d="m 82,1852 13,49 h 1843 c 13,0 22,-11 22,-16 l -219,-205 -141,172 z" sodipodi:nodetypes="ccscccc"></path>
    
</svg>
