<?xml version="1.0" encoding="UTF-8" standalone="no"?>
<svg viewBox="0 0 2000 2000" version="1.1" xmlns="http://www.w3.org/2000/svg" xmlns:sodipodi="http://sodipodi.sourceforge.net/DTD/sodipodi-0.dtd">
	
      <path sodipodi:nodetypes="ccccccccccccc" d="m 1454.8809,294.0494 -95.1016,91.709 H 657.98047 L 426.67969,329.688 v 703.252 h 203.2207 V 434.7486 H 1370.3008 V 1032.94 h 203.3789 V 459.6295 c 33.56,0 78.3203,-28.0408 78.3203,-42.0508 z" id="path2982"></path>
      <path sodipodi:nodetypes="csccccc" d="M 88.01,1049 H 1910 c 16.85,0 27.23,-11.08 27.23,-16.26 L 1744.37,848 l -116.44,149.94 -1558,0.05 z" id="path2984"></path>
      <path id="path3000" d="m 1510,1158.4767 -95.1,91.71 H 603 l -231.3,-56.07 v 716.1 c 0,47.3058 203.3,27.5859 203.3,-39.04 v -12 h 850.4 v 43.9 c 0,39.12 203.3,18.5 203.3,-50.04 v -529 c 33.56,0 78.32,-28.04 78.32,-42.05 z m -84.58,659.5 h -850.4 v -518.8 h 850.4 z" sodipodi:nodetypes="ccccssccsscccccccc"></path>
    
</svg>
