<?xml version="1.0" encoding="UTF-8" standalone="no"?>
<svg viewBox="0 0 2000 2000" version="1.1" xmlns="http://www.w3.org/2000/svg" xmlns:sodipodi="http://sodipodi.sourceforge.net/DTD/sodipodi-0.dtd">
	
      <path id="path3701" d="M 1960,1748.63 C 1723,1682 1470.5298,1464 1469.15,1117.13 l -67.95,199.47 c 8,302 165.8,562.4 385.8,657 17,-67.6 93,-178.5359 169,-198.9 z" sodipodi:nodetypes="cccccc"></path>
      <path id="path3703" d="m 1239.65,952.95 0.55,139.65 C 1241.6359,1457.177 1106,1769 809,1956 l 27,15 c 359,-88 633.15,-438 633.15,-853.87 v -80 c 42.02,0 70.66,-33.68 70.68,-51.51 z" sodipodi:nodetypes="csccsccc"></path>
      <path sodipodi:nodetypes="csccsccc" d="m 1242.2771,141.6 v 80 c 0,349.10194 -99.1792,633.82343 -367.2771,842.4 l 23,12 c 315,-86 591.502,-447.60126 591.502,-824.4 v -23.145 c 42.498,-8.455 70.66,-33.68 70.6801,-51.51 z" id="path3705"></path>
      <path sodipodi:nodetypes="ccscc" d="m 1385,548 c 87.5189,96.68675 198.0858,271.50822 257,450 120,52 241,-52 172,-187 -63.8277,-124.88029 -201.0406,-238.18401 -416,-305 z" id="path3707"></path>
      <path sodipodi:nodetypes="ccscccc" id="path3709" d="m 874.29,1214.59 13.08,49.01 h 1013.8 c 16.86,0 27.23,-11.08 27.23,-16.26 l -198.2,-177.3 -119.1,144.6 z"></path>
      <path sodipodi:nodetypes="ccscccc" id="path3711" d="m 916.99,422.55 13.08,49.01 h 932 c 16.86,0 27.23,-11.08 27.23,-16.26 L 1691.1,278 1572,422.6 Z"></path>
      <path sodipodi:nodetypes="cccccssccsscccc" d="M 548.88,1595.563 H 400.28 V 571.80299 c 39.73,10e-5 65.01,-21.67 66.81,-43.34 l -276.1,-28.89 V 1749.833 c 0,38.25 209.3,15.01 209.3,-47.04 v -58 h 148.6 v 45.9 c 0,28.04 209.3,-1.972 209.3,-58.04 V 577.79299 c 39.73,10e-5 65.01,-21.67 66.81,-43.34 l -276.1,-28.89 z" id="path3736"></path>
      <path sodipodi:nodetypes="ccscccc" d="m 23.41,865.42299 13.08,49.01 h 946.89 c 16.86,0 27.23,-11.08 27.23,-16.26 l -168.154,-161.3 -101.046,128.6 z" id="path3738"></path>
    
</svg>
