<?xml version="1.0" encoding="UTF-8" standalone="no"?>
<svg viewBox="0 0 2000 2000" version="1.1" xmlns="http://www.w3.org/2000/svg" xmlns:sodipodi="http://sodipodi.sourceforge.net/DTD/sodipodi-0.dtd">
	
      <path d="M 1970,1658 C 1715.5,1450.3 1570.5,937.2 1576.7,296 l -68.76,245.9 c 4.8,704.7 112.6,1205 250.9,1350 31.62,-107.4 90.98,-187.1 207.1,-210.2 z" id="path1331"></path>
      <path d="m 1029,948.7 c 47.21,52.88 126.5,210.2 149.4,357.2 86.19,45.82 195.9,13.41 179.1,-133 C 1341.09,1030.6 1161.9,953 1041.3,939 Z" id="path1333"></path>
      <path d="m 1361,207.6 c 0,848.1 -75.6,1350 -384.8,1639 l 18.08,13.73 c 369.1,-184 588.2,-597 588.2,-1576 42.02,0 70.66,-30.56 70.66,-45.84 z" id="path1335"></path>
      <path d="m 949.2,207.6 c -0.3394,790.5 -71.4,1330 -367.5,1645 l 24.33,13.73 c 377,-197.5 549.7,-679.9 560.7,-1582 34.86,0.3381 67.16,-24.75 70.67,-45.84 z" id="path1337"></path>
      <path d="m 728.7,482.6 -95.1,91.71 h -336 L 66.3,518.24 v 796.5 c 0,48.24 203.3,21.82 203.3,-55.04 V 623.4 h 374.5 v 401.5 c 0,21.03 -15.21,27.48 -23.71,26.31 l -134,-18.54 -0.713,22.75 c 88.2,25.13 121.6,71.11 133.8,211.3 187.5,-14.02 227.8,-101.6 227.8,-243.6 v -375 c 33.56,0 78.32,-28.04 78.32,-42.05 z" id="path1341"></path>
      <path d="m 335.6,1860 c -2e-5,36.98 203.3,15.05 203.3,-58.04 v -1526 c 39.73,1e-4 65.01,-21.67 66.81,-43.34 l -270.1,-28.89 z" id="path1343"></path>
    
</svg>
