<?xml version="1.0" encoding="UTF-8" standalone="no"?>
<svg viewBox="0 0 2000 2000" version="1.1" xmlns="http://www.w3.org/2000/svg" xmlns:sodipodi="http://sodipodi.sourceforge.net/DTD/sodipodi-0.dtd">
	
      <path id="path3371" d="m 1781,1531 -123,146.3396 -794.4081,-0.051 13.0801,49.0117 1061.8906,2e-4 c 16.86,0 27.2305,-11.0817 27.2305,-16.2617 z" sodipodi:nodetypes="ccccscc"></path>
      <path sodipodi:nodetypes="ccccscc" d="M 1701,449.6604 1578,596 940.9199,595.949 954,644.9607 l 904.5626,2e-4 c 16.86,0 27.2305,-11.0817 27.2305,-16.2617 z" id="path3377"></path>
      <path sodipodi:nodetypes="cccccc" d="m 31.74,1606.26 89.26,313.9 c 20.77,-3.536 38.91,-30.39 39,-58.16 L 1055.906,1573.93 1064,1542 Z" id="path3381"></path>
      <path id="path3383" d="M 731.1992,409.43945 630.0996,495.15039 H 438.4004 L 201.0996,439.08008 V 1662 l 209.3008,-20 V 544.24023 H 640.6992 V 1616 L 850,1596 V 569 c 33.56,0 78.3203,-28.04078 78.3203,-42.05078 z" sodipodi:nodetypes="ccccccccccccc"></path>
    
</svg>
