<?xml version="1.0" encoding="UTF-8" standalone="no"?>
<svg viewBox="0 0 2000 2000" version="1.1" xmlns="http://www.w3.org/2000/svg" xmlns:sodipodi="http://sodipodi.sourceforge.net/DTD/sodipodi-0.dtd">
	
      <path id="path1412" d="m 1763,1074 -103,126.3396 -818.4081,-0.051 13.0801,49.0117 h 412.6308 l -0.012,679.4786 c -10e-5,28.0402 203.3011,-1.9709 203.3011,-58.0389 v -621.4395 h 447.9707 c 16.86,0 27.2305,-11.0817 27.2305,-16.2617 z" sodipodi:nodetypes="ccccccscscc"></path>
      <path id="path1414" d="M 1904,962 C 1715,908.6944 1467.22,682 1467.22,492 L 1396,610 c 28,257.9995 149,448 256.15,532.97 21.0839,-40.5789 111,-139 243.2,-154.9 z" sodipodi:nodetypes="cccccc"></path>
      <path id="path1416" d="M 910.39,540.99 923.47,590 h 950.5 c 16.86,0 27.23,-11.08 27.23,-16.26 L 1732,418.44 1623.9,540.94 Z" sodipodi:nodetypes="ccscccc"></path>
      <path id="path1418" d="m 934.49,185.5 c 56.8156,91.58 98.1262,197.9 124.51,316.2 71.8869,70.72 202.6298,-9.05704 159,-138.7 C 1183,259 1062.4773,207.6 945.69,181.8 Z" sodipodi:nodetypes="ccscc"></path>
      <path id="path1421" d="M 1605.48,156.3 C 1572.0381,296.8 1544.7469,397.9 1501,522 l 18,0.161 c 88.1961,-42.54 209.3042,-158.74 281.39,-252.24 C 1820,275 1844.66,266.626 1853,253 Z" sodipodi:nodetypes="cccccc"></path>
      <path id="path1423" d="m 1467.22,178.72 c 28.6946,0.3973 67.66,-18.94 74.66,-45.84 L 1263.69,102.4 V 354.9995 C 1263.69,653 1194.1113,914.31013 857,1128 l 26,16 c 436.5039,-129.4341 584.22,-439.11688 584.22,-652 z" sodipodi:nodetypes="cccsccsc"></path>
      <path id="path1438" d="M 568.88,1435.563 H 394.28 V 531.80299 c 39.73,10e-5 65.01,-21.67 66.81,-43.34 l -270.1,-28.89 V 1589.833 c 0,38.25 203.3,15.01 203.3,-47.04 v -58 h 174.6 v 45.9 c 0,28.04 203.3,-1.972 203.3,-58.04 V 537.79299 c 39.73,10e-5 65.01,-21.67 66.81,-43.34 l -270.1,-28.89 z" sodipodi:nodetypes="cccccssccsscccc"></path>
      <path id="path1440" d="m 23.41,825.42299 13.08,49.01 h 976.89 c 16.86,0 27.23,-11.08 27.23,-16.26 l -168.154,-161.3 -101.046,128.6 z" sodipodi:nodetypes="ccscccc"></path>
    
</svg>
