<?xml version="1.0" encoding="UTF-8" standalone="no"?>
<svg viewBox="0 0 2000 2000" version="1.1" xmlns="http://www.w3.org/2000/svg" xmlns:sodipodi="http://sodipodi.sourceforge.net/DTD/sodipodi-0.dtd">
	
      <path sodipodi:nodetypes="ccsscccscccccc" d="M 817.7257,866.48313 H 1391.109 C 1386.46,1128 1364.46,1401 1328.309,1646.4832 c -2.1758,14.7748 -18.5,18.8221 -27.96,17.87 l -215.5,-21.69 2.211,28.14 c 111.4,39.94 188.3,143.1 187.2,224.9 98.42,8.252 233.7057,-28.2255 255.8,-189 39.4,-286.7032 55.4,-528.7032 63.4,-829.60007 18.7,-2.854 38.84,-18.07 46.94,-34.49 l -185.4,-131.2 -108.8,106.7 H 802.127 Z" id="path2291"></path>
      <path sodipodi:nodetypes="csccscc" id="path2293" d="M 632.7857,404.83213 V 670 c 0,555.2039 -159.00711,947 -425.7857,1224 l 24,2 C 591.29648,1732 844.31963,1377.0001 844.7857,712 L 845,406.23413 Z"></path>
      <path sodipodi:nodetypes="ccccscc" d="m 1633,230.93213 -123,146.34 -1312,-0.05 13.0801,49.012 h 1579.4825 c 16.86,0 27.2305,-11.082 27.2305,-16.262 z" id="path2295"></path>
    
</svg>
