<?xml version="1.0" encoding="UTF-8" standalone="no"?>
<svg viewBox="0 0 2000 2000" version="1.1" xmlns="http://www.w3.org/2000/svg" xmlns:sodipodi="http://sodipodi.sourceforge.net/DTD/sodipodi-0.dtd">
	
      <path sodipodi:nodetypes="cccccc" id="path3389" d="M 1845,884.5 C 1161,770 701,466.50839 492,298 l -16.21,19 c 186.8,219.84155 619.21,612 1126,760.92 51.32,-87.13219 124,-141.8 234.8,-161.8 z"></path>
      <path id="path3391" d="M 1342,195.2 C 1105.1,515 713,876 139,1064.1 l 13.26,18.27 c 580.74,-67.37 1047,-354.9 1403,-748.6 51.23,4.99 66.93,-10.08 77.38,-34.19 z" sodipodi:nodetypes="cccccc"></path>
      <path id="path3393" d="m 710.6,123.2 c 58.41,52.64 150,180.6 202,292.9 C 1038.4,452.27 1137,353.03 1060,249.5 988.92,153.99 826.9,124.2 721.3,114.6 Z"></path>
      <path d="m 1435.7109,1477.9566 -880.01168,-0.051 13.08008,49.0098 879.2207,4e-4 z" id="path3403" sodipodi:nodetypes="ccccc"></path>
      <path d="m 897.60938,1164.9121 -0.01,687.0879 203.30082,0.01 v -687.0938 z" id="path3405" sodipodi:nodetypes="ccccc"></path>
      <path id="path3407" d="m 1410,1037.44 -95.1,91.71 H 703 l -231.3,-56.07 v 856.1 c 0,47.3058 203.3,27.5859 203.3,-39.04 v -14 h 650.4 v 43.9 c 0,39.12 203.3,18.5 203.3,-50.04 v -667 c 33.56,0 78.32,-28.04 78.32,-42.05 z m -84.58,797.5 h -650.4 v -656.8 h 650.4 z" sodipodi:nodetypes="ccccssccsscccccccc"></path>
    
</svg>
