<?xml version="1.0" encoding="UTF-8" standalone="no"?>
<svg viewBox="0 0 2000 2000" version="1.1" xmlns="http://www.w3.org/2000/svg" xmlns:sodipodi="http://sodipodi.sourceforge.net/DTD/sodipodi-0.dtd">
	
      <path id="path3353" d="M 283.12,1089.99 296.2,1139 H 1084 c 16.86,0 27.23,-11.08 27.23,-16.26 l -178.2,-177.3 -119.1,144.6 z" sodipodi:nodetypes="ccscccc"></path>
      <path id="path3355" d="m 144.83,1663.81 89.26,271.9 c 18,-9.16 36,-28.16 39,-58.16 l 813.906,-248.07 8.094,-31.93 z" sodipodi:nodetypes="cccccc"></path>
      <path sodipodi:nodetypes="ccccc" d="M 248.99625,529.43084 V 1741.9309 l 203.29883,-35.0411 V 579 Z" id="path3357"></path>
      <path sodipodi:nodetypes="cccccccccccccssccc" d="m 1617.6719,350.45872 -95.0996,91.71094 H 1055 l 16,48.98828 h 462.0918 V 1078.0329 L 1143,1078.0039 1159,1127 h 374.0918 v 644.2793 h -672 l 16,49.1993 h 656.0801 V 1856.5 c 0,41.7243 203.3008,20.2596 203.3008,-46.041 V 516.0388 c 33.56,0 78.3203,-28.04078 78.3203,-42.05078 z" id="path2899-1"></path>
      <path id="path2368-1" d="M 1039,475 876.77602,233.56584 405.32483,573.12213 431.70741,615.60801 971.5877,469.64089 C 989.90858,484.0396 1027.591,485.32966 1039,475 Z" sodipodi:nodetypes="cccccc"></path>
    
</svg>
