<?xml version="1.0" encoding="UTF-8" standalone="no"?>
<svg viewBox="0 0 2000 2000" version="1.1" xmlns="http://www.w3.org/2000/svg" xmlns:sodipodi="http://sodipodi.sourceforge.net/DTD/sodipodi-0.dtd">
	
      <path sodipodi:nodetypes="cssccc" d="m 1259.5,194.07031 0.4903,1717.23049 c 0.018,61.7395 213.0097,39.3501 213.0097,-58.041 V 278.25 c 42.02,0 70.6617,-33.67977 70.6817,-51.50977 z" id="path3432"></path>
      <path sodipodi:nodetypes="ccscccc" d="m 183,972.09961 13.08,49.00999 h 907.8 c 16.86,0 27.23,-11.08 27.23,-16.26 l -198.2,-177.29999 -119.1,144.6 z" id="path3444"></path>
      <path sodipodi:nodetypes="cccccc" d="m 182.74,1406.3596 89.26,267.9 c 18,-9.16 36,-28.16 39,-58.16 l 855.906,-244.07 8.094,-31.93 z" id="path3450"></path>
      <path id="path3452" d="m 952.65039,415 -124,149.09961 -304.44531,-0.0508 -231.29883,-56.06836 v 976.50005 l 203.29883,-35.0411 V 613.13867 l 615.31442,-0.0781 c 16.86,-0.002 27.2305,-11.08172 27.2305,-16.26172 z" sodipodi:nodetypes="cccccccscc"></path>
      <path d="m 1373.6,863.8 c 148.2934,106.65481 285.6734,269.923 379.4,439.2 154,56 249,-98 151,-223 -88.3828,-112.73323 -270.8596,-180.98134 -519.8,-221.6 z" id="path2626" sodipodi:nodetypes="ccscc"></path>
    
</svg>
