<?xml version="1.0" encoding="UTF-8" standalone="no"?>
<svg viewBox="0 0 2000 2000" version="1.1" xmlns="http://www.w3.org/2000/svg" xmlns:sodipodi="http://sodipodi.sourceforge.net/DTD/sodipodi-0.dtd">
	
      <path id="path2205" d="m 259.9,1259.99 13.08,49.01 h 1499 c 16.86,0 27.23,-11.08 27.23,-16.26 l -198.2,-157.3 -119.1,124.6 z" sodipodi:nodetypes="ccscccc"></path>
      <path id="path2209" d="m 1922,1789.21 c -513.6979,-42.9729 -782,-332.09 -829,-681.09 l -51,118 c 26,358 332.95,667 646,750.8 51.4,-94.93 108,-139.8 224.85,-160.8 z" sodipodi:nodetypes="cccccc"></path>
      <path id="path2211" d="M 883.8,925.9 883,1048 c -2.79115,426 -239.15,726 -741.88,921.31 l 23.31,16.73 C 726,1911 1067.7804,1541.5603 1093,1108.12 l 6,-103.12 c 35.31,-5.481 61.72,-33.94 63,-55 z" sodipodi:nodetypes="csccsccc"></path>
      <path sodipodi:nodetypes="ccscccc" d="m 324.775,347.195 13.08,49.01 h 1339 c 16.86,0 27.23,-11.08 27.23,-16.26 l -198.2,-179.3 -119.1,146.6 z" id="path2225"></path>
      <path sodipodi:nodetypes="csccsccc" d="M 883.8,85.98 883,175.2 c -3.6034,401.8696 -246,748 -741.88,954.19 l 23.31,16.73 C 715,1060.08 1067.7804,701.6403 1093,268.2 l 6,-103.12 c 35.31,-5.481 61.72,-33.94 63,-55 z" id="path2236"></path>
      <path id="path1908" d="M 1916,949.29 C 1402.3021,906.3171 1140,617.2 1093,268.2 l -51,118 c 26,358 326.95,667 640,750.8 51.4,-94.93 116.9844,-141.3625 224.85,-160.8 z" sodipodi:nodetypes="cccccc"></path>
    
</svg>
