<?xml version="1.0" encoding="UTF-8" standalone="no"?>
<svg viewBox="0 0 2000 2000" version="1.1" xmlns="http://www.w3.org/2000/svg" xmlns:sodipodi="http://sodipodi.sourceforge.net/DTD/sodipodi-0.dtd">
	
      <path sodipodi:nodetypes="ccccsccsccscccccsccc" d="m 1448,195 -95,92 H 665 L 428,231 v 207 c 0,766 -66,1149 -368,1512 l 25,7 C 500,1726 631,1304 635,697 l 2,-361 h 735 v 353 c 0,638 151,1044 367,1223 113,94 204,-31 173,-113 l 23,-270 -22,-15 c -36,181 -68,211 -100,177 C 1690,1557 1567,1242 1567,632 V 348 c 34,0 52,-15 52,-29 z" id="path1304"></path>
    
</svg>
