<?xml version="1.0" encoding="UTF-8" standalone="no"?>
<svg viewBox="0 0 2000 2000" version="1.1" xmlns="http://www.w3.org/2000/svg" xmlns:sodipodi="http://sodipodi.sourceforge.net/DTD/sodipodi-0.dtd">
	
      <path sodipodi:nodetypes="cccccssccsscccc" d="M 1446.88,994.3595 H 558.19 V 509.58952 c 39.73,1e-4 65.01,-27.67 66.81,-49.34 l -278.1,-26.89 v 685.76998 c 0,38.25 211.3,-4.18 211.3,-47.04 v -32 h 888.69 v 61.9 c 0,28.04 211.3,-1.972 211.3,-58.04 V 498.17952 c 39.73,10e-5 65.01,-25.67 66.81,-47.34 l -278.1,-28.89 z" id="path1634"></path>
      <path sodipodi:nodetypes="csccsccc" d="M 920.4201,141.77 V 1155 c 0,330.089 -149.16964,614.5435 -437.4201,805.77 l 22,13 C 833.99909,1857.9693 1119.6202,1616 1119.6202,1182 V 212.29 c 38.55,1e-4 63.08,-21.03 64.83,-42.05 z" id="path1637"></path>
      <path sodipodi:nodetypes="ccscc" id="path1643" d="m 498,1275 c 246.24884,115.0718 542.0978,302.7533 770,512 173,33 237.7954,-150.6556 124,-233 -199,-144 -496,-250 -875.39588,-289.8858 z"></path>
    
</svg>
