<?xml version="1.0" encoding="UTF-8" standalone="no"?>
<svg viewBox="0 0 2000 2000" version="1.1" xmlns="http://www.w3.org/2000/svg" xmlns:sodipodi="http://sodipodi.sourceforge.net/DTD/sodipodi-0.dtd">
	
      <path id="path2246" d="m 285.9,578.87 13.08,49.01 h 1419 c 16.86,0 27.23,-11.08 27.23,-16.26 l -198.2,-177.3 -119.1,144.6 z" sodipodi:nodetypes="ccscccc"></path>
      <path sodipodi:nodetypes="ccscc" id="path2248" d="M 398.9,154.2 C 480.14,247.67 545.3,367.8 601,504.9 676.84,574.04 840.46373,498.03742 774.5,359.3 722,248.88 556,173.88 409.9,148.6 Z"></path>
      <path id="path2250" d="M 1908,1056.09 C 1394.3021,1013.1171 1125,748 1071,431 l -50,96 c 42,376 339.95,633 653,716.8 51.4,-94.93 108,-139.8 224.85,-160.8 z" sodipodi:nodetypes="cccccc"></path>
      <path id="path2252" d="M 881.8,48.78 865,388 c -15.25166,307.95637 -276,625 -737.88,844.19 l 23.31,16.73 C 673,1122 1054.6896,843 1071,431 l 12,-303.12 c 35.31,-5.481 61.72,-33.94 63,-55 z" sodipodi:nodetypes="csccsccc"></path>
      <path sodipodi:nodetypes="cccccc" id="path2254" d="m 1349,107 c -35.88,125.4 -102.3,283.2 -178.2,420.8 l 16.76,11.48 c 132,-65.51 275.4,-173.2 366.6,-280.4 15.18,1.712 45.94,-8.426 56.39,-32.53 z"></path>
      <path sodipodi:nodetypes="cccccc" d="M 1910,1805.7065 C 1172.7,1689.6674 727,1401.929 514,1231 l -29.47,11 c 193.4,224.6547 613.9,614.2842 1166,757.0865 48.47,-81.1556 137.5749,-141.8486 250.8,-161.8 z" id="path2266"></path>
      <path sodipodi:nodetypes="cccccc" d="M 1293,1156.7065 C 1056.1,1467.1707 679.5,1806.1766 90,1975 l 17.26,19 c 593.4,-51.8386 1043,-318.0323 1399,-698.7235 51.23,4.8251 66.93,-10.08 77.38,-34.19 z" id="path2268"></path>
      <path d="m 728.44368,1091.4436 c 58.41,52.64 150,180.6 202,292.9 125.80002,36.17 224.40002,-63.07 147.40002,-166.6 -71.08,-95.51 -233.10002,-125.3 -338.70002,-134.9 z" id="path2270"></path>
    
</svg>
