<?xml version="1.0" encoding="UTF-8" standalone="no"?>
<svg viewBox="0 0 2000 2000" version="1.1" xmlns="http://www.w3.org/2000/svg" xmlns:sodipodi="http://sodipodi.sourceforge.net/DTD/sodipodi-0.dtd">
	
      <path sodipodi:nodetypes="csccccc" d="m 262.08,626 h 1506.55 c 16.85,0 27.23,-11.08 27.23,-16.26 L 1603,441 1492.56,576.94 244,576.99 Z" id="path2865"></path>
      <path sodipodi:nodetypes="cccccc" id="path2869" d="M 1952.605,1766.58 C 1237.0741,1694.8492 653.73616,1239.4564 392,897 l -15,59 c 300,489 733.8404,869.5147 1332.395,1004 39.605,-76 131.105,-138 232.8,-163.8 z"></path>
      <path id="path2873" d="M 1086.8,170 C 968.37995,1025.1969 740,1586.6044 56,1955 l 22,15 c 752,-177.921 1108.2885,-788.6242 1246.42,-1697 42.7704,-7.00795 60.3,-38.41 61.58,-59.47 z" sodipodi:nodetypes="cccccc"></path>
      <path id="path2875" d="M 354.57999,1369.2865 C 523.46666,1265.3524 680.4693,1102.9479 795,939 c 28.4287,2.5151 68.60893,-15.5183 76.65769,-44.2448 L 572.28794,799.29321 C 542.5366,904.1473 441.2247,1159.7552 328.20196,1366.5571 Z" sodipodi:nodetypes="cccccc"></path>
    
</svg>
