<?xml version="1.0" encoding="UTF-8" standalone="no"?>
<svg viewBox="0 0 2000 2000" version="1.1" xmlns="http://www.w3.org/2000/svg" xmlns:sodipodi="http://sodipodi.sourceforge.net/DTD/sodipodi-0.dtd">
	
      <path sodipodi:nodetypes="cccccc" id="path1175" d="m 1080,167 291,35 c -5,25 -30,47 -69,48 C 1185,969 853,1585 219,1859 l -19,-19 C 760,1413 984,880 1080,167 Z"></path>
      <path sodipodi:nodetypes="ccsscccscccccc" d="m 351,753 h 1139 c -18,295 -64,614 -125,862 -3,14 -20,19 -30,18 l -215,-22 2,28 c 111,40 182,143 181,225 99,8 220,-40 260,-197 67,-260 110,-565 129,-903 19,-3 39,-18 47,-35 L 1566,598 1457,705 H 335 Z" id="path1177"></path>
      <path sodipodi:nodetypes="ccscc" d="m 480,201 c 57,81 137,247 190,411 98,44 212,-25 189,-159 C 836,319 639,219 501,196 Z" id="path1179"></path>
    
</svg>
