<?xml version="1.0" encoding="UTF-8" standalone="no"?>
<svg viewBox="0 0 2000 2000" version="1.1" xmlns="http://www.w3.org/2000/svg" xmlns:sodipodi="http://sodipodi.sourceforge.net/DTD/sodipodi-0.dtd">
	
      <path d="M 130.52,1834.99 143.6,1886 h 1723 c 16.86,0 27.23,-11.08 27.23,-16.26 l -198.2,-189.3 -127.1,154.6 z" id="path2456" sodipodi:nodetypes="ccscccc"></path>
      <path d="m 893.1,1499.2 203.3,1.957 v -945.3 l -203.3,0.6918 z m 640.3,-1069.1 -95.1,99.71 H 568.6 L 337.3,473.74 v 1122.1 c 0,41.9492 203.3,30.0137 203.3,-35.04 v -40 h 908.3 v 61.9 c 0,31.6242 203.3,13.4651 203.3,-46.04 v -933 c 33.56,0 78.32,-28.04 78.32,-42.05 z M 540.6,578.9 h 908.3 V 988 H 540.6 Z m 0,460.3 h 908.3 v 430.5 H 540.6 Z" id="path2458" sodipodi:nodetypes="cccccccccssccssccccccccccccc"></path>
    
</svg>
