<?xml version="1.0" encoding="UTF-8" standalone="no"?>
<svg viewBox="0 0 2000 2000" version="1.1" xmlns="http://www.w3.org/2000/svg" xmlns:sodipodi="http://sodipodi.sourceforge.net/DTD/sodipodi-0.dtd">
	
      <path sodipodi:nodetypes="ccccccccscccccscc" d="m 1454.8105,1138.5703 -119.0996,146.5996 -960.01168,-0.051 13.08008,49.0098 h 508.83008 l -0.01,531.0879 -781.90039,-0.027 13.08008,49.0097 H 1885.7791 c 16.86,0 27.2305,-11.0797 27.2305,-16.2597 l -198.1993,-179.2989 -119.0996,146.5996 -494.8105,-0.017 v -531.0938 h 524.8789 c 16.86,0 27.2305,-11.0798 27.2305,-16.2598 z" id="path2004"></path>
      <path id="path2007" d="m 1450,183.7 -95.1,91.71 H 663 L 431.7,219.34 v 858.1 c 0,47.3058 203.3,27.5859 203.3,-39.04 v -28 h 730.4 v 43.9 c 0,39.12 203.3,18.5 203.3,-50.04 v -655 c 33.56,0 78.32,-28.04 78.32,-42.05 z m -84.58,785.5 H 635.02 V 324.4 h 730.4 z" sodipodi:nodetypes="ccccssccsscccccccc"></path>
    
</svg>
