<?xml version="1.0" encoding="UTF-8" standalone="no"?>
<svg viewBox="0 0 2000 2000" version="1.1" xmlns="http://www.w3.org/2000/svg" xmlns:sodipodi="http://sodipodi.sourceforge.net/DTD/sodipodi-0.dtd">
	
      <path d="M 190.38002,1067 C 777.78002,960.52081 1224.38,691.6872 1559.38,281.68 c 29.34,0 62.98,-24.53 64.1,-30.82 l -203,-150.9 -140,125.7 H 488.38002 l 9.42,50.34 H 1285 C 1040.8,601.15382 659.10002,856.65908 172.00002,1047 Z" id="path1764" sodipodi:nodetypes="cccccccccc"></path>
      <path id="path1768" d="m 992.381,1358 v 299 c 0,224 93.619,260 285.619,260 h 541.762 c 69,0 133,-103 63,-184 l 22.619,-245 -20,-4 c -28.381,109 -73,237 -130,237 H 1306 c -88,0 -109.9638,-49 -110,-123 l -0.08,-163.6 c 32.42,0.677 63.66,-18.939 70.66,-45.839 z" sodipodi:nodetypes="cssscccsssccc"></path>
      <path sodipodi:nodetypes="ccscc" id="path1771" d="M 661.43002,406.783 C 863.54773,546.53162 1098.423,736.21785 1263,942 1371.2647,981.99424 1499.4395,863.3633 1386,739 1251,591 1005,465 678.21102,391.305 Z"></path>
      <path sodipodi:nodetypes="cccccccccc" id="path1778" d="m 96,1939 c 524.73187,-125.8408 919.2325,-411.6505 1217,-813.32 26.1681,0 62.98,-24.53 64.1,-30.82 l -203,-150.9 -140,125.7 H 525 l 9.42,50.34 h 492.2 C 797,1450 508,1700 69,1922 Z"></path>
      <path d="m 1403,1175.8 c 61.5015,67.1131 115.7958,183.2 160,328.2 82,68.9131 221,10.9131 181.5,-108 -42.6889,-128.5132 -191,-198 -329.2,-229.9 z" id="path1780" sodipodi:nodetypes="ccscc"></path>
    
</svg>
