<?xml version="1.0" encoding="UTF-8" standalone="no"?>
<svg viewBox="0 0 2000 2000" version="1.1" xmlns="http://www.w3.org/2000/svg" xmlns:sodipodi="http://sodipodi.sourceforge.net/DTD/sodipodi-0.dtd">
	
      <path d="m 333.1,928.5 -10.07,7.344 c 33.71,38.82 76.7,144.4 105.7,252.5 77.38,34.46 173.8,-14.53 134.6,-124 -30.46,-85.12 -133.8,-125.8 -230.2,-135.8 z" id="use1075" sodipodi:nodetypes="cccccc"></path>
      <path sodipodi:nodetypes="ccccscccccscccccsccc" d="m 642.4,249.9 -95.1,91.71 H 381.6 L 150.3,285.54 v 245.3 c 0,643.2 -29.18,993.2 -147.4,1365 l 24.3,2.39 c 182.5,-149.4 323.9,-501.2 324.2,-1172 l 2.198,-335.9 h 204.2 v 478.8 c 0,704.4 347.3,998.6 1233,1026 94.77,2.891 139.6,-105.6 90.05,-172.6 l 57.84,-255.4 -18.24,-6.102 c -61.78,146.3 -163,228.9 -200.9,227.2 -634.6,-27.18 -959,-204.1 -959,-834.3 v -432.5 c 33.56,0 78.32,-34.04 78.32,-48.05 z" id="path1033"></path>
      <path d="m 323.1,553.6 c 33.71,38.82 76.7,144.4 105.7,252.5 77.38,34.46 173.8,-14.53 134.6,-124 C 532.94,596.98 429.6,556.3 333.2,546.3 Z" id="path1042" sodipodi:nodetypes="ccccc"></path>
      <path d="m 1235,1325 203.3,1.957 v -965.3 l -203.3,0.6918 z m 420.3,-1081 -95.1,91.71 H 1130.5 L 899.2,279.64 v 1142 c 0,38.25 203.3,27.01 203.3,-35.04 v -40 h 468.3 v 113.9 c 0,45.0558 203.3,28.2737 203.3,-46.04 v -1005 c 33.56,0 78.32,-28.04 78.32,-42.05 z m -84.58,1056 h -468.3 V 385.2 h 468.3 z" id="path1064" sodipodi:nodetypes="cccccccccssccsscccccccc"></path>
      <path d="m 767.2,798.5 13.08,47.01 h 1193 c 13.32,0 21.52,-11.08 21.52,-16.26 l -154.7,-177.3 -89.84,146.6 z" id="path1053" sodipodi:nodetypes="ccscccc"></path>
    
</svg>
