<?xml version="1.0" encoding="UTF-8" standalone="no"?>
<svg viewBox="0 0 2000 2000" version="1.1" xmlns="http://www.w3.org/2000/svg" xmlns:sodipodi="http://sodipodi.sourceforge.net/DTD/sodipodi-0.dtd">
	
      <path sodipodi:nodetypes="ccccssccsccccsccc" d="m 777,531 -95,92 H 322 L 91,567 v 797 c 0,48 204,21 203,-55 V 672 h 399 v 402 c 0,21 -15,27 -24,26 l -134,-18 -1,22 c 89,25 122,71 134,212 188,-14 228,-102 228,-244 V 697 c 34,0 78,-28 78,-42 z" id="path1089"></path>
      <path sodipodi:nodetypes="cscccc" d="m 384,1889 c 0,37 204,15 204,-58 V 268 c 39,0 65,-21 66,-43 L 384,196 Z" id="path1091"></path>
      <path sodipodi:nodetypes="ccscccc" d="m 942,314 13,49 h 964 c 13,0 22,-11 22,-16 L 1749,174 1635,314 Z" id="path1097"></path>
      <path sodipodi:nodetypes="ccccsccsccsscccsccc" id="path1101" d="m 1639,442 -95,92 h -214 l -231,-56 v 409 c 0,523 -33,806 -228,1012 l 26,3 c 316,-152 405,-383 405,-873 V 583 h 253 v 1064 c 0,21 -15,27 -24,26 l -185,-23 -1,27 c 88,25 165,77 185,216 188,-14 228,-102 228,-244 V 608 c 34,0 78,-29 78,-43 z"></path>
      <path id="path1103" d="m 922,980 13,49 h 1039 c 13,0 22,-11 22,-16 l -161,-159 -98,126 z" sodipodi:nodetypes="ccscccc"></path>
    
</svg>
