<?xml version="1.0" encoding="UTF-8" standalone="no"?>
<svg viewBox="0 0 2000 2000" version="1.1" xmlns="http://www.w3.org/2000/svg" xmlns:sodipodi="http://sodipodi.sourceforge.net/DTD/sodipodi-0.dtd">
	
      <path d="m 371,1388 191,2 V 614 l -191,1 z M 735,497 640,588 H 310 L 79,532 v 953 c 0,38 203,21 203,-35 v -40 h 369 v 28 c 0,28 203,10 203,-46 V 662 c 34,0 78,-28 78,-42 z m -84,872 H 282 V 637 h 369 z" id="path1183" sodipodi:nodetypes="cccccccccssccsscccccccc"></path>
      <path sodipodi:nodetypes="csccccc" d="m 921,737 h 970 c 17,0 27,-11 27,-16 L 1732,553 1609,688 H 903 Z" id="path1173"></path>
      <path sodipodi:nodetypes="csccsccc" d="m 1232,114 v 275 c 1,674 -116,1169 -502,1523 l 17,17 c 499,-226 706,-743 706,-1515 V 198 c 42,0 71,-33 71,-51 z" id="path1171"></path>
      <path sodipodi:nodetypes="cccccc" d="M 1976,1730 C 1713,1549 1447,1056 1453,414 l -69,246 c 5,704 203,1126 380,1286 34,-87 115,-165 208,-192 z" id="path1178"></path>
    
</svg>
