<?xml version="1.0" encoding="UTF-8" standalone="no"?>
<svg viewBox="0 0 2000 2000" version="1.1" xmlns="http://www.w3.org/2000/svg" xmlns:sodipodi="http://sodipodi.sourceforge.net/DTD/sodipodi-0.dtd">
	
      <path sodipodi:nodetypes="ccscc" id="path1474" d="M 747.725,114.7 C 808.81697,182.68759 904.61236,347.95673 959,493 1054,551 1192,468 1119,326 1057.2449,205.87373 909,128 758.425,106.1 Z"></path>
      <path sodipodi:nodetypes="csccccc" d="m 144.08,586 h 1733.99 c 16.85,0 27.23,-11.08 27.23,-16.26 L 1712.44,393 1602,536.94 126,536.99 Z" id="path1476"></path>
      <path id="path1513" d="m 540,1207.24 c 81.24,100.8 165.2,238.4 207.7,388.6 C 842,1678 1009.7422,1590.9318 929,1447 860,1324 704,1232 551,1198.54 Z" sodipodi:nodetypes="ccscc"></path>
      <path id="path1516" d="m 1933.825,1746.03 c -249,-98.6833 -495.7,-445.03 -495.7,-819.5 L 1366,1146 c 8,302 116.458,651.6247 315.975,781 24.984,-55.4864 111,-139 243.2,-154.9 z" sodipodi:nodetypes="cccccc"></path>
      <path id="path1518" d="m 1216.625,662 0.55,240 c 0.948,413.6752 -91,771.4128 -374,1005 l 23,7 c 396,-145.3603 571.95,-547.0273 571.95,-987.47 V 746.18 c 42.02,0 70.66,-33.68 70.68,-51.51 z" sodipodi:nodetypes="csccsccc"></path>
      <path id="path1520" d="m 1036.255,996.825 h 741.1373 c 16.85,0 27.23,-11.08 27.23,-16.26 l -184.86,-172.74 -108.44,141.94 -493.1473,0.05 z" sodipodi:nodetypes="csccccc"></path>
      <path d="m 214.2323,949.815 13.08,47.01 H 982.145 c 16.85,0 27.23,-11.08 27.23,-16.26 l -176.6927,-150.4 -98.5073,119.6 z" id="path1522" sodipodi:nodetypes="ccscccc"></path>
      <path sodipodi:nodetypes="csccsccc" d="M 477.5893,654.65 V 838 c 0,515 -135.5893,839 -420.4143,1074 l 23,12 C 456,1794 698.8143,1405.5487 698.8143,897 V 741.505 c 42.02,0 70.6601,-33.68 70.68,-51.51 z" id="path1524"></path>
    
</svg>
