<?xml version="1.0" encoding="UTF-8" standalone="no"?>
<svg viewBox="0 0 2000 2000" version="1.1" xmlns="http://www.w3.org/2000/svg" xmlns:sodipodi="http://sodipodi.sourceforge.net/DTD/sodipodi-0.dtd">
	
      <path sodipodi:nodetypes="cccccssccsscccc" d="M 967.69,1121.18 H 419 V 596.41 c 39.73,1e-4 65.01,-27.67 66.81,-49.34 l -278.1,-26.89 v 725.77 c 0,44.1441 211.3,7.05 211.3,-47.04 v -32 H 967.7 v 61.9 c 0,32.1293 211.3,16.3428 211.3,-58.04 V 579 c 39.73,10e-5 65.01,-25.67 66.81,-47.34 l -278.1,-28.89 z" id="path1993"></path>
      <path sodipodi:nodetypes="csccsccc" d="M 602.4201,281.77 V 1135 c 0,330.089 -104.4201,614.5435 -348.7101,805.77 l 22,13 C 569,1837.9693 805.6202,1596 805.6202,1162 V 352.29 c 38.55,10e-5 63.08,-21.03 64.83,-42.05 z" id="path1995"></path>
      <path sodipodi:nodetypes="cssccc" id="path2001" d="m 1442,120.48 v 1814 c 0,67.36 203.2,15.23 203.2,-49.48 V 191 c 38.55,6e-5 59.08,-21.03 60.83,-42.05 z"></path>
    
</svg>
