<?xml version="1.0" encoding="UTF-8" standalone="no"?>
<svg viewBox="0 0 2000 2000" version="1.1" xmlns="http://www.w3.org/2000/svg" xmlns:sodipodi="http://sodipodi.sourceforge.net/DTD/sodipodi-0.dtd">
	
      <path sodipodi:nodetypes="ccscc" id="path2062" d="m 622,702.05 c 66.88512,83.4748 136.00963,197.54602 171,321.95 78,63 233.9794,-21.3241 169,-142 C 906,778 758,733 633,696.45 Z"></path>
      <path sodipodi:nodetypes="cccccsc" id="path2072" d="M 826.6,450.05 534.4,416.37 C 534.4,697.80105 401.69189,1018.3572 82,1187 l 28.83,7 c 368.7,-77.0262 643.8,-388.64505 644.5,-691.11 46.75,-2.10311 71.27,-35.98 71.27,-52.82 z"></path>
      <path sodipodi:nodetypes="cccccc" id="path2074" d="M 1928,1047.05 C 1682,976 1399,776 1404.1,508.95 l -68.76,42.1 C 1334,851 1476,1110 1676.14,1227.95 c 25.94,-55.67 111,-139 243.2,-154.9 z"></path>
      <path sodipodi:nodetypes="ccccccc" id="path2076" d="m 822,1160 c 327.8631,-72.1132 566.9,-327.68891 566.9,-609 l 15.28,-42.1 c 42.02,0 70.66,-33.68 70.66,-50.52 l -292.2,-33.68 c 0,265.23406 -116.418,563.3326 -377.64,722.3 z"></path>
      <path sodipodi:nodetypes="ccscccc" id="path2080" d="m 86.48,337.95 13.08,49.01 h 1803 c 16.86,0 27.23,-11.08 27.23,-16.26 L 1731.59,193.4 1612.49,338 Z"></path>
      <path id="path2073" d="M 176.89,597.99 189.97,647 h 811 c 16.86,0 27.23,-11.08 27.23,-16.26 L 862.5497,488 767,598.04 Z" sodipodi:nodetypes="ccscccc"></path>
      <path sodipodi:nodetypes="ccscccc" d="m 1023.3403,597.99 13.08,49.01 h 785 c 16.86,0 27.23,-11.08 27.23,-16.26 L 1683,488 1587.4503,598.04 Z" id="path2077"></path>
      <path sodipodi:nodetypes="ccscccc" d="m 300.7,1392.95 13.08,49.01 h 1299 c 16.86,0 27.23,-11.08 27.23,-16.26 l -198.2,-177.3 -119.1,144.6 z" id="path2081"></path>
      <path sodipodi:nodetypes="cccccc" d="m 1953,1807 c -246,-23 -663,-150 -849.62,-402.6 L 1031,1405 c 117,269 378,509 666.05,589.71 45.95,-79.71 127.427,-139.289 246.8,-160.8 z" id="path2083"></path>
      <path sodipodi:nodetypes="cccccc" d="M 1169.2,1192.06 870,1153 C 743.91166,1538.7036 487.56178,1810.9085 71,1977 l 20,9 c 476,-52 842,-355 1016.62,-744.24 39.071,-3.605 60.3,-28.64 61.58,-49.7 z" id="path2086"></path>
      <path sodipodi:nodetypes="ccscc" d="m 808.3,24.5 c 29.04514,44.3951 75.09952,170.31957 97.7,266.5 110.103,92.5046 265,0 192,-127 C 1043.7202,69.56798 907.9455,25.733865 819,16 Z" id="path2092"></path>
    
</svg>
