<?xml version="1.0" encoding="UTF-8" standalone="no"?>
<svg viewBox="0 0 2000 2000" version="1.1" xmlns="http://www.w3.org/2000/svg" xmlns:sodipodi="http://sodipodi.sourceforge.net/DTD/sodipodi-0.dtd">
	
      <path sodipodi:nodetypes="cccccc" d="M 900.49,286.308 C 777,654 442,1162 24.69,1479 L 47,1499 C 458.75614,1332.6238 845.3948,935.8798 1114.15,426.638 c 39.2774,7.52135 66.93,-10.08 77.38,-34.19 z" id="path2532"></path>
      <path sodipodi:nodetypes="cccccc" d="M 1986.99,1279.58 C 1644,1179 1297,803 1081,427 l -48,17 c 117,340 413,863 698.11,1023 33.89,-85 136.3695,-142.104 246.8,-160.8 z" id="path2535"></path>
      <path d="m 257,1801.05 13.08,47.01 h 1458.3827 c 16.85,0 27.23,-11.08 27.23,-16.26 L 1553,1639.4 1420.4927,1801 Z" id="path2537" sodipodi:nodetypes="ccscccc"></path>
      <path sodipodi:nodetypes="cccccc" id="path2542" d="m 890.99,1833.93 203.3,-0.23 V 1233 c 40.71,0 65.01,-21.67 66.81,-43.34 L 891,1160.77 Z"></path>
    
</svg>
