<?xml version="1.0" encoding="UTF-8" standalone="no"?>
<svg viewBox="0 0 2000 2000" version="1.1" xmlns="http://www.w3.org/2000/svg" xmlns:sodipodi="http://sodipodi.sourceforge.net/DTD/sodipodi-0.dtd">
	
      <path id="path3242" d="m 382.8,700 v 1009 c 0,21.03 -10.47912,27.7462 -24.53,26.28 l -222.5,-23.009 v 22.78 c 131.33,44.849 188.33,100.849 222.5,215.8 187.5,-14.02 223.8,-101.6 223.8,-243.6 v -937 c 38.55,10e-5 63.08,-21.03 64.83,-42.05 z" sodipodi:nodetypes="csscccsccc"></path>
      <path sodipodi:nodetypes="ccscc" id="path3244" d="M 455.5,328.8 C 570.29286,475.29773 636.82054,633.77401 699,798 774,849 908,779 860,632 815.32339,495.17789 648.12338,376.47108 466.5,323.2 Z"></path>
      <path sodipodi:nodetypes="cccccc" id="path3246" d="M 399.9,189.61 C 323.21199,414.26949 183.78285,719.34646 10,948 l 18,7 C 276,807 467.00742,561.30384 610.63,310.12 c 24.69762,2.91895 45.67,-9.797 55.39,-34.21 z"></path>
      <path d="M 42.725,1004.7 C 85.889,1066.0384 153.573,1215.1431 192,1346 295,1406 389,1311 347,1200 304.342,1087.2602 165,1027 53.425,996.1 Z" id="path3254" sodipodi:nodetypes="ccscc"></path>
      <path d="m 702.142,957.8079 c -42.156,147.7235 -78.155,260.0036 -130.469,389.878 l 17.979,3.1236 c 83.875,-38.5721 226.196,-157.1059 310.223,-258.8571 24.724,-0.2229 46.216,-5.3804 55.125,-18.641 z" id="path3256" sodipodi:nodetypes="cccccc"></path>
      <path sodipodi:nodetypes="cccccssccsscccc" d="m 1495.51,921.6 h -254.6 V 269.7 c 39.73,1e-4 65.01,-21.67 66.81,-43.34 l -270.1,-28.89 v 832.4 c 0,38.25 203.3,0.3573 203.3,-47.04 v -12 h 254.6 v 65.9 c 0,28.04 203.3,-1.972 203.3,-58.04 v -709 c 39.73,10e-5 45.01,-21.67 46.81,-43.34 l -250.1,-28.89 z" id="path3276"></path>
      <path d="m 836.99,497.2 13.08,49.01 h 1103 c 16.86,0 27.23,-11.08 27.23,-16.26 L 1782.1,352.65 1663,497.25 Z" id="path3278" sodipodi:nodetypes="ccscccc"></path>
      <path sodipodi:nodetypes="cccccssccsscccc" id="path3280" d="m 1515.51,1816.1747 h -294.6 v -621.9 c 39.73,10e-5 65.01,-21.67 66.81,-43.34 l -270.1,-28.89 v 802.4 c 0,38.25 203.3,0.3573 203.3,-47.04 v -12 h 294.6 v 65.9 c 0,28.04 203.3,-1.972 203.3,-58.04 v -679 c 39.73,10e-5 65.01,-21.67 66.81,-43.34 l -270.1,-28.89 z"></path>
      <path sodipodi:nodetypes="ccscccc" id="path3283" d="m 776.99,1391.7747 13.08,49.01 h 1177 c 16.86,0 27.23,-11.08 27.23,-16.26 l -198.2,-177.3 -119.1,144.6 z"></path>
    
</svg>
