<?xml version="1.0" encoding="UTF-8" standalone="no"?>
<svg viewBox="0 0 2000 2000" version="1.1" xmlns="http://www.w3.org/2000/svg" xmlns:sodipodi="http://sodipodi.sourceforge.net/DTD/sodipodi-0.dtd">
	
      <path sodipodi:nodetypes="ssccs" d="m 897.8483,1948.88 c -5e-4,36.98 203.9337,15.0497 204.1517,-58.04 V 1220.23 L 897.8583,1216 Z" id="path3291"></path>
      <path id="path3293" d="M 289.15,1240.5 H 1713.7 c 16.85,0 27.23,-11.08 27.23,-16.26 l -188.86,-184.74 -120.44,149.94 -1160.56,0.05 z" sodipodi:nodetypes="csccccc"></path>
      <path id="path3295" d="m 162.64,1561 h 1693.99 c 16.85,0 27.23,-11.08 27.23,-16.26 L 1693,1362 l -118.44,147.94 -1430,0.05 z" sodipodi:nodetypes="csccccc"></path>
      <path d="m 1444.5,155.1 -95.1,91.71 H 667.7 L 436.4,190.74 v 850.1 c 0,38.25 200.89975,17.7655 203.3,-35.04 v -24 H 1360 v 41.9 c 0,28.04 203.3,10.03 203.3,-46.04 v -657 c 33.56,0 78.32,-28.04 78.32,-42.05 z M 639.7,295.9 H 1360 V 581 H 639.7 Z m 0,336.3 H 1360 V 930.7 H 639.7 Z" id="path3297" sodipodi:nodetypes="ccccssccssccccccccccccc"></path>
      <path id="path3301" d="M 897.8483,961.88 1102,963.84 V 257.23 L 897.8583,253 Z" sodipodi:nodetypes="ccccc"></path>
    
</svg>
