<?xml version="1.0" encoding="UTF-8" standalone="no"?>
<svg viewBox="0 0 2000 2000" version="1.1" xmlns="http://www.w3.org/2000/svg" xmlns:sodipodi="http://sodipodi.sourceforge.net/DTD/sodipodi-0.dtd">
	
      <path id="path2563" d="m 1291.73,673.749 v 1043 c 0,21.03 -10.4777,27.7332 -24.53,26.28 l -222.5,-23.009 v 22.78 c 131.33,44.849 188.33,100.849 222.5,215.8 C 1454.7,1944.58 1491,1857 1491,1715 V 744 c 38.55,10e-5 63.08,-21.03 64.83,-42.05 z" sodipodi:nodetypes="csscccsccc"></path>
      <path sodipodi:nodetypes="cccccc" id="path2566" d="M 1326,117.621 C 1227.7696,342.70982 1046.357,620.87477 838,863 l 21,6 c 256.5567,-110.78589 510.1077,-365.3784 672.2,-599.529 26.9546,3.73674 45.94,-8.426 56.39,-32.53 z"></path>
      <path sodipodi:nodetypes="cccccc" id="path2568" d="m 1974.2,644.45 2,-28.45 C 1840,576 1558,399 1474.4,269.4 l -67.24,26.13 C 1449,483 1690.36,802.63 1816.03,841.34 1840,764 1908,672 1974.2,644.45 Z"></path>
      <path d="m 946.85,980.7476 c 43.164,61.3384 110.848,210.4431 149.275,341.3 103,60 197,-35 155,-146 -42.658,-112.7398 -182,-173 -293.575,-203.9 z" id="path2570" sodipodi:nodetypes="ccscc"></path>
      <path d="m 1638.267,933.8555 c -42.156,147.7235 -78.155,260.0036 -130.469,389.878 l 17.979,3.1236 C 1609.652,1288.285 1751.973,1169.7512 1836,1068 c 24.724,-0.2229 46.216,-5.3804 55.125,-18.641 z" id="path2577" sodipodi:nodetypes="cccccc"></path>
      <path id="path2598" d="M 540.88,1499.563 H 400.28 V 575.80299 c 39.73,10e-5 65.01,-21.67 66.81,-43.34 l -270.1,-28.89 V 1641.833 c 0,38.25 203.3,15.01 203.3,-47.04 v -46 h 140.6 v 45.9 c 0,51.3687 203.3,15.7266 203.3,-58.04 V 581.79299 c 39.73,10e-5 65.01,-21.67 66.81,-43.34 l -270.1,-28.89 z" sodipodi:nodetypes="cccccssccsscccc"></path>
      <path id="path2604" d="m 9.41,907.42299 13.08,49.01 h 942.89 c 16.86,0 27.23,-11.08 27.23,-16.26 l -168.154,-161.3 -101.046,128.6 z" sodipodi:nodetypes="ccscccc"></path>
    
</svg>
