<?xml version="1.0" encoding="UTF-8" standalone="no"?>
<svg viewBox="0 0 2000 2000" version="1.1" xmlns="http://www.w3.org/2000/svg" xmlns:sodipodi="http://sodipodi.sourceforge.net/DTD/sodipodi-0.dtd">
	
      <path d="m 379.8,140.48 v 1798 c 0,67.36 203.2,15.23 203.2,-49.48 V 211 c 38.55,6e-5 59.08,-21.03 60.83,-42.05 z" id="path3069" sodipodi:nodetypes="cssccc"></path>
      <path sodipodi:nodetypes="ccccssccsscccccccc" id="path3071" d="m 800.8,1082.42 -95.1,91.71 H 273.9 L 42.6,1118.06 v 587.6 c 0,38.25 203.3,27.0103 203.3,-35.04 v -26 h 470.4 v 56.02 c 0,28.04 203.3,10.03 203.3,-46.04 V 1248 c 33.56,0 78.32,-28.04 78.32,-42.05 z m -84.58,513 h -470.4 v -372.3 h 470.4 z"></path>
      <path d="m 774.8,353.42 -95.1,91.71 H 299.9 L 68.6,389.06 v 581.6 c 0,38.25 203.3,27.0103 203.3,-35.04 v -20 h 418.4 v 56.02 c 0,28.04 203.3,10.03 203.3,-46.04 V 519 c 33.56,0 78.32,-28.04 78.32,-42.05 z m -84.58,513 h -418.4 v -372.3 h 418.4 z" id="path3087" sodipodi:nodetypes="ccccssccsscccccccc"></path>
      <path sodipodi:nodetypes="cccccc" d="M 1996,1754.63 C 1759,1688 1512.5298,1470 1511.15,1123.13 l -67.95,199.47 c 8,302 159.8,562.4 379.8,657 17,-67.6 93,-178.5359 169,-198.9 z" id="path3093"></path>
      <path sodipodi:nodetypes="csccsccc" d="m 1289.65,958.95 0.55,139.65 C 1291.6359,1463.177 1178,1775 881,1962 l 27,15 c 359,-88 603.15,-438 603.15,-853.87 v -80 c 42.02,0 70.66,-33.68 70.68,-51.51 z" id="path3095"></path>
      <path id="path3101" d="m 1298.2771,147.6 v 80 c 0,349.10194 -103.1792,633.82343 -371.2771,842.4 l 23,12 c 315,-86 587.502,-447.60126 587.502,-824.4 v -23.145 c 42.02,0 70.66,-33.68 70.6801,-51.51 z" sodipodi:nodetypes="csccsccc"></path>
      <path id="path3106" d="m 1437,554 c 87.5189,96.68675 198.0858,271.50822 257,450 120,52 241,-52 172,-187 -63.8277,-124.88029 -201.0406,-238.18401 -416,-305 z" sodipodi:nodetypes="ccscc"></path>
      <path d="m 1000.29,1220.59 13.08,49.01 h 953.8 c 16.86,0 27.23,-11.08 27.23,-16.26 l -198.2,-177.3 -119.1,144.6 z" id="path3121" sodipodi:nodetypes="ccscccc"></path>
      <path d="m 978.99,428.55 13.08,49.01 h 922 c 16.86,0 27.23,-11.08 27.23,-16.26 L 1743.1,284 1624,428.6 Z" id="path3123" sodipodi:nodetypes="ccscccc"></path>
    
</svg>
