<?xml version="1.0" encoding="UTF-8" standalone="no"?>
<svg viewBox="0 0 2000 2000" version="1.1" xmlns="http://www.w3.org/2000/svg" xmlns:sodipodi="http://sodipodi.sourceforge.net/DTD/sodipodi-0.dtd">
	
      <path sodipodi:nodetypes="ccscc" d="m 549.42166,897.64319 c 81.24,100.8 165.2,238.40001 207.7,388.60001 94.3,82.16 262.04224,-4.9082 181.3,-148.84 -69,-123 -225,-215.00001 -378,-248.46001 z" id="path2993"></path>
      <path sodipodi:nodetypes="cccccc" d="m 1981.825,1444.93 c -249,-98.6833 -543.7,-513.03 -543.7,-887.5 l -67.95,199.47 c 8,302 160.283,739.6247 359.8,869 24.984,-55.4864 111,-139 243.2,-154.9 z" id="path2995"></path>
      <path sodipodi:nodetypes="csccsccc" d="m 1216.625,278.9 0.55,254 c 0.8779,405.44301 -113,828.0613 -396,1057 l 23,13 c 396,-143.2994 593.95,-611.2717 593.95,-1045.47 V 363.08 c 42.02,0 70.66,-33.68 70.68,-51.51 z" id="path2997"></path>
      <path id="path2999" d="M 477.5893,285.55 V 468.9 C 477.5893,1010 313,1404 35.175,1655.9 l 23,10 C 416.15378,1531.8855 698.8143,1114 698.8143,527.9 V 372.405 c 42.02,0 70.6601,-33.68 70.68,-51.51 z" sodipodi:nodetypes="csccsccc"></path>
      <path d="m 237,1827.05 13.08,47.01 h 1524.3827 c 16.85,0 27.23,-11.08 27.23,-16.26 L 1605,1671.4 1486.4927,1827 Z" id="path3001" sodipodi:nodetypes="ccscccc"></path>
    
</svg>
