<?xml version="1.0" encoding="UTF-8" standalone="no"?>
<svg viewBox="0 0 2000 2000" version="1.1" xmlns="http://www.w3.org/2000/svg" xmlns:sodipodi="http://sodipodi.sourceforge.net/DTD/sodipodi-0.dtd">
	
      <path sodipodi:nodetypes="cccccc" id="path1946" d="M 914.5,26.185 C 704,325.62613 410,660.09155 18,898 l 25,17 C 476,802.15406 837.4555,484.6632 1114.16,182.515 c 39.53,5.17354 66.93,-10.08 77.38,-34.19 z"></path>
      <path sodipodi:nodetypes="cccccc" id="path1948" d="M 1989,694.58 C 1568,617 1220,349 1074,160 l -91,31 c 192,289 453,564 750.12,691 C 1773,801 1846,743 1979.92,721.2 Z"></path>
      <path id="path1958" d="m 582.5,1294 c 81.24,100.8 165.2,238.4 207.7,388.6 83.26,75.3 244,13.94 185.3,-140.3 -60.66,-159.5 -246.6,-219.9 -382,-257 z"></path>
      <path sodipodi:nodetypes="cccccc" id="path1960" d="m 485.7,957.52 c 0,381.7 -129.1,776.5 -440.1,1005 l 16.53,16.96 c 368.7,-108.7 643.8,-508.7 644.5,-935.8 46.75,-2.969 71.27,-35.98 71.27,-53.65 z"></path>
      <path id="path1962" d="m 1954,1795 c -249,-111 -523.9,-373.8 -523.9,-751.9 l -80.75,26.87 c 6.298,429.9 145.65,739.03 352.8,906 25.94,-71.61 111,-139 243.2,-154.9 z" sodipodi:nodetypes="cccccc"></path>
      <path sodipodi:nodetypes="cccccc" id="path1964" d="m 1208.8,959.32 c 0,375.4 -119.2,763 -406.4,988 l 14.7,20.08 c 350.8,-108.2 613.2,-501.9 613.2,-923.9 42.02,0 70.66,-33.68 70.68,-51.51 z"></path>
      <path sodipodi:nodetypes="ccscccc" id="path1970" d="m 485.9,808.3 13.08,49.01 h 967 c 16.85,0 27.23,-11.08 27.23,-16.26 l -198.2,-177.4 -119.1,144.6 z"></path>
    
</svg>
