<?xml version="1.0" encoding="UTF-8" standalone="no"?>
<svg viewBox="0 0 2000 2000" version="1.1" xmlns="http://www.w3.org/2000/svg" xmlns:sodipodi="http://sodipodi.sourceforge.net/DTD/sodipodi-0.dtd">
	
      <path d="m 602,1350 c 81.24,93.47 165.2,221.2 207.7,360.5 74.8,55.03 208.8,-23.47 185.3,-140.3 C 970.22,1447 737.4,1377.1 613,1344.4 Z" id="dot_45-4-5"></path>
      <path d="m 806.6,1098 -292.2,-33.68 c 0,312.9 -129.1,669.3 -440.1,856.8 l 16.53,16.42 c 368.7,-87.68 643.8,-442.4 644.5,-786.7 46.75,-2.394 71.27,-35.98 71.27,-52.82 z" id="rect849-6-0-05"></path>
      <path d="m 1908,1755 c -241.9,-85.07 -523.9,-311.8 -523.9,-598.1 l -68.76,42.1 c 6.298,334.2 137.9,597.4 340.8,736.9 25.94,-55.67 111,-139 243.2,-154.9 z" id="path2077-5"></path>
      <path d="m 756.2,1912 14.7,18.25 c 350.8,-86.03 598,-395.7 598,-731.3 l 15.28,-42.1 c 42.02,0 70.66,-33.68 70.66,-50.52 l -292.2,-33.68 c 0,306.5 -119.2,655.6 -406.4,839.3 z" id="rect849-6-0-0"></path>
      <path sodipodi:nodetypes="cccccssccsscccc" d="M 1193,833.6 H 802.4 V 263.7 c 39.73,1e-4 65.01,-21.67 66.81,-43.34 l -270.1,-28.89 v 750.4 c 0,38.25 203.3,0.3573 203.3,-47.04 v -12 h 390.6 v 65.9 c 0,28.04 203.3,-1.972 203.3,-58.04 v -627 c 39.73,10e-5 65.01,-21.67 66.81,-43.34 l -270.1,-28.89 z" id="path954"></path>
      <path d="m 86.48,477.2 13.08,49.01 h 1803 c 16.86,0 27.23,-11.08 27.23,-16.26 l -198.2,-177.3 -119.1,144.6 z" id="path956" sodipodi:nodetypes="ccscccc"></path>
    
</svg>
