<?xml version="1.0" encoding="UTF-8" standalone="no"?>
<svg viewBox="0 0 2000 2000" version="1.1" xmlns="http://www.w3.org/2000/svg" xmlns:sodipodi="http://sodipodi.sourceforge.net/DTD/sodipodi-0.dtd">
	
      <path id="path2386" d="m 1540.3,445.44 -101.1,91.71 H 579.3 L 342,481.08 v 630.1 c 0,47.3058 214.0469,27.4166 209.3,-39.04 v -28 h 898.4 v 43.9 c 0,39.12 209.3,18.5 209.3,-50.04 V 611 c 33.56,0 78.32,-28.04 78.32,-42.05 z m -90.58,557.5 h -898.4 v -416.8 h 898.4 z" sodipodi:nodetypes="ccccssccsscccccccc"></path>
      <path sodipodi:nodetypes="csccsccc" d="M 889.45,135 890,660 c 0.63525,606.3762 -192.97568,1011.7894 -794,1283 l 22,13 C 787.90884,1846.8999 1112.95,1357.5433 1112.95,767 V 219.18 c 42.02,0 70.66,-33.68 70.68,-51.51 z" id="path2405"></path>
      <path sodipodi:nodetypes="cccccc" d="m 1947.95,1776.29 c -444,-154 -727.95,-434.29 -840,-764 l -50,9 c 69.05,437.71 346,795 634.05,942.71 50.95,-85.71 135.95,-141.71 246.8,-160.8 z" id="path2417"></path>
    
</svg>
