<?xml version="1.0" encoding="UTF-8" standalone="no"?>
<svg viewBox="0 0 2000 2000" version="1.1" xmlns="http://www.w3.org/2000/svg" xmlns:sodipodi="http://sodipodi.sourceforge.net/DTD/sodipodi-0.dtd">
	
      <path sodipodi:nodetypes="cccccc" d="m 463,1573 c 291,-310 489,-761 668,-1189 43,4 68,-18 75,-47 L 858,268 C 815,514 626,1116 439,1553 Z" id="path1199"></path>
      <path sodipodi:nodetypes="cccccc" d="m 199,1485 99,299 c 21,-4 41,-33 47,-58 492,-94 899,-195 1338,-307 l 2,-32 z" id="path1195"></path>
      <path id="path1197" d="m 1387,1118 c 73,139 165,390 214,646 76,53 239,35 224,-151 -18,-217 -220,-407 -425,-508 z" sodipodi:nodetypes="ccscc"></path>
    
</svg>
