<?xml version="1.0" encoding="UTF-8" standalone="no"?>
<svg viewBox="0 0 2000 2000" version="1.1" xmlns="http://www.w3.org/2000/svg" xmlns:sodipodi="http://sodipodi.sourceforge.net/DTD/sodipodi-0.dtd">
	
      <path sodipodi:nodetypes="ccccscccsscccccccc" id="path2562" d="m 1665,223.829 -95.1,91.71 H 448.1 l -231.3,-56.07 v 1667.42 c 0,38.25 222.4788,23.972 203.3,-35.04 v -20 h 1160.4 v 56.02 c 0,28.04 203.3,10.03 203.3,-46.04 V 389.409 c 33.56,0 78.32,-28.04 78.32,-42.05 z m -84.58,1598.82 H 420.02 V 364.529 h 1160.4 z"></path>
      <path sodipodi:nodetypes="cccccsscccsccc" d="m 1331.423,538.9 -95.1,91.71 H 453.8356 l 12,49.09 h 780.9874 v 606.08 c 0,21.03 -15.1529,26.9383 -23.71,26.31 l -176.2774,-13.09 1.287,26.75 C 1118.32,1348 1194.32,1429 1222.2,1527.6 1409.7,1513.58 1450,1426 1450,1284 V 704.42 c 33.56,0 78.32,-28.04 78.32,-42.05 z" id="path2573"></path>
      <path sodipodi:nodetypes="csccc" d="m 789.35,1729.3 c 0,36.98 203.44398,15.0499 203.3,-58.04 V 656 l -203.29,-3 z" id="path2575"></path>
    
</svg>
