<?xml version="1.0" encoding="UTF-8" standalone="no"?>
<svg viewBox="0 0 2000 2000" version="1.1" xmlns="http://www.w3.org/2000/svg" xmlns:sodipodi="http://sodipodi.sourceforge.net/DTD/sodipodi-0.dtd">
	
      <path sodipodi:nodetypes="cccccc" d="m 27.74,1496.26 89.26,287.9 c 20.77,-3.536 38.89841,-29.8988 39,-58.16 l 860.74,-310.74 6,-28 z" id="path2800"></path>
      <path id="path2803" d="m 68.59,568.95 13.08,49.01 h 889.2 c 16.86,0 27.23,-11.08 27.23,-16.26 L 807,428.9 688,569 Z" sodipodi:nodetypes="ccscccc"></path>
      <path d="M 537.2,1484.7 C 645.4,1349.8 790.5,1039.5 869,766 c 25.46,14.72 59.7,-19.92 64.78,-38.99 l -326.5,-70.76 c -6.59,150.4 -45.77,522.9 -102,826.1 z" id="path2805" sodipodi:nodetypes="cccccc"></path>
      <path d="m 149.9,694.2 c 39.05,108.6 95.34,370.5 123.6,685.5 92.54,78.91 235.3,15.14 207.2,-173.7 C 446.57,976.4 306.4,770.9 162.6,679.7 Z" id="path2807" sodipodi:nodetypes="ccccc"></path>
      <path sodipodi:nodetypes="ccsccccscccccc" id="path2824" d="m 897,442.8 h 783.823 v 771.98 c 0,21.03 -15.1972,27.3834 -23.71,26.31 L 1472,1218 l -0.713,26.75 C 1559.487,1269.88 1636,1342 1656.2,1460.6 1843.7,1446.58 1884,1359 1884,1217 V 467.52 c 33.56,0 78.32,-28.04 78.32,-42.05 L 1765.423,302 l -95.1,91.71 H 885 Z"></path>
      <path id="path2826" d="m 1198.6997,1892.88 c -4e-4,61.9824 203.4203,26.5747 203.3,-58.04 V 428.23 l -203.29,-2.23 z" sodipodi:nodetypes="ssccs"></path>
    
</svg>
