<?xml version="1.0" encoding="UTF-8" standalone="no"?>
<svg viewBox="0 0 2000 2000" version="1.1" xmlns="http://www.w3.org/2000/svg" xmlns:sodipodi="http://sodipodi.sourceforge.net/DTD/sodipodi-0.dtd">
	
      <path sodipodi:nodetypes="ccscccc" d="m 326.27,748.05 13.08,49.01 h 1299 c 16.86,0 27.23,-11.08 27.23,-16.26 l -198.2,-177.3 -119.1,144.6 z" id="path2040"></path>
      <path sodipodi:nodetypes="cccccc" d="M 1968.57,1277.145 C 1731.9304,1216.725 1375.8823,1020.36 1235,775.5 l -55,-2 c 112.6114,326.83 347.5407,595.12 532.62,691.355 49.5006,-84.355 127.427,-139.289 246.8,-160.8 z" id="path2042"></path>
      <path sodipodi:nodetypes="cccccc" d="m 1075.62,574.76 c 39.071,-4.605 60.3,-29.64 61.58,-50.7 L 838,485 C 734.70139,859.23402 455.46932,1213.8519 43,1448 l 20,12 C 591.47377,1327.6333 902.77885,925.96746 1075.62,572.76" id="path2044"></path>
      <path id="path2051" d="m 288.64,456 h 1413.99 c 16.85,0 27.23,-11.08 27.23,-16.26 L 1537,263 l -110.44,143.94 -1156,0.05 z" sodipodi:nodetypes="csccccc"></path>
      <path sodipodi:nodetypes="ccscccc" d="m 467.82,1303.55 13.08,47.01 h 976.07 c 16.86,0 27.23,-11.08 27.23,-16.26 L 1286,1157 1166.9,1303.6 Z" id="path2055"></path>
      <path sodipodi:nodetypes="ccccc" d="m 654,1337 c -4,205 -104,491 -436,617 l 25,17 c 438,-73 626.2001,-392 626.2001,-628.44 z" id="path2057"></path>
      <path id="path2059" d="m 1681.7999,1566 20,4 -12,189 c 70,81 6,184 -63,184 h -357 c -163,0 -206,-145 -206,-285 v -336.44 l 199.2001,-4 V 1649 c 0,54.7706 31,98 91,98 h 214.7999 c 46,0 90,-72 113,-181 z" sodipodi:nodetypes="cscsssccsssc"></path>
      <path sodipodi:nodetypes="ccscc" d="M 776.7,74.2 C 815.53961,120.68 887.89898,256.1 933,378.6 1024,418 1142.1211,350.65446 1088,233 1042,133 892.7,77.9 787.4,65.6 Z" id="path2066"></path>
    
</svg>
