<?xml version="1.0" encoding="UTF-8" standalone="no"?>
<svg viewBox="0 0 2000 2000" version="1.1" xmlns="http://www.w3.org/2000/svg" xmlns:sodipodi="http://sodipodi.sourceforge.net/DTD/sodipodi-0.dtd">
	
      <path sodipodi:nodetypes="ccscccc" d="m 224.85,498.59 13.08,49.01 h 1539 c 16.86,0 27.23,-11.08 27.23,-16.26 l -198.2,-177.3 -119.1,144.6 z" id="path3047"></path>
      <path sodipodi:nodetypes="cccccc" d="M 1987.15,1163 C 1722.2583,1087 1323.7021,840 1166,532 l -62,9 c 132.6086,382.78076 409.2548,697 627.2,809.71 56.5418,-84.4323 127.4271,-139.2891 246.8,-160.8 z" id="path3049"></path>
      <path sodipodi:nodetypes="cccccc" d="M 901.38,84.94 C 790.83087,567.61995 492,1055 50.58,1357 l 28,14 C 632,1197 958,639 1139,174.7 c 39.0707,-4.60526 60.3,-29.64 61.58,-50.7 z" id="path3051"></path>
      <path id="path3081" d="m 447.82,1219.55 13.08,47.01 h 1016.07 c 16.86,0 27.23,-11.08 27.23,-16.26 L 1306,1073 1186.9,1219.6 Z" sodipodi:nodetypes="ccscccc"></path>
      <path id="path3084" d="m 654,1251 c -4.42927,227 -104,555 -436,681 l 25,17 c 438,-73 626.2001,-410 626.2001,-692.44 z" sodipodi:nodetypes="ccccc"></path>
      <path sodipodi:nodetypes="cscsssccsssc" d="m 1681.7999,1544 20,4 -12,189 c 70,81 6,184 -63,184 h -357 c -163,0 -206,-145 -206,-285 v -400.44 l 199.2001,-4 V 1627 c 0,54.7706 31,98 91,98 h 214.7999 c 46,0 90,-72 113,-181 z" id="path3086"></path>
    
</svg>
