<?xml version="1.0" encoding="UTF-8" standalone="no"?>
<svg viewBox="0 0 2000 2000" version="1.1" xmlns="http://www.w3.org/2000/svg" xmlns:sodipodi="http://sodipodi.sourceforge.net/DTD/sodipodi-0.dtd">
	
      <path id="path2854" d="m 1223.99,509.55 v 1338.16 c 0,67.36 199.2,15.23 199.2,-49.48 V 580.07 c 38.55,6e-5 63.08,-21.03 64.83,-42.05 z" sodipodi:nodetypes="cssccc"></path>
      <path id="path2857" d="m 856.29,1445.79 13.08,49.01 h 953.8 c 16.86,0 27.23,-11.08 27.23,-16.26 l -198.2,-177.3 -119.1,144.6 z" sodipodi:nodetypes="ccscccc"></path>
      <path id="path2861" d="m 929,856.59 13.08,49.01 h 831.99 c 16.86,0 27.23,-11.08 27.23,-16.26 L 1603.1,712.04 1484,856.64 Z" sodipodi:nodetypes="ccscccc"></path>
      <path id="path2866" d="m 1531,647.84 c 136.7923,-37.17664 253.8463,-159.24625 332.8,-341.32 17.8923,1.11459 62.98,-24.53 64.1,-30.82 L 1705,125 1584.9,250.5 H 340.58 L 356,298.84 h 1255 c -22.0441,145.13798 -57.0399,260.03847 -101,345 z" sodipodi:nodetypes="cccccccccc"></path>
      <path id="path2868" d="M 331.6164,150.17935 C 314.99991,284.89225 265.38668,409.50927 157.17595,480.41075 74.815894,565.94927 181.01958,724.54971 313.81538,661.58619 431.98907,605.55556 462.94237,375.20671 361.1163,140.42856 Z" sodipodi:nodetypes="ccscc"></path>
      <path id="path2871" d="m 140.74,1622.26 93.26,265.9 c 20.77,-3.536 38.91,-30.39 39,-58.16 L 1008.906,1561.93 1013,1538 Z" sodipodi:nodetypes="cccccc"></path>
      <path sodipodi:nodetypes="cccccc" d="M 478.99,551.84 V 1659.48 L 678.19,1610 V 622.36 c 38.55,6e-5 63.08,-21.03 64.83,-42.05 z" id="path2876"></path>
      <path sodipodi:nodetypes="ccscccc" d="m 210,987.39 13.08,49.01 h 721.89 c 16.86,0 27.23,-11.08 27.23,-16.26 L 804,858.84 694.9,987.44 Z" id="path2878"></path>
      <path sodipodi:nodetypes="ccscccc" d="m 956.29,1147.55 13.08,49.01 h 759.8 c 16.86,0 27.23,-11.08 27.23,-16.26 L 1558.2,1003 1439.1,1147.6 Z" id="path2882"></path>
    
</svg>
