<?xml version="1.0" encoding="UTF-8" standalone="no"?>
<svg viewBox="0 0 2000 2000" version="1.1" xmlns="http://www.w3.org/2000/svg" xmlns:sodipodi="http://sodipodi.sourceforge.net/DTD/sodipodi-0.dtd">
	
      <path d="m 314.52,1466.03 13.08,51.01 h 1339 c 16.86,0 27.23,-11.08 27.23,-16.26 l -198.2,-183.3 -119.1,148.6 z" id="path1772" sodipodi:nodetypes="ccscccc"></path>
      <path d="m 109.09,1858.99 13.08,49.01 h 1757 c 16.86,0 27.23,-11.08 27.23,-16.26 l -198.2,-183.3 -119.1,150.6 z" id="path1814" sodipodi:nodetypes="ccscccc"></path>
      <path d="m 870.99,1880.03 203.3,13.77 v -602.7 c 39.73,1e-4 65.01,-21.67 66.81,-43.34 L 871,1218.87 Z" id="path1784" sodipodi:nodetypes="cccccc"></path>
      <path id="path1792" d="M 672.47,340.48 C 672.47,952.765 583,1086 324,1287 l 27.66,11.48 C 716,1192 872,1024 872,435.48 v -204 c 35.54,0 58.66,-30.56 58.66,-45.84 L 672.47,160.75 Z" sodipodi:nodetypes="sccscccs"></path>
      <path sodipodi:nodetypes="ccscccc" id="path1794" d="m 212.15,799.6 13.08,49.01 h 1591.5103 c 16.86,0 27.23,-11.08 27.23,-16.26 L 1650.66,659 1533.8703,799.65 Z"></path>
      <path sodipodi:nodetypes="cssccc" d="m 1158.63,131.48 v 1140.64 c 0,67.36 199.2,23.23 199.2,-41.48 V 202 c 38.55,0 63.08,-21.03 64.83,-42.05 z" id="path1798"></path>
      <path d="m 272.15,461.6 13.08,49.01 h 1471.5103 c 16.86,0 27.23,-11.08 27.23,-16.26 L 1590.66,321 1473.8703,461.65 Z" id="path1809" sodipodi:nodetypes="ccscccc"></path>
    
</svg>
