<?xml version="1.0" encoding="UTF-8" standalone="no"?>
<svg viewBox="0 0 2000 2000" version="1.1" xmlns="http://www.w3.org/2000/svg" xmlns:sodipodi="http://sodipodi.sourceforge.net/DTD/sodipodi-0.dtd">
	
      <path sodipodi:nodetypes="cccccsscccsccc" d="m 1512.423,612.48 -95.1,95.71 H 194.8356 l 12,49.09 H 1427.823 v 234.5 c 0,21.03 -15.15,26.8972 -23.71,26.31 l -220.2774,-15.09 -0.713,22.75 c 88.2,25.13 182.713,89.25 220.0774,207.85 C 1590.7,1219.58 1631,1132 1631,990 V 782 c 33.56,0 78.32,-28.04 78.32,-42.05 z" id="path1686"></path>
      <path id="path1688" d="m 905.44922,118.72103 0.49023,1243.97067 c 0.0243,61.7395 211.00975,39.3501 211.00975,-58.041 V 202.90072 c 42.02,0 70.6617,-33.67977 70.6817,-51.50977 z" sodipodi:nodetypes="cssccc"></path>
      <path d="M 365,415.99023 383.08008,465 H 1659.6309 c 16.85,0 27.2285,-11.07977 27.2285,-16.25977 L 1476,265 1353,415.93945 Z" id="path1691" sodipodi:nodetypes="ccscccc"></path>
      <path id="path1693" d="m 392.267,888.45072 c 49.66,49.31 146,196.79998 208.9,332.19998 86.21,47.03 234.5,-30.05 152.8,-169.1 -58.77,-99.99998 -232.1,-163.39998 -350.4,-173.19998 z" sodipodi:nodetypes="ccccc"></path>
      <path sodipodi:nodetypes="csccccc" d="m 461.52,1557.9 h 1100.55 c 16.85,0 27.23,-11.08 27.23,-16.26 L 1398.44,1358.9 1280,1506.84 l -836.56,0.05 z" id="path1703"></path>
      <path sodipodi:nodetypes="csccccc" d="M 172.01,1898.06 H 1826 c 16.85,0 27.23,-11.08 27.23,-16.26 l -192.86,-180.74 -116.44,145.94 -1390,0.05 z" id="path1705"></path>
    
</svg>
