<?xml version="1.0" encoding="UTF-8" standalone="no"?>
<svg viewBox="0 0 2000 2000" version="1.1" xmlns="http://www.w3.org/2000/svg" xmlns:sodipodi="http://sodipodi.sourceforge.net/DTD/sodipodi-0.dtd">
	
      <path sodipodi:nodetypes="ccscccc" d="M 207.82,752.99 220.9,800 h 1540.07 c 16.86,0 27.23,-11.08 27.23,-16.26 L 1590,606.44 1470.9,753.04 Z" id="path2439"></path>
      <path sodipodi:nodetypes="csccscc" d="m 594,771 v 73 c 0,579 -107.99299,827.4736 -436,1070 l 27,11 C 617.64708,1753.2877 793.2001,1449 793.2001,907 V 767 Z" id="path2441"></path>
      <path id="path2443" d="m 1774,1519 20,4 -12,189 c 70,81 6,184 -63,184 h -357 c -163,0 -206,-145 -206,-285 V 771 l 199.2001,-4 v 835 c 0,54.7706 31,98 91,98 H 1661 c 46,0 90,-72 113,-181 z" sodipodi:nodetypes="cscsssccsssc"></path>
      <path d="m 725.36763,211.6 c 61.092,67.9876 156.8874,233.2567 211.275,378.3 94.99997,58 232.98367,-34 150.99997,-176 C 1020.1074,296.9256 886.64263,224.9 736.06763,203 Z" id="path2450" sodipodi:nodetypes="ccscc"></path>
    
</svg>
