<?xml version="1.0" encoding="UTF-8" standalone="no"?>
<svg viewBox="0 0 2000 2000" version="1.1" xmlns="http://www.w3.org/2000/svg" xmlns:sodipodi="http://sodipodi.sourceforge.net/DTD/sodipodi-0.dtd">
	
      <path id="path2444" d="M 335.19866,452.50765 H 1341.709 C 1320,870 1291,1115 1218.909,1490.4377 c -2.8162,14.6661 -18.4712,18.4728 -27.96,17.87 l -215.5,-13.69 2.211,28.14 c 111.4,39.94 194.3,135.1 193.2,216.9 98.42,8.252 234.3008,-37.0615 261.8,-197 C 1500,1151 1524,910 1550.06,463.12765 c 18.7,-2.854 38.84,-18.07 46.94,-34.49 l -185.4,-131.2 -108.8,106.7 H 322.55163 Z" sodipodi:nodetypes="ccsscccscccccc"></path>
      <path d="M 727,447.36646 C 697.94546,1011.7391 579.63666,1488.3603 332,1729.0559 L 366,1741 C 700.87677,1595.2796 917.84702,1182.9726 962,442 Z" id="path2446" sodipodi:nodetypes="ccccc"></path>
      <path id="path2452" d="m 158,1055.5 h 1684.77 c 16.85,0 27.23,-11.08 27.23,-16.26 L 1681.14,854.5 1560.7,1004.44 139.92,1004.49 Z" sodipodi:nodetypes="csccccc"></path>
      <path id="path2454" d="m 72,1842 h 1858.63 c 16.85,0 27.23,-11.08 27.23,-16.26 L 1767,1643 1648.56,1790.94 53.92,1790.99 Z" sodipodi:nodetypes="csccccc"></path>
    
</svg>
