<?xml version="1.0" encoding="UTF-8" standalone="no"?>
<svg viewBox="0 0 2000 2000" version="1.1" xmlns="http://www.w3.org/2000/svg" xmlns:sodipodi="http://sodipodi.sourceforge.net/DTD/sodipodi-0.dtd">
	
      <path d="m 1619,183.829 -95.1,91.71 H 494.1 l -237.3,-56.07 v 1667.42 c 0,38.25 228.4788,23.972 209.3,-35.04 v -20 h 1068.4 v 56.02 c 0,28.04 209.3,10.03 209.3,-46.04 V 349.409 c 33.56,0 78.32,-28.04 78.32,-42.05 z m -84.58,1598.82 H 466.02 V 324.529 h 1068.4 z" id="path3590" sodipodi:nodetypes="ccccscccsscccccccc"></path>
      <path sodipodi:nodetypes="ccscc" id="path3593" d="m 673.34307,789.70481 c 166.8382,150.10657 357.66403,378.58069 492.07863,617.55179 116.7969,56.6649 236.3276,-60.7004 159,-206 -75.9799,-142.7673 -322.7666,-341.31258 -634.29784,-427.03038 z"></path>
      <path sodipodi:nodetypes="cccccc" d="m 1227.4197,547.92662 c -118.195,277.426 -420.74102,698.44698 -787.00002,950.99998 l 29,12 c 394,-123 729.00002,-425 950.00202,-816.66998 29.279,3.582 66.93,-10.08 77.38,-34.19 z" id="path3599"></path>
    
</svg>
