<?xml version="1.0" encoding="UTF-8" standalone="no"?>
<svg viewBox="0 0 2000 2000" version="1.1" xmlns="http://www.w3.org/2000/svg" xmlns:sodipodi="http://sodipodi.sourceforge.net/DTD/sodipodi-0.dtd">
	
      <path sodipodi:nodetypes="ccccccccssscccsscccssccc" d="m 1542.5801,244.17969 -95.0996,91.71094 H 348 l 16,48.98828 H 1458 V 940 H 582.14066 L 338.3809,879.92969 v 683.25001 c 0,140 43,285 206,285 H 1678 c 69,0 133,-103 63,-184 l 22.6191,-245 -20,-4 c -28.381,109 -73,237 -130,237 H 643.00004 c -60,0 -90.997,-43.229 -91,-98 l 2.1172,-565.46095 903.96286,0.48047 v 36.02148 c 0,41.724 203.3008,20.26 203.3008,-46.04101 V 409.75977 c 33.56,0 78.3203,-28.04078 78.3203,-42.05078 z" id="path2683"></path>
    
</svg>
