<?xml version="1.0" encoding="UTF-8" standalone="no"?>
<svg viewBox="0 0 2000 2000" version="1.1" xmlns="http://www.w3.org/2000/svg" xmlns:sodipodi="http://sodipodi.sourceforge.net/DTD/sodipodi-0.dtd">
	
      <path id="path2113" d="m 777.423,531.48 -95.1,91.71 h -360 l -231.3,-56.07 v 796.5 c 0,48.24 203.54158,21.8196 203.3,-55.04 v -636.3 h 398.5 v 401.5 c 0,21.03 -15.21,27.48 -23.71,26.31 l -134,-18.54 -0.713,22.75 c 88.2,25.13 121.6,71.11 133.8,211.3 C 855.7,1301.58 896,1214 896,1072 V 697 c 33.56,0 78.32,-28.04 78.32,-42.05 z" sodipodi:nodetypes="ccccssccsccccsccc"></path>
      <path id="path2119" d="m 384.323,1888.88 c 0,36.98 203.3,15.05 203.3,-58.04 V 268.23 c 39.73,10e-5 65.01,-21.67 66.81,-43.34 L 384.333,196 Z" sodipodi:nodetypes="cscccc"></path>
      <path id="path2142" d="m 905.08,479.06 h 999.99 c 16.85,0 27.23,-11.08 27.23,-16.26 L 1739.44,278.06 1623,428 887,428.05 Z" sodipodi:nodetypes="csccccc"></path>
      <path sodipodi:nodetypes="csccccc" d="m 821.08,1789.06 h 1145.99 c 16.85,0 27.23,-11.08 27.23,-16.26 L 1801.44,1588.06 1685,1738 l -882,0.05 z" id="path2145"></path>
      <path sodipodi:nodetypes="cccccc" id="path2148" d="m 1440,1748 c 132.4138,-194.7595 285.199,-605.6806 384,-1099 32.9326,-4.78264 59.6235,-20.14769 64.6307,-39.23694 L 1567.8631,552.24965 C 1534.1062,898.76796 1476.1551,1392.9184 1399,1748 Z"></path>
      <path sodipodi:nodetypes="ccscc" id="path2152" d="M 990.2,571.67498 C 1030.0836,856 1064.2934,1202 1096,1610 c 40,96 246.637,101.3433 231,-128 -21,-308 -130.2668,-634.21115 -318.1,-916.82502 z"></path>
    
</svg>
