<?xml version="1.0" encoding="UTF-8" standalone="no"?>
<svg viewBox="0 0 2000 2000" version="1.1" xmlns="http://www.w3.org/2000/svg" xmlns:sodipodi="http://sodipodi.sourceforge.net/DTD/sodipodi-0.dtd">
	
      <path id="path3894" d="M 584,126.65 V 244 c 0,510.2146 -161.271,867.6423 -442.414,1135 l 23,4 C 522.565,1248.9855 805.225,819 805.225,303 v -89.495 c 42.02,0 70.66,-33.68 70.68,-51.51 z" sodipodi:nodetypes="csccsccc"></path>
      <path sodipodi:nodetypes="cccccc" id="path3896" d="M 1842,1134 C 1266,1101 858.62544,879.19706 653.8,695 l 3,68 c 182.6787,251.3818 565.1513,533.2093 1033.2,579 24,-72 86,-158 143,-177 z"></path>
      <path id="path3898" d="M 264.94,519.99 278.02,569 H 1070 c 13.32,0 21.52,-11.08 21.52,-16.26 L 900,380 786.42,520.04 Z" sodipodi:nodetypes="ccscccc"></path>
      <path sodipodi:nodetypes="ccscc" id="path3900" d="m 1080.3,458 c 173.5746,98.66666 342.4216,273.84854 473.7,444 130.9408,39.33429 219.8804,-111.63851 113,-224 C 1550,555 1296,467 1094.4,441.6 Z"></path>
      <path id="path3906" d="m 1119.6603,1048.4995 c 198,-131.99996 444.6132,-422.09921 567.5759,-708.18478 33.068,1.13703 60.8563,-17.21937 69.1827,-45.86675 L 1448,231 c -64.2111,243.3521 -173.3397,551.49954 -373.3397,807.4995 z" sodipodi:nodetypes="cccccc"></path>
      <path sodipodi:nodetypes="csccccc" d="m 144.08,1896 h 1733.99 c 16.85,0 27.23,-11.08 27.23,-16.26 L 1716.44,1711 1602,1846.94 126,1846.99 Z" id="path3912"></path>
      <path id="path3918" d="m 504.08,1530 h 967.99 c 16.85,0 27.23,-11.08 27.23,-16.26 L 1310.44,1345 1196,1480.94 l -710,0.05 z" sodipodi:nodetypes="csccccc"></path>
    
</svg>
