<?xml version="1.0" encoding="UTF-8" standalone="no"?>
<svg viewBox="0 0 2000 2000" version="1.1" xmlns="http://www.w3.org/2000/svg" xmlns:sodipodi="http://sodipodi.sourceforge.net/DTD/sodipodi-0.dtd">
	
      <path id="path2412" d="m 1312.2,177.1 0.55,237 c 1.4728,634.651 -108.399,1156.634 -450,1515 l 23,9 C 1337,1728 1533.7,1123.182 1533.7,438.63 V 261.28 c 42.02,0 70.66,-33.68 70.68,-51.51 z" sodipodi:nodetypes="csccsccc"></path>
      <path id="path2414" d="m 1015.83,694.1 h 887.55 c 16.85,0 27.23,-11.08 27.23,-16.26 L 1730.75,504.1 1621.31,647.04 997.75,647.09 Z" sodipodi:nodetypes="csccccc"></path>
      <path d="m 152.057,533.99 13.08,47.01 h 902.833 c 16.85,0 27.23,-11.08 27.23,-16.26 L 903,400 800,533.94 Z" id="path2416" sodipodi:nodetypes="ccscccc"></path>
      <path id="path2423" d="M 1990,1736.875 C 1735.5,1529.175 1517.5,1079.83 1523.7,438.63 L 1454.94,769 C 1458,1398 1632,1784 1778.84,1952.775 1820,1853 1909,1780.9995 1985.94,1760.575 Z" sodipodi:nodetypes="cccccc"></path>
      <path sodipodi:nodetypes="cccccssccsscccc" d="M 787,1500 H 454.02 v -282 c 39.73,10e-5 65.01,-25.67 66.81,-47.34 l -278.1,-28.89 v 497 c 0,45.6498 211.3,15.7884 211.3,-47.04 v -46 h 332.98 v 59.9 c 0,41.1603 211.3,10.0537 211.3,-58.04 v -329 c 39.73,10e-5 65.01,-25.67 66.81,-47.34 l -278.1,-28.89 z" id="path2437"></path>
      <path sodipodi:nodetypes="cssccc" d="m 522.19,961 v 947.82 c 0,67.36 199.2,27.23 199.2,-37.48 v -839.82 c 38.55,10e-5 63.08,-21.03 64.83,-42.05 z" id="path2440"></path>
      <path d="M 535.38,160.99 C 490,635 313,1001 10,1314 l 28,10 C 406,1157 686,774 757,245 c 33.99613,-1.02845 64.88,-24.39 68.77,-48.41 z" id="path2445" sodipodi:nodetypes="cccccc"></path>
      <path sodipodi:nodetypes="ccscc" d="m 562,636 c 116.9512,114.6516 237.818,271.1601 299,442 124,66 278.7982,-47.0067 164,-202 C 907.557,717.436 724.1,659.132 580,627.3 Z" id="path2448"></path>
    
</svg>
