<?xml version="1.0" encoding="UTF-8" standalone="no"?>
<svg viewBox="0 0 2000 2000" version="1.1" xmlns="http://www.w3.org/2000/svg" xmlns:sodipodi="http://sodipodi.sourceforge.net/DTD/sodipodi-0.dtd">
	
      <path id="path3207" d="m 21.75,1511.82 91.26,273.9 c 20.77,-3.536 35.99,-35.72 39,-58.16 l 699.906,-268.07 8.094,-31.93 z" sodipodi:nodetypes="cccccc"></path>
      <path sodipodi:nodetypes="cccccc" d="m 334,457.4 v 1107.64 l 199.2,-49.48 V 527.92 c 38.55,6e-5 63.08,-21.03 64.83,-42.05 z" id="path3209"></path>
      <path sodipodi:nodetypes="ccscccc" d="m 65.01,892.95 13.08,49.01 h 721.89 c 16.86,0 27.23,-11.08 27.23,-16.26 L 659.01,764.4 549.91,893 Z" id="path3211"></path>
      <path id="path3215" d="m 1749.2143,222.93213 -123,146.34 -920.5402,-0.05 13.0801,49.012 h 1188.0227 c 16.86,0 27.2305,-11.082 27.2305,-16.262 z" sodipodi:nodetypes="ccccscc"></path>
      <path id="path3217" d="m 1572.2143,694 -105.4844,91.7109 H 1114 l 14,49.0899 h 349.2299 V 1619 c 0,140 43,285 206,285 H 1859 c 106,0 133,-150 79.6772,-200 l 22.6191,-245 -20,-4 c -28.3809,109 -73,237 -130,237 h -35.4473 c -60,0 -84.997,-43.2294 -85,-98 l -0.059,-734.4805 c 33.56,0 78.3204,-28.0388 78.3204,-42.0488 z" sodipodi:nodetypes="cccccssscccsscccc"></path>
      <path sodipodi:nodetypes="csccscc" id="path3138-4" d="M 985,399.832 V 711 c 0,555.204 -108,969 -371,1234 l 20,9 c 327,-127 568.5833,-520.0003 569,-1201 l 0.214,-351.766 z"></path>
    
</svg>
