<?xml version="1.0" encoding="UTF-8" standalone="no"?>
<svg viewBox="0 0 2000 2000" version="1.1" xmlns="http://www.w3.org/2000/svg" xmlns:sodipodi="http://sodipodi.sourceforge.net/DTD/sodipodi-0.dtd">
	
      <path sodipodi:nodetypes="ccscc" id="path1356" d="m 357,389 c 81,94 159,214 215,351 76,69 220,11 178,-117 C 716,519 527,411 368,384 Z"></path>
      <path id="path1368" d="m 1387,342 c -36,126 -102,283 -178,421 l 17,11 c 132,-65 275,-173 366,-280 15,2 46,-8 57,-32 z"></path>
      <path id="path1346" d="m 220,866 13,49 h 1539 c 17,0 27,-11 27,-16 L 1601,722 1482,866 Z" sodipodi:nodetypes="ccscccc"></path>
      <path id="path1361" d="m 888,140 c 1,162 -2,354 -15,524 -36,491 -292,942 -752,1242 l 19,11 c 661,-194 910,-803 935,-1158 11,-156 25,-372 26,-541 35,-5 60,-35 61,-56 z"></path>
      <path id="path1358" d="M 1902,1732 C 1407,1559 1134,1188 1056,868 l -32,31 c 11,375 299,856 622,1021 51,-95 115,-145 247,-161 z" sodipodi:nodetypes="cccccc"></path>
    
</svg>
