<?xml version="1.0" encoding="UTF-8" standalone="no"?>
<svg viewBox="0 0 2000 2000" version="1.1" xmlns="http://www.w3.org/2000/svg" xmlns:sodipodi="http://sodipodi.sourceforge.net/DTD/sodipodi-0.dtd">
	
      <path sodipodi:nodetypes="scccccs" id="path2836" d="m 933.568,474.301 c 16.86,0 27.231,-11.083 27.231,-16.263 L 768,291 651,433.338 l -614.408,-0.05 13.08,41.013 z"></path>
      <path sodipodi:nodetypes="csccccscc" id="path2838" d="M 380.303,464.301 V 1652.94 c 0,21.03 -9.625,27.309 -23.711,26.31 l -202,-16.32 -1.182,22.75 c 127.3,35.07 187.901,94.31 202.301,209.1 187.5,-14.02 227.887,-101.6 227.887,-243.6 V 464.301 Z"></path>
      <path sodipodi:nodetypes="cccsc" id="path2840" d="m 74.689,680.56935 -11.199,3.6992 c 56.816,91.58 98.126,197.9012 124.51,316.20115 71.887,70.7201 202.63,-9.05815 159,-138.70115 -35,-104 -155.524,-155.3992 -272.311,-181.1992 z"></path>
      <path sodipodi:nodetypes="cccccc" id="path2842" d="m 702.481,657.06935 c -33.442,140.5 -60.734,241.5992 -104.481,365.69915 l 18,0.1622 c 88.196,-42.54005 209.305,-158.74025 281.391,-252.24025 14.902,11.04 44.269,-3.2959 52.609,-16.9219 z"></path>
      <path sodipodi:nodetypes="ccccssccsccccsccc" id="path2844" d="m 1769.6,1101.48 -95.1,91.71 h -504 l -231.3,-56.07 v 606.5 c 0,48.24 203.3,21.82 203.3,-55.04 v -446.3 H 1685 v 285.5 c 0,21.03 -15.21,27.48 -23.71,26.31 l -134,-18.54 -0.713,22.75 c 88.2,25.13 121.6,71.11 133.8,211.3 187.5,-14.02 227.8,-101.6 227.8,-243.6 v -259 c 33.56,0 78.32,-28.04 78.32,-42.05 z"></path>
      <path sodipodi:nodetypes="sscccs" id="path2846" d="m 1304.5,1944.197 c -3e-4,52.5714 203.3,28.6359 203.3,-58.04 v -1754 c 39.73,0 65.01,-21.67 66.81,-43.34 l -270.1,-28.89 z"></path>
      <path sodipodi:nodetypes="cccccssccsscccc" id="path2848" d="M 1629.2,723 H 1172.6 V 307.24 c 39.73,10e-5 65.01,-21.67 66.81,-43.34 l -270.1,-28.89 v 600.26 c 0,39.54846 203.3,11.00224 203.3,-47.04 v -24 h 456.6 v 65.9 c 0,31.07578 203.3,11.40828 203.3,-58.04 V 299.23 c 39.73,10e-5 65.01,-21.67 66.81,-43.34 L 1629.22,227 Z"></path>
      <path sodipodi:nodetypes="ccscc" d="m 595,1178.7 c 42.5705,73.8668 93.20686,209.912 131,384.3 98.08048,44.238 200.92389,-19.8972 169,-152 -27.8154,-115.1016 -146.6298,-199.9689 -287,-245.3 z" id="path2850"></path>
      <path sodipodi:nodetypes="cccccc" id="path2852" d="m 21.120955,1363.0149 160.084755,233.1369 c 18.76667,-9.5764 29.63969,-47.2301 19.85477,-67.1518 L 354,1207 l -2,-24 z"></path>
      <path d="m 1969,1020 c 16.86,0 27.231,-11.083 27.231,-16.263 l -192.799,-167.038 -117,142.338 -834.408,-0.05 13.08,41.013 z" id="path2856" sodipodi:nodetypes="scccccs"></path>
    
</svg>
