<?xml version="1.0" encoding="UTF-8" standalone="no"?>
<svg viewBox="0 0 2000 2000" version="1.1" xmlns="http://www.w3.org/2000/svg" xmlns:sodipodi="http://sodipodi.sourceforge.net/DTD/sodipodi-0.dtd">
	
      <path sodipodi:nodetypes="ccscc" d="m 424,1076.7 c 80.18392,126.1427 163.05248,298.3374 205,486.3 61.91171,60.136 231.6295,23.5609 188,-159 -33.70588,-141.037 -223.84163,-296.1778 -382,-336 z" id="path2737"></path>
      <path sodipodi:nodetypes="ccscccc" id="path2755" d="M 37.0573,950.99 50.1373,998 H 870.97 c 16.85,0 27.23,-11.08 27.23,-16.26 L 706,829 603,950.94 Z"></path>
      <path id="path2763" d="m 342.4144,269 v 273 c 0,643.1698 -42.21182,1077 -335.4144,1423 l 23,9 C 391.64843,1771 563.6394,1377 563.6394,603 V 355.855 c 42.02,0 70.66,-33.68 70.68,-51.51 z" sodipodi:nodetypes="csccsccc"></path>
      <path sodipodi:nodetypes="ccscc" id="path2770" d="m 40.6,511.61467 c 64.03966,94.41797 110.60285,204.03272 140.34138,325.99872 81.02728,72.91154 200.69254,-8.28708 157.45121,-142.99817 C 306.82087,596.25887 174.83072,534.39953 52.00656,507.80001 Z"></path>
      <path sodipodi:nodetypes="cccccc" id="path2772" d="m 639.59,483 c -37.86,146.5 -70.46,252.6 -127.6,385 l 28.61,-3.49 c 101,-55.79 226.3,-174.5 301.4,-278.3 21,2 46.45,-9.4241 53,-24 z"></path>
      <path id="path2791" d="m 1279.8483,1944.88 c 0,36.98 212.3697,15.0497 212.1517,-58.04 V 1206.23 L 1279.8583,1202 Z" sodipodi:nodetypes="csccc"></path>
      <path sodipodi:nodetypes="csccccc" d="M 893.15,1226.5 H 1895.7 c 16.85,0 27.23,-11.08 27.23,-16.26 l -188.86,-184.74 -120.44,149.94 -738.56,0.05 z" id="path2793"></path>
      <path sodipodi:nodetypes="csccccc" d="m 840.64,1555 h 1125.99 c 16.85,0 27.23,-11.08 27.23,-16.26 L 1803,1356 l -118.44,147.94 -862,0.05 z" id="path2796"></path>
      <path sodipodi:nodetypes="ccccssccssccccccccccccc" id="path2799" d="m 1730.5,163.1 -95.1,91.71 H 1153.7 L 922.4,198.74 v 882.1 c 0,38.25 203.3,17.82 203.3,-35.04 v -40 H 1646 v 29.9 c 0,41.1954 203.3,17.6888 203.3,-46.04 v -661 c 33.56,0 78.32,-28.04 78.32,-42.05 z M 1125.7,303.9 H 1646 V 601 h -520.3 z m 0,348.3 H 1646 v 302.5 h -520.3 z"></path>
      <path sodipodi:nodetypes="ccccc" d="M 1283.8483,985.88 1488,987.84 V 265.23 L 1283.8583,261 Z" id="path2801"></path>
    
</svg>
