<?xml version="1.0" encoding="UTF-8" standalone="no"?>
<svg viewBox="0 0 2000 2000" version="1.1" xmlns="http://www.w3.org/2000/svg" xmlns:sodipodi="http://sodipodi.sourceforge.net/DTD/sodipodi-0.dtd">
	
      <path id="path2175" d="m 516,962.7 c 96.61184,151.3038 196.45835,357.8454 247,583.3 74.59606,72.1311 256.4823,33.0511 206,-187 C 930,1189 710,1002 527,954 Z" sodipodi:nodetypes="ccscc"></path>
      <path id="path2179" d="M 1991,1728.93 C 1787,1618.532 1501.2,1213.5136 1500.95,526.53 L 1404,795 c 9,444 162,985 335,1154.9 39.6545,-86.5776 131,-175.9 243.2,-194.9 z" sodipodi:nodetypes="cccccc"></path>
      <path id="path2181" d="m 1279.45,165 0.55,337 c 0.958,587 -143,1079 -476,1403 l 17,17 c 446,-200 679.95,-759 679.95,-1395.47 V 249.18 c 42.02,0 70.66,-33.68 70.68,-51.51 z" sodipodi:nodetypes="csccsccc"></path>
      <path id="path2191" d="m 1017.08,906 h 865.55 c 16.85,0 27.23,-11.08 27.23,-16.26 L 1710,728 1600.56,858.94 999,858.99 Z" sodipodi:nodetypes="csccccc"></path>
      <path d="m 89.0573,858.99 13.08,47.01 H 962.97 c 16.85,0 27.23,-11.08 27.23,-16.26 L 798,737 695,858.94 Z" id="path2224" sodipodi:nodetypes="ccscccc"></path>
      <path sodipodi:nodetypes="csccsccc" d="M 434.4144,173 V 488 C 434.4144,1131.1698 361,1565 15,1911 l 25,9 C 442.14808,1717 655.6394,1323 655.6394,549 V 259.855 c 42.02,0 70.66,-33.68 70.68,-51.51 z" id="path2227"></path>
      <path d="m 132.6,425.61467 c 64.03966,94.41797 110.60285,204.03272 140.34138,325.99872 81.02728,72.91154 200.69254,-8.28708 157.45121,-142.99817 C 398.82087,510.25887 266.83072,448.39953 144.00656,421.80001 Z" id="path2286" sodipodi:nodetypes="ccscc"></path>
      <path d="m 731.59,397 c -37.86,146.5 -70.46,252.6 -127.6,385 l 28.61,-3.49 c 101,-55.79 226.3,-174.5 301.4,-278.3 21,2 46.45,-9.4241 53,-24 z" id="path2297" sodipodi:nodetypes="cccccc"></path>
      <path id="path2301" d="m 984.2,435.9 c 62.88,91.58 108.6,197.9 137.8,316.2 79.56,70.72 191.4326,-6.34206 154.6,-138.7 C 1252,525 1116,458 995.4,432.2 Z" sodipodi:nodetypes="ccscc"></path>
      <path sodipodi:nodetypes="cccccc" id="path2304" d="m 1599.59,397 c -37.86,146.5 -70.46,252.6 -127.6,385 l 28.61,-3.49 c 101,-55.79 226.3,-174.5 301.4,-278.3 21,2 46.45,-9.4241 53,-24 z"></path>
    
</svg>
