<?xml version="1.0" encoding="UTF-8" standalone="no"?>
<svg viewBox="0 0 2000 2000" version="1.1" xmlns="http://www.w3.org/2000/svg" xmlns:sodipodi="http://sodipodi.sourceforge.net/DTD/sodipodi-0.dtd">
	
      <path id="path1542" d="m 1030,930 h 705 c -30,332 -76,530 -142.8,774 -3.9434,14.4041 -18.5289,19.0758 -27.96,17.87 L 1399,1701 v 28 c 89,32 134,132 139.151,224.22 98.42,8.252 208.659,-41.7122 255.8,-197 C 1869,1509 1907,1304 1937.351,940.62 c 18.7,-2.854 38.84,-18.07 46.94,-34.49 l -185.4,-131.2 -108.8,106.7 h -675.6897 z" sodipodi:nodetypes="ccsscccscccccc"></path>
      <path d="m 1460,910 c -20.755,365.4045 -133.6112,737.3809 -347,949 l 14,12 c 311.8561,-138.3039 499.6602,-452.6581 555,-955 z" id="path1545" sodipodi:nodetypes="ccccc"></path>
      <path sodipodi:nodetypes="ccccc" id="path1562" d="m 1191,910 c -22.5017,304.2947 -109.2908,624.6635 -277,846 l 15,6 c 245.7914,-114.3807 417.9663,-408.4549 480,-846 z"></path>
      <path d="M 939.312,280.349 V 578.2612 C 939.312,1100.7087 895.24531,1385.0007 710,1687 l 18,5 c 234.35412,-132.1616 416.0789,-441.5799 416.392,-1035 l 0.198,-375.249 z" id="path1574" sodipodi:nodetypes="csccscc"></path>
      <path sodipodi:nodetypes="cccccssccsscccc" d="M 495.47,1594.91 H 370.87 V 524.13999 c 39.73,0 65.01,-21.67 66.81,-43.34 l -270.1,-28.89 V 1739.18 c 0,38.25 203.3,15.01 203.3,-47.04 v -48 h 124.6 v 45.9 c 0,37.183 203.3,15.975 203.3,-58.04 V 536.12999 c 39.73,0 65.01,-21.67 66.81,-43.34 l -270.1,-28.89 z" id="path1582"></path>
      <path sodipodi:nodetypes="ccscccc" d="m 22,868.33299 13.08,49.01 h 848.98148 c 16.86,0 27.23,-11.08 27.23,-16.26 L 765,739.78299 l -87.90852,128.6 z" id="path1589"></path>
      <path id="path1592" d="m 1757,106.449 -123,146.34 -926.8966,-0.05 13.0801,49.012 h 1194.3791 c 16.86,0 27.2305,-11.082 27.2305,-16.262 z" sodipodi:nodetypes="ccccscc"></path>
      <path sodipodi:nodetypes="ccccscc" d="m 1607.4374,433.698 -123,146.34 L 1051,579.988 1064.0801,629 H 1765 c 16.86,0 27.2305,-11.082 27.2305,-16.262 z" id="path1607"></path>
    
</svg>
