<?xml version="1.0" encoding="UTF-8" standalone="no"?>
<svg viewBox="0 0 2000 2000" version="1.1" xmlns="http://www.w3.org/2000/svg" xmlns:sodipodi="http://sodipodi.sourceforge.net/DTD/sodipodi-0.dtd">
	
      <path sodipodi:nodetypes="ccscccc" id="path3679" d="m 54.52,1036.55 13.08,51.01 h 1859 c 16.86,0 27.23,-11.08 27.23,-16.26 l -198.2,-177.3 -119.1,142.6 z"></path>
      <path sodipodi:nodetypes="cccccccccssccssccccccccccccc" id="path3681" d="m 893.1,857.54 203.3,1.957 v -631.3 l -203.3,0.6918 z m 536.3,-747.1 -95.1,91.71 H 672.6 L 441.3,146.08 v 782.1 c 0,38.25 212.08235,26.43646 203.3,-35.04 v -14 h 700.3 v 47.9 c 0,28.04 203.3,10.03 203.3,-46.04 V 276 c 33.56,0 78.32,-28.04 78.32,-42.05 z m -784.8,140.8 h 700.3 v 261.1 H 644.6 Z m 0,312.3 h 700.3 v 264.5 H 644.6 Z"></path>
      <path d="m 893.1,1873.2 203.3,1.957 v -627.3 l -203.3,0.6918 z m 552.3,-743.1 -95.1,91.71 H 656.6 l -231.3,-56.07 v 778.1 c 0,38.25 194.51764,26.4365 203.3,-35.04 v -14 h 732.3 v 47.9 c 0,28.04 203.3,10.03 203.3,-46.04 v -601 c 33.56,0 78.32,-28.04 78.32,-42.05 z m -816.8,140.8 h 732.3 V 1530 H 628.6 Z m 0,310.3 h 732.3 v 262.5 H 628.6 Z" id="path3685" sodipodi:nodetypes="cccccccccssccssccccccccccccc"></path>
    
</svg>
