<?xml version="1.0" encoding="UTF-8" standalone="no"?>
<svg viewBox="0 0 2000 2000" version="1.1" xmlns="http://www.w3.org/2000/svg" xmlns:sodipodi="http://sodipodi.sourceforge.net/DTD/sodipodi-0.dtd">
	
      <path sodipodi:nodetypes="ccscccc" d="m 299.9,594.87 13.08,49.01 h 1419 c 16.86,0 27.23,-11.08 27.23,-16.26 l -198.2,-177.3 -119.1,144.6 z" id="path1485"></path>
      <path d="M 412.9,170.2 C 494.14,263.67 559.3,383.8 615,520.9 690.84,590.04 854.46373,514.03742 788.5,375.3 736,264.88 570,189.88 423.9,164.6 Z" id="path1487" sodipodi:nodetypes="ccscc"></path>
      <path sodipodi:nodetypes="cccccc" d="M 1922,1128.09 C 1436,1087 1141,811 1085,447 l -51,118 c 26,358 340.95,667 654,750.8 51.4,-94.93 108,-139.8 224.85,-160.8 z" id="path1489"></path>
      <path sodipodi:nodetypes="csccsccc" d="M 897.8,64.78 891,305 C 878.03522,763 637,1102 141.12,1308.19 l 23.31,16.73 C 718,1220 1069.3218,843.03073 1085,447 l 12,-303.12 c 35.31,-5.481 61.72,-33.94 63,-55 z" id="path1491"></path>
      <path d="m 1363,123 c -35.88,125.4 -102.3,283.2 -178.2,420.8 l 16.76,11.48 c 132,-65.51 275.4,-173.2 366.6,-280.4 15.18,1.712 45.94,-8.426 56.39,-32.53 z" id="path1493" sodipodi:nodetypes="cccccc"></path>
      <path id="path1497" d="m 1366,1199.5213 -111,122.339 -803,-0.05 13.08,49.012 h 429.6289 l -0.01,601.2167 C 894.69832,2006.9159 1098,1976.0757 1098,1914 v -543.1787 h 435.5646 c 16.86,0 27.2305,-11.082 27.2305,-16.262 z" sodipodi:nodetypes="cccccsscscc"></path>
    
</svg>
