<?xml version="1.0" encoding="UTF-8" standalone="no"?>
<svg viewBox="0 0 2000 2000" version="1.1" xmlns="http://www.w3.org/2000/svg" xmlns:sodipodi="http://sodipodi.sourceforge.net/DTD/sodipodi-0.dtd">
	
      <path id="path2393" d="m 1020,1776 c 253.6796,-97.8968 485.6866,-314.4806 618,-488 33.2251,1.5934 62.98,-24.53 64.1,-30.82 l -222.9,-148.7 -120.1,115.5 H 316.32 l 15.42,48.84 H 1360.22 C 1288.2765,1421.5365 1161.7232,1600.7516 1006,1719 Z" sodipodi:nodetypes="cccccccccc"></path>
      <path id="path2395" d="M 680.924,1553.7493 C 775,1644 920.12,1819.8293 997.12,1966.4623 1083,2020.8293 1217,1929 1147,1795 1084.671,1675.685 896,1589 693.924,1540.7493 Z" sodipodi:nodetypes="ccscc"></path>
      <path sodipodi:nodetypes="ccccssccssccccccccccccc" id="path2403" d="m 1438.5,121.9 -95.1,91.71 H 673.7 L 442.4,157.54 v 894.1 c 0,38.25 203.3,17.82 203.3,-35.04 v -40 H 1354 v 73.9 c 0,28.04 203.3,10.03 203.3,-46.04 v -717 c 33.56,0 78.32,-28.04 78.32,-42.05 z M 645.7,262.7 H 1354 V 557.8 H 645.7 Z m 0,346.3 H 1354 V 925.5 H 645.7 Z"></path>
    
</svg>
