<?xml version="1.0" encoding="UTF-8" standalone="no"?>
<svg viewBox="0 0 2000 2000" version="1.1" xmlns="http://www.w3.org/2000/svg" xmlns:sodipodi="http://sodipodi.sourceforge.net/DTD/sodipodi-0.dtd">
	
      <path sodipodi:nodetypes="cccccc" d="m 872.399,1092.49 98.839,298.709 c 20.763,-3.577 38.8327,-36.8713 38.887,-58.236 224.689,-74.5715 417.2197,-155.7832 614.7442,-235.963 v -35 c -236.8973,19.5672 -493.6959,25.9725 -752.4702,30.49 z" id="path1583"></path>
      <path id="path1585" d="m 1445.2558,843.06977 c 63,107.00003 142.591,300.46903 185,498.00003 85,48 233.115,-6.842 200,-160 -32,-148 -193,-281.00001 -372,-351.00003 z" sodipodi:nodetypes="ccscc"></path>
      <path sodipodi:nodetypes="cccccc" d="m 1065,1166 c 168.3692,-200.8248 299.0601,-471.80395 406.8636,-804.77699 27.3072,2.23273 67.6958,-19.11217 74.2196,-48.22301 L 1214,244 c -29,225 -94.2344,594.95436 -195,919 z" id="path1587"></path>
      <path sodipodi:nodetypes="cccccc" d="M 1984,1635.93 C 1053.6153,1671.0633 700,1547 593.21662,885 L 553,957 c 35,789 517,959 1234,903.9 27,-84.9 107,-158.9 182.2,-186.9 z" id="path1577"></path>
      <path sodipodi:nodetypes="csccsccc" d="m 379.82,388 0.55,277 C 381.36604,1166.6408 268.95374,1589.7407 35,1873 l 22,7 C 407.91018,1703.1744 601.32,1225.313 601.32,689.53 V 472.18 c 42.02,0 70.66,-33.68 70.68,-51.51 z" id="path1579"></path>
      <path sodipodi:nodetypes="csccccc" d="M 109.45,885 H 905 c 16.85,0 27.23,-11.08 27.23,-16.26 L 738.37,689 622.93,837.94 91.37,837.99 Z" id="path1581"></path>
    
</svg>
