<?xml version="1.0" encoding="UTF-8" standalone="no"?>
<svg viewBox="0 0 2000 2000" version="1.1" xmlns="http://www.w3.org/2000/svg" xmlns:sodipodi="http://sodipodi.sourceforge.net/DTD/sodipodi-0.dtd">
	
      <path sodipodi:nodetypes="ccscc" id="path3323" d="m 552.66544,1469.25 c 150.5396,83.539 386.6914,296.261 529.00586,459.263 101.8103,42.487 229.0456,-71.241 119.8103,-197.513 -109,-126 -406.99996,-241 -635.81026,-274.487 z"></path>
      <path d="M 743,279 C 677.113,486.2748 474.113,950.4108 129.113,1335.8166 l 21,5 c 231,-87.5046 603,-486.3358 826,-950 31.3659,5.5462 66.6873,-11.5773 76.5944,-35.9154 z" id="path3336" sodipodi:nodetypes="cccccc"></path>
      <path id="path3339" d="m 954,1696 c 344.3053,-188.7008 659.1981,-606.1754 838.78,-940.64047 47.0324,0 62.98,-25.70953 64.1,-31.99953 l -222.9,-156.7 -130.1,123.5 H 724 L 739.42,739 H 1505 c -120.0338,301.7356 -331.1823,665.3526 -591,905.2703 z" sodipodi:nodetypes="cccccccccc"></path>
    
</svg>
