<?xml version="1.0" encoding="UTF-8" standalone="no"?>
<svg viewBox="0 0 2000 2000" version="1.1" xmlns="http://www.w3.org/2000/svg" xmlns:sodipodi="http://sodipodi.sourceforge.net/DTD/sodipodi-0.dtd">
	
      <path sodipodi:nodetypes="csccscc" id="path2599" d="M 1106.06,436.83213 V 690 c 0,555.2039 -115.06,946 -325.06,1222 l 20,9 c 275.7725,-142.9619 527.1995,-508.0124 523.06,-1189 l 0.2143,-293.76587 z"></path>
      <path sodipodi:nodetypes="ccccscc" d="m 1729.06,262.93213 -123,146.34 -718.4802,-0.05 13.0801,49.012 h 985.9627 c 16.86,0 27.2305,-11.082 27.2305,-16.262 z" id="path2601"></path>
      <path sodipodi:nodetypes="cccccssscccsscccc" d="m 1561.4473,654 -105.4844,91.7109 H 1236 l 14,49.0899 h 216.4629 V 1599 c 0,140 43,285 206,285 h 192 c 69,0 133,-103 63,-184 l 22.6191,-245 -20,-4 c -28.3809,109 -73,237 -130,237 h -35 c -60,0 -84.997,-43.2294 -85,-98 l -0.059,-770.4805 c 33.56,0 78.3204,-28.0388 78.3204,-42.0488 z" id="path2603"></path>
      <path d="m 32,1052.05 13.08,49.01 h 971.99 c 16.86,0 27.23,-11.08 27.23,-16.26 L 891.28572,912.5 789,1052 Z" id="path2607" sodipodi:nodetypes="ccscccc"></path>
      <path id="path2620" d="m 10,1594 99.26,287.9 c 20.77,-3.536 38.91,-30.39 39,-58.16 L 982.906,1543.93 991,1512 Z" sodipodi:nodetypes="cccccc"></path>
      <path sodipodi:nodetypes="cccccccccc" id="path2629" d="M 527.5,1602 752.7,1579.8 855,610.63 c 27.22,0 58.5,-25.14 58.5,-31.43 L 727.8,452.6 623.5,554 H 100.2 l 15.42,48.34 h 521.3 z"></path>
      <path d="M 195.5,1602 420.7,1579.8 523,597 380,570 304.92,602.34 Z" id="path2632" sodipodi:nodetypes="cccccc"></path>
    
</svg>
