<?xml version="1.0" encoding="UTF-8" standalone="no"?>
<svg viewBox="0 0 2000 2000" version="1.1" xmlns="http://www.w3.org/2000/svg" xmlns:sodipodi="http://sodipodi.sourceforge.net/DTD/sodipodi-0.dtd">
	
      <path sodipodi:nodetypes="cccccssccsscccc" d="m 1658.7851,1252.41 h -548.69 l 4.29,-412.36 c 39.73,0 65.01,-33.67 66.81,-55.34 l -278.09997,-20.89 -4.29,613.36 c -0.26752,38.2487 231.89577,-14.0868 211.29997,-47.04 v -32 h 548.69 v 61.9 c 0,28.04 210.794,-1.9738 211.3,-58.04 l 4.29,-475.36 c 39.73,0 65.01,-25.67 66.81,-47.34 l -278.1,-28.89 z" id="path1775"></path>
      <path sodipodi:nodetypes="csccsccc" d="m 1299.5152,570 v 685 c 0,282.131 -86.4201,525.258 -330.71007,688.702 l 22,12.298 c 293.28997,-95.33 507.91017,-301 507.91017,-651.807 V 640.52 c 38.55,0 63.08,-21.03 64.83,-42.05 z" id="path1777"></path>
      <path id="path1779" d="m 1049,401.55 13.08,47.01 h 876.89 c 16.86,0 27.23,-11.08 27.23,-16.26 L 1768,255 1648.9,401.6 Z" sodipodi:nodetypes="ccscccc"></path>
      <path sodipodi:nodetypes="ccscccc" d="m 64.59,492.95 13.08,49.01 h 693.2 c 16.86,0 27.23,-11.08 27.23,-16.26 L 612,343.9 488,493 Z" id="path1783"></path>
      <path sodipodi:nodetypes="cccccc" d="m 17.09,997.26 89.26,287.9 c 20.77,-3.536 38.89841,-29.8988 39,-58.16 l 670.74,-264.74 6,-28 z" id="path1785"></path>
      <path id="path1787" d="m 768,803 c 138.10548,-90.04215 332.5758,-334.012 452.665,-581.25 34.6991,1.97704 59.7,-19.92 64.78,-38.99 L 958.945,112 C 933.55552,249.5386 856.54871,557.51121 749,803 Z" sodipodi:nodetypes="cccccc"></path>
      <path id="path1527" d="m 536.79001,525 -203.28997,-10.11763 -4.29,1366.15763 c -0.13456,42.8522 203.10722,11.9098 203.29997,-47.04 z" sodipodi:nodetypes="ccssc"></path>
    
</svg>
