<?xml version="1.0" encoding="UTF-8" standalone="no"?>
<svg viewBox="0 0 2000 2000" version="1.1" xmlns="http://www.w3.org/2000/svg" xmlns:sodipodi="http://sodipodi.sourceforge.net/DTD/sodipodi-0.dtd">
	
      <path d="m 897.6,1836 203.3,13.77 v -476.7 c 39.73,10e-5 65.01,-21.67 66.81,-43.34 l -270.1,-28.89 z m -781.9,-21.04 13.08,49.01 h 1757 c 16.86,0 27.23,-11.08 27.23,-16.26 l -198.2,-197.3 -119.1,164.6 z" id="path3585" sodipodi:nodetypes="ccccccccscccc"></path>
      <path sodipodi:nodetypes="ccccssccsscccccccc" d="m 1510,287.7 -95.1,91.71 H 603 L 371.7,323.34 v 900.1 c 0,53.6 203.3,37.16 203.3,-39.04 v -20 h 850.4 v 57.9 c 0,39.12 203.3,18.5 203.3,-50.04 v -719 c 33.56,0 78.32,-28.04 78.32,-42.05 z m -84.58,827.5 H 575.02 V 428.4 h 850.4 z" id="path3587"></path>
      <path sodipodi:nodetypes="ccccc" id="path3598" d="m 486,746.95 13.08,49.01 H 1552.5 L 1535.71,747 Z"></path>
    
</svg>
