<?xml version="1.0" encoding="UTF-8" standalone="no"?>
<svg viewBox="0 0 2000 2000" version="1.1" xmlns="http://www.w3.org/2000/svg" xmlns:sodipodi="http://sodipodi.sourceforge.net/DTD/sodipodi-0.dtd">
	
      <path id="path3230" d="M 1912,1689.99 C 1561,1609.06 1110.9279,1312.06 1089.6103,649.06 L 1024,796.06 c 0,591 372,1016 636,1114.9 39.6545,-86.5776 131,-175.9 243.2,-194.9 z" sodipodi:nodetypes="cccccc"></path>
      <path id="path3238" d="m 861.45,424.06 0.55,183 c 1.85136,615.9988 -217,1048 -750,1301 l 36,17 c 568,-116 933.7873,-583.0182 940.95,-1234.18 l 2,-181.82 c 42.02,0 70.66,-34.5 70.68,-52.33 z" sodipodi:nodetypes="csccsccc"></path>
      <path id="path3240" d="m 211.08,909.12 h 1584.55 c 16.85,0 27.23,-11.08 27.23,-16.26 L 1617,717.12 1497,860.06 193,860.11 Z" sodipodi:nodetypes="csccccc"></path>
      <path sodipodi:nodetypes="csccccc" d="m 151.08,391 h 1704.55 c 16.85,0 27.23,-11.08 27.23,-16.26 L 1677,199 1557,341.94 133,341.99 Z" id="path3247"></path>
    
</svg>
