<?xml version="1.0" encoding="UTF-8" standalone="no"?>
<svg viewBox="0 0 2000 2000" version="1.1" xmlns="http://www.w3.org/2000/svg" xmlns:sodipodi="http://sodipodi.sourceforge.net/DTD/sodipodi-0.dtd">
	
      <path sodipodi:nodetypes="ccccsccccccc" d="m 885,291 1,547 H 185 l 18,49 h 1615 c 16,0 27,-11 27,-16 L 1624,679 1511,838 H 1115 V 375 c 42,0 71,-33 71,-51 z" id="path1334"></path>
      <path sodipodi:nodetypes="cccccc" d="m 613,1097 c -80,292 -252,550 -435,737 l 20,13 c 190,-84 488,-303 652,-645 39,-4 53,-17 62,-42 z" id="path1328"></path>
      <path sodipodi:nodetypes="ccscc" d="m 1140,1126 c 153,137 294,336 383,652 123,74 280,-24 220,-183 -97,-257 -357,-423 -589,-478 z" id="path1330"></path>
    
</svg>
