<?xml version="1.0" encoding="UTF-8" standalone="no"?>
<svg viewBox="0 0 2000 2000" version="1.1" xmlns="http://www.w3.org/2000/svg" xmlns:sodipodi="http://sodipodi.sourceforge.net/DTD/sodipodi-0.dtd">
	
      <path id="path2802" d="M 1164.1387,1053.07 H 1705.649 C 1668,1277 1622.9643,1488.8766 1558.08,1684 c -4.7123,14.1712 -24.26,28.6879 -33.711,27.65 l -217.5,-21.69 2.211,28.14 c 111.4,39.94 188.3,143.1 187.2,224.9 98.42,8.252 215.1765,-35.5561 261.8,-191 62.503,-208.3866 115.92,-425 159.92,-688.31 18.7,-2.854 38.84,-18.07 46.94,-34.49 l -185.4,-131.2 -108.8,106.7 h -522.2 z" sodipodi:nodetypes="ccsscccscccccc"></path>
      <path d="m 1075.6908,493.48 -113.1914,640.48 c -11.31426,64.0204 217.2377,38.591 230.5006,-33.48 L 1291.7258,564 c 36.668,6e-5 60.4096,-23.03 65.4875,-44.05 z" id="path2804" sodipodi:nodetypes="cssccc"></path>
      <path d="m 1576.68,827.89 c -11.9296,71.27201 220.7609,54.19185 233.2,-22.2 l 72.2,-443.4 c 27.22,0 58.5,-25.14 58.5,-31.43 l -185.7,-126.6 -104.3,101.4 H 997.28 L 1012.7,354 H 1656 Z" id="path2806" sodipodi:nodetypes="sscccccccs"></path>
      <path sodipodi:nodetypes="ccccssccsccccsccc" d="m 793.423,531.48 -95.1,91.71 h -402 l -231.3,-56.07 v 796.5 c 0,48.24 203.54158,21.8196 203.3,-55.04 v -636.3 h 440.5 v 407.5 c 0,21.03 -15.21,27.48 -23.71,26.31 l -134,-18.54 -0.713,22.75 C 638.6,1135.43 672,1201 684.2,1321.6 871.7,1307.58 912,1220 912,1078 V 697 c 33.56,0 78.32,-28.04 78.32,-42.05 z" id="path2810"></path>
      <path sodipodi:nodetypes="sscccs" d="m 378.323,1894.88 c -3e-4,54.12 203.3,16.12 203.3,-58.04 V 268.23 c 39.73,10e-5 65.01,-21.67 66.81,-43.34 L 378.333,196 Z" id="path2812"></path>
    
</svg>
