<?xml version="1.0" encoding="UTF-8" standalone="no"?>
<svg viewBox="0 0 2000 2000" version="1.1" xmlns="http://www.w3.org/2000/svg" xmlns:sodipodi="http://sodipodi.sourceforge.net/DTD/sodipodi-0.dtd">
	
      <path id="path2088" d="m 227.51,449.535 13.08,49.01 h 1539 c 16.86,0 27.23,-11.08 27.23,-16.26 l -198.2,-177.3 -119.1,144.6 z" sodipodi:nodetypes="ccscccc"></path>
      <path sodipodi:nodetypes="cccccc" d="m 344,1097 86.5633,279.8494 c 20.7631,-3.5763 38.786,-30.2925 38.8871,-58.2356 L 1484,1012 l 16,-49 z" id="path2097"></path>
      <path id="path2099" d="m 1267.2557,795.99998 c 63,107 142.5909,300.46912 185,498.00002 85,48 233.1152,-6.842 200,-160 -32,-148 -187,-275.00002 -366,-345.00002 z" sodipodi:nodetypes="ccscc"></path>
      <path d="m 1267.69,1859.91 h -530.6 v -437.9 c 39.73,10e-5 65.01,-21.67 66.81,-43.34 l -270.1,-28.89 v 610.4 c 0,38.25 203.3,15.01 203.3,-47.04 v -12 h 530.6 v 57.9 c 0,35.5516 203.3,13.8359 203.3,-58.04 v -479 c 39.73,10e-5 65.01,-21.67 66.81,-43.34 l -270.1,-28.89 z" id="path2103" sodipodi:nodetypes="cccccssccsscccc"></path>
      <path d="m 57.21,1582.91 13.08,51.01 h 1859 c 16.86,0 27.23,-11.08 27.23,-16.26 l -198.2,-183.3 -119.1,148.6 z" id="path2105" sodipodi:nodetypes="ccscccc"></path>
      <path d="M 1263.36,72.415 C 1005,481 637.49998,812.4222 48,1004 l 25.62002,18 C 664,952 1120.62,652.85686 1476.62,210.985 c 51.23,5.60056 66.93,-10.08 77.38,-34.19 z" id="path2109" sodipodi:nodetypes="cccccc"></path>
      <path d="M 476,118.7 C 534.98832,171.34 627.48515,299.3 680,411.6 807.04554,447.77 904.4,348.53 827.4,245 756.32,149.49 594.3,119.7 488.7,110.1 Z" id="path2111" sodipodi:nodetypes="ccccc"></path>
      <path sodipodi:nodetypes="cccccc" id="path2118" d="M 799,1178.9 V 888 c 39.73,10e-5 65.01,-21.67 66.81,-43.34 l -270.1,-28.89 v 373.13 z"></path>
    
</svg>
