<?xml version="1.0" encoding="UTF-8" standalone="no"?>
<svg viewBox="0 0 2000 2000" version="1.1" xmlns="http://www.w3.org/2000/svg" xmlns:sodipodi="http://sodipodi.sourceforge.net/DTD/sodipodi-0.dtd">
	
      <path sodipodi:nodetypes="ccccsccsccsscccsccc" id="path3600" d="m 1317.6,1145.48 -101.1,91.71 H 810.477 l -237.3,-56.07 v 243.36 c 0,225.52 -27.177,421.52 -180,550.62 l 25.977,3.38 C 639,1928 781.75914,1749 782.154,1494.48 l 0.323,-208.2 H 1227 v 452.98 c 0,21.03 -15.1944,27.3608 -23.71,26.31 l -185.113,-23.09 -0.713,26.75 c 88.2,25.13 164.713,77.25 184.913,215.85 187.5,-14.02 233.8,-101.6 233.8,-243.6 V 1311 c 33.56,0 78.32,-28.04 78.32,-42.05 z"></path>
      <path sodipodi:nodetypes="csccccc" d="m 82.08,1517.54 h 1873.99 c 16.85,0 27.23,-11.08 27.23,-16.26 L 1790.44,1344.54 1680,1468.48 64,1468.53 Z" id="path3603"></path>
      <path sodipodi:nodetypes="ccssc" d="M 1098.39,215.8805 891.1,217.2 v 191.7049 c 0,38.25 207.3043,15.01 207.3,-47.04 z" id="path3617"></path>
      <path d="m 194.52,176.19 13.08,51.01 h 1579 c 16.86,0 27.23,-11.08 27.23,-16.26 l -198.2,-177.3 -119.1,142.6 z" id="path3619" sodipodi:nodetypes="ccscccc"></path>
      <path d="m 891.1,1054.54 207.3,1.957 v -571.3 l -207.3,0.6918 z m 542.3,-687.1 -95.1,91.71 H 668.6 L 437.3,403.08 v 736.1 c 0,38.25 203.3,27.0606 203.3,-35.04 v -28 h 708.3 v 61.9 c 0,28.04 203.3,10.03 203.3,-46.04 V 533 c 33.56,0 78.32,-28.04 78.32,-42.05 z m -792.8,140.8 h 708.3 v 235.1 H 640.6 Z m 0,286.3 h 708.3 v 230.5 H 640.6 Z" id="path3621" sodipodi:nodetypes="cccccccccssccssccccccccccccc"></path>
    
</svg>
