<?xml version="1.0" encoding="UTF-8" standalone="no"?>
<svg viewBox="0 0 2000 2000" version="1.1" xmlns="http://www.w3.org/2000/svg" xmlns:sodipodi="http://sodipodi.sourceforge.net/DTD/sodipodi-0.dtd">
	
      <path id="path3120" d="M 174.85247,1628.9876 275,1933 c 20.70328,-2.9248 39.44398,-30.247 40.42528,-57.353 L 1699.9683,1569.9188 1703,1538 Z" sodipodi:nodetypes="cccccc"></path>
      <path sodipodi:nodetypes="ccscc" d="m 1405,1270 c 72.8757,138.7992 164.943,389.7651 214,646 76,53 239.3982,34.6338 224,-151 -18,-217 -220.4973,-406.6895 -425,-508 z" id="path3122"></path>
      <path id="path3131" d="m 237.64,801.06 h 1573.99 c 16.85,0 27.23,-11.08 27.23,-16.26 L 1646,606.06 1529.56,750 l -1310,0.05 z" sodipodi:nodetypes="csccccc"></path>
      <path d="m 894,218.48 v 1472 L 1105.2,1641 V 289 c 38.55,6e-5 59.08,-21.03 60.83,-42.05 z" id="path3134" sodipodi:nodetypes="cccccc"></path>
    
</svg>
