<?xml version="1.0" encoding="UTF-8" standalone="no"?>
<svg viewBox="0 0 2000 2000" version="1.1" xmlns="http://www.w3.org/2000/svg" xmlns:sodipodi="http://sodipodi.sourceforge.net/DTD/sodipodi-0.dtd">
	
      <path sodipodi:nodetypes="ccccccccccccc" id="path2265" d="m 1510.423,184.48 -95.1,91.71 H 1197.36 l -231.3,-56.07 -0.037,826.36 202.977,4 0.36,-725.2 h 256.463 v 718.98 L 1629,1046.48 V 350 c 33.56,0 78.32,-28.04 78.32,-42.05 z"></path>
      <path id="path2267" d="m 601,1809.85 13.08,49.01 h 1354.9 c 13.32,0 21.52,-11.08 21.52,-16.26 L 1840.1859,1678 1755,1809.9 Z" sodipodi:nodetypes="ccscccc"></path>
      <path d="m 1682,932 -108,91.71 h -518.64 l -231.3,-56.07 -0.037,860.36 202.977,4 0.36,-759.2 h 538.463 v 752.98 L 1769,1828 v -730.48 c 33.56,0 78.32,-28.04 78.32,-42.05 z" id="path2269" sodipodi:nodetypes="ccccccccccccc"></path>
      <path sodipodi:nodetypes="ccscc" d="M 402.7539,1081.4908 C 463.1762,1139.4499 564.6349,1311.8806 594,1473 c 83,45 207,6 186,-130 -25.34417,-164.1336 -225.6127,-254.9761 -364.5461,-271.2092 z" id="path2288"></path>
      <path d="m 43.59,769.55 13.08,49.01 h 758.3 c 16.86,0 27.23,-11.08 27.23,-16.26 L 676,630 564.9,769.5 Z" id="path2290" sodipodi:nodetypes="ccscccc"></path>
      <path sodipodi:nodetypes="cccsccsc" d="m 537.5671,383.918 c 21.51,0.6762 63.66,-18.94 70.66,-45.84 L 316.0571,308 v 332 c 0,544 -66.46129,954 -288.0571,1255.5 l 22,5.918 C 365,1707.9982 537.5671,1295.5245 537.5671,692 Z" id="path2294"></path>
    
</svg>
