<?xml version="1.0" encoding="UTF-8" standalone="no"?>
<svg viewBox="0 0 2000 2000" version="1.1" xmlns="http://www.w3.org/2000/svg" xmlns:sodipodi="http://sodipodi.sourceforge.net/DTD/sodipodi-0.dtd">
	
      <path id="path1314" d="m 1460,155 -95,92 H 607 L 370,191 v 267 c 0,878 -59,1159 -314,1512 l 21,7 C 407,1812 571,1433 577,592 l 2,-296 h 805 v 429 c 0,592 123,1018 339,1197 113,94 204,-31 173,-113 l 23,-270 -22,-15 c -36,181 -68,211 -100,177 C 1674,1567 1579,1222 1579,678 V 308 c 34,0 52,-15 52,-29 z" sodipodi:nodetypes="ccccsccsccscccccsccc"></path>
      <path sodipodi:nodetypes="ccscc" d="m 721,530 c 94,74 246,262 325,407 123,55 237,-82 159,-196 C 1135,638 951,555 734,517 Z" id="path1308"></path>
      <path id="path1312" d="m 721,1067 c 94,84 247,299 327,463 96,48 232,-40 170,-179 -54,-121 -246,-232 -484,-297 z" sodipodi:nodetypes="ccscc"></path>
    
</svg>
