<?xml version="1.0" encoding="UTF-8" standalone="no"?>
<svg viewBox="0 0 2000 2000" version="1.1" xmlns="http://www.w3.org/2000/svg" xmlns:sodipodi="http://sodipodi.sourceforge.net/DTD/sodipodi-0.dtd">
	
      <path id="path2958" d="m 151.03678,514.54056 c 172.56,118.1 383.52368,322.63552 530.56,523.10004 C 813,1082 938.33008,950.93738 822,807 695.40322,650.35944 415.79951,547.48097 165.13678,498.14056 Z" sodipodi:nodetypes="ccscc"></path>
      <path id="path2960" d="M 41.54,1173 C 402.44649,1044.0894 665.99452,778.32802 900,459.7 c 26.27359,2.15256 61.53,-6.188 75.64,-36.76 L 700.54,323.66 C 522.79765,642.98386 316.29373,919.90605 27.54,1160 Z" sodipodi:nodetypes="cccccc"></path>
      <path sodipodi:nodetypes="cccccc" id="path2962" d="m 190.54,1230 c -37.00316,223.4581 -104.92821,402.2885 -179,535 l 21,5 c 111.37571,-57.569 283.15098,-209.449 379.18,-444.744 22.87645,-2.7433 52.99,-16.98 62.05,-41.64 z"></path>
      <path sodipodi:nodetypes="csscccsccc" id="path2965" d="m 453.396,1036.2 v 665.4 c 0,21.03 -9.63365,27.4361 -23.71,26.31 l -202,-16.32 -1.181,22.75 c 127.3,35.07 187.9,94.31 202.3,209.1 187.5,-14.02 233.8,-101.6 233.8,-243.6 v -583.6 c 38.55,-3.867 63.08,-30.97 64.83,-52 z"></path>
      <path sodipodi:nodetypes="ccscc" id="path2967" d="m 653.1,1243 c 57.31086,84.6378 110.0683,207.91 143.4,403 87.13741,60.8294 221,0 189,-144 C 951.02375,1346.8569 786.66779,1269.1652 667,1234 Z"></path>
      <path d="m 1777.6909,1146.0408 -720.0117,-0.051 13.0801,49.0098 719.2207,4e-4 z" id="path2977" sodipodi:nodetypes="ccccc"></path>
      <path d="m 1323.5894,602.9963 -0.01,1157.0879 195.3008,0.01 V 603.0004 Z" id="path2979" sodipodi:nodetypes="ccccc"></path>
      <path id="path2981" d="m 1751.98,475.5242 -95.1,91.71 h -453.9 l -231.3,-56.07 v 1320.1 c 0,47.3058 203.3,27.5859 203.3,-39.04 v -8 h 492.4 v 53.9 c 0,39.12 203.3,18.5 203.3,-50.04 v -1147 c 33.56,0 78.32,-28.04 78.32,-42.05 z m -84.58,1261.5 H 1175 v -1120.8 h 492.4 z" sodipodi:nodetypes="ccccssccsscccccccc"></path>
    
</svg>
