<?xml version="1.0" encoding="UTF-8" standalone="no"?>
<svg viewBox="0 0 2000 2000" version="1.1" xmlns="http://www.w3.org/2000/svg" xmlns:sodipodi="http://sodipodi.sourceforge.net/DTD/sodipodi-0.dtd">
	
      <path d="m 17,1945.5703 22,12 C 383,1916 647,1759 920.2598,1491.5703 960,1497 991.1906,1473.4909 1001.6406,1449.3809 L 746,1299 C 550,1573 352,1811 17,1945.5703 Z" id="path2694"></path>
      <path d="m 51,1458.2851 20.5,11.5 c 308,-74.9764 545.5,-270.5297 769.3599,-519.97995 30.98419,3.58647 66.2304,-12.1337 78.5104,-39.4747 L 653,785.5 C 519,1012.8499 327.5,1289.6318 51,1458.2851 Z" id="path2692"></path>
      <path d="m 85,971 19,11 C 376,873.61732 587,639.51073 761.46,408.04 c 22.22818,1.74324 61.53,-6.188 75.64,-36.76 L 560,272 C 488,452.69987 303,768.26356 85,971 Z" id="path2672"></path>
      <path sodipodi:nodetypes="cssscccsssccc" d="m 1074.3809,239 v 1392 c 0,140 43,285 206,285 h 585 c 69,0 133,-103 63,-184 L 1951,1487 l -20,-4 c -28.3809,109 -73,237 -130,237 h -422 c -60,0 -90.9966,-43.2294 -91,-98 l -0.08,-1306.59961 c 32.42,0.6762 63.6601,-18.93984 70.6601,-45.83984 z" id="path2682"></path>
      <path d="m 1693,445 c -167,310 -501.0763,587.4581 -909,749 l 27,12 c 424.7498,-52.0854 794,-252 1077.086,-640.42969 24.5027,0.46451 51.512,-10.07945 59.5546,-34.18945 z" id="path2684" sodipodi:nodetypes="cccccc"></path>
    
</svg>
