<?xml version="1.0" encoding="UTF-8" standalone="no"?>
<svg viewBox="0 0 2000 2000" version="1.1" xmlns="http://www.w3.org/2000/svg" xmlns:sodipodi="http://sodipodi.sourceforge.net/DTD/sodipodi-0.dtd">
	
      <path sodipodi:nodetypes="ccscccc" d="m 69,1815.85 13.08,49.01 h 1848.9 c 13.32,0 21.52,-11.08 21.52,-16.26 L 1745,1656 1611,1815.9 Z" id="path2453"></path>
      <path sodipodi:nodetypes="ccccssccsccccsccc" d="m 1523.5874,352.5863 -95.1,91.71 H 586.96505 l -231.3,-56.07 v 704.5 c 0,48.24 203.3,21.82 203.3,-55.04 v -544.3 h 880.02235 v 393.5 c 0,21.03 -15.21,27.48 -23.71,26.31 l -150,-18.54 -0.713,22.75 c 79.4356,26.2795 136.4356,109.2795 149.8,211.3 187.5,-14.02 227.8,-101.6 227.8,-243.6 v -367 c 33.56,0 78.32,-28.04 78.32,-42.05 z" id="path2457"></path>
      <path sodipodi:nodetypes="sscccs" d="m 898,1293.3 c -3e-4,36.98 203.3,15.05 203.3,-58.04 V 146.65 c 39.73,1e-4 65.01,-21.67 66.81,-43.34 L 898.01,74.42 Z" id="path2460"></path>
      <path id="path2472" d="m 399,1429.85 13.08,49.01 h 1178.9 c 13.32,0 21.52,-11.08 21.52,-16.26 L 1405,1270 1271,1429.9 Z" sodipodi:nodetypes="ccscccc"></path>
    
</svg>
