<?xml version="1.0" encoding="UTF-8" standalone="no"?>
<svg viewBox="0 0 2000 2000" version="1.1" xmlns="http://www.w3.org/2000/svg" xmlns:sodipodi="http://sodipodi.sourceforge.net/DTD/sodipodi-0.dtd">
	
      <path sodipodi:nodetypes="ccsscccscccccc" d="M 315.19866,450.50765 H 1401.709 C 1380,868 1351,1113 1278.909,1488.4377 c -2.8162,14.6661 -18.4712,18.4728 -27.96,17.87 l -215.5,-13.69 2.211,28.14 c 111.4,39.94 194.3,135.1 193.2,216.9 98.42,8.252 234.3008,-37.0615 261.8,-197 C 1560,1149 1584,908 1610.06,461.12765 c 18.7,-2.854 38.84,-18.07 46.94,-34.49 l -185.4,-131.2 -108.8,106.7 H 302.55163 Z" id="path2300"></path>
      <path sodipodi:nodetypes="ccccc" id="path2302" d="M 715,445.36646 C 685.94546,1009.7391 536,1491 262,1727.0559 L 290,1735 C 649,1589 905.84702,1180.9726 950,440 Z"></path>
      <path sodipodi:nodetypes="csccccc" d="m 72,1840 h 1858.63 c 16.85,0 27.23,-11.08 27.23,-16.26 L 1767,1641 1648.56,1788.94 53.92,1788.99 Z" id="path2306"></path>
    
</svg>
