<?xml version="1.0" encoding="UTF-8" standalone="no"?>
<svg viewBox="0 0 2000 2000" version="1.1" xmlns="http://www.w3.org/2000/svg" xmlns:sodipodi="http://sodipodi.sourceforge.net/DTD/sodipodi-0.dtd">
	
      <path sodipodi:nodetypes="ccscccc" d="m 219.9,926.3 13.08,49.01 h 1539 c 16.86,0 27.23,-11.08 27.23,-16.26 l -198.2,-177.3 -119.1,144.6 z" id="path1959"></path>
      <path sodipodi:nodetypes="ccscc" d="M 352.9,380.4 C 451.89119,496.49789 547.12938,645.70984 615,816 712.74587,886.09181 841.94058,804.11263 800,678 753.02151,536.73869 535.49066,422.09183 367.9,374.8 Z" id="path1961"></path>
      <path sodipodi:nodetypes="cccccc" d="M 1902,1746 C 1458,1592 1235,1274 1132,960 l -40,19 c 45,418 266,807 554.05,954.71 C 1697,1848 1782,1792 1892.85,1772.91 Z" id="path1963"></path>
      <path sodipodi:nodetypes="scccss" id="path1978" d="M 1106.85,1876 V 218.43 c 35.31,-5.481 60.3,-35.64 61.58,-56.7 L 893.8,139.9 v 1788.2234 c 0,47.9669 213.05,10.3868 213.05,-52.1234 z"></path>
      <path sodipodi:nodetypes="csccccc" id="path1965" d="m 808,952 c -1.40489,7.77779 -2.91672,15.54001 -4.41001,23.31 C 736,1327 505.01256,1702.3894 121.12,1906.1 l 19.31,10.73 C 608,1828 848,1485 944,1217 l 29,-258 z"></path>
      <path sodipodi:nodetypes="cccccc" d="M 1697.84,468.8 1423.84,347 C 1373.3341,492.12785 1279.8393,674.75285 1173,834 l 24,8 c 168.2211,-74.0041 324.5302,-211.94146 432,-343.12 22.4021,6.40135 58.39,-5.976 68.84,-30.08 z" id="path1967"></path>
    
</svg>
