<?xml version="1.0" encoding="UTF-8" standalone="no"?>
<svg viewBox="0 0 2000 2000" version="1.1" xmlns="http://www.w3.org/2000/svg" xmlns:sodipodi="http://sodipodi.sourceforge.net/DTD/sodipodi-0.dtd">
	
      <path id="path1294" d="m 168,433 13,47 h 1620 c 17,0 27,-11 27,-16 L 1630,286 1511,433 Z" sodipodi:nodetypes="ccscccc"></path>
      <path id="path1302" d="m 594,451 v 353 c 0,579 -108,827 -436,1070 l 27,11 C 618,1713 793,1409 793,867 V 447 Z" sodipodi:nodetypes="csccscc"></path>
      <path sodipodi:nodetypes="cscsssccsssc" d="m 1774,1479 20,4 -12,189 c 70,81 6,184 -63,184 h -357 c -163,0 -206,-145 -206,-285 V 451 l 199,-4 v 1115 c 0,55 31,98 91,98 h 215 c 46,0 90,-72 113,-181 z" id="path1306"></path>
    
</svg>
