<?xml version="1.0" encoding="UTF-8" standalone="no"?>
<svg viewBox="0 0 2000 2000" version="1.1" xmlns="http://www.w3.org/2000/svg" xmlns:sodipodi="http://sodipodi.sourceforge.net/DTD/sodipodi-0.dtd">
	
      <path sodipodi:nodetypes="cccccc" id="path3745" d="M 1987,1713 C 1857,1582 1672,970.2 1676.7,329 l -68.76,245.9 c 3.955,704.7 89.06,1169.1 218.7,1352 37.73,-119.6 105.2,-178.1 153,-194.7 z"></path>
      <path sodipodi:nodetypes="ccscc" id="path3747" d="m 350.1,1023.6 c 45.77973,64.0126 122.6512,254.4526 144.9,432.4 73,62 206,14 193,-111 -20.90962,-201.054 -201.26189,-311.2821 -325.2,-331.1 z"></path>
      <path sodipodi:nodetypes="ccscccc" id="path3749" d="m 24.52,718.3 13.08,49.01 h 652.3 c 16.86,0 27.23,-11.08 27.23,-16.26 l -169.2,-155.3 -108.1,122.5 z"></path>
      <path sodipodi:nodetypes="cccccc" id="path3751" d="m 1460,240.5 c 0,861.1 -76.57,1370 -307.9,1664 l 11.83,13.73 c 312.3,-186.9 517.6,-606.4 517.6,-1601 35.54,0 70.66,-30.56 70.66,-45.84 z"></path>
      <path sodipodi:nodetypes="cccccc" id="path3753" d="m 257.7,264.5 c -0.4269,736.4 -66.26,1313 -244.3,1654 l 19.91,5.918 c 298.7,-211.1 428.8,-758.9 445.9,-1584 21.51,0.6762 63.66,-18.94 70.66,-45.84 z"></path>
      <path sodipodi:nodetypes="ccscccc" id="path3755" d="m 1309,714.3 13.08,49.01 h 622.3 c 16.86,0 27.23,-11.08 27.23,-16.26 l -169.2,-155.3 -108.1,122.5 z"></path>
      <path id="path3088-5" d="m 520.74,1621.26 89.26,273.9 c 20.77,-3.536 38.91,-30.39 39,-58.16 L 1404.906,1554.93 1413,1523 Z" sodipodi:nodetypes="cccccc"></path>
      <path sodipodi:nodetypes="cccccc" d="m 858.8,1027 v 645.48 L 1076,1623 v -525.48 c 38.55,10e-5 63.08,-21.03 64.83,-42.05 z" id="path3090-9"></path>
      <path sodipodi:nodetypes="ccscc" id="path974-1" d="M 943.21089,417.32921 C 1042.5829,575.5264 1107.732,744.48019 1154,924 c 71,54 204,4 181,-133 C 1306.2725,619.8842 1129.9674,477.15719 954.21089,411.72921 Z"></path>
      <path sodipodi:nodetypes="cccccc" id="path910-7" d="M 871,243 C 826.62175,446.78291 732.64158,758.69534 572,1072 l 16,15 c 168.38642,-138.39523 370.86845,-395.42539 512.3409,-718.35079 21.506,3.21166 45.67,-9.797 55.39,-34.21 z"></path>
    
</svg>
