<?xml version="1.0" encoding="UTF-8" standalone="no"?>
<svg viewBox="0 0 2000 2000" version="1.1" xmlns="http://www.w3.org/2000/svg" xmlns:sodipodi="http://sodipodi.sourceforge.net/DTD/sodipodi-0.dtd">
	
      <path d="m 1435.6,1032 -101.1,91.71 H 716.477 l -237.3,-56.07 V 1239 c 0,360 -64.177,556 -228,730.62 l 25.977,3.38 c 267.846,-95 410.13677,-300.0004 411,-664 l 0.323,-136.2 H 1345 v 560.98 c 0,21.03 -15.1958,27.372 -23.71,26.31 l -185.113,-23.09 -0.713,26.75 c 88.2,25.13 164.713,77.25 184.913,215.85 187.5,-14.02 233.8,-101.6 233.8,-243.6 v -538.48 c 33.56,0 78.32,-28.04 78.32,-42.05 z" id="path1939" sodipodi:nodetypes="ccccsccsccsscccsccc"></path>
      <path id="path1942" d="m 122.08,1446.06 h 1793.99 c 16.85,0 27.23,-11.08 27.23,-16.26 L 1750.44,1273.06 1640,1397 104,1397.05 Z" sodipodi:nodetypes="csccccc"></path>
      <path sodipodi:nodetypes="csccccc" d="m 202.08,573.54 h 1647.99 c 16.85,0 27.23,-11.08 27.23,-16.26 L 1684.44,400.54 1574,524.48 184,524.53 Z" id="path1947"></path>
      <path sodipodi:nodetypes="ccccsccsccsscccsccc" id="path1953" d="m 1377.6,151 -101.1,91.71 H 786.477 l -237.3,-56.07 V 326 c 0,360 -50.71587,556 -180.177,730.62 l 21,3.38 C 621.5737,965 764.01148,759.95322 758.154,396 l 0.323,-104.2 H 1287 v 512.98 c 0,21.03 -15.1973,27.38343 -23.71,26.31 L 1078.177,808 l -0.713,26.75 c 88.2,25.13 164.713,77.25 184.913,215.85 187.5,-14.02 233.8,-101.6 233.8,-243.6 V 316.52 c 33.56,0 78.32,-28.04 78.32,-42.05 z"></path>
    
</svg>
