<?xml version="1.0" encoding="UTF-8" standalone="no"?>
<svg viewBox="0 0 2000 2000" version="1.1" xmlns="http://www.w3.org/2000/svg" xmlns:sodipodi="http://sodipodi.sourceforge.net/DTD/sodipodi-0.dtd">
	
      <path id="path2855" d="M 1333,1093.1754 H 630.4 V 412.41537 c 39.73,1e-4 65.01,-21.67 66.81,-43.34 l -270.1,-28.89 v 861.26003 c 0,38.3112 203.3,14.3537 203.3,-47.04 v -12 h 702.6 v 65.9 c 0,31.4855 203.3,12.2264 203.3,-58.04 V 400.40537 c 39.73,10e-5 65.01,-21.67 66.81,-43.34 l -270.1,-28.89 z" sodipodi:nodetypes="cccccssccsscccc"></path>
      <path sodipodi:nodetypes="ccscccc" id="path2859" d="m 89.5073,1754.05 13.08,47.01 H 1886.97 c 16.85,0 27.23,-11.08 27.23,-16.26 L 1715.5073,1600.4 1599,1754 Z"></path>
      <path sodipodi:nodetypes="ccccc" d="M 1082.9997,1766.9454 V 1123 l -203.28998,-10 v 655.77 z" id="path2863"></path>
    
</svg>
