<?xml version="1.0" encoding="UTF-8" standalone="no"?>
<svg viewBox="0 0 2000 2000" version="1.1" xmlns="http://www.w3.org/2000/svg" xmlns:sodipodi="http://sodipodi.sourceforge.net/DTD/sodipodi-0.dtd">
	
      <path id="path1988" d="m 224.85,550.59 13.08,49.01 h 1539 c 16.86,0 27.23,-11.08 27.23,-16.26 l -198.2,-177.3 -119.1,144.6 z" sodipodi:nodetypes="ccscccc"></path>
      <path id="path1990" d="M 1987.15,1215 C 1722.2583,1139 1323.7021,892 1166,584 l -62,9 c 132.6086,382.78076 409.2548,697 627.2,809.71 56.5418,-84.4323 127.4271,-139.2891 246.8,-160.8 z" sodipodi:nodetypes="cccccc"></path>
      <path id="path1992" d="M 893.38,136.94 C 782.83087,619.61995 492,1107 50.58,1409 l 28,14 C 632,1249 958,691 1139,226.7 c 39.0707,-4.60526 60.3,-29.64 61.58,-50.7 z" sodipodi:nodetypes="cccccc"></path>
      <path sodipodi:nodetypes="ccccscccsscccccccc" id="path2005" d="m 1376.88,1230.1085 -95.1,91.71 h -545.8 l -231.3,-56.07 v 696.861 c 0,38.25 222.479,23.972 203.3,-35.04 v -20 h 584.4 v 56.02 c 0,28.04 203.3,10.03 203.3,-46.04 v -521.861 c 33.56,0 78.32,-28.04 78.32,-42.05 z m -84.58,628.261 H 707.9 v -487.561 h 584.4 z"></path>
    
</svg>
