<?xml version="1.0" encoding="UTF-8" standalone="no"?>
<svg viewBox="0 0 2000 2000" version="1.1" xmlns="http://www.w3.org/2000/svg" xmlns:sodipodi="http://sodipodi.sourceforge.net/DTD/sodipodi-0.dtd">
	
      <path sodipodi:nodetypes="cccccc" d="m 19.74,1496.26 89.26,287.9 c 20.77,-3.536 38.89841,-29.8988 39,-58.16 l 872.74,-310.74 6,-28 z" id="path2442"></path>
      <path id="path2447" d="m 76.59,568.95 13.08,49.01 h 893.2 c 16.86,0 27.23,-11.08 27.23,-16.26 L 819,428.9 700,569 Z" sodipodi:nodetypes="ccscccc"></path>
      <path sodipodi:nodetypes="cccccc" id="path2449" d="m 1471.4333,216.7986 296.3366,34.7878 C 1762.5427,277.4939 1746.8301,299.99799 1699,300 1588.3328,1005.0993 1254.4468,1665.8151 734,1873 l -21,-10 c 457.65,-394.8579 671.9593,-966.11672 758.4333,-1646.2014 z"></path>
      <path sodipodi:nodetypes="ccsscccscccccc" d="M 993.9,789 H 1713 c -22,322 -54,567 -116.8,856 -3.1712,14.5936 -18.4925,18.742 -27.96,17.87 l -215.5,-21.69 2.211,28.14 c 111.4,39.94 188.3,143.1 187.2,224.9 98.42,8.252 214.4718,-39.0659 251.8,-197 C 1859,1422 1896,1138 1915.351,799.62 c 18.7,-2.854 38.84,-18.07 46.94,-34.49 l -173.4,-131.2 -108.8,102.7 h -702.5 z" id="path2451"></path>
      <path sodipodi:nodetypes="ccscc" d="m 1015.7,277.2 c 36.5566,51.25341 102.6603,198.55819 142.3,330.8 73.3968,35.21247 213.2583,-12.20044 173,-146 -34,-113 -199.3,-181.1 -304.6,-193.4 z" id="path2455"></path>
      <path d="M 551.2,1484.7 C 659.4,1349.8 804.5,1039.5 883,766 c 25.46,14.72 59.7,-19.92 64.78,-38.99 l -326.5,-70.76 c -6.59,150.4 -45.77,522.9 -102,826.1 z" id="path2465"></path>
      <path d="m 163.9,694.2 c 39.05,108.6 95.34,370.5 123.6,685.5 92.54,78.91 235.3,15.14 207.2,-173.7 C 460.57,976.4 320.4,770.9 176.6,679.7 Z" id="path2475"></path>
    
</svg>
