<?xml version="1.0" encoding="UTF-8" standalone="no"?>
<svg viewBox="0 0 2000 2000" version="1.1" xmlns="http://www.w3.org/2000/svg" xmlns:sodipodi="http://sodipodi.sourceforge.net/DTD/sodipodi-0.dtd">
	
      <path id="path3343" d="M 528.9435,949.0269 C 597.50375,1048.5616 699.39669,1239.9461 754,1412 864.89867,1472.4598 963.84676,1361.0512 908,1239 851.7572,1116.0832 684.9308,990.39107 544.9435,942.0269 Z" sodipodi:nodetypes="ccscc"></path>
      <path sodipodi:nodetypes="ccscccc" id="path3345" d="m 100.62,898.40713 13.08,49.01 H 986 c 16.86,0 27.23,-11.08 27.23,-16.26 l -169.2,-155.3 -108.1,122.5 z"></path>
      <path id="path3347" d="m 109.77094,433.79687 c 65.98407,108.68335 113.75047,234.9659 150.16049,376.3 76,73 217.06857,-1.09687 161,-154 -40.69473,-110.97753 -171.3146,-193.82113 -299.96049,-226 z" sodipodi:nodetypes="ccscc"></path>
      <path id="path3349" d="M 726.35618,403.04402 C 695.74025,569.478 667.8717,690.39794 615,842.50865 l 23.21661,2.44732 C 740.72119,771.62429 865.58014,614.71679 936.8296,486.31574 c 24.4481,-0.10838 44.7916,-11.16549 50.3486,-26.14813 z" sodipodi:nodetypes="cccccc"></path>
      <path sodipodi:nodetypes="scccss" id="path3351" d="M 653.05,1861.1092 V 265.53919 c 35.31,-5.481 60.3,-35.64 61.58,-56.7 L 448,187.00919 V 1913.2326 c 0,47.9669 205.05,10.3868 205.05,-52.1234 z"></path>
      <path sodipodi:nodetypes="cccccc" id="path3364" d="M 379,938.41919 C 337,1236 165,1628 12,1787 l 20,8 c 243,-100 381,-313 469,-553 l 26.2,-319.89081 z"></path>
      <path id="path3366" d="M 1641.998,237.67 C 1532.7908,494 1261,901 844.998,1166.67 l 29,12 C 1215,1081 1555.5147,872 1832,382 c 29.279,3.582 66.93,-10.08 77.38,-34.19 z" sodipodi:nodetypes="cccccc"></path>
      <path id="path3368" d="m 1138.7,182.2 c 39.5851,46.99916 113.3333,183.93173 159.3,307.8 91,42 213.0316,-9.64708 168,-140 -38.0513,-110.14737 -197,-163 -316.6,-176.4 z" sodipodi:nodetypes="ccscc"></path>
      <path id="path3373" d="M 1952.95,989.29 C 1651,928 1213,641 1057.8,338.29 L 1042,378 c 134,393 452,713 673,817 42,-73 131,-151 226.8,-172.8 z" sodipodi:nodetypes="cccccc"></path>
      <path sodipodi:nodetypes="cccccccccc" d="m 764,1927 c 448.075,-26.5468 842,-275 1037.78,-584 32.22,-3 62.22,-19 64.1,-30.82 l -222.9,-148.7 -120.1,115.5 H 1136 l 15.42,48.84 H 1524 C 1409.4024,1554.1664 1118.9295,1783.2716 749,1919 Z" id="path2470-6"></path>
      <path sodipodi:nodetypes="cccccc" d="M 1990.95,1721 C 1726.0954,1693.1303 1360,1598.8841 1177,1417 l -31,19 c 130.8615,235.8061 411.197,430.5349 607,490.71 37,-63.5248 131,-151 226.8,-172.8 z" id="path3414"></path>
      <path sodipodi:nodetypes="cccccc" d="m 881,1671 c 153.503,-57.081 394.158,-240.702 513,-449.264 28.72,-4.632 60,-20 67,-49 L 1158,1122 c -41.449,127.255 -137.842,363.688 -294,543 z" id="path3341-6"></path>
    
</svg>
