<?xml version="1.0" encoding="UTF-8" standalone="no"?>
<svg viewBox="0 0 2000 2000" version="1.1" xmlns="http://www.w3.org/2000/svg" xmlns:sodipodi="http://sodipodi.sourceforge.net/DTD/sodipodi-0.dtd">
	
      <path sodipodi:nodetypes="ccccssccsscccsccc" d="m 1755.5874,258 -103.1,111.71 H 370.96505 l -231.3,-56.07 v 1614.98 c 0,48.24 203.3,21.82 203.3,-55.04 V 418.8 H 1672.9874 v 1317.98 c 0,21.03 -15.1631,27.0632 -23.71,26.31 L 1444,1747 l -0.713,22.75 C 1534,1802 1630,1884 1648.3644,1978.6 c 187.5,-14.02 227.8,-101.6 227.8,-243.6 V 443.52 c 33.56,0 78.32,-28.04 78.32,-42.05 z" id="path3006"></path>
      <path d="m 903.1,1521.54 203.3,1.957 v -849.3 l -203.3,0.6918 z m 444.3,-973.1 -95.1,99.71 H 776.6 L 545.3,592.08 v 1026.1 c 0,41.9492 203.3,30.0137 203.3,-35.04 v -40 h 514.3 v 61.9 c 0,37.9919 203.3,19.6571 203.3,-46.04 V 722 c 33.56,0 78.32,-28.04 78.32,-42.05 z m -84.5,943.6 H 748.6 v -794.8 h 514.3 z" id="path3011" sodipodi:nodetypes="cccccccccssccsscccccccc"></path>
      <path sodipodi:nodetypes="csccccc" d="m 377.64,1118.34 h 1301.99 c 16.85,0 27.23,-11.08 27.23,-16.26 L 1548,923.34 l -106.44,143.94 -1082,0.05 z" id="path3015"></path>
    
</svg>
