<?xml version="1.0" encoding="UTF-8" standalone="no"?>
<svg viewBox="0 0 2000 2000" version="1.1" xmlns="http://www.w3.org/2000/svg" xmlns:sodipodi="http://sodipodi.sourceforge.net/DTD/sodipodi-0.dtd">
	
      <path id="path2972" d="M 292.01,1146 H 1726 c 16.85,0 27.23,-11.08 27.23,-16.26 L 1560.37,971 l -116.44,123.94 -1170,0.05 z" sodipodi:nodetypes="csccccc"></path>
      <path sodipodi:nodetypes="csccccc" d="M 148.01,1861 H 1866 c 16.85,0 27.23,-11.08 27.23,-16.26 L 1700.37,1660 l -116.44,149.94 -1454,0.05 z" id="path2975"></path>
      <path sodipodi:nodetypes="csccccc" d="M 332.01,339.06 H 1686 c 16.85,0 27.23,-11.08 27.23,-16.26 L 1520.37,164.06 1403.93,288 l -1090,0.05 z" id="path3007"></path>
      <path id="path3010" d="M 188.01,951.06 H 1826 c 16.85,0 27.23,-11.08 27.23,-16.26 L 1660.37,750.06 1543.93,900 l -1374,0.05 z" sodipodi:nodetypes="csccccc"></path>
      <path sodipodi:nodetypes="cccccc" d="m 1118.4,905.98896 c 108.1348,-74.4726 253.1473,-245.7761 331.6,-396.76399 36,1.77503 59.7,-21.59437 64.78,-42.26729 l -326.5,-76.7077 c -6.2592,94.62582 -43.4725,328.98835 -96.88,519.74998 z" id="path3012"></path>
      <path sodipodi:nodetypes="ccscc" d="m 512,418.92322 c 43.5454,82.78438 95.3414,235.25373 134,430.6949 C 746.3266,899.19681 858.9239,819.37603 827,676.16938 799.1846,551.39296 665.3702,453.9719 525,404.83051 Z" id="path3016"></path>
      <path d="m 1141,1820 c 104.9735,-88.0214 266.4307,-327.3827 349,-531.7485 30.5033,0.1 59.7,-20.166 64.78,-34.4155 l -326.5,-52.8736 c -8.9986,112.3824 -62.4985,390.7233 -139.28,617.2816 z" id="path3020" sodipodi:nodetypes="cccccc"></path>
      <path d="M 501.2,1227.5126 C 544.42039,1310.089 606.72194,1509.2302 638,1748.7472 750,1824 887,1751 854,1595 817.08773,1420.5056 667.6453,1285.8331 513.9,1216.4872 Z" id="path3023" sodipodi:nodetypes="ccscc"></path>
    
</svg>
