<?xml version="1.0" encoding="UTF-8" standalone="no"?>
<svg viewBox="0 0 2000 2000" version="1.1" xmlns="http://www.w3.org/2000/svg" xmlns:sodipodi="http://sodipodi.sourceforge.net/DTD/sodipodi-0.dtd">
	
      <path id="path3588" d="m 1094,831 c 244.3686,-85.10511 458.6525,-322.4146 581.8,-512.32 31.2794,1.67261 62.98,-24.53 64.1,-30.82 L 1517,139.16 1396.9,262.66 H 350 L 365.42,311 h 1032.6 C 1329.2071,468.50099 1207.8769,643 1051,794 Z" sodipodi:nodetypes="cccccccccc"></path>
      <path sodipodi:nodetypes="ccscc" id="path3591" d="M 660.07346,594.25002 C 784,680 989.11264,896.63087 1113.8897,1063 c 105,46 222.1103,-49 138,-172 C 1159.1132,755.32684 847,613 673.07931,581.51312 Z"></path>
      <path sodipodi:nodetypes="cccccccccc" d="m 1080,1704 c 262.8496,-82.5602 493.3392,-312.7734 625.8,-497 33.645,1.6226 62.98,-24.53 64.1,-30.82 l -222.9,-148.7 -120.1,123.5 H 288 l 15.42,48.34 h 1124.6 C 1348.6974,1358.3471 1208.8365,1534.5369 1028,1687 Z" id="path3595"></path>
      <path d="m 599.18381,1482.57 c 150.53955,83.5386 386.69138,296.2611 529.00589,459.2631 C 1230,1984.32 1353.2353,1868.5921 1244,1742.32 c -109,-126 -403,-239 -631.81034,-272.4869 z" id="path3597" sodipodi:nodetypes="ccscc"></path>
    
</svg>
