<?xml version="1.0" encoding="UTF-8" standalone="no"?>
<svg viewBox="0 0 2000 2000" version="1.1" xmlns="http://www.w3.org/2000/svg" xmlns:sodipodi="http://sodipodi.sourceforge.net/DTD/sodipodi-0.dtd">
	
      <path sodipodi:nodetypes="cccccc" d="m 769.2179,1310.3615 110.0948,279.0361 C 898.59951,1580.9174 918,1555.5 918,1521.5 l 1024,-385 8.5302,-32.0037 z" id="path1736"></path>
      <path sodipodi:nodetypes="cssccc" d="M 1415.01,179 1415,1924.4678 c -3e-4,56.5181 199.2947,22.0684 199.2951,-41.7598 l 0.01,-1631.47753 c 39.7301,0 65.0087,-21.66985 66.8087,-43.33985 z" id="path1738"></path>
      <path id="path1747" d="M 918.14559,1347.0097 C 1038.0963,1176.4786 1128.2663,960.65843 1200.0825,722.90343 1246.6057,718.8495 1264.7587,698.96615 1270,669.59732 L 956.19265,632.42277 c -2.50053,96.22859 -18.56018,426.60683 -61.7025,721.02273 z" sodipodi:nodetypes="cccccc"></path>
      <path id="path1757" d="M 507.37,165.6438 C 420.03355,550.6917 255.5983,1029.7795 30,1389.3562 l 15.37,3 c 0.335776,-0.3138 0.636586,-0.6697 1.007107,-0.9418 C 371,1153 566.55898,790.9469 748,291.3562 c 28,0 45.67,-9.797 55.39,-34.21 z" sodipodi:nodetypes="cccsccc"></path>
      <path id="path1759" d="m 410,1933.3062 c -3.8e-4,45.3745 197.3,18.0902 197.3,-58.04 V 825.26615 c 39.73,10e-5 61.01,-21.67 62.81,-43.34 l -260.1,-28.89 z" sodipodi:nodetypes="sscccs"></path>
    
</svg>
