<?xml version="1.0" encoding="UTF-8" standalone="no"?>
<svg viewBox="0 0 2000 2000" version="1.1" xmlns="http://www.w3.org/2000/svg" xmlns:sodipodi="http://sodipodi.sourceforge.net/DTD/sodipodi-0.dtd">
	
      <path sodipodi:nodetypes="csscccsccc" d="m 690.9,216.499 v 1480.875 c 0,21.03 -10.47777,27.7332 -24.53,26.28 l -222.5,-23.009 v 22.78 c 131.33,44.849 188.33,100.849 222.5,215.8 187.5,-14.02 237.8,-101.6 237.8,-243.6 V 286.75 c 38.55,6e-5 63.08,-21.03 64.83,-42.05 z" id="path2150"></path>
      <path sodipodi:nodetypes="cccccc" id="path2156" d="M 411.38,825.99 C 380.61088,1198.0115 262.30344,1507.1784 29,1761 l 19,10 c 291.68523,-128.6713 526.06957,-402.1252 585,-861 28.73952,-0.81164 64.88,-24.39 68.77,-48.41 z"></path>
      <path id="path2166" d="m 1159.5,194.07031 0.4903,1717.23049 c 0.018,61.7395 213.0097,39.3501 213.0097,-58.041 V 278.25 c 42.02,0 70.6617,-33.67977 70.6817,-51.50977 z" sodipodi:nodetypes="cssccc"></path>
      <path id="path2178" d="m 1320.6247,840.60499 c 112.1228,173.47691 267.057,511.90901 368.057,806.90901 91.7668,65.6856 260.6484,-12 187.375,-208 -92.6017,-247.7015 -331.438,-507.23356 -539.432,-605.90901 z" sodipodi:nodetypes="ccscc"></path>
    
</svg>
