<?xml version="1.0" encoding="UTF-8" standalone="no"?>
<svg viewBox="0 0 2000 2000" version="1.1" xmlns="http://www.w3.org/2000/svg" xmlns:sodipodi="http://sodipodi.sourceforge.net/DTD/sodipodi-0.dtd">
	
      <path sodipodi:nodetypes="csssssscc" d="m 208.12443,460 v 1183 c 0,143 54.87557,272.8906 232.10156,272.8906 H 1705.226 c 136.9688,0 96.7195,-196 42.7031,-196 H 502.42521 c -53.42521,0 -90.99559,-36.8906 -91,-98 L 411.34121,457 Z" id="path3109"></path>
      <path id="path3111" d="m 65.81996,420.76734 13.08,47.01 H 1874.97 c 16.86,0 27.23,-11.08 27.23,-16.26 l -198.2,-181.3 -119.1,150.6 z" sodipodi:nodetypes="ccscccc"></path>
      <path sodipodi:nodetypes="cccccccccssccsscccccccc" id="path3126" d="m 983.1,1493.54 203.3,1.957 v -815.3 l -203.3,0.6918 z m 464.3,-939.1 -95.1,99.71 H 836.6 L 605.3,598.08 v 988.1 c 0,41.9492 203.3,30.0136 203.3,-35.04 v -36 h 554.3 v 61.9 c 0,37.9919 203.3,19.6571 203.3,-46.04 V 728 c 33.56,0 78.32,-28.04 78.32,-42.05 z m -84.5,909.6 H 808.6 v -760.8 h 554.3 z"></path>
      <path id="path3128" d="m 457.64,1104.34 h 1333.99 c 16.85,0 27.23,-11.08 27.23,-16.26 L 1646.4482,913.34 1538,1053.28 439.56,1053.33 Z" sodipodi:nodetypes="csccccc"></path>
    
</svg>
