<?xml version="1.0" encoding="UTF-8" standalone="no"?>
<svg viewBox="0 0 2000 2000" version="1.1" xmlns="http://www.w3.org/2000/svg" xmlns:sodipodi="http://sodipodi.sourceforge.net/DTD/sodipodi-0.dtd">
	
      <path sodipodi:nodetypes="cccccc" d="m 324,1684 86.5633,279.8494 c 20.7631,-3.5763 38.786,-30.2925 38.8871,-58.2356 L 1545,1567 l 16,-49 z" id="path3041"></path>
      <path id="path3043" d="M 1288.5009,1157.7705 C 1383.6816,1314.4523 1503.9281,1597.7523 1568,1887 c 98.7884,70.9159 251.1908,5.5776 205,-176 -58,-228 -238,-444 -465.4991,-560.2295 z" sodipodi:nodetypes="ccscc"></path>
      <path d="M 1471.74,146.65 C 1187.0551,664.774 712.42258,1032.7048 50,1278 l 38,16 c 662.77477,-93.6605 1241.2852,-461.40074 1597,-1008.78 39.2879,3.39318 66.93,-10.08 77.38,-34.19 z" id="path3045" sodipodi:nodetypes="cccccc"></path>
      <path sodipodi:nodetypes="cccccc" id="path3050" d="M 814.29,1703.9 V 1182 c 38,-4.23 65.01,-27.44 66.81,-49.11 L 591,1104 v 609.9 z"></path>
      <path sodipodi:nodetypes="ccscc" id="path3052" d="M 316.43218,225.61174 C 406.6968,300.14656 580.82093,523.08867 694,727.64617 837.95546,765.38436 931,644.48908 858,522.33803 777.31817,387.33295 551.08932,253.62603 326.52484,216.30646 Z"></path>
    
</svg>
