<?xml version="1.0" encoding="UTF-8" standalone="no"?>
<svg viewBox="0 0 2000 2000" version="1.1" xmlns="http://www.w3.org/2000/svg" xmlns:sodipodi="http://sodipodi.sourceforge.net/DTD/sodipodi-0.dtd">
	
      <path id="path3760" d="m 1788.4243,242.93213 -123,146.34 -658.5402,-0.05 13.0801,49.012 h 926.0227 c 16.86,0 27.2305,-11.082 27.2305,-16.262 z" sodipodi:nodetypes="ccccscc"></path>
      <path sodipodi:nodetypes="csccscc" id="path3764" d="M 1180.21,399.832 V 707 c 0,555.204 -96,969 -359,1234 l 24,9 c 327,-127 556.4973,-520.0092 553,-1201 l 0.214,-347.766 z"></path>
      <path sodipodi:nodetypes="ccsscccscccccc" d="M 481.94,876.48313 H 739.649 C 743,1068 720,1407 672.849,1650.4832 c -2.83928,14.6618 -18.49989,18.8222 -27.96,17.87 l -215.5,-21.69 2.211,28.14 c 111.4,39.94 188.3,143.1 187.2,224.9 98.42,8.252 227.69653,-29.1664 255.8,-189 C 928,1407 942,1211 942,887.10313 c 18.7,-2.854 38.84,-18.07 46.94,-34.49 l -185.4,-131.2 -108.8,106.7 H 466.3413 Z" id="path3766"></path>
      <path sodipodi:nodetypes="csccscc" id="path3768" d="M 293,448.83213 V 702 c 0,555.2039 -89.24222,903.6374 -274,1224 l 23,-1 C 279.10818,1776.5693 504.54775,1410.473 505,744 l 0.21427,-293.76587 z"></path>
      <path sodipodi:nodetypes="ccccscc" d="m 824,266.93213 -123,146.34 -642.4802,-0.05 13.0801,49.012 h 909.9627 c 16.86,0 27.2305,-11.082 27.2305,-16.262 z" id="path3770"></path>
      <path id="path3774" d="m 1377.94,876.48313 h 305.709 C 1687,1068 1664,1407 1616.849,1650.4832 c -2.8393,14.6618 -18.4999,18.8222 -27.96,17.87 l -215.5,-21.69 2.211,28.14 c 111.4,39.94 188.3,143.1 187.2,224.9 98.42,8.252 227.6965,-29.1664 255.8,-189 C 1872,1407 1886,1211 1886,887.10313 c 18.7,-2.854 38.84,-18.07 46.94,-34.49 l -185.4,-131.2 -108.8,106.7 h -276.3987 z" sodipodi:nodetypes="ccsscccscccccc"></path>
    
</svg>
