<?xml version="1.0" encoding="UTF-8" standalone="no"?>
<svg viewBox="0 0 2000 2000" version="1.1" xmlns="http://www.w3.org/2000/svg" xmlns:sodipodi="http://sodipodi.sourceforge.net/DTD/sodipodi-0.dtd">
	
      <path d="m 1299,1761 -598.6,2 V 755.1 c 39.73,10e-5 65.01,-21.67 66.81,-43.34 l -270.1,-28.89 v 1192.4 c 0,38.25 203.3,0.3573 203.3,-47.04 v -16 l 598.6,-2 v 65.9 c 0,28.04 203.3,-1.972 203.3,-58.04 v -1065 c 39.73,10e-5 65.01,-21.67 66.81,-43.34 l -270.1,-28.89 z" id="path3398" sodipodi:nodetypes="cccccssccsscccc"></path>
      <path d="m 126.48,1044.6 13.08,49.01 h 1723 c 16.86,0 27.23,-11.08 27.23,-16.26 l -198.2,-177.3 -119.1,144.6 z" id="path3400" sodipodi:nodetypes="ccscccc"></path>
      <path sodipodi:nodetypes="ccscccc" id="path3411" d="m 86.48,505.55 13.08,49.01 h 1803 c 16.86,0 27.23,-11.08 27.23,-16.26 L 1731.59,361 1612.49,505.6 Z"></path>
    
</svg>
