<?xml version="1.0" encoding="UTF-8" standalone="no"?>
<svg viewBox="0 0 2000 2000" version="1.1" xmlns="http://www.w3.org/2000/svg" xmlns:sodipodi="http://sodipodi.sourceforge.net/DTD/sodipodi-0.dtd">
	
      <path id="path2858" d="M 185.72,989.99 198.8,1039 H 904 c 16.86,0 27.23,-11.08 27.23,-16.26 l -191.1,-172.8 -119,140.1 z" sodipodi:nodetypes="ccscccc"></path>
      <path id="path2860" d="m 33.74,1358.26 89.26,287.9 c 20.77,-3.536 38.89841,-29.8988 39,-58.16 l 872.74,-300.74 6,-28 z" sodipodi:nodetypes="cccccc"></path>
      <path sodipodi:nodetypes="ccscccc" d="m 130.59,630.95 13.08,49.01 h 813.2 c 16.86,0 27.23,-11.08 27.23,-16.26 L 793,490.9 674,631 Z" id="path2864"></path>
      <path d="M 1475.4333,216.7986 C 1391.582,902.21935 1182.8816,1484.8896 717,1863 l 21,10 c 539.5279,-177.8385 868.3292,-846.3745 965,-1573 47.8301,-0.002 63.5427,-22.5061 68.7699,-48.4136 z" id="path2870" sodipodi:nodetypes="cccccc"></path>
      <path id="path2872" d="M 1007.9,789 H 1727 c -22,322 -54,567 -116.8,856 -3.1712,14.5936 -18.4925,18.742 -27.96,17.87 l -215.5,-21.69 2.211,28.14 c 111.4,39.94 188.3,143.1 187.2,224.9 98.42,8.252 214.4718,-39.0659 251.8,-197 C 1873,1422 1910,1138 1929.351,799.62 c 18.7,-2.854 38.84,-18.07 46.94,-34.49 l -173.4,-131.2 -108.8,102.7 h -702.5 z" sodipodi:nodetypes="ccsscccscccccc"></path>
      <path id="path2874" d="m 1019.7,267.2 c 36.5566,51.25341 102.6603,198.55819 142.3,330.8 73.3968,35.21247 213.2583,-12.20044 173,-146 -34,-113 -199.3,-181.1 -304.6,-193.4 z" sodipodi:nodetypes="ccscc"></path>
      <path sodipodi:nodetypes="cssccc" d="m 435.8,170.77 v 1727.71 c 0,67.36 199.2,15.23 199.2,-49.48 V 241.29 c 38.55,1e-4 63.08,-21.03 64.83,-42.05 z" id="path2893"></path>
    
</svg>
