<?xml version="1.0" encoding="UTF-8" standalone="no"?>
<svg viewBox="0 0 2000 2000" version="1.1" xmlns="http://www.w3.org/2000/svg" xmlns:sodipodi="http://sodipodi.sourceforge.net/DTD/sodipodi-0.dtd">
	
      <path sodipodi:nodetypes="ccccssccsscccccccc" d="m 1450,1153.5 -95.1,91.71 H 663 l -231.3,-56.07 v 724.1 c 0,47.3058 203.3,27.5859 203.3,-39.04 v -28 h 730.4 v 43.9 c 0,39.12 203.3,18.5 203.3,-50.04 v -521 c 33.56,0 78.32,-28.04 78.32,-42.05 z m -84.58,651.5 h -730.4 v -510.8 h 730.4 z" id="path3190"></path>
      <path id="path3197" d="m 241.7237,877.9898 98.8396,298.7089 c 20.7631,-3.5763 38.7772,-36.4631 38.8871,-58.2356 C 830.3121,1042.4687 1216.6448,959.709 1613,878 l 21,-33 c -438.3245,21.1718 -913.4722,28.1016 -1392.2763,32.9898 z" sodipodi:nodetypes="cccccc"></path>
      <path sodipodi:nodetypes="ccscc" d="m 1371,643 c 63,107 142.5909,300.4691 185,498 85,48 233.1152,-6.842 200,-160 -32,-148 -193,-281 -372,-351 z" id="path3199"></path>
      <path sodipodi:nodetypes="cccccc" d="M 542,925 C 694,829.23249 917,580.23696 1055,342.94635 1088.3056,344.90088 1123,317 1130,288 L 784,211 C 751.55333,348.63169 609.86021,685.75148 470,930.32042 Z" id="path3222"></path>
    
</svg>
