<?xml version="1.0" encoding="UTF-8" standalone="no"?>
<svg viewBox="0 0 2000 2000" version="1.1" xmlns="http://www.w3.org/2000/svg" xmlns:sodipodi="http://sodipodi.sourceforge.net/DTD/sodipodi-0.dtd">
	
      <path d="M 1365,786 1249,892.87 H 415.022 L 431,941.5898 h 795 C 888,1083 583.5618,1268.9845 441,1435 c -310,361 195.68723,624.1386 1127.932,447.6497 92.6055,-17.5318 137.228,-99.4914 86.068,-165.2703 l 49.84,-251.7794 -18.24,-6.102 c -61.78,146.3 -146.1592,225.7424 -183.566,232.2566 C 847,1806 429,1704 617,1502.3122 755.51613,1353.7111 1115.9999,1135.9997 1524,990 c 35,-12.52448 45.448,-48 45.448,-65.3622 z" id="path2464" sodipodi:nodetypes="cccccsscccssscc"></path>
      <path sodipodi:nodetypes="cccccccccc" d="m 779,913 c 300.4072,-96.6965 575.2261,-334.25835 732,-534.82 37.4851,-2.18 62.98,-24.53 64.1,-30.82 l -222.9,-148.7 -120.1,115.5 H 485.22 L 500.64,363 h 732.58 C 1129.3893,541.3212 946.74404,752.2122 722,894 Z" id="path2470"></path>
    
</svg>
