<?xml version="1.0" encoding="UTF-8" standalone="no"?>
<svg viewBox="0 0 2000 2000" version="1.1" xmlns="http://www.w3.org/2000/svg" xmlns:sodipodi="http://sodipodi.sourceforge.net/DTD/sodipodi-0.dtd">
	
      <path id="path1886" d="m 262.08,869 h 1506.55 c 16.85,0 27.23,-11.08 27.23,-16.26 L 1607,684 1492.56,819.94 244,819.99 Z" sodipodi:nodetypes="csccccc"></path>
      <path sodipodi:nodetypes="csccccc" d="m 184.08,486 h 1653.99 c 16.85,0 27.23,-11.08 27.23,-16.26 L 1676.44,301 1562,436.94 166,436.99 Z" id="path1892"></path>
      <path d="M 1952.605,1766.58 C 1193.5414,1709.7935 608.66013,1365.1096 331,1094 l -16,41 c 323.85948,393.1067 757.4714,711.7853 1394.395,825 45.9745,-82.8145 131.105,-138 232.8,-163.8 z" id="path1903" sodipodi:nodetypes="cccccc"></path>
      <path sodipodi:nodetypes="ccscc" d="m 799,44.01517 c 47.21,52.88 126.5,210.2 149.4,357.2 86.19,45.82 221.6,21.78483 191.1,-133 -28.687,-145.58417 -207.6,-219.9 -328.2,-233.9 z" id="path1907"></path>
      <path sodipodi:nodetypes="cccccc" d="M 1084.8,524.47 C 966.37995,1200 740,1664 56,1955 l 22,15 c 752,-140 1106.2885,-641 1244.42,-1355.77 42.7704,-5.51432 60.3,-29.64 61.58,-50.7 z" id="path1910"></path>
      <path sodipodi:nodetypes="cccccc" d="M 339.35529,1545.5313 C 508.24196,1441.5972 665.2446,1279.1927 779.7753,1115.2448 808.204,1117.7599 848.38423,1099.7265 856.43299,1071 L 557.06324,975.53801 C 527.3119,1080.3921 426,1336 312.97726,1542.8019 Z" id="path1913"></path>
    
</svg>
