<?xml version="1.0" encoding="UTF-8" standalone="no"?>
<svg viewBox="0 0 2000 2000" version="1.1" xmlns="http://www.w3.org/2000/svg" xmlns:sodipodi="http://sodipodi.sourceforge.net/DTD/sodipodi-0.dtd">
	
      <path id="path1766" d="M 600.81,1019.775 C 600.81,1545 512,1747 335,1946.295 l 12,7.48 C 644.64147,1822 810.34,1596 810.34,1114.775 v -164 c 35.54,0 58.66,-30.56 58.66,-45.84 l -268.19,-24.89 z" sodipodi:nodetypes="sccscccs"></path>
      <path sodipodi:nodetypes="cssccc" d="m 1189.97,872.48 v 1056.64 c 0,67.36 199.2,23.23 199.2,-41.48 V 943 c 38.55,0 63.08,-21.03 64.83,-42.05 z" id="path1782"></path>
      <path d="m 592.8,319 c -74.30357,270.38374 -251.71703,613.27492 -509,848.762 l 21,7.238 C 380.18372,1076.888 685.39522,756.06267 809,415.612 c 26.87436,4.40875 45.94,-8.426 56.39,-32.53 z" id="path1789" sodipodi:nodetypes="cccccc"></path>
      <path sodipodi:nodetypes="ccccccccccc" id="path1800" d="m 811.1323,305.85364 h 401.0549 C 1259.1795,667 1509.1795,1079 1705.5271,1171 c 45.6524,-98 126.6524,-153 237.0806,-179.0957 l 7.85,-28.4045 C 1620.1795,887.612 1343.1795,495 1306,315.60364 c 74.1795,0 128.1795,-12.04164 131.2272,-33.3 l -168.438,-153.218 -97.1,121.71 H 799.1343 Z"></path>
    
</svg>
