<?xml version="1.0" encoding="UTF-8" standalone="no"?>
<svg viewBox="0 0 2000 2000" version="1.1" xmlns="http://www.w3.org/2000/svg" xmlns:sodipodi="http://sodipodi.sourceforge.net/DTD/sodipodi-0.dtd">
	
      <path d="m 230.7,486 c 86.8048,142.09245 174.9406,348.73666 242.3,555 73.60758,58.1015 214.86092,8.7565 188,-127 C 624,727 425,553 245.7,480.4 Z" id="path2427" sodipodi:nodetypes="ccscc"></path>
      <path sodipodi:nodetypes="cccccc" d="M 1491.38,458.24 C 1387.586,1088.0942 1102.6647,1620.86 575,1907 l 15,11 c 612.3606,-134.1186 1009.9598,-714.0034 1139,-1370 39.2205,-5.52331 60.3,-29.64 61.58,-50.7 z" id="path2431"></path>
      <path id="path2433" d="m 753.1992,417.9004 -15,5.5996 C 816.5959,566.8246 887.1543,773.6944 945,985.5 1016.3038,1052.0508 1164.3334,995.8375 1140,856 1106.5,663.5 933.4993,490.0004 753.1992,417.9004 Z"></path>
    
</svg>
