<?xml version="1.0" encoding="UTF-8" standalone="no"?>
<svg viewBox="0 0 2000 2000" version="1.1" xmlns="http://www.w3.org/2000/svg" xmlns:sodipodi="http://sodipodi.sourceforge.net/DTD/sodipodi-0.dtd">
	
      <path sodipodi:nodetypes="ccscccc" d="m 224.85,554.59 13.08,49.01 h 1539 c 16.86,0 27.23,-11.08 27.23,-16.26 l -198.2,-177.3 -119.1,144.6 z" id="path2463"></path>
      <path sodipodi:nodetypes="cccccc" d="M 1987.15,1219 C 1722.2583,1143 1323.7021,896 1166,588 l -62,9 c 132.6086,382.78076 409.2548,697 627.2,809.71 56.5418,-84.4323 127.4271,-139.2891 246.8,-160.8 z" id="path2474"></path>
      <path sodipodi:nodetypes="cccccc" d="M 901.38,140.94 C 790.83087,623.61995 492,1111 50.58,1413 l 28,14 C 614,1255 968,715 1149,250.7 c 39.0707,-4.60526 60.3,-29.64 61.58,-50.7 z" id="path2477"></path>
      <path sodipodi:nodetypes="ccccccccccccc" d="m 1396.8809,1234.1094 -95.1016,91.709 H 715.98047 L 484.67969,1269.748 V 1907 h 203.2207 V 1374.8086 H 1312.3008 V 1907 h 203.3789 v -507.3105 c 33.56,0 78.3203,-28.0408 78.3203,-42.0508 z" id="path2479"></path>
      <path sodipodi:nodetypes="csccccc" d="M 148.01,1923.06 H 1866 c 16.85,0 27.23,-11.08 27.23,-16.26 l -192.86,-184.74 -116.44,149.94 -1454,0.05 z" id="path2488"></path>
    
</svg>
