<?xml version="1.0" encoding="UTF-8" standalone="no"?>
<svg viewBox="0 0 2000 2000" version="1.1" xmlns="http://www.w3.org/2000/svg" xmlns:sodipodi="http://sodipodi.sourceforge.net/DTD/sodipodi-0.dtd">
	
      <path sodipodi:nodetypes="ccscc" d="m 737.80407,1136 c 121.26704,76.9007 277.51753,242.5772 377.19593,372 152.6913,42.3175 223.4937,-123.0834 111,-218 -96,-81 -262.41429,-140.5293 -475.19593,-167 z" id="path1551"></path>
      <path id="path1555" d="m 698,1493 c 120,95 272,301 364,476 100,50 234,-67 150,-205 -74.4905,-122.3772 -249.804,-230.287 -501,-284 z" sodipodi:nodetypes="ccscc"></path>
      <path d="M 1979.68,1373.45 C 1655.4761,1313 1396,1091 1227,833 l -76,4 c 124.5474,308.8388 355.6246,667.0364 610.7,766.3 C 1803.0148,1510 1872,1444 1971,1405 Z" id="path1559" sodipodi:nodetypes="cccccc"></path>
      <path sodipodi:nodetypes="cccccc" d="M 54.07,1598 C 472,1435.0097 913,988 1102.07,137 c 34.72,-1.928 59.56,-15.67 68.23,-48.21 L 880,39.03 C 773,630 532,1185 29,1587.03 Z" id="path1561"></path>
      <path sodipodi:nodetypes="csccccc" d="M 432.15,472 H 1536.7 c 16.85,0 27.23,-11.08 27.23,-16.26 L 1375.07,271 1254.63,420.94 414.07,420.99 Z" id="path1568"></path>
      <path sodipodi:nodetypes="csccccc" d="m 146.64,857.94 h 1653.99 c 16.85,0 27.23,-11.08 27.23,-16.26 L 1637,658.94 l -118.44,147.94 -1390,0.05 z" id="path1570"></path>
    
</svg>
