<?xml version="1.0" encoding="UTF-8" standalone="no"?>
<svg viewBox="0 0 2000 2000" version="1.1" xmlns="http://www.w3.org/2000/svg" xmlns:sodipodi="http://sodipodi.sourceforge.net/DTD/sodipodi-0.dtd">
	
      <path id="path1612" d="m 580,908.7 c 92.30929,128.996 187.70919,305.0857 236,497.3 71.27397,61.4963 249.6828,14.1042 200,-169 C 977.6177,1095.5432 771.10181,939.94074 591,900 Z" sodipodi:nodetypes="ccscc"></path>
      <path id="path1614" d="M 1979,1698.93 C 1746,1564 1418.95,1213 1418.95,420.53 L 1344,682 c 20,619 181,1040 383,1237.9 63.5041,-106.8404 135,-169.9 243.2,-194.9 z" sodipodi:nodetypes="cccccc"></path>
      <path id="path1616" d="m 1197.45,159 0.55,237 c 1.2903,556 -101,1173 -454,1499 l 27,11 c 476,-219 647.95,-891 647.95,-1485.47 V 243.18 c 42.02,0 70.66,-33.68 70.68,-51.51 z" sodipodi:nodetypes="csccsccc"></path>
      <path sodipodi:nodetypes="cccsccsc" d="m 765.6394,267.855 c 42.02,0 70.66,-33.68 70.68,-51.51 L 544.4144,181 v 111 c 0,814.8692 -145.95441,1242.356 -523.4144,1605 l 23,9 C 492.76403,1679.1539 765.6394,1258.2252 765.6394,327.855 Z" id="path1622"></path>
    
</svg>
