<?xml version="1.0" encoding="UTF-8" standalone="no"?>
<svg viewBox="0 0 2000 2000" version="1.1" xmlns="http://www.w3.org/2000/svg" xmlns:sodipodi="http://sodipodi.sourceforge.net/DTD/sodipodi-0.dtd">
	
      <path id="path1728" d="M 1964,1635.93 C 1033.6153,1671.0633 698,1547 591.21662,885 L 551,957 c 35,789 499,959 1216,903.9 38,-100.9 112,-166.9 182.2,-186.9 z" sodipodi:nodetypes="cccccc"></path>
      <path id="path1730" d="m 379.82,388 0.55,133 C 383.19444,1204 269,1603 35,1873 l 22,7 C 421,1716 601.32,1225.313 601.32,689.53 V 472.18 c 42.02,0 70.66,-33.68 70.68,-51.51 z" sodipodi:nodetypes="csccsccc"></path>
      <path id="path1732" d="M 109.45,885 H 905 c 16.85,0 27.23,-11.08 27.23,-16.26 L 738.37,689 622.93,837.94 91.37,837.99 Z" sodipodi:nodetypes="csccccc"></path>
      <path sodipodi:nodetypes="cccccccccc" d="m 1307,1171 c 226.9077,-136.1611 434.4302,-437.39819 552.78,-678.74 29.7187,2.21578 62.98,-24.53 64.1,-30.82 l -222.9,-148.7 -120.1,115.5 H 815.99998 l 15.42,48.84 H 1582 C 1520.2564,702.03777 1411.6453,973.1298 1278,1152 Z" id="path1742"></path>
      <path sodipodi:nodetypes="ccscc" d="m 1028.9989,980.99041 c 91.196,75.07999 239.196,266.07999 316.196,412.71299 C 1445,1448 1568.6088,1351.8993 1488,1224 1413,1105 1254,1017 1041.9989,967.99041 Z" id="path1744"></path>
    
</svg>
