<?xml version="1.0" encoding="UTF-8" standalone="no"?>
<svg viewBox="0 0 2000 2000" version="1.1" xmlns="http://www.w3.org/2000/svg" xmlns:sodipodi="http://sodipodi.sourceforge.net/DTD/sodipodi-0.dtd">
	
      <path id="path1786" d="m 1009.47,1213 c 0,279 -30.81,463 -223.81,651 l 26,7.32 C 1088.66,1770 1209,1592 1209,1246 V 734 c 35.66,-2 58.66,-30.56 58.66,-45.84 l -258.19,-24.89 z" sodipodi:nodetypes="sccscccs"></path>
      <path sodipodi:nodetypes="ccscccc" id="path1788" d="m 838.3536,1053.63 13.08,49.01 h 1114.6167 c 16.86,0 27.23,-11.08 27.23,-16.26 L 1848.0303,925 1763,1053.68 Z"></path>
      <path sodipodi:nodetypes="cssccc" d="m 1594,618 v 1236.32 c 0,67.36 199.2,15.23 199.2,-49.48 V 688.52 c 38.55,0 63.08,-21.03 64.83,-42.05 z" id="path1791"></path>
      <path id="path1793" d="M 816.678,748 C 1018.6407,633.72385 1180.8666,431.88536 1296,207.39 c 27.9043,1.42761 67.6958,-19.11217 74.2196,-48.22301 L 1053,95.57038 C 1009.4512,265.36502 917.14271,539.46798 805,736 Z" sodipodi:nodetypes="cccccc"></path>
      <path d="m 998.6469,401.6 13.08,49.01 h 896.3534 c 16.86,0 27.23,-11.08 27.23,-16.26 L 1742,261 1625.2103,401.65 Z" id="path1795" sodipodi:nodetypes="ccscccc"></path>
      <path id="path1797" d="m 1300.8,699 v 868.48 c 0,67.36 199.2,15.23 199.2,-49.48 V 769.52 c 38.55,0 63.08,-21.03 64.83,-42.05 z" sodipodi:nodetypes="cssccc"></path>
      <path sodipodi:nodetypes="ccsscccscccccc" d="M 408.94,876.48313 H 606.649 C 610,1068 587,1407 539.849,1650.4832 c -2.83928,14.6618 -18.49989,18.8222 -27.96,17.87 l -215.5,-21.69 2.211,28.14 c 111.4,39.94 188.3,143.1 187.2,224.9 98.42,8.252 227.69653,-29.1664 255.8,-189 C 795,1407 809,1211 809,887.10313 c 18.7,-2.854 38.84,-18.07 46.94,-34.49 l -185.4,-131.2 -108.8,106.7 H 393.3413 Z" id="path1808"></path>
      <path sodipodi:nodetypes="csccscc" id="path1811" d="M 236,426.83213 V 680 c 0,555.2039 -76.05489,903.6374 -216,1224 l 24,-6 C 246.79934,1749.5693 442.97659,1388.4524 448,722 l 0.21427,-293.76587 z"></path>
      <path sodipodi:nodetypes="ccccscc" d="m 693,252.93213 -123,146.34 -524.4802,-0.05 13.0801,49.012 h 791.9627 c 16.86,0 27.2305,-11.082 27.2305,-16.262 z" id="path1813"></path>
    
</svg>
