<?xml version="1.0" encoding="UTF-8" standalone="no"?>
<svg viewBox="0 0 2000 2000" version="1.1" xmlns="http://www.w3.org/2000/svg" xmlns:sodipodi="http://sodipodi.sourceforge.net/DTD/sodipodi-0.dtd">
	
      <path id="path2078" d="M 1609.49,1181.18 H 940.8 V 596.41 c 39.73,1e-4 65.01,-27.67 66.81,-49.34 l -278.1,-26.89 v 779.77 c 0,44.1441 207.15149,6.8907 211.3,-47.04 v -26 h 668.69 v 75.9 c 0,32.1293 211.3,16.3428 211.3,-58.04 V 579 c 39.73,10e-5 65.01,-25.67 66.81,-47.34 l -278.1,-28.89 z" sodipodi:nodetypes="cccccssccsscccc"></path>
      <path id="path2082" d="M 330,331.77 V 1157 c 0,330.089 -47.25266,622.5435 -157.7999,813.77 l 22,1 c 197,-115.77 339,-353.77 339,-787.77 V 402.29 c 38.55,10e-5 63.08,-21.03 64.83,-42.05 z" sodipodi:nodetypes="csccsccc"></path>
      <path d="m 1186.8,120.48 v 1808 c 0,67.36 203.2,15.23 203.2,-49.48 V 191 c 38.55,6e-5 59.08,-21.03 60.83,-42.05 z" id="path2084" sodipodi:nodetypes="cssccc"></path>
    
</svg>
