<?xml version="1.0" encoding="UTF-8" standalone="no"?>
<svg viewBox="0 0 2000 2000" version="1.1" xmlns="http://www.w3.org/2000/svg" xmlns:sodipodi="http://sodipodi.sourceforge.net/DTD/sodipodi-0.dtd">
	
      <path sodipodi:nodetypes="ccscc" d="m 144.1,353.4 c 41.25,46.48 118.1,181.9 166,304.4 80.02,29.66 188.37726,-23.46888 145.3,-145.6 C 419,409 260.1,357.1 154.8,344.8 Z" id="path959"></path>
      <path d="m 117.8,812.5 c 176.1,147.4 377.6,372.3 519.5,607.5 118.5,31.89 214.8,-87.31 114.8,-232.7 C 600.2,966.3 389,865.2 134.6,796.6 Z" id="path991"></path>
      <path d="M 1971,1718 C 1716.5,1510.3 1571.5,997.2 1577.7,356 l -68.76,245.9 c 4.8,704.7 112.6,1205 250.9,1350 31.62,-107.4 90.99,-187.1 207.1,-210.2 z" id="path1001"></path>
      <path d="m 1356,267.6 c 0,848.1 -75.6,1362 -384.8,1651 l 18.08,13.73 c 369.1,-184 588.2,-609 588.2,-1588 42.02,0 70.66,-30.56 70.66,-45.84 z m -408.5,4.389 c -39.21,784.7 -152.4,1305 -444.6,1644 l 18.12,10.01 c 354.3,-197.5 591.2,-704.2 648.1,-1570 33.44,-1.48 64.88,-24.39 68.77,-48.41 z M 539,276.378 c -78.42,721.3 -229.2,1248 -504.5,1637 l 18.15,6.281 c 339.5,-211.1 594.2,-799.4 707.9,-1553 24.86,-2.96 59.09,-18.23 66.88,-50.99 z" id="path1003"></path>
      <path d="m 985,1008.7 c 47.21,52.88 126.5,210.2 149.4,357.2 86.19,45.82 195.9,13.41 179.1,-133 C 1297.09,1090.6 1117.9,1013 997.3,999 Z" id="path1037"></path>
    
</svg>
