<?xml version="1.0" encoding="UTF-8" standalone="no"?>
<svg viewBox="0 0 2000 2000" version="1.1" xmlns="http://www.w3.org/2000/svg" xmlns:sodipodi="http://sodipodi.sourceforge.net/DTD/sodipodi-0.dtd">
	
      <path sodipodi:nodetypes="csccsccc" id="path3096" d="m 278.8,211.7 v 860.1 c 0,372 -45.8,673.2 -223.4,900.8 L 81,1980 c 224,-138 395.06,-415.674 395.06,-896.274 v -801.9 c 38.55,6e-5 63.08,-21.03 64.83,-42.05 z"></path>
      <path sodipodi:nodetypes="ccscc" id="path3100" d="M 199.88145,642.12354 C 197.02917,782.52354 137,948 51,1043 c -56,125 58.07661,227.4613 171.02917,131.5235 88.91502,-75.5211 69.52648,-391.06704 3.18199,-526.37996 z"></path>
      <path sodipodi:nodetypes="cccccc" id="path3115" d="m 1389.7035,142.971 c -85.71,197.8 -244,451.029 -425.80001,663.8 l 4.8,16.229 c 239.00001,-96 475.20001,-325.279 626.20001,-528.179 25.11,3.238 45.94,-8.426 56.39,-32.53 z"></path>
      <path id="path3127" d="m 1879.7035,780.7 c 7.403,-78.04 65.33,-174.1 118.2,-196.9 l 2,-28.45 c -130.2,-13.45 -404.1,-176.3 -461.8,-272.6 l -67.24,26.13 c 37.11,170.1 283.2,433.1 408.9,471.8 z"></path>
      <path sodipodi:nodetypes="ccscc" id="path3155" d="M 476.10422,452.60629 C 630.47943,540.31945 781.81803,698.13852 900,852 1036,891 1128.9042,725.10629 995.90418,621.10629 862.10679,516.48277 682.64123,466.41761 492.30422,436.30629 Z"></path>
      <path sodipodi:nodetypes="cccccc" id="path3158" d="m 450,1059 c 252.86508,-129.4238 437.4928,-420.14416 601.46,-739.96 18.4134,2.16063 61.53,-6.188 75.64,-36.76 L 830,207 C 761,472 611.59227,813.07488 431,1054 Z"></path>
      <path sodipodi:nodetypes="csccccsccc" id="path3161" d="m 679.4,936.4 v 803.3 c 0,21.03 -23.4,40.43 -23.71,26.31 l -133.4,-16.97 0.819,26.75 c 80.46,37.63 145.6,104.6 152,205.7 170.5,-14.02 203.5,-101.6 203.5,-243.6 v -731.5 c 38.55,10e-5 63.08,-21.03 64.83,-42.05 z"></path>
      <path sodipodi:nodetypes="cccccc" id="path3163" d="M 507.79,1241.09 C 501.95462,1349.1173 436.16952,1646.1903 318,1824 h 20 c 140,-72.614 304.375,-271.1538 370,-511 19,-2 37,-15 44,-32 z"></path>
      <path sodipodi:nodetypes="ccccc" id="path3167" d="m 817.5,1260.8 c 47.21,52.88 126.5,210.2 149.4,357.2 86.19,45.82 195.9,13.41 179.1,-133 -16.41,-142.3 -195.6,-219.9 -316.2,-233.9 z"></path>
      <path id="path3182" d="m 1121.649,957 h 625 c -26.649,285 -72.649,539 -142.8,774 -4.2718,14.3101 -18.5289,19.0758 -27.96,17.87 L 1410.649,1728 v 28 c 89,32 134,132 139.151,224.22 98.42,8.252 208.659,-41.7122 255.8,-197 C 1880.649,1536 1914,1323 1949,967.62 c 18.7,-2.854 36.9,-18.07 45,-34.49 l -183.46,-131.2 -108.8,106.7 h -595.6897 z" sodipodi:nodetypes="ccsscccscccccc"></path>
      <path d="m 1500.649,937 c -20.755,365.4045 -133.6112,737.3809 -347,949 l 14,12 c 311.8561,-138.3039 499.6602,-452.6581 555,-955 z" id="path3184" sodipodi:nodetypes="ccccc"></path>
      <path sodipodi:nodetypes="ccccc" id="path3186" d="m 1260.649,937 c -22.5017,304.2947 -109.2908,624.6635 -277,846 l 15,6 c 245.7914,-114.3807 417.9663,-408.4549 480,-846 z"></path>
      <path d="M 1066.79,748.09 C 1062.3075,863.53027 1011.7737,1180.9888 921,1371 l 24,5 c 122,-72 274.8885,-295.0323 332,-556 16.5351,-2.17613 37,-15 44,-32 z" id="path3191" sodipodi:nodetypes="cccccc"></path>
    
</svg>
