<?xml version="1.0" encoding="UTF-8" standalone="no"?>
<svg viewBox="0 0 2000 2000" version="1.1" xmlns="http://www.w3.org/2000/svg" xmlns:sodipodi="http://sodipodi.sourceforge.net/DTD/sodipodi-0.dtd">
	
      <path id="path1854" d="m 540,708.14 c 81.24,100.8 165.2,238.4 207.7,388.6 94.3,82.16 262.0422,-4.9082 181.3,-148.84 -69,-123 -225,-215 -378,-248.46 z" sodipodi:nodetypes="ccscc"></path>
      <path id="path1856" d="m 1981.825,1242.93 c -249,-98.6833 -543.7,-441.03 -543.7,-815.5 l -67.95,199.47 c 8,302 160.283,667.6247 359.8,797 24.984,-55.4864 111,-139 243.2,-154.9 z" sodipodi:nodetypes="cccccc"></path>
      <path id="path1858" d="m 1216.625,194.9 0.55,208 c 1.0721,405.44254 -113,756.0613 -396,985 l 23,13 c 396,-143.2994 593.95,-539.2717 593.95,-973.47 V 279.08 c 42.02,0 70.66,-33.68 70.68,-51.51 z" sodipodi:nodetypes="csccsccc"></path>
      <path sodipodi:nodetypes="csccsccc" d="M 477.5893,201.55 V 318.9 c 0,510.2146 -161.2705,867.6423 -442.4143,1135 l 23,10 C 416.15378,1329.8855 698.8143,915.6643 698.8143,377.9 v -89.495 c 42.02,0 70.6601,-33.68 70.68,-51.51 z" id="path1864"></path>
      <path sodipodi:nodetypes="ccscccc" id="path1866" d="m 157,1875.05 13.08,47.01 h 1664.3827 c 16.85,0 27.23,-11.08 27.23,-16.26 L 1665,1719.4 1546.4927,1875 Z"></path>
      <path d="m 357,1522.99 13.08,47.01 h 1264.3827 c 16.85,0 27.23,-11.08 27.23,-16.26 L 1465,1367.34 l -118.5073,155.6 z" id="path1887" sodipodi:nodetypes="ccscccc"></path>
    
</svg>
