<?xml version="1.0" encoding="UTF-8" standalone="no"?>
<svg viewBox="0 0 2000 2000" version="1.1" xmlns="http://www.w3.org/2000/svg" xmlns:sodipodi="http://sodipodi.sourceforge.net/DTD/sodipodi-0.dtd">
	
      <path id="path1240" d="m 383.3968,1066.1764 c 60.42232,57.9591 161.88105,230.3898 191.2461,391.5092 83,45 207,6 186,-130 C 735.29873,1163.552 535.03024,1072.7095 396.0968,1056.4764 Z" sodipodi:nodetypes="ccscc"></path>
      <path sodipodi:nodetypes="ccscccc" id="path1245" d="m 38.52,759.55 13.08,49.01 h 692.3 c 16.86,0 27.23,-11.08 27.23,-16.26 L 601.93,637 493.83,759.5 Z"></path>
      <path id="path1262" d="m 1010.81,758 c 0,612.2844 -86.57,923.407 -317.9,1122 l 11.83,16 c 312.3,-121.3907 505.6,-352.3761 505.6,-1043 V 621 c 35.54,0 58.66,-30.56 58.66,-45.84 l -258.19,-24.89 z" sodipodi:nodetypes="sccscccs"></path>
      <path id="path1264" d="m 515.21,386.918 c 21.51,0.6762 63.66,-18.94 70.66,-45.84 L 293.7,311 v 272 c 0,610.2264 -82.26,1032.9265 -260.3,1315.5 l 19.91,5.918 C 352.01,1724.351 515.21,1314.0128 515.21,610 Z" sodipodi:nodetypes="cccsccsc"></path>
      <path sodipodi:nodetypes="ccscccc" id="path1268" d="m 694.59,986.95 13.08,49.01 h 1224.4103 c 16.86,0 27.23,-11.08 27.23,-16.26 L 1766,846.35 1649.2103,987 Z"></path>
      <path sodipodi:nodetypes="cssccc" d="m 1367.8,485 v 1384.64 c 0,67.36 199.2,15.23 199.2,-49.48 V 555.52 c 38.55,0 63.08,-21.03 64.83,-42.05 z" id="path1295"></path>
      <path sodipodi:nodetypes="cccccccccc" d="m 1640.8,669.32 c 124.7559,-61.59475 238.4898,-231.27738 288,-341.32 15.4835,1.115 62.98,-24.53 64.1,-30.82 L 1779.3986,146.48 1649.9,271.98 H 894.1 l 15.42,48.34 H 1687 c -14.6669,145.138 -37.9514,260.038 -67.2,345 z" id="path1298"></path>
      <path sodipodi:nodetypes="ccscc" d="M 865.136,171.659 C 849.8689,306.372 817.42632,449.098 718,520 c -80.85607,98 49.17457,248.84159 167,161 96.665,-72.066 114,-290 3.636,-519.091 z" id="path1300"></path>
    
</svg>
