<?xml version="1.0" encoding="UTF-8" standalone="no"?>
<svg viewBox="0 0 2000 2000" version="1.1" xmlns="http://www.w3.org/2000/svg" xmlns:sodipodi="http://sodipodi.sourceforge.net/DTD/sodipodi-0.dtd">
	
      <path sodipodi:nodetypes="cccccssccsscccc" d="M 1333,1399.1754 H 630.4 V 426.41537 c 39.73,1e-4 65.01,-21.67 66.81,-43.34 l -270.1,-28.89 V 1507.4454 c 0,44.6906 203.3,-5.4454 203.3,-47.04 v -12 h 702.6 v 65.9 c 0,31.4855 203.3,12.2264 203.3,-58.04 V 414.40537 c 39.73,10e-5 65.01,-21.67 66.81,-43.34 l -270.1,-28.89 z" id="path2190"></path>
      <path d="m 527,831.9154 13.08,49.01 h 950.43 l -0.51,-48.96 z" id="path2192" sodipodi:nodetypes="ccccc"></path>
      <path d="m 89.5073,1768.05 13.08,47.01 H 1886.97 c 16.85,0 27.23,-11.08 27.23,-16.26 L 1715.5073,1614.4 1599,1768 Z" id="path2198" sodipodi:nodetypes="ccscccc"></path>
    
</svg>
