<?xml version="1.0" encoding="UTF-8" standalone="no"?>
<svg viewBox="0 0 2000 2000" version="1.1" xmlns="http://www.w3.org/2000/svg" xmlns:sodipodi="http://sodipodi.sourceforge.net/DTD/sodipodi-0.dtd">
	
      <path sodipodi:nodetypes="cccccssccsscccc" id="path1790" d="M 1618,1802.9697 H 397 V 360.64 c 39.73,1e-4 65.01,-25.67 66.81,-47.34 l -278.1,-28.89 v 1627.3297 c 0,48.6661 211.3,16.7881 211.3,-47.04 v -12 h 1221 v 65.9 c 0,45.8497 211.3,20.0322 211.3,-58.04 V 353.23 c 39.73,10e-5 65.01,-25.67 66.81,-47.34 L 1618.02,277 Z"></path>
      <path id="path1796" d="m 376.88059,1774 c 462.01086,-140.9938 837.49431,-423.7954 1136.89011,-771.96 35,3.96 61.53,-6.188 75.64,-36.76 L 1314.3107,870 C 1072.54,1219.6747 748.79989,1520.1927 361.88059,1756 Z" sodipodi:nodetypes="cccccc"></path>
      <path d="m 618.07079,345 c 205.6,111.8 405.60001,310.3 561.09991,503.1 155.1,44.57 245.3,-102.2 108.6,-226.1 -174.9,-158.5 -405.79991,-240.3 -655.59991,-293.4 z" id="path1804" sodipodi:nodetypes="ccccc"></path>
      <path d="M 465.77069,945.02674 C 873.78608,824.33982 1170.6807,576.34164 1435.2307,278.04 c 29.703,2.01524 61.53,-6.188 75.64,-36.76 L 1235.7707,146 C 1028.7127,448.02275 788.14953,709.94119 451.77069,937.02674 Z" id="path1806" sodipodi:nodetypes="cccccc"></path>
      <path d="M 628.19166,1075.3294 C 837.77069,1227 1029.7707,1417 1228.7707,1681 c 116,51 249.3116,-59.4792 139,-206 -131,-174 -424.00001,-332 -722.77904,-415.5706 z" id="path1810" sodipodi:nodetypes="ccscc"></path>
    
</svg>
