<?xml version="1.0" encoding="UTF-8" standalone="no"?>
<svg viewBox="0 0 2000 2000" version="1.1" xmlns="http://www.w3.org/2000/svg" xmlns:sodipodi="http://sodipodi.sourceforge.net/DTD/sodipodi-0.dtd">
	
      <path sodipodi:nodetypes="cccccsscccsccc" d="m 1511.103,738 -95.1,91.71 H 353.5156 l 12,49.09 H 1426.503 v 426.98 c 0,21.03 -15.2367,27.6598 -23.71,26.31 l -220.2774,-15.09 -0.713,22.75 c 88.2,25.13 182.713,89.25 220.0774,207.85 187.5,-14.02 227.8,-101.6 227.8,-243.6 V 903.52 c 33.56,0 78.32,-28.04 78.32,-42.05 z" id="path1674"></path>
      <path sodipodi:nodetypes="csccc" d="m 875.35,1909.3 c 0,36.98 207.3,15.05 207.3,-58.04 V 855.1 l -207.29,-3 z" id="path1676"></path>
      <path sodipodi:nodetypes="ccccsccccccc" d="m 891.44922,172.0711 0.5332,398.90429 L 197,571.00078 215.08008,620.01055 H 1823.6309 c 16.85,0 27.2285,-11.07977 27.2285,-16.25977 L 1640,420.01055 1517,570.95 1108.9492,570.9656 V 256.25078 c 42.02,0 70.6617,-33.67976 70.6817,-51.50976 z" id="path1690"></path>
    
</svg>
