<?xml version="1.0" encoding="UTF-8" standalone="no"?>
<svg viewBox="0 0 2000 2000" version="1.1" xmlns="http://www.w3.org/2000/svg" xmlns:sodipodi="http://sodipodi.sourceforge.net/DTD/sodipodi-0.dtd">
	
      <path sodipodi:nodetypes="cccccccccc" id="path3504" d="M 182.38002,1067 C 769.78002,960.52081 1216.38,691.6872 1551.38,281.68 c 29.34,0 62.98,-24.53 64.1,-30.82 l -203,-150.9 -140,125.7 H 468.38002 l 9.42,50.34 H 1277 C 1032.8,601.15382 651.10002,856.65908 164.00002,1047 Z"></path>
      <path sodipodi:nodetypes="cccccssccsscccc" d="M 1439.69,1478 H 557 l 4.29,-300.36 c 39.73,0 65.01,-33.67 66.81,-55.34 l -278.1,-20.89 -4.29,475.36 c -0.48576,53.8255 211.3,18.1485 211.3,-47.04 v -6 h 882.69 v 47.9 c 0,42.0455 210.3682,17.4097 211.3,-58.04 l 4.29,-347.36 c 39.73,0 65.01,-25.67 66.81,-47.34 L 1444,1090 Z" id="path3522"></path>
      <path sodipodi:nodetypes="csccsccc" d="m 902.4201,987 v 356 c 0,264.0582 -64.4201,469.0258 -308.7101,622 l 20,13 c 286.29,-79 501.9102,-274 501.9102,-620 v -300.48 c 38.55,0 63.08,-21.03 64.83,-42.05 z" id="path3533"></path>
      <path sodipodi:nodetypes="cccccc" id="path3389-4" d="M 1833.21,868.58 C 1192.075,766.36361 760.90236,495.43073 565,345 l -6,33 c 171.03979,197.61817 566.9676,550.13405 1031,684 46.9902,-78.32416 124,-141.8 234.8,-161.8 z"></path>
    
</svg>
