<?xml version="1.0" encoding="UTF-8" standalone="no"?>
<svg viewBox="0 0 2000 2000" version="1.1" xmlns="http://www.w3.org/2000/svg" xmlns:sodipodi="http://sodipodi.sourceforge.net/DTD/sodipodi-0.dtd">
	
      <path sodipodi:nodetypes="cccccc" id="path1508" d="M 1952.105,1694.58 C 1227,1592 799.63504,1136 568,644 l -30,48 c 228.32452,586.2832 538.2883,1040.1807 1170.895,1196 51.32,-87.1322 124,-141.8 234.8,-161.8 z"></path>
      <path id="path1510" d="M 1302.74,407.2 C 1077.2413,1056.4981 720.30276,1611.8899 97.74,1864 l 21.26,17 c 741.5719,-143.2234 1132,-685 1397,-1335.23 51.23,9.22059 66.93,-10.08 77.38,-34.19 z" sodipodi:nodetypes="cccccc"></path>
      <path id="path1512" d="M 676.70959,289.73498 C 735.20357,358.25594 826.92524,524.82021 879,671 993,731 1126,617 1034,473 963.20846,362.19585 803,303 687.40959,281.13498 Z" sodipodi:nodetypes="ccscc"></path>
    
</svg>
