<?xml version="1.0" encoding="UTF-8" standalone="no"?>
<svg viewBox="0 0 2000 2000" version="1.1" xmlns="http://www.w3.org/2000/svg" xmlns:sodipodi="http://sodipodi.sourceforge.net/DTD/sodipodi-0.dtd">
	
      <path sodipodi:nodetypes="cccccssccsscccc" d="M 1429.69,1326 H 661 l 0.29,-424.36 c 39.73,0 65.01,-33.67 66.81,-55.34 L 450,825.41 l -0.29,625.36 c -0.0177,38.25 211.3,-4.18 211.3,-47.04 v -32 h 768.69 v 61.9 c 0,28.04 211.2665,-1.972 211.3,-58.04 l 0.29,-485.36 c 39.73,0 65.01,-25.67 66.81,-47.34 L 1430,814 Z" id="path3570"></path>
      <path sodipodi:nodetypes="csccsccc" d="m 954.4201,628 v 681 c 0,267 -86.4201,499.258 -330.7101,662.702 l 22,12.298 C 939,1888.67 1153.6202,1647 1153.6202,1358.193 V 698.52 c 38.55,0 63.08,-21.03 64.83,-42.05 z" id="path3572"></path>
      <path id="path3574" d="m 482.02,467.95 13.08,47.01 h 1298.97 c 16.86,0 27.23,-11.08 27.23,-16.26 L 1623.1,317.4 1504,468 Z" sodipodi:nodetypes="ccscccc"></path>
      <path sodipodi:nodetypes="cccccc" d="M 161,1059 C 358,918 594,572 733,156.7364 767,153 790,134 800,107.7364 L 477,59 C 432.18787,325 328.92658,733.9695 135,1060 Z" id="path3578"></path>
    
</svg>
