<?xml version="1.0" encoding="UTF-8" standalone="no"?>
<svg viewBox="0 0 2000 2000" version="1.1" xmlns="http://www.w3.org/2000/svg" xmlns:sodipodi="http://sodipodi.sourceforge.net/DTD/sodipodi-0.dtd">
	
      <path d="M 1618,1765 H 397 V 581 c 39.73,10e-5 65.01,-25.67 66.81,-47.34 l -278.1,-28.89 v 1369 c 0,55.579 211.3,25.2859 211.3,-47.04 v -12 h 1221 v 65.9 c 0,39.8496 211.3,10.182 211.3,-58.04 v -1241 c 39.73,10e-5 65.01,-25.67 66.81,-47.34 l -278.1,-28.89 z" id="path1239" sodipodi:nodetypes="cccccssccsscccc"></path>
      <path d="m 530.6,686.4 c 264.6,188.2 567.1,475.2 780.3,775.5 149.3,56.17 295.1,-85.59 159,-237.1 C 1207.6,932.7 943.5,792.7 547.4,670.6 Z" id="path1242"></path>
      <path d="m 719.5,236.5 c 64.18,73.19 146.1,204 195.9,346.3 92.93,36.35 217.3,-9.155 178.7,-151.5 C 1057.82,297.7 856.2,240.7 732.2,226.8 Z" id="path1246"></path>
      <path d="m 282.5,1633 19.39,15.12 c 522.2,-225.2 946.6,-676.9 1285,-1233 38.02,3.76 61.53,-6.188 75.64,-36.76 l -275.1,-95.28 c -280.5,532.8 -656.1,990.7 -1105,1350 z" id="path1248"></path>
    
</svg>
