<?xml version="1.0" encoding="UTF-8" standalone="no"?>
<svg viewBox="0 0 2000 2000" version="1.1" xmlns="http://www.w3.org/2000/svg" xmlns:sodipodi="http://sodipodi.sourceforge.net/DTD/sodipodi-0.dtd">
	
      <path sodipodi:nodetypes="csccccc" d="m 262.08,869 h 1506.55 c 16.85,0 27.23,-11.08 27.23,-16.26 L 1607,684 1492.56,819.94 244,819.99 Z" id="path1924"></path>
      <path id="path1926" d="m 184.08,486 h 1653.99 c 16.85,0 27.23,-11.08 27.23,-16.26 L 1676.44,301 1562,436.94 166,436.99 Z" sodipodi:nodetypes="csccccc"></path>
      <path sodipodi:nodetypes="cccccc" id="path1929" d="M 1952.605,1784.58 C 1451.9293,1727.7935 1066.1437,1383.1096 883,1112 l -42,41 c 201.6917,393.1067 471.7346,711.7853 868.395,825 45.9745,-82.8145 131.105,-138 232.8,-163.8 z"></path>
      <path id="path1933" d="m 799,44.01517 c 47.21,52.88 126.5,210.2 149.4,357.2 86.19,45.82 221.6,21.78483 191.1,-133 -28.687,-145.58417 -207.6,-219.9 -328.2,-233.9 z" sodipodi:nodetypes="ccscc"></path>
      <path id="path1935" d="M 924.8,524.47 C 827.75433,1153.3547 561.35772,1685.3005 68,1971 l 27,11 c 573.87709,-133.9003 946.4893,-712.8412 1067.42,-1367.77 36.7557,-5.51432 60.3,-29.64 61.58,-50.7 z" sodipodi:nodetypes="cccccc"></path>
      <path id="path1938" d="m 1152,1524 c 157.4947,-92.3415 303.9069,-236.6317 410.7121,-382.2932 26.5111,2.2346 68.6089,-15.5183 76.6577,-44.2448 L 1340,1002 c -27.3031,88.7241 -120.278,305.0111 -224,480 z" sodipodi:nodetypes="cccccc"></path>
    
</svg>
