<?xml version="1.0" encoding="UTF-8" standalone="no"?>
<svg viewBox="0 0 2000 2000" version="1.1" xmlns="http://www.w3.org/2000/svg" xmlns:sodipodi="http://sodipodi.sourceforge.net/DTD/sodipodi-0.dtd">
	
      <path sodipodi:nodetypes="cccccssccsscccc" d="M 1481.69,1786 H 515 l 4.29,-796.36 c 39.73,0 65.01,-33.67 66.81,-55.34 L 308,913.41 l -4.29,995.36 c -0.16485,38.2493 211.3,-6.77 211.3,-45.04 v -32 h 966.69 v 61.9 c 0,28.04 211.0181,-1.9722 211.3,-58.04 l 4.29,-853.36 c 39.73,0 65.01,-25.67 66.81,-47.34 L 1486,906 Z" id="path2210"></path>
      <path sodipodi:nodetypes="ccccc" d="m 900.4201,436 v 1371 l 199.2001,1 V 437 Z" id="path2212"></path>
      <path id="path2214" d="m 185.82,410.55 13.08,47.01 h 1622.07 c 16.86,0 27.23,-11.08 27.23,-16.26 L 1650,252 1530.9,410.6 Z" sodipodi:nodetypes="ccscccc"></path>
    
</svg>
