<?xml version="1.0" encoding="UTF-8" standalone="no"?>
<svg viewBox="0 0 2000 2000" version="1.1" xmlns="http://www.w3.org/2000/svg" xmlns:sodipodi="http://sodipodi.sourceforge.net/DTD/sodipodi-0.dtd">
	
      <path sodipodi:nodetypes="ccscc" d="m 531,1308 c 81,101 165,239 208,389 83,75 235,17 185,-140 -45,-142 -236,-225 -382,-257 z" id="path1112"></path>
      <path sodipodi:nodetypes="cccccc" d="m 1980,1780 c -249,-99 -542,-370 -544,-751 l -68,199 c 8,302 160,604 360,733 25,-55 111,-139 243,-155 z" id="path1117"></path>
      <path sodipodi:nodetypes="csccsccc" d="m 1214,864 1,140 c 2,392 -113,707 -396,928 l 23,10 c 396,-138 594,-495 594,-913 v -80 c 42,0 71,-34 71,-52 z" id="path1119"></path>
      <path sodipodi:nodetypes="csccccc" d="m 1004,1166 h 807 c 17,0 27,-11 27,-16 L 1646,993 1545,1119 H 986 Z" id="path1121"></path>
      <path sodipodi:nodetypes="cccccc" d="m 247,550 99,299 c 20,-4 38,-38 38,-59 415,-70 770,-146 1135,-222 l 16,-29 c -406,7 -845,9 -1288,11 z" id="path1131"></path>
      <path id="path1133" d="m 1327,315 c 63,107 143,300 185,498 85,48 233,-7 200,-160 -32,-148 -193,-281 -372,-351 z" sodipodi:nodetypes="ccscc"></path>
      <path sodipodi:nodetypes="ccscccc" id="path1138" d="m 112,1119 13,47 h 825 c 17,0 27,-11 27,-16 L 801,999 702,1119 Z"></path>
      <path sodipodi:nodetypes="cccccc" d="m 589,595 c 177,-118 325,-283 444,-445 29,1 68,-18 75,-47 L 762,26 C 739,133 637,394 537,583 Z" id="path1140"></path>
      <path id="path1152" d="m 445,869 v 80 c 0,410 -131,744 -412,989 l 23,12 C 404,1842 673,1423 673,979 v -23 c 42,0 70,-34 70,-52 z" sodipodi:nodetypes="csccsccc"></path>
    
</svg>
