<?xml version="1.0" encoding="UTF-8" standalone="no"?>
<svg viewBox="0 0 2000 2000" version="1.1" xmlns="http://www.w3.org/2000/svg" xmlns:sodipodi="http://sodipodi.sourceforge.net/DTD/sodipodi-0.dtd">
	
      <path sodipodi:nodetypes="ccsscccscccccc" d="M 558.13866,636.50765 H 1436.649 C 1411,1001 1370,1317 1305.849,1654.4377 c -2.7892,14.6712 -20.4716,18.4784 -29.96,17.87 l -215.5,-13.69 2.211,28.14 c 111.4,39.94 198.3,135.1 197.2,216.9 98.42,8.252 225.796,-28.464 257.3223,-187.6577 C 1590,1348 1619,1112 1657,647.12765 c 18.7,-2.854 38.84,-18.07 46.94,-34.49 l -185.4,-131.2 -108.8,106.7 H 545.49163 Z" id="path1974"></path>
      <path sodipodi:nodetypes="ccccc" id="path1976" d="M 908,604 C 852,1161 679,1612 346,1889 l 23,10 c 452,-159 697.2217,-607 773,-1293 z"></path>
      <path sodipodi:nodetypes="cccccc" id="path1979" d="M 1986.21,1342.58 C 1260.9408,1302.6451 702.0985,1064.6569 436.8,874 l 3,62 c 302.67871,288.7548 707.9318,522.8386 1303.2,606 48,-77 150,-142 232.8,-169.8 z"></path>
      <path id="path1991" d="m 105,1279 c 353,-177 547,-528 649,-939 42.63805,0.95542 68,-18 75,-47 L 511,248 C 453,675 270,1066 81,1276 Z" sodipodi:nodetypes="cccccc"></path>
    
</svg>
