<?xml version="1.0" encoding="UTF-8" standalone="no"?>
<svg viewBox="0 0 2000 2000" version="1.1" xmlns="http://www.w3.org/2000/svg" xmlns:sodipodi="http://sodipodi.sourceforge.net/DTD/sodipodi-0.dtd">
	
      <path id="path2526" d="M 670.13866,642.50765 H 1528.649 C 1503,1007 1462,1323 1397.849,1660.4377 c -2.7892,14.6712 -20.4712,18.4728 -29.96,17.87 l -215.5,-13.69 2.211,28.14 c 111.4,39.94 198.3,135.1 197.2,216.9 98.42,8.252 225.796,-28.464 257.3223,-187.6577 C 1682,1354 1711,1118 1749,653.12765 c 18.7,-2.854 38.84,-18.07 46.94,-34.49 l -185.4,-131.2 -108.8,106.7 H 657.49163 Z" sodipodi:nodetypes="ccsscccscccccc"></path>
      <path d="M 1045,610 C 977.14235,1167 781.51068,1618 378,1895 l 19,10 c 523.92238,-159 794.1638,-607 882,-1293 z" id="path2528" sodipodi:nodetypes="ccccc"></path>
      <path d="M 1986.21,1338.58 C 1260.9408,1298.6451 742.0985,1080.6569 476.8,890 l 3,62 c 287.2,283 696.2,509 1263.2,586 48,-77 150,-142 232.8,-169.8 z" id="path2530" sodipodi:nodetypes="cccccc"></path>
      <path d="m 81,1420 c 373.10179,-129.8244 686.62433,-558.09553 784,-962 23.05369,-0.9217 56,-14.161 61.58,-30.82 l -201,-164.9 -136,139.7 H 193 l 17.42,50.34 H 601.1 C 537,797 336,1182 58,1410 Z" id="path2541" sodipodi:nodetypes="cccccccccc"></path>
    
</svg>
