<?xml version="1.0" encoding="UTF-8" standalone="no"?>
<svg viewBox="0 0 2000 2000" version="1.1" xmlns="http://www.w3.org/2000/svg" xmlns:sodipodi="http://sodipodi.sourceforge.net/DTD/sodipodi-0.dtd">
	
      <path sodipodi:nodetypes="sccscccs" d="m 476.81,1231 c 0,279 -30.81,463 -223.81,651 l 26,7.32 C 556,1788 676.34,1610 676.34,1264 V 812 C 712,810 735,781.44 735,766.16 L 476.81,741.27 Z" id="path1737"></path>
      <path d="m 127.49,1121.63 13.08,49.01 h 1751.5103 c 16.86,0 27.23,-11.08 27.23,-16.26 L 1726,981.03 1609.2103,1121.68 Z" id="path1739" sodipodi:nodetypes="ccscccc"></path>
      <path id="path1741" d="m 1322,696 v 1176.32 c 0,67.36 199.2,15.23 199.2,-49.48 V 766.52 c 38.55,0 63.08,-21.03 64.83,-42.05 z" sodipodi:nodetypes="cssccc"></path>
      <path sodipodi:nodetypes="cccccc" d="M 164,931 C 409.8166,777.84391 605.47963,520.06481 754,225.39 c 35.9961,1.8739 67.6958,-19.11217 74.2196,-48.22301 l -332.0832,-69 C 436.09155,323.10963 320.16987,660.39229 157,911 Z" id="path1770"></path>
      <path sodipodi:nodetypes="ccscccc" id="path1774" d="m 419.7833,462.99 13.08,49.01 H 1738 c 16.86,0 27.23,-11.08 27.23,-16.26 L 1571.9197,322.39 1455.13,463.04 Z"></path>
      <path sodipodi:nodetypes="cssccc" d="m 892,777 v 808.48 c 0,67.36 199.2,15.23 199.2,-49.48 V 847.52 c 38.55,0 63.08,-21.03 64.83,-42.05 z" id="path1776"></path>
    
</svg>
