<?xml version="1.0" encoding="UTF-8" standalone="no"?>
<svg viewBox="0 0 2000 2000" version="1.1" xmlns="http://www.w3.org/2000/svg" xmlns:sodipodi="http://sodipodi.sourceforge.net/DTD/sodipodi-0.dtd">
	
      <path d="m 228,1491 c 378.02276,-114.818 685.69191,-484.4239 798,-759.88 23.5857,-0.72654 56,-14.161 61.58,-30.82 l -201,-164.9 -136,139.7 H 494 l 17.42,50.34 H 762.1 C 689.67394,974.24768 527.83207,1255.5941 206,1481 Z" id="path1874" sodipodi:nodetypes="cccccccccc"></path>
      <path id="path1891" d="m 796.649,959.5 h 705 C 1475,1294 1440,1516 1384.849,1733.5 c -3.6706,14.476 -18.4775,18.5638 -27.96,17.87 l -203.24,-14.87 v 28 c 89,32 164,126 169.151,218.22 98.42,8.252 225.6876,-38.7835 261.8,-197 C 1640,1543 1675,1322 1704,970.12 c 18.7,-2.854 38.84,-18.07 46.94,-34.49 l -185.4,-131.2 -108.8,106.7 H 781.0503 Z" sodipodi:nodetypes="ccsscccscccccc"></path>
      <path d="M 1222.649,939.5 C 1198.6253,1277.759 1067.9953,1622.1018 821,1818 l 19,12 c 339.754,-128.094 544.3587,-419.242 604.649,-884.5 z" id="path1893" sodipodi:nodetypes="ccccc"></path>
      <path sodipodi:nodetypes="ccccc" id="path1895" d="M 953.649,939.5 C 873.7416,1216.0511 729.43979,1465.2946 494,1649 l 17,13 c 321.98228,-117.508 536.2817,-331.6115 660.649,-716.5 z"></path>
      <path d="M 914.5,26.185 C 704,311.88738 410,631.0071 18,858 l 25,11 C 476,763.24078 837.4555,465.68832 1114.16,182.515 c 39.53,4.84864 66.93,-10.08 77.38,-34.19 z" id="path1899" sodipodi:nodetypes="cccccc"></path>
      <path d="M 1989,654.58 C 1568,577 1215.5,325 1074,160 l -91,31 c 191.98,267 453,524 750.12,651 C 1773,761 1868,701 1979.92,681.2 Z" id="path1901" sodipodi:nodetypes="cccccc"></path>
    
</svg>
