<?xml version="1.0" encoding="UTF-8" standalone="no"?>
<svg viewBox="0 0 2000 2000" version="1.1" xmlns="http://www.w3.org/2000/svg" xmlns:sodipodi="http://sodipodi.sourceforge.net/DTD/sodipodi-0.dtd">
	
      <path sodipodi:nodetypes="ccsscccscccccc" d="m 555.109,711.656 h 1042 C 1557,1129 1486,1435 1412.309,1677.656 c -4.3397,14.29 -24.4991,20.8135 -33.96,19.87 l -215.5,-21.69 2.211,28.14 c 111.4,39.94 188.3,143.1 187.2,224.9 98.42,8.252 210.2935,-41.2253 255.8,-197 C 1698,1424 1761.109,1155 1799.46,722.276 c 18.7,-2.854 38.84,-18.07 46.94,-34.49 l -185.4,-131.2 -108.8,106.7 H 542.462 Z" id="path1436"></path>
      <path d="m 1188,702 c -52,444 -186.9271,840.1672 -452.891,1077 l 18,9 C 1114.353,1627.2248 1316,1258 1411,702 Z" id="path1443" sodipodi:nodetypes="ccccc"></path>
      <path sodipodi:nodetypes="ccccc" id="path1445" d="m 790,699 c -51.96973,324.9092 -192.62,672.8634 -416.891,896 l 14,10 C 703.74504,1466.0433 922.32324,1163.4734 1013,705 Z"></path>
      <path sodipodi:nodetypes="cccccc" d="m 169.109,1229 c 223.96715,-117.3023 457.82279,-489.57121 561.82,-877.53 25.64042,-1.66334 60.18,-14.47 70.18,-41.92 l -309,-57.29 c -45.98319,316.61686 -149.44537,670.11005 -342,972.74 z" id="path1450"></path>
    
</svg>
