<?xml version="1.0" encoding="UTF-8" standalone="no"?>
<svg viewBox="0 0 2000 2000" version="1.1" xmlns="http://www.w3.org/2000/svg" xmlns:sodipodi="http://sodipodi.sourceforge.net/DTD/sodipodi-0.dtd">
	
      <path id="path2563-4" d="m 437.73,677.749 v 1035 c 0,21.03 -10.478,27.733 -24.53,26.28 L 190.7,1716.02 v 22.78 c 131.33,44.849 188.33,100.849 222.5,215.8 C 600.7,1940.58 637,1853 637,1711 V 748 c 38.55,0 63.08,-21.03 64.83,-42.05 z" sodipodi:nodetypes="csscccsccc"></path>
      <path sodipodi:nodetypes="cccccc" id="path2566-5" d="M 489,121.15 C 399.66184,340 220.2,659 1,918 l 21,3 c 172.38996,-73.88218 449.48185,-296.75831 664,-652 23.11374,-1.01208 46,-12 56.39,-32.53 z"></path>
      <path d="m 92.85,984.748 c 43.164,61.338 110.848,210.443 149.275,341.3 103,60 197,-35 155,-146 -42.658,-112.74 -182,-173 -293.575,-203.9 z" id="path2570-2" sodipodi:nodetypes="ccscc"></path>
      <path d="m 784.267,937.856 c -42.156,147.723 -78.155,260.003 -130.469,389.877 l 17.979,3.124 C 755.652,1292.285 897.973,1173.751 982,1072 c 24.724,-0.223 46.216,-5.38 55.125,-18.641 z" id="path2577-0" sodipodi:nodetypes="cccccc"></path>
      <path sodipodi:nodetypes="cccccccccc" d="m 835.22,1945 c 512,-144 833,-587 1037.78,-1423.82 32.22,-7.40661 62.22,-19 64.1,-30.82 l -222.9,-148.7 -120.1,115.5 h -372.88 l 15.42,48.84 h 370.58 c -108,744 -402,1197 -787,1429 z" id="path2470-6-4"></path>
      <path sodipodi:nodetypes="cccccc" d="m 981,1134 c 139,-105.8198 302,-421 436,-849 30,-3.50311 68,-25.9463 75,-54.9463 l -314,-57 C 1162,289.90464 1080,780 957,1131 Z" id="path3777"></path>
      <path sodipodi:nodetypes="cccccc" d="M 1992,1728 C 1648.9769,1589.7178 1321.9326,1204.7224 1206,673 l -30,53 c 93.629,646.476 349.325,1064.5535 604.84,1217.9 49.8794,-83.4991 114.54,-165.08 207.1,-192.2 z" id="path3795"></path>
      <path sodipodi:nodetypes="ccscc" d="M 491.9989,268.9904 C 586.8881,358.85973 740.8817,587.48309 821,763 925,823.04443 1056.7306,735.99339 988,591 915,437 724.52698,314.87423 504.9989,255.9904 Z" id="path3798"></path>
    
</svg>
