<?xml version="1.0" encoding="UTF-8" standalone="no"?>
<svg viewBox="0 0 2000 2000" version="1.1" xmlns="http://www.w3.org/2000/svg" xmlns:sodipodi="http://sodipodi.sourceforge.net/DTD/sodipodi-0.dtd">
	
      <path d="m 748,115 c 61,68 157,233 211,378 95,58 233,-34 151,-176 C 1042,200 909,128 758,106 Z" id="path1256" sodipodi:nodetypes="ccscc"></path>
      <path id="path1259" d="m 184,586 h 1654 c 17,0 27,-11 27,-16 L 1672,413 1562,537 H 166 Z" sodipodi:nodetypes="csccccc"></path>
      <path sodipodi:nodetypes="csccccc" d="m 262,1057 h 1507 c 16,0 27,-11 27,-16 L 1603,884 1493,1008 H 244 Z" id="path1252"></path>
      <path sodipodi:nodetypes="csccsccc" d="m 862,644 v 166 c 2,462 -194,833 -714,1094 l 31,25 C 794,1764 1071,1336 1071,835 V 729 c 42,0 71,-34 71,-52 z" id="path1247"></path>
      <path sodipodi:nodetypes="cccccc" d="m 1892,1762 c -434,-97 -818,-428 -821,-927 l -52,166 c 6,465 324,817 621,942 57,-84 111,-139 243,-155 z" id="path1244"></path>
    
</svg>
