<?xml version="1.0" encoding="UTF-8" standalone="no"?>
<svg viewBox="0 0 2000 2000" version="1.1" xmlns="http://www.w3.org/2000/svg" xmlns:sodipodi="http://sodipodi.sourceforge.net/DTD/sodipodi-0.dtd">
	
      <path sodipodi:nodetypes="ccccc" id="path2947" d="M 403.06392,316.72438 C 399.30439,486.38683 293.40986,753.1674 161.2,896.5084 c -43.20843,143.452 136,245 248,108 121.83984,-145.7511 105.73015,-500.1722 30.5237,-678.23853 z"></path>
      <path id="path2950" d="m 1455,1085 c 151.1973,-111.51474 300.806,-312.27449 381,-592.32 33.3866,-1.99099 62.98,-24.53 64.1,-30.82 l -226.9,-160.7 -136.1,135.5 H 436.78 L 452.2,485 h 1111 C 1534.1281,739.8397 1490,924.68 1424,1086.68 Z" sodipodi:nodetypes="cccccccccc"></path>
      <path id="path2954" d="m 239.224,1650.4898 98.839,298.7089 c 20.763,-3.5763 38.78167,-36.3273 38.887,-58.2356 C 812.64377,1814.4946 1185.9795,1731.2187 1569,1649 l 3,-31 c -419.5919,20.8509 -874.43406,27.6757 -1332.776,32.4898 z" sodipodi:nodetypes="cccccc"></path>
      <path sodipodi:nodetypes="ccscc" d="m 1336.5,1426.1396 c 63,107 142.591,300.4691 185,498 85,48 233.115,-6.842 200,-160 -32,-148 -193,-281 -372,-351 z" id="path2956"></path>
      <path id="path2959" d="m 533,1702 c 178,-135 385,-394 569,-706 36.9409,2.37079 68,-18 75,-47 L 831,872 c -36.7872,159.1914 -183.74111,522.8008 -356,832 z" sodipodi:nodetypes="cccccc"></path>
    
</svg>
