<?xml version="1.0" encoding="UTF-8" standalone="no"?>
<svg viewBox="0 0 2000 2000" version="1.1" xmlns="http://www.w3.org/2000/svg" xmlns:sodipodi="http://sodipodi.sourceforge.net/DTD/sodipodi-0.dtd">
	
      <path id="path1666" d="m 1374,822.48313 h 287.709 C 1665.06,1014 1640.06,1407 1592.909,1650.4832 c -2.8393,14.6618 -18.5008,18.831 -27.96,17.87 l -215.5,-21.69 2.211,28.14 c 111.4,39.94 188.3,143.1 187.2,224.9 98.42,8.252 238.049,-28.4619 261.8,-189 C 1845,1411 1864.06,1157 1864.06,833.10313 c 18.7,-2.854 38.84,-18.07 46.94,-34.49 l -185.4,-131.2 -108.8,106.7 h -258.3987 z" sodipodi:nodetypes="ccsscccscccccc"></path>
      <path d="M 1205.06,372.83213 V 680 c 0,573.9233 -138.488,941.7381 -404.06,1224 l 32,-1 c 305,-117 578.6707,-466.0201 584.06,-1181 l 0.2143,-347.76587 z" id="path1669" sodipodi:nodetypes="csccscc"></path>
      <path id="path1671" d="m 1770.06,198.93213 -123,146.34 -700.4802,-0.05 13.0801,49.012 h 967.9627 c 16.86,0 27.2305,-11.082 27.2305,-16.262 z" sodipodi:nodetypes="ccccscc"></path>
      <path d="m 108.2692,557.48653 13.08,49.01 h 873.2 c 16.86,0 27.23,-11.08 27.23,-16.26 l -193.3103,-167.35 -116.7897,134.65 z" id="path1689" sodipodi:nodetypes="ccscccc"></path>
      <path d="m 578.5692,1470.8865 c 108.2,-134.9 253.3,-445.2 331.8,-718.69997 25.46,14.72 59.7,-19.92 64.78,-38.99 l -326.5,-70.76 c -6.59,150.4 -45.77,522.89997 -102,826.09997 z" id="path1692" sodipodi:nodetypes="cccccc"></path>
      <path d="m 61.769204,1478.8865 89.259996,287.9 c 20.77,-3.536 38.91,-30.39 39,-58.16 l 793.7,-282 4.094,-23.93 z" id="path1694" sodipodi:nodetypes="cccccc"></path>
      <path d="m 171.2692,680.38653 c 39.05,108.6 95.34,370.49997 123.6,685.49997 92.54,78.91 235.3,15.14 207.2,-173.7 -34.13,-229.59997 -174.3,-435.09997 -318.1,-526.29997 z" id="path1696"></path>
    
</svg>
