<?xml version="1.0" encoding="UTF-8" standalone="no"?>
<svg viewBox="0 0 2000 2000" version="1.1" xmlns="http://www.w3.org/2000/svg" xmlns:sodipodi="http://sodipodi.sourceforge.net/DTD/sodipodi-0.dtd">
	
      <path sodipodi:nodetypes="ccsscccscccccc" d="M 536.1387,1013.07 H 1447.649 C 1435.54,1281 1418.54,1464 1390.08,1664 c -2.1039,14.7852 -24.2501,28.5935 -33.711,27.65 l -217.5,-21.69 2.211,28.14 c 111.4,39.94 188.3,143.1 187.2,224.9 98.42,8.252 240.1234,-30.1687 261.8,-191 30.46,-226 45.46,-435 59.92,-708.31 18.7,-2.854 38.84,-18.07 46.94,-34.49 L 1511.54,858 1402.74,964.7 h -882.2 z" id="path2503"></path>
      <path sodipodi:nodetypes="ccccc" id="path2505" d="m 998.54,391 c -46.9044,705.2828 -263.6874,1226.9631 -744,1518 l 35,9 c 559.6074,-150.0839 870.2031,-652.1496 932,-1524 z"></path>
      <path sodipodi:nodetypes="ccccscc" d="m 1643.54,210.93213 -123,146.34 -1312,-0.05 13.0801,49.012 h 1579.4825 c 16.86,0 27.2305,-11.082 27.2305,-16.262 z" id="path2507"></path>
      <path sodipodi:nodetypes="cccccc" id="path2517" d="m 512.08,482 c -42.7359,302.52163 -155.1684,670.4621 -255.73,846 l 21.73,13 c 222.9444,-144.6526 395.2007,-490.73302 469,-768.27715 34.0198,-2.33759 71.27,-35.98 71.27,-53.65 z"></path>
    
</svg>
