<?xml version="1.0" encoding="UTF-8" standalone="no"?>
<svg viewBox="0 0 2000 2000" version="1.1" xmlns="http://www.w3.org/2000/svg" xmlns:sodipodi="http://sodipodi.sourceforge.net/DTD/sodipodi-0.dtd">
	
      <path sodipodi:nodetypes="cssccsscccccc" d="m 371.10938,1064.9043 v 796.3652 c 0,64.5946 231.6622,39.1295 217.30078,-47.039 v -12 h 826.59964 v 61.9004 c 0,61.2672 217.3007,31.766 217.3007,-58.0411 V 1064.9043 H 1415.0176 L 1415,1753 H 588.40039 v -688.0957 z" id="path2938"></path>
      <path d="m 54.52,1022.4543 13.08,51.01 h 1859 c 16.86,0 27.23,-11.08 27.23,-16.26 l -198.2,-177.30001 -119.1,142.60001 z" id="path2940" sodipodi:nodetypes="ccscccc"></path>
      <path sodipodi:nodetypes="ccccsccccccc" d="m 889.44922,128 0.5332,512.90429 L 257,640.92968 275.08008,689.93945 H 1743.6309 c 16.85,0 27.2285,-11.07977 27.2285,-16.25977 L 1560,489.93945 1437,640.8789 1110.9492,640.8945 V 212.17968 c 42.02,0 70.6617,-33.67976 70.6817,-51.50976 z" id="path2945"></path>
    
</svg>
