<?xml version="1.0" encoding="UTF-8" standalone="no"?>
<svg viewBox="0 0 2000 2000" version="1.1" xmlns="http://www.w3.org/2000/svg" xmlns:sodipodi="http://sodipodi.sourceforge.net/DTD/sodipodi-0.dtd">
	
      <path d="m 186.48,541.2 13.08,49.01 h 1615 c 16.86,0 27.23,-11.08 27.23,-16.26 l -198.2,-177.3 -119.1,144.6 z" id="path2419" sodipodi:nodetypes="ccscccc"></path>
      <path sodipodi:nodetypes="cccccssccsscccc" id="path2421" d="M 1193,1213 H 822.4 V 292.01 c 39.73,1e-4 65.01,-21.67 66.81,-43.34 l -270.1,-28.89 v 1101.49 c 0,48.0119 203.3,12.8572 203.3,-47.04 v -12 h 370.6 v 65.9 c 0,37.5475 203.3,23.5611 203.3,-58.04 V 292 c 39.73,10e-5 65.01,-21.67 66.81,-43.34 l -270.1,-28.89 z"></path>
      <path sodipodi:nodetypes="cccccssccsscccc" id="path2430" d="M 1610,1753 H 389 v -704.59 c 39.73,10e-5 65.01,-25.67 66.81,-47.34 l -278.1,-28.89 v 889.59 c 0,55.579 211.3,25.2859 211.3,-47.04 v -12 h 1221 v 65.9 c 0,39.8496 211.3,10.182 211.3,-58.04 V 1049 c 39.73,10e-5 65.01,-25.67 66.81,-47.34 l -278.1,-28.89 z"></path>
    
</svg>
