<?xml version="1.0" encoding="UTF-8" standalone="no"?>
<svg viewBox="0 0 2000 2000" version="1.1" xmlns="http://www.w3.org/2000/svg" xmlns:sodipodi="http://sodipodi.sourceforge.net/DTD/sodipodi-0.dtd">
	
      <path id="path2888" d="m 202.08,688 h 1626.55 c 16.85,0 27.23,-11.08 27.23,-16.26 L 1663,489 1552.56,638.94 184,638.99 Z" sodipodi:nodetypes="csccccc"></path>
      <path d="M 1952.605,1784.58 C 1451.9293,1727.7935 1066.1437,1383.1096 883,1112 l -42,41 c 201.6917,393.1067 471.7346,711.7853 868.395,825 45.9745,-82.8145 131.105,-138 232.8,-163.8 z" id="path2892" sodipodi:nodetypes="cccccc"></path>
      <path sodipodi:nodetypes="cccccc" d="M 924.8,190 C 827.75433,964.29687 561.35772,1619.2404 68,1971 l 35,5 c 573.87709,-164.4666 946.0693,-885.5662 1067,-1690 30.58,-5 55.72,-25.94 57,-47 z" id="path2896"></path>
      <path sodipodi:nodetypes="cccccc" d="m 1172,1460 c 166.6979,-99.3463 321.6657,-254.5821 434.7121,-411.2932 28.0603,2.4041 68.6089,-15.5183 76.6577,-44.2448 L 1384,909 c -31.5692,96.1178 -139.0714,330.4287 -259,520 z" id="path2898"></path>
    
</svg>
