<?xml version="1.0" encoding="UTF-8" standalone="no"?>
<svg viewBox="0 0 2000 2000" version="1.1" xmlns="http://www.w3.org/2000/svg" xmlns:sodipodi="http://sodipodi.sourceforge.net/DTD/sodipodi-0.dtd">
	
      <path sodipodi:nodetypes="ccscccc" d="m 224.85,776.59 13.08,49.01 h 1539 c 16.86,0 27.23,-11.08 27.23,-16.26 l -198.2,-177.3 -119.1,144.6 z" id="path2781"></path>
      <path sodipodi:nodetypes="cccccc" d="M 1987.15,1221 C 1740,1154 1420,1018 1230,810 l -68,9 c 155,282 369,503 569.2,589.71 56.5418,-84.4323 127.4271,-139.2891 246.8,-160.8 z" id="path2783"></path>
      <path sodipodi:nodetypes="cccccc" d="M 915.38,142.94 C 840,751 579,1169 32,1415 l 21,14 C 682,1325.287 1054,804 1153,232.7 c 41.0264,-4.60526 60.3,-29.64 61.58,-50.7 z" id="path2785"></path>
      <path d="m 1376.88,1236.1085 -95.1,91.71 h -545.8 l -231.3,-56.07 v 670.861 c 0,38.25 222.479,23.972 203.3,-35.04 v -20 h 584.4 v 56.02 c 0,28.04 203.3,10.03 203.3,-46.04 v -495.861 c 33.56,0 78.32,-28.04 78.32,-42.05 z m -84.58,602.261 H 707.9 v -461.561 h 584.4 z" id="path2787" sodipodi:nodetypes="ccccscccsscccccccc"></path>
      <path id="path2795" d="m 1225.712,743.9383 c 161,-87.2315 347.3,-233.248 464,-361.2315 27.177,-0.7775 63,-17.7685 76.658,-44.2448 L 1463,237 c -31.726,92.5516 -139.763,318.169 -260.288,500.7068 z" sodipodi:nodetypes="cccccc"></path>
      <path sodipodi:nodetypes="ccscc" d="M 246,291 C 353.30769,408.99095 456.88294,562.47511 525,715 621.11037,771.59729 782.45214,662.94696 685,528 602.67111,413.9954 436.14222,326.15579 264,282.3 Z" id="path2797"></path>
    
</svg>
