<?xml version="1.0" encoding="UTF-8" standalone="no"?>
<svg viewBox="0 0 2000 2000" version="1.1" xmlns="http://www.w3.org/2000/svg" xmlns:sodipodi="http://sodipodi.sourceforge.net/DTD/sodipodi-0.dtd">
	
      <path id="path1344" d="M 1941,1665.8622 C 984,1685.6272 593,1518.6272 303,830.62718 l -22,37 c 219,763.00002 626,1061.00002 1463,1023.20502 44.3542,-110.534 112,-166.9 182.2,-186.9 z" sodipodi:nodetypes="cccccc"></path>
      <path d="m 35,1895.16 c 532.3934,-155.0776 813.42,-716.4019 911.42,-1243.48 27,-1.16772 56,-14.16055 61.58,-30.82 L 807,455.96 671,595.66 H 364.58 L 374,646 H 703.52 C 620.42,1200.3945 413.14162,1605.3812 12,1882.16 Z" id="path1363" sodipodi:nodetypes="cccccccccc"></path>
      <path sodipodi:nodetypes="cccccc" d="m 82,1226 c 182.50843,-94.1418 373.07447,-392.91027 457.82,-704.27 14.92699,-2.22348 60.74,-9.156 70.18,-41.92 L 301,422.51945 C 269,683.06804 197,973.9616 63,1223 Z" id="path1378"></path>
      <path sodipodi:nodetypes="csccccsccc" d="m 1349.9763,245.77142 0.2363,1056.21468 c 0,21.03 -9.625,27.3076 -23.711,26.3085 l -202,-16.3183 -1.1816,22.75 c 127.3,35.07 187.9008,94.3096 202.3008,209.0996 187.5,-14.02 227.8867,-101.5996 227.8867,-243.5996 V 322.09372 c 28.695,0.3973 67.6602,-18.9399 74.6602,-45.8399 z" id="path1410"></path>
      <path sodipodi:nodetypes="cccsc" id="path1402" d="m 1022.9755,595.84352 -11.199,3.6992 C 1067.5491,694.38277 1108.1005,804.48878 1134,927 c 70.5669,73.2375 217.2504,2.43254 173,-127 -40,-117 -167.2375,-178.35648 -284.0245,-204.15648 z"></path>
      <path sodipodi:nodetypes="cccccc" id="path1395" d="M 1682.2011,566.17059 C 1644.8472,710.88248 1614.8258,814.90899 1568,942.274 l 16.7605,7.55542 C 1673.8867,906.69077 1806.2528,797.24108 1881.1902,698.44434 1905,698 1927.353,692.62842 1936.1367,679.28414 Z"></path>
    
</svg>
