<?xml version="1.0" encoding="UTF-8" standalone="no"?>
<svg viewBox="0 0 2000 2000" version="1.1" xmlns="http://www.w3.org/2000/svg" xmlns:sodipodi="http://sodipodi.sourceforge.net/DTD/sodipodi-0.dtd">
	
      <path sodipodi:nodetypes="ccscccc" d="m 436,450 13,49 h 1145 c 17,0 27,-12 27,-17 L 1423,305 1304,450 Z" id="path1292"></path>
      <path sodipodi:nodetypes="cccccc" d="m 900,96 v 835 l 199,-8 V 167 c 39,0 63,-21 65,-42 z" id="path1282"></path>
      <path sodipodi:nodetypes="ccscccc" d="m 136,895 13,49 h 1705 c 17,0 27,-11 27,-17 L 1683,750 1564,895 Z" id="path1288"></path>
      <path sodipodi:nodetypes="cccccccccc" d="m 1037,1698 c 229,-93 438,-297 557,-461 30,1 63,-25 64,-31 l -223,-149 -120,116 H 384 l 15,48 h 917 c -63,150 -174,330 -311,449 z" id="path1276"></path>
      <path sodipodi:nodetypes="ccscc" d="m 722,1501 c 91,75 239,266 316,413 88,48 218,-36 148,-170 -62,-119 -229,-194 -451,-256 z" id="path1278"></path>
    
</svg>
