<?xml version="1.0" encoding="UTF-8" standalone="no"?>
<svg viewBox="0 0 2000 2000" version="1.1" xmlns="http://www.w3.org/2000/svg" xmlns:sodipodi="http://sodipodi.sourceforge.net/DTD/sodipodi-0.dtd">
	
      <path sodipodi:nodetypes="cscccc" d="m 900,1894 c 0,37 203,15 203,-58 V 213 c 40,0 65,-21 67,-43 L 900,141 Z" id="path1270"></path>
      <path sodipodi:nodetypes="ccccssccsscccccccc" d="m 1460,454 -95,92 H 655 L 424,490 v 894 c 0,38 203,27 203,-35 v -40 h 749 v 28 c 0,28 203,10 203,-46 V 620 c 33,0 78,-28 78,-42 z m -85,808 H 627 V 595 h 748 z" id="path1273"></path>
      <path sodipodi:nodetypes="ccscccc" d="m 111,915 13,45 h 1780 c 13,0 21,-11 21,-17 L 1731,777 1620,915 Z" id="path1275"></path>
    
</svg>
