<?xml version="1.0" encoding="UTF-8" standalone="no"?>
<svg viewBox="0 0 2000 2000" version="1.1" xmlns="http://www.w3.org/2000/svg" xmlns:sodipodi="http://sodipodi.sourceforge.net/DTD/sodipodi-0.dtd">
	
      <path sodipodi:nodetypes="ccsscccscccccc" d="m 1263.94,876.48313 h 365.709 C 1625,1138 1603,1411 1566.849,1656.4832 c -2.1758,14.7748 -18.5,18.8221 -27.96,17.87 l -215.5,-21.69 2.211,28.14 c 111.4,39.94 188.3,143.1 187.2,224.9 98.42,8.252 233.7057,-28.2255 255.8,-189 C 1808,1430 1824,1188 1832,887.10313 c 18.7,-2.854 38.84,-18.07 46.94,-34.49 l -185.4,-131.2 -108.8,106.7 h -336.3987 z" id="path2877"></path>
      <path sodipodi:nodetypes="csccscc" id="path2880" d="M 1081,404.83213 V 670 c 0,555.2039 -98,980 -301,1224 l 22,8 c 316,-144 496.8836,-525.0112 493,-1190 l 0.2143,-305.76587 z"></path>
      <path sodipodi:nodetypes="ccccscc" d="m 1744,230.93213 -123,146.34 -790.4802,-0.05 13.0801,49.012 h 1057.9627 c 16.86,0 27.2305,-11.082 27.2305,-16.262 z" id="path2897"></path>
      <path id="path2925" d="M 602.69,1590.91 H 398.09 V 566.13999 c 39.73,0 65.01,-21.67 66.81,-43.34 l -274.1,-28.89 V 1733.18 c 0,42.1955 207.3,18.891 207.3,-45.04 v -48 h 204.6 v 45.9 c 0,45.5992 207.3,24.6364 207.3,-58.04 V 578.12999 c 39.73,0 65.01,-21.67 66.81,-43.34 l -274.1,-28.89 z" sodipodi:nodetypes="cccccssccsscccc"></path>
      <path id="path2927" d="m 253.9085,904.33299 13.08,49.01 H 732 l -21.2,-48.96 z" sodipodi:nodetypes="ccccc"></path>
    
</svg>
