<?xml version="1.0" encoding="UTF-8" standalone="no"?>
<svg viewBox="0 0 2000 2000" version="1.1" xmlns="http://www.w3.org/2000/svg" xmlns:sodipodi="http://sodipodi.sourceforge.net/DTD/sodipodi-0.dtd">
	
      <path id="path2096" d="m 879.8483,1948.88 c 0,36.98 212.1517,15.05 212.1517,-58.04 V 208.23 c 39.73,1e-4 65.01,-21.67 66.81,-43.34 L 879.8583,136 Z" sodipodi:nodetypes="cscccc"></path>
      <path sodipodi:nodetypes="csccccc" d="M 349.15,1020.5 H 1693.7 c 16.85,0 27.23,-11.08 27.23,-16.26 L 1532.07,819.5 1411.63,969.44 331.07,969.49 Z" id="path2098"></path>
      <path sodipodi:nodetypes="csccccc" d="m 182.64,1411 h 1653.99 c 16.85,0 27.23,-11.08 27.23,-16.26 L 1673,1212 l -118.44,147.94 -1390,0.05 z" id="path2100"></path>
      <path id="path2104" d="M 309.15,630.5 H 1693.7 c 16.85,0 27.23,-11.08 27.23,-16.26 L 1532.07,429.5 1411.63,579.44 291.07,579.49 Z" sodipodi:nodetypes="csccccc"></path>
    
</svg>
