<?xml version="1.0" encoding="UTF-8" standalone="no"?>
<svg viewBox="0 0 2000 2000" version="1.1" xmlns="http://www.w3.org/2000/svg" xmlns:sodipodi="http://sodipodi.sourceforge.net/DTD/sodipodi-0.dtd">
	
      <path id="path3262" d="m 527.07812,1187.1299 v 574.9903 l 206.97657,-49.4805 0.32422,-510.5098 z" sodipodi:nodetypes="ccccc"></path>
      <path sodipodi:nodetypes="cccccc" d="m 270,1692.8604 86.5633,279.8494 c 20.7631,-3.5763 38.786,-30.2925 38.8871,-58.2356 L 1553,1638.8604 l 14,-47 z" id="path3266"></path>
      <path sodipodi:nodetypes="ccscc" d="m 1331.9174,1419 c 63,107 142.5909,300.4691 185,498 85,48 233.1152,-6.842 200,-160 -32,-148 -193,-281 -372,-351 z" id="path3268"></path>
      <path d="m 54.52,1172 13.08,51.01 h 1859 c 16.86,0 27.23,-11.08 27.23,-16.26 l -198.2,-177.3 -119.1,142.6 z" id="path3287" sodipodi:nodetypes="ccscccc"></path>
      <path d="m 1433.4,170.2 -95.1,91.71 H 668.6 L 437.3,205.84 v 842.1 c 0,38.25 203.3,27.0606 203.3,-35.04 v -28 h 708.3 v 61.9 c 0,28.04 203.3,10.03 203.3,-46.04 v -665 c 33.56,0 78.32,-28.04 78.32,-42.05 z M 640.6,311 h 708.3 V 586.1 H 640.6 Z m 0,326.3 h 708.3 V 933.8 H 640.6 Z" id="path3290" sodipodi:nodetypes="ccccssccssccccccccccccc"></path>
    
</svg>
