<?xml version="1.0" encoding="UTF-8" standalone="no"?>
<svg viewBox="0 0 2000 2000" version="1.1" xmlns="http://www.w3.org/2000/svg" xmlns:sodipodi="http://sodipodi.sourceforge.net/DTD/sodipodi-0.dtd">
	
      <path id="path2184" d="m 1243.99,172 v 1735.71 c 0,67.36 199.2,15.23 199.2,-49.48 V 242.52 c 38.55,6e-5 63.08,-21.03 64.83,-42.05 z" sodipodi:nodetypes="cssccc"></path>
      <path id="path2186" d="m 816.29,1301.79 13.08,49.01 h 1073.8 c 16.86,0 27.23,-11.08 27.23,-16.26 l -198.2,-177.3 -119.1,144.6 z" sodipodi:nodetypes="ccscccc"></path>
      <path id="path2188" d="m 969,916.59 13.08,49.01 h 791.99 c 16.86,0 27.23,-11.08 27.23,-16.26 L 1603.1,772.04 1484,916.64 Z" sodipodi:nodetypes="ccscccc"></path>
      <path sodipodi:nodetypes="ccscccc" d="M 876.29,541.99 889.37,591 h 953.8 c 16.86,0 27.23,-11.08 27.23,-16.26 l -198.2,-177.3 -119.1,144.6 z" id="path2213"></path>
      <path id="path2234" d="M 64.74,1041.26 154,1309.16 C 172,1300 190,1281 193,1251 L 894.906,1028.93 903,997 Z" sodipodi:nodetypes="cccccc"></path>
      <path sodipodi:nodetypes="ccscccc" d="m 129.24,569.95 13.08,49.01 h 697.2 c 16.86,0 27.23,-11.08 27.23,-16.26 L 680.65,420.9 556.65,570 Z" id="path2240"></path>
      <path id="path2244" d="m 601.44001,602 -203.28997,-10.1176 -4.29,1302.1576 c -0.14118,42.8522 203.09059,11.9098 203.29997,-47.04 z" sodipodi:nodetypes="ccssc"></path>
    
</svg>
