<?xml version="1.0" encoding="UTF-8" standalone="no"?>
<svg viewBox="0 0 2000 2000" version="1.1" xmlns="http://www.w3.org/2000/svg" xmlns:sodipodi="http://sodipodi.sourceforge.net/DTD/sodipodi-0.dtd">
	
      <path id="path2320" d="M 429.07812,454.26953 V 1691.2598 l 202.97657,-49.4805 0.32422,-1158.50977 z" sodipodi:nodetypes="ccccc"></path>
      <path id="path2330" d="M 1604.1855,381.74858 1485.3124,144.26957 c -257.4144,113.00512 -587.63251,232.44143 -887.00001,336 l 31,45 c 309.4308,-34.7148 602.39331,-85.87344 905.00001,-153 20.547,22.12857 57.395,19.462 69.8731,9.47901 z" sodipodi:nodetypes="cccccc"></path>
      <path sodipodi:nodetypes="cccccc" d="m 204,1634 86.5633,279.8494 c 20.7631,-3.5763 38.786,-30.2925 38.8871,-58.2356 L 1579,1540 l 14,-47 z" id="path2364"></path>
      <path id="path2366" d="M 1312.5009,1132.7705 C 1407.6816,1289.4523 1527.9281,1572.7523 1592,1862 c 98.7884,70.9159 251.1908,5.5776 205,-176 -58,-228 -238,-444 -465.4991,-560.2295 z" sodipodi:nodetypes="ccscc"></path>
    
</svg>
