<?xml version="1.0" encoding="UTF-8" standalone="no"?>
<svg viewBox="0 0 2000 2000" version="1.1" xmlns="http://www.w3.org/2000/svg" xmlns:sodipodi="http://sodipodi.sourceforge.net/DTD/sodipodi-0.dtd">
	
      <path sodipodi:nodetypes="cccccc" id="path3210" d="M 1863,937.58 C 1139.7,810.27535 701,494.56932 492,307 l -10.21,29 c 186.8,232.32729 605,647.23671 1138,795 51.32,-92.0808 124,-141.8 234.8,-161.8 z"></path>
      <path id="path3213" d="M 1342,193.2 C 1105.1,536.86454 722,895 139,1107 l 13.26,24 c 586.74,-81 1047,-368.13776 1403,-799.23 51.23,5.46393 66.93,-10.08 77.38,-34.19 z" sodipodi:nodetypes="cccccc"></path>
      <path id="path3226" d="m 710.6,121.2 c 58.41,52.64 150,180.6 202,292.9 C 1038.4,450.27 1137,351.03 1060,247.5 988.92,151.99 826.9,122.2 721.3,112.6 Z" sodipodi:nodetypes="ccccc"></path>
      <path id="path3252" d="m 535.07812,1198.7495 v 564.9903 l 202.97657,-49.4805 0.32422,-508.5098 z" sodipodi:nodetypes="ccccc"></path>
      <path sodipodi:nodetypes="cccccc" d="m 308,1694.48 86.5633,279.8494 c 20.7631,-3.5763 38.786,-30.2925 38.8871,-58.2356 L 1511,1662.48 l 14,-47 z" id="path3265"></path>
      <path sodipodi:nodetypes="ccscc" d="m 1279.9174,1440.6196 c 63,107 142.5909,300.4691 185,498 85,48 233.1152,-6.842 200,-160 -32,-148 -193,-281 -372,-351 z" id="path3270"></path>
      <path id="path3329" d="m 388.64,1233 h 1173.99 c 16.85,0 27.23,-11.08 27.23,-16.26 L 1399,1052 l -112.44,131.94 -916,0.05 z" sodipodi:nodetypes="csccccc"></path>
    
</svg>
