<?xml version="1.0" encoding="UTF-8" standalone="no"?>
<svg viewBox="0 0 2000 2000" version="1.1" xmlns="http://www.w3.org/2000/svg" xmlns:sodipodi="http://sodipodi.sourceforge.net/DTD/sodipodi-0.dtd">
	
      <path sodipodi:nodetypes="ccccc" d="m 188.765,655.3583 v 862.9015 l 202.977,-49.4805 0.324,-784.421 z" id="path2359"></path>
      <path sodipodi:nodetypes="cccccc" d="M 940.22396,635.43416 778,394 C 644.63072,496.56484 505.1935,595.47607 357.13651,689.19718 l 26.38258,42.48588 c 166.0315,-25.04264 332.97861,-60.62517 489.29259,-101.60801 18.32088,14.39871 56.00332,15.68877 67.41228,5.35911 z" id="path2368"></path>
      <path id="path2373" d="m 46,1449 86.564,279.8494 c 20.763,-3.5763 38.786,-30.2925 38.887,-58.2356 L 849.082,1377 l 14,-47 z" sodipodi:nodetypes="cccccc"></path>
      <path id="path2379" d="m 653,1119.1396 c 63,107 142.591,300.4691 185,498 85,48 233.115,-6.842 200,-160 -32,-148 -193,-281 -372,-351 z" sodipodi:nodetypes="ccscc"></path>
      <path d="m 1477.4333,216.7986 300.3366,34.7878 C 1772.5427,277.4939 1751.7146,299.99799 1709,300 1610.1689,1005.0993 1328.784,1661.8151 864,1869 l -18,-6 c 382.0237,-394.8579 559.2491,-966.11672 631.4333,-1646.2014 z" id="path2410" sodipodi:nodetypes="cccccc"></path>
      <path id="path2418" d="M 1021.9,769 H 1731 c -22,322 -54,567 -116.8,856 -3.1712,14.5936 -18.4925,18.742 -27.96,17.87 l -215.5,-21.69 2.211,28.14 c 111.4,39.94 188.3,143.1 187.2,224.9 98.42,8.252 214.4718,-39.0659 251.8,-197 C 1877,1402 1914,1118 1933.351,779.62 c 18.7,-2.854 38.84,-18.07 46.94,-34.49 l -173.4,-131.2 -108.8,102.7 h -692.5 z" sodipodi:nodetypes="ccsscccscccccc"></path>
      <path id="path2420" d="m 1037.7,261.2 c 36.5566,51.25341 102.6603,198.55819 142.3,330.8 73.3968,35.21247 202.7,-16.4 169,-152 -26.5546,-106.84896 -195.3,-175.1 -300.6,-187.4 z" sodipodi:nodetypes="ccscc"></path>
    
</svg>
