<?xml version="1.0" encoding="UTF-8" standalone="no"?>
<svg viewBox="0 0 2000 2000" version="1.1" xmlns="http://www.w3.org/2000/svg" xmlns:sodipodi="http://sodipodi.sourceforge.net/DTD/sodipodi-0.dtd">
	
      <path d="m 789.01,428.48 c 31.27,-6.423 55,-27.38 62.9,-47.95 l -269.81,-33.57 -139.5,522 c -11.78,44.91 215.78759,32.84869 233.3,-30.61 z" id="path2115" sodipodi:nodetypes="ccccsc"></path>
      <path d="m 661.239,816.35 h 925.1 C 1560,1132 1510,1451 1437.539,1742.35 c -3.6044,14.4927 -18.5044,18.863 -27.96,17.87 l -187.5,-19.69 2.211,28.14 c 77.71,30.33 149.71,131.33 159.2,222.9 98.42,8.252 214.6,-40.57 257.8,-197 70.71,-299.57 119.2,-632.7 147.4,-967.6 18.7,-2.854 38.84,-18.07 46.94,-34.49 l -185.4,-137.2 -108.8,112.7 h -888.5 z" id="path1969" sodipodi:nodetypes="ccsscccccccccc"></path>
      <path sodipodi:nodetypes="sscccccccs" id="path1972" d="m 1185,690.1 c -17.5043,70.11142 218.3698,52.87244 237.2,-22.2 l 106.2,-423.4 c 27.22,0 58.5,-25.14 58.5,-31.43 L 1401.2,86.47 1296.9,187.87 H 409.6 l 15.42,48.34 h 873.3 z"></path>
      <path sodipodi:nodetypes="ccscc" d="m 796,1272 c 116.95119,114.6516 237.818,271.1601 299,442 124,66 282.7982,-60.0067 168,-215 -117.443,-158.564 -304.89999,-203.868 -449,-235.7 z" id="path1984"></path>
      <path sodipodi:nodetypes="ccscccc" id="path1986" d="m 361.08732,1168.99 13.08,47.01 H 1339 c 16.85,0 27.23,-11.08 27.23,-16.26 L 1189,1040 1085.03,1168.94 Z"></path>
      <path d="M 783.406,917.6131 C 693,1390.7271 475,1756.1442 140.256,1947 l 17.24,13 C 551,1883.3628 855,1542.9407 1001.406,1014.6131 c 33.982,5.3463 68.687,-20.5773 78.594,-44.9155 z" id="path1994" sodipodi:nodetypes="cccccc"></path>
    
</svg>
