<?xml version="1.0" encoding="UTF-8" standalone="no"?>
<svg viewBox="0 0 2000 2000" version="1.1" xmlns="http://www.w3.org/2000/svg" xmlns:sodipodi="http://sodipodi.sourceforge.net/DTD/sodipodi-0.dtd">
	
      <path d="m 826.04,289.52 c 31.491,-6.423 55.941,-27.38 64.548,-47.95 L 620,206 384.152,939 c -20.10799,62.4943 206.84982,51.40119 234.352,-30.61 z" id="path1533" sodipodi:nodetypes="cccssc"></path>
      <path d="M 1312.951,1718.61 C 1433,1471 1530,1219 1598.351,817.01 c 18.7,-2.854 38.84,-18.07 46.94,-34.49 l -185.4,-131.2 -108.8,106.7 H 589.952 l 14.647,48.37 H 1386 c -62.2951,314.0459 -149.619,592.4359 -284.8,852 -8.8593,17.0109 -20.2,23.4862 -35.96,21.87 L 799,1658 l 1,27 c 127,36 211,119 243.151,226.61 98.42,8.252 199.0012,-46.9722 269.8,-193 z" id="path1528" sodipodi:nodetypes="scccccccsscccs"></path>
    
</svg>
