<?xml version="1.0" encoding="UTF-8" standalone="no"?>
<svg viewBox="0 0 2000 2000" version="1.1" xmlns="http://www.w3.org/2000/svg" xmlns:sodipodi="http://sodipodi.sourceforge.net/DTD/sodipodi-0.dtd">
	
      <path d="M 1984,1662 C 1640.5,1546.9 1283.9997,1193 1127.8,823.7 l -30.68,12.15 c 114.9,422.8 411.8797,955.15 654.9,1095 36.67,-108.7 97.74,-198.7 223.3,-243.3 z" id="path1279" sodipodi:nodetypes="cccccc"></path>
      <path d="m 1097,328.9 c 49.35,57.79 127.6,201.1 166,326.3 116.6,65.44 247.3,-37.78 175,-167.4 -66.01,-118.4 -225,-155.1 -330.3,-167.4 z" id="path1250"></path>
      <path d="m 774.5,1906 14.01,13.33 c 479,-187.3 856.3,-730.3 1036,-1437 34.72,-1.928 59.56,-15.67 68.23,-48.21 l -282.3,-49.76 c -126.7,659.3 -393.7,1167 -835.7,1522 z" id="path1254"></path>
      <path d="m 688.1,367.5 c 32.42,0.6762 63.66,-18.94 70.66,-45.84 L 474.56,291.1 v 440 c 0,488.1 -99,923.4 -434.6,1171 l 24.33,13.73 c 450.2,-166.2 623.9,-598.4 623.9,-1144 z" id="path1258"></path>
      <path d="M 901.1,511.4 806,603.11 H 363.9 L 132.6,547.04 v 502.4 c 0,53.6 203.3,37.12 203.3,-39.04 v -20 h 480.7 v 57.9 c 0,39.12 203.3,18.5 203.3,-50.04 v -321.3 c 33.56,0 78.32,-28.04 78.32,-42.05 z m -84.58,431.8 h -480.7 v -291 h 480.7 z" id="path1260" sodipodi:nodetypes="ccccssccsscccccccc"></path>
      <path d="m 529.7,1152 c 115.5,113.6 222.5,287.5 295.5,467.8 139,85.66 261.5,-74.09 179.9,-196.6 -87.18,-131 -242.2,-225.9 -464.8,-276.6 z" id="path1263"></path>
    
</svg>
