<?xml version="1.0" encoding="UTF-8" standalone="no"?>
<svg viewBox="0 0 2000 2000" version="1.1" xmlns="http://www.w3.org/2000/svg" xmlns:sodipodi="http://sodipodi.sourceforge.net/DTD/sodipodi-0.dtd">
	
      <path sodipodi:nodetypes="cccccc" d="m 21.75,1511.82 89.26,267.9 c 20.77,-3.536 38.91,-30.39 39,-58.16 l 701.906,-262.07 8.094,-31.93 z" id="path3160"></path>
      <path id="path3162" d="m 328,457.4 v 1107.64 l 205.2,-49.48 V 527.92 c 38.55,6e-5 63.08,-21.03 64.83,-42.05 z" sodipodi:nodetypes="cccccc"></path>
      <path id="path3165" d="m 65.01,892.95 13.08,49.01 h 721.89 c 16.86,0 27.23,-11.08 27.23,-16.26 L 659.01,764.4 549.91,893 Z" sodipodi:nodetypes="ccscccc"></path>
      <path sodipodi:nodetypes="ccccc" id="path3177" d="M 997,396.83213 872,1765 l 212,-2 125.2143,-1364.76587 z"></path>
      <path sodipodi:nodetypes="ccccscc" d="m 1763.2143,222.93213 -123,146.34 -918.5402,-0.05 13.0801,49.012 h 1186.0227 c 16.86,0 27.2305,-11.082 27.2305,-16.262 z" id="path3179"></path>
      <path sodipodi:nodetypes="cccccssscccsscccc" d="m 1586.2143,694 -105.4844,91.7109 H 1130 l 14,49.0899 h 347.2299 V 1619 c 0,140 43,285 206,285 H 1859 c 106,0 133,-150 79.6772,-200 l 22.6191,-245 -20,-4 c -28.3809,109 -73,237 -130,237 h -21.4473 c -60,0 -84.997,-43.2294 -85,-98 l -0.059,-734.4805 c 33.56,0 78.3204,-28.0388 78.3204,-42.0488 z" id="path3181"></path>
      <path sodipodi:nodetypes="cccccc" d="m 620.5,1693 89.26,287.9 c 20.77,-3.536 38.8984,-29.8988 39,-58.16 L 1439.5,1638 l 6,-28 z" id="path3183"></path>
    
</svg>
