<?xml version="1.0" encoding="UTF-8" standalone="no"?>
<svg viewBox="0 0 2000 2000" version="1.1" xmlns="http://www.w3.org/2000/svg" xmlns:sodipodi="http://sodipodi.sourceforge.net/DTD/sodipodi-0.dtd">
	
      <path id="path2311" d="m 925.2179,1290.3615 110.0948,279.0361 C 1054.5995,1560.9174 1074,1535.5 1074,1501.5 l 894,-405 8.5302,-32.0037 z" sodipodi:nodetypes="cccccc"></path>
      <path id="path2313" d="M 1479.01,179 1479,1914.4678 c -3e-4,56.5181 199.2947,22.0684 199.2951,-41.7598 l 0.01,-1621.47753 c 39.7301,0 65.0087,-21.66985 66.8087,-43.33985 z" sodipodi:nodetypes="cssccc"></path>
      <path sodipodi:nodetypes="cccccc" d="m 1068.1456,1327.0097 c 119.9507,-170.5311 210.1207,-386.35127 281.9369,-624.10627 46.5232,-4.05393 64.6762,-23.93728 69.9175,-53.30611 l -313.8074,-37.17455 c -2.5005,96.22859 -18.5601,426.60683 -61.7024,721.02273 z" id="path2315"></path>
      <path sodipodi:nodetypes="csccccsccc" d="m 414.21094,364.95703 -0.006,1329.98247 c -9e-5,21.03 -9.62494,27.3095 -23.71094,26.3105 l -202,-16.3203 -1.18164,22.75 c 127.3,35.07 187.90078,94.3096 202.30078,209.0996 187.5,-14.02 227.88672,-101.5996 227.88672,-243.5996 V 437.1875 c 39.73,10e-5 61.01055,-21.66984 62.81055,-43.33984 z" id="path2319"></path>
      <path sodipodi:nodetypes="cccsc" id="path2331" d="m 106.689,670.5693 -11.199,3.6992 c 56.816,91.58 98.126,197.9012 124.51,316.2012 71.887,70.7201 202.63,-9.0581 159,-138.7012 -35,-104 -155.524,-155.3992 -272.311,-181.1992 z"></path>
      <path sodipodi:nodetypes="cccccc" id="path2333" d="M 736.481,647.0693 C 703.039,787.5693 675.747,888.6685 632,1012.7685 l 18,0.1622 c 88.196,-42.5401 209.305,-158.7403 281.391,-252.2403 14.902,11.04 44.269,-3.2959 52.609,-16.9219 z"></path>
      <path sodipodi:nodetypes="ccscc" d="m 629,1178.7 c 42.5705,73.8668 93.2069,209.912 131,384.3 98.0805,44.238 200.9239,-19.8972 169,-152 -27.8154,-115.1016 -146.6298,-199.9689 -287,-245.3 z" id="path2335"></path>
      <path sodipodi:nodetypes="cccccc" id="path2337" d="m 55.121,1363.0149 160.0847,233.1369 c 18.7667,-9.5764 29.6397,-47.2301 19.8548,-67.1518 L 388,1207 l -2,-24 z"></path>
    
</svg>
