<?xml version="1.0" encoding="UTF-8" standalone="no"?>
<svg viewBox="0 0 2000 2000" version="1.1" xmlns="http://www.w3.org/2000/svg" xmlns:sodipodi="http://sodipodi.sourceforge.net/DTD/sodipodi-0.dtd">
	
      <path sodipodi:nodetypes="ccscc" d="m 509,1087.7 c 93.48271,143.2626 190.09533,338.8274 239,552.3 72.17999,68.2976 228.39854,22.8377 181,-182 -36.61765,-158.2469 -237.17873,-334.3185 -409,-379 z" id="path3208"></path>
      <path sodipodi:nodetypes="ccscccc" id="path3216" d="m 91.0573,996.99 13.08,47.01 H 1004.97 c 16.85,0 27.23,-11.08 27.23,-16.26 L 840,875 737,996.94 Z"></path>
      <path id="path3221" d="M 436.4144,315 V 626 C 436.4144,1225 325,1657 17,1969 l 25,9 C 429,1784 657.6394,1421 657.6394,687 V 401.855 c 42.02,0 70.66,-33.68 70.68,-51.51 z" sodipodi:nodetypes="csccsccc"></path>
      <path sodipodi:nodetypes="ccscc" id="path3223" d="m 134.6,563.61467 c 64.03966,94.41797 110.60285,204.03272 140.34138,325.99872 81.02728,72.91154 200.69254,-8.28708 157.45121,-142.99817 C 400.82087,648.25887 268.83072,586.39953 146.00656,559.80001 Z"></path>
      <path sodipodi:nodetypes="cccccc" id="path3225" d="m 733.59,535 c -37.86,146.5 -70.46,252.6 -127.6,385 l 28.61,-3.49 c 101,-55.79 226.3,-174.5 301.4,-278.3 21,2 46.45,-9.4241 53,-24 z"></path>
      <path sodipodi:nodetypes="ccccssccsscccccccc" d="m 1741.3,387.5242 -95.1,91.71 h -405.9 l -231.3,-56.07 v 1380.1 c 0,47.3058 203.3,27.5859 203.3,-39.04 v -8 h 444.4 v 53.9 c 0,39.12 203.3,18.5 203.3,-50.04 v -1207 c 33.56,0 78.32,-28.04 78.32,-42.05 z m -84.58,1321.5 h -444.4 v -1180.8 h 444.4 z" id="path3249"></path>
      <path sodipodi:nodetypes="ccscc" d="m 1218,888.7 c 69,85.3 159,226.3 207.7,388.6 83.26,75.3 226.3,13.7 190.3,-127.3 -41.2248,-161.46368 -251.6,-232.9 -387,-270 z" id="path3260"></path>
    
</svg>
