<?xml version="1.0" encoding="UTF-8" standalone="no"?>
<svg viewBox="0 0 2000 2000" version="1.1" xmlns="http://www.w3.org/2000/svg" xmlns:sodipodi="http://sodipodi.sourceforge.net/DTD/sodipodi-0.dtd">
	
      <path id="path2933" d="M 292.01,553 H 1726 c 16.85,0 27.23,-11.08 27.23,-16.26 L 1560.37,352 l -116.44,149.94 -1170,0.05 z" sodipodi:nodetypes="csccccc"></path>
      <path sodipodi:nodetypes="csccccc" d="M 148.01,1791 H 1866 c 16.85,0 27.23,-11.08 27.23,-16.26 L 1700.37,1590 l -116.44,149.94 -1454,0.05 z" id="path2935"></path>
      <path sodipodi:nodetypes="cccccc" id="path2937" d="M 1175.6151,1752.6956 C 1355.8188,1537.3571 1533.369,1163.451 1643,746.90458 c 41.1762,-4.38984 59.6235,-20.14769 64.6307,-39.23694 L 1380.8631,638.15423 C 1337.4086,930.31862 1258.5304,1353.3006 1128.6307,1756.875 Z"></path>
      <path sodipodi:nodetypes="ccscc" id="path2939" d="M 314.2,721.67498 C 385,942 476,1269 522,1639 c 81,77 233.49997,26.0382 211,-173 C 707,1236 532,895 326.9,707.17498 Z"></path>
      <path d="M 756.5193,694.3867 C 801.12997,898.73891 856.77648,1208.9709 877,1550 c 57.79858,73.0747 238.1978,56.8472 224,-133 C 1082.5812,1170.7094 947.46707,865.15833 778.59501,678.42408 Z" id="path2943" sodipodi:nodetypes="ccscc"></path>
    
</svg>
