<?xml version="1.0" encoding="UTF-8" standalone="no"?>
<svg viewBox="0 0 2000 2000" version="1.1" xmlns="http://www.w3.org/2000/svg" xmlns:sodipodi="http://sodipodi.sourceforge.net/DTD/sodipodi-0.dtd">
	
      <path d="m 1335.423,234.48 -95.1,91.71 H 770.36 l -231.3,-56.07 -0.037,828.36 202.977,4 0.36,-727.2 h 508.463 v 720.98 L 1454,1098.48 V 400 c 33.56,0 78.32,-28.04 78.32,-42.05 z" id="path2249" sodipodi:nodetypes="ccccccccccccc"></path>
      <path sodipodi:nodetypes="ccscccc" d="m 31,1863.85 13.08,49.01 h 1926.9 c 13.32,0 21.52,-11.08 21.52,-16.26 L 1828.1859,1724 1719,1863.9 Z" id="path2251"></path>
      <path sodipodi:nodetypes="ccccccccccccc" id="path2258" d="m 1575.423,984 -95.1,91.71 H 530.36 l -231.3,-56.07 -0.037,862.36 202.977,4 0.36,-761.2 h 988.463 v 754.98 L 1694,1882 v -732.48 c 33.56,0 78.32,-28.04 78.32,-42.05 z"></path>
    
</svg>
