<?xml version="1.0" encoding="UTF-8" standalone="no"?>
<svg viewBox="0 0 2000 2000" version="1.1" xmlns="http://www.w3.org/2000/svg" xmlns:sodipodi="http://sodipodi.sourceforge.net/DTD/sodipodi-0.dtd">
	
      <path sodipodi:nodetypes="cccccc" d="M 1991,1728.93 C 1787,1618.532 1501.2,1213.5136 1500.95,526.53 L 1404,795 c 9,444 162,985 335,1154.9 39.6545,-86.5776 131,-175.9 243.2,-194.9 z" id="path3103"></path>
      <path sodipodi:nodetypes="csccsccc" d="m 1279.45,165 0.55,337 c 0.958,587 -143,1079 -476,1403 l 17,17 c 446,-200 679.95,-759 679.95,-1395.47 V 249.18 c 42.02,0 70.66,-33.68 70.68,-51.51 z" id="path3105"></path>
      <path sodipodi:nodetypes="csccccc" d="m 997.08,906 h 885.55 c 16.85,0 27.23,-11.08 27.23,-16.26 L 1710,728 1600.56,858.94 979,858.99 Z" id="path3107"></path>
      <path sodipodi:nodetypes="ccscc" d="m 960.2,435.9 c 62.88,91.58 108.6,197.9 137.8,316.2 79.56,70.72 204.4631,-10.68072 154.6,-138.7 C 1217,522 1092,458 971.4,432.2 Z" id="path3117"></path>
      <path d="m 1621.59,397 c -37.86,146.5 -70.46,252.6 -127.6,385 l 28.61,-3.49 c 101,-55.79 226.3,-174.5 301.4,-278.3 21,2 46.45,-9.4241 53,-24 z" id="path3119" sodipodi:nodetypes="cccccc"></path>
      <path sodipodi:nodetypes="ccsscccscccccc" d="m 465.3508,822.48313 h 267.709 C 736.4108,1014 711.4108,1407 664.2598,1650.4832 c -2.8393,14.6618 -18.51009,18.9184 -27.96,17.87 l -215.5,-21.69 2.211,28.14 c 111.4,39.94 188.3,143.1 187.2,224.9 98.42,8.252 238.049,-28.4619 261.8,-189 44.34,-299.7032 63.4,-553.7032 63.4,-877.60007 18.7,-2.854 38.84,-18.07 46.94,-34.49 l -185.4,-131.2 -108.8,106.7 H 449.7521 Z" id="path3133"></path>
      <path sodipodi:nodetypes="csccscc" id="path3135" d="M 300.4108,382.83213 V 680 c 0,573.9233 -113.93899,941.7381 -286.4108,1224 l 23,-1 C 272.72971,1786 507.97026,1436.9106 508.4108,722 l 0.2143,-337.76587 z"></path>
      <path sodipodi:nodetypes="ccccscc" d="m 823.4108,208.93213 -123,146.34 -642.4802,-0.05 13.0801,49.012 h 909.9627 c 16.86,0 27.2305,-11.082 27.2305,-16.262 z" id="path3137"></path>
      <path sodipodi:nodetypes="ccscc" id="path3156" d="m 8,994 c 172.69393,90.3494 380.17246,237.7087 540,402 121.32471,25.9102 190,-114 99,-191 C 509.48665,1088.6426 293.74957,1014.4693 26.6041,983.1142 Z"></path>
    
</svg>
