<?xml version="1.0" encoding="UTF-8" standalone="no"?>
<svg viewBox="0 0 2000 2000" version="1.1" xmlns="http://www.w3.org/2000/svg" xmlns:sodipodi="http://sodipodi.sourceforge.net/DTD/sodipodi-0.dtd">
	
      <path sodipodi:nodetypes="cccccc" d="m 925.2179,1290.3615 110.0948,279.0361 C 1054.5995,1560.9174 1074,1535.5 1074,1501.5 l 894,-405 8.5302,-32.0037 z" id="path3053"></path>
      <path sodipodi:nodetypes="cssccc" d="M 1479.01,179 1479,1914.4678 c -3e-4,56.5181 199.2947,22.0684 199.2951,-41.7598 l 0.01,-1621.47753 c 39.7301,0 65.0087,-21.66985 66.8087,-43.33985 z" id="path3055"></path>
      <path id="path3057" d="m 1068.1456,1327.0097 c 119.9507,-170.5311 210.1207,-386.35127 281.9369,-624.10627 46.5232,-4.05393 64.6762,-23.93728 69.9175,-53.30611 l -313.8074,-37.17455 c -2.5005,96.22859 -18.5601,426.60683 -61.7024,721.02273 z" sodipodi:nodetypes="cccccc"></path>
      <path id="path3059" d="m 414.21094,543 -0.006,1151.9395 c -1.1e-4,21.03 -9.62494,27.3095 -23.71094,26.3105 l -202,-16.3203 -1.18164,22.75 c 127.3,35.07 187.90078,94.3096 202.30078,209.0996 187.5,-14.02 227.88672,-101.5996 227.88672,-243.5996 V 541 Z" sodipodi:nodetypes="csccccscc"></path>
      <path d="m 106.689,710.5693 -11.199,3.6992 c 56.816,91.58 98.126,197.9012 124.51,316.2012 71.887,70.7201 202.63,-9.0581 159,-138.7012 -35,-104 -155.524,-155.3992 -272.311,-181.1992 z" id="path3061" sodipodi:nodetypes="cccsc"></path>
      <path d="M 736.481,687.0693 C 703.039,827.5693 675.747,928.6685 632,1052.7685 l 18,0.1622 c 88.196,-42.5401 209.305,-158.7403 281.391,-252.2403 14.902,11.04 44.269,-3.2959 52.609,-16.9219 z" id="path3063" sodipodi:nodetypes="cccccc"></path>
      <path id="path3065" d="m 629,1190.7 c 42.5705,73.8668 93.2069,209.912 131,384.3 98.0805,44.238 200.9239,-19.8972 169,-152 -27.8154,-115.1016 -146.6298,-199.9689 -287,-245.3 z" sodipodi:nodetypes="ccscc"></path>
      <path d="m 55.121,1375.0149 160.0847,233.1369 c 18.7667,-9.5764 29.6397,-47.2301 19.8548,-67.1518 L 388,1219 l -2,-24 z" id="path3067" sodipodi:nodetypes="cccccc"></path>
      <path sodipodi:nodetypes="csccccc" d="m 77.08,556 h 909.99 c 16.85,0 27.23,-11.08 27.23,-16.26 L 825.44,371 711,506.94 59,506.99 Z" id="path3079"></path>
    
</svg>
