<?xml version="1.0" encoding="UTF-8" standalone="no"?>
<svg viewBox="0 0 2000 2000" version="1.1" xmlns="http://www.w3.org/2000/svg" xmlns:sodipodi="http://sodipodi.sourceforge.net/DTD/sodipodi-0.dtd">
	
      <path id="path3032" d="m 1071.3809,221 v 1372 c 0,140 43,285 206,285 h 505 c 69,0 133,-103 63,-184 L 1868,1449 l -20,-4 c -28.3809,109 -73,237 -130,237 h -342 c -60,0 -90.9966,-43.2294 -91,-98 l -0.08,-1286.59961 c 32.42,0.6762 63.6601,-18.93984 70.6601,-45.83984 z" sodipodi:nodetypes="cssscccsssccc"></path>
      <path id="path3058" d="m 601.6,598.4 -95.1,91.71 h -162 L 113.2,634.04 v 1034.1 c 0,38.2571 203.3,-2.14 203.3,-47.04 v -32 h 200.6 v 47.9 c 0,44 203.3,-1.97 203.3,-58.04 v -815 c 33.56,0 78.32,-28.04 78.32,-42.05 z M 517,1544 H 316.4 V 739.2 H 517 Z" sodipodi:nodetypes="ccccssccsscccccccc"></path>
      <path id="path3082" d="m 1722.8828,961.73047 -103.543,156.11723 -855.34371,88.6914 18.06836,47.3984 1130.84965,-117.3242 c 16.77,-1.7399 25.9408,-13.832 25.4062,-18.9844 z"></path>
      <path id="use3070" d="m 1606.3945,556.63672 -103.541,156.11914 -700.17772,72.5918 18.06836,47.39843 975.68356,-101.22656 c 16.77,-1.73987 25.9408,-13.83008 25.4063,-18.98242 z"></path>
    
</svg>
