<?xml version="1.0" encoding="UTF-8" standalone="no"?>
<svg viewBox="0 0 2000 2000" version="1.1" xmlns="http://www.w3.org/2000/svg" xmlns:sodipodi="http://sodipodi.sourceforge.net/DTD/sodipodi-0.dtd">
	
      <path sodipodi:nodetypes="csccccc" d="M 68.01,1864 H 1946 c 16.85,0 27.23,-11.08 27.23,-16.26 L 1780.37,1663 l -116.44,149.94 -1614,0.05 z" id="path2902"></path>
      <path sodipodi:nodetypes="cccccc" d="M 1892,1464.93 C 1541,1384 1110.9279,1069 1089.6103,406 L 1024,553 c 0,591 352,1034 616,1132.9 39.6545,-86.5776 131,-175.9 243.2,-194.9 z" id="path2915"></path>
      <path sodipodi:nodetypes="csccsccc" d="M 861.45,155 862,364 c 1.62105,615.99937 -197,1052 -730,1305 l 36,17 c 568,-116 914.6833,-587.0089 920.95,-1238.18 l 2,-207.82 c 42.02,0 70.66,-34.5 70.68,-52.33 z" id="path2918"></path>
      <path sodipodi:nodetypes="csccccc" d="m 259.08,658.06 h 1490.55 c 16.85,0 27.23,-11.08 27.23,-16.26 L 1561,466.06 1451,609 241,609.05 Z" id="path2920"></path>
    
</svg>
