<?xml version="1.0" encoding="UTF-8" standalone="no"?>
<svg viewBox="0 0 2000 2000" version="1.1" xmlns="http://www.w3.org/2000/svg" xmlns:sodipodi="http://sodipodi.sourceforge.net/DTD/sodipodi-0.dtd">
	
      <path id="path3434" d="m 217.64,1200 h 1613.99 c 16.85,0 27.23,-11.08 27.23,-16.26 L 1666,1005 l -116.44,143.94 -1350,0.05 z" sodipodi:nodetypes="csccccc"></path>
      <path d="m 894,192.48 v 1718 c 0,67.36 211.2,15.23 211.2,-49.48 V 263 c 38.55,6e-5 59.08,-21.03 60.83,-42.05 z" id="path3436" sodipodi:nodetypes="cssccc"></path>
      <path sodipodi:nodetypes="ccscc" d="m 336.06,448.4 c 98.99119,116.09789 194.22938,265.30984 262.1,435.6 97.74587,70.09181 226.94058,-11.88737 185,-138 C 736.18151,604.73869 518.65066,490.09183 351.06,442.8 Z" id="path3442"></path>
      <path sodipodi:nodetypes="cccccc" d="M 1681,536.8 1407,415 c -50.5059,145.12785 -144.0007,327.75285 -250.84,487 l 24,8 c 168.2211,-74.0041 324.5302,-211.94146 432,-343.12 22.4021,6.40135 58.39,-5.976 68.84,-30.08 z" id="path3445"></path>
    
</svg>
