<?xml version="1.0" encoding="UTF-8" standalone="no"?>
<svg viewBox="0 0 2000 2000" version="1.1" xmlns="http://www.w3.org/2000/svg" xmlns:sodipodi="http://sodipodi.sourceforge.net/DTD/sodipodi-0.dtd">
	
      <path id="path2006" d="M 566.9435,949.0269 C 639.76865,1052.0014 760.64187,1243.5588 806,1428 923.7973,1490.5492 1033,1396.3258 973,1264 912.5745,1130.7357 733.34146,994.4625 582.9435,942.0269 Z" sodipodi:nodetypes="ccscc"></path>
      <path sodipodi:nodetypes="ccscccc" id="path2009" d="m 138.62,898.40713 13.08,49.01 H 1024 c 16.86,0 27.23,-11.08 27.23,-16.26 l -169.2,-155.3 -108.1,122.5 z"></path>
      <path id="path2011" d="m 153.77094,433.79687 c 68.52025,108.98657 118.34132,235.51477 150.16049,376.3 76,73 226.39405,0.68633 161,-154 -46.02686,-108.87424 -171.3146,-193.82113 -299.96049,-226 z" sodipodi:nodetypes="ccscc"></path>
      <path id="path2013" d="M 800.35618,403.04402 C 769.74025,569.478 741.8717,690.39794 689,842.50865 l 23.21661,2.44732 c 102.50458,-73.33168 227.36353,-230.23918 298.61299,-358.64023 24.4481,-0.10838 44.7916,-11.16549 50.3486,-26.14813 z" sodipodi:nodetypes="cccccc"></path>
      <path d="M 1610.265,155.42001 V 1915.42 c 0,67.36 209.2,15.23 209.2,-49.48 V 225.94001 c 38.55,0 59.08,-21.03 60.83,-42.05 z" id="path2019" sodipodi:nodetypes="cssccc"></path>
      <path sodipodi:nodetypes="cssccc" id="path2021" d="M 1135.465,355.42001 V 1605.42 c 0,67.36 203.2,15.23 203.2,-49.48 V 425.94001 c 38.55,0 59.08,-21.03 60.83,-42.05 z"></path>
      <path id="path2023" d="m 1219.93,1214.99 13.08,49.01 H 1729 l -9,-49.06 z m 0.465,-474.05999 13.08,49.00999 h 495.99 l -9,-49.05999 z" sodipodi:nodetypes="cccccccccc"></path>
      <path sodipodi:nodetypes="scccss" id="path2028" d="M 699.05,1861.1092 V 265.53919 c 35.31,-5.481 60.3,-35.64 61.58,-56.7 L 494,187.00919 V 1913.2326 c 0,47.9669 205.05,10.3868 205.05,-52.1234 z"></path>
      <path sodipodi:nodetypes="cccccc" id="path2030" d="M 417,938.41919 C 375,1236 183,1628 30,1787 l 20,8 c 243,-100 409,-313 497,-553 l 26.2,-319.89081 z"></path>
    
</svg>
