<?xml version="1.0" encoding="UTF-8" standalone="no"?>
<svg viewBox="0 0 2000 2000" version="1.1" xmlns="http://www.w3.org/2000/svg" xmlns:sodipodi="http://sodipodi.sourceforge.net/DTD/sodipodi-0.dtd">
	
      <path d="m 643.265,262.48 v 1616 c 0,67.36 203.2,15.23 203.2,-49.48 V 333 c 38.55,6e-5 59.08,-21.03 60.83,-42.05 z" id="path3592" sodipodi:nodetypes="cssccc"></path>
      <path id="path3594" d="m 310.93,1134.05 13.08,49.01 H 762 L 753,1134 Z m 0.465,-424.06 13.08,49.01 h 437.99 l -9,-49.06 z" sodipodi:nodetypes="cccccccccc"></path>
      <path sodipodi:nodetypes="cccsccsc" d="m 447.975,400.398 c 21.51,0.6762 63.66,-18.94 70.66,-45.84 L 242.465,324.48 V 1062 c 0,387.895 -83.31226,678.839 -229,844 L 35,1908 c 285,-114 412.975,-473 412.975,-753.964 z" id="path3596"></path>
      <path d="m 912.62,898.40713 13.08,49.01 H 1838 c 16.86,0 27.23,-11.08 27.23,-16.26 l -169.2,-155.3 -108.1,122.5 z" id="path3602" sodipodi:nodetypes="ccscccc"></path>
      <path sodipodi:nodetypes="ccscc" d="m 907.7709,433.79687 c 68.5203,108.98657 118.3414,235.51477 150.1605,376.3 76,73 226.3941,0.68633 161,-154 -46.0268,-108.87424 -171.3146,-193.82113 -299.9605,-226 z" id="path3604"></path>
      <path sodipodi:nodetypes="cccccc" d="M 1582.3562,399.04402 C 1551.7402,565.478 1523.8717,686.39794 1471,838.50865 l 23.2166,2.44732 c 102.5046,-73.33168 227.3635,-230.23918 298.613,-358.64023 24.4481,-0.10838 44.7916,-11.16549 50.3486,-26.14813 z" id="path3606"></path>
      <path d="M 1465.05,1861.1092 V 265.53919 c 35.31,-5.481 60.3,-35.64 61.58,-56.7 L 1260,187.00919 V 1913.2326 c 0,47.9669 205.05,10.3868 205.05,-52.1234 z" id="path3614" sodipodi:nodetypes="scccss"></path>
      <path d="M 1183,938.41919 C 1141,1236 957,1628 804,1787 l 20,8 c 243,-105.0633 401,-328.8481 489,-581 l 26.2,-291.89081 z" id="path3616" sodipodi:nodetypes="cccccc"></path>
      <path sodipodi:nodetypes="ccccccc" d="M 1993,1615.03 C 1779,1532 1517,1224 1491.15,899.53 L 1413,936 l 32,167 c 14,289 229,665 366,729 25,-92 97,-172 174.4613,-190.9 z" id="path3644"></path>
    
</svg>
