<?xml version="1.0" encoding="UTF-8" standalone="no"?>
<svg viewBox="0 0 2000 2000" version="1.1" xmlns="http://www.w3.org/2000/svg" xmlns:sodipodi="http://sodipodi.sourceforge.net/DTD/sodipodi-0.dtd">
	
      <path id="path2879" d="m 1786,353 -123,146.34 -846.4802,-0.05 13.0801,49.012 h 1113.9627 c 16.86,0 27.2305,-11.082 27.2305,-16.262 z" sodipodi:nodetypes="ccccscc"></path>
      <path sodipodi:nodetypes="cccccc" d="M 1937.65,1702.49 C 1721,1630.56 1450.8508,1244.56 1452.22,987.56 l -86.22,116 c 29.8409,273.6224 167,673.44 319.8,779.9 33.2,-47.9 111,-139 243.2,-154.9 z" id="path2881"></path>
      <path sodipodi:nodetypes="ccscccc" d="m 864,1083.55 13.08,49.01 h 986.99 c 16.86,0 27.23,-11.08 27.23,-16.26 L 1722.1,961 1614,1083.5 Z" id="path2883"></path>
      <path sodipodi:nodetypes="ccscc" d="m 923.49,728.06 c 56.816,91.58 98.126,197.9 124.51,316.2 71.887,70.72 202.63,-9.057 159,-138.7 -35,-104 -155.523,-155.4 -272.31,-181.2 z" id="path2885"></path>
      <path sodipodi:nodetypes="cccccc" d="m 1574.48,700.86 c -33.442,140.5 -60.733,241.6 -104.48,365.7 l 18,0.161 c 88.196,-42.54 209.304,-158.74 281.39,-252.24 14.902,11.04 44.27,-3.295 52.61,-16.921 z" id="path2887"></path>
      <path sodipodi:nodetypes="cccsccsc" d="m 1452.22,687.28 c 28.695,0.3973 63.66,-20.94 70.66,-47.84 l -278.19,-30.48 v 308.5995 c 0,271.3472 -77.364,733.5059 -444.69,962.0005 l 19,10 c 468.3209,-138.5959 633.22,-627.0484 633.22,-855 z" id="path2891"></path>
      <path sodipodi:nodetypes="ccscc" id="path2895" d="m 1141.7,158.2 c 41.25,46.48 118.1,181.9 166,304.4 80.02,29.66 187.2225,-23.06771 145.3,-145.6 -37.6375,-110.00772 -195.3,-155.1 -300.6,-167.4 z"></path>
      <path id="path2917" d="M 524.88,1642 H 380.28 V 531.23 c 39.73,10e-5 25.01,-21.67 26.81,-43.34 L 176.99,459 v 1327.27 c 0,38.25 203.3,15.01 203.3,-47.04 v -48 h 144.6 v 45.9 c 0,37.1829 203.3,15.9746 203.3,-58.04 V 537.22 c 39.73,10e-5 65.01,-21.67 66.81,-43.34 L 524.9,464.99 Z" sodipodi:nodetypes="cccccssccsscccc"></path>
      <path id="path2919" d="m 9.41,875.42299 13.08,49.01 h 886.89 c 16.86,0 27.23,-11.08 27.23,-16.26 l -154.66795,-161.3 -92.94205,128.6 z" sodipodi:nodetypes="ccscccc"></path>
    
</svg>
