<?xml version="1.0" encoding="UTF-8" standalone="no"?>
<svg viewBox="0 0 2000 2000" version="1.1" xmlns="http://www.w3.org/2000/svg" xmlns:sodipodi="http://sodipodi.sourceforge.net/DTD/sodipodi-0.dtd">
	
      <path id="path1966" d="m 1339.94,866.48313 h 309.709 C 1645,1128 1623,1401 1586.849,1646.4832 c -2.1758,14.7748 -18.5009,18.831 -27.96,17.87 l -215.5,-21.69 2.211,28.14 c 111.4,39.94 188.3,143.1 187.2,224.9 98.42,8.252 233.7057,-28.2255 255.8,-189 C 1828,1420 1844,1178 1852,877.10313 c 18.7,-2.854 38.84,-18.07 46.94,-34.49 l -185.4,-131.2 -108.8,106.7 h -280.3987 z" sodipodi:nodetypes="ccsscccscccccc"></path>
      <path d="M 1137,404.83213 V 670 c 0,555.2039 -91,960 -293,1224 l 26,4 c 302,-155 478.5309,-521 479,-1186 l 0.2143,-305.76587 z" id="path1968" sodipodi:nodetypes="csccscc"></path>
      <path id="path1971" d="m 1744,230.93213 -123,146.34 -690.4802,-0.05 13.0801,49.012 h 957.9627 c 16.86,0 27.2305,-11.082 27.2305,-16.262 z" sodipodi:nodetypes="ccccscc"></path>
      <path sodipodi:nodetypes="cssccc" id="path1973" d="m 648.8,242.48 v 1636 c 0,67.36 203.2,15.23 203.2,-49.48 V 313 c 38.55,6e-5 59.08,-21.03 60.83,-42.05 z"></path>
      <path sodipodi:nodetypes="cccccccccc" d="m 310.465,1134.05 13.08,49.01 h 457.99 l -9,-49.06 z M 310.93,709.99 324.01,759 H 782 l -9,-49.06 z" id="path1977"></path>
      <path id="path1981" d="m 447.51,400.398 c 21.51,0.6762 63.66,-18.94 70.66,-45.84 L 238,324.48 V 1062 c 0,387.895 -79.31226,678.839 -225,844 l 29,3 c 283,-123 405.51,-430 405.51,-754.964 z" sodipodi:nodetypes="cccsccsc"></path>
    
</svg>
