<?xml version="1.0" encoding="UTF-8" standalone="no"?>
<svg viewBox="0 0 2000 2000" version="1.1" xmlns="http://www.w3.org/2000/svg" xmlns:sodipodi="http://sodipodi.sourceforge.net/DTD/sodipodi-0.dtd">
	
      <path sodipodi:nodetypes="ccsscccscccccc" d="M 501.94,876.48313 H 777.649 C 781,1068 758,1407 710.849,1650.4832 c -2.83928,14.6618 -18.49216,18.742 -27.96,17.87 l -215.5,-21.69 2.211,28.14 c 111.4,39.94 188.3,143.1 187.2,224.9 98.42,8.252 227.69653,-29.1664 255.8,-189 C 966,1407 980,1211 980,887.10313 c 18.7,-2.854 38.84,-18.07 46.94,-34.49 l -185.4,-131.2 -108.8,106.7 H 486.3413 Z" id="path1598"></path>
      <path sodipodi:nodetypes="csccscc" id="path1600" d="M 329,426.83213 V 680 c 0,555.2039 -105.24222,903.6374 -290,1224 l 23,-1 C 299.10818,1754.5693 540.51388,1388.4729 541,722 l 0.21427,-293.76587 z"></path>
      <path sodipodi:nodetypes="ccccscc" d="m 886,252.93213 -123,146.34 -684.4802,-0.05 13.0801,49.012 h 951.9627 c 16.86,0 27.2305,-11.082 27.2305,-16.262 z" id="path1602"></path>
      <path d="m 1602.8,180.48 v 1718 c 0,67.36 203.2,15.23 203.2,-49.48 V 251 c 38.55,6e-5 59.08,-21.03 60.83,-42.05 z" id="path1645" sodipodi:nodetypes="cssccc"></path>
      <path sodipodi:nodetypes="cssccc" id="path1648" d="m 1138,384.48 v 1138 c 0,67.36 203.2,15.23 203.2,-49.48 V 455 c 38.55,6e-5 59.08,-21.03 60.83,-42.05 z"></path>
      <path id="path1655" d="m 1222.465,1154.05 13.08,49.01 h 485.99 l -9,-49.06 z m 0.465,-424.06 13.08,49.01 H 1722 l -9,-49.06 z" sodipodi:nodetypes="cccccccccc"></path>
    
</svg>
