<?xml version="1.0" encoding="UTF-8" standalone="no"?>
<svg viewBox="0 0 2000 2000" version="1.1" xmlns="http://www.w3.org/2000/svg" xmlns:sodipodi="http://sodipodi.sourceforge.net/DTD/sodipodi-0.dtd">
	
      <path sodipodi:nodetypes="ccccssccsccccsccc" d="m 1526,440 -96,92 H 589 L 358,476 v 946 c 0,48 203,22 203,-55 V 581 h 880 v 655 c 0,21 -15,28 -24,27 l -150,-19 v 23 c 79,26 136,109 149,211 188,-14 228,-102 228,-244 V 605 c 34,0 78,-28 78,-42 z" id="path1189"></path>
      <path sodipodi:nodetypes="cscccc" d="m 898,1909 c 0,37 203,15 203,-58 V 147 c 40,0 65,-22 67,-44 L 898,74 Z" id="path1192"></path>
    
</svg>
