<?xml version="1.0" encoding="UTF-8" standalone="no"?>
<svg viewBox="0 0 2000 2000" version="1.1" xmlns="http://www.w3.org/2000/svg" xmlns:sodipodi="http://sodipodi.sourceforge.net/DTD/sodipodi-0.dtd">
	
      <path sodipodi:nodetypes="ccscc" d="m 566,844 c 97,151 196,358 247,583 75,72 256,33 206,-187 C 980,1070 760,883 577,835 Z" id="path1347"></path>
      <path sodipodi:nodetypes="cccccc" d="M 1963,1723 C 1759,1614 1479,1204 1479,468 l -87,181 c 0,612 112,1079 319,1295 40,-87 131,-176 243,-195 z" id="path1349"></path>
      <path sodipodi:nodetypes="csccsccc" d="m 1257,159 1,237 c 1,635 -136,1145 -478,1503 l 17,17 c 455,-226 682,-811 682,-1495 V 243 c 42,0 71,-33 71,-51 z" id="path1351"></path>
      <path sodipodi:nodetypes="csccccc" d="m 1047,636 h 816 c 16,0 27,-11 27,-16 L 1690,458 1581,589 h -552 z" id="path1353"></path>
      <path sodipodi:nodetypes="ccscccc" id="path1355" d="m 115,589 13,47 h 865 c 17,0 27,-11 27,-16 L 828,467 725,589 Z"></path>
      <path id="path1357" d="m 480,161 v 221 c 0,643 -110,1128 -459,1523 l 25,9 C 448,1711 702,1217 702,443 V 248 c 42,0 70,-34 70,-52 z" sodipodi:nodetypes="csccsccc"></path>
    
</svg>
