<?xml version="1.0" encoding="UTF-8" standalone="no"?>
<svg viewBox="0 0 2000 2000" version="1.1" xmlns="http://www.w3.org/2000/svg" xmlns:sodipodi="http://sodipodi.sourceforge.net/DTD/sodipodi-0.dtd">
	
      <path sodipodi:nodetypes="ccsscccscccccc" d="M 424.94,856.48313 H 650.649 C 654,1048 631,1387 583.849,1630.4832 c -2.83928,14.6618 -18.50078,18.831 -27.96,17.87 l -215.5,-21.69 2.211,28.14 c 111.4,39.94 188.3,143.1 187.2,224.9 98.42,8.252 227.69653,-29.1664 255.8,-189 C 839,1387 853,1191 853,867.10313 c 18.7,-2.854 38.84,-18.07 46.94,-34.49 l -185.4,-131.2 -108.8,106.7 H 409.3413 Z" id="path1898"></path>
      <path sodipodi:nodetypes="csccscc" id="path1902" d="M 252,448.83213 V 660 c 0,555.2039 -87.09701,903.6374 -240,1224 l 20,-1 C 245.84287,1734.5693 468.05125,1368.4601 464,702 l 0.21427,-251.76587 z"></path>
      <path sodipodi:nodetypes="ccccscc" d="m 735,274.93213 -123,146.34 -550.4802,-0.05 13.0801,49.012 h 817.9627 c 16.86,0 27.2305,-11.082 27.2305,-16.262 z" id="path1905"></path>
      <path sodipodi:nodetypes="ccscccc" d="m 946.6199,412.99 13.08,47.01 H 1930.97 c 16.86,0 27.23,-11.08 27.23,-16.26 L 1760,266.44 1640.9,413.04 Z" id="path1930"></path>
      <path sodipodi:nodetypes="csccscc" d="m 1110.7999,431 v 375 c 0,579 -89.7437,827.4736 -319.7999,1070 l 25,11 c 341.4511,-171.7123 494,-476 494,-1018 V 427 Z" id="path1932"></path>
      <path id="path1934" d="m 1944,1481 20,4 -12,189 c 70,81 6,184 -63,184 h -223 c -163,0 -206,-145 -206,-285 V 431 l 199.2001,-4 v 1137 c 0,54.7706 31,98 91,98 H 1831 c 46,0 90,-72 113,-181 z" sodipodi:nodetypes="cscsssccsssc"></path>
    
</svg>
