<?xml version="1.0" encoding="UTF-8" standalone="no"?>
<svg viewBox="0 0 2000 2000" version="1.1" xmlns="http://www.w3.org/2000/svg" xmlns:sodipodi="http://sodipodi.sourceforge.net/DTD/sodipodi-0.dtd">
	
      <path sodipodi:nodetypes="csccccsccc" d="m 915.30859,173.92773 -0.006,1538.24417 c 0,21.03 -9.62493,27.3095 -23.71093,26.3105 l -202,-16.3203 -1.18164,22.75 c 127.3,35.07 187.90078,94.3096 202.30078,209.0996 187.5,-14.02 227.8868,-101.5996 227.8868,-243.5996 V 246.15625 c 39.73,0 65.0105,-21.66984 66.8105,-43.33984 z" id="path1980"></path>
      <path sodipodi:nodetypes="cccccc" id="path2003" d="m 160,1478 176.0847,251.1369 C 354.8514,1719.5605 362,1683 360,1657 l 466,-489 -2,-24 z"></path>
      <path id="path2027" d="m 1217,906 c 178.5742,-97.60667 343.3,-239.24803 460,-367.2315 27.1772,-0.77746 63,-17.7685 76.6577,-44.2448 l -299.3698,-95.462 C 1422.5617,491.61328 1314.525,717.23072 1194,899.7685 Z" sodipodi:nodetypes="cccccc"></path>
      <path sodipodi:nodetypes="ccscc" d="m 293,437.7685 c 115,123 226,283 299,442 C 695,938.7685 865.1654,836.41112 761,692 673,570 495,476 311,429.0685 Z" id="path2031"></path>
      <path sodipodi:nodetypes="ccscc" d="m 1180,1150.7 c 149.0853,135.9823 300.8243,322.7541 418,550.3 126.2395,68.0503 275.6433,-63.9334 179,-224 -68.2953,-113.1148 -310.668,-285.0717 -575,-331 z" id="path2053"></path>
    
</svg>
