<?xml version="1.0" encoding="UTF-8" standalone="no"?>
<svg viewBox="0 0 2000 2000" version="1.1" xmlns="http://www.w3.org/2000/svg" xmlns:sodipodi="http://sodipodi.sourceforge.net/DTD/sodipodi-0.dtd">
	
      <path sodipodi:nodetypes="csccccc" d="M 292.01,553 H 1726 c 16.85,0 27.23,-11.08 27.23,-16.26 L 1560.37,352 l -116.44,149.94 -1170,0.05 z" id="path2374"></path>
      <path id="path2376" d="M 148.01,1791 H 1866 c 16.85,0 27.23,-11.08 27.23,-16.26 L 1700.37,1590 l -116.44,149.94 -1454,0.05 z" sodipodi:nodetypes="csccccc"></path>
      <path d="m 1085.9844,1752.6956 c 180.2037,-215.3385 357.7539,-589.2446 467.3849,-1005.79102 41.1762,-4.38984 59.6235,-20.14769 64.6307,-39.23694 L 1291.2324,638.15423 C 1247.7779,930.31862 1168.8997,1353.3006 1039,1756.875 Z" id="path2385" sodipodi:nodetypes="cccccc"></path>
      <path d="M 429.2,721.67498 C 500,942 586,1267 637,1639 c 81,77 236.41349,25.6873 211,-173 C 815,1208 647,895 441.9,707.17498 Z" id="path2387" sodipodi:nodetypes="ccscc"></path>
    
</svg>
