<?xml version="1.0" encoding="UTF-8" standalone="no"?>
<svg viewBox="0 0 2000 2000" version="1.1" xmlns="http://www.w3.org/2000/svg" xmlns:sodipodi="http://sodipodi.sourceforge.net/DTD/sodipodi-0.dtd">
	
      <path id="path2375" d="m 863.423,531.48 -95.1,91.71 h -418 l -231.3,-56.07 v 796.5 c 0,48.24 203.05842,21.8196 203.3,-55.04 v -636.3 h 456.5 v 407.5 c 0,21.03 -15.21,27.48 -23.71,26.31 l -134,-18.54 -0.713,22.75 C 708.6,1135.43 742,1201 754.2,1321.6 941.7,1307.58 982,1220 982,1078 V 697 c 33.56,0 78.32,-28.04 78.32,-42.05 z" sodipodi:nodetypes="ccccssccsccccsccc"></path>
      <path id="path2378" d="m 440.323,1894.88 c -3.2e-4,54.12 203.3,16.12 203.3,-58.04 V 268.23 c 39.73,10e-5 65.01,-21.67 66.81,-43.34 L 440.333,196 Z" sodipodi:nodetypes="sscccs"></path>
      <path d="m 877,442.8 h 803.823 v 671.98 c 0,21.03 -15.1972,27.3834 -23.71,26.31 L 1472,1118 l -0.713,26.75 C 1559.487,1169.88 1636,1242 1656.2,1360.6 1843.7,1346.58 1884,1259 1884,1117 V 467.52 c 33.56,0 78.32,-28.04 78.32,-42.05 L 1765.423,302 l -95.1,91.71 H 865 Z" id="path2399" sodipodi:nodetypes="ccsccccscccccc"></path>
      <path sodipodi:nodetypes="ssccs" d="m 1210.6997,1892.88 c -4e-4,61.9824 203.3,26.5748 203.3,-58.04 V 428.23 l -203.29,-2.23 z" id="path2404"></path>
    
</svg>
