<?xml version="1.0" encoding="UTF-8" standalone="no"?>
<svg viewBox="0 0 2000 2000" version="1.1" xmlns="http://www.w3.org/2000/svg" xmlns:sodipodi="http://sodipodi.sourceforge.net/DTD/sodipodi-0.dtd">
	
      <path id="path3469" d="m 1033,1793 c 223.6238,-70.2774 428.1433,-225.7561 544.78,-350.32 29.289,1.1437 62.98,-24.53 64.1,-30.82 l -222.9,-148.7 -120.1,115.5 H 382 l 15.42,48.84 H 1300 c -63.5715,110.4923 -175.3981,243.6448 -313,331.5 z" sodipodi:nodetypes="cccccccccc"></path>
      <path id="path3471" d="m 683.80412,1636 c 96.67578,61.5031 253.569,217.9634 335.19588,338.0803 114,48.4167 210.7786,-66.0931 134,-161 -72,-89 -250.74825,-154.3918 -456.19588,-190.0803 z" sodipodi:nodetypes="ccscc"></path>
      <path id="path3488" d="m 115.92,1160.7 13.08,49.01 h 1744.97 c 16.86,0 27.23,-11.08 27.23,-16.26 l -198.2,-177.3 -119.1,144.6 z" sodipodi:nodetypes="ccscccc"></path>
      <path sodipodi:nodetypes="ccccssccssccccccccccccc" id="path3507" d="m 1424.5,183.1 -95.1,91.71 H 687.7 L 456.4,218.74 v 798.1 c 0,38.25 237.14015,5.5682 203.3,-35.04 v -24 H 1340 v 41.9 c 0,28.04 203.3,10.03 203.3,-46.04 v -605 c 33.56,0 78.32,-28.04 78.32,-42.05 z M 659.7,323.9 H 1340 V 589 H 659.7 Z m 0,316.3 H 1340 V 906.7 H 659.7 Z"></path>
      <path sodipodi:nodetypes="ccccc" d="M 897.8483,937.88 1102,939.84 V 285.23 L 897.8583,281 Z" id="path3509"></path>
    
</svg>
