<?xml version="1.0" encoding="UTF-8" standalone="no"?>
<svg viewBox="0 0 2000 2000" version="1.1" xmlns="http://www.w3.org/2000/svg" xmlns:sodipodi="http://sodipodi.sourceforge.net/DTD/sodipodi-0.dtd">
	
      <path sodipodi:nodetypes="csccccc" d="M 148.01,1851 H 1866 c 16.85,0 27.23,-11.08 27.23,-16.26 L 1700.37,1650 l -116.44,149.94 -1454,0.05 z" id="path2698"></path>
      <path sodipodi:nodetypes="ccccssccsscccccccc" d="m 1454,317.5 -95.1,91.71 H 659 L 427.7,353.14 v 840.1 c 0,47.306 203.3,27.586 203.3,-39.04 v -10 h 738.4 v 43.9 c 0,51.431 203.3,32.381 203.3,-50.04 v -655 c 33.56,0 98.32,-28.04 98.32,-42.05 z M 1369.42,1103 H 631.02 V 458.2 h 738.4 z" id="path2702"></path>
      <path sodipodi:nodetypes="cccccc" d="m 610.99,1823.23 203.3,13.77 v -494.7 c 40.71,0 65.01,-21.67 66.81,-43.34 L 611,1270.07 Z" id="path2724"></path>
      <path sodipodi:nodetypes="cccccc" id="path2727" d="m 1170.99,1823.23 203.3,13.77 v -496.7 c 40.71,0 65.01,-21.67 66.81,-43.34 L 1171,1268.07 Z"></path>
    
</svg>
