<?xml version="1.0" encoding="UTF-8" standalone="no"?>
<svg viewBox="0 0 2000 2000" version="1.1" xmlns="http://www.w3.org/2000/svg" xmlns:sodipodi="http://sodipodi.sourceforge.net/DTD/sodipodi-0.dtd">
	
      <path sodipodi:nodetypes="ccscccc" id="path1731" d="m 130.52,445.55 13.08,51.01 h 1723 c 16.86,0 27.23,-11.08 27.23,-16.26 L 1695.63,291 1568.53,445.6 Z"></path>
      <path sodipodi:nodetypes="cccccccccssccssccccccccccccc" id="path1733" d="m 893.1,1727.2 203.3,1.957 v -945.3 l -203.3,0.6918 z m 660.3,-1069.1 -95.1,99.71 H 548.6 L 317.3,701.74 v 1122.1 c 0,38.25 203.3,27.0606 203.3,-35.04 v -40 h 948.3 v 73.9 c 0,28.04 203.3,10.03 203.3,-46.04 v -945 c 33.56,0 78.32,-28.04 78.32,-42.05 z M 520.6,806.9 h 948.3 V 1216 H 520.6 Z m 0,460.3 h 948.3 v 430.5 H 520.6 Z"></path>
    
</svg>
