<?xml version="1.0" encoding="UTF-8" standalone="no"?>
<svg viewBox="0 0 2000 2000" version="1.1" xmlns="http://www.w3.org/2000/svg" xmlns:sodipodi="http://sodipodi.sourceforge.net/DTD/sodipodi-0.dtd">
	
      <path id="path2187" d="m 31,1815.85 13.08,49.01 h 1926.9 c 13.32,0 21.52,-11.08 21.52,-16.26 L 1828.1859,1676 1719,1815.9 Z" sodipodi:nodetypes="ccscccc"></path>
      <path d="m 1575.423,1178 -95.1,91.71 H 530.36 l -231.3,-56.07 -0.037,620.36 202.977,4 0.36,-519.2 h 988.463 v 512.98 L 1694,1834 v -490.48 c 33.56,0 78.32,-28.04 78.32,-42.05 z" id="path2189" sodipodi:nodetypes="ccccccccccccc"></path>
      <path id="path2200" d="m 1525.5874,352.5863 -95.1,91.71 H 588.96505 l -231.3,-56.07 v 606.5 c 0,48.24 203.3,21.82 203.3,-55.04 v -446.3 h 880.02235 v 295.5 c 0,21.03 -15.21,27.48 -23.71,26.31 l -150,-18.54 -0.713,22.75 c 79.4356,26.2795 136.4356,109.2795 149.8,211.3 187.5,-14.02 227.8,-101.6 227.8,-243.6 v -269 c 33.56,0 78.32,-28.04 78.32,-42.05 z" sodipodi:nodetypes="ccccssccsccccsccc"></path>
      <path id="path2203" d="m 898,1213.3 c 0,36.98 203.3,15.05 203.3,-58.04 V 146.65 c 39.73,1e-4 65.01,-21.67 66.81,-43.34 L 898.01,74.42 Z" sodipodi:nodetypes="cscccc"></path>
    
</svg>
