<?xml version="1.0" encoding="UTF-8" standalone="no"?>
<svg viewBox="0 0 2000 2000" version="1.1" xmlns="http://www.w3.org/2000/svg" xmlns:sodipodi="http://sodipodi.sourceforge.net/DTD/sodipodi-0.dtd">
	
      <path sodipodi:nodetypes="cscccc" d="m 1351.8483,1908.88 c 0,36.98 212.1517,15.05 212.1517,-58.04 V 268.23 c 39.73,10e-5 65.01,-21.67 66.81,-43.34 L 1351.8583,196 Z" id="path2586"></path>
      <path sodipodi:nodetypes="csccsccc" d="m 458.9432,256 -0.01,786 C 458.9282,1471.3897 364.54063,1719.2945 162,1926.584 l 19,5 C 499.27472,1821.2899 670.87018,1490.2441 670.9335,1149 l 0.1523,-820.76953 c 39.73,10e-5 65.0106,-21.66985 66.8106,-43.33985 z" id="path2588"></path>
      <path id="path2590" d="M 197.15,768.5 H 1869.7 c 16.85,0 27.23,-11.08 27.23,-16.26 L 1708.07,567.5 1587.63,717.44 179.07,717.49 Z" sodipodi:nodetypes="csccccc"></path>
      <path id="path2592" d="m 130.64,1231 h 1821.99 c 16.85,0 27.23,-11.08 27.23,-16.26 L 1789,1032 l -118.44,147.94 -1558,0.05 z" sodipodi:nodetypes="csccccc"></path>
      <path id="path2600" d="M 898.8483,1688.88 C 898.84804,1725.86 1111,1703.93 1111,1630.84 V 348.23 c 39.73,10e-5 65.01,-21.67 66.81,-43.34 L 898.8583,276 Z" sodipodi:nodetypes="sscccs"></path>
    
</svg>
