<?xml version="1.0" encoding="UTF-8" standalone="no"?>
<svg viewBox="0 0 2000 2000" version="1.1" xmlns="http://www.w3.org/2000/svg" xmlns:sodipodi="http://sodipodi.sourceforge.net/DTD/sodipodi-0.dtd">
	
      <path sodipodi:nodetypes="csccccc" d="m 937.08,479.06 h 991.99 c 16.85,0 27.23,-11.08 27.23,-16.26 L 1763.44,278.06 1647,428 919,428.05 Z" id="path2741"></path>
      <path id="path2745" d="m 861.08,1789.06 h 1105.99 c 16.85,0 27.23,-11.08 27.23,-16.26 L 1801.44,1588.06 1685,1738 l -842,0.05 z" sodipodi:nodetypes="csccccc"></path>
      <path d="m 1452,1748 c 132.4138,-194.7595 289.199,-605.6806 388,-1099 32.9326,-4.78264 59.6235,-20.14769 64.6307,-39.23694 L 1583.8631,552.24965 C 1550.1062,898.76796 1482.1551,1392.9184 1405,1748 Z" id="path2747" sodipodi:nodetypes="cccccc"></path>
      <path d="m 1005,573.11316 c 42.2877,269.88471 79.0378,598.38074 113.5074,985.78184 41.5257,90.997 249.8953,92.8929 232.9133,-124.4594 -22.8065,-291.8966 -135.6182,-613.32636 -327.948,-867.6737 z" id="path2749" sodipodi:nodetypes="ccscc"></path>
      <path id="path2759" d="m 21.74,1514.26 89.26,287.9 c 20.77,-3.536 38.89841,-29.8988 39,-58.16 l 860.74,-310.74 6,-28 z" sodipodi:nodetypes="cccccc"></path>
      <path sodipodi:nodetypes="ccscccc" d="m 60.59,586.95 13.08,49.01 h 889.2 c 16.86,0 27.23,-11.08 27.23,-16.26 L 799,446.9 680,587 Z" id="path2761"></path>
      <path sodipodi:nodetypes="cccccc" id="path2771" d="M 531.2,1502.7 C 639.4,1367.8 784.5,1057.5 863,784 c 25.46,14.72 59.7,-19.92 64.78,-38.99 l -326.5,-70.76 c -6.59,150.4 -45.77,522.9 -102,826.1 z"></path>
      <path sodipodi:nodetypes="ccccc" id="path2773" d="m 143.9,712.2 c 39.05,108.6 95.34,370.5 123.6,685.5 92.54,78.91 235.3,15.14 207.2,-173.7 C 440.57,994.4 300.4,788.9 156.6,697.7 Z"></path>
    
</svg>
