<?xml version="1.0" encoding="UTF-8" standalone="no"?>
<svg viewBox="0 0 2000 2000" version="1.1" xmlns="http://www.w3.org/2000/svg" xmlns:sodipodi="http://sodipodi.sourceforge.net/DTD/sodipodi-0.dtd">
	
      <path id="path3309" d="m 1311.99,172 v 1735.71 c 0,67.36 199.2,15.23 199.2,-49.48 V 242.52 c 38.55,6e-5 63.08,-21.03 64.83,-42.05 z" sodipodi:nodetypes="cssccc"></path>
      <path id="path3311" d="m 920.29,1181.55 13.08,49.01 h 1033.8 c 16.86,0 27.23,-11.08 27.23,-16.26 L 1796.2,1031 1677.1,1181.6 Z" sodipodi:nodetypes="ccscccc"></path>
      <path sodipodi:nodetypes="ccscccc" d="M 970.29,701.99 983.37,751 h 923.8 c 16.86,0 27.23,-11.08 27.23,-16.26 l -198.2,-183.3 -119.1,150.6 z" id="path3315"></path>
      <path id="path3332" d="m 795.423,531.48 -95.1,91.71 h -402 l -231.3,-56.07 v 796.5 c 0,48.24 203.54158,21.8196 203.3,-55.04 v -636.3 h 440.5 v 407.5 c 0,21.03 -15.21,27.48 -23.71,26.31 l -134,-18.54 -0.713,22.75 C 640.6,1135.43 674,1201 686.2,1321.6 873.7,1307.58 914,1220 914,1078 V 697 c 33.56,0 78.32,-28.04 78.32,-42.05 z" sodipodi:nodetypes="ccccssccsccccsccc"></path>
      <path id="path3334" d="m 380.323,1894.88 c -3e-4,54.12 203.3,16.12 203.3,-58.04 V 268.23 c 39.73,10e-5 65.01,-21.67 66.81,-43.34 L 380.333,196 Z" sodipodi:nodetypes="sscccs"></path>
    
</svg>
