<?xml version="1.0" encoding="UTF-8" standalone="no"?>
<svg viewBox="0 0 2000 2000" version="1.1" xmlns="http://www.w3.org/2000/svg" xmlns:sodipodi="http://sodipodi.sourceforge.net/DTD/sodipodi-0.dtd">
	
      <path d="m 1654.58,178.18 -95.1,91.71 H 457.68 l -231.3,-56.07 v 1667.42 c 0,38.25 203.3,27.01 203.3,-35.04 v -20 h 1140.4 v 56.02 c 0,28.04 203.3,10.03 203.3,-46.04 V 343.76 c 33.56,0 78.32,-28.04 78.32,-42.05 z M 1570,1785 H 429.6 V 318.88 H 1570 Z" id="path3008" sodipodi:nodetypes="ccccssccsscccccccc"></path>
      <path id="path3029" d="m 893.8483,1728.88 c 0,36.98 212.1517,15.05 212.1517,-58.04 V 468.23 c 39.73,10e-5 65.01,-21.67 66.81,-43.34 L 893.8583,396 Z" sodipodi:nodetypes="cscccc"></path>
      <path sodipodi:nodetypes="csccccc" d="m 553.15,848.5 h 894.55 c 16.85,0 27.23,-11.08 27.23,-16.26 L 1286.07,647.5 1165.63,797.44 535.07,797.49 Z" id="path3031"></path>
      <path sodipodi:nodetypes="csccccc" d="m 468.64,1291 h 1061.99 c 16.85,0 27.23,-11.08 27.23,-16.26 L 1367,1092 l -118.44,147.94 -798,0.05 z" id="path3033"></path>
    
</svg>
