<?xml version="1.0" encoding="UTF-8" standalone="no"?>
<svg viewBox="0 0 2000 2000" version="1.1" xmlns="http://www.w3.org/2000/svg" xmlns:sodipodi="http://sodipodi.sourceforge.net/DTD/sodipodi-0.dtd">
	
      <path sodipodi:nodetypes="ccsscccscccccc" d="m 493,874 h 1110 c -32,355 -68,577 -158.8,856 -4.6217,14.201 -18.5008,18.831 -27.96,17.87 l -215.5,-21.69 2.211,28.14 c 111.4,39.94 188.3,143.1 187.2,224.9 98.42,8.252 207.9437,-41.9312 255.8,-197 C 1717,1552 1769,1292 1805.351,884.62 c 18.7,-2.854 38.84,-18.07 46.94,-34.49 l -185.4,-131.2 -108.8,106.7 H 477.40134 Z" id="path1490"></path>
      <path sodipodi:nodetypes="ccccc" id="path1494" d="m 1145,854 c -23.2074,393.7066 -149.3981,794.4942 -388,1022.5041 l 20,9 C 1109.0847,1736.9897 1309.0706,1399.4279 1368,860 Z"></path>
      <path sodipodi:nodetypes="cccccc" id="path1503" d="M 351,626.50414 C 308.2641,929.02577 195.8316,1296.9662 95.27,1472.5041 l 21.73,13 c 222.94439,-144.6526 395.20067,-490.73298 469,-768.27711 34.01978,-2.33759 71.27,-35.98 71.27,-53.65 z"></path>
      <path sodipodi:nodetypes="ccscc" id="path1509" d="M 344.7,155 C 416.09985,252.03252 488.59455,393.14634 544,534 642.66336,632.21101 842.46716,528.84876 740,369 665,252 505,173 359.7,149.4 Z"></path>
      <path sodipodi:nodetypes="cccccc" id="path1511" d="m 1440,106 c -29.4818,143.64335 -81.7068,326.32645 -149,488 l 20,-2 c 131.9726,-68.83961 289.1791,-221.65282 381.5219,-359.37026 22.6469,0.83851 49.9327,-10.24308 59.885,-32.62974 z"></path>
      <path sodipodi:nodetypes="ccscc" id="path1515" d="M 792.12819,113.24504 C 837.64808,171.001 920.91015,339.03846 979.30616,516 1057,593.27483 1225,524 1185,370 1149.7749,234.3834 962,130.84325 809.58041,108.97341 Z"></path>
      <path d="m 732,854 c -28.7567,314.5472 -139.67113,645.7102 -354,874.5041 l 17,8 C 681.75667,1617.9992 882.62732,1313.3216 955,860 Z" id="path1531" sodipodi:nodetypes="ccccc"></path>
    
</svg>
