<?xml version="1.0" encoding="UTF-8" standalone="no"?>
<svg viewBox="0 0 2000 2000" version="1.1" xmlns="http://www.w3.org/2000/svg" xmlns:sodipodi="http://sodipodi.sourceforge.net/DTD/sodipodi-0.dtd">
	
      <path sodipodi:nodetypes="ccccccccscccc" id="path2168" d="m 897.6,1796 203.3,13.77 v -516.7 c 39.73,10e-5 65.01,-21.67 66.81,-43.34 l -270.1,-28.89 z m -781.9,-21.04 13.08,49.01 h 1757 c 16.86,0 27.23,-11.08 27.23,-16.26 l -198.2,-197.3 -119.1,164.6 z"></path>
      <path id="path2170" d="m 1530,267.7 -95.1,91.71 H 583 L 351.7,303.34 v 858.1 c 0,53.6 203.3,37.16 203.3,-39.04 v -20 h 890.4 v 57.9 c 0,39.12 203.3,18.5 203.3,-50.04 v -677 c 33.56,0 78.32,-28.04 78.32,-42.05 z m -84.58,793.5 H 555.02 V 408.4 h 890.4 z" sodipodi:nodetypes="ccccssccsscccccccc"></path>
      <path sodipodi:nodetypes="ccccc" id="path2176" d="m 900,1081 203.3,1.957 v -697.3 L 900,386.3488 Z"></path>
    
</svg>
