<?xml version="1.0" encoding="UTF-8" standalone="no"?>
<svg viewBox="0 0 2000 2000" version="1.1" xmlns="http://www.w3.org/2000/svg" xmlns:sodipodi="http://sodipodi.sourceforge.net/DTD/sodipodi-0.dtd">
	
      <path d="M 324.7,176 C 396.09985,273.0325 468.59455,414.1463 524,555 622.66336,653.211 822.46716,549.8488 720,390 645,273 485,194 339.7,170.4 Z" id="path3359" sodipodi:nodetypes="ccscc"></path>
      <path d="M 1420,117.3703 C 1399.2148,232.91225 1330.6161,443.44908 1257,605 l 27,5 c 109.5374,-57.41023 293.9893,-225.74188 388.5219,-366 23.1839,0.85407 49.9327,-10.243 59.885,-32.6297 z" id="path3361" sodipodi:nodetypes="cccccc"></path>
      <path d="M 776.12819,132.245 C 821.64808,190.001 904.91015,358.0385 963.30616,535 1041,612.2748 1209,543 1169,389 1133.7749,253.3834 946,149.8432 793.58041,127.9734 Z" id="path3363" sodipodi:nodetypes="ccscc"></path>
      <path sodipodi:nodetypes="cccccccccc" id="path3376" d="m 118,1503 c 378.02276,-114.818 685.69191,-458.4239 798,-733.88 23.5857,-0.72654 56,-14.161 61.58,-30.82 l -201,-164.9 -136,139.7 H 340 l 17.42,50.34 H 652.1 C 579.67394,1012.2477 417.83207,1267.5941 96,1493 Z"></path>
      <path sodipodi:nodetypes="ccsscccscccccc" d="m 746.649,971.5 h 805 C 1525,1306 1490,1528 1434.849,1745.5 c -3.6706,14.476 -18.4775,18.5638 -27.96,17.87 l -203.24,-14.87 v 28 c 89,32 164,126 169.151,218.22 98.42,8.252 225.6876,-38.7835 261.8,-197 C 1690,1555 1725,1334 1754,982.12 c 18.7,-2.854 38.84,-18.07 46.94,-34.49 l -185.4,-131.2 -108.8,106.7 H 731.0503 Z" id="path3378"></path>
      <path sodipodi:nodetypes="ccccc" id="path3380" d="M 1220.649,951.5 C 1196.6253,1289.759 1065.9953,1634.1018 819,1830 l 19,12 c 339.754,-128.094 544.3587,-419.242 604.649,-884.5 z"></path>
      <path d="M 903.649,951.5 C 823.7416,1228.0511 679.43979,1477.2946 444,1661 l 17,13 c 321.98228,-117.508 536.2817,-331.6115 660.649,-716.5 z" id="path3382" sodipodi:nodetypes="ccccc"></path>
    
</svg>
