<?xml version="1.0" encoding="UTF-8" standalone="no"?>
<svg viewBox="0 0 2000 2000" version="1.1" xmlns="http://www.w3.org/2000/svg" xmlns:sodipodi="http://sodipodi.sourceforge.net/DTD/sodipodi-0.dtd">
	
      <path sodipodi:nodetypes="cssccc" d="m 392.89,198 v 1711.71 c 0,67.36 199.2,15.23 199.2,-49.48 V 268.52 c 38.55,6e-5 63.08,-21.03 64.83,-42.05 z" id="path2798"></path>
      <path id="path2808" d="M 95.19,701.99 108.27,751 h 779.8 c 16.86,0 27.23,-11.08 27.23,-16.26 L 717.1,551.44 598,702.04 Z" sodipodi:nodetypes="ccscccc"></path>
      <path sodipodi:nodetypes="ccccssccsccccsccc" d="m 1799.423,521.48 -95.1,91.71 h -542 l -231.3,-56.07 v 794.5 c 0,48.24 203.3,21.8199 203.3,-55.04 v -634.3 h 580.5 v 477.5 c 0,21.03 -15.21,27.48 -23.71,26.31 l -150,-14.54 -0.713,22.75 c 88.2,25.13 137.6,86.7 149.8,207.3 C 1877.7,1367.58 1918,1280 1918,1138 V 687 c 33.56,0 78.32,-28.04 78.32,-42.05 z" id="path2813"></path>
      <path sodipodi:nodetypes="sscccs" d="m 1320.323,1906.88 c -3e-4,54.12 203.3,16.12 203.3,-58.04 V 248.23 c 39.73,1e-4 65.01,-21.67 66.81,-43.34 L 1320.333,176 Z" id="path2815"></path>
      <path id="path2825" d="m 12,1226 95.26,267.9 c 20.77,-3.536 38.91,-30.39 39,-58.16 L 905.906,1128.93 914,1097 Z" sodipodi:nodetypes="cccccc"></path>
    
</svg>
