<?xml version="1.0" encoding="UTF-8" standalone="no"?>
<svg viewBox="0 0 2000 2000" version="1.1" xmlns="http://www.w3.org/2000/svg" xmlns:sodipodi="http://sodipodi.sourceforge.net/DTD/sodipodi-0.dtd">
	
      <path d="m 1417.423,263 -95.1,91.71 H 702.36 L 471.06,298.64 V 856 c 0,522.5397 -48.50868,846 -276.06,1051.62 L 213,1918 C 561.82463,1766 673.77064,1488.0001 674.037,998 l 0.323,-594.2 h 658.463 v 1255.98 c 0,21.03 -15.1958,27.372 -23.71,26.31 L 1124,1663 l -0.713,26.75 C 1211.487,1714.88 1288,1767 1308.2,1905.6 1495.7,1891.58 1536,1804 1536,1662 V 428.52 c 33.56,0 78.32,-28.04 78.32,-42.05 z" id="path2522" sodipodi:nodetypes="ccccsccsccsscccsccc"></path>
      <path sodipodi:nodetypes="ccscccc" d="m 95,961.99 13.08,49.01 h 1810.9 c 13.32,0 21.52,-11.08 21.52,-16.26 L 1764,836.14 1655.4,962.04 Z" id="path2525"></path>
    
</svg>
