<?xml version="1.0" encoding="UTF-8" standalone="no"?>
<svg viewBox="0 0 2000 2000" version="1.1" xmlns="http://www.w3.org/2000/svg" xmlns:sodipodi="http://sodipodi.sourceforge.net/DTD/sodipodi-0.dtd">
	
      <path sodipodi:nodetypes="cccccccccssccc" d="m 1616.5801,540.41992 -95.0996,91.71094 H 370 l 16,48.98828 H 1532 V 1797.2405 H 606 l 16,49.1993 h 910.0801 v 36.0214 c 0,41.7243 203.3008,20.2596 203.3008,-46.041 V 706 c 33.56,0 78.3203,-28.04078 78.3203,-42.05078 z" id="path2782"></path>
      <path d="m 859.4333,233.799 296.3366,34.788 C 1150.5427,294.494 1134.8301,316.998 1087,317 990,1097 661.5279,1772.162 122,1950.0004 l -21,-10 C 566.8816,1561.89 784,963 859.4333,233.799 Z" id="path2784" sodipodi:nodetypes="cccccc"></path>
      <path sodipodi:nodetypes="ccscccc" d="m 950.72,1213 13.08,49.01 H 1541 c 16.86,0 27.23,-11.08 27.23,-16.26 l -186.1,-181.8 -124,149.1 z" id="path2790"></path>
    
</svg>
