<?xml version="1.0" encoding="UTF-8" standalone="no"?>
<svg viewBox="0 0 2000 2000" version="1.1" xmlns="http://www.w3.org/2000/svg" xmlns:sodipodi="http://sodipodi.sourceforge.net/DTD/sodipodi-0.dtd">
	
      <path sodipodi:nodetypes="ccccssccsscccccccc" d="m 1414,183.7 -95.1,91.71 H 699 L 467.7,219.34 v 740.1 c 0,47.3058 203.3,27.5859 203.3,-39.04 v -10 h 658.4 v 43.9 c 0,51.4308 203.3,32.38057 203.3,-50.04 v -555 c 33.56,0 98.32,-28.04 98.32,-42.05 z m -84.58,685.5 H 671.02 V 324.4 h 658.4 z" id="path3040"></path>
      <path id="path3046" d="m 810,1055.3 -95.1,91.71 H 363 l -231.3,-56.07 v 782.1 c 0,47.3058 203.3,27.5859 203.3,-39.04 v -32 h 390.4 v 43.9 c 0,48.9494 203.3,37.8605 203.3,-50.04 v -575 c 33.56,0 78.32,-28.04 78.32,-42.05 z m -84.58,705.5 H 335.02 V 1196 h 390.4 z" sodipodi:nodetypes="ccccssccsscccccccc"></path>
      <path sodipodi:nodetypes="ccccssccsscccccccc" d="m 1750,1055.3 -95.1,91.71 H 1303 l -231.3,-56.07 v 762.1 c 0,47.3058 203.3,27.5859 203.3,-39.04 v -12 h 390.4 v 57.9 c 0,48.9494 203.3,37.8605 203.3,-50.04 v -589 c 33.56,0 78.32,-28.04 78.32,-42.05 z m -84.58,705.5 h -390.4 V 1196 h 390.4 z" id="path3048"></path>
    
</svg>
