<?xml version="1.0" encoding="UTF-8" standalone="no"?>
<svg viewBox="0 0 2000 2000" version="1.1" xmlns="http://www.w3.org/2000/svg" xmlns:sodipodi="http://sodipodi.sourceforge.net/DTD/sodipodi-0.dtd">
	
      <path sodipodi:nodetypes="ccsccccscccccc" id="path2555" d="m 40,436.8 h 629.823 v 651.98 c 0,21.03 -15.1972,27.3834 -23.71,26.31 L 461,1092 l -0.713,26.75 C 548.487,1143.88 625,1216 645.2,1334.6 832.7,1320.58 873,1233 873,1091 V 461.52 c 33.56,0 78.32,-28.04 78.32,-42.05 L 754.423,296 l -95.1,91.71 H 28 Z"></path>
      <path id="path2557" d="m 265.6997,1892.88 c -4.2e-4,61.9824 202.09702,26.5662 203.3,-58.04 V 422.23 L 265.7097,420 Z" sodipodi:nodetypes="ssccs"></path>
      <path sodipodi:nodetypes="ccsscccscccccc" d="M 1124.1387,1053.07 H 1705.649 C 1668,1277 1622.9643,1488.8766 1558.08,1684 c -4.7123,14.1712 -24.26,28.6879 -33.711,27.65 l -217.5,-21.69 2.211,28.14 c 111.4,39.94 188.3,143.1 187.2,224.9 98.42,8.252 215.1765,-35.5561 261.8,-191 62.503,-208.3866 115.92,-425 159.92,-688.31 18.7,-2.854 38.84,-18.07 46.94,-34.49 l -185.4,-131.2 -108.8,106.7 h -562.2 z" id="path2565"></path>
      <path sodipodi:nodetypes="cssccc" id="path2571" d="m 1031.6908,493.48 -113.1914,640.48 c -11.31427,64.0204 217.2377,38.591 230.5006,-33.48 L 1247.7258,564 c 36.668,6e-5 60.4096,-23.03 65.4875,-44.05 z"></path>
      <path sodipodi:nodetypes="sscccccccs" id="path2579" d="m 1576.68,827.89 c -11.9296,71.27201 220.7609,54.19185 233.2,-22.2 l 72.2,-443.4 c 27.22,0 58.5,-25.14 58.5,-31.43 l -185.7,-126.6 -104.3,101.4 H 957.28 L 972.7,354 H 1656 Z"></path>
    
</svg>
