<?xml version="1.0" encoding="UTF-8" standalone="no"?>
<svg viewBox="0 0 2000 2000" version="1.1" xmlns="http://www.w3.org/2000/svg" xmlns:sodipodi="http://sodipodi.sourceforge.net/DTD/sodipodi-0.dtd">
	
      <path d="m 872.9,1948 c -2e-5,36.98 203.3,15.05 203.3,-58.04 v -1396 c 39.73,1e-4 65.01,-21.67 66.81,-43.34 l -270.1,-28.89 z" id="path1578"></path>
      <path d="m 1377,649.2 -95.1,91.71 H 699.6 L 468.3,684.84 v 143.3 c 0,572.4 -59.5,785.8 -278.3,1095 l 19.08,10.26 c 265.5,-134 456.7,-427.9 460.2,-869.4 l 2.198,-273.9 h 620.8 v 164.7 c 0,396.7 38.92,772.5 263.7,936.5 118.9,86.7 241.3,-26.92 180.4,-147.1 l 28.52,-269.7 -21.65,-14.83 c -39.36,179.5 -72.64,209.1 -103.4,174.5 -120.7,-135.9 -144.3,-400.1 -144.3,-726.1 v -105.9 c 33.56,0 51.75,-15.29 51.75,-29.3 z" id="path1580"></path>
      <path id="path1584" d="M 1369,1367 H 535 l 13.08,47.01 h 852.1 z m 0,-312 H 535 l 13.08,47.01 h 852.1 z" sodipodi:nodetypes="cccccccccc"></path>
      <path d="m 914.5,4.428 c -183.5,214.3 -499.2,486.2 -887.8,721.4 l 15.46,14.23 c 424.9,-121.6 800.9,-355.4 1072,-579.3 39.53,4.101 66.93,-10.08 77.38,-34.19 z" id="path1586"></path>
      <path d="M 1989,534.7 C 1478.3,446.37 1187.5,245.3 1067.5,133.9 l -72.48,39.62 c 99.86,156.1 382.6,441.8 738.1,548.6 46.07,-78.7 114.7,-144.8 246.8,-160.8 z" id="path1588"></path>
    
</svg>
