<?xml version="1.0" encoding="UTF-8" standalone="no"?>
<svg viewBox="0 0 2000 2000" version="1.1" xmlns="http://www.w3.org/2000/svg" xmlns:sodipodi="http://sodipodi.sourceforge.net/DTD/sodipodi-0.dtd">
	
      <path id="path2349" d="m 1777,1593 -123,146.3396 -808.4081,-0.051 13.0801,49.0117 1075.8906,2e-4 c 16.86,0 27.2305,-11.0817 27.2305,-16.2617 z" sodipodi:nodetypes="ccccscc"></path>
      <path id="path2351" d="M 578.88,1646 H 394.28 V 495.23 c 39.73,10e-5 65.01,-21.67 66.81,-43.34 L 190.99,423 v 1367.27 c 0,38.25 203.3,15.01 203.3,-47.04 v -48 h 184.6 v 45.9 c 0,37.1829 203.3,15.9746 203.3,-58.04 V 501.22 c 39.73,10e-5 65.01,-21.67 66.81,-43.34 L 578.9,428.99 Z" sodipodi:nodetypes="cccccssccsscccc"></path>
      <path id="path2355" d="m 23.41,879.42299 13.08,49.01 h 986.89 c 16.86,0 27.23,-11.08 27.23,-16.26 l -168.154,-161.3 -101.046,128.6 z" sodipodi:nodetypes="ccscccc"></path>
      <path sodipodi:nodetypes="ccccscc" d="M 1691,573.6604 1568,720 938.9199,719.949 952,768.9607 l 896.5626,2e-4 c 16.86,0 27.2305,-11.0817 27.2305,-16.2617 z" id="path2358"></path>
      <path sodipodi:nodetypes="cccccc" d="m 1251.01,1763.13 203.3,-0.04 V 301.22 c 39.73,10e-5 65.01,-21.67 66.81,-43.34 l -270.1,-28.89 z" id="path2362"></path>
    
</svg>
