<?xml version="1.0" encoding="UTF-8" standalone="no"?>
<svg viewBox="0 0 2000 2000" version="1.1" xmlns="http://www.w3.org/2000/svg" xmlns:sodipodi="http://sodipodi.sourceforge.net/DTD/sodipodi-0.dtd">
	
      <path sodipodi:nodetypes="csccccc" d="m 173.08,674 h 971.55 c 16.85,0 27.23,-11.08 27.23,-16.26 L 979,475 868.56,624.94 155,624.99 Z" id="path3401"></path>
      <path sodipodi:nodetypes="cccccc" id="path3404" d="M 1952.605,1730.58 C 1327.8844,1671.0106 846.51847,1351.3955 618,1067 l -57,50 c 266.72394,403.5895 623.8379,730.7662 1148.395,847 47.6376,-94.4533 131.105,-178 232.8,-203.8 z"></path>
      <path id="path3409" d="M 568,176 C 559,993 351,1632 11,1957 l 27,13 c 390,-183 714,-692 775.2,-1706 28.13352,-4 55.72,-25.94 57,-47 z" sodipodi:nodetypes="cccccc"></path>
      <path id="path3419" d="m 1065.3,773 c 205.6,111.8 405.6,310.3 561.1,503.1 155.1,44.57 245.3,-102.2 108.6,-226.1 C 1560.1,891.5 1329.2,809.7 1079.4,756.6 Z" sodipodi:nodetypes="ccccc"></path>
      <path id="path3421" d="M 847.09,1459.0348 C 1126.725,1399.9625 1570.487,1111.1988 1798,699 c 27.876,2.6218 61.592,-5.5428 76.021,-35.9652 l -283.499,-106 c -81.142,227.2409 -367.04,657.6025 -763.432,890 z" sodipodi:nodetypes="cccccc"></path>
    
</svg>
