<?xml version="1.0" encoding="UTF-8" standalone="no"?>
<svg viewBox="0 0 2000 2000" version="1.1" xmlns="http://www.w3.org/2000/svg" xmlns:sodipodi="http://sodipodi.sourceforge.net/DTD/sodipodi-0.dtd">
	
      <path sodipodi:nodetypes="cccccc" d="M 1950,1706.93 C 1599,1642 1090.75,1184 1090.75,426 L 1042,613 c 0,731 361,1232 656,1314.9 39.6545,-86.5776 131,-175.9 243.2,-194.9 z" id="path1746"></path>
      <path sodipodi:nodetypes="csccsccc" d="M 861.45,115 862,424 c 1.11065,623.9859 -187.92665,1134 -770,1489 l 46,17 C 808,1713 1090.95,1097.1875 1090.95,507 V 199.18 c 42.02,0 70.66,-33.68 70.68,-51.51 z" id="path1748"></path>
      <path sodipodi:nodetypes="csccccc" d="m 179.08,647 h 1650.55 c 16.85,0 27.23,-11.08 27.23,-16.26 L 1641,455 1531,597.94 161,597.99 Z" id="path1750"></path>
      <path id="path1754" d="M 304.89406,805.6 C 390.29084,902.72138 472.45002,1027.5442 531,1170 610.72048,1241.8409 753.86547,1135.2634 687,999.0177 622.32642,867.23818 444.41167,810.92505 315.89406,800 Z" sodipodi:nodetypes="ccscc"></path>
      <path id="path1756" d="m 1459.84,767 c -42.8547,125.4 -122.1859,283.2 -212.84,420.8 l 34,11.48 c 138.2651,-65.51 288.4714,-173.2 384,-280.4 23.5836,0.12 60.065,-9.776 70.515,-33.88 z" sodipodi:nodetypes="cccccc"></path>
    
</svg>
