<?xml version="1.0" encoding="UTF-8" standalone="no"?>
<svg viewBox="0 0 2000 2000" version="1.1" xmlns="http://www.w3.org/2000/svg" xmlns:sodipodi="http://sodipodi.sourceforge.net/DTD/sodipodi-0.dtd">
	
      <path sodipodi:nodetypes="ccccscc" d="m 875.3653,288.93213 -123,146.34 -648.5402,-0.05 13.0801,49.012 h 916.0227 c 16.86,0 27.2305,-11.082 27.2305,-16.262 z" id="path3453"></path>
      <path sodipodi:nodetypes="cccccssscccsscccc" d="M 768.3653,694 658.8809,785.7109 H 472.151 l 14,49.0899 H 669.3809 V 1619 c 0,140 43,285 206,285 h 927.3228 c 106,0 133,-150 79.6772,-200 L 1905,1459 l -20,-4 c -28.3809,109 -73,237 -130,237 H 968 c -60,0 -84.997,-43.2294 -85,-98 l -0.059,-734.4805 c 33.56,0 78.3204,-28.0388 78.3204,-42.0488 z" id="path3455"></path>
      <path d="M 317.151,465.832 V 711 c 0,555.204 -75.151,978 -305,1234 l 20,9 C 333,1809 529.98354,1433.9802 535.151,753 l 0.214,-285.766 z" id="path3458" sodipodi:nodetypes="csccscc"></path>
      <path id="path3938-1" d="m 1679.0698,1093.217 h -478.69 l 4.29,-512.36 c 39.73,0 65.01,-33.67 66.81,-55.34 l -284.1,-20.89 -4.29,713.36 c -0.23002,38.2489 217.3,-8.18 217.3,-47.04 v -32 h 478.69 v 61.9 c 0,28.04 214.882,-1.9731 215.3,-58.04 l 4.29,-575.36 c 39.73,0 65.01,-25.67 66.81,-47.34 l -282.1,-28.89 z" sodipodi:nodetypes="cccccssccsscccc"></path>
      <path id="path3940-1" d="m 1343.7999,302.807 v 755 c 0,282.131 -41.803,494.193 -164.7999,648.702 l 28,12.298 C 1412.8133,1623.477 1555,1425 1555,1107 V 373.327 c 38.55,0 63.08,-21.03 64.83,-42.05 z" sodipodi:nodetypes="csccsccc"></path>
    
</svg>
