<?xml version="1.0" encoding="UTF-8" standalone="no"?>
<svg viewBox="0 0 2000 2000" version="1.1" xmlns="http://www.w3.org/2000/svg" xmlns:sodipodi="http://sodipodi.sourceforge.net/DTD/sodipodi-0.dtd">
	
      <path sodipodi:nodetypes="ccscc" id="path2974" d="M 137.53136,446.51611 C 180.63727,498.65859 260.94489,650.57629 311,788 401,831 518,750 467,627 424.89447,525.45137 264.09942,451.80937 148.23136,437.91611 Z"></path>
      <path sodipodi:nodetypes="ccscc" id="path2976" d="M 90.7,889.2 C 277.23898,1061.8728 497.66197,1326.2371 646,1618.6661 754.96077,1669.9355 894,1559 810,1399 679.59938,1150.6179 384.45994,970.1273 105.5,879.3 Z"></path>
      <path sodipodi:nodetypes="cccccc" d="M 606.45,489.719 C 512.95999,1115.5276 333.20453,1572.4989 5,1910 l 24,6 c 382.82323,-181.6031 676.79086,-687.7002 805,-1336 33.82827,-3.44108 62,-25 68.88,-50.99 z" id="path2998"></path>
      <path sodipodi:nodetypes="cccccccccc" d="m 1456,665 c 130.9242,-36.71243 303.5923,-143.80946 407.0661,-243 22.5993,0.79331 62.98,-24.53 64.1,-30.82 l -208.9,-148.7 -120.1,123.5 h -738.88 l 15.42,48.34 h 724.58 C 1565,498 1477,602 1412,644 Z" id="path3004"></path>
      <path sodipodi:nodetypes="csscccscc" d="m 1257.605,595.7776 v 915 c 0,21.03 -10.491,27.858 -24.53,26.28 l -222.5,-23.009 v 22.78 c 131.33,44.849 188.33,100.849 222.5,215.8 187.5,-14.02 223.8,-101.6 223.8,-243.6 v -865.2 z" id="path3009"></path>
      <path id="path3019" d="m 755.09,1801.6266 13.08,49.01 h 1167.8 c 16.86,0 27.23,-11.08 27.23,-16.26 l -213.129,-197.3 -128.071,164.6 z" sodipodi:nodetypes="ccscccc"></path>
      <path d="m 871.8503,844.8236 c 45.1882,77.145 116.0458,264.674 156.275,429.253 84,65 209.2028,-2.336 172,-141 -33,-123 -196.8787,-251.866 -317.575,-296.853 z" id="path3022" sodipodi:nodetypes="ccscc"></path>
      <path d="m 1627.2672,811.9316 c -42.1419,168.145 -86.3453,320.201 -144.1419,480.145 l 17,4 c 88.7466,-50.5828 244.6216,-208.1057 335.0469,-344.09612 23.1572,2.37819 48.3814,-8.88102 57.5253,-21.98048 z" id="path3025" sodipodi:nodetypes="cccccc"></path>
    
</svg>
