<?xml version="1.0" encoding="UTF-8" standalone="no"?>
<svg viewBox="0 0 2000 2000" version="1.1" xmlns="http://www.w3.org/2000/svg" xmlns:sodipodi="http://sodipodi.sourceforge.net/DTD/sodipodi-0.dtd">
	
      <path id="path3462" d="m 1064,621 c 239,-29 521,-122 648.8,-259 36.0753,0.89451 62.98,-24.53 64.1,-30.82 L 1568,182.48 1447.9,305.98 H 271.58 L 287,354.32 H 1427 C 1372.6203,426 1171,548 1005,586 Z" sodipodi:nodetypes="cccccccccc"></path>
      <path id="path3464" d="m 882.4389,537.7776 v 953 c 0,21.03 -10.47753,27.7332 -24.53,26.28 l -222.5,-23.009 v 22.78 c 131.33,44.849 188.33,100.849 222.5,215.8 187.5,-14.02 223.8,-101.6 223.8,-243.6 v -903.2 z" sodipodi:nodetypes="csscccscc"></path>
      <path sodipodi:nodetypes="ccscccc" d="m 113.92,1761.6266 13.08,49.01 h 1762.899 c 16.86,0 27.23,-11.08 27.23,-16.26 l -213.129,-197.3 -128.071,164.6 z" id="path3466"></path>
      <path id="path3474" d="M 1202,1273.231 C 1363,1186 1549.3,1039.983 1666,912 c 27.1772,-0.778 63,-17.769 76.6577,-44.245 L 1439.2879,766.293 C 1407.5617,858.845 1299.525,1084.462 1179,1267 Z" sodipodi:nodetypes="cccccc"></path>
      <path sodipodi:nodetypes="ccscc" d="m 238,811 c 115,123 226,283 299,442 103,59 273.1654,-43.358 169,-187.769 -88,-122 -266,-216 -450,-262.931 z" id="path3477"></path>
    
</svg>
