<?xml version="1.0" encoding="UTF-8" standalone="no"?>
<svg viewBox="0 0 2000 2000" version="1.1" xmlns="http://www.w3.org/2000/svg" xmlns:sodipodi="http://sodipodi.sourceforge.net/DTD/sodipodi-0.dtd">
	
      <path sodipodi:nodetypes="cccccssccsscccc" id="path2015" d="M 1233,1124.9476 H 762.4 v -729.9 c 38.6,-5.0476 65.01,-21.67 66.81,-43.34 l -270.1,-28.89 v 902.4 c 0,47.858 203.3,24.5327 203.3,-47.04 v -12 h 470.6 v 65.9 c 0,42.1441 203.3,19.3758 203.3,-52.04 v -787 c 37.69,-5.0376 65.01,-21.67 66.81,-43.34 l -270.1,-28.89 z"></path>
      <path sodipodi:nodetypes="ccscccc" id="path2017" d="m 90.48,668.5476 13.08,49.01 h 1799 c 16.86,0 27.23,-11.08 27.23,-16.26 l -198.2,-177.3 -119.1,144.6 z"></path>
      <path id="path2036" d="m 1089.804,1395.287 c 112.5393,91.8165 295.1752,325.3933 390.196,504.713 114.9744,52.1262 237.7059,-51.8684 152,-197 -71.0897,-120.381 -255.9179,-258.2017 -529.196,-320.713 z" sodipodi:nodetypes="ccscc"></path>
      <path d="m 235,1915 c 239.36314,-61.0153 468.31151,-258.5538 612,-449 19.77922,-1.3965 60.74,-9.156 70.18,-41.92 L 633.286,1361.2004 C 561.99368,1522.3714 376.87636,1776.306 217,1906 Z" id="path2039" sodipodi:nodetypes="cccccc"></path>
    
</svg>
