<?xml version="1.0" encoding="UTF-8" standalone="no"?>
<svg viewBox="0 0 2000 2000" version="1.1" xmlns="http://www.w3.org/2000/svg" xmlns:sodipodi="http://sodipodi.sourceforge.net/DTD/sodipodi-0.dtd">
	
      <path sodipodi:nodetypes="cccccccccc" id="path2271" d="M 151.00001,1905 C 820,1752 1316.2304,1366.2635 1650.38,573.68 c 32.22,0 62.98,-24.53 64.1,-30.82 l -211,-154.9 -140,129.7 H 639.38 L 648.8,568 H 1376 C 1135.1788,1191.2142 708,1585 126.00001,1892 Z"></path>
      <path sodipodi:nodetypes="cccccc" id="path2280" d="M 1905.21,1704.58 C 1280,1631 876,1234 639.04613,787 L 605.105,818 C 838.31046,1380.2168 1190,1799 1653,1907 c 53.0807,-83.3407 136.1735,-145.5824 241.8,-172.8 z"></path>
      <path id="path2292" d="m 205,1226 c 353,-177 547,-528 649,-939 42.638,0.9554 68,-18 75,-47 L 611,195 C 553,622 370,1013 181,1223 Z" sodipodi:nodetypes="cccccc"></path>
    
</svg>
