<?xml version="1.0" encoding="UTF-8" standalone="no"?>
<svg viewBox="0 0 2000 2000" version="1.1" xmlns="http://www.w3.org/2000/svg" xmlns:sodipodi="http://sodipodi.sourceforge.net/DTD/sodipodi-0.dtd">
	
      <path id="path2986" d="m 933.7148,924 -0.01,780.4678 c -2.7e-4,21.03 -9.65263,27.6418 -23.71094,26.3086 L 669.81865,1708 l 0.81836,28.75 C 780.81865,1781 878.81865,1844 909.113,1966.3076 1096.6133,1952.2876 1158.998,1864.708 1159,1722.708 l 0.01,-726.47753 c 39.7301,0 65.0087,-21.66985 66.8087,-43.33985 z" sodipodi:nodetypes="csscccsccc"></path>
      <path id="path2988" d="m 1276.7121,1218.7068 c 115,123 226,283 299,442 103,59 284.4533,-46.2957 180.2879,-190.7068 -88,-122 -277.2879,-213.0617 -461.2879,-259.9932 z" sodipodi:nodetypes="ccscc"></path>
      <path d="M 1376.7402,34.4297 C 1147.7684,397.35661 793.77174,803.64869 224,1001 l 26,15 c 566.75409,-62.54253 999.9857,-383.70123 1340,-843 48.9296,5.82145 66.9308,-10.0794 77.3808,-34.1894 z" id="path2990" sodipodi:nodetypes="cccccc"></path>
      <path sodipodi:nodetypes="ccccc" id="path2992" d="m 531.43207,271.49797 c 283.92872,176.28431 608.52603,445.11319 837.30003,726.40003 160.2062,52.6137 284.0014,-98.8859 142,-237.00003 -273.6734,-266.27376 -549.22496,-393.89556 -962.50003,-505.2 z"></path>
      <path sodipodi:nodetypes="cccccc" id="path2994" d="M 522.82,1202.744 C 473.98829,1348.3683 331.24101,1570.6357 196,1692 l 23,15 c 153.03219,-53.7613 407.05444,-187.2681 539,-407 31.43264,-2.5619 52.99,-16.98 62.05,-41.64 z"></path>
    
</svg>
