<?xml version="1.0" encoding="UTF-8" standalone="no"?>
<svg viewBox="0 0 2000 2000" version="1.1" xmlns="http://www.w3.org/2000/svg" xmlns:sodipodi="http://sodipodi.sourceforge.net/DTD/sodipodi-0.dtd">
	
      <path d="m 582.5,1248 c 81.24,100.8 165.2,238.4 207.7,388.6 83.26,75.3 244,13.94 185.3,-140.3 -60.66,-159.5 -246.6,-219.9 -382,-257 z" id="path1348"></path>
      <path d="m 485.7,871.52 c 0,381.7 -129.1,816.5 -440.1,1045 l 16.53,16.96 c 368.7,-108.7 643.8,-548.7 644.5,-975.8 46.75,-2.969 71.27,-35.98 71.27,-53.65 z" id="path1350" sodipodi:nodetypes="cccccc"></path>
      <path sodipodi:nodetypes="cccccc" d="M 1954,1749 C 1705,1638 1430.1,1335.2 1430.1,957.1 l -80.75,26.87 c 6.298,429.9 145.65,779.03 352.8,946 25.94,-71.61 111,-139 243.2,-154.9 z" id="path1352"></path>
      <path d="m 1208.8,873.32 c 0,375.4 -119.2,803 -406.4,1028 l 14.7,20.08 c 350.8,-108.2 613.2,-541.9 613.2,-963.9 42.02,0 70.66,-33.68 70.68,-51.51 z" id="path1354" sodipodi:nodetypes="cccccc"></path>
      <path d="m 350.9,207.8 c 70.39,93.47 138.2,213.6 186.4,350.7 89.62,90.94 283.2,-21.2 181.9,-174.7 C 648.01,276 493.2,221 361.9,202.2 Z" id="path1360"></path>
      <path d="m 1343,163.2 c -25.43,125 -79.38,284.2 -145,424.6 l 25.66,3.516 c 122.2,-62.76 272.8,-189.3 360.2,-301.8 21.42,0.4724 49.8,-10.87 59.47,-33.38 z" id="path1362"></path>
      <path d="m 185.9,704.3 13.08,49.01 h 1607 c 16.85,0 27.23,-11.08 27.23,-16.26 l -198.2,-177.4 -119.1,144.6 z" id="path1366" sodipodi:nodetypes="ccscccc"></path>
      <path d="m 753,157.2 c 57.02,59.3 126.1,209.3 160.9,357 88.88,86.53 271.3,6.453 194.4,-155.1 C 1057.74,252.8 897.4,166.7 762,149.1 Z" id="path1369"></path>
    
</svg>
