<?xml version="1.0" encoding="UTF-8" standalone="no"?>
<svg viewBox="0 0 2000 2000" version="1.1" xmlns="http://www.w3.org/2000/svg" xmlns:sodipodi="http://sodipodi.sourceforge.net/DTD/sodipodi-0.dtd">
	
      <path sodipodi:nodetypes="csccccc" d="M 148.01,1791 H 1866 c 16.85,0 27.23,-11.08 27.23,-16.26 L 1700.37,1590 l -116.44,149.94 -1454,0.05 z" id="path2107"></path>
      <path sodipodi:nodetypes="ccscc" id="path2124" d="m 272.7,404 c 86.8048,142.09245 174.9406,348.73666 242.3,555 73.60758,58.1015 214.86092,8.75653 188,-127 C 666,645 467,471 287.7,398.4 Z"></path>
      <path id="path2128" d="M 1459.38,378.24 C 1364.0809,952.44569 1102.4786,1438.1409 618,1699 l 24,11 c 567.1997,-121.5878 935.4764,-647.2936 1055,-1242 36.328,-5.00726 60.3,-29.64 61.58,-50.7 z" sodipodi:nodetypes="cccccc"></path>
      <path d="m 765.1992,341.9004 -15,5.5996 C 828.5959,490.8246 899.1543,697.6944 957,909.5 1028.3038,976.0508 1176.3334,919.8375 1152,780 1118.5,587.5 945.4993,414.0004 765.1992,341.9004 Z" id="path2172"></path>
    
</svg>
