<?xml version="1.0" encoding="UTF-8" standalone="no"?>
<svg viewBox="0 0 2000 2000" version="1.1" xmlns="http://www.w3.org/2000/svg" xmlns:sodipodi="http://sodipodi.sourceforge.net/DTD/sodipodi-0.dtd">
	
      <path id="path1639" d="M 795.099,813.656 H 1598 c -32,355 -76,613 -166.8,892 -4.622,14.201 -20.5,18.8221 -29.96,17.87 l -215.5,-21.69 2.211,28.14 c 111.4,39.94 188.3,143.1 187.2,224.9 98.42,8.252 205.9103,-42.5733 255.8,-197 81.049,-250.876 133.049,-526.22 169.4,-933.6 18.7,-2.854 38.84,-18.07 46.94,-34.49 l -185.4,-131.2 -108.8,106.7 H 782.452 Z" sodipodi:nodetypes="ccsscccscccccc"></path>
      <path d="m 187.791,1553.98 c 367.1,-162.98 663.93697,-693.3 773,-1084.3 22.9042,-1.03128 56,-14.161 61.58,-30.82 l -201,-164.9 -136,139.7 h -404.42 l 17.42,50.34 h 398.52 c -69.56084,357.61567 -225,762 -534.1,1085.98 z" id="path1384" sodipodi:nodetypes="cccccccccc"></path>
      <path sodipodi:nodetypes="ccccc" id="path1388" d="m 1260.891,804 c -45,408 -171,784 -434,1005 l 16,7 c 356.3019,-149.7591 563.9911,-490.572 641,-1006 z"></path>
      <path d="m 930.891,801 c -53.85322,318.0194 -199.60095,658.5951 -432,877 l 14,9 c 324.27963,-135.8688 548.1343,-431.7149 641,-880 z" id="path1396" sodipodi:nodetypes="ccccc"></path>
    
</svg>
