<?xml version="1.0" encoding="UTF-8" standalone="no"?>
<svg viewBox="0 0 2000 2000" version="1.1" xmlns="http://www.w3.org/2000/svg" xmlns:sodipodi="http://sodipodi.sourceforge.net/DTD/sodipodi-0.dtd">
	
      <path sodipodi:nodetypes="cccccssccsscccc" d="M 1443.69,795 H 557 V 366.23 c 39.73,10e-5 65.01,-27.67 66.81,-49.34 L 345.71,290 v 629.77 c 0,46.27159 211.3,8.23 211.3,-47.04 v -32 h 886.69 v 61.9 c 0,28.18552 211.3,11.05846 211.3,-58.04 V 354.82 c 39.73,1e-4 65.01,-25.67 66.81,-47.34 l -278.1,-28.89 z" id="path2617"></path>
      <path id="path2625" d="m 1551.5874,1047 -95.1,91.71 H 558.96505 l -231.3,-56.07 v 638.98 c 0,48.24 203.62106,21.8193 203.3,-55.04 V 1187.8 h 936.02235 v 347.98 c 0,21.03 -15.21,27.48 -23.71,26.31 l -174,-18.54 -0.713,22.75 c 88.2,25.13 156.4356,106.28 173.8,211.3 187.5,-14.02 227.8,-101.6 227.8,-243.6 v -321.48 c 33.56,0 78.32,-28.04 78.32,-42.05 z" sodipodi:nodetypes="ccccssccsccccsccc"></path>
      <path id="path2627" d="m 898,1931.3 c 0,36.98 203.3,15.05 203.3,-58.04 V 146.65 c 39.73,1e-4 65.01,-21.67 66.81,-43.34 L 898.01,74.42 Z" sodipodi:nodetypes="cscccc"></path>
    
</svg>
