<?xml version="1.0" encoding="UTF-8" standalone="no"?>
<svg viewBox="0 0 2000 2000" version="1.1" xmlns="http://www.w3.org/2000/svg" xmlns:sodipodi="http://sodipodi.sourceforge.net/DTD/sodipodi-0.dtd">
	
      <path sodipodi:nodetypes="ccccssccsscccccccc" id="path1916" d="m 1662.58,178.18 -95.1,91.71 H 465.68 l -231.3,-56.07 v 1667.42 c 0,38.25 203.3,27.01 203.3,-35.04 v -20 h 1140.4 v 56.02 c 0,28.04 203.3,10.03 203.3,-46.04 V 343.76 c 33.56,0 78.32,-28.04 78.32,-42.05 z M 1578,1785 H 437.6 V 318.88 H 1578 Z"></path>
      <path id="path1922" d="M 1570,1496 C 1351,1418 1096.15,1185.6132 1096.15,813.53 L 1028.2,1013 c 8,302 166.8,581 289.95,663.97 C 1349,1614 1440,1543 1561.35,1522.07 Z" sodipodi:nodetypes="cccccc"></path>
      <path id="path1925" d="M 886.65,488.33 887.2,789 C 887.83493,1136.0978 778,1450 466,1653 l 23,14 c 419,-109 607.15,-482.0193 607.15,-853.47 V 572.51 c 42.02,0 74.66,-33.68 74.68,-51.51 z" sodipodi:nodetypes="csccsccc"></path>
      <path id="path1927" d="M 563.4927,1022 H 1462.63 c 16.85,0 27.23,-11.08 27.23,-16.26 L 1297,849 1196.56,974.94 545.4127,974.99 Z" sodipodi:nodetypes="csccccc"></path>
      <path sodipodi:nodetypes="ccscc" id="path1936" d="M 532.725,561.7 C 575.88913,623.03841 643.57277,772.1431 682,903 785,963 879,868 837,757 794.34169,644.26017 655,584 543.425,553.1 Z"></path>
      <path sodipodi:nodetypes="cccccc" id="path1952" d="m 1252.1419,528.80786 c -42.1554,147.72352 -78.1546,260.00362 -130.4686,389.87808 l 17.979,3.12352 c 83.8747,-38.57203 226.1953,-157.10583 310.2224,-258.85702 24.7242,-0.2229 46.2158,-5.38042 55.1253,-18.641 z"></path>
    
</svg>
