<?xml version="1.0" encoding="UTF-8" standalone="no"?>
<svg viewBox="0 0 2000 2000" version="1.1" xmlns="http://www.w3.org/2000/svg" xmlns:sodipodi="http://sodipodi.sourceforge.net/DTD/sodipodi-0.dtd">
	
      <path d="M 1989,1678 C 1734.5,1470.3 1589.5,957.2 1595.7,316 l -68.76,245.9 c 4.8,704.7 112.6,1205 250.9,1350 31.62,-107.4 90.99,-187.1 207.1,-210.2 z" id="path1154"></path>
      <path d="m 994.9,1878 18.08,13.73 c 369.1,-184 588.2,-609 588.2,-1588 42.02,0 70.66,-30.56 70.66,-45.84 l -292.2,-30.56 c 0,848.1 -75.6,1362 -384.8,1651 z" id="path1160"></path>
      <path d="m 1034,968.7 c 47.21,52.88 126.5,210.2 149.4,357.2 86.19,45.82 195.9,13.41 179.1,-133 C 1346.09,1050.6 1166.9,973 1046.3,959 Z" id="path1221"></path>
      <path d="m 956.2,227.6 c -0.3394,790.5 -71.4,1330 -367.5,1645 l 24.33,13.73 c 377,-197.5 549.7,-679.9 560.7,-1582 34.86,0.3381 67.16,-24.75 70.67,-45.84 z" id="path1223"></path>
      <path d="m 108,353.2 c 188.1,108.6 372.5,304 516.5,494.5 147.3,48.74 243.3,-112.3 109.3,-237 C 568.9,457.1 354.6,382.5 124.2,336.9 Z" id="path1225"></path>
      <path d="m 23.63,968.5 19.77,13.29 c 307.2,-121 531.5,-374.1 730.7,-673.1 22.37,2.02 61.53,-6.188 75.64,-36.76 l -275.1,-95.28 c -145.6,302.3 -314.7,564.5 -551.1,791.9 z" id="path1227"></path>
      <path d="m 366.7,908.2 v 709.3 c 0,21.03 -23.4,40.43 -23.71,26.31 l -133.4,-16.97 0.819,26.75 c 80.46,37.63 145.6,104.6 152,205.7 170.5,-14.02 203.5,-101.6 203.5,-243.6 v -637.5 c 38.55,10e-5 63.08,-21.03 64.83,-42.05 z" id="path1231"></path>
      <path d="M 133.4,1060 C 95.54,1282.6 62.94,1443.8 5.8,1645 l 28.61,9.01 c 101,-100.1 222.1,-315.9 297.2,-502.1 19.39,15.52 50.39,-16.27 56.94,-30.84 z" id="path1235"></path>
      <path d="m 531.9,1115 c 47.21,52.88 126.5,210.2 149.4,357.2 86.19,45.82 195.9,13.41 179.1,-133 -16.41,-142.3 -195.6,-219.9 -316.2,-233.9 z" id="path1237"></path>
    
</svg>
