<?xml version="1.0" encoding="UTF-8" standalone="no"?>
<svg viewBox="0 0 2000 2000" version="1.1" xmlns="http://www.w3.org/2000/svg" xmlns:sodipodi="http://sodipodi.sourceforge.net/DTD/sodipodi-0.dtd">
	
      <path sodipodi:nodetypes="cccccc" d="M 1965,1768 C 1710.5,1560.3 1565.5,1029.2 1571.7,388 l -68.76,245.9 c 4.8,704.7 112.6,1205 250.9,1350 47.8737,-112.5343 116.16,-159.9 207.1,-192.2 z" id="path1135"></path>
      <path d="m 990,1040.7 c 47.21,52.88 126.5,210.2 149.4,357.2 86.19,45.82 195.9,13.41 179.1,-133 C 1302.09,1122.6 1122.9,1045 1002.3,1031 Z" id="path1137"></path>
      <path d="m 475.2,1040.7 c 48.56,52.88 130.1,210.2 153.7,357.2 88.64,45.82 201.5,13.41 184.1,-133 C 796.13,1122.6 611.8,1045 487.9,1031 Z" id="path1149"></path>
      <path d="m 43.47,902.8 13.08,49.01 h 828.3 c 16.86,0 27.23,-11.08 27.23,-16.26 l -169.2,-155.3 -108.1,122.5 z" id="path1151" sodipodi:nodetypes="ccscccc"></path>
      <path d="m 89.47,462.3 c 62.88,91.58 108.6,197.9 137.8,316.2 79.56,70.72 206,-11.29 154.6,-138.7 -44.6,-110.4 -160.6,-155.4 -281.2,-181.2 z" id="path1174"></path>
      <path sodipodi:nodetypes="cccccc" d="M 672.5,417.4 C 634.64,563.9 602.04,670 544.9,802.4 l 28.61,-3.49 C 674.51,743.12 798.9,624.8 874,521 c 19,5 45.56,-6.0841 52.11,-20.66 z" id="path939-7"></path>
      <path sodipodi:nodetypes="cccccc" d="m 1356,299.6 c 0,848.1 -75.6,1364 -384.8,1653 l 18.08,13.73 c 369.1,-184 588.2,-611 588.2,-1590 42.02,0 70.66,-30.56 70.66,-45.84 z" id="path1219"></path>
      <path d="m 910.2,299.6 c 0,931.4 -99.2,1339.4 -367.5,1651 l 24.33,7.73 c 342.97,-182.33 557.7,-679.9 568.7,-1582 34.86,0.3381 67.16,-24.75 70.67,-45.84 z" id="path1217" sodipodi:nodetypes="cccccc"></path>
      <path d="M 380.8,299.6 C 367,1159 265,1672 30.5,1984.6 L 49,1989 c 307,-191 521.85432,-713 545.28,-1612.67 27.71,0.6762 63.66,-18.94 70.66,-45.84 z" id="path1176" sodipodi:nodetypes="cccccc"></path>
    
</svg>
