<?xml version="1.0" encoding="UTF-8" standalone="no"?>
<svg viewBox="0 0 2000 2000" version="1.1" xmlns="http://www.w3.org/2000/svg" xmlns:sodipodi="http://sodipodi.sourceforge.net/DTD/sodipodi-0.dtd">
	
      <path id="path1700" d="M 1193,889.6 H 802.4 V 211.7 c 39.73,1e-4 65.01,-21.67 66.81,-43.34 l -270.1,-28.89 v 850.4 c 0,38.25 203.3,0.3573 203.3,-47.04 v -12 h 390.6 v 65.9 c 0,28.04 203.3,-1.972 203.3,-58.04 v -727 c 39.73,1e-4 65.01,-21.67 66.81,-43.34 l -270.1,-28.89 z" sodipodi:nodetypes="cccccssccsscccc"></path>
      <path sodipodi:nodetypes="ccscccc" id="path1702" d="m 146.48,445.2 13.08,49.01 h 1683 c 16.86,0 27.23,-11.08 27.23,-16.26 l -198.2,-177.3 -119.1,144.6 z"></path>
      <path d="M 1233,1804.1747 H 762.4 v -649.9 c 39.73,10e-5 65.01,-21.67 66.81,-43.34 l -270.1,-28.89 v 822.4 c 0,38.25 203.3,0.3573 203.3,-47.04 v -12 h 470.6 v 65.9 c 0,28.04 203.3,-1.972 203.3,-58.04 v -699 c 39.73,10e-5 65.01,-21.67 66.81,-43.34 l -270.1,-28.89 z" id="path1712" sodipodi:nodetypes="cccccssccsscccc"></path>
      <path d="m 86.48,1359.7747 13.08,49.01 h 1803 c 16.86,0 27.23,-11.08 27.23,-16.26 l -198.2,-177.3 -119.1,144.6 z" id="path1714" sodipodi:nodetypes="ccscccc"></path>
    
</svg>
