<?xml version="1.0" encoding="UTF-8" standalone="no"?>
<svg viewBox="0 0 2000 2000" version="1.1" xmlns="http://www.w3.org/2000/svg" xmlns:sodipodi="http://sodipodi.sourceforge.net/DTD/sodipodi-0.dtd">
	
      <path sodipodi:nodetypes="cccccssccsscccc" d="M 1718.88,1173.18 H 1254.19 V 670.41 c 39.73,1e-4 65.01,-27.67 66.81,-49.34 l -278.1,-26.89 v 697.77 c 0,44.1441 211.3,7.05 211.3,-47.04 v -26 h 464.69 v 75.9 c 0,32.1293 211.3,16.3428 211.3,-58.04 V 657 c 39.73,10e-5 65.01,-25.67 66.81,-47.34 l -278.1,-28.89 z" id="path3146"></path>
      <path sodipodi:nodetypes="cssccc" id="path3150" d="m 1388.19,160.48 v 1768 c 0,67.36 203.2,15.23 203.2,-49.48 V 231 c 38.55,6e-5 59.08,-21.03 60.83,-42.05 z"></path>
      <path id="path3157" d="M 736.68,1173.18 H 291.99 V 674.41 c 39.73,1e-4 65.01,-27.67 66.81,-49.34 L 80.7,598.18 v 699.77 c 0,44.1441 211.3,7.0499 211.3,-47.04 v -32 h 444.69 v 61.9 c 0,32.1293 211.3,16.3428 211.3,-58.04 V 659 c 39.73,10e-5 65.01,-25.67 66.81,-47.34 L 736.7,582.77 Z" sodipodi:nodetypes="cccccssccsscccc"></path>
      <path id="path3159" d="M 423.4101,205.77 V 1151 c 0,330.089 -104.4201,614.5435 -348.7101,805.77 l 22,13 C 389.99,1853.9693 626.6102,1612 626.6102,1178 V 276.29 c 38.55,10e-5 63.08,-21.03 64.83,-42.05 z" sodipodi:nodetypes="csccsccc"></path>
    
</svg>
