<?xml version="1.0" encoding="UTF-8" standalone="no"?>
<svg viewBox="0 0 2000 2000" version="1.1" xmlns="http://www.w3.org/2000/svg" xmlns:sodipodi="http://sodipodi.sourceforge.net/DTD/sodipodi-0.dtd">
	
      <path sodipodi:nodetypes="csccsccc" id="path2534" d="M 696,126.24 V 362 c 0,472 -138,732 -543,949 l 30,15 C 685,1184 895.2001,916.36198 895.2001,398 V 196.76 c 38.55,0 63.08,-21.03 64.83,-42.05 z"></path>
      <path sodipodi:nodetypes="cccssscccsssc" id="path2536" d="m 1828,784.24 27,8 -7.5164,238.76 c 70,81 6,184 -63,184 h -481 c -163,0 -206,-145 -206,-285 V 106.24 l 264.0301,28.47 c -1.75,21.02 -26.28,42.05 -64.83,42.05 V 921 c 0,54.7706 31,98 91,98 h 318.7999 c 51.2822,0 95.8753,-93.3852 121.5164,-234.76 z"></path>
      <path sodipodi:nodetypes="cccccc" id="path2538" d="M 200.1751,587.90834 332,861.0651 C 352.26071,855.2858 367.365,826.6143 364.42702,799 l 482.12569,-370.7706 1.46079,-24.2337 z"></path>
      <path id="path2540" d="m 1223.3205,466 c 123.47,56.53333 299.6115,210.99048 397.6795,318 143,25.35548 214,-153.09302 81,-231 -113.6629,-66.57997 -292.3283,-94.68085 -465.6795,-100 z" sodipodi:nodetypes="ccscc"></path>
      <path sodipodi:nodetypes="cccccccccc" d="m 1008,1787.8395 c 228.5496,-82.1131 437.5741,-263.7771 556.78,-409.3195 29.9341,1.3363 62.98,-24.53 64.1,-30.82 l -222.9,-148.7 -120.1,115.5 H 455 l 15.42,48.84 H 1287 c -63.1653,126.491 -174.2773,278.9233 -311,379.4995 z" id="path2548"></path>
      <path sodipodi:nodetypes="ccscc" d="M 692.8041,1562.9202 C 784,1638.0005 932,1829.0005 1009,1975.634 c 88,48.3665 218,-35.6335 148,-169.6335 -62.3288,-119.3152 -229,-194 -451.1959,-256.0803 z" id="path2550"></path>
    
</svg>
