<?xml version="1.0" encoding="UTF-8" standalone="no"?>
<svg viewBox="0 0 2000 2000" version="1.1" xmlns="http://www.w3.org/2000/svg" xmlns:sodipodi="http://sodipodi.sourceforge.net/DTD/sodipodi-0.dtd">
	
      <path id="path1374" d="m 1329,1426 c 63,107 142,301 185,498 85,48 233,-7 200,-160 -32,-148 -193,-281 -372,-351 z" sodipodi:nodetypes="ccscc"></path>
      <path sodipodi:nodetypes="cccccc" d="M 900,159 C 774,447 429,860 25,1138 l 22,16 c 429,-154 827,-467 1067,-834 39,6 67,-10 78,-35 z" id="path1381"></path>
      <path sodipodi:nodetypes="cccccc" d="M 1987,966 C 1476,795 1228,480 1065,275 l -49,33 c 132,281 444,742 715,845 47,-92 149,-148 247,-161 z" id="path1383"></path>
      <path sodipodi:nodetypes="cccccc" d="m 536,1704 c 212,-166 379,-358 518,-558 34,2 68,-18 75,-47 l -346,-77 c -31,128 -154,420 -298,668 z" id="path1376"></path>
      <path sodipodi:nodetypes="cccccc" d="m 231,1650 99,299 c 21,-3 39,-36 39,-58 436,-77 809,-160 1192,-242 l 3,-31 c -420,21 -874,28 -1333,32 z" id="path1372"></path>
    
</svg>
