<?xml version="1.0" encoding="UTF-8" standalone="no"?>
<svg viewBox="0 0 2000 2000" version="1.1" xmlns="http://www.w3.org/2000/svg" xmlns:sodipodi="http://sodipodi.sourceforge.net/DTD/sodipodi-0.dtd">
	
      <path d="m 213.69,1087.05 13.08,49.01 H 670.375 L 669,1087 Z" id="path3876" sodipodi:nodetypes="ccccc"></path>
      <path id="path3881" d="m 1734,353 -123,146.34 -828.4802,-0.05 13.0801,49.012 h 1095.9627 c 16.86,0 27.2305,-11.082 27.2305,-16.262 z" sodipodi:nodetypes="ccccscc"></path>
      <path sodipodi:nodetypes="cccccc" d="M 1885.65,1702.49 C 1669,1630.56 1398.8508,1244.56 1400.22,987.56 l -86.22,116 c 29.8409,273.6224 167,673.44 319.8,779.9 33.2,-47.9 111,-139 243.2,-154.9 z" id="path3883"></path>
      <path sodipodi:nodetypes="ccscccc" d="m 812,1083.55 13.08,49.01 h 986.99 c 16.86,0 27.23,-11.08 27.23,-16.26 L 1670.1,961 1562,1083.5 Z" id="path3885"></path>
      <path sodipodi:nodetypes="ccscc" d="m 871.49,728.06 c 56.816,91.58 98.126,197.9 124.51,316.2 71.887,70.72 202.63,-9.057 159,-138.7 -35,-104 -155.523,-155.4 -272.31,-181.2 z" id="path3887"></path>
      <path sodipodi:nodetypes="cccccc" d="m 1522.48,700.86 c -33.442,140.5 -60.733,241.6 -104.48,365.7 l 18,0.161 c 88.196,-42.54 209.304,-158.74 281.39,-252.24 14.902,11.04 44.27,-3.295 52.61,-16.921 z" id="path3889"></path>
      <path sodipodi:nodetypes="cccsccsc" d="m 1400.22,687.28 c 28.695,0.3973 63.66,-20.94 70.66,-47.84 l -278.19,-30.48 v 308.5995 c 0,271.3472 -77.364,733.5059 -444.69,962.0005 l 19,10 c 468.3209,-138.5959 633.22,-627.0484 633.22,-855 z" id="path3891"></path>
      <path sodipodi:nodetypes="ccscc" id="path3893" d="m 1089.7,158.2 c 38.8396,46.48 111.199,181.9 156.3,304.4 96,31.4 207.8757,-19.64091 165,-133.6 -38,-101 -187,-164.96239 -310.6,-179.4 z"></path>
      <path sodipodi:nodetypes="ccccssccsscccccccc" d="m 592.58,474.50001 -95.1,91.71 h -119.9 l -231.3,-56.07 V 1766.24 c 0,47.3058 203.3,27.5859 203.3,-39.04 v -48 h 158.4 v 53.9 c 0,39.12 203.3,18.5 203.3,-50.04 V 640.06001 c 33.56,0 78.32,-28.04 78.32,-42.05 z M 508,1632 H 349.6 V 615.20001 H 508 Z" id="path3249-0"></path>
    
</svg>
