<?xml version="1.0" encoding="UTF-8" standalone="no"?>
<svg viewBox="0 0 2000 2000" version="1.1" xmlns="http://www.w3.org/2000/svg" xmlns:sodipodi="http://sodipodi.sourceforge.net/DTD/sodipodi-0.dtd">
	
      <path d="m 1458.5,155.1 -95.1,91.71 H 653.7 L 422.4,190.74 v 836.1 c 0,38.25 203.3,17.82 203.3,-35.04 v -30 H 1374 v 61.9 c 0,30.4131 203.3,12.4041 203.3,-46.04 v -657 c 33.56,0 78.32,-28.04 78.32,-42.05 z M 625.7,295.9 H 1374 V 567 H 625.7 Z m 0,322.3 H 1374 V 910.7 H 625.7 Z" id="path2652" sodipodi:nodetypes="ccccssccssccccccccccccc"></path>
      <path sodipodi:nodetypes="ccccssccssccccccccccccc" id="path2661" d="m 1558.5,1057.1 -95.1,91.71 H 553.7 l -231.3,-56.07 v 836.1 c 0,38.25 203.3,17.82 203.3,-35.04 v -30 H 1474 v 61.9 c 0,30.4131 203.3,12.4041 203.3,-46.04 v -657 c 33.56,0 78.32,-28.04 78.32,-42.05 z M 525.7,1197.9 H 1474 V 1469 H 525.7 Z m 0,322.3 H 1474 v 292.5 H 525.7 Z"></path>
    
</svg>
