<?xml version="1.0" encoding="UTF-8" standalone="no"?>
<svg viewBox="0 0 2000 2000" version="1.1" xmlns="http://www.w3.org/2000/svg" xmlns:sodipodi="http://sodipodi.sourceforge.net/DTD/sodipodi-0.dtd">
	
      <path id="path3938" d="m 1694.7851,1252.41 h -514.69 l 4.29,-412.36 c 39.73,0 65.01,-33.67 66.81,-55.34 l -284.09997,-20.89 -4.29,613.36 c -0.26752,38.2487 219.72397,-8.2557 217.29997,-47.04 v -32 h 514.69 v 61.9 c 0,28.04 214.794,-1.9738 215.3,-58.04 l 4.29,-475.36 c 39.73,0 65.01,-25.67 66.81,-47.34 l -282.1,-28.89 z" sodipodi:nodetypes="cccccssccsscccc"></path>
      <path id="path3940" d="m 1347.5152,570 v 685 c 0,282.131 -86.4201,525.258 -330.7101,688.702 l 22,12.298 c 293.29,-95.33 507.9102,-301 507.9102,-651.807 V 640.52 c 38.55,0 63.08,-21.03 64.83,-42.05 z" sodipodi:nodetypes="csccsccc"></path>
      <path sodipodi:nodetypes="ccscccc" d="m 1089,411.55 13.08,47.01 h 864.89 c 16.86,0 27.23,-11.08 27.23,-16.26 L 1796,265 1676.9,411.6 Z" id="path3942"></path>
      <path sodipodi:nodetypes="cccccc" d="m 848,803 c 138.10548,-90.04215 326.5758,-334.012 446.665,-581.25 30.335,-0.75 59.7,-19.92 64.78,-38.99 L 1038.945,112 C 1013.5555,249.5386 936.54871,557.51121 829,803 Z" id="path3948"></path>
      <path sodipodi:nodetypes="ccscccc" d="M 143.72,989.99 156.8,1039 H 828 c 16.86,0 27.23,-11.08 27.23,-16.26 l -191.1,-172.8 -119,140.1 z" id="path3961"></path>
      <path sodipodi:nodetypes="cccccc" d="m 11.74,1358.26 89.26,287.9 c 20.77,-3.536 38.89841,-29.8988 39,-58.16 l 772.74,-300.74 6,-28 z" id="path3963"></path>
      <path id="path3965" d="m 88.59,630.95 13.08,49.01 h 759.2 c 16.86,0 27.23,-11.08 27.23,-16.26 L 697,490.9 578,631 Z" sodipodi:nodetypes="ccscccc"></path>
      <path id="path3973" d="m 379.8,170.77 v 1767.71 c 0,67.36 199.2,15.23 199.2,-49.48 V 241.29 c 38.55,1e-4 63.08,-21.03 64.83,-42.05 z" sodipodi:nodetypes="cssccc"></path>
    
</svg>
