<?xml version="1.0" encoding="UTF-8" standalone="no"?>
<svg viewBox="0 0 2000 2000" version="1.1" xmlns="http://www.w3.org/2000/svg" xmlns:sodipodi="http://sodipodi.sourceforge.net/DTD/sodipodi-0.dtd">
	
      <path id="path1710" d="M 493.4078,1105.5954 C 552.35977,1175.8264 651.34954,1384.7663 680,1580 c 107.60919,60.8545 234.48204,11.5897 184,-164 -46,-160 -214.63461,-302.7405 -357.8922,-320.1046 z" sodipodi:nodetypes="ccscc"></path>
      <path sodipodi:nodetypes="ccscccc" id="path1713" d="m 63.47,920.8 13.08,49.01 h 852.3 c 16.86,0 27.23,-11.08 27.23,-16.26 l -169.2,-155.3 -108.1,122.5 z"></path>
      <path id="path1715" d="m 84.839522,480.5 c 57.221708,91.58 98.827578,197.9 125.399998,316.2 72.40075,70.72 211.25197,12.27409 153,-122.7 -41,-95 -152.60427,-169.12185 -267.199998,-197.2 z" sodipodi:nodetypes="ccscc"></path>
      <path id="path1717" d="M 699.6,447.5 C 661.74,594 629.14,700.1 572,832.5 l 28.61,-3.49 c 101,-55.79 228.3,-180.5 303.4,-284.3 C 927,546 949.45,536.5759 956,522 Z" sodipodi:nodetypes="cccccc"></path>
      <path id="path1723" d="m 404.8,317.6 c -0.6788,732.9 -87.19,1311 -370.3,1651 l 16.58,7.73 c 384.8,-211.1 545.2,-756.9 567.2,-1582 27.71,0.6762 63.66,-18.94 70.66,-45.84 z" sodipodi:nodetypes="cccccc"></path>
      <path id="path1740" d="M 939.94,341.99 953.02,391 H 1919 c 13.32,0 21.52,-11.08 21.52,-16.26 L 1749,202 1635.42,342.04 Z" sodipodi:nodetypes="ccscccc"></path>
      <path d="m 1627.423,470 -95.1,91.71 H 1318.3 L 1087,505.64 V 915 c 0,522.5397 -38.5,806 -266,1011.62 l 23,3.38 c 347.9975,-152 445.6693,-448 445.977,-873 l 0.323,-446.2 h 252.523 v 1067.98 c 0,21.03 -15.1582,27.0071 -23.71,26.31 L 1334,1690 l -0.713,26.75 C 1421.487,1741.88 1498,1786 1518.2,1924.6 1705.7,1910.58 1746,1823 1746,1681 V 635.52 c 33.56,0 78.32,-28.04 78.32,-42.05 z" id="path1743" sodipodi:nodetypes="ccccsccsccsscccsccc"></path>
      <path sodipodi:nodetypes="ccscccc" d="m 881.92,1007.95 13.08,49.01 h 1079 c 13.32,0 21.52,-11.08 21.52,-16.26 L 1829.9035,882.1 1728,1008 Z" id="path1745"></path>
    
</svg>
