<?xml version="1.0" encoding="UTF-8" standalone="no"?>
<svg viewBox="0 0 2000 2000" version="1.1" xmlns="http://www.w3.org/2000/svg" xmlns:sodipodi="http://sodipodi.sourceforge.net/DTD/sodipodi-0.dtd">
	
      <path id="path2206" d="M 328.13866,420.50765 H 1378.649 C 1360,839 1319,1224 1259.849,1618.4377 c -2.2148,14.7689 -18.4753,18.5342 -27.96,17.87 l -215.5,-13.69 2.211,28.14 c 111.4,39.94 198.3,135.1 197.2,216.9 98.42,8.252 236.7885,-36.3544 259.8,-197 C 1536,1249 1572,932 1595,431.12765 c 18.7,-2.854 38.84,-18.07 46.94,-34.49 l -185.4,-131.2 -108.8,106.7 H 315.49163 Z" sodipodi:nodetypes="ccsscccscccccc"></path>
      <path d="M 716,416 C 674.04377,1047 503.19988,1579.8889 145.6,1849 l 19,10 C 623.39284,1696.0765 890.50888,1238.4485 951,410 Z" id="path2208" sodipodi:nodetypes="ccccc"></path>
      <path d="M 1977.21,1243.58 C 1146.7133,1189.242 506.79,865.42 203,606 l -19,50 c 360,375 842,679 1550,787 48,-77 150,-142 232.8,-169.8 z" id="path2215" sodipodi:nodetypes="cccccc"></path>
    
</svg>
