<?xml version="1.0" encoding="UTF-8" standalone="no"?>
<svg viewBox="0 0 2000 2000" version="1.1" xmlns="http://www.w3.org/2000/svg" xmlns:sodipodi="http://sodipodi.sourceforge.net/DTD/sodipodi-0.dtd">
	
      <path id="path1803" d="m 485.52,1148.06 h 1050.55 c 16.85,0 27.23,-11.08 27.23,-16.26 L 1370.44,961.06 1254,1097 l -786.56,0.05 z" sodipodi:nodetypes="csccccc"></path>
      <path sodipodi:nodetypes="csccccc" d="M 330.01,421 H 1686 c 16.85,0 27.23,-11.08 27.23,-16.26 L 1520.37,234 l -116.44,135.94 -1092,0.05 z" id="path1805"></path>
      <path id="path1807" d="M 172.01,1868.06 H 1826 c 16.85,0 27.23,-11.08 27.23,-16.26 l -192.86,-170.74 -116.44,135.94 -1390,0.05 z" sodipodi:nodetypes="csccccc"></path>
      <path sodipodi:nodetypes="ccscc" id="path1816" d="m 402.9,1301.7999 c 81.24,96.8069 146.4,221.2256 202.1,363.2201 75.84,71.6083 239.46373,-7.1076 173.5,-150.798 C 726,1399.86 560,1322.1825 413.9,1296 Z"></path>
      <path sodipodi:nodetypes="cccccc" id="path1822" d="m 1357,1263.12 c -35.88,125.4 -102.3,283.2 -178.2,420.8 l 16.76,11.48 c 132,-65.51 275.4,-173.2 366.6,-280.4 15.18,1.712 45.94,-8.426 56.39,-32.53 z"></path>
      <path sodipodi:nodetypes="ccccc" d="m 894.7089,385.061 -0.01,1471.6274 203.3011,1.961 V 385.06 Z" id="path1824"></path>
      <path d="m 416.9,569.32 c 81.24,93.47 146.4,213.6 202.1,350.7 75.84,69.14 239.46373,-6.8626 173.5,-145.6 C 740,664 574,589 427.9,563.72 Z" id="path1831" sodipodi:nodetypes="ccscc"></path>
      <path d="m 1343,522.12 c -35.88,125.4 -102.3,283.2 -178.2,420.8 l 16.76,11.48 c 132,-65.51 275.4,-173.2 366.6,-280.4 15.18,1.712 45.94,-8.426 56.39,-32.53 z" id="path1833" sodipodi:nodetypes="cccccc"></path>
    
</svg>
