<?xml version="1.0" encoding="UTF-8" standalone="no"?>
<svg viewBox="0 0 2000 2000" version="1.1" xmlns="http://www.w3.org/2000/svg" xmlns:sodipodi="http://sodipodi.sourceforge.net/DTD/sodipodi-0.dtd">
	
      <path id="path1944" d="m 531,1308.4 c 81.24,100.8 165.2,238.4 207.7,388.6 83.26,75.3 244,13.94 185.3,-140.3 -60.66,-159.5 -246.6,-219.9 -382,-257 z" sodipodi:nodetypes="ccccc"></path>
      <path id="path1954" d="m 1979.65,1780.03 c -249,-98.6833 -541.9039,-370.4529 -543.7,-751.5 L 1368,1228 c 8,302 160.283,603.6247 359.8,733 24.984,-55.4864 111,-139 243.2,-154.9 z" sodipodi:nodetypes="cccccc"></path>
      <path id="path1956" d="M 1214.45,864.35 1215,1004 c 1.544,392.0016 -113,707 -396,928.35 l 23,9.65 c 396,-138 593.95,-495.3288 593.95,-913.47 v -80 c 42.02,0 70.66,-33.68 70.68,-51.51 z" sodipodi:nodetypes="csccsccc"></path>
      <path id="path1975" d="m 1004.08,1166 h 807.1373 c 16.85,0 27.23,-11.08 27.23,-16.26 L 1645.5873,993 1545.1473,1118.94 986,1118.99 Z" sodipodi:nodetypes="csccccc"></path>
      <path d="m 112.05727,1118.99 13.08,47.01 H 949.97 c 16.85,0 27.23,-11.08 27.23,-16.26 L 800.50727,999.34 702,1118.94 Z" id="path1987" sodipodi:nodetypes="ccscccc"></path>
      <path sodipodi:nodetypes="csccsccc" d="m 445.41435,869 v 80 c 0,410 -131.27051,744.3889 -412.41435,989.35 l 23,12.08 C 404.19942,1842.23 666.63935,1423 666.63935,979 v -23.145 c 42.02,0 70.66,-33.68 70.68,-51.51 z" id="path1996"></path>
      <path sodipodi:nodetypes="cccccccccc" d="M 977.22,768.32 C 1239.2223,666.84973 1462.6661,422.88951 1568,256 c 32,0 62.98,-24.53 64.1,-30.82 L 1409.2,76.48 1289.1,199.98 H 372.22 l 15.42,48.34 h 902.58 c -76.445,189.40571 -186.8621,360.62517 -326,490 z" id="path2018"></path>
      <path sodipodi:nodetypes="ccscc" d="m 701.02,549.84 c 83.4324,90.88554 188.8366,255.21773 245,423 129.8532,46.3997 243.9425,-50.4441 177,-199 -47.9801,-106.47558 -205.5809,-184.77114 -409,-237 z" id="path2020"></path>
    
</svg>
