<?xml version="1.0" encoding="UTF-8" standalone="no"?>
<svg viewBox="0 0 2000 2000" version="1.1" xmlns="http://www.w3.org/2000/svg" xmlns:sodipodi="http://sodipodi.sourceforge.net/DTD/sodipodi-0.dtd">
	
      <path sodipodi:nodetypes="ccsscccscccccc" d="M 654.49998,933.78 H 1419.5 c -30,332 -76,530 -142.8,774 -3.9434,14.4041 -18.5271,19.0614 -27.96,17.87 l -185.24,-26.87 v 28 c 99.5,41.22 154,138 159.151,230.22 98.42,8.252 208.659,-41.7122 255.8,-197 75.049,-247.22 113.049,-452.22 143.4,-815.6 18.7,-2.854 38.84,-18.07 46.94,-34.49 l -185.4,-131.2 -108.8,106.7 H 638.90128 Z" id="path1847"></path>
      <path sodipodi:nodetypes="ccccc" id="path1849" d="M 1098,913.78 C 1074.0151,1271.5684 943.59631,1635.7917 697,1843 l 27,13 c 335.5725,-124 526.6363,-445.8473 587,-936.22 z"></path>
      <path d="M 788,913.78 C 754.53176,1201.6083 625.44473,1504.6408 376,1714 l 21,10 c 310.8237,-108.732 528.55326,-388.2832 607,-804.22 z" id="path1851" sodipodi:nodetypes="ccccc"></path>
      <path sodipodi:nodetypes="cccccc" d="M 797.89356,732.9087 525.83692,705.5157 C 482,1064 373.38946,1338.4682 102.02461,1574.9722 l 18,11 C 420.53234,1483.1447 630.31392,1231.8154 731,781 c 51.40563,-8.85461 65.09356,-26.4213 66.89356,-48.0913 z" id="path1853"></path>
      <path sodipodi:nodetypes="cccccc" id="path1883" d="M 914.5,53.185 C 704,354 410,690 18,929 l 25,14 C 476,830 837.4555,512.07572 1114.16,209.515 c 39.53,5.18063 66.93,-10.08 77.38,-34.19 z"></path>
      <path sodipodi:nodetypes="cccccc" id="path1885" d="M 1989,699.58 C 1568,622 1215.5,352 1074,187 l -91,31 c 191.98,267 453,542 750.12,669 C 1773,806 1874,747 1979.92,726.2 Z"></path>
    
</svg>
