<?xml version="1.0" encoding="UTF-8" standalone="no"?>
<svg viewBox="0 0 2000 2000" version="1.1" xmlns="http://www.w3.org/2000/svg" xmlns:sodipodi="http://sodipodi.sourceforge.net/DTD/sodipodi-0.dtd">
	
      <path d="m 273,1941.5703 20,16 c 620.57873,-56.6073 1094.9544,-347.2883 1467.2598,-763 53.5764,5.269 66.9308,-10.0794 77.3808,-34.1894 L 1547,1056 c -250.8816,335.9892 -649.70818,702.8671 -1274,885.5703 z" id="path3074"></path>
      <path d="m 291.5,1387.2352 21.5,14.6199 c 529.42425,-88.8036 927.6119,-358.6941 1255.8599,-716.04995 42.7454,3.6445 64.2304,-8.1337 76.5104,-35.4747 L 1361.5,548.5 c -239.8389,319.1446 -572.11429,633.6836 -1070,838.7352 z" id="path3072"></path>
      <path d="m 310,832.9 23,13.24 c 438.26976,-121 760.2694,-370.1 1044.46,-669.1 31.9144,2.02 61.53,-6.188 75.64,-36.76 L 1176,41 C 947.2038,343.3 681.47959,605.5 310,832.9 Z" id="path3060"></path>
    
</svg>
