<?xml version="1.0" encoding="UTF-8" standalone="no"?>
<svg viewBox="0 0 2000 2000" version="1.1" xmlns="http://www.w3.org/2000/svg" xmlns:sodipodi="http://sodipodi.sourceforge.net/DTD/sodipodi-0.dtd">
	
      <path sodipodi:nodetypes="cccccsscccsccc" d="m 1503.103,919.48 -95.1,91.71 H 205.5156 l 12,49.09 H 1418.503 v 380.98 c 0,21.03 -15.1554,26.9737 -23.71,26.31 l -220.2774,-15.09 -0.713,22.75 c 88.2,25.13 182.713,89.25 220.0774,207.85 187.5,-14.02 227.8,-101.6 227.8,-243.6 V 1085 c 33.56,0 78.32,-28.04 78.32,-42.05 z" id="path3324"></path>
      <path id="path3326" d="m 885.44922,128.07031 0.49023,1801.23049 c 0.0168,61.7395 211.00975,39.3501 211.00975,-58.041 V 212.25 c 42.02,0 70.6617,-33.67977 70.6817,-51.50977 z" sodipodi:nodetypes="cssccc"></path>
      <path d="M 505,590.99023 523.08008,640 H 1639.6309 c 16.85,0 27.2285,-11.07977 27.2285,-16.25977 L 1456,440 1333,590.93945 Z" id="path3328" sodipodi:nodetypes="ccscccc"></path>
      <path id="path3330" d="m 386.267,1220.9 c 49.66,49.31 146,196.8 208.9,332.2 86.21,47.03 234.5,-30.05 152.8,-169.1 -58.77,-100 -232.1,-163.4 -350.4,-173.2 z" sodipodi:nodetypes="ccccc"></path>
      <path sodipodi:nodetypes="cccccc" d="m 255,975 c 155,-83 398,-350 518,-653.2636 29,-6.7364 60,-20 67,-49 L 537,222 C 494,398 394,725 232,973 Z" id="path3341"></path>
    
</svg>
