<?xml version="1.0" encoding="UTF-8" standalone="no"?>
<svg viewBox="0 0 2000 2000" version="1.1" xmlns="http://www.w3.org/2000/svg" xmlns:sodipodi="http://sodipodi.sourceforge.net/DTD/sodipodi-0.dtd">
	
      <path id="path3821" d="m 177.64,1336.06 h 1693.99 c 16.85,0 27.23,-11.08 27.23,-16.26 L 1706,1141.06 1589.56,1285 l -1430,0.05 z" sodipodi:nodetypes="csccccc"></path>
      <path id="path3823" d="m 890,1314 v 624.4805 c 0,67.36 219.4243,15.2291 219.1992,-49.4805 v -575 z" sodipodi:nodetypes="csscc"></path>
      <path d="M 1334,108.4297 C 1125.8479,480 748,940 181.2598,1197 l 26,12 c 525.7402,-103 999.9857,-437.86547 1340,-962 48.9296,6.64316 66.9308,-10.0794 77.3808,-34.1894 z" id="path3835" sodipodi:nodetypes="cccccc"></path>
      <path d="m 487.71,364.28 c 264.6,188.2 567.1,475.2 780.3,775.5 142.99,53.796 287.8786,-76.7569 155,-231.1 C 1196,645 830,444 504.51,348.48 Z" id="path1242-7" sodipodi:nodetypes="ccscc"></path>
    
</svg>
