<?xml version="1.0" encoding="UTF-8" standalone="no"?>
<svg viewBox="0 0 2000 2000" version="1.1" xmlns="http://www.w3.org/2000/svg" xmlns:sodipodi="http://sodipodi.sourceforge.net/DTD/sodipodi-0.dtd">
	
      <path d="m 140,1959 c 565.38204,-88.6041 1049.1821,-379.5333 1375.51,-813.47 29.5023,0 62.98,-24.53 64.1,-30.82 l -222.9,-148.7 -120.1,123.5 h -479.7 l 15.42,48.34 h 465.4 C 993.994,1476.5676 607.05602,1744.719 121,1943 Z" id="path1591" sodipodi:nodetypes="cccccccccc"></path>
      <path d="m 243.9,1496 23.61,14.68 c 271.2,-67.28 550.6,-285.1 713.4,-495.1 22.41,-1.54 60.74,-9.156 70.18,-41.92 l -294,-50.15 c -105.5,202.6 -337.2,460.6 -513.2,572.5 z" id="path1593"></path>
      <path d="M 1918,1775 C 1265.6,1658.1 894,1392 741,1244.6 l -29.76,29.39 c 128.7,195.9 493.1,554.4 951.2,688.4 48.32,-81.09 108,-140.4 246.8,-160.8 z" id="path1595"></path>
      <path d="M 1845,832.5 C 1121.7,718.13214 701,434.50839 492,266 l -16.21,19 c 186.8,219.84155 593,601.09781 1126,740.92 51.32,-87.13219 124,-141.8 234.8,-161.8 z" id="path1597" sodipodi:nodetypes="cccccc"></path>
      <path d="M 1342,163.2 C 1105.1,483 728.5,832.2 139,1006.1 l 13.26,18.27 c 593.4,-53.61 1047,-328.9 1403,-722.6 51.23,4.99 66.93,-10.08 77.38,-34.19 z" id="path1599"></path>
      <path d="m 710.6,91.2 c 58.41,52.64 150,180.6 202,292.9 C 1038.4,420.27 1137,321.03 1060,217.5 988.92,121.99 826.9,92.2 721.3,82.6 Z" id="path1601"></path>
    
</svg>
