<?xml version="1.0" encoding="UTF-8" standalone="no"?>
<svg viewBox="0 0 2000 2000" version="1.1" xmlns="http://www.w3.org/2000/svg" xmlns:sodipodi="http://sodipodi.sourceforge.net/DTD/sodipodi-0.dtd">
	
      <path sodipodi:nodetypes="cccccc" id="path2483" d="M 1847,985.58 C 1123.7,847.77733 707,519 494,303 l -16.21,35 c 187.21,261 586.21,696 1126,841 50.21,-88 124,-141.8 234.8,-161.8 z"></path>
      <path id="path2485" d="M 1344,199.2 C 1105.3277,564.11119 725.91022,962.56956 132,1161 l 22.26,14 c 593.4,-62.1144 1047,-381.07521 1403,-837.23 40.74,4.37636 66.93,-10.08 77.38,-34.19 z" sodipodi:nodetypes="cccccc"></path>
      <path id="path2487" d="m 710.6,125.2 c 58.41,52.64 150,180.6 202,292.9 C 1038.4,454.27 1137,355.03 1060,251.5 988.92,155.99 826.9,126.2 721.3,116.6 Z"></path>
      <path id="path2497" d="M 1211,1829 H 760.4 v -603.9 c 39.73,1e-4 65.01,-21.67 66.81,-43.34 l -270.1,-28.89 v 776.4 c 0,38.25 203.3,15.01 203.3,-47.04 v -12 h 450.6 v 65.9 c 0,28.04 203.3,-1.972 203.3,-58.04 v -653 c 39.73,10e-5 65.01,-21.67 66.81,-43.34 l -270.1,-28.89 z" sodipodi:nodetypes="cccccssccsscccc"></path>
      <path sodipodi:nodetypes="ccscccc" id="path2499" d="m 50.889973,1440.55 13.08,51.01 H 1922.97 c 16.86,0 27.23,-11.08 27.23,-16.26 L 1752,1298 1632.9,1440.6 Z"></path>
    
</svg>
