<?xml version="1.0" encoding="UTF-8" standalone="no"?>
<svg viewBox="0 0 2000 2000" version="1.1" xmlns="http://www.w3.org/2000/svg" xmlns:sodipodi="http://sodipodi.sourceforge.net/DTD/sodipodi-0.dtd">
	
      <path d="m 30.52,1263.55 13.08,51.01 h 1903 c 16.86,0 27.23,-11.08 27.23,-16.26 l -198.2,-189.3 -127.1,154.6 z" id="path2459" sodipodi:nodetypes="ccscccc"></path>
      <path d="m 895.1,1807.2 203.3,1.957 v -1025.3 l -203.3,0.6918 z m 560.3,-1149.1 -95.1,99.71 H 650.6 L 419.3,701.74 v 1202.1 c 0,38.25 203.3,27.0606 203.3,-35.04 v -40 h 748.3 v 73.9 c 0,28.04 203.3,10.03 203.3,-46.04 v -1025 c 33.56,0 78.32,-28.04 78.32,-42.05 z m -84.5,1119.6 H 622.6 V 806.9 h 748.3 z" id="path2461" sodipodi:nodetypes="cccccccccssccsscccccccc"></path>
      <path sodipodi:nodetypes="cccccccccc" d="m 1581,791 c 152.5948,-79.01826 262.6411,-191.67434 332.8,-351.32 27.2,0 63.2,-17.68 64.1,-30.82 L 1755,258.16 1634.9,383.66 H 326.58 L 342,432 h 1319 c -22.0441,145.13798 -57.0399,270.03847 -101,355 z" id="path2467"></path>
      <path sodipodi:nodetypes="ccscc" d="m 317.6164,283.33935 c -16.6165,134.7129 -66.2297,277.32992 -174.4405,348.2314 -82.36,85.53852 23.8437,244.13896 156.6395,181.17544 118.1737,-56.03063 149.127,-304.37948 47.3009,-539.15763 z" id="path2469"></path>
    
</svg>
