<?xml version="1.0" encoding="UTF-8" standalone="no"?>
<svg viewBox="0 0 2000 2000" version="1.1" xmlns="http://www.w3.org/2000/svg" xmlns:sodipodi="http://sodipodi.sourceforge.net/DTD/sodipodi-0.dtd">
	
      <path id="path3296" d="M 1996,1742.63 C 1783,1680 1550.5298,1458 1549.15,1111.13 l -67.95,199.47 c 8,302 152.8,564.4 341.8,657 17,-67.6 93,-178.5359 169,-198.9 z" sodipodi:nodetypes="cccccc"></path>
      <path id="path3298" d="m 1327.65,946.95 0.55,139.65 C 1329.6359,1451.177 1162,1763 865,1950 l 27,13 c 359,-88 657.15,-436 657.15,-851.87 v -80 c 42.02,0 70.66,-33.68 70.68,-51.51 z" sodipodi:nodetypes="csccsccc"></path>
      <path sodipodi:nodetypes="csccsccc" d="m 1318.2771,135.6 v 80 c 0,344.12897 -139.2347,624.79461 -442.2771,830.4 l 21,13 c 342.4814,-84.65163 660.502,-440.58341 660.502,-811.4744 V 222.455 c 42.02,0 70.66,-33.68 70.6801,-51.51 z" id="path3300"></path>
      <path sodipodi:nodetypes="ccscc" d="m 1450,544 c 87.5189,96.68675 185,276 237,450 120,52 233.0597,-48.22786 172,-187 -55,-125 -181.0406,-238.18401 -396,-305 z" id="path3302"></path>
      <path sodipodi:nodetypes="ccscccc" id="path3304" d="m 996.29,1264.55 13.08,49.01 h 953.8 c 16.86,0 27.23,-11.08 27.23,-16.26 L 1792.2,1120 1673.1,1264.6 Z"></path>
      <path sodipodi:nodetypes="ccscccc" id="path3306" d="m 1060.99,430.55 13.08,49.01 h 842 c 16.86,0 27.23,-11.08 27.23,-16.26 L 1745.1,286 1626,430.6 Z"></path>
      <path d="M 172.087,773.99 185.167,821 H 918 c 16.85,0 27.23,-11.08 27.23,-16.26 L 757.03,638 l -107,135.94 z" id="path3325" sodipodi:nodetypes="ccscccc"></path>
      <path sodipodi:nodetypes="csccsccc" d="m 435.414,249.1 -8,221 C 404.15118,1112.7353 330.23439,1574.1 17,1969.1 l 20,5 c 374.91597,-203 579.93998,-669.7619 611.639,-1443 l 8,-195.145 c 42.02,0 70.66,-33.68 70.68,-51.51 z" id="path3327"></path>
      <path id="path3333" d="m 39.03,1211.94 c 188.31559,-191.1268 274.16558,-466.30452 337,-708 21.18445,2.26677 60,-20 67,-49 l -298,-43 c -17.61851,249.71858 -57.58959,546.8521 -131,805 z" sodipodi:nodetypes="cccccc"></path>
      <path sodipodi:nodetypes="ccscc" d="m 471.11599,1049 c 79.01037,132.0309 160.66634,312.2635 202,509 83.77257,76.0045 277.07,-4.1276 197.88401,-180 -81.0105,-179.9241 -247.8584,-275.9325 -381.88401,-337.7 z" id="path2774"></path>
      <path sodipodi:nodetypes="cccccc" id="path2779" d="m 1033,1014 c -15,93 -54,328 -144,559 l 20,3 c 100,-66 251,-251 347,-482 20.8143,-1.4135 43,-18 52,-35 z"></path>
      <path d="M 1029,219 C 997.98274,404.60446 964.44181,537.79601 913,688 l 25,3 c 87.0592,-60.75873 234.7829,-231.72131 322,-392 18.8795,-1.14956 43,-18 52,-35 z" id="path2786" sodipodi:nodetypes="cccccc"></path>
    
</svg>
