<?xml version="1.0" encoding="UTF-8" standalone="no"?>
<svg viewBox="0 0 2000 2000" version="1.1" xmlns="http://www.w3.org/2000/svg" xmlns:sodipodi="http://sodipodi.sourceforge.net/DTD/sodipodi-0.dtd">
	
      <path sodipodi:nodetypes="ccscccc" d="m 67,1057 13,49 h 879 c 17,0 27,-11 27,-16 L 795,933 676,1057 Z" id="path1041"></path>
      <path sodipodi:nodetypes="cccccc" d="m 36,1644 89,288 c 21,-4 39,-30 39,-58 l 833,-273 6,-28 z" id="path1045"></path>
      <path sodipodi:nodetypes="ccscccc" id="path1054" d="m 33,804 13,49 h 941 c 17,0 27,-11 27,-16 L 823,680 704,804 Z"></path>
      <path id="path1056" d="m 81,289 13,49 h 853 c 17,0 27,-11 27,-16 L 783,165 664,289 Z" sodipodi:nodetypes="ccscccc"></path>
      <path id="path1059" d="m 531,1612 c 108.13478,-68.6982 253.14732,-226.7193 331.6,-366 25.44465,7.4962 59.7,-19.92 64.78,-38.99 l -326.5,-70.76 c -6.2592,87.2888 -43.4725,303.4795 -96.88,479.45 z" sodipodi:nodetypes="cccccc"></path>
      <path id="path1061" d="m 124,1163 c 44,76 95,217 134,397 100,46 213,-28 181,-160 -28,-115 -162,-205 -302,-250 z" sodipodi:nodetypes="ccscc"></path>
      <path sodipodi:nodetypes="cccccc" id="path1063" d="m 1477,217 c -72,680 -249,1251 -631,1646 l 18,6 c 465,-207 736,-864 835,-1569 43,0 64,-23 69,-48 z"></path>
      <path sodipodi:nodetypes="ccsscccscccccc" d="m 1022,769 h 709 c -22,322 -54,567 -117,856 -3,15 -18,19 -28,18 l -215,-22 2,28 c 111,40 188,143 187,225 99,8 215,-39 252,-197 65,-275 102,-559 121,-897 19,-3 39,-18 47,-35 L 1807,614 1698,717 h -692 z" id="path1066"></path>
      <path sodipodi:nodetypes="ccscc" d="m 1068,261 c 36,51 102,199 142,331 73,35 193,-18 159,-154 -27,-107 -185,-173 -291,-185 z" id="path1069"></path>
      <path sodipodi:nodetypes="ccscc" id="path1072" d="m 140,387 c 38,48 96,228 124,360 84,47 205,-14 166,-152 C 399,486 264,401 151,378 Z"></path>
      <path sodipodi:nodetypes="cccccc" d="m 527,779 c 109,-59 207,-179 299,-327 34,0 60,-13 67,-42 L 606,366 c -9,80 -44,260 -89,403 z" id="path1074"></path>
    
</svg>
