<?xml version="1.0" encoding="UTF-8" standalone="no"?>
<svg viewBox="0 0 2000 2000" version="1.1" xmlns="http://www.w3.org/2000/svg" xmlns:sodipodi="http://sodipodi.sourceforge.net/DTD/sodipodi-0.dtd">
	
      <path sodipodi:nodetypes="ccccc" id="path2085" d="m 545.7857,376.83213 -125,1368.16787 212,-2 L 758,378.23413 Z"></path>
      <path sodipodi:nodetypes="ccccscc" d="m 1612,202.93213 -123,146.34 -1266.5402,-0.05 13.0801,49.012 h 1534.0227 c 16.86,0 27.2305,-11.082 27.2305,-16.262 z" id="path2087"></path>
      <path sodipodi:nodetypes="cccccssscccsscccc" d="m 1375,654 -105.4844,91.7109 H 658.7857 l 14,49.0899 h 607.2299 V 1599 c 0,140 43,285 206,285 h 318.4473 c 69,0 133,-103 63,-184 l 22.6191,-245 -20,-4 c -28.3809,109 -73,237 -130,237 h -161.4473 c -60,0 -84.997,-43.2294 -85,-98 l -0.059,-770.4805 c 33.56,0 78.3204,-28.0388 78.3204,-42.0488 z" id="path2089"></path>
      <path sodipodi:nodetypes="cccccc" d="m 149.2857,1673 89.26,287.9 c 20.77,-3.536 38.8984,-29.8988 39,-58.16 l 750.74,-264.74 6,-28 z" id="path2106"></path>
      <path sodipodi:nodetypes="ccscc" d="m 724.3205,1016 c 112.74208,81.862 258.00837,258.2273 350.6795,396 118,36 203.48,-69 125,-178 -72,-100 -263.56243,-198.189 -462.6795,-231 z" id="path2117"></path>
    
</svg>
