<?xml version="1.0" encoding="UTF-8" standalone="no"?>
<svg viewBox="0 0 2000 2000" version="1.1" xmlns="http://www.w3.org/2000/svg" xmlns:sodipodi="http://sodipodi.sourceforge.net/DTD/sodipodi-0.dtd">
	
      <path sodipodi:nodetypes="cccccccccssccssccccccccccccc" id="path2314" d="m 899.1,925 203.3,1.957 v -705.3 l -203.3,0.6918 z m 600.3,-821.1 -95.1,91.71 H 614.6 L 383.3,139.54 v 882.1 c 0,38.25 203.3,27.0606 203.3,-35.04 v -40 h 828.3 v 73.9 c 0,28.04 203.3,10.03 203.3,-46.04 v -705 c 33.56,0 78.32,-28.04 78.32,-42.05 z M 586.6,244.7 h 828.3 V 549.8 H 586.6 Z m 0,356.3 h 828.3 V 895.5 H 586.6 Z"></path>
      <path sodipodi:nodetypes="csccccsccc" d="m 901.30859,1017 -0.006,709.1719 c -1.8e-4,21.03 -9.62493,27.3095 -23.71093,26.3105 l -202,-16.3203 -1.18164,22.75 c 127.3,35.07 187.90078,94.3096 202.30078,209.0996 187.5,-14.02 227.8868,-101.5996 227.8868,-243.5996 v -635.1836 c 39.73,0 65.0105,-21.6698 66.8105,-43.3398 z" id="path2321"></path>
      <path id="path2323" d="m 1246,1662.7784 c 165.242,-85.4872 357.2906,-230.1313 478.272,-357.7784 30.728,-1.4531 64.355,-16.8514 78.728,-43.4531 l -319.7121,-105.7068 c -31.7262,92.5516 -139.7629,318.169 -260.2879,500.7068 z" sodipodi:nodetypes="cccccc"></path>
      <path sodipodi:nodetypes="ccscc" d="m 240,1190.5469 c 115,123 226,283 299,442 103,59 273.1654,-43.3574 169,-187.7685 -88,-122 -266,-216 -450,-262.9315 z" id="path2326"></path>
    
</svg>
