<?xml version="1.0" encoding="UTF-8" standalone="no"?>
<svg viewBox="0 0 2000 2000" version="1.1" xmlns="http://www.w3.org/2000/svg" xmlns:sodipodi="http://sodipodi.sourceforge.net/DTD/sodipodi-0.dtd">
	
      <path sodipodi:nodetypes="ccscccc" d="m 209.65,1466.99 13.08,49.01 h 1539 c 16.86,0 27.23,-11.08 27.23,-16.26 l -198.2,-177.3 -119.1,144.6 z" id="path3232"></path>
      <path sodipodi:nodetypes="cccccc" d="M 1911.95,1807.29 C 1658,1789 1281,1679 1140.8,1505.645 l -59,-2 C 1202,1756 1439,1935 1656,1995 c 49,-67 143,-139 246.8,-160.8 z" id="path3234"></path>
      <path sodipodi:nodetypes="cccccc" d="M 1175.38,1309.06 888.18,1270 c -59.09616,207.9206 -259.59126,525.5702 -762.8,710 l 30,13 c 419.62,-35 816.89865,-272.336 958.42,-633.24 31.2,-4.76 60.3,-29.64 61.58,-50.7 z" id="path3236"></path>
      <path d="m 898,61.9 v 1158.58 c 0,67.36 203.2,15.23 203.2,-49.48 V 132.42 c 38.55,6e-5 59.08,-21.03 60.83,-42.05 z" id="path3243" sodipodi:nodetypes="cssccc"></path>
      <path sodipodi:nodetypes="ccccssccsscccccccc" id="path3245" d="m 1457,207 -95.1,91.71 H 654.1 L 422.8,242.64 v 419.6 c 0,38.25 203.3,27.0103 203.3,-35.04 v -20 h 746.4 v 56.02 c 0,28.04 203.3,10.03 203.3,-46.04 v -244.6 c 33.56,0 78.32,-28.04 78.32,-42.05 z m -84.58,351 H 626.02 V 347.7 h 746.4 z"></path>
      <path d="m 1497,687.82 -95.1,91.71 H 614.1 L 382.8,723.46 v 419.6 c 0,38.25 203.3,27.0103 203.3,-35.04 v -20 h 826.4 v 56.02 c 0,28.04 203.3,10.03 203.3,-46.04 V 853.4 c 33.56,0 78.32,-28.04 78.32,-42.05 z m -84.58,351 h -826.4 v -210.3 h 826.4 z" id="path3259" sodipodi:nodetypes="ccccssccsscccccccc"></path>
    
</svg>
