<?xml version="1.0" encoding="UTF-8" standalone="no"?>
<svg viewBox="0 0 2000 2000" version="1.1" xmlns="http://www.w3.org/2000/svg" xmlns:sodipodi="http://sodipodi.sourceforge.net/DTD/sodipodi-0.dtd">
	
      <path sodipodi:nodetypes="cscccc" d="m 1490.89,1908.88 c 0,36.98 212.1517,15.05 212.1517,-58.04 V 268.23 c 39.73,10e-5 65.01,-21.67 66.81,-43.34 L 1490.9,196 Z" id="path2261"></path>
      <path sodipodi:nodetypes="csccsccc" d="m 1124.7949,276 -0.01,725 c -0.01,459 -61.7849,724 -230,945.584 l 23,-1 C 1204,1823.7332 1336.7075,1464 1336.7852,1087 l 0.1523,-738.76953 c 39.73,10e-5 65.0106,-21.66985 66.8106,-43.33985 z" id="path2273"></path>
      <path id="path2275" d="M 1809.6964,590.698 1701,737.038 936.7267,736.988 949.8068,786 h 995.9627 c 16.86,0 27.2305,-11.082 27.2305,-16.262 z" sodipodi:nodetypes="ccccscc"></path>
      <path sodipodi:nodetypes="ccccscc" d="M 1805.0922,1025.698 1692,1172.038 896.7267,1171.988 909.8068,1221 h 1036.0029 c 18.0734,0 29.1903,-11.082 29.1903,-16.262 z" id="path2277"></path>
      <path sodipodi:nodetypes="cccccssccsscccc" d="M 568.88,1463.563 H 414.28 V 539.80299 c 39.73,10e-5 65.01,-21.67 66.81,-43.34 l -270.1,-28.89 V 1617.833 c 0,38.25 203.3,15.01 203.3,-47.04 v -58 h 154.6 v 45.9 c 0,28.04 203.3,-1.972 203.3,-58.04 V 545.79299 c 39.73,10e-5 65.01,-21.67 66.81,-43.34 l -270.1,-28.89 z" id="path2303"></path>
      <path sodipodi:nodetypes="ccscccc" d="m 23.41,871.42299 13.08,49.01 h 956.89 c 16.86,0 27.23,-11.08 27.23,-16.26 l -168.154,-161.3 -101.046,128.6 z" id="path2305"></path>
    
</svg>
