<?xml version="1.0" encoding="UTF-8" standalone="no"?>
<svg viewBox="0 0 2000 2000" version="1.1" xmlns="http://www.w3.org/2000/svg" xmlns:sodipodi="http://sodipodi.sourceforge.net/DTD/sodipodi-0.dtd">
	
      <path sodipodi:nodetypes="cccccssccsscccc" d="M 1440,759 H 563.31 l 0.29,-298.36 c 39.73,0 65.01,-33.67 66.81,-55.34 l -282.1,-20.89 -0.29,479.36 c -0.0231,38.24961 215.3,-4.18001 215.3,-47.04 v -12 h 876.69 v 41.9 c 0,28.04 215.2521,-1.97161 215.3,-58.04 l 0.29,-339.36 c 39.73,0 65.01,-25.67 66.81,-47.34 L 1440.31,373 Z" id="path1590"></path>
      <path sodipodi:nodetypes="csccsccc" d="M 904.4201,136 V 730 C 904.4201,1146.8503 705,1466.4701 300,1663 l 26,16 c 429,-111.4865 785.6202,-407 785.6202,-903 V 214 c 33.3798,-3.52 63.08,-28.51 64.83,-49.53 z" id="path1594"></path>
      <path sodipodi:nodetypes="csccccc" d="M 759.01,1617 H 1561 c 16.85,0 27.23,-11.08 27.23,-16.26 L 1397.37,1418 l -118.44,147.94 -538,0.05 z" id="path1610"></path>
      <path sodipodi:nodetypes="csccccc" d="M 184.01,1932 H 1824 c 16.85,0 27.23,-11.08 27.23,-16.26 L 1658.37,1735 l -116.44,145.94 -1376,0.05 z" id="path1618"></path>
      <path sodipodi:nodetypes="ccscc" d="M 517.80408,929.99997 C 729.33966,1029.0367 982.56931,1231.8369 1143,1402 c 152,39 263.3777,-117.0856 117,-228 C 1113.5204,1063.0084 860.2384,962.3898 537,918 Z" id="path1624"></path>
    
</svg>
