<?xml version="1.0" encoding="UTF-8" standalone="no"?>
<svg viewBox="0 0 2000 2000" version="1.1" xmlns="http://www.w3.org/2000/svg" xmlns:sodipodi="http://sodipodi.sourceforge.net/DTD/sodipodi-0.dtd">
	
      <path d="m 137,1875.05 13.08,47.01 h 1704.3827 c 16.85,0 27.23,-11.08 27.23,-16.26 L 1683,1721.4 1566.4927,1875 Z" id="path2056" sodipodi:nodetypes="ccscccc"></path>
      <path sodipodi:nodetypes="ccscccc" id="path2058" d="m 377,1493.65 13.08,47.01 h 1224.3827 c 16.85,0 27.23,-11.08 27.23,-16.26 L 1445,1338 1326.4927,1493.6 Z"></path>
      <path d="M 1229,1099.91 H 758.4 v -729.9 c 38.6,-5.0476 65.01,-21.67 66.81,-43.34 l -270.1,-28.89 v 922.4 c 0,47.858 203.3,24.5327 203.3,-47.04 v -32 h 470.6 v 45.9 c 0,42.1441 203.3,19.3758 203.3,-52.04 V 368 c 37.69,-5.0376 65.01,-21.67 66.81,-43.34 l -270.1,-28.89 z" id="path2068" sodipodi:nodetypes="cccccssccsscccc"></path>
      <path d="m 170.48,643.51 13.08,49.01 h 1639 c 16.86,0 27.23,-11.08 27.23,-16.26 l -198.2,-177.3 -119.1,144.6 z" id="path2070" sodipodi:nodetypes="ccscccc"></path>
    
</svg>
