<?xml version="1.0" encoding="UTF-8" standalone="no"?>
<svg viewBox="0 0 2000 2000" version="1.1" xmlns="http://www.w3.org/2000/svg" xmlns:sodipodi="http://sodipodi.sourceforge.net/DTD/sodipodi-0.dtd">
	
      <path sodipodi:nodetypes="cccssc" id="path2667" d="m 764.24112,497.52 c 31.28328,-6.423 55.05551,-27.38 62.99725,-47.95 L 555.5,414 359.35798,1105 c -17.76532,62.5865 208.93947,51.5294 233.36204,-30.61 z"></path>
      <path sodipodi:nodetypes="scccccccsscccs" id="path2669" d="M 1340.951,1780.61 C 1444,1557 1518,1364 1618.351,983.01 c 18.7,-2.854 38.84,-18.07 46.94,-34.49 l -185.4,-131.2 -108.8,106.7 H 553.952 l 14.647,48.37 H 1406 c -71,274.61 -158,501.61 -276.8,746 -8.3851,17.2495 -20.1717,23.1802 -35.96,21.87 L 825,1718 l 1,27 c 127,36 207,119 239.151,226.61 98.42,8.252 207.8775,-43.6124 275.8,-191 z"></path>
      <path sodipodi:nodetypes="sscccccccs" id="path2675" d="m 1238.68,730.89 c -19.5172,69.57791 216.0626,52.2557 237.2,-22.2 l 120.2,-423.4 c 27.22,0 58.5,-25.14 58.5,-31.43 l -185.7,-126.6 -104.3,101.4 H 377.28 L 392.7,277 H 1366 Z"></path>
    
</svg>
