<?xml version="1.0" encoding="UTF-8" standalone="no"?>
<svg viewBox="0 0 2000 2000" version="1.1" xmlns="http://www.w3.org/2000/svg" xmlns:sodipodi="http://sodipodi.sourceforge.net/DTD/sodipodi-0.dtd">
	
      <path id="path2334" d="m 350.9,169.8 c 70.39,93.47 138.2,213.6 186.4,350.7 89.62,90.94 283.2,-21.2 181.9,-174.7 C 648.01,238 493.2,183 361.9,164.2 Z"></path>
      <path id="path2336" d="m 1343,125.2 c -25.43,125 -79.38,284.2 -145,424.6 l 25.66,3.516 c 122.2,-62.76 272.8,-189.3 360.2,-301.8 21.42,0.4724 49.8,-10.87 59.47,-33.38 z"></path>
      <path sodipodi:nodetypes="ccscccc" id="path2338" d="m 185.9,648.3 13.08,49.01 h 1607 c 16.85,0 27.23,-11.08 27.23,-16.26 l -198.2,-177.4 -119.1,144.6 z"></path>
      <path id="path2340" d="m 753,115.2 c 57.02,59.3 126.1,209.3 160.9,357 88.88,86.53 271.3,6.453 194.4,-155.1 C 1057.74,210.8 897.4,124.7 762,107.1 Z"></path>
      <path id="path2352" d="M 1415.69,1372 H 573 l 0.29,-360.36 c 39.73,0 65.01,-33.67 66.81,-55.34 L 362,935.41 l -0.29,561.36 c -0.0198,38.2496 211.3,-4.18 211.3,-47.04 v -32 h 842.69 v 61.9 c 0,28.04 211.2614,-1.9716 211.3,-58.04 l 0.29,-421.36 c 39.73,0 65.01,-25.67 66.81,-47.34 L 1416,924 Z" sodipodi:nodetypes="cccccssccsscccc"></path>
      <path id="path2354" d="m 902.4201,797 v 510 c 0,299 -68.4201,509.404 -312.7101,648 l 20,13 C 903,1887.2955 1101.6202,1691 1101.6202,1356.193 V 867.52 c 38.55,0 63.08,-21.03 64.83,-42.05 z" sodipodi:nodetypes="csccsccc"></path>
    
</svg>
