<?xml version="1.0" encoding="UTF-8" standalone="no"?>
<svg viewBox="0 0 2000 2000" version="1.1" xmlns="http://www.w3.org/2000/svg" xmlns:sodipodi="http://sodipodi.sourceforge.net/DTD/sodipodi-0.dtd">
	
      <path sodipodi:nodetypes="ccccscc" d="m 1761,1393 -123,146.3396 -772.4081,-0.051 13.0801,49.0117 1039.8906,2e-4 c 16.86,0 27.2305,-11.0817 27.2305,-16.2617 z" id="path1755"></path>
      <path sodipodi:nodetypes="cccccssccsscccc" d="M 578.88,1626 H 394.28 V 435.23 c 39.73,10e-5 65.01,-21.67 66.81,-43.34 L 190.99,363 v 1407.27 c 0,38.25 203.3,15.01 203.3,-47.04 v -48 h 184.6 v 45.9 c 0,37.1829 203.3,15.9746 203.3,-58.04 V 441.22 c 39.73,10e-5 65.01,-21.67 66.81,-43.34 L 578.9,368.99 Z" id="path1767"></path>
      <path sodipodi:nodetypes="ccscccc" d="m 23.41,859.42299 13.08,49.01 h 986.89 c 16.86,0 27.23,-11.08 27.23,-16.26 l -168.154,-161.3 -101.046,128.6 z" id="path1769"></path>
      <path id="path1773" d="M 1675,493.6604 1552,640 948.9199,639.949 962,688.9607 l 870.5626,2e-4 c 16.86,0 27.2305,-11.0817 27.2305,-16.2617 z" sodipodi:nodetypes="ccccscc"></path>
    
</svg>
