<?xml version="1.0" encoding="UTF-8" standalone="no"?>
<svg viewBox="0 0 2000 2000" version="1.1" xmlns="http://www.w3.org/2000/svg" xmlns:sodipodi="http://sodipodi.sourceforge.net/DTD/sodipodi-0.dtd">
	
      <path id="path1900" d="m 614.89,1908.88 c 0,36.98 212.15168,15.05 212.15168,-58.04 V 268.23 c 39.73,10e-5 65.01,-21.67 66.81,-43.34 L 614.9,196 Z" sodipodi:nodetypes="cscccc"></path>
      <path d="m 1653.423,222 -95.1,91.71 H 1384.3 L 1153,257.64 V 913 c 0,522.5397 -33,806 -228,1011.62 l 25.977,3.38 c 316.023,-152 404.7714,-382.9999 405,-873 l 0.323,-692.2 h 212.523 v 1325.98 c 0,21.03 -15.185,27.2813 -23.71,26.31 L 1360,1692 l -0.713,26.75 C 1447.487,1743.88 1524,1796 1544.2,1934.6 1731.7,1920.58 1772,1833 1772,1691 V 387.52 c 33.56,0 78.32,-28.04 78.32,-42.05 z" id="path1904" sodipodi:nodetypes="ccccsccsccsscccsccc"></path>
      <path sodipodi:nodetypes="ccscccc" d="M 955.92,859.95 969,908.96 h 999 c 13.32,0 21.52,-11.08 21.52,-16.26 L 1841.2377,734.1 1750,860 Z" id="path1906"></path>
      <path id="path1919" d="m 268.79492,276 -0.01,725 C 268.77859,1460 207,1725 38.784916,1946.584 l 23,-1 C 348,1823.7332 480.70742,1464 480.78516,1087 l 0.15234,-738.76953 c 39.73,10e-5 65.01055,-21.66985 66.81055,-43.33985 z" sodipodi:nodetypes="csccsccc"></path>
      <path sodipodi:nodetypes="ccccscc" d="M 913.69639,556.698 805,703.038 80.7267,702.988 93.8068,752 h 955.9627 c 16.86,0 27.2305,-11.082 27.2305,-16.262 z" id="path1921"></path>
      <path id="path1928" d="M 909.0922,965.698 796,1112.038 60.7267,1111.988 73.8068,1161 h 976.0029 c 18.0734,0 29.1903,-11.082 29.1903,-16.262 z" sodipodi:nodetypes="ccccscc"></path>
    
</svg>
