<?xml version="1.0" encoding="UTF-8" standalone="no"?>
<svg viewBox="0 0 2000 2000" version="1.1" xmlns="http://www.w3.org/2000/svg" xmlns:sodipodi="http://sodipodi.sourceforge.net/DTD/sodipodi-0.dtd">
	
      <path d="m 330.3,987.3 c 50.04,35.44 127.6,145.1 174.8,268.4 96.55,30.3 184.9,-47.14 147.7,-141.2 -37.15,-93.75 -203,-131.8 -310.2,-136.8 z" id="path1233"></path>
      <path d="M 1990,1699 C 1773.9,1491.3 1650.8,978.2 1656.1,337 l -68.76,245.9 c 4.023,704.7 96.22,1190 210.3,1342 C 1827,1829 1907,1743 1986.14,1722.7 Z" id="path1307" sodipodi:nodetypes="cccccc"></path>
      <path d="M 541.5,665.7 C 604.72,714 710.8,857.7 741.6,992 857,1033.85 972.6,960.44 923.5,844.6 876.07,732.6 691.6,667.8 554.2,656 Z" id="path1311"></path>
      <path d="m 138.6,592.6 13.08,49.01 h 886.5 c 16.86,0 27.23,-11.08 27.23,-16.26 l -169.2,-155.3 -108.1,122.5 z" id="path1313" sodipodi:nodetypes="ccscccc"></path>
      <path d="m 176.7,227.3 c 62.88,91.58 108.6,197.9 137.8,316.2 79.56,70.72 206,-11.29 154.6,-138.7 C 424.5,294.4 308.5,249.4 187.9,223.6 Z" id="path1315"></path>
      <path d="M 805.9,198.1 C 749.79,338.6 704,439.7 630.6,563.8 l 28.82,0.161 c 107.3,-42.54 249.3,-150.1 337,-243.6 18.13,11.04 42.27,5.705 50.61,-7.921 z" id="path1317"></path>
      <path d="m 1440,248.9 c 0,848.1 -55.34,1350 -281.6,1639 l 14.95,13.73 c 306.4,-184 488.2,-597 488.2,-1576 34.87,0 70.66,-30.56 70.66,-45.84 z" id="path1319"></path>
      <path d="m 1058,248.9 c -0.3394,790.5 -71.4,1330 -367.5,1645 l 24.33,13.73 c 377,-197.5 549.7,-679.9 560.7,-1582 34.86,0.3381 67.16,-24.75 70.67,-45.84 z" id="path1321"></path>
      <path d="M 489.9,166.2 C 489.0677,587.1 407.52,918.8 60.5,1114 l 16.13,11.52 c 452.4,-117.4 600.9,-424.2 626.8,-883 32.57,0.376 63.66,-18.94 70.66,-45.84 z" id="path1323"></path>
      <path d="m 174.1,1243 c 200.8,102 396,283 547.8,458.9 144.7,37.89 225.6,-116.6 99.74,-226.1 -171.2,-148.9 -382.3,-200.5 -631.3,-249.2 z" id="path1325"></path>
      <path d="m 3.096,1898 17.56,12 c 447.6,-109.5 719.4,-400.3 958.3,-807.8 30.28,2.424 61.53,-6.188 75.63,-36.76 l -275.1,-95.28 c -173.3,371.5 -382.8,679.7 -776.4,927.8 z" id="path1327"></path>
      <path d="m 1132,1017 c 56.23,81.34 97.14,175.8 123.2,280.8 71.14,62.81 201,-29.38 147.9,-139.4 -46.02,-95.35 -138,-127 -260,-145.2 z" id="path1329"></path>
    
</svg>
