<?xml version="1.0" encoding="UTF-8" standalone="no"?>
<svg viewBox="0 0 2000 2000" version="1.1" xmlns="http://www.w3.org/2000/svg" xmlns:sodipodi="http://sodipodi.sourceforge.net/DTD/sodipodi-0.dtd">
	
      <path sodipodi:nodetypes="ccccc" id="path2827" d="M 306.5,215.8 C 356.54,251.24 434.1,360.9 481.3,484.2 577.85,514.5 666.2,437.06 629,343 591.85,249.25 426,211.2 318.8,206.2 Z"></path>
      <path sodipodi:nodetypes="cccccc" id="path2829" d="M 1990,1699 C 1773.9,1491.3 1650.8,978.2 1656.1,337 l -68.76,245.9 c 4.023,704.7 96.22,1190 210.3,1342 C 1827,1829 1907,1743 1986.14,1722.7 Z"></path>
      <path sodipodi:nodetypes="ccscccc" id="path2833" d="m 138.6,1379.5 13.08,49.01 h 854.5 c 16.86,0 27.23,-11.08 27.23,-16.26 l -169.2,-155.3 -108.1,122.5 z"></path>
      <path id="path2835" d="m 176.7,1014.2 c 62.88,91.58 108.6,197.9 137.8,316.2 79.56,70.72 206,-11.29 154.6,-138.7 -44.6,-110.4 -160.6,-155.4 -281.2,-181.2 z"></path>
      <path id="path2837" d="M 805.9,985 C 749.79,1125.5 704,1226.6 630.6,1350.7 l 28.82,0.161 c 107.3,-42.54 249.3,-150.1 337,-243.6 18.13,11.04 42.27,5.705 50.61,-7.921 z"></path>
      <path sodipodi:nodetypes="cccccc" id="path2839" d="m 1440,248.9 c 0,848.1 -55.34,1356 -281.6,1645 l 14.95,7.73 c 306.4,-184 488.2,-597 488.2,-1576 34.87,0 70.66,-30.56 70.66,-45.84 z"></path>
      <path sodipodi:nodetypes="cccccc" id="path2841" d="m 1058,248.9 c -0.3394,790.5 -71.4,1330 -367.5,1645 l 20.33,11.73 c 377,-197.5 553.7,-677.9 564.7,-1580 34.86,0.3381 67.16,-24.75 70.67,-45.84 z"></path>
      <path sodipodi:nodetypes="cccccc" id="path2843" d="M 489.9,953.1 C 488.98338,1376.7089 399.17456,1710.5437 17,1907 l 19,12 c 481.72516,-118.2748 639.85113,-427.3611 667.43,-889.58 34.68123,0.3788 63.66,-18.94 70.66,-45.84 z"></path>
      <path id="path2845" d="m 190.15306,492.32377 c 200.8,102 396,283 547.8,458.9 144.7,37.89 225.6,-116.6 99.74,-226.1 -171.2,-148.9 -382.3,-200.5 -631.3,-249.2 z"></path>
      <path sodipodi:nodetypes="cccccc" id="path2847" d="m 65,1057 c 408.91222,-89.05859 662.74904,-325.57205 881,-657 27.66274,1.97149 61.53,-6.188 75.63,-36.76 L 746.53,267.96 C 591.72739,579.09426 404.58862,837.21424 53,1045 Z"></path>
      <path id="path2849" d="m 1132,1017 c 56.23,81.34 97.14,175.8 123.2,280.8 71.14,62.81 201,-29.38 147.9,-139.4 -46.02,-95.35 -138,-127 -260,-145.2 z"></path>
      <path d="m 505.2,1441.6 c 56.91048,41.646 145.11945,170.5088 198.8,315.4 93.28467,31.2897 216,-71 160,-175 -50.36404,-93.5332 -226.75532,-144.0789 -346.5,-150 z" id="path2853" sodipodi:nodetypes="ccscc"></path>
    
</svg>
