<?xml version="1.0" encoding="UTF-8" standalone="no"?>
<svg viewBox="0 0 2000 2000" version="1.1" xmlns="http://www.w3.org/2000/svg" xmlns:sodipodi="http://sodipodi.sourceforge.net/DTD/sodipodi-0.dtd">
	
      <path sodipodi:nodetypes="ccscccc" d="m 227.51,681.55 13.08,49.01 h 1539 c 16.86,0 27.23,-11.08 27.23,-16.26 L 1608.62,537 1489.52,681.6 Z" id="path2045"></path>
      <path id="path2047" d="m 384,1664 86.5633,279.8494 c 20.7631,-3.5763 38.786,-30.2925 38.8871,-58.2356 L 1479,1571 l 16,-49 z" sodipodi:nodetypes="cccccc"></path>
      <path sodipodi:nodetypes="ccscc" d="M 1222.5009,1161.7705 C 1317.6816,1318.4523 1437.9281,1601.7523 1502,1891 c 98.7884,70.9159 251.1908,5.5776 205,-176 -58,-228 -238,-444 -465.4991,-560.2295 z" id="path2049"></path>
      <path sodipodi:nodetypes="cccccc" id="path2060" d="M 1338.74,146.65 C 1076.0812,719.27239 638.17096,1125.9037 27,1397 l 21,12 C 672.17862,1304.6623 1217,895 1552,285.22 c 37,3.78 66.93,-10.08 77.38,-34.19 z"></path>
      <path d="M 834.29,1725.9 V 1226 c 38,-4.23 65.01,-27.44 66.81,-49.11 L 631,1148 v 587.9 z" id="path2064" sodipodi:nodetypes="cccccc"></path>
      <path d="m 447,182.16 c 53.17777,66.3302 152.24942,259.58397 214,434.4 110,58 234.89564,-23.37975 182,-158 -56.79168,-144.53571 -236.00099,-240.21429 -385.3,-285 z" id="path2069" sodipodi:nodetypes="ccscc"></path>
    
</svg>
