<?xml version="1.0" encoding="UTF-8" standalone="no"?>
<svg viewBox="0 0 2000 2000" version="1.1" xmlns="http://www.w3.org/2000/svg" xmlns:sodipodi="http://sodipodi.sourceforge.net/DTD/sodipodi-0.dtd">
	
      <path id="path1657" d="m 1519.103,749.48 -95.1,91.71 H 201.5156 l 12,49.09 H 1434.503 v 446.98 c 0,21.03 -15.132,26.1188 -23.71,26.31 l -220.2774,-15.09 -0.713,22.75 c 88.2,25.13 182.713,89.25 220.0774,207.85 187.5,-14.02 227.8,-101.6 227.8,-243.6 V 915 c 33.56,0 78.32,-28.04 78.32,-42.05 z" sodipodi:nodetypes="cccccsscccsccc"></path>
      <path sodipodi:nodetypes="cssccc" d="m 885.44922,172.07031 0.49023,1737.23049 c 0.0174,61.7395 211.00975,39.3501 211.00975,-58.041 V 256.25 c 42.02,0 70.6617,-33.67977 70.6817,-51.50977 z" id="path1659"></path>
      <path sodipodi:nodetypes="ccscccc" id="path1663" d="M 345,508.99023 363.08008,558 H 1639.6309 c 16.85,0 27.2285,-11.07977 27.2285,-16.25977 L 1456,358 1333,508.93945 Z"></path>
      <path sodipodi:nodetypes="ccccc" d="m 386.267,1100.9 c 49.66,49.31 146,196.8 208.9,332.2 86.21,47.03 234.5,-30.05 152.8,-169.1 -58.77,-100 -232.1,-163.4 -350.4,-173.2 z" id="path1667"></path>
    
</svg>
