<?xml version="1.0" encoding="UTF-8" standalone="no"?>
<svg viewBox="0 0 2000 2000" version="1.1" xmlns="http://www.w3.org/2000/svg" xmlns:sodipodi="http://sodipodi.sourceforge.net/DTD/sodipodi-0.dtd">
	
      <path d="m 622.1,330.96 -139.5,532 c -11.78,44.91 217.8,33.37 233.3,-30.61 l 5.339,-22 h 885.1 c -24.66,321.9 -80.1,634.2 -156.8,916 -3.922,14.41 -18.5,18.82 -27.96,17.87 l -215.5,-21.69 2.211,28.14 c 111.4,39.94 188.3,143.1 187.2,224.9 98.42,8.252 208.6,-40.57 251.8,-197 77.19,-279.6 133.2,-622.7 161.4,-957.6 18.7,-2.854 38.84,-18.07 46.94,-34.49 l -185.4,-131.2 -108.8,106.7 h -828.5 l 96.08,-349.5 c 31.27,-6.423 55,-27.38 62.9,-47.95 z" id="path1055" sodipodi:nodetypes="cccccsccccccccccccc"></path>
      <path d="m 1137,698.1 c -17.51,70.11 218.4,52.88 237.2,-22.2 l 114.2,-455.4 c 27.22,0 58.5,-25.14 58.5,-31.43 L 1361.2,62.47 1256.9,163.87 H 369.6 l 15.42,48.34 h 873.3 z" id="path1208"></path>
      <path d="m 685.6,1636 203.3,1.957 v -577.8 l -203.3,0.6918 z m 420.3,-693.6 -95.1,91.71 H 581.1 L 349.8,978.04 v 754.6 c 0,38.25 203.3,27.01 203.3,-35.04 v -40 h 468.3 v 28.02 c 0,28.04 203.3,10.03 203.3,-46.04 v -531.6 c 33.56,0 78.32,-28.04 78.32,-42.05 z m -84.58,674 h -468.3 v -533.3 h 468.3 z" id="path1210"></path>
      <path d="m 118.7,1319 13.08,49.01 h 1358 c 13.32,0 21.52,-11.08 21.52,-16.26 l -176.5,-158.6 -108.6,125.9 z" id="path1212" sodipodi:nodetypes="ccscccc"></path>
    
</svg>
