<?xml version="1.0" encoding="UTF-8" standalone="no"?>
<svg viewBox="0 0 2000 2000" version="1.1" xmlns="http://www.w3.org/2000/svg" xmlns:sodipodi="http://sodipodi.sourceforge.net/DTD/sodipodi-0.dtd">
	
      <path sodipodi:nodetypes="ccsccc" d="M 452.37,211.2876 C 370.72899,643.01082 216.96019,1098.9759 6,1435 c 0,0 28.637087,4.3112 29,4.058 C 338,1227.6438 532.54434,853.7363 693,337 c 26.40968,0 45.67,-9.797 55.39,-34.21 z" id="path3185"></path>
      <path sodipodi:nodetypes="sscccs" d="M 375.7,1942.04 C 375.69959,1987.4145 573,1960.1302 573,1884 V 895.99995 c 39.73,10e-5 61.01,-21.67 62.81,-43.34 l -260.1,-28.89 z" id="path3187"></path>
      <path sodipodi:nodetypes="ccscccc" id="path3196" d="m 944.057,734.05 13.08,47.01 h 928.833 c 16.85,0 27.23,-11.08 27.23,-16.26 L 1723,586.06 1610,734 Z"></path>
      <path id="path3198" d="m 1207.414,199.1 v 213 C 1207.414,1055.3059 1082.5812,1546 654,1941 l 19,8 c 456.1633,-203 755.639,-701.8681 755.639,-1475.9 V 285.955 c 42.02,0 70.66,-33.68 70.68,-51.51 z" sodipodi:nodetypes="csccsccc"></path>
      <path sodipodi:nodetypes="cccccc" d="M 1977.0756,1746.875 C 1710,1550 1428.7756,1145 1428.7756,450.63 l -68.76,245.9 c 4.8,704.7 249.9844,1135.47 405.9,1266.245 39.1325,-94.7062 130.16,-171.7755 207.1,-192.2 z" id="path3200"></path>
      <path sodipodi:nodetypes="cccccc" d="m 694,1114 c 220.5348,-180.6578 327.4152,-444.5435 401,-673 24.809,2.1426 60,-20 67,-49 L 860,349 c -24.7466,237.6204 -80.8892,520.3586 -184,766 z" id="path3202"></path>
    
</svg>
