<?xml version="1.0" encoding="UTF-8" standalone="no"?>
<svg viewBox="0 0 2000 2000" version="1.1" xmlns="http://www.w3.org/2000/svg" xmlns:sodipodi="http://sodipodi.sourceforge.net/DTD/sodipodi-0.dtd">
	
      <path id="path2195" d="m 87.84,1491.82 89.26,267.9 c 20.77,-3.536 38.91,-30.39 39,-58.16 l 701.906,-262.07 8.094,-31.93 z" sodipodi:nodetypes="cccccc"></path>
      <path sodipodi:nodetypes="cccccc" d="m 400.09,437.4 v 1107.64 l 199.2,-49.48 V 507.92 c 38.55,6e-5 63.08,-21.03 64.83,-42.05 z" id="path2197"></path>
      <path sodipodi:nodetypes="ccscccc" d="m 131.1,872.95 13.08,49.01 h 721.89 c 16.86,0 27.23,-11.08 27.23,-16.26 L 725.1,744.4 616,873 Z" id="path2199"></path>
      <path sodipodi:nodetypes="cssccc" d="m 1243.99,172 v 1735.71 c 0,67.36 199.2,15.23 199.2,-49.48 V 242.52 c 38.55,6e-5 63.08,-21.03 64.83,-42.05 z" id="path2216"></path>
      <path sodipodi:nodetypes="ccscccc" d="m 816.29,1301.79 13.08,49.01 h 1073.8 c 16.86,0 27.23,-11.08 27.23,-16.26 l -198.2,-177.3 -119.1,144.6 z" id="path2218"></path>
      <path sodipodi:nodetypes="ccscccc" d="m 969,916.59 13.08,49.01 h 791.99 c 16.86,0 27.23,-11.08 27.23,-16.26 L 1603.1,772.04 1484,916.64 Z" id="path2220"></path>
      <path id="path2222" d="M 876.29,541.99 889.37,591 h 953.8 c 16.86,0 27.23,-11.08 27.23,-16.26 l -198.2,-177.3 -119.1,144.6 z" sodipodi:nodetypes="ccscccc"></path>
    
</svg>
