<?xml version="1.0" encoding="UTF-8" standalone="no"?>
<svg viewBox="0 0 2000 2000" version="1.1" xmlns="http://www.w3.org/2000/svg" xmlns:sodipodi="http://sodipodi.sourceforge.net/DTD/sodipodi-0.dtd">
	
      <path sodipodi:nodetypes="ccscccscccccc" id="path1464" d="M 631.95283,430.29164 H 1253.0077 V 610.05 c 0,612.95 202.2399,1098.388 417.3399,1277.388 41.9755,-119.3284 127.0961,-201.1168 247.0806,-219.0957 l 7.85,-28.4045 C 1626.2646,1538.5668 1346.8205,1113 1346.8205,528 v -87.95836 c 74.1795,0 128.1795,-12.04164 131.2272,-33.3 l -168.438,-153.218 -97.1,121.71 H 619.95483 Z"></path>
      <path sodipodi:nodetypes="csccsccc" d="M 503,614.00343 V 719 c 0,449.1279 -77.1562,837.1217 -411.59961,1138.5508 l 33,13 C 542,1638 699.81787,1292.9731 710.09961,796 l 2.10937,-101.95751 c 38.55,-3.867 63.08008,-30.97 64.83008,-52 z" id="path1439"></path>
    
</svg>
