<?xml version="1.0" encoding="UTF-8" standalone="no"?>
<svg viewBox="0 0 2000 2000" version="1.1" xmlns="http://www.w3.org/2000/svg" xmlns:sodipodi="http://sodipodi.sourceforge.net/DTD/sodipodi-0.dtd">
	
      <path sodipodi:nodetypes="csscccsccc" d="m 382.8,700 v 1009 c 0,21.03 -10.47912,27.7462 -24.53,26.28 l -222.5,-23.009 v 22.78 c 131.33,44.849 188.33,100.849 222.5,215.8 187.5,-14.02 223.8,-101.6 223.8,-243.6 v -937 c 38.55,10e-5 63.08,-21.03 64.83,-42.05 z" id="path2602"></path>
      <path d="M 455.5,328.8 C 570.29286,475.29773 636.82054,633.77401 699,798 774,849 908,779 860,632 815.32339,495.17789 648.12338,376.47108 466.5,323.2 Z" id="path2608" sodipodi:nodetypes="ccscc"></path>
      <path d="M 399.9,189.61 C 323.21199,414.26949 183.78285,719.34646 10,948 l 18,7 C 276,807 467.00742,561.30384 610.63,310.12 c 24.69762,2.91895 45.67,-9.797 55.39,-34.21 z" id="path2610" sodipodi:nodetypes="cccccc"></path>
      <path sodipodi:nodetypes="ccscccc" d="m 859.85,536.59 13.08,49.01 h 1039 c 16.86,0 27.23,-11.08 27.23,-16.26 l -198.2,-177.3 -119.1,144.6 z" id="path2618"></path>
      <path sodipodi:nodetypes="cccccc" d="M 1995.95,1141 C 1831.1246,1065 1591.1281,878 1493,570 l -63,9 c 73.7889,382.78076 219.7263,637 341,749.71 41,-76.71 124,-137.71 215.8,-160.8 z" id="path2621"></path>
      <path sodipodi:nodetypes="cccccc" d="M 1229.63,147.94 C 1168.6084,632.13775 1013.6577,1075.0503 770,1378 l 14,6 c 361.7984,-173.4182 564.9212,-683.55246 683.25,-1146.3 25.5425,-4.58986 60.3,-29.64 61.58,-50.7 z" id="path2623"></path>
      <path sodipodi:nodetypes="ccscc" id="path2634" d="M 42.725,1004.7 C 85.889,1066.0384 153.573,1215.1431 192,1346 295,1406 389,1311 347,1200 304.342,1087.2602 165,1027 53.425,996.1 Z"></path>
      <path sodipodi:nodetypes="cccccc" id="path2636" d="m 702.142,957.8079 c -42.156,147.7235 -78.155,260.0036 -130.469,389.878 l 17.979,3.1236 c 83.875,-38.5721 226.196,-157.1059 310.223,-258.8571 24.724,-0.2229 46.216,-5.3804 55.125,-18.641 z"></path>
      <path id="path2640" d="m 725,1856.85 13.08,49.01 h 1234.9 c 13.32,0 21.52,-11.08 21.52,-16.26 L 1836.186,1725 1727,1856.9 Z" sodipodi:nodetypes="ccscccc"></path>
      <path d="m 1656,1261 -108,91.71 h -374.64 l -231.3,-56.07 -0.04,578.36 202.977,4 0.36,-477.2 h 394.463 v 470.98 l 203.177,2.22 v -448.48 c 33.56,0 78.32,-28.04 78.32,-42.05 z" id="path2642" sodipodi:nodetypes="ccccccccccccc"></path>
    
</svg>
