<?xml version="1.0" encoding="UTF-8" standalone="no"?>
<svg viewBox="0 0 2000 2000" version="1.1" xmlns="http://www.w3.org/2000/svg" xmlns:sodipodi="http://sodipodi.sourceforge.net/DTD/sodipodi-0.dtd">
	
      <path id="path2462" d="m 903.30859,659 -0.006,1067.1719 c -1.2e-4,21.03 -9.62493,27.3095 -23.71093,26.3105 l -202,-16.3203 -1.18164,22.75 c 127.3,35.07 187.90078,94.3096 202.30078,209.0996 187.5,-14.02 227.8868,-101.5996 227.8868,-243.5996 V 731.22852 c 39.73,0 65.0105,-21.66984 66.8105,-43.33984 z" sodipodi:nodetypes="csccccsccc"></path>
      <path sodipodi:nodetypes="cccccc" d="m 1210,1454.2315 c 165.242,-85.4872 357.2906,-230.1313 478.272,-357.7784 C 1719,1095 1752.627,1079.6017 1767,1053 L 1447.2879,947.2932 C 1415.5617,1039.8448 1307.525,1265.4622 1187,1448 Z" id="path2468"></path>
      <path id="path2471" d="m 284,986 c 115,123 226,283 299,442 103,59 273.1654,-43.3574 169,-187.7685 -88,-122 -266,-216 -450,-262.9315 z" sodipodi:nodetypes="ccscc"></path>
      <path sodipodi:nodetypes="cccccc" id="path2511" d="M 927.38,58.185 C 716.88,359 422.88,695 30.88,934 l 25,14 c 433,-113 794.4555,-430.9243 1071.16,-733.485 39.53,5.1806 66.93,-10.08 77.38,-34.19 z"></path>
      <path sodipodi:nodetypes="cccccc" id="path2513" d="M 1991.88,762.58 C 1623,677 1267,411 1086.88,212 l -91,31 C 1153,494 1460,831 1736,950 c 50,-81 140.88,-140 246.8,-160.8 z"></path>
    
</svg>
