<?xml version="1.0" encoding="UTF-8" standalone="no"?>
<svg viewBox="0 0 2000 2000" version="1.1" xmlns="http://www.w3.org/2000/svg" xmlns:sodipodi="http://sodipodi.sourceforge.net/DTD/sodipodi-0.dtd">
	
      <path id="path3108" d="M 900.49,206.308 C 777,574 442,1082 24.69,1399 L 47,1419 C 458.75614,1252.6238 845.3948,855.8798 1114.15,346.638 c 39.2774,7.52135 66.93,-10.08 77.38,-34.19 z" sodipodi:nodetypes="cccccc"></path>
      <path id="path3110" d="M 1986.99,1199.58 C 1644,1099 1291,723 1075,347 l -48,17 c 117,340 419,863 704.11,1023 33.89,-85 136.3695,-142.104 246.8,-160.8 z" sodipodi:nodetypes="cccccc"></path>
      <path sodipodi:nodetypes="ccscccc" id="path3112" d="m 217,1841.05 13.08,47.01 h 1538.3827 c 16.85,0 27.23,-11.08 27.23,-16.26 L 1593,1679.4 1460.4927,1841 Z"></path>
      <path d="m 491,1365.05 13.08,47.01 h 990.3827 c 16.85,0 27.23,-11.08 27.23,-16.26 L 1319,1195.4 1186.4927,1365 Z" id="path3118" sodipodi:nodetypes="ccscccc"></path>
    
</svg>
