<?xml version="1.0" encoding="UTF-8" standalone="no"?>
<svg viewBox="0 0 2000 2000" version="1.1" xmlns="http://www.w3.org/2000/svg" xmlns:sodipodi="http://sodipodi.sourceforge.net/DTD/sodipodi-0.dtd">
	
      <path sodipodi:nodetypes="ccscccc" d="M 512.92,1259.99 526,1309 h 1245.98 c 16.86,0 27.23,-11.08 27.23,-16.26 l -198.2,-157.3 -119.1,124.6 z" id="path3231"></path>
      <path sodipodi:nodetypes="cccccc" d="m 1922,1789.21 c -513.6979,-42.9729 -748,-272.09 -795,-621.09 l -51,118 c 26,358 298.95,607 612,690.8 40,-76.92 126,-134.92 224.85,-160.8 z" id="path3233"></path>
      <path sodipodi:nodetypes="csccsccc" d="M 921.8,925.9 917,1047 c -20.29397,512 -336,779 -775.88,922.31 l 23.31,16.73 C 695,1933 1100.2173,1605 1127,1168.12 L 1137,1005 c 35.31,-5.481 61.72,-33.94 63,-55 z" id="path3235"></path>
      <path id="path3237" d="m 466.775,387.195 13.08,49.01 h 1197 c 16.86,0 27.23,-11.08 27.23,-16.26 l -198.2,-179.3 -119.1,146.6 z" sodipodi:nodetypes="ccscccc"></path>
      <path id="path3239" d="M 913.8,85.98 913,215.2 c -2.48802,401.87805 -276,708 -771.88,914.19 l 23.31,16.73 C 715,1060.08 1106.1417,710.32634 1123,308.2 l 6,-143.12 c 35.31,-5.481 61.72,-33.94 63,-55 z" sodipodi:nodetypes="csccsccc"></path>
      <path sodipodi:nodetypes="cccccc" d="M 1916,949.29 C 1402.3021,906.3171 1170,657.2 1123,308.2 l -51,118 c 26,358 296.95,627 610,710.8 36,-65 134,-143 224.85,-160.8 z" id="path3241"></path>
      <path id="path3258" d="m 257,788 c 158,-84 308,-220 459,-540 29.16781,1.74822 68,-18 75,-47 L 485,156 C 464,285 378,572 233,787 Z" sodipodi:nodetypes="cccccc"></path>
      <path sodipodi:nodetypes="cccccc" d="m 172,1692 c 193.45534,-87.8889 393.11547,-236.1852 578,-571 35.71309,1.8291 68,-18 75,-47 l -306,-45 c -30.66667,133.4976 -156.25397,430.504 -368,653 z" id="path3261"></path>
    
</svg>
