<?xml version="1.0" encoding="UTF-8" standalone="no"?>
<svg viewBox="0 0 2000 2000" version="1.1" xmlns="http://www.w3.org/2000/svg" xmlns:sodipodi="http://sodipodi.sourceforge.net/DTD/sodipodi-0.dtd">
	
      <path sodipodi:nodetypes="ccscc" d="m 540,893.24 c 81.24,100.8 165.2,238.4 207.7,388.6 C 842,1364 1009.7422,1276.9318 929,1133 860,1010 704,918 551,884.54 Z" id="path1371"></path>
      <path sodipodi:nodetypes="cccccc" d="m 1981.825,1428.03 c -249,-98.6833 -543.7,-441.03 -543.7,-815.5 L 1370.175,812 c 8,302 160.283,667.6247 359.8,797 24.984,-55.4864 111,-139 243.2,-154.9 z" id="path1373"></path>
      <path sodipodi:nodetypes="csccsccc" d="m 1216.625,224 0.55,364 c 0.6126,405.4435 -113,756.0613 -396,985 l 23,13 c 396,-143.2994 593.95,-539.2717 593.95,-973.47 V 308.18 c 42.02,0 70.66,-33.68 70.68,-51.51 z" id="path1375"></path>
      <path sodipodi:nodetypes="csccccc" d="m 1036.255,622.825 h 781.1373 c 16.85,0 27.23,-11.08 27.23,-16.26 l -184.86,-172.74 -108.44,141.94 -533.1473,0.05 z" id="path1377"></path>
      <path sodipodi:nodetypes="ccscccc" id="path1379" d="m 154.2323,575.815 13.08,47.01 H 982.145 c 16.85,0 27.23,-11.08 27.23,-16.26 l -176.6927,-150.4 -98.5073,119.6 z"></path>
      <path id="path1382" d="M 477.5893,240.65 V 504 c 0,510.2146 -161.2705,867.6423 -442.4143,1135 l 23,10 C 416.15378,1514.9855 698.8143,1100.7643 698.8143,563 V 327.505 c 42.02,0 70.6601,-33.68 70.68,-51.51 z" sodipodi:nodetypes="csccsccc"></path>
      <path d="m 197,1835.05 13.08,47.01 h 1584.3827 c 16.85,0 27.23,-11.08 27.23,-16.26 L 1625,1679.4 1506.4927,1835 Z" id="path1390" sodipodi:nodetypes="ccscccc"></path>
    
</svg>
