<?xml version="1.0" encoding="UTF-8" standalone="no"?>
<svg viewBox="0 0 2000 2000" version="1.1" xmlns="http://www.w3.org/2000/svg" xmlns:sodipodi="http://sodipodi.sourceforge.net/DTD/sodipodi-0.dtd">
	
      <path d="m 1494,121.51 -95.1,91.71 h -840 L 321.6,157.15 v 283.3 c 0,790.2 -52.94,1085 -291.7,1512 l 17.4,6.728 c 298.2,-206.6 477.8,-611.6 481.4,-1283 l 2.198,-407.9 h 886.5 v 438.7 c 0,592.5 145.8,1018 360.9,1197 113.1,94.03 204.7,-31.13 173,-112.7 l 23.8,-270.2 -21.91,-14.45 c -36.21,180.2 -68.98,210.3 -100.3,176.3 -123,-133.7 -240.2,-479 -240.2,-1023 v -385.9 c 34.312,0 51.75,-15.29 51.75,-29.3 z" id="path1182" sodipodi:nodetypes="ccccscccccscccccsccc"></path>
      <path d="m 605.1,474.5 c 205.6,111.8 405.6,310.3 561.1,503.1 155.1,44.57 245.3,-102.2 108.6,-226.1 C 1099.9,593 869,511.2 619.2,458.1 Z" id="path1185"></path>
      <path d="m 470.7,1093 4.304,15.5 c 355.5,-116.6 615.1,-360.6 845.6,-648.8 25.88,1.947 61.53,-6.188 75.64,-36.76 l -275.1,-95.28 c -171.8,292.2 -371.4,545.6 -650.5,765.3 z" id="path1187"></path>
      <path d="m 586.5,1262 c -45.21,209.8 -128.2,377.7 -218.7,502.3 l 17.38,7.656 c 124.1,-53.68 315.5,-195.3 422.5,-414.7 25.49,-2.558 52.99,-16.98 62.05,-41.64 z" id="path1191" sodipodi:nodetypes="cccccc"></path>
      <path d="m 883,1040.2 v 685.4 c 0,21.03 -9.63365,27.4361 -23.71,26.31 l -202,-16.32 -1.181,22.75 c 127.3,35.07 187.9,94.31 202.3,209.1 187.5,-14.02 233.8,-101.6 233.8,-243.6 v -603.6 c 38.55,-3.867 63.08,-30.97 64.83,-52 z" id="path1193" sodipodi:nodetypes="csscccsccc"></path>
      <path d="m 1113,1260 c 69.98,97.05 134.4,238.4 175.1,462.1 106.4,69.75 260.4,15.92 214.3,-159.9 -47.01,-179.4 -233.3,-276.5 -375.5,-311.2 z" id="path1198" sodipodi:nodetypes="ccccc"></path>
    
</svg>
