<?xml version="1.0" encoding="UTF-8" standalone="no"?>
<svg viewBox="0 0 2000 2000" version="1.1" xmlns="http://www.w3.org/2000/svg" xmlns:sodipodi="http://sodipodi.sourceforge.net/DTD/sodipodi-0.dtd">
	
      <path sodipodi:nodetypes="cssccc" id="path1711" d="m 898,140.48 v 1798 c 0,67.36 203.2,15.23 203.2,-49.48 V 211 c 38.55,6e-5 59.08,-21.03 60.83,-42.05 z"></path>
      <path d="m 1377,450 -95.1,91.71 H 734.1 L 502.8,485.64 v 941.6 c 0,38.25 203.3,27.0103 203.3,-35.04 v -20 h 586.4 v 56.02 c 0,28.04 203.3,10.03 203.3,-46.04 v -766.6 c 33.56,0 78.32,-28.04 78.32,-42.05 z m -84.58,873 H 706.02 V 590.7 h 586.4 z" id="path1716" sodipodi:nodetypes="ccccssccsscccccccc"></path>
      <path d="m 32,752.542 c 70.39,93.47 138.2,213.6 186.4,350.7 89.62,90.94 283.2,-21.2 181.9,-174.7 -71.19,-107.8 -226,-162.8 -357.3,-181.6 z" id="path1721"></path>
      <path d="m 1678.1,707.942 c -25.43,125 -79.38,284.2 -145,424.6 l 25.66,3.516 c 122.2,-62.76 272.8,-189.3 360.2,-301.8 21.42,0.4724 49.8,-10.87 59.47,-33.38 z" id="path1724"></path>
    
</svg>
