<?xml version="1.0" encoding="UTF-8" standalone="no"?>
<svg viewBox="0 0 2000 2000" version="1.1" xmlns="http://www.w3.org/2000/svg" xmlns:sodipodi="http://sodipodi.sourceforge.net/DTD/sodipodi-0.dtd">
	
      <path d="m 27,1961.85 c 392,-133.85 679.6,-620.8 838.6,-1391 17.81,0 62.98,-24.53 64.1,-30.82 l -203,-150.9 -140,125.7 H 353.5 l 15.42,48.34 h 263.6 c -83.56,659.2 -329.4,1187 -620.3,1385 z" id="path1391" sodipodi:nodetypes="cccccccccc"></path>
      <path d="m 105.68,1155.974 c 176.9,-130.4 341.8,-476 446.6,-824.9 14.43,-2.559 60.74,-9.156 70.18,-41.92 l -309.5,-70.04 c -39.44,309.9 -131.3,729.1 -232.4,934.9 z" id="path1393" sodipodi:nodetypes="cccccc"></path>
      <path d="m 1031,1052.7 c 47.22,52.88 126.5,210.2 149.4,357.2 86.19,45.82 195.9,13.41 179,-133 C 1342.99,1134.6 1163.8,1057 1043.2,1043 Z" id="path1399"></path>
      <path sodipodi:nodetypes="cccccc" d="M 1984,1764 C 1747.9,1545.2 1601.6,1043.2 1606.8,402 l -68.76,245.9 c 5.096,700.6 97.62,1126 266.4,1342 41.4991,-122.5068 115.097,-188.7475 168.5,-202.4 z" id="path1403"></path>
      <path d="m 1391,313.6 c 0,854.6 -83.34,1367 -384.8,1651 l 19.18,11.33 c 369.1,-185.8 587.1,-597.4 587.1,-1586 42.02,0 70.66,-30.56 70.66,-45.84 z" id="path1405"></path>
      <path d="m 201.7,853.6 c 163.4,154.6 367.5,424.9 505.4,688.8 110,33.45 241.8,-75.25 122.6,-238.9 C 686.3,1106.6 426,900.2 218.4,837.8 Z" id="path1407"></path>
      <path d="m 1007,314 290.3,34.79 c -5.228,25.91 -32.89,48.41 -68.77,48.41 -38.03,608.2 -197.5,1315 -648.1,1564 l -18.12,-10.01 c 333.8,-381.1 415.7,-1008 444.6,-1638 z" id="path1544"></path>
    
</svg>
