<?xml version="1.0" encoding="UTF-8" standalone="no"?>
<svg viewBox="0 0 2000 2000" version="1.1" xmlns="http://www.w3.org/2000/svg" xmlns:sodipodi="http://sodipodi.sourceforge.net/DTD/sodipodi-0.dtd">
	
      <path id="path3858" d="M 875.7257,822.48313 H 1427.109 C 1422.46,1084 1382.46,1401 1346.309,1646.4832 c -2.1758,14.7748 -18.4923,18.742 -27.96,17.87 l -215.5,-21.69 2.211,28.14 c 111.4,39.94 188.3,143.1 187.2,224.9 98.42,8.252 233.7057,-28.2255 255.8,-189 39.4,-286.7032 73.4,-572.7032 81.4,-873.60007 18.7,-2.854 38.84,-18.07 46.94,-34.49 l -185.4,-131.2 -108.8,106.7 H 860.127 Z" sodipodi:nodetypes="ccsscccscccccc"></path>
      <path d="M 672.7857,404.83213 V 670 C 672.7857,1225.2039 448,1651 165,1894 l 24,2 C 576,1739 884.31963,1377.0001 884.7857,712 L 885,406.23413 Z" id="path3860" sodipodi:nodetypes="csccscc"></path>
      <path id="path3862" d="m 1611,230.93213 -123,146.34 -1252,-0.05 13.0801,49.012 h 1519.4825 c 16.86,0 27.2305,-11.082 27.2305,-16.262 z" sodipodi:nodetypes="ccccscc"></path>
      <path sodipodi:nodetypes="ccscc" id="path3869" d="m 278,970 c 246.2489,115.072 542.0979,302.753 770,512 173,33 237.7954,-150.656 124,-233 C 973,1105 675.9999,999 296.604,959.114 Z"></path>
    
</svg>
