<?xml version="1.0" encoding="UTF-8" standalone="no"?>
<svg viewBox="0 0 2000 2000" version="1.1" xmlns="http://www.w3.org/2000/svg" xmlns:sodipodi="http://sodipodi.sourceforge.net/DTD/sodipodi-0.dtd">
	
      <path sodipodi:nodetypes="cssscccsssccc" d="m 351.3809,339 v 1232 c 0,140 43,285 206,285 h 1027 c 69,0 133,-103 63,-184 L 1670,1427 l -20,-4 c -28.3809,109 -73,237 -130,237 H 656 c -60,0 -90.99618,-43.2294 -91,-98 L 564.92,415.40039 c 32.42,0.6762 63.6601,-18.93984 70.6601,-45.83984 z" id="path3534"></path>
      <path sodipodi:nodetypes="ccscc" id="path3546" d="M 746.92137,720.44821 C 913.75957,870.55478 1104.5854,1099.0289 1239,1338 c 116.7969,56.6649 236.3276,-60.7004 159,-206 C 1322.0201,989.2327 1075.2334,790.68742 763.70216,704.96962 Z"></path>
      <path sodipodi:nodetypes="cccccc" d="M 1300.998,478.67002 C 1182.803,756.09602 880.25698,1177.117 513.99798,1429.67 l 29,12 C 936.998,1318.67 1271.998,1016.67 1493,625.00002 c 29.279,3.582 66.93,-10.08 77.38,-34.19 z" id="path3548"></path>
    
</svg>
