<?xml version="1.0" encoding="UTF-8" standalone="no"?>
<svg viewBox="0 0 2000 2000" version="1.1" xmlns="http://www.w3.org/2000/svg" xmlns:sodipodi="http://sodipodi.sourceforge.net/DTD/sodipodi-0.dtd">
	
      <path sodipodi:nodetypes="ccscccc" d="m 265.9,1165.99 13.08,49.01 h 1499 c 16.86,0 27.23,-11.08 27.23,-16.26 l -198.2,-169.3 -119.1,136.6 z" id="path2498"></path>
      <path sodipodi:nodetypes="csccsccc" d="M 873.8,897.9 873,994 c -3.54626,425.9943 -223.15,780 -725.88,975.31 l 23.31,16.73 C 732,1911 1085.3227,1486.9854 1119,1054.12 l 6,-77.12 c 35.31,-5.481 61.72,-33.94 63,-55 z" id="path2506"></path>
      <path id="path2512" d="M 1928,1789.21 C 1459,1746 1166,1445 1119,1054.12 l -57,118 c 4,328.88 267,738.88 632,804.8 40,-72.92 130,-140.92 224.85,-160.8 z" sodipodi:nodetypes="cccccc"></path>
      <path sodipodi:nodetypes="cccccc" id="path2529" d="M 1364,28 C 1135.0282,390.92691 781.03154,797.21899 211.2598,994.5703 l 26,15 c 566.75409,-62.54253 999.9857,-383.70123 1340,-843 48.9296,5.82145 66.9308,-10.0794 77.3808,-34.1894 z"></path>
      <path d="m 481.49582,271.13888 c 285.03687,169.51396 610.90108,428.01825 840.56798,698.50203 160.8315,50.59299 262.6804,-142.16754 123,-265 C 1175.8636,467.82907 904.81589,354.32801 498.29582,255.33888 Z" id="path2531" sodipodi:nodetypes="ccccc"></path>
    
</svg>
