<?xml version="1.0" encoding="UTF-8" standalone="no"?>
<svg viewBox="0 0 2000 2000" version="1.1" xmlns="http://www.w3.org/2000/svg" xmlns:sodipodi="http://sodipodi.sourceforge.net/DTD/sodipodi-0.dtd">
	
      <path d="m 1662.58,178.18 -95.1,91.71 H 465.68 l -231.3,-56.07 v 1667.42 c 0,38.25 203.3,27.01 203.3,-35.04 v -20 h 1140.4 v 56.02 c 0,28.04 203.3,10.03 203.3,-46.04 V 343.76 c 33.56,0 78.32,-28.04 78.32,-42.05 z M 1578,1785 H 437.6 V 318.88 H 1578 Z" id="path2712" sodipodi:nodetypes="ccccssccsscccccccc"></path>
      <path sodipodi:nodetypes="cccccc" d="m 886.65,508.33 0.55,1013.67 208.95,-1.47 V 592.51 c 42.02,0 74.66,-33.68 74.68,-51.51 z" id="path2716"></path>
      <path sodipodi:nodetypes="csccccc" d="M 523.4927,1549 H 1502.63 c 16.85,0 27.23,-11.08 27.23,-16.26 L 1339,1368 l -102.44,133.94 -731.1473,0.05 z" id="path2719"></path>
      <path d="M 516.725,757.74756 C 561.91324,834.89277 632.77079,1022.4215 673,1187 c 84,65 209.20278,-2.3351 172,-141 C 812,923 648.12135,794.13403 527.425,749.14756 Z" id="path2722" sodipodi:nodetypes="ccscc"></path>
      <path d="M 1272.1419,724.85542 C 1230,893 1185.7966,1045.0563 1128,1205 l 17,4 c 87.833,-52.153 240.8821,-212.42243 328.8747,-350 23.1958,1.96629 48.2158,-9.73942 57.1253,-23 z" id="path2729" sodipodi:nodetypes="cccccc"></path>
    
</svg>
