<?xml version="1.0" encoding="UTF-8" standalone="no"?>
<svg viewBox="0 0 2000 2000" version="1.1" xmlns="http://www.w3.org/2000/svg" xmlns:sodipodi="http://sodipodi.sourceforge.net/DTD/sodipodi-0.dtd">
	
      <path sodipodi:nodetypes="cssccc" id="path3493" d="m 355,117 v 1787 c 0,67.36 203,25.71 203,-39 V 187 c 38,6e-5 59,-21 61,-42 z"></path>
      <path d="M 625,466 V 838" id="path3447"></path>
      <path id="path3524" d="M 1990,1703 C 1735.5,1495.3 1610.8116,910 1617,270 l -93.06,256.9 c 4.8,704.7 104.06,1262.1 254.9,1410 C 1806,1870 1886,1755 1985.94,1726.7 Z" sodipodi:nodetypes="cccccc"></path>
      <path id="path3527" d="M 1028.98,1917.73 C 1370,1742 1626.0677,1303.5607 1617,270 c 40,0 70,-31 70,-47 l -291,-28 c 0,896.67 -71,1363 -389.16,1715.33 z" sodipodi:nodetypes="cccccc"></path>
      <path id="path3529" d="m 1043,978 c 48,55 127,217 148,358 83,46 196.6403,12.3111 179,-134 -17,-141 -193,-217 -316,-233 z" sodipodi:nodetypes="ccscc"></path>
      <path id="path3531" d="m 984,194 c -0.39414,918 -89,1441 -348,1724 l 23,6 c 421,-244.8546 541,-695 541,-1653 35,0 68,-26 70,-47 z" sodipodi:nodetypes="cccccc"></path>
      <path id="path3554" d="m 840,595 14,50 h 530 c 13.32,0 21.52,-11.08 21.52,-16.26 L 1245.4752,470.14 1146.08,595.05 Z" sodipodi:nodetypes="ccscccc"></path>
      <path sodipodi:nodetypes="ccscccc" d="m 1355,596 14,49 h 542 c 13,0 22,-11 22,-16 L 1772,470.14 1674,596 Z" id="path3557"></path>
      <path id="rect3453" style="opacity:1;fill-opacity:1;paint-order:markers stroke fill;stop-color:#000000" d="M 243,888 H 642 V 839 H 243 Z M 218,466 H 703 L 614,417 H 316 Z M 316,417 85,360 V 942.66 C 85,980.91 289,970.0503 289,908 V 462 Z m 309,46 v 480 c 0,32 204,6 204,-45 V 491 c 34,0 78,-28 78,-42 L 709.58,325.42 614,417 Z" sodipodi:nodetypes="ccccccccccccsscccssccccc"></path>
      <path d="m 226,1609 h 424 v -49 H 226 Z m -25,-422 h 510 l -89,-49 H 299 Z m 98,-49 -231,-57 v 583 c 0,39 204,26 204,-36 v -445 z m 334,46 v 480 c 0,32 204,6 204,-45 v -407 c 33,0 78,-27 78,-42 L 717.58,1046.42 622,1138 Z" style="opacity:1;fill-opacity:1;paint-order:markers stroke fill;stop-color:#000000" id="path3461" sodipodi:nodetypes="ccccccccccccsscccssccccc"></path>
    
</svg>
