<?xml version="1.0" encoding="UTF-8" standalone="no"?>
<svg viewBox="0 0 2000 2000" version="1.1" xmlns="http://www.w3.org/2000/svg" xmlns:sodipodi="http://sodipodi.sourceforge.net/DTD/sodipodi-0.dtd">
	
      <path d="m 898,80.48 v 1332 c 0,67.36 203.2,15.23 203.2,-49.48 V 151 c 38.55,6e-5 59.08,-21.03 60.83,-42.05 z" id="path2930" sodipodi:nodetypes="cssccc"></path>
      <path sodipodi:nodetypes="ccccssccsscccccccc" id="path2932" d="m 1377,366 -95.1,91.71 H 734.1 L 502.8,401.64 v 721.6 c 0,38.25 203.3,27.0103 203.3,-35.04 v -20 h 586.4 v 56.02 c 0,28.04 203.3,10.03 203.3,-46.04 v -546.6 c 33.56,0 78.32,-28.04 78.32,-42.05 z m -84.58,653 H 706.02 V 506.7 h 586.4 z"></path>
      <path id="path2934" d="m 54,582.542 c 70.39,93.47 138.2,213.6 186.4,350.7 89.62,90.94 283.2,-21.2 181.9,-174.7 -71.19,-107.8 -226,-162.8 -357.3,-181.6 z"></path>
      <path id="path2936" d="m 1678.1,537.942 c -25.43,125 -79.38,284.2 -145,424.6 l 25.66,3.516 c 122.2,-62.76 272.8,-189.3 360.2,-301.8 21.42,0.4724 49.8,-10.87 59.47,-33.38 z"></path>
      <path sodipodi:nodetypes="ccscccc" id="path2944" d="m 137,1875.05 13.08,47.01 h 1704.3827 c 16.85,0 27.23,-11.08 27.23,-16.26 L 1683,1721.4 1566.4927,1875 Z"></path>
      <path d="m 377,1503.65 13.08,47.01 h 1224.3827 c 16.85,0 27.23,-11.08 27.23,-16.26 L 1445,1348 1326.4927,1503.6 Z" id="path2946" sodipodi:nodetypes="ccscccc"></path>
    
</svg>
