<?xml version="1.0" encoding="UTF-8" standalone="no"?>
<svg viewBox="0 0 2000 2000" version="1.1" xmlns="http://www.w3.org/2000/svg" xmlns:sodipodi="http://sodipodi.sourceforge.net/DTD/sodipodi-0.dtd">
	
      <path sodipodi:nodetypes="ccsscccscccccc" d="M 315.19866,420.50765 H 1497.709 C 1477.04,818 1431,1243 1358.909,1618.4377 c -2.8162,14.6661 -18.4681,18.4218 -27.96,17.87 l -215.5,-13.69 2.211,28.14 c 111.4,39.94 194.3,135.1 193.2,216.9 98.42,8.252 234.3008,-37.0615 261.8,-197 C 1640,1279 1684,878 1710.06,431.12765 c 18.7,-2.854 38.84,-18.07 46.94,-34.49 l -185.4,-131.2 -108.8,106.7 H 302.55163 Z" id="path1478"></path>
      <path sodipodi:nodetypes="ccccc" id="path1482" d="M 807,416 C 765.04377,1047 554.19988,1579.8889 196.6,1849 l 19,10 C 674.39284,1696.0765 981.50888,1238.4485 1042,410 Z"></path>
    
</svg>
