<?xml version="1.0" encoding="UTF-8" standalone="no"?>
<svg viewBox="0 0 2000 2000" version="1.1" xmlns="http://www.w3.org/2000/svg" xmlns:sodipodi="http://sodipodi.sourceforge.net/DTD/sodipodi-0.dtd">
	
      <path sodipodi:nodetypes="ccsscccscccccc" d="m 596,920 h 930 c -30,332 -76,530 -142.8,774 -3.9434,14.4041 -18.497,18.793 -27.96,17.87 l -215.5,-21.69 2.211,28.14 c 111.4,39.94 188.3,143.1 187.2,224.9 98.42,8.252 214.5047,-40.0565 255.8,-197 65.049,-247.22 107.1115,-453.6106 143.4,-815.6 18.7,-2.854 38.84,-18.07 46.94,-34.49 l -185.4,-131.2 -108.8,106.7 H 580.4013 Z" id="path1609"></path>
      <path sodipodi:nodetypes="ccccc" id="path1611" d="m 1147,900 c -18.3027,373.1053 -133.8243,752.9211 -322,969 l 20,9 c 285.4467,-140.7659 473.3466,-460.7159 524,-972 z"></path>
      <path d="m 799,900 c -25.50738,319.0418 -123,655 -326,887 l 17,8 c 278,-120 460.44301,-429.2156 527,-889 z" id="path1613" sodipodi:nodetypes="ccccc"></path>
      <path sodipodi:nodetypes="csccscc" id="path1615" d="M 460,310.349 V 500 c 0,568.2778 -89.0463,877.5084 -319,1206 l 18,4 C 425.55574,1562.7708 664.62113,1218.0754 665.08,557 l 0.198,-245.249 z"></path>
      <path sodipodi:nodetypes="ccccscc" d="m 1530,136.449 -123,146.34 -1199.2086,-0.05 13.0801,49.012 h 1466.6911 c 16.86,0 27.2305,-11.082 27.2305,-16.262 z" id="path1617"></path>
      <path id="path1619" d="m 1380.4374,441.698 -123,146.34 L 567.688,587.988 580.7681,637 H 1538 c 16.86,0 27.2305,-11.082 27.2305,-16.262 z" sodipodi:nodetypes="ccccscc"></path>
    
</svg>
