<?xml version="1.0" encoding="UTF-8" standalone="no"?>
<svg viewBox="0 0 2000 2000" version="1.1" xmlns="http://www.w3.org/2000/svg" xmlns:sodipodi="http://sodipodi.sourceforge.net/DTD/sodipodi-0.dtd">
	
      <path sodipodi:nodetypes="cscccc" id="path2000" d="m 872.9,1906 c -2e-5,36.98 203.3,15.05 203.3,-58.04 v -1656 c 39.73,1e-4 65.01,-21.67 66.81,-43.34 l -270.1,-28.89 z"></path>
      <path sodipodi:nodetypes="ccccsccsccscccccsccc" id="path2002" d="m 1413,427.2 -95.1,91.71 H 665.6 L 434.3,462.84 v 323.3 c 0,572.4 -66.3,833.86 -292.3,1095 l 19.08,10.26 C 468,1757 633.142,1463.5087 635.28,1022 l 2.198,-453.9 h 690.8 v 348.7 c 0,396.7 56.92,772.5 281.7,936.5 118.9,86.7 241.3,-26.92 180.4,-147.1 l 28.52,-269.7 -21.65,-14.83 c -39.36,179.5 -72.64,209.1 -103.4,174.5 -120.7,-135.9 -162.3,-400.1 -162.3,-726.1 v -289.9 c 33.56,0 51.75,-15.29 51.75,-29.3 z"></path>
      <path sodipodi:nodetypes="cccccccccc" d="M 1405,1285 H 501 l 13.08,47.01 h 940.1 z m 0,-392 H 501 l 13.08,47.01 h 922.1 z" id="path2016"></path>
    
</svg>
