<?xml version="1.0" encoding="UTF-8" standalone="no"?>
<svg viewBox="0 0 2000 2000" version="1.1" xmlns="http://www.w3.org/2000/svg" xmlns:sodipodi="http://sodipodi.sourceforge.net/DTD/sodipodi-0.dtd">
	
      <path d="M 1959.845,1627.84 C 1313.74,1553.26 797.74,1016.26 648.74,536.26 l -31,76 c 142,558 542,1094 1098.895,1209 C 1757,1746 1864,1678 1951.435,1659.46 Z" id="path1647" sodipodi:nodetypes="cccccc"></path>
      <path sodipodi:nodetypes="cccccc" d="m 225.74,1599.26 89.26,287.9 c 20.77,-3.536 38.91,-30.39 39,-58.16 L 953.906,1585.93 958,1562 Z" id="path1658"></path>
      <path id="path1661" d="m 452.855,372.26 v 1291 l 199.2,-49.48 v -1171 c 38.55,1e-4 63.08,-21.03 64.83,-42.05 z" sodipodi:nodetypes="cccccc"></path>
      <path d="m 1241.845,353.81 c -85.71,197.8 -244.4,446.7 -425.8,663.8 l 24.3,18.65 c 218.4,-124 455.7,-327.7 606.7,-530.6 25.11,3.238 45.94,-8.426 56.39,-32.53 z" id="path1665"></path>
    
</svg>
