<?xml version="1.0" encoding="UTF-8" standalone="no"?>
<svg viewBox="0 0 2000 2000" version="1.1" xmlns="http://www.w3.org/2000/svg" xmlns:sodipodi="http://sodipodi.sourceforge.net/DTD/sodipodi-0.dtd">
	
      <path id="path1558" d="m 635.3809,339 v 1232 c 0,140 43,285 206,285 h 765 c 69,0 133,-103 63,-184 L 1692,1427 l -20,-4 c -28.3809,109 -73,237 -130,237 H 940 c -60,0 -90.99618,-43.2294 -91,-98 L 848.92,415.40039 c 32.42,0.6762 63.6601,-18.93984 70.6601,-45.83984 z" sodipodi:nodetypes="cssscccsssccc"></path>
      <path sodipodi:nodetypes="cccccc" id="path1565" d="M 1360,418 C 1117.1923,710.90009 731.20075,1030.7276 127,1190 l 13,16 c 606.19839,-48.1815 1069.5816,-295.59546 1433.2598,-649.42969 52.3349,4.48472 66.9308,-10.07945 77.3808,-34.18945 z"></path>
    
</svg>
