<?xml version="1.0" encoding="UTF-8" standalone="no"?>
<svg viewBox="0 0 2000 2000" version="1.1" xmlns="http://www.w3.org/2000/svg" xmlns:sodipodi="http://sodipodi.sourceforge.net/DTD/sodipodi-0.dtd">
	
      <path sodipodi:nodetypes="cssscccsssccc" d="m 730,968 v 682 c 0,140 43,285 206,285 h 765 c 69,0 133,-103 63,-184 l 22.6191,-245 -20,-4 c -28.3809,109 -73,237 -130,237 h -602 c -60,0 -90.99266,-43.2294 -91,-98 l -0.08,-596.5996 c 32.42,0.6762 63.6601,-18.9399 70.6601,-45.83985 z" id="path2034"></path>
      <path d="m 1373.7402,929.42969 c -242.8077,292.90011 -628.79925,612.72761 -1233,772.00001 l 13,16 C 759.93859,1669.2482 1223.3218,1421.8342 1587,1068 c 52.3349,4.4847 66.9308,-10.0794 77.3808,-34.1894 z" id="path2037" sodipodi:nodetypes="cccccc"></path>
      <path sodipodi:nodetypes="cccccc" id="path2046" d="M 1364.7402,100.42969 C 1121.9325,436.41886 735.94095,803.29675 131.7402,986 l 13,16 C 750.93859,945.39267 1214.3218,654.71165 1578,239 c 52.3349,5.26899 66.9308,-10.07945 77.3808,-34.18945 z"></path>
      <path sodipodi:nodetypes="ccscc" id="path2048" d="M 520.99996,355.99997 C 749.65956,480.96075 1024.3765,684.77116 1236,912 1396.6429,947.83594 1471.1658,776.41107 1364,681 1176.5936,514.14959 896.8966,391.32917 539.60406,345.11417 Z"></path>
    
</svg>
