<?xml version="1.0" encoding="UTF-8" standalone="no"?>
<svg viewBox="0 0 2000 2000" version="1.1" xmlns="http://www.w3.org/2000/svg" xmlns:sodipodi="http://sodipodi.sourceforge.net/DTD/sodipodi-0.dtd">
	
      <path d="m 897.6,1826 203.3,13.77 v -482.7 c 39.73,10e-5 65.01,-21.67 66.81,-43.34 l -270.1,-28.89 z m -781.9,-21.04 13.08,49.01 h 1757 c 16.86,0 27.23,-11.08 27.23,-16.26 l -198.2,-197.3 -119.1,164.6 z" id="path1547" sodipodi:nodetypes="ccccccccscccc"></path>
      <path sodipodi:nodetypes="ccccssccsscccccccc" d="m 1530,323.7 -95.1,91.71 H 583 L 351.7,359.34 v 866.1 c 0,53.6 203.3,37.16 203.3,-39.04 v -20 h 890.4 v 57.9 c 0,39.12 203.3,18.5 203.3,-50.04 v -685 c 33.56,0 78.32,-28.04 78.32,-42.05 z m -84.58,801.5 H 555.02 V 464.4 h 890.4 z" id="path1573"></path>
      <path d="m 715.3,1145 203.3,1.957 v -705.3 l -203.3,0.6918 z" id="path1571"></path>
      <path d="m 1080,1145 203.3,1.957 v -705.3 l -203.3,0.6918 z" id="path1566"></path>
    
</svg>
