<?xml version="1.0" encoding="UTF-8" standalone="no"?>
<svg viewBox="0 0 2000 2000" version="1.1" xmlns="http://www.w3.org/2000/svg" xmlns:sodipodi="http://sodipodi.sourceforge.net/DTD/sodipodi-0.dtd">
	
      <path id="path2733" d="M 24.27,1940 39,1953.85 c 398.6,-122.8 679.6,-600.8 838.6,-1371 17.81,0 62.98,-24.53 64.1,-30.82 l -203,-150.9 -140,125.7 H 365.5 l 15.42,48.34 h 263.6 c -83.56,659.2 -329.4,1167 -620.3,1365 z" sodipodi:nodetypes="ccccccccccc"></path>
      <path sodipodi:nodetypes="cccccc" id="path2735" d="m 107.68,1167.974 c 176.9,-130.4 341.8,-476 446.6,-824.9 14.43,-2.559 60.74,-9.156 70.18,-41.92 l -309.5,-70.04 c -39.44,309.9 -131.3,729.1 -232.4,934.9 z"></path>
      <path id="path2743" d="M 203.7,845.6 C 362.86466,1017.6172 561.67438,1318.3691 696,1612 803.14879,1649.2185 947.03287,1534.292 827,1355 682.58569,1139.2896 429.4603,898.16264 220.4,829.8 Z" sodipodi:nodetypes="ccscc"></path>
      <path sodipodi:nodetypes="csscccsccc" d="m 1313.73,673.749 v 1043 c 0,21.03 -10.4912,27.858 -24.53,26.28 l -222.5,-23.009 v 22.78 c 131.33,44.849 188.33,100.849 222.5,215.8 C 1476.7,1944.58 1513,1857 1513,1715 V 744 c 38.55,10e-5 63.08,-21.03 64.83,-42.05 z" id="path2756"></path>
      <path d="M 1342,117.621 C 1243.7696,342.70982 1062.357,620.87477 854,863 l 21,6 c 256.5567,-110.78589 510.1077,-365.3784 672.2,-599.529 26.9546,3.73674 45.94,-8.426 56.39,-32.53 z" id="path2758" sodipodi:nodetypes="cccccc"></path>
      <path d="m 1990.2,644.45 2,-28.45 C 1856,576 1574,399 1490.4,269.4 l -67.24,26.13 C 1465,483 1706.36,802.63 1832.03,841.34 1856,764 1924,672 1990.2,644.45 Z" id="path2760" sodipodi:nodetypes="cccccc"></path>
      <path sodipodi:nodetypes="ccscc" id="path2765" d="m 968.85,980.7476 c 43.164,61.3384 110.848,210.4431 149.275,341.3 103,60 197,-35 155,-146 -42.658,-112.7398 -182,-173 -293.575,-203.9 z"></path>
      <path sodipodi:nodetypes="cccccc" id="path2767" d="m 1660.267,933.8555 c -42.156,147.7235 -78.155,260.0036 -130.469,389.878 l 17.979,3.1236 C 1631.652,1288.285 1773.973,1169.7512 1858,1068 c 24.724,-0.2229 46.216,-5.3804 55.125,-18.641 z"></path>
    
</svg>
