<?xml version="1.0" encoding="UTF-8" standalone="no"?>
<svg viewBox="0 0 2000 2000" version="1.1" xmlns="http://www.w3.org/2000/svg" xmlns:sodipodi="http://sodipodi.sourceforge.net/DTD/sodipodi-0.dtd">
	
      <path id="path2788" d="M 508.4,801.07 H 734.109 C 733,1035 703,1381 655.849,1624.4832 c -2.83928,14.6618 -20.49216,24.742 -29.96,23.87 l -215.5,-21.69 2.211,28.14 c 111.4,39.94 188.3,143.1 187.2,224.9 98.42,8.252 236.47663,-28.7024 261.8,-189 C 911,1378 925,1140 936.46,811.69 955.16,808.836 975.3,793.62 983.4,777.2 L 798,646 689.2,752.7 H 492.8013 Z" sodipodi:nodetypes="ccsscccscccccc"></path>
      <path d="M 336,440.83213 V 660 c 0,555.2039 -97,1001 -276,1234 l 26,-1 C 332,1762 542.31913,1368.4482 548,702 l 0.21427,-259.76587 z" id="path2792" sodipodi:nodetypes="csccscc"></path>
      <path id="path2794" d="m 1761,266.93213 -123,146.34 -1562.4802,-0.05 13.0801,49.012 h 1829.9627 c 16.86,0 27.2305,-11.082 27.2305,-16.262 z" sodipodi:nodetypes="ccccscc"></path>
      <path sodipodi:nodetypes="cccccssccsscccc" d="M 1574.4,1716.04 H 1269.8 V 703.28 c 39.73,0 65.01,-21.67 66.81,-43.34 l -270.1,-28.89 V 1821 c 0,56.416 203.3,35.862 203.3,-43.73 v -12 h 304.6 v 55.9 c 0,56.2981 203.3,22.7746 203.3,-52.04 V 693.27 c 39.73,0 65.01,-21.67 66.81,-43.34 l -270.1,-28.89 z" id="path2828"></path>
      <path d="m 1126.8,1069.99 13.08,51.01 H 1692 l -10.07,-50.96 z" id="path2830" sodipodi:nodetypes="ccccc"></path>
    
</svg>
