<?xml version="1.0" encoding="UTF-8" standalone="no"?>
<svg viewBox="0 0 2000 2000" version="1.1" xmlns="http://www.w3.org/2000/svg" xmlns:sodipodi="http://sodipodi.sourceforge.net/DTD/sodipodi-0.dtd">
	
      <path id="path2432" d="m 1486.1055,626 -105.4844,91.71094 H 287 l 14,49.08984 H 1391.1211 V 1177.1172 L 536.82031,1177.0703 305.51953,1121 v 486.5312 c 0.307,140 47.1322,281.8397 210.10156,285 h 905.31641 69.6836 122.3164 c 69,0 133,-103 63,-184 l 22.6191,-245 -20,-4 c -28.381,109 -95.4637,191.6542 -130,237 h -15.2324 -19.7676 -913.73629 c -60,0 -91,-43.229 -91,-98 l -0.0996,-372.371 882.40039,-0.07 v 48.9297 c 0,61.6027 213.6291,35.8616 213.6191,-37 l -0.061,-446.49997 c 33.56,0 78.3203,-28.03883 78.3203,-42.04883 z" sodipodi:nodetypes="ccccccccccccsccccccscccssccc"></path>
      <path sodipodi:nodetypes="cscccc" d="m 585,601 c 0,36.98 212.152,15.05 212.152,-58.04 V 190.19 c 39.73,0 65.01,-21.67 66.81,-43.34 L 585.01,117.96 Z" id="path2370"></path>
      <path id="path2372" d="m 187.792,407.69117 h 1653.99 c 16.85,0 27.23,-11.08 27.23,-16.26 l -190.86,-182.74 -118.44,147.94 -1390,0.05 z" sodipodi:nodetypes="csccccc"></path>
      <path id="path2377" d="m 1145,601 c 0,36.98 212.152,15.05 212.152,-58.04 V 190.19 c 39.73,0 65.01,-21.67 66.81,-43.34 L 1145.01,117.96 Z" sodipodi:nodetypes="cscccc"></path>
    
</svg>
